<svg width="176" height="168" viewBox="0 0 176 168" fill="none" xmlns="http://www.w3.org/2000/svg">
<g clip-path="url(#clip0_586_30000)">
<path d="M122.879 164.078C120.575 163.759 118.389 163.565 116.251 163.139C110.982 162.09 106.191 159.934 101.853 156.753C96.5438 152.86 92.5211 147.918 89.8973 141.924C88.0672 137.746 87.0271 133.322 86.8387 128.739C86.8079 128.012 86.5886 127.718 85.8348 127.759C84.9325 127.81 84.0246 127.761 83.1205 127.757C82.5787 127.755 82.1202 127.58 82.1039 126.977C82.0876 126.354 82.5714 126.192 83.0987 126.183C84.0337 126.165 84.9705 126.136 85.9055 126.172C86.5615 126.197 86.797 125.964 86.8314 125.3C87.1069 120.074 88.3535 115.1 90.7309 110.411C93.2477 105.446 96.6887 101.25 101.086 97.8352C107.247 93.0522 114.253 90.5136 122.035 90.082C122.749 90.0423 123.09 89.8401 123.026 89.0745C122.972 88.4173 123.023 87.7528 123.014 87.0902C123.006 86.5269 123.13 86.0032 123.789 85.9834C124.461 85.9653 124.597 86.4799 124.588 87.0505C124.579 87.6824 124.632 88.318 124.575 88.9445C124.503 89.748 124.782 90.0513 125.619 90.0875C129.751 90.2644 133.748 91.1166 137.589 92.6514C142.299 94.531 146.414 97.3025 150.058 100.818C153.955 104.581 156.739 109.03 158.636 114.073C160.02 117.751 160.763 121.55 160.932 125.462C160.955 126.031 161.171 126.188 161.694 126.172C162.508 126.147 163.323 126.168 164.139 126.167C164.679 126.165 164.996 126.403 165.016 126.965C165.036 127.548 164.681 127.777 164.164 127.79C163.38 127.811 162.593 127.826 161.81 127.79C161.144 127.759 160.966 128.015 160.933 128.676C160.538 136.675 157.831 143.847 152.848 150.103C149.438 154.382 145.22 157.735 140.264 160.147C136.578 161.94 132.715 163.101 128.653 163.616C127.643 163.744 126.623 163.831 125.605 163.849C124.82 163.862 124.521 164.163 124.57 164.938C124.617 165.656 124.644 166.389 124.545 167.097C124.499 167.415 124.18 167.828 123.883 167.944C123.354 168.15 123.01 167.767 122.968 167.251C122.899 166.416 122.903 165.575 122.879 164.737C122.874 164.499 122.879 164.262 122.879 164.078ZM152.712 126.19C152.473 124.395 152.372 122.747 152.022 121.152C150.224 112.986 145.74 106.69 138.568 102.331C134.578 99.908 130.214 98.6513 125.565 98.3119C124.84 98.2595 124.485 98.4292 124.565 99.2237C124.619 99.7599 124.67 100.329 124.541 100.838C124.452 101.188 124.052 101.459 123.791 101.764C123.537 101.45 123.155 101.17 123.059 100.814C122.93 100.338 122.977 99.796 123.032 99.2905C123.119 98.4798 122.809 98.2432 122.006 98.3119C118.705 98.5899 115.506 99.2851 112.471 100.618C107.648 102.732 103.658 105.884 100.554 110.151C97.2233 114.73 95.4783 119.852 95.0851 125.466C95.0507 125.953 95.1993 126.195 95.732 126.179C96.3952 126.157 97.0747 126.107 97.7162 126.228C98.0387 126.289 98.2942 126.703 98.5787 126.957C98.2996 127.219 98.0568 127.634 97.7343 127.707C97.1581 127.835 96.5329 127.792 95.9331 127.754C95.2518 127.712 94.9764 127.97 95.1014 128.646C95.5273 130.944 95.7211 133.313 96.4151 135.528C98.5515 142.361 102.761 147.667 108.88 151.439C112.908 153.924 117.315 155.225 122.022 155.606C122.852 155.673 123.106 155.395 123.03 154.613C122.979 154.077 122.932 153.508 123.059 152.999C123.139 152.678 123.544 152.436 123.805 152.158C124.061 152.436 124.472 152.681 124.539 153.001C124.661 153.577 124.604 154.198 124.568 154.798C124.532 155.411 124.731 155.731 125.385 155.61C127.837 155.157 130.367 154.942 132.726 154.194C139.775 151.963 145.133 147.525 148.842 141.151C151.118 137.238 152.355 133.004 152.576 128.478C152.605 127.871 152.368 127.757 151.855 127.768C151.071 127.783 150.286 127.761 149.503 127.745C148.974 127.734 148.496 127.577 148.505 126.954C148.514 126.327 149.007 126.199 149.53 126.195C150.496 126.185 151.458 126.19 152.712 126.19ZM124.646 159.774C124.624 159.774 124.604 159.774 124.583 159.774C124.583 160.225 124.583 160.677 124.583 161.126C124.585 162.345 124.586 162.358 125.762 162.28C134.802 161.689 142.618 158.284 148.999 151.891C155.43 145.448 158.801 137.578 159.335 128.505C159.364 128.021 159.266 127.761 158.723 127.768C157.456 127.783 156.188 127.782 154.921 127.763C154.416 127.755 154.242 127.985 154.204 128.46C154.131 129.357 154.033 130.253 153.908 131.143C152.93 138.127 149.842 144.045 144.739 148.904C139.746 153.658 133.737 156.273 126.913 157.109C126.156 157.201 125.079 157.073 124.731 157.508C124.353 157.984 124.646 158.996 124.646 159.774ZM154.314 126.168C155.867 126.168 157.369 126.19 158.869 126.138C159.031 126.132 159.321 125.697 159.31 125.475C159.013 119.58 157.434 114.057 154.394 108.97C150.56 102.555 145.214 97.8045 138.403 94.7115C134.297 92.8464 129.97 91.8605 125.463 91.6204C124.804 91.5861 124.536 91.7432 124.568 92.4473C124.621 93.5578 124.619 94.6736 124.566 95.784C124.53 96.5424 124.833 96.7266 125.556 96.7735C134.772 97.382 142.246 101.327 147.941 108.56C151.091 112.561 153.029 117.117 153.819 122.144C154.026 123.444 154.144 124.756 154.314 126.168ZM123.024 159.761C123.023 159.761 123.021 159.761 123.021 159.761C123.021 159.16 122.994 158.557 123.03 157.957C123.062 157.414 122.834 157.208 122.309 157.176C121.468 157.123 120.627 157.047 119.792 156.934C113.997 156.154 108.815 153.922 104.368 150.154C97.6926 144.499 94.0976 137.255 93.5322 128.535C93.4978 128.012 93.3329 127.761 92.7893 127.764C91.5535 127.777 90.3159 127.779 89.0801 127.763C88.5311 127.755 88.3155 127.978 88.3807 128.526C88.4985 129.51 88.5691 130.498 88.6906 131.482C89.5168 138.224 92.1279 144.239 96.4731 149.43C102.793 156.981 110.953 161.207 120.778 162.204C123.026 162.432 123.03 162.404 123.03 160.122C123.024 160.001 123.024 159.88 123.024 159.761ZM123.019 94.1229C123.019 93.5524 122.983 92.9782 123.028 92.4094C123.079 91.754 122.803 91.5464 122.187 91.6348C120.013 91.9472 117.806 92.1079 115.669 92.5846C110.128 93.8178 105.198 96.3456 100.88 100.015C95.7556 104.366 92.1515 109.757 90.0641 116.137C89.0874 119.119 88.5728 122.196 88.3771 125.327C88.3481 125.78 88.3481 126.179 88.9877 126.172C90.2851 126.157 91.5825 126.201 92.8781 126.139C93.101 126.129 93.4507 125.746 93.4924 125.495C93.6681 124.431 93.7116 123.346 93.8693 122.279C94.6883 116.761 96.9098 111.836 100.518 107.605C106.204 100.935 113.47 97.2755 122.276 96.7609C122.807 96.7302 123.05 96.5659 123.024 96.017C122.995 95.385 123.017 94.7531 123.019 94.1229Z" fill="#4949FC"/>
<path d="M111.84 54.653C110.876 54.653 109.979 54.6603 109.082 54.6512C107.468 54.635 106.495 53.6871 106.471 52.0675C106.45 50.5634 106.442 49.0594 106.497 47.5571C106.509 47.1924 106.703 46.7049 106.979 46.5261C107.176 46.3979 107.707 46.6092 107.99 46.8096C109.66 47.9851 111.764 47.5463 112.504 45.8328C113.018 44.6393 112.726 43.3844 111.744 42.5719C110.757 41.7522 109.177 41.6782 108.089 42.3318C107.742 42.5412 107.167 42.7976 106.923 42.6514C106.64 42.4835 106.484 41.8984 106.482 41.494C106.459 33.8257 106.462 26.1574 106.473 18.4891C106.475 16.837 107.45 15.9053 109.159 15.9053C116.22 15.8999 123.283 15.9035 130.345 15.9053C130.73 15.9053 131.116 15.9053 131.642 15.9053C131.046 13.8705 131.086 12.0468 132.711 10.6042C133.602 9.81514 134.659 9.35652 135.857 9.46666C137.377 9.60569 138.607 10.2882 139.397 11.655C140.164 12.9803 140.146 14.3363 139.377 15.8981C140.488 15.8981 141.374 15.8963 142.262 15.8981C144.295 15.9054 145.212 16.8569 145.208 18.9008C145.198 24.0124 145.192 29.1258 145.203 34.2374C145.208 36.6406 145.284 39.0456 145.27 41.4489C145.268 41.8732 145.087 42.4528 144.783 42.6658C144.554 42.8247 143.942 42.599 143.588 42.395C142.233 41.6114 140.635 41.8009 139.729 42.9168C138.883 43.9604 138.915 45.4753 139.809 46.4774C140.793 47.5842 142.32 47.707 143.674 46.8584C144.045 46.6254 144.643 46.3564 144.933 46.5027C145.221 46.6507 145.361 47.2935 145.377 47.7268C145.431 49.1081 145.413 50.493 145.393 51.8761C145.368 53.5119 144.228 54.6368 142.59 54.6639C141.693 54.6783 140.796 54.6657 139.751 54.6657C140.354 56.5561 140.151 58.1884 138.861 59.566C138.015 60.4688 136.92 60.9328 135.706 60.9202C134.168 60.904 132.899 60.2106 132.05 58.9178C131.229 57.6702 131.167 56.2745 131.611 54.7469C127.706 54.7469 123.934 54.7469 120.041 54.7469C120.545 56.6518 120.397 58.3834 118.918 59.7755C118.019 60.6223 116.937 61.0159 115.7 60.9527C112.772 60.801 111.317 58.5098 111.84 54.653ZM143.826 48.6856C142.289 49.0883 140.899 49.1623 139.609 48.3353C138.319 47.5084 137.623 46.3022 137.544 44.8145C137.48 43.6426 137.893 42.5701 138.725 41.6908C140.093 40.2427 141.795 40.073 143.744 40.5334C143.744 39.1251 143.77 37.8377 143.715 36.5557C143.708 36.3788 143.302 36.0791 143.072 36.0718C141.655 36.0249 140.234 36.0827 138.817 36.0231C138.388 36.005 137.834 35.8299 137.596 35.5248C137.455 35.3424 137.737 34.7141 137.969 34.3836C138.718 33.3129 138.848 32.0707 138.23 31.0921C137.368 29.7252 135.737 29.3262 134.365 30.1477C132.99 30.9711 132.637 32.8633 133.528 34.3728C133.733 34.7195 133.974 35.3568 133.82 35.5338C133.561 35.8317 133.001 35.9798 132.562 35.9924C130.874 36.0393 129.183 36.0249 127.494 35.9924C126.974 35.9816 126.797 36.1549 126.802 36.6587C126.817 38.0417 126.836 39.4266 126.777 40.8079C126.753 41.3676 126.534 41.9201 126.405 42.4762C125.905 42.2921 125.369 42.1675 124.91 41.9111C123.417 41.0733 121.661 41.4886 120.813 42.9312C120.043 44.2403 120.545 45.97 121.949 46.7302C123.122 47.3639 124.204 47.0642 125.265 46.3799C125.577 46.1795 126.081 46.026 126.387 46.1416C126.615 46.2264 126.769 46.7771 126.778 47.1238C126.82 48.8373 126.817 50.5526 126.8 52.2661C126.795 52.8818 127.032 53.1111 127.659 53.1003C129.319 53.0696 130.979 53.0659 132.639 53.1111C133.015 53.1219 133.568 53.2718 133.709 53.5336C133.845 53.7882 133.637 54.3172 133.438 54.6422C132.673 55.8935 132.725 57.4409 133.631 58.4177C134.668 59.5371 136.292 59.6617 137.462 58.712C138.752 57.6666 138.854 56.0921 137.772 54.6133C137.565 54.3317 137.33 53.8098 137.453 53.6112C137.625 53.3332 138.114 53.1291 138.479 53.1129C139.774 53.0551 141.073 53.093 142.371 53.0876C143.063 53.084 143.726 52.8655 143.797 52.1216C143.904 51.0256 143.826 49.9152 143.826 48.6856ZM139.912 34.4974C140.863 34.4974 141.762 34.4504 142.652 34.5118C143.471 34.5678 143.668 34.2284 143.665 33.4664C143.636 28.5679 143.652 23.6693 143.643 18.769C143.641 17.7561 143.311 17.4419 142.273 17.4347C140.885 17.4238 139.497 17.4581 138.111 17.4238C137.181 17.4022 136.897 16.8117 137.384 16.0354C137.654 15.6038 137.951 15.1831 138.169 14.7245C138.667 13.6737 138.415 12.7185 137.64 11.9096C136.871 11.1061 135.922 10.81 134.836 11.1621C132.725 11.8464 132.213 14.0925 133.706 15.8819C133.938 16.1599 134.121 16.6637 134.023 16.9652C133.947 17.1999 133.403 17.395 133.059 17.413C131.946 17.4672 130.828 17.4311 129.712 17.4311C128.728 17.4311 127.746 17.4311 126.697 17.4311C126.697 19.9173 126.697 22.2574 126.697 24.5992C126.697 27.6055 126.688 30.61 126.717 33.6163C126.72 33.8961 126.965 34.4071 127.114 34.4125C128.609 34.4721 130.107 34.4486 131.709 34.4486C131.403 32.8218 131.289 31.3268 132.272 30.0177C133.267 28.6943 134.59 28.0406 136.268 28.1923C139.113 28.4487 140.508 30.758 139.912 34.4974ZM107.999 48.691C107.999 49.8015 107.992 50.753 108.001 51.7063C108.012 52.8439 108.258 53.1003 109.376 53.1111C110.614 53.1237 111.851 53.0804 113.085 53.1309C113.464 53.1472 114.075 53.3133 114.147 53.5444C114.25 53.8712 114.038 54.3858 113.805 54.709C113.024 55.7869 112.9 57.0256 113.564 58.0782C114.399 59.4053 116.099 59.7863 117.441 58.9485C118.8 58.0999 119.139 56.1733 118.229 54.7054C118.028 54.3804 117.766 53.7629 117.894 53.6311C118.181 53.3368 118.692 53.1454 119.119 53.1255C120.444 53.0659 121.774 53.1075 123.1 53.1075C125.28 53.1057 125.28 53.1057 125.28 50.8974C125.28 50.0488 125.28 49.202 125.28 48.3263C121.48 48.933 119.148 47.521 118.894 44.6213C118.788 43.3953 119.186 42.3047 120 41.3839C121.411 39.7859 123.222 39.7119 125.275 40.2265C125.275 39.0492 125.246 38.0056 125.285 36.9638C125.311 36.2741 125.014 36.0845 124.369 36.1007C122.952 36.1332 121.533 36.1368 120.116 36.0935C119.697 36.0809 119.023 35.978 118.929 35.7378C118.795 35.3984 119.005 34.8404 119.224 34.4667C119.994 33.1522 119.63 31.1408 118.412 30.3301C117.309 29.5952 115.858 29.7198 114.913 30.6316C113.855 31.6536 113.756 33.1089 114.593 34.4197C114.828 34.7881 114.906 35.2557 115.057 35.6782C114.595 35.8227 114.138 36.0791 113.672 36.0935C112.045 36.1459 110.414 36.0971 108.787 36.135C108.53 36.1405 108.064 36.3932 108.057 36.5467C107.997 37.8503 108.022 39.1558 108.022 40.5623C110.499 40.0531 112.551 40.4215 113.786 42.6622C114.645 44.2186 114.535 45.831 113.467 47.252C112.132 49.0305 110.298 49.4006 107.999 48.691ZM121.109 34.5642C122.143 34.5642 123.133 34.5209 124.115 34.5786C124.899 34.6256 125.155 34.3656 125.149 33.5675C125.117 28.5769 125.121 23.5845 125.146 18.5939C125.149 17.7994 124.941 17.4925 124.082 17.4997C119.346 17.5376 114.609 17.5141 109.871 17.5141C108.233 17.5141 108.001 17.7398 107.999 19.4009C107.993 23.8517 108.001 28.3006 107.997 32.7514C107.995 34.947 107.81 34.5678 109.885 34.5967C110.827 34.6093 111.77 34.5985 112.734 34.5985C112.208 30.7436 113.658 28.474 116.599 28.2916C119.601 28.1074 121.163 30.2218 121.109 34.5642Z" fill="#4949FC"/>
<path d="M151.948 49.4547C151.864 51.0292 151.826 52.4357 151.708 53.8368C151.288 58.804 149.083 62.6246 144.442 64.8166C143.547 65.2391 142.612 65.6056 141.659 65.8692C140.891 66.0805 140.695 66.4831 140.702 67.2234C140.731 70.8327 140.715 74.4403 140.713 78.0496C140.713 78.3205 140.78 78.6347 140.668 78.8495C140.53 79.1077 140.244 79.4327 140.001 79.449C139.758 79.4652 139.423 79.1853 139.26 78.9452C139.128 78.7502 139.171 78.4252 139.171 78.158C139.167 74.1279 139.187 70.0979 139.155 66.0678C139.148 65.212 139.488 64.84 140.298 64.6414C143.745 63.8 146.765 62.2942 148.563 59.0387C149.753 56.881 150.134 54.5139 150.201 52.0872C150.228 51.1249 150.208 50.1625 150.203 49.2001C150.197 47.9723 150.348 47.8206 151.618 47.8206C153.218 47.8188 154.818 47.8333 156.416 47.8152C157.786 47.799 158.279 47.1436 157.94 45.8399C156.073 38.6573 154.283 31.4549 152.321 24.2976C150.36 17.1529 146.185 11.4978 140.106 7.27097C134.369 3.28245 127.946 1.41729 120.979 1.79826C111.621 2.31105 103.931 6.2779 98.0567 13.5652C93.3238 19.437 91.0243 26.2151 91.3161 33.7371C91.6948 43.462 95.8189 51.3596 103.5 57.3938C103.855 57.6737 104.181 58.024 104.584 58.2009C106.024 58.8365 106.388 59.8873 106.361 61.4275C106.263 66.9598 106.323 72.4939 106.321 78.028C106.321 78.2681 106.392 78.5498 106.29 78.7394C106.138 79.0247 105.836 79.467 105.647 79.4435C105.345 79.4056 105.02 79.086 104.826 78.8008C104.696 78.6094 104.767 78.2771 104.767 78.0081C104.765 72.4144 104.754 66.8207 104.777 61.2271C104.781 60.5211 104.562 60.0823 103.973 59.6707C95.9693 54.0571 91.2526 46.4177 89.9516 36.747C89.3337 32.1591 89.8483 27.6505 91.1548 23.198C92.8146 17.5393 95.8968 12.778 100.199 8.82016C104.999 4.40191 110.663 1.63035 117.141 0.563249C122.155 -0.263706 127.11 0.0576867 131.947 1.52923C136.663 2.96467 140.876 5.32817 144.535 8.69557C148.561 12.4006 151.547 16.7864 153.31 21.9196C154.379 25.0306 155.05 28.2771 155.883 31.4657C157.103 36.1331 158.29 40.8114 159.525 45.4734C160.114 47.6925 158.895 49.4041 156.583 49.4475C155.055 49.4782 153.522 49.4547 151.948 49.4547Z" fill="#4949FC"/>
<path d="M44.9618 46.6724C36.3294 46.6724 27.697 46.6724 19.0665 46.6724C17.5643 46.6724 17.1276 47.1039 17.1258 48.6079C17.124 59.1038 17.1258 69.5996 17.1258 80.0972C17.1258 80.8158 17.2526 81.7638 16.2488 81.7638C15.283 81.7638 15.4624 80.8285 15.4624 80.1604C15.4588 69.6032 15.4588 59.0478 15.4588 48.4906C15.4588 46.36 16.7199 44.9932 18.8381 44.9878C28.0141 44.9661 37.1883 44.9552 46.3643 44.9896C54.5709 45.0203 62.7775 45.1178 70.9822 45.1773C73.2545 45.1936 74.4286 46.3401 74.4395 48.6278C74.4522 51.6648 74.4449 54.7036 74.4449 57.7405C74.4449 57.9211 74.5047 58.154 74.416 58.2714C74.2039 58.5513 73.9158 58.9756 73.664 58.9701C73.4049 58.9665 73.0026 58.5603 72.9301 58.266C72.8051 57.7532 72.883 57.1917 72.883 56.65C72.883 54.003 72.8921 51.356 72.8812 48.7109C72.8758 47.2014 72.3829 46.7265 70.8572 46.7265C62.2248 46.7247 53.5942 46.7247 44.9618 46.7247C44.9618 46.7067 44.9618 46.6904 44.9618 46.6724Z" fill="#4949FC"/>
<path d="M44.8004 122.467C36.0466 122.467 27.2946 122.467 18.5408 122.467C16.7615 122.467 15.4713 121.203 15.4641 119.407C15.4478 115.797 15.4586 112.188 15.4586 108.579C15.4586 108.019 15.4641 107.4 16.2305 107.409C16.9843 107.416 17.1239 107.997 17.122 108.622C17.1166 111.96 17.1311 115.299 17.0967 118.637C17.0786 120.434 17.4899 120.914 19.2801 120.914C36.4851 120.918 53.6901 120.918 70.8951 120.918C72.3918 120.918 72.8792 120.423 72.8792 118.894C72.8829 109.871 72.8792 100.847 72.8865 91.8247C72.8865 91.1945 72.6817 90.3062 73.6512 90.2791C74.6659 90.2484 74.4358 91.1584 74.4358 91.7741C74.4448 100.768 74.4448 109.759 74.4339 118.753C74.4303 121.413 73.3467 122.476 70.6958 122.478C62.0634 122.478 53.431 122.478 44.7986 122.478C44.8004 122.473 44.8004 122.469 44.8004 122.467Z" fill="#4949FC"/>
<path d="M20.1371 93.0488C20.1371 94.7009 20.1461 96.3548 20.1316 98.0069C20.128 98.4547 20.1733 98.9621 19.9849 99.3377C19.4829 100.336 19.9377 100.992 20.5556 101.719C21.8222 103.209 23.0453 104.735 24.225 106.293C24.4696 106.618 24.446 107.145 24.5457 107.578C24.1072 107.623 23.6143 107.824 23.2374 107.692C19.0897 106.248 14.962 104.744 10.8216 103.277C10.4048 103.129 9.94092 103.068 9.49698 103.059C8.02019 103.034 6.5416 103.05 5.06482 103.055C2.20366 103.064 0.0618701 101.031 0.029254 98.1694C-0.0124221 94.6847 -0.00698605 91.1981 0.029254 87.7133C0.0582461 84.996 2.26346 82.9286 5.19166 82.8888C8.47863 82.8437 11.7656 82.8329 15.0526 82.8906C18.0424 82.943 20.1316 85.1314 20.1371 88.0907C20.1389 89.7446 20.1371 91.3967 20.1371 93.0488ZM21.0322 105.24C21.0847 105.161 21.1391 105.083 21.1917 105.004C20.2222 103.79 19.2673 102.566 18.2798 101.369C17.863 100.863 17.8213 100.425 18.1149 99.8143C18.3794 99.2672 18.5371 98.6154 18.5443 98.0069C18.586 94.7912 18.5588 91.5737 18.5661 88.3561C18.5715 85.8337 17.352 84.5825 14.8152 84.5716C11.617 84.5572 8.41883 84.5626 5.22065 84.5698C3.08973 84.5753 1.67274 85.8825 1.6365 88.0329C1.58033 91.3678 1.57671 94.7063 1.63831 98.0431C1.67637 100.127 3.09698 101.439 5.1826 101.47C6.81159 101.494 8.44058 101.468 10.0714 101.486C10.4247 101.49 10.7962 101.537 11.126 101.656C13.7081 102.582 16.2793 103.534 18.8578 104.473C19.579 104.735 20.3074 104.984 21.0322 105.24Z" fill="#4949FC"/>
<path d="M79.4377 60.4398C81.0359 60.4398 82.6359 60.4218 84.2341 60.4453C87.3072 60.4904 89.3113 62.5 89.3348 65.5587C89.362 68.8647 89.3928 72.1707 89.3765 75.4749C89.362 78.3133 87.213 80.6677 84.3845 80.4059C79.7838 79.978 75.7521 81.6247 71.6461 83.1793C69.8159 83.8726 67.9768 84.5461 66.1176 85.16C65.7643 85.2774 65.3059 85.0788 64.8945 85.0264C64.9724 84.622 64.9253 84.1236 65.1482 83.8311C66.5181 82.0382 67.9677 80.3084 69.3376 78.5155C69.5586 78.2266 69.5949 77.7264 69.5677 77.3328C69.517 76.5907 69.2687 75.8577 69.2596 75.1192C69.2234 71.963 69.2379 68.8069 69.2433 65.6507C69.2506 62.5578 71.2728 60.494 74.3713 60.4417C76.0583 60.4164 77.7471 60.4398 79.4377 60.4398ZM68.1924 82.4968C68.254 82.5636 68.3138 82.6304 68.3754 82.699C70.066 82.0869 71.7946 81.5597 73.4418 80.8483C76.8103 79.393 80.2621 78.5083 83.9641 78.9109C84.0239 78.9181 84.0855 78.9127 84.1453 78.9109C86.2852 78.8802 87.6859 77.703 87.7493 75.5742C87.8508 72.1526 87.8508 68.722 87.7548 65.3005C87.6968 63.2096 86.3269 62.0215 84.2159 62.0053C80.9579 61.9782 77.7018 61.9782 74.4438 61.9981C72.1589 62.0125 70.8107 63.3956 70.8053 65.6832C70.798 68.8683 70.7854 72.0551 70.818 75.2402C70.8234 75.827 70.876 76.5005 71.1659 76.9771C71.7203 77.889 71.4594 78.5119 70.8361 79.2251C69.9156 80.2795 69.0712 81.4026 68.1924 82.4968Z" fill="#4949FC"/>
<path d="M41.0801 106.386C41.0819 108.401 41.062 110.416 41.0909 112.43C41.1018 113.235 40.763 113.594 39.9693 113.592C35.8669 113.582 31.7627 113.574 27.6604 113.571C26.9464 113.571 26.633 113.237 26.6348 112.516C26.6475 108.427 26.6511 104.337 26.6366 100.247C26.633 99.4295 27.0099 99.1226 27.7945 99.1244C31.8388 99.1352 35.8814 99.1334 39.9258 99.1226C40.7738 99.1208 41.1018 99.5053 41.0891 100.343C41.0583 102.356 41.0801 104.371 41.0801 106.386ZM28.1895 106.298C28.1895 107.952 28.2058 109.606 28.1804 111.258C28.1714 111.807 28.2837 112.083 28.9161 112.078C32.2049 112.052 35.4937 112.054 38.7825 112.063C39.317 112.065 39.5344 111.881 39.5326 111.328C39.5181 108.02 39.5217 104.714 39.5344 101.407C39.5362 100.863 39.3279 100.672 38.7843 100.675C35.5263 100.692 32.2665 100.697 29.0085 100.674C28.3689 100.668 28.1677 100.901 28.1804 101.517C28.2094 103.109 28.1913 104.704 28.1895 106.298Z" fill="#4949FC"/>
<path d="M40.719 62.8937C40.719 64.878 40.6954 66.8641 40.7299 68.8485C40.7444 69.7007 40.4128 70.0293 39.5539 70.0257C35.5403 70.004 31.5249 70.0221 27.5113 70.0185C26.4639 70.0167 26.2809 69.8415 26.2791 68.8232C26.2719 64.8527 26.2719 60.8823 26.2773 56.9136C26.2791 55.8429 26.4875 55.6316 27.5312 55.6298C31.485 55.6244 35.4388 55.6226 39.3926 55.628C40.5305 55.6298 40.7172 55.8212 40.7208 56.9389C40.7262 58.9232 40.7226 60.9093 40.7226 62.8937C40.7226 62.8937 40.7208 62.8937 40.719 62.8937ZM39.1625 68.4747C39.1625 64.8112 39.1715 61.2687 39.1353 57.7279C39.1335 57.5401 38.7457 57.1989 38.5337 57.1971C35.1833 57.1628 31.8347 57.161 28.4843 57.1989C28.2651 57.2007 27.8664 57.5925 27.8646 57.8074C27.8248 61.1748 27.8248 64.544 27.8592 67.9114C27.861 68.101 28.2307 68.4512 28.4318 68.453C31.9579 68.4855 35.4859 68.4747 39.1625 68.4747Z" fill="#4949FC"/>
<path d="M56.0574 77.4177C58.0796 77.4177 60.1 77.4086 62.1222 77.4213C63.1949 77.4285 63.3489 77.5838 63.3507 78.6166C63.358 82.5852 63.3598 86.5539 63.3561 90.5226C63.3543 91.624 63.1731 91.8099 62.1131 91.8117C58.1611 91.819 54.2073 91.8208 50.2554 91.8172C49.054 91.8154 48.8909 91.6529 48.8891 90.4594C48.8837 86.5196 48.8837 82.5816 48.8873 78.6419C48.8891 77.5711 49.0268 77.4267 50.0814 77.4213C52.0746 77.4105 54.066 77.4195 56.0574 77.4177ZM56.2241 78.9651C56.2241 78.9632 56.2241 78.9633 56.2241 78.9614C54.5353 78.9614 52.8447 78.9777 51.1559 78.9524C50.6232 78.9452 50.3985 79.0914 50.4021 79.6602C50.4221 82.9373 50.4184 86.2145 50.4094 89.4916C50.4076 90.0549 50.6051 90.2914 51.2067 90.286C54.4646 90.2626 57.7244 90.2607 60.9824 90.2788C61.6094 90.2824 61.8304 90.0712 61.8268 89.4428C61.8069 86.1964 61.8069 82.9482 61.8323 79.7017C61.8377 79.086 61.5931 78.9434 61.0241 78.9542C59.4223 78.9849 57.8241 78.9651 56.2241 78.9651Z" fill="#4949FC"/>
<path d="M35.3394 88.235C32.8352 88.235 30.3292 88.235 27.825 88.235C27.2614 88.235 26.649 88.2404 26.6725 87.4568C26.6943 86.7147 27.2759 86.6768 27.854 86.6768C32.8334 86.6804 37.8146 86.6786 42.7939 86.6768C42.8845 86.6768 42.9751 86.6768 43.0657 86.6786C43.6293 86.6894 44.095 86.953 43.9681 87.52C43.9029 87.8107 43.3665 88.1916 43.0367 88.1989C40.4728 88.2548 37.907 88.2296 35.3412 88.2296C35.3394 88.2314 35.3394 88.2332 35.3394 88.235Z" fill="#4949FC"/>
<path d="M54.8768 66.2377C52.4668 66.2377 50.055 66.2377 47.6451 66.2359C47.4041 66.2359 47.1214 66.2937 46.9348 66.1908C46.6738 66.0463 46.3296 65.7863 46.3096 65.5516C46.2897 65.3097 46.5633 64.9576 46.8061 64.8059C47.0326 64.6633 47.386 64.6958 47.6831 64.694C52.5049 64.6885 57.3248 64.6849 62.1465 64.6976C62.7789 64.6994 63.6704 64.5369 63.6668 65.4974C63.6632 66.4129 62.8025 66.2269 62.2009 66.2305C59.7565 66.2468 57.3157 66.2377 54.8768 66.2377Z" fill="#4949FC"/>
<path d="M54.6792 102.692C57.178 102.692 59.6786 102.696 62.1773 102.69C62.759 102.689 63.3515 102.743 63.3261 103.483C63.3044 104.126 62.7735 104.25 62.2081 104.249C57.149 104.245 52.0899 104.245 47.0308 104.249C46.4546 104.249 45.9653 104.092 45.9707 103.431C45.9762 102.801 46.4745 102.694 47 102.694C49.5603 102.696 52.1189 102.694 54.6792 102.694C54.6792 102.694 54.6792 102.694 54.6792 102.692Z" fill="#4949FC"/>
<path d="M54.9926 60.958C52.4903 60.958 49.9879 60.949 47.4837 60.9652C46.8803 60.9688 46.3041 60.875 46.295 60.1852C46.286 59.4738 46.8839 59.4052 47.4746 59.407C52.4794 59.4142 57.486 59.4124 62.4907 59.4088C63.0706 59.4088 63.6848 59.463 63.6812 60.178C63.6776 60.8641 63.1032 60.9688 62.4998 60.9652C59.9992 60.949 57.4968 60.958 54.9926 60.958Z" fill="#4949FC"/>
<path d="M54.6287 107.397C57.1329 107.397 59.6371 107.399 62.1395 107.396C62.7121 107.396 63.3281 107.43 63.3191 108.17C63.31 108.891 62.7157 108.947 62.1322 108.947C57.1854 108.941 52.2369 108.945 47.2901 108.945C47.1687 108.945 47.0491 108.943 46.9277 108.936C46.3913 108.905 45.8731 108.699 45.9891 108.118C46.047 107.829 46.5925 107.461 46.9386 107.437C48.1689 107.354 49.4101 107.403 50.6477 107.403C51.9759 107.403 53.3023 107.403 54.6305 107.403C54.6287 107.401 54.6287 107.399 54.6287 107.397Z" fill="#4949FC"/>
<path d="M35.3248 83.562C32.8224 83.562 30.32 83.562 27.8195 83.562C27.2922 83.562 26.7159 83.571 26.6797 82.8578C26.6398 82.1049 27.2124 82.002 27.7905 82.002C32.8242 81.9984 37.858 82.0002 42.8935 82.0038C43.4426 82.0038 43.9807 82.1031 43.9916 82.7838C44.0043 83.5638 43.3918 83.5584 42.8319 83.5602C40.3295 83.5638 37.8272 83.562 35.3248 83.562Z" fill="#4949FC"/>
<path d="M174.23 78.0137C174.081 76.4356 173.936 74.8557 173.78 73.2776C173.724 72.7107 173.835 72.234 174.476 72.1311C175.078 72.0336 175.371 72.4272 175.446 72.9581C175.592 73.9963 175.757 75.0363 175.81 76.0799C175.909 78.0245 175.917 79.9745 175.998 81.9209C176.025 82.5746 175.734 83.0567 175.148 83.0819C174.538 83.1072 174.273 82.6341 174.266 81.9733C174.252 80.657 174.148 79.3426 174.081 78.0263C174.13 78.0209 174.179 78.0173 174.23 78.0137Z" fill="#4949FC"/>
<path d="M171.007 109.626C170.768 110.252 170.607 110.731 170.404 111.191C169.402 113.461 168.395 115.727 167.374 117.987C167.255 118.253 167.095 118.569 166.863 118.701C166.613 118.843 166.213 118.901 165.956 118.8C165.767 118.724 165.604 118.332 165.61 118.083C165.617 117.742 165.762 117.392 165.903 117.07C166.97 114.633 168.052 112.201 169.127 109.765C169.186 109.628 169.194 109.429 169.297 109.357C169.614 109.131 169.993 108.766 170.297 108.81C170.573 108.849 170.785 109.35 171.007 109.626Z" fill="#4949FC"/>
<path d="M53.311 12.5306C53.0899 12.341 52.7148 12.1677 52.7148 11.9944C52.7167 11.6242 52.7964 11.0934 53.0483 10.9164C53.8546 10.3549 54.7352 9.88546 55.6213 9.45032C57.4242 8.56558 59.2507 7.72599 61.0664 6.86473C61.6408 6.59209 62.2405 6.5 62.5232 7.18071C62.8113 7.87405 62.2695 8.15391 61.7096 8.42655C59.2308 9.63629 56.7701 10.8857 54.3003 12.1135C54.0104 12.2598 53.706 12.3663 53.311 12.5306Z" fill="#4949FC"/>
<path d="M175.423 91.978C174.839 94.8706 174.287 97.7703 173.636 100.648C173.558 100.995 172.944 101.221 172.578 101.502C172.398 101.103 172.014 100.67 172.072 100.309C172.397 98.3373 172.841 96.3855 173.217 94.4228C173.364 93.6608 173.446 92.888 173.555 92.1189C173.571 91.9997 173.562 91.8769 173.591 91.7614C173.727 91.2215 173.908 90.6329 174.593 90.7123C175.285 90.7936 175.392 91.3479 175.423 91.978Z" fill="#4949FC"/>
<path d="M26.5739 37.7638C25.6443 37.6591 25.3544 37.1427 25.7513 36.5017C26.4253 35.4093 27.1501 34.3422 27.9257 33.3166C28.9531 31.957 30.0548 30.6534 31.1166 29.3191C31.5134 28.8208 31.9846 28.4759 32.559 28.958C33.0862 29.3985 32.8471 29.8897 32.4792 30.3681C30.7361 32.645 29.0201 34.9435 27.2715 37.2167C27.0613 37.4893 26.7116 37.6573 26.5739 37.7638Z" fill="#4949FC"/>
<path d="M33.2921 133.978C33.0946 134.236 32.9279 134.631 32.763 134.631C32.3589 134.629 31.8081 134.575 31.5761 134.313C30.5088 133.102 29.5068 131.831 28.5265 130.545C27.7292 129.5 26.9845 128.413 26.2416 127.328C25.9027 126.835 25.6617 126.248 26.3068 125.842C26.9066 125.464 27.3107 125.935 27.6477 126.376C29.3546 128.608 31.0579 130.843 32.7539 133.082C32.9442 133.335 33.0819 133.625 33.2921 133.978Z" fill="#4949FC"/>
<path d="M38.8514 139.801C39.1957 140.006 39.5001 140.144 39.7484 140.346C41.9246 142.135 44.099 143.924 46.248 145.744C46.5162 145.972 46.7808 146.358 46.8007 146.687C46.8442 147.393 45.9962 147.695 45.3167 147.178C43.8598 146.073 42.4319 144.928 41.024 143.764C40.1017 143 39.2048 142.202 38.3658 141.352C38.1466 141.129 38.0958 140.633 38.152 140.292C38.1828 140.102 38.5923 139.972 38.8514 139.801Z" fill="#4949FC"/>
<path d="M167.817 46.2265C167.598 46.4792 167.408 46.8891 167.116 46.9794C166.864 47.057 166.482 46.8061 166.194 46.6363C166.063 46.5587 166.025 46.3276 165.938 46.1705C164.594 43.7619 163.245 41.355 161.905 38.9446C161.626 38.4444 161.247 37.8684 161.939 37.4532C162.586 37.0668 163.026 37.4152 163.371 38.0418C164.728 40.5136 166.123 42.9656 167.498 45.4284C167.612 45.6324 167.674 45.8635 167.817 46.2265Z" fill="#4949FC"/>
<path d="M62.9821 155.567C63.0111 156.466 62.6124 156.798 61.913 156.598C61.2842 156.417 60.679 156.132 60.0901 155.839C57.9411 154.772 55.8011 153.685 53.6611 152.602C53.1157 152.326 52.9273 151.836 53.1828 151.322C53.4763 150.729 53.9982 150.856 54.5019 151.109C57.0804 152.392 59.6679 153.66 62.241 154.96C62.5707 155.122 62.8262 155.435 62.9821 155.567Z" fill="#4949FC"/>
<path d="M174.039 63.7912C173.816 64.0133 173.531 64.5134 173.263 64.5062C172.928 64.4954 172.419 64.1307 172.31 63.8075C171.87 62.5074 171.571 61.1605 171.189 59.8406C170.775 58.407 170.335 56.9806 169.889 55.556C169.712 54.9854 169.536 54.33 170.196 54.0682C170.864 53.8028 171.299 54.2505 171.493 54.9385C172.292 57.7822 173.111 60.6206 173.923 63.4608C173.939 63.5186 173.963 63.5727 174.039 63.7912Z" fill="#4949FC"/>
<path d="M80.0334 162.043C77.6433 161.494 75.4508 161.002 73.2655 160.487C72.4773 160.303 71.7036 160.059 70.919 159.869C70.2975 159.72 70.1344 159.263 70.3301 158.784C70.4316 158.539 70.9027 158.295 71.1944 158.308C71.7833 158.335 72.3614 158.541 72.9448 158.671C75.3095 159.198 77.6705 159.738 80.0406 160.241C80.6295 160.366 81.0753 160.667 80.9376 161.233C80.8578 161.565 80.3342 161.791 80.0334 162.043Z" fill="#4949FC"/>
<path d="M70.3919 5.09341C70.227 4.9273 69.7196 4.60049 69.7667 4.41813C69.8664 4.03534 70.198 3.52617 70.5405 3.42506C72.4884 2.84366 74.4635 2.35255 76.4367 1.86323C77.3953 1.6267 78.3665 1.39559 79.345 1.3017C79.6766 1.2692 80.0499 1.66282 80.405 1.86143C80.1441 2.2081 79.9448 2.77686 79.615 2.86533C76.7538 3.62728 73.8691 4.30077 70.9917 4.99952C70.8757 5.02841 70.7561 5.03744 70.3919 5.09341Z" fill="#4949FC"/>
<path d="M46.505 16.7504C46.2785 17.0899 46.1517 17.4076 45.9216 17.6063C43.8323 19.3974 41.7358 21.1813 39.614 22.9363C39.1247 23.3408 38.554 24.0973 37.869 23.3263C37.1895 22.5608 37.9596 22.0985 38.4652 21.667C40.5852 19.865 42.7071 18.0667 44.8616 16.3062C45.108 16.104 45.57 16.0571 45.9071 16.1076C46.1155 16.1383 46.2749 16.4886 46.505 16.7504Z" fill="#4949FC"/>
<path d="M94.3842 163.065C92.8495 163.065 91.3129 163.071 89.7763 163.064C89.2037 163.06 88.6221 162.973 88.6039 162.246C88.5858 161.464 89.1548 161.359 89.7908 161.377C91.8963 161.433 94.0037 161.498 96.1093 161.52C96.9174 161.527 97.7256 161.415 98.5355 161.375C99.1172 161.346 99.5792 161.541 99.5702 162.209C99.5629 162.852 99.1426 163.074 98.541 163.069C97.1548 163.056 95.7704 163.064 94.3842 163.065Z" fill="#4949FC"/>
<path d="M93.8985 0.0108423C95.2212 0.0108423 96.5476 -0.0252693 97.8686 0.0343148C98.2364 0.050565 98.7202 0.254595 98.925 0.536265C99.3363 1.09961 98.8543 1.65753 97.9755 1.66114C95.7793 1.66836 93.5832 1.64308 91.387 1.65933C90.6097 1.66475 89.8323 1.746 89.0532 1.79836C88.4172 1.83989 88.004 1.48239 88.0693 0.922659C88.1037 0.635572 88.6292 0.200428 88.9481 0.185983C90.5934 0.111955 92.2459 0.151677 93.8948 0.151677C93.8985 0.102927 93.8985 0.0577873 93.8985 0.0108423Z" fill="#4949FC"/>
<path d="M119.771 133.47C119.771 132.778 119.769 132.087 119.771 131.395C119.776 129.021 121.132 127.562 123.5 127.382C127.561 127.073 130.248 124.902 131.022 121.181C131.652 118.151 130.617 115.636 128.204 113.775C125.774 111.901 123.069 111.651 120.28 112.968C118.229 113.935 116.942 115.586 116.261 117.72C115.578 119.86 113.706 120.972 111.74 120.398C109.638 119.782 108.506 117.796 109.212 115.634C111.001 110.165 114.646 106.619 120.329 105.247C127.137 103.602 134.133 107.146 137.157 113.457C139.73 118.827 138.741 125.052 134.975 129.418C133.122 131.567 130.864 133.118 128.142 133.943C127.347 134.185 127.361 134.705 127.359 135.328C127.352 137.578 126.365 138.991 124.486 139.486C122.197 140.089 119.878 138.332 119.782 135.906C119.749 135.095 119.776 134.282 119.776 133.47C119.774 133.47 119.773 133.47 119.771 133.47ZM121.338 133.398C121.338 134.21 121.3 135.023 121.347 135.832C121.422 137.096 122.375 138.029 123.538 138.049C124.674 138.067 125.609 137.233 125.769 135.994C125.845 135.402 125.865 134.793 125.832 134.196C125.785 133.331 126.135 132.923 126.993 132.683C130.779 131.625 133.689 129.377 135.504 125.903C139.243 118.745 135.751 110.102 128.151 107.231C121.336 104.657 113.195 108.336 110.769 115.837C110.308 117.259 110.836 118.458 112.064 118.857C113.315 119.264 114.329 118.623 114.817 117.117C116.917 110.635 124.728 108.515 129.815 113.047C134.307 117.048 133.518 124.55 128.311 127.568C126.865 128.405 125.335 128.821 123.677 128.913C122.128 128.998 121.354 129.835 121.34 131.323C121.333 132.015 121.338 132.706 121.338 133.398Z" fill="#4949FC"/>
<path d="M123.568 141.823C125.648 141.808 127.443 143.527 127.452 145.544C127.463 147.668 125.751 149.424 123.642 149.457C121.5 149.489 119.764 147.805 119.742 145.672C119.721 143.535 121.406 141.837 123.568 141.823ZM123.569 147.888C124.811 147.875 125.854 146.88 125.874 145.689C125.896 144.419 124.776 143.329 123.491 143.367C122.272 143.403 121.272 144.454 121.301 145.669C121.332 146.911 122.343 147.9 123.569 147.888Z" fill="#4949FC"/>
<path d="M9.32375 94.0002C9.32013 92.4817 9.32013 92.4817 10.7806 91.9581C11.7627 91.606 12.1469 90.7538 11.9965 89.2461C11.9059 88.3434 11.3043 87.9588 10.4871 87.8396C9.2712 87.6608 8.62251 88.0472 8.21118 89.1992C8.03542 89.6921 7.7002 90.0731 7.22907 89.8275C6.93734 89.6759 6.66916 89.1089 6.70903 88.7641C6.89204 87.2167 8.48661 86.1586 10.3475 86.2507C12.1142 86.3374 13.4279 87.5038 13.5403 89.0818C13.678 91.012 13.3591 92.6948 11.2572 93.4802C11.0905 93.5416 10.9564 93.8251 10.9074 94.0291C10.8458 94.2855 10.8857 94.5654 10.8875 94.8362C10.8929 95.4068 10.8549 96.0134 10.1029 95.9954C9.3763 95.9791 9.32013 95.3797 9.32375 94.8073C9.32556 94.5401 9.32375 94.2711 9.32375 94.0002Z" fill="#4949FC"/>
<path d="M10.8992 98.9006C10.8902 98.9584 10.9083 99.2888 10.7724 99.5344C10.6619 99.733 10.3683 99.946 10.1527 99.9515C9.48405 99.9659 9.28654 99.4802 9.33184 98.9169C9.38258 98.2903 9.01837 97.393 10.073 97.2792C10.8213 97.198 10.8956 97.8155 10.8992 98.3914C10.8992 98.4799 10.8992 98.5702 10.8992 98.9006Z" fill="#4949FC"/>
<path d="M78.4335 68.2958C78.4335 67.124 78.4371 65.9522 78.4317 64.7804C78.4299 64.2206 78.5295 63.697 79.2253 63.7205C79.8323 63.7403 79.9882 64.2098 79.9882 64.7442C79.9864 67.1186 79.9864 69.4929 79.9864 71.8673C79.9864 72.4017 79.836 72.8621 79.2217 72.8856C78.573 72.9109 78.448 72.4306 78.4462 71.9034C78.4443 70.7009 78.4462 69.4983 78.4462 68.2976C78.4407 68.2958 78.4371 68.2958 78.4335 68.2958Z" fill="#4949FC"/>
<path d="M79.9763 75.959C79.9763 76.1666 80.0596 76.4375 79.96 76.5693C79.7316 76.869 79.4145 77.1001 79.1337 77.3583C78.9054 77.0838 78.5973 76.8419 78.4723 76.5277C78.36 76.2443 78.4524 75.8831 78.4415 75.5563C78.4216 75.0038 78.6318 74.5181 79.2152 74.6283C79.5196 74.686 79.7552 75.1898 79.9835 75.5202C80.0524 75.6213 79.9944 75.8091 79.9944 75.959C79.9853 75.959 79.9799 75.959 79.9763 75.959Z" fill="#4949FC"/>
<path d="M32.8361 64.4066C33.8744 62.787 34.8112 61.3245 35.7516 59.8638C35.9636 59.5351 36.1285 59.1451 36.4202 58.9122C36.6522 58.728 37.1849 58.5764 37.3281 58.7028C37.5582 58.905 37.7013 59.3654 37.6524 59.6814C37.5962 60.0389 37.2973 60.3621 37.0871 60.6907C36.0071 62.3898 34.9344 64.0924 33.8345 65.777C33.2257 66.7087 32.7256 66.7304 32.0062 65.889C31.1872 64.9284 30.3826 63.9552 29.5781 62.982C29.2465 62.5812 29.0164 62.1117 29.4893 61.7109C29.9876 61.2884 30.4261 61.561 30.7958 62.007C31.4246 62.7671 32.0714 63.5092 32.8361 64.4066Z" fill="#4949FC"/>
<path d="M55.4495 86.4747C56.4823 84.8677 57.4083 83.4287 58.3324 81.9896C58.5281 81.6863 58.6604 81.2963 58.934 81.1013C59.233 80.8882 59.6606 80.8557 60.0321 80.7456C60.0973 81.1248 60.2567 81.5202 60.1969 81.8777C60.1408 82.2081 59.8527 82.5024 59.6588 82.8058C58.577 84.5066 57.5043 86.2129 56.4062 87.9029C55.8518 88.757 55.3806 88.7877 54.7066 88.0131C53.8567 87.038 53.0432 86.0305 52.2096 85.0393C51.869 84.633 51.6479 84.1708 52.1118 83.7681C52.6173 83.3294 53.0613 83.6399 53.4237 84.0697C54.0597 84.8262 54.6939 85.5773 55.4495 86.4747Z" fill="#4949FC"/>
</g>
<defs>
<clipPath id="clip0_586_30000">
<rect width="176" height="168" fill="white"/>
</clipPath>
</defs>
</svg>
