<svg width="191" height="153" viewBox="0 0 191 153" fill="none" xmlns="http://www.w3.org/2000/svg">
<g clip-path="url(#clip0_586_30040)">
<path d="M45.4908 23.9232C50.8879 21.8394 55.7463 20.0226 60.5325 18.0437C61.1674 17.7815 61.8216 16.7276 61.8601 16.0124C62.014 13.1609 61.8793 10.295 61.9419 7.43396C62.0477 2.47479 64.5923 0.0333505 69.6238 0.0142767C74.7563 -0.00479703 79.884 -0.00956546 85.0166 0.0190451C89.822 0.0476558 92.381 2.61307 92.4387 7.42919C92.4772 10.605 92.4628 13.7855 92.482 16.9661C92.482 17.1187 92.5446 17.2712 92.6023 17.5287C95.7434 18.7065 98.9422 19.8987 102.131 21.1098C102.728 21.334 103.473 21.5199 103.81 21.9682C104.219 22.5213 104.609 23.4893 104.378 23.99C104.147 24.4859 103.002 25.0247 102.483 24.8578C98.2976 23.5179 94.1416 22.0778 90.0481 20.4852C89.5141 20.2801 89.1293 19.0594 89.1053 18.2965C89.0042 14.8012 89.0812 11.3059 89.0572 7.8059C89.0331 4.48707 87.9315 3.4094 84.5596 3.40463C79.5088 3.39033 74.4581 3.38079 69.4073 3.41417C66.5982 3.43324 65.4581 4.53475 65.4197 7.30521C65.3667 10.8005 65.3283 14.3005 65.4341 17.7958C65.487 19.5982 64.8039 20.385 63.0675 21.0335C57.8435 22.9838 52.6822 25.1249 47.5929 27.3994C46.0104 28.1099 44.9954 28.1147 43.7976 26.8653C41.4214 24.3905 38.9537 22.0015 36.5005 19.603C34.1291 17.2808 32.6908 17.2522 30.3867 19.5124C26.7983 23.0315 23.2243 26.5745 19.6743 30.1317C17.529 32.2823 17.553 33.8368 19.7368 36.035C22.1564 38.4717 24.5615 40.9227 27.0628 43.2688C28.3712 44.499 28.453 45.5004 27.6641 47.1979C25.3312 52.2286 23.2291 57.369 21.2521 62.5428C20.6364 64.1593 19.8812 64.8459 18.1639 64.8125C14.638 64.741 11.1073 64.7649 7.58138 64.803C4.62309 64.8364 3.47344 65.9522 3.44939 68.8276C3.41091 73.9155 3.41572 78.9986 3.44458 84.0866C3.46382 86.9762 4.61347 88.1254 7.52847 88.1683C11.0544 88.216 14.5851 88.2399 18.111 88.154C19.8186 88.1111 20.6075 88.731 21.2328 90.3666C23.2483 95.6119 25.4225 100.805 27.7411 105.931C28.4097 107.409 28.453 108.353 27.2649 109.483C24.6625 111.958 22.1275 114.504 19.6022 117.056C17.5578 119.12 17.5626 120.718 19.631 122.792C23.2387 126.411 26.8656 130.007 30.5166 133.578C32.6331 135.648 34.1579 135.638 36.2889 133.573C38.8672 131.07 41.431 128.557 43.9323 125.982C45.082 124.799 46.0585 124.881 47.5304 125.539C52.6244 127.804 57.781 129.954 63.0001 131.919C64.6933 132.558 65.4918 133.259 65.4293 135.104C65.3138 138.599 65.3619 142.095 65.41 145.595C65.4437 148.375 66.5934 149.529 69.3496 149.548C74.5591 149.581 79.7734 149.581 84.9829 149.552C87.845 149.538 89.0187 148.356 89.0523 145.456C89.0956 141.88 89.1101 138.304 89.0427 134.727C89.0139 133.201 89.5815 132.41 91.1111 132.052C93.0545 131.594 94.9208 130.784 96.8738 130.412C97.6819 130.259 98.6343 130.86 99.5194 131.113C98.9951 131.933 98.6536 133.125 97.9032 133.497C96.2773 134.303 94.4398 134.689 92.4532 135.323C92.4532 138.542 92.4628 141.785 92.4532 145.027C92.4339 150.463 89.9759 152.943 84.5788 152.957C79.5281 152.971 74.4773 152.986 69.4266 152.957C64.6981 152.928 62.1102 150.468 61.9659 145.8C61.8745 142.943 61.8841 140.078 61.9659 137.216C62.0044 135.829 61.5763 135.185 60.1765 134.665C55.9146 133.082 51.7153 131.318 47.5544 129.477C46.4288 128.981 45.765 128.91 44.88 129.844C42.7971 132.043 40.6277 134.169 38.4342 136.268C35.298 139.272 31.5219 139.291 28.4049 136.272C24.5038 132.496 20.6508 128.671 16.8363 124.814C13.9117 121.857 13.8972 118.033 16.7834 115.034C18.9383 112.793 21.2569 110.699 23.3541 108.406C23.8111 107.905 23.965 106.713 23.7053 106.045C22.0073 101.687 20.2131 97.3619 18.313 93.0894C18.0244 92.4361 17.0479 91.7018 16.3553 91.6636C13.3152 91.5062 10.2655 91.635 7.22062 91.5873C2.82887 91.5158 0.135141 88.9408 0.0774179 84.6159C0.000454139 79.2132 0.00526437 73.8058 0.0774179 68.4032C0.135141 64.0544 2.78558 61.4699 7.17251 61.384C10.1356 61.3268 13.1035 61.3173 16.0714 61.3936C17.3846 61.427 17.9763 61.0312 18.4669 59.7294C20.0639 55.5046 21.7764 51.3083 23.6909 47.217C24.3451 45.8246 24.119 45.1237 23.1184 44.1891C21.0212 42.2245 18.9913 40.1883 16.9806 38.1332C13.8684 34.9574 13.8587 31.1569 16.9806 28.0098C20.747 24.2141 24.5423 20.4423 28.376 16.7181C31.5123 13.6711 35.2691 13.6425 38.3958 16.6752C40.8971 19.1119 43.2926 21.6773 45.4908 23.9232Z" fill="#4949FC"/>
<path d="M121.338 128.986C116.21 128.986 111.078 128.929 105.95 129.015C103.906 129.048 103.03 128.347 103.093 126.254C103.194 122.601 103.049 118.944 103.136 115.291C103.261 110.184 101.202 106.355 96.9981 103.356C70.7775 84.6779 74.8085 45.014 104.209 31.8817C123.512 23.2604 146.404 30.4226 157.213 48.4711C168.084 66.6198 163.567 90.0042 146.418 102.66C141.411 106.355 138.991 110.704 139.434 116.831C139.66 119.912 139.391 123.03 139.497 126.125C139.569 128.319 138.645 129.062 136.49 129.02C131.439 128.915 126.389 128.986 121.338 128.986ZM106.647 125.472C116.422 125.472 126.066 125.472 135.807 125.472C135.807 123.283 135.807 121.199 135.807 118.972C131.54 118.972 127.466 118.977 123.387 118.968C122.112 118.968 120.53 119.168 120.496 117.337C120.467 115.534 121.992 115.601 123.305 115.601C127.456 115.606 131.608 115.601 135.716 115.601C137.418 105.626 137.491 105.707 145.264 99.2883C155.491 90.8434 160.397 79.9714 159.459 66.7438C158.016 46.3539 140.459 30.9233 119.712 31.6529C99.4224 32.3681 82.7694 49.4248 82.9233 69.6144C83.0244 82.7323 88.6716 93.1847 99.3888 100.876C103.309 103.69 105.724 107.318 106.378 112.068C106.527 113.145 106.546 114.247 106.643 115.606C108.514 115.606 110.279 115.434 111.987 115.682C112.776 115.797 113.439 116.736 114.156 117.303C113.435 117.857 112.766 118.777 111.982 118.891C110.279 119.135 108.514 118.968 106.643 118.968C106.647 121.285 106.647 123.302 106.647 125.472Z" fill="#4949FC"/>
<path d="M77.3674 112.287C56.847 112.316 40.5499 95.8361 41.0646 75.5654C41.5793 55.3282 58.6989 39.6877 79.2146 40.7129C79.5369 40.7272 79.9553 40.6223 80.1574 40.7892C80.8693 41.3662 81.5042 42.0338 82.1681 42.668C81.461 43.1544 80.7923 43.9793 80.0419 44.0556C77.5839 44.3131 75.0537 44.0461 72.6294 44.4371C59.5311 46.5495 50.459 53.8214 46.25 66.2527C41.9978 78.8127 44.8262 90.2665 54.3264 99.5364C63.8363 108.816 75.3375 111.081 88.0702 107.08C88.3733 106.985 88.6715 106.861 88.9697 106.746C90.2011 106.269 91.6009 105.707 92.1878 107.428C92.7746 109.145 91.2738 109.641 90.0472 109.946C85.8816 110.976 81.687 111.896 77.5069 112.859C77.454 112.669 77.4107 112.478 77.3674 112.287Z" fill="#4949FC"/>
<path d="M76.93 121.853C54.75 121.795 35.8457 106.055 32.0312 84.4682C31.935 83.9198 31.6945 83.2903 31.8677 82.8278C32.1659 82.0553 32.7431 81.3877 33.2049 80.6772C33.8591 81.2208 34.8115 81.6452 35.1002 82.3414C35.5764 83.4906 35.5716 84.8258 35.865 86.0608C42.0365 111.868 70.0321 125.582 94.4825 114.786C94.7759 114.657 95.0742 114.543 95.3628 114.4C96.5124 113.837 97.7438 113.393 98.4077 114.924C99.0667 116.455 97.8208 116.989 96.7 117.528C90.7305 120.408 84.0587 121.872 76.93 121.853Z" fill="#4949FC"/>
<path d="M135.712 139C133.922 139 132.095 138.99 130.271 139.005C129.016 139.014 127.789 138.68 128.102 137.24C128.242 136.587 129.468 135.786 130.262 135.714C132.566 135.509 134.899 135.657 137.222 135.633C138.718 135.619 139.344 136.353 139.478 137.798C140.214 145.847 134.225 152.671 126.063 152.933C122.941 153.033 119.814 153.019 116.697 152.933C108.361 152.704 102.411 145.986 103.113 137.746C103.243 136.249 103.926 135.629 105.393 135.638C110.117 135.657 114.845 135.571 119.564 135.724C120.3 135.748 121.002 136.797 121.719 137.369C120.973 137.913 120.242 138.9 119.477 138.928C115.254 139.081 111.026 139 106.831 139C106.278 144.198 110.362 149.095 115.624 149.448C119.371 149.7 123.157 149.691 126.904 149.457C132.162 149.133 136.246 144.264 135.712 139Z" fill="#4949FC"/>
<path d="M77.1844 31.0425C80.3592 31.4526 83.5387 31.8245 86.7039 32.287C87.9112 32.4635 89.2918 32.8306 88.9695 34.4471C88.6616 35.9921 87.4302 35.8872 86.1026 35.6345C70.6858 32.7019 57.424 36.7646 46.3508 47.8035C45.4753 48.6762 44.5566 49.7443 43.3204 48.6666C41.9639 47.4888 42.9548 46.4111 43.8591 45.4288C51.9163 36.6454 64.5576 31.2618 77.1844 31.0425Z" fill="#4949FC"/>
<path d="M30.9492 71.3357C32.7579 66.1572 34.4222 61.1456 36.3223 56.2198C36.5868 55.5379 37.9818 55.2804 38.8524 54.8274C39.0064 55.8002 39.5018 56.8587 39.2661 57.7218C37.9722 62.433 36.5531 67.1109 35.0235 71.7506C34.7685 72.5183 33.768 73.0428 33.1138 73.677C32.5029 73.0237 31.8968 72.3657 30.9492 71.3357Z" fill="#4949FC"/>
<path d="M154.937 9.62744C156.774 9.64652 157.361 11.0246 156.457 12.6268C154.629 15.8741 152.719 19.0785 150.838 22.2972C150.199 23.3939 149.708 24.6242 148.861 25.5349C148.352 26.0833 147.288 26.1262 146.476 26.398C146.298 25.5683 145.691 24.5145 146.004 23.9471C148.481 19.4266 151.113 14.9919 153.753 10.5621C154.042 10.0852 154.687 9.82295 154.937 9.62744Z" fill="#4949FC"/>
<path d="M166.401 93.7043C166.974 93.9761 167.565 94.2098 168.109 94.5197C172.135 96.8038 176.151 99.1022 180.163 101.405C181.221 102.011 182.458 102.659 181.64 104.142C180.846 105.578 179.653 105.068 178.542 104.424C174.391 102.04 170.206 99.7126 166.113 97.233C165.449 96.8324 164.963 95.8072 164.828 95.0014C164.732 94.4291 165.367 93.7377 165.675 93.1035C165.915 93.3038 166.161 93.5041 166.401 93.7043Z" fill="#4949FC"/>
<path d="M165.626 46.1917C165.333 45.5527 164.789 44.9042 164.813 44.2748C164.837 43.5977 165.208 42.6821 165.742 42.3245C167.454 41.1706 169.311 40.2264 171.105 39.1917C173.731 37.6848 176.315 36.0874 179.018 34.7284C179.653 34.4089 180.692 34.8953 181.548 35.0097C181.351 35.8204 181.423 37.0697 180.913 37.3796C176.42 40.112 171.827 42.6774 167.252 45.2809C166.988 45.4335 166.646 45.4574 166.343 45.5384C166.102 45.753 165.862 45.9724 165.626 46.1917Z" fill="#4949FC"/>
<path d="M122.954 10.2234C122.954 12.6744 123.084 15.1397 122.877 17.5716C122.815 18.3202 121.819 18.9926 121.251 19.6983C120.684 18.9783 119.649 18.2725 119.63 17.5334C119.486 12.6362 119.476 7.72474 119.64 2.82756C119.664 2.06938 120.799 1.34458 121.42 0.605469C121.934 1.35888 122.829 2.08368 122.892 2.87524C123.074 5.31191 122.954 7.77243 122.954 10.2234Z" fill="#4949FC"/>
<path d="M181.393 71.3262C178.839 71.3262 176.28 71.4406 173.74 71.2547C173.033 71.2022 172.388 70.2914 171.715 69.7717C172.393 69.1709 173.057 68.0741 173.754 68.0503C178.858 67.9025 183.967 67.912 189.07 68.0455C189.729 68.0646 190.359 69.0993 191.004 69.662C190.354 70.2151 189.734 71.1927 189.046 71.2404C186.506 71.4406 183.942 71.3262 181.393 71.3262Z" fill="#4949FC"/>
<path d="M124.022 40.7129C133.806 42.1387 140.998 46.5208 146.063 54.2409C146.756 55.2948 147.063 56.5059 145.717 57.0257C145.086 57.2689 143.663 56.6967 143.234 56.0673C138.626 49.277 132.291 45.3335 124.138 44.1032C123.436 43.9983 122.887 42.8635 122.271 42.2102C122.955 41.6189 123.642 41.0324 124.022 40.7129Z" fill="#4949FC"/>
<path d="M147.164 69.8051C147.082 68.6177 146.818 67.4113 146.986 66.2621C147.087 65.5755 147.866 64.9889 148.338 64.3547C148.987 64.8983 150.156 65.4086 150.19 65.9855C150.358 68.7322 150.315 71.5026 150.103 74.2445C150.06 74.8167 148.987 75.3126 148.386 75.8419C147.866 75.1695 146.996 74.5401 146.904 73.8153C146.746 72.5135 147.049 71.1498 147.164 69.8051Z" fill="#4949FC"/>
</g>
<defs>
<clipPath id="clip0_586_30040">
<rect width="191" height="153" fill="white"/>
</clipPath>
</defs>
</svg>
