<svg width="167" height="187" viewBox="0 0 167 187" fill="none" xmlns="http://www.w3.org/2000/svg">
<g clip-path="url(#clip0_586_30064)">
<path d="M139.186 81.1061C139.186 105.17 139.187 129.234 139.184 153.299C139.184 157.694 136.674 161.002 132.55 162.027C131.946 162.176 131.308 162.265 130.686 162.266C118.778 162.281 106.872 162.278 94.9642 162.278C94.7178 162.278 94.4698 162.293 94.2251 162.268C93.417 162.184 92.8438 161.565 92.8487 160.8C92.8537 160.022 93.4236 159.439 94.253 159.375C94.4977 159.356 94.7458 159.369 94.9921 159.369C106.654 159.369 118.313 159.369 129.975 159.369C133.981 159.369 136.28 157.056 136.28 153.042C136.28 105.076 136.28 57.1128 136.28 9.1475C136.28 6.0447 134.873 3.94662 132.19 3.14219C131.624 2.97146 131.006 2.89758 130.413 2.89594C106.435 2.88281 82.4569 2.88281 58.4771 2.88609C55.427 2.88609 53.213 4.49331 52.5511 7.19717C52.4164 7.74714 52.3868 8.33322 52.3852 8.90289C52.377 32.9405 52.3786 56.9765 52.3753 81.0141C52.3753 81.4787 52.3835 81.9483 52.3178 82.4046C52.2094 83.1664 51.5492 83.695 50.8331 83.6556C50.1087 83.6146 49.5273 83.0252 49.4895 82.2552C49.4633 81.7365 49.4797 81.2161 49.4797 80.6973C49.4797 56.7696 49.478 32.842 49.478 8.91438C49.478 3.61664 53.0849 0.00328338 58.3949 0.00328338C82.4569 -0.00164169 106.519 0 130.579 0.00164169C135.275 0.00164169 139 3.58217 139.174 8.2577C139.194 8.80439 139.186 9.35107 139.186 9.89775C139.186 33.6349 139.186 57.3705 139.186 81.1061Z" fill="#4949FC"/>
<path d="M37.1627 159.16C28.0355 151.494 22.7123 141.842 21.7679 129.982C20.8252 118.139 24.565 107.803 32.4439 98.7986C31.3681 97.7462 30.3251 96.6676 29.205 95.6728C28.952 95.4479 28.4379 95.4626 28.0438 95.461C19.6672 95.4495 11.2907 95.4511 2.91418 95.4495C2.83206 95.4495 2.74993 95.4511 2.66781 95.4511C1.47867 95.4396 0.778986 94.8913 0.777344 93.9736C0.777344 93.0576 1.46553 92.5125 2.6711 92.5109C11.3482 92.5043 20.0269 92.5109 28.704 92.4961C29.7848 92.4945 30.6355 92.8655 31.4009 93.6387C35.0751 97.3522 38.7805 101.035 42.4744 104.727C42.6665 104.919 42.8718 105.094 43.087 105.291C44.1497 104.538 45.1598 103.753 46.2372 103.072C49.9804 100.703 54.0865 99.5258 58.5146 99.4552C59.7202 99.4372 60.2392 99.9921 60.2408 101.32C60.2457 107.199 60.2408 113.08 60.2392 118.959C60.2392 120.244 60.254 121.529 60.2392 122.815C60.2244 124.049 59.7087 124.547 58.4752 124.547C51.3026 124.548 44.1316 124.548 36.959 124.547C35.5728 124.547 35.0538 124.048 35.0965 122.665C35.2623 117.208 37.0378 112.341 40.4886 108.094C40.643 107.905 40.7941 107.713 40.9157 107.562C38.7329 105.428 36.5763 103.316 34.3475 101.136C34.2506 101.243 33.9911 101.507 33.7513 101.791C27.1831 109.589 24.0838 118.601 24.5716 128.764C25.4142 146.348 38.4077 161.222 55.7241 164.547C62.4532 165.839 69.0674 165.356 75.5534 163.14C75.7604 163.069 75.9673 162.998 76.1776 162.934C77.1351 162.639 77.9564 162.972 78.206 163.757C78.4737 164.597 78.0828 165.335 77.1433 165.678C74.0966 166.788 70.9578 167.516 67.7337 167.876C60.7155 168.656 53.8993 167.807 47.387 165.072C44.9791 164.061 42.706 162.713 40.4262 161.421C39.7561 161.042 39.4145 161.02 38.861 161.578C33.9303 166.551 28.9685 171.493 24.0165 176.442C21.2506 179.209 18.4962 181.985 15.7155 184.738C12.6786 187.745 7.93188 187.744 4.93933 184.761C1.99605 181.827 1.98455 177.053 4.97218 174.052C11.6126 167.385 18.2794 160.746 24.9395 154.099C25.6655 153.373 26.3192 153.225 26.9844 153.606C27.5888 153.953 27.7974 154.519 27.6348 155.146C27.5379 155.514 27.2636 155.872 26.986 156.151C22.3132 160.84 17.6289 165.517 12.9463 170.196C10.9918 172.148 9.01262 174.077 7.09094 176.061C5.72442 177.472 5.25632 179.164 5.9675 181.046C6.64748 182.847 8.00908 183.859 9.9209 184.047C11.5305 184.204 12.8297 183.528 13.9515 182.403C19.4389 176.902 24.9395 171.415 30.4352 165.924C32.4866 163.875 34.5397 161.826 36.5911 159.776C36.7816 159.59 36.9541 159.387 37.1627 159.16ZM57.2943 121.602C57.2943 115.173 57.2943 108.844 57.2943 102.414C52.7003 102.799 48.7321 104.446 45.0136 107.598C45.4949 107.951 45.9301 108.205 46.2832 108.544C47.1143 109.335 47.9355 110.143 48.7091 110.99C49.3037 111.641 49.2429 112.505 48.6533 113.05C48.085 113.575 47.2884 113.57 46.6495 113.017C46.3604 112.768 46.0911 112.492 45.825 112.218C44.9561 111.323 44.0938 110.423 43.2381 109.535C40.5757 111.903 37.7408 118.807 38.2171 121.602C44.5521 121.602 50.8903 121.602 57.2943 121.602Z" fill="#4949FC"/>
<path d="M74.5748 151.142C76.3108 152.84 77.9714 154.458 79.627 156.084C80.642 157.08 81.6652 158.068 82.6441 159.099C83.0285 159.503 83.311 159.487 83.7495 159.198C90.8252 154.549 96.0466 148.363 99.0079 140.419C102.869 130.056 102.349 119.827 97.5839 109.85C96.7512 108.107 95.659 106.483 94.6357 104.838C94.0132 103.837 94.0165 102.968 94.777 102.461C95.5309 101.957 96.3981 102.22 97.0633 103.188C101.638 109.85 104.141 117.212 104.398 125.29C104.711 135.04 101.951 143.86 96.0975 151.676C93.3382 155.36 90.0221 158.484 86.1984 161.061C85.9094 161.257 85.6285 161.463 85.2573 161.725C87.0509 163.502 88.7607 165.23 90.5181 166.906C90.7447 167.122 91.2243 167.137 91.5873 167.137C100.319 167.15 109.052 167.147 117.783 167.149C118.083 167.149 118.389 167.139 118.685 167.18C119.461 167.291 119.964 167.899 119.936 168.656C119.908 169.406 119.358 169.981 118.584 170.035C118.203 170.061 117.819 170.046 117.435 170.046C108.621 170.048 99.8062 170.038 90.9928 170.061C89.9284 170.064 89.122 169.718 88.3747 168.968C83.0482 163.617 77.6905 158.297 72.3607 152.95C71.9518 152.541 71.6315 152.469 71.0829 152.667C55.8245 158.201 39.6578 147.113 39.3408 130.91C39.3145 129.541 39.8302 128.984 41.1853 128.984C55.7473 128.981 70.3093 128.983 84.8713 128.988C86.1886 128.988 86.7782 129.621 86.724 130.917C86.4661 137.186 84.2915 142.661 79.806 147.102C78.515 148.381 76.9645 149.399 75.5274 150.528C75.2728 150.727 74.987 150.878 74.5748 151.142ZM69.6145 150.031C68.6258 149.111 67.7504 148.33 66.9143 147.509C65.2949 145.918 63.6902 144.311 62.0937 142.697C61.4269 142.023 61.3924 141.177 61.9574 140.57C62.529 139.956 63.4406 139.975 64.1534 140.622C64.3965 140.842 64.628 141.075 64.8596 141.308C67.2396 143.686 69.626 146.058 71.9895 148.451C72.3345 148.801 72.5841 148.878 73.0341 148.621C78.4953 145.505 81.9412 140.9 83.3258 134.771C83.5261 133.881 83.6099 132.964 83.7545 132.016C69.8658 132.016 56.1251 132.016 42.381 132.016C43.171 145.332 56.9085 154.472 69.6145 150.031Z" fill="#4949FC"/>
<path d="M102.528 59.0714C102.528 57.0554 102.525 55.197 102.53 53.3402C102.532 52.6458 102.812 52.0137 103.511 51.9234C104.007 51.8594 104.632 52.0597 105.043 52.3569C105.316 52.5555 105.401 53.1334 105.412 53.5454C105.454 55.0476 105.429 56.553 105.431 58.0568C105.431 58.3523 105.431 58.6478 105.431 59.0632C107.232 59.0632 108.947 59.073 110.662 59.0451C110.792 59.0435 110.977 58.8005 111.031 58.6347C111.097 58.4377 111.053 58.2029 111.053 57.9829C111.054 49.8615 111.053 41.74 111.054 33.6186C111.054 32.2297 111.514 31.5501 112.459 31.5287C113.479 31.5041 113.93 32.1362 113.93 33.6055C113.932 41.7269 113.932 49.8483 113.93 57.9698C113.93 59.0697 113.929 59.0697 115.052 59.0681C116.312 59.0664 117.572 59.0336 118.83 59.0812C119.459 59.1042 119.615 58.8875 119.612 58.2866C119.589 54.404 119.598 50.5198 119.6 46.6372C119.6 46.3647 119.584 46.0856 119.628 45.8196C119.753 45.0513 120.393 44.5227 121.116 44.5621C121.858 44.6031 122.446 45.163 122.481 45.9444C122.519 46.7899 122.494 47.6386 122.494 48.4874C122.494 51.7412 122.51 54.995 122.481 58.2489C122.474 58.9023 122.675 59.1026 123.319 59.0796C124.577 59.0352 125.836 59.0615 127.096 59.0664C128.17 59.0697 128.822 59.6148 128.824 60.4947C128.826 61.3911 128.184 61.9657 127.114 61.9689C124.706 61.9772 122.299 61.9591 119.889 61.9591C109.297 61.9575 98.7047 61.9607 88.1125 61.9607C79.3812 61.9607 70.6516 61.9591 61.9203 61.9575C60.2055 61.9575 59.7949 61.5421 59.7949 59.8216C59.7949 47.5155 59.7949 35.211 59.7966 22.9049C59.7966 22.5782 59.7916 22.245 59.8393 21.9232C59.9493 21.1861 60.5242 20.6985 61.2501 20.6903C61.9695 20.6821 62.5542 21.1598 62.6758 21.9051C62.7316 22.2532 62.7234 22.6127 62.7234 22.9673C62.7251 34.6447 62.7251 46.3204 62.7251 57.9977C62.7251 59.0697 62.7267 59.0697 63.791 59.0697C65.2889 59.0697 66.7852 59.0697 68.3768 59.0697C68.3768 58.679 68.3768 58.3851 68.3768 58.0929C68.3751 51.3653 68.3735 44.6393 68.3735 37.9116C68.3735 37.6654 68.362 37.4175 68.3866 37.1745C68.4605 36.4554 68.9648 35.9482 69.6644 35.9055C70.4052 35.8611 70.9439 36.1747 71.1722 36.8971C71.2609 37.1761 71.2773 37.4881 71.2773 37.7836C71.2839 44.5654 71.2938 51.3472 71.2675 58.129C71.2642 58.8793 71.458 59.1272 72.2283 59.0878C73.5111 59.0205 74.802 59.0352 76.0864 59.0812C76.7385 59.1042 76.9241 58.8973 76.9208 58.2489C76.8945 53.6817 76.9044 49.1162 76.9044 44.549C76.9044 44.2485 76.883 43.9399 76.9438 43.651C77.1015 42.9122 77.6024 42.5198 78.3432 42.51C79.0527 42.5001 79.552 42.8695 79.7179 43.5689C79.805 43.935 79.7984 44.329 79.8 44.7099C79.805 49.195 79.8181 53.6801 79.7869 58.1635C79.782 58.8842 79.9791 59.1173 80.7083 59.0845C82.019 59.027 83.3362 59.0287 84.6486 59.0845C85.3269 59.1124 85.4682 58.8694 85.4665 58.244C85.4468 52.1467 85.455 46.0478 85.4567 39.949C85.4567 39.6485 85.432 39.3366 85.5059 39.0526C85.6735 38.4058 86.1087 38.0118 86.7887 37.9724C87.4982 37.9313 88.0156 38.2711 88.239 38.941C88.349 39.2677 88.3523 39.6387 88.3523 39.99C88.3589 46.0331 88.3687 52.0761 88.3408 58.1192C88.3375 58.8596 88.5182 59.1255 89.2951 59.0861C90.5778 59.0205 91.8688 59.0402 93.1532 59.0829C93.7921 59.1042 94.004 58.9203 93.9958 58.2571C93.9613 55.3037 93.9744 52.3503 93.9826 49.3969C93.9843 49.0456 93.9777 48.663 94.1075 48.3511C94.3752 47.7109 94.9024 47.3891 95.6185 47.4745C96.3149 47.5565 96.8372 48.1213 96.8487 48.883C96.8766 50.6593 96.8668 52.4373 96.8684 54.2152C96.8701 55.5828 96.8881 56.9503 96.8602 58.3162C96.8487 58.8678 96.9966 59.096 97.5944 59.0829C99.2024 59.0484 100.81 59.0714 102.528 59.0714Z" fill="#4949FC"/>
<path d="M85.1833 107.273C86.3773 109.236 87.596 111.021 88.5881 112.925C90.1944 116.007 90.8383 119.356 90.9286 122.815C90.9582 123.964 90.4047 124.542 89.2402 124.544C81.9887 124.552 74.7356 124.552 67.4842 124.545C66.3591 124.544 65.8056 124.002 65.8056 122.887C65.799 115.642 65.799 108.398 65.8072 101.153C65.8089 99.9067 66.3591 99.4208 67.6813 99.4536C73.0587 99.5833 77.8596 101.314 82.0774 104.653C82.3517 104.87 82.6293 105.085 82.8773 105.278C85.0601 103.101 87.2002 100.966 89.4767 98.6968C87.8408 97.4277 86.2804 96.052 84.5624 94.9127C75.3351 88.7908 65.2669 86.9554 54.4579 89.2965C49.3974 90.3915 44.7723 92.5224 40.561 95.5414C40.428 95.6367 40.2982 95.7384 40.1586 95.8255C39.3571 96.3295 38.526 96.2096 38.0464 95.5234C37.5833 94.8601 37.7163 93.9309 38.4932 93.445C40.6694 92.084 42.7931 90.595 45.1008 89.4967C60.3592 82.2372 77.8382 84.7276 90.5443 95.8698C90.8514 96.139 91.1585 96.4066 91.5971 96.7875C92.4446 95.9125 93.3348 95.1047 94.0887 94.187C95.1546 92.8885 96.4472 92.4682 98.116 92.4797C106.489 92.5388 114.864 92.4977 123.239 92.4945C124.476 92.4945 125.125 92.918 125.225 93.7651C125.32 94.5745 124.868 95.2476 124.057 95.374C123.494 95.4626 122.912 95.4511 122.339 95.4511C114.184 95.4544 106.028 95.4462 97.8729 95.4741C97.4081 95.4758 96.8184 95.6482 96.5014 95.9584C92.7961 99.5997 89.1317 103.284 85.4592 106.958C85.3262 107.091 85.2112 107.242 85.1833 107.273ZM82.8461 109.414C81.7095 110.599 80.6846 111.692 79.6301 112.759C78.8286 113.572 77.9713 113.651 77.334 113.021C76.6852 112.379 76.792 111.479 77.6296 110.661C78.7021 109.614 79.7829 108.575 80.9162 107.478C77.3307 104.433 73.3477 102.791 68.7883 102.404C68.7883 108.903 68.7883 115.247 68.7883 121.593C75.2037 121.593 81.5387 121.593 87.9492 121.593C87.5796 117.015 85.9273 113.048 82.8461 109.414Z" fill="#4949FC"/>
<path d="M7.66346 34.9665C5.63338 34.9665 3.74784 34.955 1.86395 34.973C1.1659 34.9796 0.533558 34.8745 0.17386 34.208C-0.184195 33.5448 0.0605306 32.9669 0.458005 32.3841C5.12751 25.5399 9.78223 18.6875 14.4452 11.84C15.4273 10.3986 16.4621 10.4051 17.4492 11.8564C22.1121 18.7039 26.7669 25.5563 31.4347 32.4022C31.8322 32.985 32.049 33.571 31.6877 34.2326C31.3395 34.8696 30.7465 34.9812 30.0748 34.9714C28.406 34.9501 26.7357 34.9944 25.0669 34.9501C24.3869 34.932 24.1866 35.1356 24.1898 35.8218C24.2145 42.6578 24.2063 49.4938 24.2046 56.3298C24.2046 57.4888 23.7628 58.088 22.8792 58.1521C22.1039 58.2079 21.5521 57.827 21.3632 57.0702C21.3041 56.8354 21.2926 56.5842 21.2926 56.3396C21.2893 48.929 21.2876 41.5201 21.2926 34.1095C21.2942 32.4596 21.7262 32.0508 23.413 32.0525C24.7516 32.0541 26.0902 32.0525 27.6604 32.0525C23.7168 26.2622 19.8718 20.6148 15.9382 14.8377C12.0258 20.5836 8.18083 26.231 4.21594 32.0541C5.8042 32.0541 7.1855 32.0541 8.56681 32.0541C10.1156 32.0541 10.5772 32.5154 10.5772 34.0471C10.5772 44.0828 10.5772 54.1168 10.5772 64.1524C10.5772 64.3708 10.5903 64.5924 10.5608 64.8075C10.4573 65.5561 9.81672 66.1175 9.10061 66.1061C8.42884 66.0962 7.78993 65.5479 7.69467 64.837C7.64046 64.4332 7.66674 64.0195 7.66674 63.609C7.6651 54.4484 7.6651 45.2894 7.6651 36.1288C7.66346 35.7824 7.66346 35.4327 7.66346 34.9665Z" fill="#4949FC"/>
<path d="M112.403 149.932C112.691 148.292 112.983 146.514 113.326 144.744C113.431 144.201 113.336 143.823 112.921 143.443C111.774 142.389 110.667 141.292 109.545 140.212C109.427 140.098 109.319 139.975 109.202 139.859C108.744 139.399 108.517 138.864 108.727 138.222C108.941 137.57 109.473 137.312 110.104 137.221C111.781 136.976 113.456 136.715 115.14 136.505C115.723 136.433 116.04 136.185 116.286 135.646C116.968 134.156 117.731 132.704 118.441 131.227C118.748 130.586 119.169 130.119 119.922 130.13C120.675 130.142 121.089 130.632 121.394 131.261C122.123 132.758 122.882 134.243 123.59 135.75C123.815 136.227 124.119 136.428 124.64 136.493C126.294 136.702 127.939 136.979 129.593 137.198C130.303 137.291 130.878 137.547 131.085 138.271C131.288 138.979 130.976 139.525 130.457 140.015C129.265 141.141 128.11 142.305 126.918 143.431C126.527 143.8 126.372 144.152 126.484 144.715C126.816 146.375 127.052 148.052 127.364 149.717C127.494 150.408 127.345 150.978 126.791 151.39C126.248 151.794 125.666 151.702 125.093 151.397C123.621 150.613 122.132 149.862 120.675 149.052C120.143 148.757 119.725 148.724 119.172 149.037C117.672 149.883 116.145 150.681 114.603 151.444C113.461 152.009 112.361 151.296 112.403 149.932ZM115.797 147.524C116.853 146.969 117.722 146.57 118.528 146.071C119.472 145.486 120.335 145.483 121.282 146.073C122.1 146.583 122.989 146.98 124.019 147.517C123.835 146.427 123.766 145.524 123.519 144.672C123.15 143.39 123.547 142.472 124.536 141.653C125.211 141.093 125.776 140.399 126.461 139.693C125.254 139.517 124.152 139.335 123.043 139.2C122.292 139.11 121.795 138.754 121.476 138.064C121.01 137.058 120.492 136.073 119.904 134.896C119.343 136.03 118.847 136.987 118.393 137.964C118.055 138.695 117.552 139.122 116.721 139.21C115.627 139.328 114.54 139.524 113.39 139.695C114.249 140.586 115.002 141.404 115.797 142.177C116.335 142.701 116.546 143.272 116.396 144.019C116.179 145.109 116.018 146.21 115.797 147.524Z" fill="#4949FC"/>
<path d="M112.399 121.598C112.683 119.971 112.969 118.192 113.317 116.422C113.43 115.846 113.322 115.449 112.893 115.048C111.675 113.91 110.495 112.732 109.291 111.577C108.804 111.11 108.511 110.578 108.721 109.895C108.932 109.212 109.456 108.928 110.139 108.834C111.793 108.609 113.44 108.34 115.094 108.132C115.664 108.059 116.009 107.841 116.26 107.299C116.95 105.812 117.717 104.362 118.432 102.886C118.737 102.256 119.125 101.757 119.892 101.759C120.642 101.76 121.066 102.207 121.373 102.855C122.053 104.287 122.799 105.689 123.456 107.13C123.748 107.772 124.142 108.082 124.852 108.163C126.427 108.34 127.992 108.611 129.566 108.816C130.27 108.908 130.855 109.145 131.079 109.868C131.297 110.579 130.988 111.124 130.471 111.615C129.319 112.705 128.222 113.855 127.046 114.917C126.508 115.403 126.383 115.877 126.524 116.568C126.844 118.146 127.073 119.743 127.362 121.329C127.486 122.009 127.368 122.598 126.798 123.009C126.22 123.424 125.616 123.302 125.02 122.986C123.523 122.189 122.011 121.419 120.522 120.608C120.089 120.372 119.742 120.372 119.307 120.608C117.77 121.444 116.221 122.258 114.659 123.048C113.503 123.628 112.382 122.966 112.399 121.598ZM124.014 119.144C123.885 118.336 123.873 117.691 123.669 117.113C123.009 115.247 123.561 113.843 125.128 112.718C125.612 112.372 125.992 111.88 126.539 111.335C125.435 111.172 124.574 110.975 123.707 110.932C122.397 110.868 121.595 110.264 121.14 109.038C120.836 108.22 120.375 107.462 119.91 106.531C119.317 107.7 118.786 108.655 118.345 109.65C118.016 110.389 117.497 110.722 116.719 110.819C115.628 110.954 114.544 111.154 113.251 111.359C114.199 112.28 114.987 113.067 115.8 113.825C116.351 114.339 116.543 114.917 116.388 115.667C116.167 116.752 116.016 117.85 115.804 119.133C116.937 118.543 117.911 118.061 118.86 117.534C119.573 117.136 120.23 117.126 120.95 117.538C121.892 118.077 122.874 118.55 124.014 119.144Z" fill="#4949FC"/>
<path d="M162.042 47.7106C162.691 48.3985 163.305 49.0503 163.928 49.7102C162.571 51.9298 157.966 53.2185 154.387 52.3484C150.33 51.3618 147.239 47.6384 146.929 43.3635C146.616 39.0639 149.121 34.9875 153.08 33.3573C156.842 31.8076 161.609 32.7598 164.005 35.5753C163.342 36.204 162.676 36.8361 161.96 37.5141C160.167 35.9135 158.055 35.1977 155.634 35.6344C153.93 35.9414 152.51 36.7934 151.421 38.1363C149.123 40.9699 149.32 45.0724 151.862 47.6384C154.044 49.8448 158.161 51.0072 162.042 47.7106Z" fill="#4949FC"/>
<path d="M164.136 16.2249C165.1 16.2249 165.992 16.2249 166.876 16.2249C167.722 20.5902 163.077 25.6597 157.772 26.2212C152.238 26.8073 147.04 22.181 146.902 16.5795C146.749 10.4035 151.832 6.09735 156.858 6.23361C156.858 7.13818 156.858 8.04768 156.858 9.0409C154.424 9.21164 152.402 10.2081 151.016 12.2783C150.072 13.6885 149.682 15.2613 149.855 16.9555C150.201 20.3604 152.971 23.0593 156.413 23.3252C158.489 23.4861 160.289 22.8032 161.815 21.4078C163.326 20.0238 163.988 18.2377 164.136 16.2249Z" fill="#4949FC"/>
<path d="M164.039 76.1186C163.362 75.4537 162.723 74.8233 162.025 74.1371C163.707 72.2327 164.441 70.0542 163.912 67.5506C163.541 65.7956 162.595 64.3953 161.158 63.315C158.425 61.2629 154.465 61.5322 151.972 63.9504C149.198 66.6427 149.14 70.2413 151.791 74.0697C151.133 74.7182 150.479 75.3634 149.817 76.0151C146.998 73.7168 145.202 67.4242 149.319 62.5172C152.964 58.1749 159.816 57.84 163.906 61.8063C167.935 65.7168 168.024 72.5774 164.039 76.1186Z" fill="#4949FC"/>
<path d="M149.891 129.009C150.566 128.329 151.198 127.694 151.891 126.995C153.727 128.643 155.854 129.37 158.307 128.909C160.072 128.577 161.503 127.673 162.603 126.253C164.76 123.467 164.536 119.528 162.065 116.943C159.938 114.72 155.661 113.536 151.876 116.818C151.231 116.163 150.584 115.505 149.937 114.846C152.678 111.655 158.944 110.402 163.505 114.3C167.876 118.034 168.17 124.801 164.152 128.929C160.269 132.916 153.522 132.975 149.891 129.009Z" fill="#4949FC"/>
<path d="M146.9 95.4855C146.984 92.6914 147.901 90.3552 149.788 88.4492C153.521 84.6766 159.477 84.4419 163.491 87.8697C167.492 91.2861 168.17 97.2208 164.999 101.483C163.205 103.893 160.759 105.194 157.767 105.503C157.131 105.569 156.847 105.433 156.916 104.736C156.978 104.114 156.724 103.323 157.024 102.903C157.295 102.523 158.128 102.542 158.716 102.392C162.064 101.54 164.452 98.1894 164.057 94.8962C163.601 91.094 160.669 88.3852 156.974 88.3507C153.423 88.3179 150.312 91.0185 149.895 94.6023C149.803 95.3903 149.509 95.543 148.83 95.4921C148.236 95.451 147.635 95.4855 146.9 95.4855Z" fill="#4949FC"/>
<path d="M156.931 141.162C156.931 140.312 156.893 139.522 156.962 138.741C156.976 138.587 157.404 138.344 157.633 138.352C161.893 138.531 165.658 141.712 166.712 145.986C168.097 151.597 164.308 157.326 158.61 158.236C152.759 159.168 147.362 154.969 146.924 149.143C146.907 148.926 146.922 148.708 146.922 148.422C147.842 148.422 148.757 148.422 149.764 148.422C149.951 150.988 151.05 153.091 153.321 154.473C154.727 155.328 156.276 155.622 157.897 155.401C161.363 154.928 163.9 152.162 164.076 148.581C164.174 146.583 163.455 144.828 162.056 143.38C160.681 141.957 158.948 141.3 156.931 141.162Z" fill="#4949FC"/>
<path d="M94.3049 13.3009C90.7227 13.3009 87.1405 13.3009 83.5583 13.3009C80.3506 13.3026 78.3008 10.8597 78.8674 7.71425C79.0005 6.9722 79.5573 6.48462 80.2766 6.47477C81.0141 6.46492 81.5709 6.90325 81.7105 7.66992C81.7828 8.06885 81.7614 8.4842 81.7795 8.89298C81.8206 9.80576 82.287 10.3032 83.1871 10.3853C83.3497 10.4001 83.5156 10.3951 83.6782 10.3951C90.7325 10.3951 97.7885 10.3968 104.843 10.3935C106.462 10.3935 106.878 9.97486 106.893 8.36436C106.894 8.14601 106.888 7.92438 106.921 7.71097C107.034 6.964 107.589 6.48134 108.32 6.47641C109.097 6.47149 109.667 6.97056 109.774 7.75037C110.227 11.0551 108.282 13.3026 104.968 13.3042C101.413 13.3058 97.8575 13.3042 94.3032 13.3042C94.3049 13.3026 94.3049 13.3026 94.3049 13.3009Z" fill="#4949FC"/>
<path d="M110.094 79.6352C105.606 79.6368 101.117 79.6286 96.6296 79.6434C95.8609 79.645 95.2811 79.4185 95.0282 78.6518C94.7654 77.8474 95.2335 77.0118 96.0695 76.8197C96.4112 76.7409 96.7741 76.7425 97.1289 76.7425C105.804 76.736 114.48 76.7343 123.157 76.7327C123.349 76.7327 123.541 76.7294 123.732 76.7458C124.691 76.8246 125.259 77.3959 125.233 78.2463C125.205 79.1082 124.629 79.6286 123.643 79.6319C120.522 79.6401 117.403 79.6352 114.283 79.6336C112.887 79.6336 111.491 79.6336 110.094 79.6352Z" fill="#4949FC"/>
<path d="M15.9146 79.6334C11.4307 79.6334 6.94675 79.6268 2.46449 79.64C1.65805 79.6416 1.07169 79.3773 0.843388 78.5647C0.605232 77.7143 1.14396 76.9148 2.06209 76.7769C2.43821 76.7211 2.82583 76.7391 3.20688 76.7391C11.7641 76.7375 20.3213 76.7375 28.8785 76.7391C29.179 76.7391 29.4829 76.7342 29.7785 76.7752C30.5948 76.8885 31.1352 77.5271 31.0859 78.2872C31.0367 79.0555 30.4404 79.6219 29.611 79.6268C27.4512 79.64 25.2913 79.6334 23.1315 79.6334C20.7253 79.6334 18.3208 79.6334 15.9146 79.6334Z" fill="#4949FC"/>
<path d="M104.362 175.384C108.957 175.384 113.553 175.365 118.149 175.41C118.659 175.415 119.311 175.645 119.647 176.004C120.348 176.756 119.812 178.017 118.788 178.219C118.495 178.276 118.188 178.268 117.889 178.268C108.834 178.27 99.7794 178.27 90.7245 178.27C90.4519 178.27 90.1743 178.275 89.9066 178.237C89.1314 178.127 88.6173 177.516 88.6435 176.772C88.6715 176.011 89.2036 175.451 90.0018 175.406C90.6835 175.369 91.3684 175.384 92.0533 175.384C96.1561 175.382 100.261 175.384 104.363 175.384C104.362 175.382 104.362 175.382 104.362 175.384Z" fill="#4949FC"/>
<path d="M15.8977 84.6487C20.3274 84.6487 24.7554 84.6487 29.1851 84.6504C29.4298 84.6504 29.6811 84.6405 29.9193 84.6865C30.6436 84.826 31.1199 85.4367 31.0871 86.1509C31.0542 86.8716 30.5352 87.433 29.8027 87.5151C29.5596 87.543 29.3116 87.5299 29.0652 87.5299C20.2896 87.5299 11.5139 87.5315 2.73666 87.5299C2.49029 87.5299 2.24228 87.5381 2.00084 87.5003C1.28308 87.3887 0.754213 86.7796 0.788704 86.0721C0.824838 85.3317 1.22724 84.8474 1.95649 84.6881C2.24556 84.6257 2.55434 84.6471 2.85491 84.6471C7.20249 84.6454 11.5484 84.6454 15.896 84.6454C15.8977 84.6471 15.8977 84.6487 15.8977 84.6487Z" fill="#4949FC"/>
<path d="M110.02 87.53C105.669 87.53 101.318 87.5316 96.9674 87.5283C96.6669 87.5283 96.3581 87.5447 96.069 87.4824C95.3578 87.3297 94.9932 86.8323 94.9735 86.1345C94.9538 85.4385 95.2888 84.9164 95.9852 84.721C96.2677 84.6422 96.5814 84.6488 96.8804 84.6472C105.61 84.6422 114.338 84.6422 123.068 84.6439C123.396 84.6439 123.73 84.6324 124.05 84.6849C124.791 84.8064 125.254 85.3909 125.234 86.1263C125.213 86.8684 124.727 87.4134 123.976 87.5054C123.707 87.5382 123.429 87.5283 123.156 87.5283C118.776 87.53 114.397 87.53 110.02 87.53Z" fill="#4949FC"/>
<path d="M153.786 138.793C154.106 139.749 154.397 140.616 154.704 141.532C152.531 142.408 151.01 143.852 150.161 146.102C149.243 145.805 148.354 145.518 147.398 145.209C148.545 142.06 150.624 139.994 153.786 138.793Z" fill="#4949FC"/>
<path d="M163.748 13.9774C162.889 11.7398 161.399 10.2623 159.195 9.42011C159.496 8.51226 159.783 7.64052 160.066 6.78027C162.569 7.13816 165.762 10.2968 166.42 13.0729C165.558 13.3651 164.688 13.659 163.748 13.9774Z" fill="#4949FC"/>
<path d="M147.396 98.6377C148.352 98.3225 149.198 98.0434 150.125 97.738C150.992 99.9067 152.473 101.424 154.694 102.294C154.397 103.205 154.114 104.073 153.8 105.034C150.667 103.894 148.586 101.819 147.396 98.6377Z" fill="#4949FC"/>
<path d="M163.513 39.3266C164.232 38.9638 165.05 38.5517 165.936 38.1035C167.297 41.1554 167.34 44.0891 165.934 47.1476C165.07 46.7207 164.25 46.3153 163.488 45.9377C163.699 44.8115 164.047 43.7526 164.053 42.692C164.06 41.6249 163.726 40.5562 163.513 39.3266Z" fill="#4949FC"/>
<path d="M147.965 117.402C148.848 117.844 149.668 118.253 150.473 118.655C149.461 122.214 149.702 122.388 150.486 125.191C149.679 125.586 148.856 125.99 147.961 126.43C146.557 123.399 146.567 120.456 147.965 117.402Z" fill="#4949FC"/>
<path d="M153.691 75.5276C156.775 76.314 156.775 76.314 160.211 75.5473C160.607 76.3205 161.013 77.1135 161.414 77.8949C159.461 79.4348 154.793 79.4923 152.459 77.9507C152.87 77.143 153.283 76.3271 153.691 75.5276Z" fill="#4949FC"/>
<path d="M20.0961 110.61C20.1174 111.421 19.4917 112.063 18.6671 112.078C17.8936 112.091 17.2399 111.49 17.1939 110.727C17.1462 109.941 17.7966 109.24 18.5932 109.217C19.4276 109.194 20.0747 109.795 20.0961 110.61Z" fill="#4949FC"/>
<path d="M44.1272 31.5467C44.114 32.3594 43.4456 33.0062 42.649 32.9783C41.8376 32.9487 41.2249 32.2855 41.2529 31.4663C41.2791 30.6734 41.8819 30.1021 42.6933 30.1021C43.5359 30.1004 44.142 30.7111 44.1272 31.5467Z" fill="#4949FC"/>
<path d="M44.1246 24.6615C44.1049 25.4807 43.4381 26.1062 42.6333 26.0635C41.8531 26.0225 41.2503 25.3921 41.252 24.6205C41.2552 23.7914 41.8662 23.1938 42.7154 23.1938C43.5432 23.1938 44.1443 23.821 44.1246 24.6615Z" fill="#4949FC"/>
<path d="M42.6678 37.025C43.5054 37.007 44.1312 37.6161 44.1296 38.4468C44.1279 39.2315 43.5268 39.8635 42.7565 39.8931C41.9451 39.9243 41.2668 39.2939 41.2503 38.4944C41.2339 37.6555 41.8252 37.0431 42.6678 37.025Z" fill="#4949FC"/>
<path d="M16.4954 119.999C15.6692 119.984 15.032 119.336 15.0615 118.541C15.0911 117.734 15.7547 117.139 16.5874 117.172C17.4004 117.205 17.9588 117.785 17.9572 118.592C17.9572 119.431 17.3495 120.016 16.4954 119.999Z" fill="#4949FC"/>
<path d="M44.1256 66.1419C44.1076 66.948 43.4391 67.58 42.6343 67.5521C41.882 67.5242 41.2497 66.8692 41.248 66.114C41.2464 65.2538 41.8968 64.6529 42.787 64.6906C43.5738 64.7251 44.1437 65.3408 44.1256 66.1419Z" fill="#4949FC"/>
<path d="M22.1665 104.653C21.3666 104.668 20.7014 104.019 20.6916 103.213C20.6801 102.399 21.3173 101.767 22.1418 101.772C22.9352 101.777 23.5527 102.369 23.5774 103.146C23.602 103.939 22.9467 104.638 22.1665 104.653Z" fill="#4949FC"/>
<path d="M16.509 136.406C15.6976 136.402 15.0505 135.75 15.0587 134.944C15.0652 134.144 15.7288 133.535 16.5697 133.56C17.3893 133.583 17.9625 134.159 17.9642 134.963C17.9675 135.789 17.3384 136.413 16.509 136.406Z" fill="#4949FC"/>
<path d="M20.0994 142.906C20.0928 143.718 19.4539 144.345 18.6327 144.344C17.8328 144.342 17.1643 143.659 17.1923 142.875C17.2202 142.098 17.8427 141.499 18.631 141.489C19.4802 141.477 20.106 142.082 20.0994 142.906Z" fill="#4949FC"/>
<path d="M44.1219 45.3844C44.1072 46.2052 43.4699 46.8209 42.6487 46.8044C41.8455 46.788 41.2164 46.1166 41.2493 45.3089C41.2821 44.5274 41.9013 43.9348 42.6881 43.9331C43.5142 43.9298 44.1367 44.5602 44.1219 45.3844Z" fill="#4949FC"/>
<path d="M17.2763 126.796C17.2664 127.566 16.5569 128.246 15.7816 128.229C14.985 128.213 14.3428 127.536 14.3658 126.735C14.3872 125.936 14.9752 125.378 15.7981 125.374C16.6324 125.369 17.2861 125.996 17.2763 126.796Z" fill="#4949FC"/>
<path d="M44.1294 59.1912C44.1294 60.0104 43.4954 60.6359 42.6742 60.626C41.8562 60.6162 41.2452 59.9776 41.26 59.1485C41.2732 58.3507 41.8562 57.7843 42.6742 57.7695C43.5118 57.7564 44.1294 58.3589 44.1294 59.1912Z" fill="#4949FC"/>
<path d="M42.7997 50.8728C43.6209 50.9187 44.1531 51.5015 44.1252 52.3224C44.0972 53.1514 43.46 53.7375 42.6223 53.703C41.7962 53.6686 41.2065 53.0185 41.2525 52.1894C41.3001 51.3571 41.9259 50.8235 42.7997 50.8728Z" fill="#4949FC"/>
</g>
<defs>
<clipPath id="clip0_586_30064">
<rect width="167" height="187" fill="white"/>
</clipPath>
</defs>
</svg>
