<svg width="132" height="25" viewBox="0 0 132 25" fill="none" xmlns="http://www.w3.org/2000/svg">
<g clip-path="url(#clip0_2164_1264)">
<path d="M0.966631 7.97613C0.966631 5.56387 0.977899 3.1516 0.957096 0.740197C0.953629 0.311137 1.08885 0.208856 1.4971 0.214924C3.07119 0.236593 4.64614 0.238327 6.21936 0.214057C6.63368 0.207989 6.73076 0.346675 6.72556 0.733262C6.70649 2.14873 6.73076 3.56419 6.70996 4.97965C6.70389 5.40091 6.84865 5.53526 7.26037 5.51619C7.88012 5.48672 8.50248 5.49019 9.1231 5.51533C9.50275 5.53093 9.6293 5.39744 9.62497 5.01952C9.60936 3.59019 9.63103 2.15999 9.6111 0.729795C9.6059 0.337141 9.71338 0.208856 10.1216 0.214924C11.7243 0.238327 13.3279 0.233126 14.9306 0.217524C15.2704 0.214057 15.3778 0.31027 15.377 0.657852C15.3666 5.5396 15.3674 10.4213 15.3752 15.3031C15.3761 15.6255 15.312 15.766 14.947 15.7616C13.3149 15.7434 11.6827 15.7434 10.0514 15.7616C9.69431 15.766 9.6111 15.6368 9.6137 15.3092C9.62583 13.677 9.60763 12.0448 9.6267 10.4127C9.6319 9.99401 9.48888 9.851 9.07629 9.86833C8.45654 9.89433 7.83418 9.89173 7.21356 9.8692C6.83478 9.8562 6.7091 9.99748 6.7117 10.3728C6.72556 11.9902 6.70476 13.6085 6.72643 15.2251C6.73163 15.6385 6.61808 15.7686 6.19422 15.7625C4.60627 15.7382 3.01658 15.7434 1.42863 15.7599C1.07325 15.7634 0.957096 15.6628 0.95883 15.2979C0.973565 12.8579 0.966631 10.417 0.966631 7.97613Z" fill="#BCBCBC"/>
<path d="M84.3383 7.7768C84.7405 7.90422 85.0135 7.98483 85.284 8.07671C86.4177 8.46243 86.8459 9.38122 87.0288 10.4526C87.3157 12.1367 87.5714 13.8261 87.8375 15.5137C87.8479 15.5805 87.8393 15.6498 87.8393 15.753C87.6694 15.753 87.5272 15.753 87.3851 15.753C85.7676 15.753 84.1502 15.7382 82.5328 15.7634C82.1271 15.7694 81.9737 15.6282 81.9156 15.2511C81.7579 14.2292 81.5793 13.2107 81.4034 12.1922C81.3418 11.8394 81.2855 11.4823 81.1867 11.1391C80.9128 10.1847 80.2098 9.98798 79.2381 10.0651C79.1462 10.0721 79.0058 10.3278 79.0041 10.469C78.9876 12.0284 78.9937 13.5886 78.9937 15.148C78.9937 15.2494 79.0301 15.3725 78.985 15.4461C78.9122 15.5658 78.7865 15.7382 78.6816 15.7391C76.9489 15.7573 75.2162 15.7573 73.4827 15.7391C73.3786 15.7382 73.259 15.5614 73.1802 15.4435C73.1403 15.3837 73.1724 15.2754 73.1724 15.1887C73.1724 10.3798 73.1784 5.57083 73.1619 0.761895C73.1602 0.312899 73.2911 0.209751 73.7236 0.213218C76.4384 0.233154 79.154 0.194149 81.868 0.238355C83.0425 0.257424 84.2248 0.34757 85.3429 0.7983C86.6223 1.31404 87.2481 2.26924 87.3235 3.62316C87.3781 4.60696 87.314 5.55696 86.6518 6.36741C86.1889 6.93342 85.5917 7.28967 84.9182 7.54017C84.7604 7.59911 84.6061 7.66759 84.3383 7.7768ZM78.9963 3.59195C78.9963 4.59656 78.9859 5.50409 79.011 6.40988C79.0136 6.51129 79.2373 6.70199 79.3352 6.68812C79.8423 6.61704 80.3675 6.55723 80.8373 6.37087C81.4146 6.14204 81.718 5.47288 81.6417 4.87393C81.555 4.19784 81.2491 3.83205 80.5218 3.69337C80.0494 3.60322 79.5545 3.62489 78.9963 3.59195Z" fill="#BCBCBC"/>
<path d="M46.6758 15.7539C46.9523 14.9096 47.2037 14.133 47.4594 13.3572C48.8514 9.14809 50.2478 4.9407 51.6286 0.728119C51.7482 0.363201 51.8956 0.20718 52.316 0.211514C54.6112 0.237517 56.9073 0.229716 59.2026 0.217581C59.5276 0.215847 59.6785 0.305993 59.7807 0.633639C61.3063 5.52232 62.8492 10.4058 64.386 15.291C64.4276 15.4245 64.4562 15.5614 64.4978 15.7261C64.3452 15.7383 64.2334 15.7539 64.1216 15.7539C62.2875 15.7556 60.4542 15.7478 58.621 15.7625C58.3159 15.7651 58.1832 15.6733 58.1269 15.376C58.016 14.7831 57.8599 14.1989 57.7507 13.606C57.7022 13.339 57.5852 13.2411 57.3199 13.2428C56.0206 13.2497 54.7213 13.2489 53.422 13.2428C53.1689 13.2419 53.0337 13.3104 52.9799 13.5895C52.8638 14.1954 52.6965 14.7917 52.5656 15.395C52.5171 15.6187 52.4451 15.7599 52.179 15.7582C50.3761 15.7513 48.5732 15.7539 46.6758 15.7539ZM53.9455 9.56935C54.8244 9.56935 55.5985 9.55894 56.3725 9.57368C56.766 9.58148 56.8241 9.42719 56.7435 9.06921C56.3916 7.50206 56.0666 5.92971 55.7268 4.35996C55.66 4.05225 55.5716 3.748 55.4936 3.4429C55.452 3.44636 55.4104 3.44983 55.3688 3.4533C54.9033 5.45471 54.437 7.45612 53.9455 9.56935Z" fill="#BCBCBC"/>
<path d="M32.1329 11.7528C32.3297 11.7528 32.4978 11.7528 32.6669 11.7528C34.3138 11.7528 35.9607 11.7649 37.6067 11.7441C37.995 11.7389 38.099 11.8611 38.0904 12.2373C38.0669 13.2766 38.0739 14.3176 38.0878 15.3569C38.0921 15.6559 37.9976 15.7591 37.6916 15.7582C34.0225 15.7495 30.3543 15.7486 26.6852 15.7591C26.3506 15.7599 26.2734 15.6386 26.2743 15.3283C26.2821 10.4318 26.2821 5.5353 26.2734 0.638817C26.2726 0.317239 26.3705 0.216691 26.6938 0.217558C30.2901 0.227093 33.8873 0.228826 37.4836 0.215825C37.8451 0.214958 37.9196 0.346709 37.9144 0.672621C37.8979 1.6833 37.8945 2.69484 37.9161 3.70551C37.9231 4.05482 37.8078 4.1493 37.4689 4.14584C35.8653 4.13023 34.2626 4.1389 32.6591 4.1389C32.1035 4.1389 32.1035 4.14064 32.1026 4.71272C32.1026 4.94415 32.1243 5.17731 32.0983 5.40528C32.0514 5.81527 32.1953 5.95655 32.6227 5.94875C34.0815 5.92448 35.5403 5.95222 36.9991 5.93142C37.3839 5.92622 37.4957 6.04237 37.4853 6.42289C37.4602 7.37549 37.4775 8.32895 37.4767 9.28242C37.4767 9.85796 37.4758 9.85796 36.9193 9.85796C35.4891 9.85796 34.0598 9.85796 32.6296 9.85796C32.4744 9.85796 32.3202 9.85796 32.1347 9.85796C32.1329 10.4959 32.1329 11.081 32.1329 11.7528Z" fill="#BCBCBC"/>
<path d="M99.308 10.7992C100.102 10.7992 100.897 10.8052 101.691 10.7957C101.932 10.7931 102.057 10.8477 102.08 11.1207C102.195 12.4773 103.293 12.6714 104.256 12.4209C104.77 12.2866 105.106 11.8696 105.141 11.3669C105.175 10.885 104.898 10.3554 104.42 10.1907C103.593 9.90464 102.74 9.69228 101.904 9.42878C101.013 9.14794 100.105 8.90004 99.2482 8.53685C97.9879 8.00378 97.0492 7.10839 96.8533 5.69032C96.5239 3.30666 97.473 1.48814 99.9598 0.571947C100.981 0.195762 102.046 0.0692108 103.133 0.0180704C104.6 -0.0512726 106.039 0.0484079 107.417 0.571081C109.169 1.23591 109.956 2.46501 110.032 4.07897C110.048 4.41095 109.922 4.49676 109.607 4.49416C108.193 4.48116 106.777 4.48202 105.362 4.49329C105.067 4.49589 104.933 4.41615 104.873 4.10064C104.775 3.59617 104.447 3.27199 103.923 3.15757C103.377 3.03882 102.879 3.12723 102.481 3.52076C101.958 4.03823 102.148 4.92408 102.868 5.18152C103.555 5.42769 104.277 5.57678 104.984 5.76747C106.25 6.10898 107.517 6.44443 108.669 7.10319C109.916 7.81569 110.51 8.8775 110.574 10.3207C110.696 13.0996 109.027 14.7743 106.989 15.4261C104.327 16.2773 101.656 16.2452 99.0575 15.1643C97.3647 14.4605 96.5282 13.0476 96.5594 11.2317C96.5655 10.8919 96.6695 10.7801 97.0128 10.7905C97.7773 10.8156 98.5435 10.7992 99.308 10.7992Z" fill="#BCBCBC"/>
<path d="M121.886 4.31235C120.77 4.31235 119.72 4.29328 118.669 4.32188C118.251 4.33315 118.122 4.20747 118.133 3.78794C118.161 2.73479 118.15 1.67991 118.139 0.625902C118.135 0.335528 118.218 0.217645 118.531 0.218512C122.734 0.22718 126.936 0.226313 131.138 0.218512C131.438 0.217645 131.545 0.311258 131.542 0.614634C131.529 1.71199 131.527 2.80934 131.543 3.90669C131.548 4.23954 131.419 4.32275 131.108 4.31755C130.156 4.30195 129.202 4.32795 128.25 4.30368C127.879 4.29414 127.791 4.4285 127.792 4.77695C127.802 8.24236 127.798 11.7086 127.798 15.1741C127.798 15.7531 127.797 15.7531 127.201 15.7531C125.598 15.7531 123.995 15.7409 122.393 15.7617C121.997 15.7669 121.876 15.6621 121.878 15.2547C121.894 11.8179 121.887 8.38105 121.887 4.94423C121.886 4.75874 121.886 4.57325 121.886 4.31235Z" fill="#BCBCBC"/>
</g>
<line x1="1" y1="22.5" x2="132" y2="22.5" stroke="#BCBCBC" stroke-width="5"/>
<defs>
<clipPath id="clip0_2164_1264">
<rect width="130.584" height="16.0252" fill="white" transform="translate(0.957031)"/>
</clipPath>
</defs>
</svg>
