<svg width="18" height="18" viewBox="0 0 18 18" fill="none" xmlns="http://www.w3.org/2000/svg">
<circle cx="9" cy="9" r="9" fill="#4949FC"/>
<g clip-path="url(#clip0_1203_4354)">
<path d="M16.0717 8.67851C16.0207 8.62525 15.9783 8.57199 15.9273 8.51873C14.2455 6.75227 12.5551 4.98582 10.8648 3.21936C10.6864 3.03295 10.508 2.85542 10.3381 2.66901C10.2362 2.55361 10.1682 2.54474 10.0663 2.66901C9.84546 2.91756 9.62461 3.15722 9.37827 3.38802C9.22538 3.53004 9.26785 3.60106 9.38677 3.73421C10.8223 5.23436 12.2493 6.73452 13.6848 8.23467C13.7953 8.35007 13.8972 8.47434 14.0161 8.58086C14.1095 8.66963 14.118 8.72289 14.0161 8.82054C13.5914 9.24661 13.1752 9.68157 12.7675 10.1254C12.6485 10.2497 12.5976 10.223 12.4956 10.1165C11.4424 8.96256 10.3721 7.83523 9.29333 6.70789C8.82615 6.2108 8.34198 5.72258 7.8748 5.22549C7.76437 5.11009 7.70491 5.11897 7.61148 5.23436C7.39063 5.48291 7.16978 5.73146 6.93194 5.95337C6.77905 6.0954 6.82152 6.16641 6.94044 6.29069C8.02769 7.4269 9.11495 8.56311 10.2022 9.69932C10.6524 10.1698 11.0941 10.6491 11.5528 11.1107C11.6632 11.2261 11.6632 11.2882 11.5528 11.3948C11.1536 11.8031 10.7543 12.2203 10.3636 12.6464C10.2447 12.7795 10.1682 12.7706 10.0493 12.6464C9.09797 11.6344 8.13812 10.6403 7.17827 9.62831C6.60067 9.0247 6.01457 8.42108 5.44546 7.8086C5.33503 7.6932 5.26708 7.67545 5.15665 7.8086C4.9358 8.06602 4.69797 8.30569 4.46013 8.54536C4.36669 8.63413 4.34121 8.69626 4.45163 8.81166C5.83619 10.2497 7.21225 11.6966 8.58831 13.1435C9.08098 13.6583 9.57364 14.1732 10.0578 14.688C10.1682 14.8034 10.2277 14.8212 10.3466 14.6969C12.2153 12.7351 14.0841 10.7823 15.9528 8.82054C15.9868 8.77615 16.0292 8.73177 16.0717 8.67851Z" fill="white"/>
<path d="M8.74806 13.8177C7.72875 12.7703 6.72644 11.7317 5.73261 10.702C5.13802 10.0895 4.55192 9.45929 3.95733 8.8468C3.82991 8.71365 3.83841 8.64264 3.95733 8.51837C4.35655 8.11892 4.74729 7.71059 5.12953 7.28451C5.24845 7.16024 5.3079 7.15136 5.43532 7.28451C6.95578 8.88231 8.48474 10.4801 10.0052 12.0779C10.1666 12.2466 10.243 12.2377 10.3874 12.069C10.5828 11.8382 10.7952 11.6163 11.016 11.4122C11.1519 11.2879 11.1264 11.2169 11.0075 11.0926C9.51254 9.52143 8.01756 7.95026 6.51408 6.37909C6.25926 6.11279 6.25926 6.11279 6.50559 5.86425C6.87084 5.48255 7.23609 5.10973 7.59285 4.71916C7.72026 4.57713 7.78821 4.58601 7.91563 4.71916C9.43609 6.31696 10.965 7.91475 12.4855 9.51255C12.6214 9.66346 12.6979 9.69009 12.8423 9.51255C13.0376 9.27288 13.2585 9.04209 13.4878 8.82905C13.6152 8.70478 13.6152 8.64264 13.4878 8.50949C12.5959 7.5952 11.721 6.66315 10.8376 5.73997C9.8608 4.71916 8.88397 3.69834 7.91563 2.66865C7.77972 2.52662 7.72026 2.5355 7.59285 2.66865C5.73261 4.63039 3.88088 6.57438 2.02065 8.50949C1.88474 8.65152 1.89323 8.72253 2.02065 8.85568C3.88088 10.7997 5.74111 12.7437 7.60134 14.6965C7.71177 14.8119 7.77123 14.8297 7.88165 14.6965C8.15346 14.4036 8.44227 14.1284 8.74806 13.8177Z" fill="white"/>
</g>
<defs>
<clipPath id="clip0_1203_4354">
<rect width="14.1429" height="12.2143" fill="white" transform="translate(1.92969 2.57129)"/>
</clipPath>
</defs>
</svg>
