<svg width="167" height="139" viewBox="0 0 167 139" fill="none" xmlns="http://www.w3.org/2000/svg">
<mask id="path-1-inside-1_1414_6602" fill="white">
<path fill-rule="evenodd" clip-rule="evenodd" d="M9.75429 0.504272H0V121.137C0 130.655 7.71561 138.37 17.2333 138.37H149.105C158.623 138.37 166.338 130.655 166.338 121.137V0.504272H48.3405C47.9503 10.9161 39.4618 19.2361 29.0474 19.2361C18.633 19.2361 10.1445 10.9161 9.75429 0.504272Z"/>
</mask>
<path fill-rule="evenodd" clip-rule="evenodd" d="M9.75429 0.504272H0V121.137C0 130.655 7.71561 138.37 17.2333 138.37H149.105C158.623 138.37 166.338 130.655 166.338 121.137V0.504272H48.3405C47.9503 10.9161 39.4618 19.2361 29.0474 19.2361C18.633 19.2361 10.1445 10.9161 9.75429 0.504272Z" fill="white"/>
<path d="M0 0.504272V-0.244998H-0.749271V0.504272H0ZM9.75429 0.504272L10.503 0.476212L10.476 -0.244998H9.75429V0.504272ZM166.338 0.504272H167.087V-0.244998H166.338V0.504272ZM48.3405 0.504272V-0.244998H47.6188L47.5917 0.476211L48.3405 0.504272ZM0 1.25354H9.75429V-0.244998H0V1.25354ZM0.749271 121.137V0.504272H-0.749271V121.137H0.749271ZM17.2333 137.621C8.12942 137.621 0.749271 130.241 0.749271 121.137H-0.749271C-0.749271 131.068 7.3018 139.119 17.2333 139.119V137.621ZM149.105 137.621H17.2333V139.119H149.105V137.621ZM165.589 121.137C165.589 130.241 158.209 137.621 149.105 137.621V139.119C159.036 139.119 167.087 131.068 167.087 121.137H165.589ZM165.589 0.504272V121.137H167.087V0.504272H165.589ZM48.3405 1.25354H166.338V-0.244998H48.3405V1.25354ZM47.5917 0.476211C47.2163 10.493 39.0514 18.4868 29.0474 18.4868V19.9854C39.8721 19.9854 48.6842 11.3393 49.0892 0.532333L47.5917 0.476211ZM29.0474 18.4868C19.0434 18.4868 10.8784 10.493 10.503 0.476212L9.00555 0.532333C9.41056 11.3393 18.2226 19.9854 29.0474 19.9854V18.4868Z" fill="#CACACA" mask="url(#path-1-inside-1_1414_6602)"/>
</svg>
