<svg width="610" height="610" viewBox="0 0 610 610" fill="none" xmlns="http://www.w3.org/2000/svg">
<mask id="path-1-inside-1_2028_13369" fill="white">
<path d="M150.401 567.915C196.507 595.026 248.932 609.536 302.416 609.989C355.901 610.442 408.564 596.822 455.123 570.496C501.682 544.17 540.499 506.062 567.68 459.997C594.861 413.932 609.451 361.529 609.985 308.046C610.519 254.562 596.979 201.878 570.723 155.279C544.467 108.681 506.419 69.8059 460.395 42.555C414.371 15.3041 361.99 0.63526 308.507 0.0201686C255.025 -0.594923 202.32 12.8653 155.682 39.0506L159.873 46.5147C205.202 21.0643 256.427 7.98186 308.409 8.57969C360.391 9.17752 411.302 23.4346 456.034 49.9207C500.766 76.4068 537.746 114.191 563.265 159.481C588.784 204.772 601.944 255.977 601.425 307.96C600.906 359.943 586.726 410.875 560.308 455.647C533.889 500.419 496.162 537.457 450.91 563.045C405.658 588.632 354.472 601.87 302.489 601.429C250.505 600.989 199.552 586.886 154.74 560.536L150.401 567.915Z"/>
</mask>
<path d="M150.401 567.915C196.507 595.026 248.932 609.536 302.416 609.989C355.901 610.442 408.564 596.822 455.123 570.496C501.682 544.17 540.499 506.062 567.68 459.997C594.861 413.932 609.451 361.529 609.985 308.046C610.519 254.562 596.979 201.878 570.723 155.279C544.467 108.681 506.419 69.8059 460.395 42.555C414.371 15.3041 361.99 0.63526 308.507 0.0201686C255.025 -0.594923 202.32 12.8653 155.682 39.0506L159.873 46.5147C205.202 21.0643 256.427 7.98186 308.409 8.57969C360.391 9.17752 411.302 23.4346 456.034 49.9207C500.766 76.4068 537.746 114.191 563.265 159.481C588.784 204.772 601.944 255.977 601.425 307.96C600.906 359.943 586.726 410.875 560.308 455.647C533.889 500.419 496.162 537.457 450.91 563.045C405.658 588.632 354.472 601.87 302.489 601.429C250.505 600.989 199.552 586.886 154.74 560.536L150.401 567.915Z" stroke="#D9D9D9" stroke-width="14" stroke-linejoin="round" mask="url(#path-1-inside-1_2028_13369)"/>
<circle cx="142" cy="52" r="25" fill="#D9D9D9"/>
<circle cx="142" cy="560" r="25" fill="#D9D9D9"/>
</svg>
