<svg width="385" height="30" viewBox="0 0 385 30" fill="none" xmlns="http://www.w3.org/2000/svg">
<circle cx="15" cy="15" r="15" fill="#D9D9D9"/>
<path d="M4.33333 15C4.33333 20.891 9.10896 25.6667 15 25.6667C20.891 25.6667 25.6667 20.891 25.6667 15C25.6667 9.10896 20.891 4.33333 15 4.33333C9.10896 4.33333 4.33333 9.10896 4.33333 15ZM383 17C384.105 17 385 16.1046 385 15C385 13.8954 384.105 13 383 13V17ZM23.4541 17C24.5586 17 25.4541 16.1046 25.4541 15C25.4541 13.8954 24.5586 13 23.4541 13V17ZM43.3459 13C42.2414 13 41.3459 13.8954 41.3459 15C41.3459 16.1046 42.2414 17 43.3459 17V13ZM60.2541 17C61.3586 17 62.2541 16.1046 62.2541 15C62.2541 13.8954 61.3586 13 60.2541 13V17ZM80.1459 13C79.0414 13 78.1459 13.8954 78.1459 15C78.1459 16.1046 79.0414 17 80.1459 17V13ZM97.054 17C98.1586 17 99.054 16.1046 99.054 15C99.054 13.8954 98.1586 13 97.054 13V17ZM116.946 13C115.841 13 114.946 13.8954 114.946 15C114.946 16.1046 115.841 17 116.946 17V13ZM133.854 17C134.959 17 135.854 16.1046 135.854 15C135.854 13.8954 134.959 13 133.854 13V17ZM153.746 13C152.641 13 151.746 13.8954 151.746 15C151.746 16.1046 152.641 17 153.746 17V13ZM170.654 17C171.759 17 172.654 16.1046 172.654 15C172.654 13.8954 171.759 13 170.654 13V17ZM190.546 13C189.441 13 188.546 13.8954 188.546 15C188.546 16.1046 189.441 17 190.546 17V13ZM207.454 17C208.559 17 209.454 16.1046 209.454 15C209.454 13.8954 208.559 13 207.454 13V17ZM227.346 13C226.241 13 225.346 13.8954 225.346 15C225.346 16.1046 226.241 17 227.346 17V13ZM244.254 17C245.359 17 246.254 16.1046 246.254 15C246.254 13.8954 245.359 13 244.254 13V17ZM264.146 13C263.041 13 262.146 13.8954 262.146 15C262.146 16.1046 263.041 17 264.146 17V13ZM281.054 17C282.159 17 283.054 16.1046 283.054 15C283.054 13.8954 282.159 13 281.054 13V17ZM300.946 13C299.841 13 298.946 13.8954 298.946 15C298.946 16.1046 299.841 17 300.946 17V13ZM317.854 17C318.959 17 319.854 16.1046 319.854 15C319.854 13.8954 318.959 13 317.854 13V17ZM337.746 13C336.641 13 335.746 13.8954 335.746 15C335.746 16.1046 336.641 17 337.746 17V13ZM354.654 17C355.759 17 356.654 16.1046 356.654 15C356.654 13.8954 355.759 13 354.654 13V17ZM374.546 13C373.441 13 372.546 13.8954 372.546 15C372.546 16.1046 373.441 17 374.546 17V13ZM15 17H23.4541V13H15V17ZM43.3459 17H60.2541V13H43.3459V17ZM80.1459 17H97.054V13H80.1459V17ZM116.946 17H133.854V13H116.946V17ZM153.746 17H170.654V13H153.746V17ZM190.546 17H207.454V13H190.546V17ZM227.346 17H244.254V13H227.346V17ZM264.146 17H281.054V13H264.146V17ZM300.946 17H317.854V13H300.946V17ZM337.746 17H354.654V13H337.746V17ZM374.546 17H383V13H374.546V17ZM4.33333 15C4.33333 20.891 9.10896 25.6667 15 25.6667C20.891 25.6667 25.6667 20.891 25.6667 15C25.6667 9.10896 20.891 4.33333 15 4.33333C9.10896 4.33333 4.33333 9.10896 4.33333 15ZM383 17C384.105 17 385 16.1046 385 15C385 13.8954 384.105 13 383 13V17ZM23.4541 17C24.5586 17 25.4541 16.1046 25.4541 15C25.4541 13.8954 24.5586 13 23.4541 13V17ZM43.3459 13C42.2414 13 41.3459 13.8954 41.3459 15C41.3459 16.1046 42.2414 17 43.3459 17V13ZM60.2541 17C61.3586 17 62.2541 16.1046 62.2541 15C62.2541 13.8954 61.3586 13 60.2541 13V17ZM80.1459 13C79.0414 13 78.1459 13.8954 78.1459 15C78.1459 16.1046 79.0414 17 80.1459 17V13ZM97.054 17C98.1586 17 99.054 16.1046 99.054 15C99.054 13.8954 98.1586 13 97.054 13V17ZM116.946 13C115.841 13 114.946 13.8954 114.946 15C114.946 16.1046 115.841 17 116.946 17V13ZM133.854 17C134.959 17 135.854 16.1046 135.854 15C135.854 13.8954 134.959 13 133.854 13V17ZM153.746 13C152.641 13 151.746 13.8954 151.746 15C151.746 16.1046 152.641 17 153.746 17V13ZM170.654 17C171.759 17 172.654 16.1046 172.654 15C172.654 13.8954 171.759 13 170.654 13V17ZM190.546 13C189.441 13 188.546 13.8954 188.546 15C188.546 16.1046 189.441 17 190.546 17V13ZM207.454 17C208.559 17 209.454 16.1046 209.454 15C209.454 13.8954 208.559 13 207.454 13V17ZM227.346 13C226.241 13 225.346 13.8954 225.346 15C225.346 16.1046 226.241 17 227.346 17V13ZM244.254 17C245.359 17 246.254 16.1046 246.254 15C246.254 13.8954 245.359 13 244.254 13V17ZM264.146 13C263.041 13 262.146 13.8954 262.146 15C262.146 16.1046 263.041 17 264.146 17V13ZM281.054 17C282.159 17 283.054 16.1046 283.054 15C283.054 13.8954 282.159 13 281.054 13V17ZM300.946 13C299.841 13 298.946 13.8954 298.946 15C298.946 16.1046 299.841 17 300.946 17V13ZM317.854 17C318.959 17 319.854 16.1046 319.854 15C319.854 13.8954 318.959 13 317.854 13V17ZM337.746 13C336.641 13 335.746 13.8954 335.746 15C335.746 16.1046 336.641 17 337.746 17V13ZM354.654 17C355.759 17 356.654 16.1046 356.654 15C356.654 13.8954 355.759 13 354.654 13V17ZM374.546 13C373.441 13 372.546 13.8954 372.546 15C372.546 16.1046 373.441 17 374.546 17V13ZM15 17H23.4541V13H15V17ZM43.3459 17H60.2541V13H43.3459V17ZM80.1459 17H97.054V13H80.1459V17ZM116.946 17H133.854V13H116.946V17ZM153.746 17H170.654V13H153.746V17ZM190.546 17H207.454V13H190.546V17ZM227.346 17H244.254V13H227.346V17ZM264.146 17H281.054V13H264.146V17ZM300.946 17H317.854V13H300.946V17ZM337.746 17H354.654V13H337.746V17ZM374.546 17H383V13H374.546V17Z" fill="black"/>
</svg>
