<svg width="100" height="101" viewBox="0 0 100 101" fill="none" xmlns="http://www.w3.org/2000/svg">
<circle cx="50" cy="50.0928" r="50" fill="#7D7DFF"/>
<g clip-path="url(#clip0_586_29934)">
<path d="M79.9278 60.4619C80.311 60.4619 80.6032 60.4619 80.9264 60.4619C80.9264 61.1408 80.9264 61.7767 80.9264 62.478C72.5079 62.478 64.0912 62.478 55.6934 62.478C53.1875 70.8775 43.4387 75.5834 34.7246 70.9462C34.3087 71.4017 33.867 71.895 33.4167 72.378C32.8237 73.0139 32.1035 73.2889 31.2218 73.2236C31.0001 73.2081 30.6753 73.4092 30.5412 73.6086C29.094 75.7347 27.6949 77.8917 26.2443 80.0161C24.3331 82.8159 20.4006 82.7248 18.7489 79.8666C17.5646 77.8178 18.1765 75.3514 20.2424 73.9541C22.3376 72.5361 24.4431 71.1353 26.5571 69.75C26.9232 69.5111 27.0796 69.2808 27.0178 68.8253C26.9164 68.0794 27.2051 67.4348 27.7414 66.9123C28.2467 66.4191 28.7674 65.943 29.2367 65.503C28.7898 64.4477 28.3893 63.5041 27.9699 62.5106C25.1014 62.5106 22.1881 62.5106 19.2318 62.5106C19.2318 61.8214 19.2318 61.17 19.2318 60.4722C19.5292 60.4584 19.8214 60.4447 20.2167 60.4258C20.2167 60.2041 20.2167 59.9789 20.2167 59.7555C20.2167 57.7394 20.2167 55.7233 20.2167 53.7089C20.2167 52.5161 20.5106 52.2153 21.681 52.2153C23.869 52.2136 26.057 52.205 28.2432 52.2239C28.654 52.2273 28.886 52.1242 29.0889 51.7375C30.6804 48.7039 33.0643 46.5039 36.2131 45.1547C36.5981 44.9897 36.7064 44.792 36.6978 44.3967C36.672 43.3036 36.684 42.2088 36.6909 41.1156C36.696 40.2322 37.0587 39.8661 37.9439 39.8644C40.5392 39.8592 43.1345 39.8592 45.7298 39.8644C46.6115 39.8661 46.9776 40.2356 46.9845 41.1173C46.9914 42.1898 47.0085 43.2623 46.9759 44.3331C46.9621 44.78 47.1048 44.9862 47.5242 45.177C51.9929 47.2069 54.8667 50.598 55.9014 55.4053C56.2073 56.825 56.0835 58.3375 56.1506 59.807C56.1592 59.9961 56.1351 60.1852 56.1231 60.412C56.5046 60.412 56.8587 60.412 57.2815 60.412C57.2815 60.1473 57.2815 59.8981 57.2815 59.6472C57.2815 51.1548 57.2815 42.6642 57.2815 34.1719C57.2815 32.9413 57.5651 32.6577 58.7889 32.6577C61.2759 32.6577 63.7646 32.6559 66.2517 32.6594C67.2193 32.6611 67.5734 33.0117 67.5734 33.9742C67.5768 37.2759 67.5751 40.5777 67.5751 43.9309C66.9031 43.9309 66.2534 43.9309 65.5315 43.9309C65.5315 40.8905 65.5315 37.8397 65.5315 34.7528C63.4535 34.7528 61.446 34.7528 59.3887 34.7528C59.3887 43.2864 59.3887 51.8286 59.3887 60.412C61.4048 60.412 63.4278 60.412 65.4989 60.412C65.4989 55.9862 65.4989 51.5759 65.4989 47.1192C66.1949 47.1192 66.8464 47.1192 67.5682 47.1192C67.5682 51.5416 67.5682 55.9656 67.5682 60.4223C68.2729 60.4223 68.9089 60.4223 69.6359 60.4223C69.6359 60.1748 69.6359 59.9273 69.6359 59.6798C69.6359 52.1964 69.6359 44.7113 69.6359 37.2278C69.6359 36.0453 69.9315 35.7497 71.1157 35.7497C73.6028 35.7497 76.0915 35.748 78.5785 35.7497C79.5857 35.7514 79.9295 36.0934 79.9295 37.1006C79.9312 44.6064 79.9312 52.1105 79.9312 59.6163C79.9278 59.862 79.9278 60.1164 79.9278 60.4619ZM41.8489 70.74C48.6517 70.7348 54.1964 65.1798 54.1895 58.3736C54.1826 51.5691 48.631 46.0295 41.8214 46.0364C35.0151 46.0416 29.4773 51.5931 29.4824 58.4011C29.4859 65.2039 35.0409 70.7452 41.8489 70.74ZM71.7345 37.8294C71.7345 45.3867 71.7345 52.8977 71.7345 60.3948C73.8004 60.3948 75.8234 60.3948 77.836 60.3948C77.836 52.8495 77.836 45.3541 77.836 37.8294C75.7976 37.8294 73.7918 37.8294 71.7345 37.8294ZM22.7089 80.0006C23.441 79.9645 24.0942 79.5503 24.5771 78.8198C26.0071 76.6577 27.4337 74.4938 28.8998 72.3556C29.192 71.9294 29.0218 71.742 28.752 71.4516C28.4564 71.1336 28.2037 70.9978 27.8514 71.3467C27.7465 71.4498 27.6039 71.5152 27.4801 71.5977C25.4124 72.9761 23.3396 74.3459 21.2806 75.7381C20.3507 76.3672 20.0121 77.3761 20.3335 78.3781C20.6464 79.3613 21.5401 80.0144 22.7089 80.0006ZM22.3204 54.2933C22.3204 56.3695 22.3204 58.3908 22.3204 60.4C24.0907 60.4 25.8146 60.4 27.5884 60.4C27.2395 58.3134 27.4715 56.3077 28.0095 54.2933C26.0845 54.2933 24.2248 54.2933 22.3204 54.2933ZM44.9014 41.9613C42.8199 41.9613 40.8004 41.9613 38.7964 41.9613C38.7964 42.7588 38.7964 43.5116 38.7964 44.3073C40.8537 43.8605 42.8664 43.8828 44.9014 44.3022C44.9014 43.4841 44.9014 42.7433 44.9014 41.9613ZM32.9337 70.0302C31.9695 69.0608 31.1187 68.2048 30.1906 67.2733C29.9568 67.5328 29.6234 67.9195 29.2676 68.2873C29.0115 68.552 28.9806 68.7892 29.2521 69.0573C29.9053 69.7036 30.5378 70.3722 31.2167 70.9892C31.3387 71.1009 31.7065 71.1061 31.844 71.003C32.2857 70.6747 32.6707 70.2725 32.9337 70.0302Z" fill="white"/>
<path d="M46.976 34.0518C48.308 32.7404 49.8171 32.3073 51.5891 32.9432C51.7232 32.9913 51.9827 32.9415 52.0704 32.8401C54.3976 30.1485 56.7093 27.4449 59.0313 24.7345C58.0001 22.9487 57.9966 21.2179 59.3562 19.6487C60.4613 18.3716 61.9257 17.9299 63.5499 18.4095C65.4491 18.9698 66.3876 20.3654 66.5749 22.3282C67.998 22.684 69.4126 23.0174 70.8134 23.4024C71.2448 23.521 71.3255 23.2305 71.4974 23.0037C72.6129 21.5307 74.4279 20.967 76.138 21.5668C77.8173 22.1546 78.9224 23.7307 78.9001 25.5079C78.8743 27.567 77.2673 29.3218 75.203 29.5452C73.1543 29.767 71.1829 28.3799 70.8013 26.3312C70.6707 25.6299 70.394 25.348 69.7202 25.2191C68.6494 25.0146 67.5976 24.7104 66.5405 24.4354C66.1951 24.346 65.9888 24.3924 65.7499 24.7241C64.6259 26.2934 62.8676 26.8348 61.0337 26.1988C60.714 26.0871 60.5438 26.1266 60.329 26.3793C58.1479 28.9437 55.9565 31.4995 53.7582 34.0484C53.5519 34.289 53.4918 34.4557 53.6534 34.7702C54.5437 36.501 54.2927 38.3298 53.0226 39.6377C51.8074 40.8907 49.9116 41.2362 48.339 40.4954C46.6632 39.7048 45.7935 38.0634 46.0101 36.104C46.0152 36.0627 46.0101 36.0198 46.0101 35.8926C44.3102 35.0401 42.5777 34.1721 40.8212 33.2904C40.1182 34.0226 39.3069 34.5588 38.3118 34.6448C37.7068 34.6963 37.076 34.6087 36.4779 34.4832C36.129 34.4093 35.9451 34.4402 35.7234 34.7204C33.4821 37.5409 31.234 40.3545 28.9687 43.156C28.6988 43.4895 28.7487 43.7095 28.9412 44.048C29.8332 45.619 29.6046 47.4855 28.3912 48.8176C27.2396 50.0826 25.3782 50.4951 23.7935 49.8368C22.1607 49.1579 21.1398 47.5113 21.2549 45.741C21.4234 43.1509 23.9894 41.3513 26.5023 42.0955C26.9113 42.2159 27.1365 42.197 27.4149 41.8446C29.6218 39.0516 31.8476 36.2759 34.0819 33.5052C34.3277 33.201 34.3844 32.9896 34.1679 32.6166C33.2484 31.0423 33.4615 29.1791 34.6594 27.8454C35.811 26.5632 37.6501 26.1301 39.2451 26.7695C40.8813 27.4243 41.9487 29.0571 41.8095 30.836C41.7682 31.3671 41.9384 31.5716 42.3818 31.783C43.8324 32.4723 45.259 33.2113 46.6941 33.9315C46.768 33.9676 46.8488 33.9968 46.976 34.0518ZM64.4832 22.3351C64.4712 21.2196 63.5362 20.2984 62.419 20.3018C61.3018 20.3052 60.3737 21.2316 60.3702 22.3488C60.3651 23.4918 61.3224 24.4354 62.4654 24.4148C63.5791 24.3959 64.4935 23.4523 64.4832 22.3351ZM76.8376 25.434C76.8307 24.3168 75.9026 23.3921 74.7837 23.3904C73.6648 23.3887 72.7332 24.3082 72.7229 25.4271C72.7126 26.5701 73.6648 27.5188 74.8077 27.5051C75.9232 27.4896 76.8427 26.5495 76.8376 25.434ZM39.7744 30.5885C39.771 29.4713 38.8446 28.5432 37.7274 28.538C36.6068 28.5329 35.6735 29.4473 35.6615 30.5679C35.6477 31.7126 36.5965 32.663 37.7394 32.651C38.8549 32.639 39.7762 31.704 39.7744 30.5885ZM50.0818 34.7135C48.9612 34.7066 48.0279 35.6227 48.0141 36.7416C48.0004 37.8605 48.9113 38.8041 50.0268 38.8265C51.168 38.8505 52.1305 37.9069 52.1271 36.764C52.1254 35.6485 51.199 34.7187 50.0818 34.7135ZM27.4201 46.0315C27.4184 44.9143 26.4937 43.9845 25.3765 43.9776C24.2541 43.9707 23.3209 44.8834 23.3071 46.004C23.2916 47.147 24.2387 48.1009 25.3816 48.0905C26.4971 48.082 27.4201 47.1487 27.4201 46.0315Z" fill="white"/>
<path d="M41.8538 48.0938C47.536 48.0989 52.1508 52.743 52.1319 58.4355C52.113 64.0833 47.4793 68.6878 41.8194 68.6809C36.1372 68.6741 31.5258 64.0317 31.543 58.3375C31.5602 52.6863 36.1888 48.0886 41.8538 48.0938ZM45.8946 60.4155C45.9221 60.3313 45.9461 60.2917 45.9461 60.2522C45.9496 57.3784 45.9616 54.5064 45.9358 51.6327C45.9341 51.4316 45.7021 51.1428 45.5044 51.0448C43.081 49.8503 40.6438 49.8589 38.198 51.0036C37.8371 51.172 37.7047 51.38 37.7099 51.7822C37.7305 53.8395 37.7202 55.8986 37.7202 57.9577C37.7202 58.7672 37.7202 59.575 37.7202 60.4155C40.4754 60.4155 43.1686 60.4155 45.8946 60.4155ZM48.9454 62.5536C44.1586 62.5536 39.4888 62.5536 34.7296 62.5536C36.4174 65.1369 38.6947 66.56 41.7043 66.603C44.8221 66.6494 47.1888 65.2245 48.9454 62.5536ZM35.6268 53.1159C33.9269 54.668 33.1105 58.2 33.9166 60.4052C34.4838 60.4052 35.051 60.4052 35.6268 60.4052C35.6268 57.9577 35.6268 55.5531 35.6268 53.1159ZM49.7618 60.4327C50.5936 57.9972 49.6346 54.5373 48.0654 53.1503C48.0654 55.5738 48.0654 57.9989 48.0654 60.4327C48.6497 60.4327 49.1825 60.4327 49.7618 60.4327Z" fill="white"/>
</g>
<defs>
<clipPath id="clip0_586_29934">
<rect width="66" height="66" fill="white" transform="translate(17 17.0928)"/>
</clipPath>
</defs>
</svg>
