<svg width="100" height="101" viewBox="0 0 100 101" fill="none" xmlns="http://www.w3.org/2000/svg">
<circle cx="50" cy="50.0928" r="50" fill="#7D7DFF"/>
<g clip-path="url(#clip0_586_29974)">
<path d="M82.2253 85.0928C69.443 85.0928 56.6607 85.0928 43.8785 85.0928C42.535 84.5751 41.9571 83.5981 42.0792 82.1652C42.1266 81.6092 42.0865 81.046 42.0865 80.4408C41.7201 80.4408 41.4503 80.4408 41.1805 80.4408C33.8141 80.4408 26.4459 80.4444 19.0795 80.4389C16.0972 80.4371 14.1321 78.4611 14.1303 75.4697C14.1285 58.9814 14.1285 42.4931 14.1303 26.0048C14.1303 22.9915 16.0571 21.0574 19.0704 21.0465C21.185 21.0374 23.2995 21.041 25.4141 21.0483C25.7495 21.0501 25.9792 21.0155 26.167 20.6509C26.8305 19.3731 27.9097 18.7168 29.3644 18.7132C30.4107 18.7113 31.4571 18.7405 32.5016 18.6931C32.7915 18.6803 33.1615 18.5199 33.3438 18.3012C36.791 14.1595 42.7063 14.1668 46.1626 18.3176C46.3339 18.5236 46.6766 18.684 46.9482 18.6949C48.0602 18.7387 49.1758 18.6986 50.2896 18.7223C51.6295 18.7514 52.6467 19.3785 53.2719 20.5507C53.4962 20.9718 53.7568 21.0538 54.1798 21.0501C56.2943 21.0337 58.4126 20.979 60.5217 21.0738C61.3967 21.1121 62.3464 21.329 63.1066 21.7465C64.7436 22.647 65.3743 24.1837 65.3706 26.0322C65.3561 32.4908 65.3652 38.9494 65.3652 45.4079C65.3652 45.6686 65.3652 45.9293 65.3652 46.2447C67.6001 43.997 69.7566 41.8277 71.9131 39.6585C71.8803 39.6475 71.8001 39.6165 71.718 39.591C69.7693 39.0077 68.6355 37.4637 68.8852 35.7356C69.1568 33.8598 70.6261 32.6785 72.6969 32.6767C75.198 32.6749 77.699 32.6731 80.2001 32.6803C80.5391 32.6803 80.8855 32.6931 81.2154 32.7624C82.7412 33.0832 83.5579 34.1277 83.999 35.5423C83.999 38.6814 83.999 41.8204 83.999 44.9595C83.9115 45.1619 83.8186 45.3642 83.7365 45.5684C82.9636 47.4788 80.8217 48.3447 79.0079 47.4697C77.8558 46.9137 77.2451 45.9494 76.9972 44.6569C76.7912 44.8465 76.6235 44.9905 76.4667 45.1473C73.3623 48.2499 70.2652 51.3616 67.148 54.4514C66.7032 54.8926 66.1527 55.2262 65.6587 55.6199C65.5456 55.7111 65.3852 55.8405 65.3816 55.9553C65.3615 57.1038 65.3688 58.254 65.3688 59.4171C65.6295 59.4316 65.7863 59.4462 65.943 59.4499C68.074 59.479 68.8561 60.2684 68.8561 62.3921C68.8561 67.3504 68.8561 72.3087 68.8561 77.2689C68.8561 77.5314 68.8561 77.7957 68.8561 78.0728C69.6709 78.0728 70.3891 78.0728 71.1821 78.0728C71.1821 77.7957 71.1821 77.5514 71.1821 77.3072C71.1821 74.4178 71.1821 71.5303 71.1821 68.641C71.1821 64.4793 71.1785 60.3158 71.1857 56.154C71.1876 54.703 72.0699 53.6895 73.4316 53.6676C75.8196 53.6293 78.2076 53.6329 80.5956 53.6676C81.8407 53.6858 82.7139 54.579 82.8141 55.8186C82.836 56.0902 82.8324 56.3637 82.8324 56.6371C82.8324 63.6663 82.8305 70.6936 82.8415 77.7228C82.8415 77.9962 82.898 78.3079 83.0347 78.5376C83.3191 79.0152 83.6745 79.4491 84.0027 79.9012C84.0027 81.0387 84.0027 82.1762 84.0027 83.3137C83.6618 84.165 83.0712 84.7556 82.2253 85.0928ZM58.3688 28.0319C56.741 28.0319 55.2006 28.0264 53.6584 28.041C53.5253 28.0428 53.3485 28.1322 53.2665 28.2379C52.6777 28.9962 51.8865 29.1876 50.9714 29.1858C45.3331 29.1712 39.693 29.1785 34.0548 29.1785C32.1443 29.1785 30.2339 29.1694 28.3253 29.1822C27.5032 29.1876 26.8123 28.9397 26.28 28.2908C26.1889 28.1796 26.0376 28.0465 25.9118 28.0447C24.3295 28.0283 22.7472 28.0356 21.1503 28.0356C21.1503 43.2095 21.1503 58.296 21.1503 73.4061C28.5222 73.4061 35.8485 73.4061 43.2313 73.4061C43.2313 72.2869 43.2204 71.2204 43.2331 70.154C43.2532 68.559 44.2011 67.6293 45.8053 67.6238C47.9199 67.6184 50.0344 67.622 52.149 67.622C54.0084 67.6238 54.8943 68.5134 54.898 70.3874C54.8998 71.3827 54.898 72.378 54.898 73.4025C55.7055 73.4025 56.4402 73.4025 57.2277 73.4025C57.2277 73.1017 57.2277 72.8556 57.2277 72.6095C57.2277 69.1077 57.2076 65.604 57.2477 62.1022C57.2532 61.5426 57.3553 60.8043 57.7126 60.4671C58.3943 59.8218 58.3798 59.109 58.3725 58.3215C58.3597 56.9233 58.3688 55.5233 58.3688 53.9793C58.079 54.2491 57.8967 54.4077 57.7271 54.5772C54.9436 57.3572 52.1545 60.1316 49.3818 62.9225C48.4048 63.9069 47.2581 64.3262 45.911 63.9999C43.2113 63.3436 42.3636 60.0915 44.3725 58.0699C48.5542 53.859 52.7597 49.6699 56.9615 45.479C57.2167 45.2257 57.5011 44.9613 57.8256 44.8283C58.2923 44.6387 58.3798 44.347 58.3798 43.8876C58.3652 38.8382 58.3706 33.7905 58.3706 28.741C58.3688 28.5405 58.3688 28.3382 58.3688 28.0319ZM43.1967 75.7869C42.8503 75.7869 42.5787 75.7869 42.3089 75.7869C35.3964 75.7869 28.4857 75.7869 21.5732 75.7869C19.6665 75.7869 18.7805 74.8991 18.7805 72.9905C18.7805 58.1629 18.7933 43.3371 18.7587 28.5095C18.755 26.9965 19.5771 25.5673 21.6115 25.6895C22.9641 25.7697 24.3258 25.704 25.7113 25.704C25.7113 24.8928 25.7113 24.16 25.7113 23.3762C23.5055 23.3762 21.349 23.3744 19.1925 23.3762C17.3058 23.378 16.4527 24.2366 16.4527 26.1306C16.4527 42.5259 16.4527 58.9231 16.4527 75.3184C16.4527 77.2324 17.3313 78.1129 19.2436 78.1129C26.9745 78.1147 34.7037 78.1129 42.4347 78.1129C42.6772 78.1129 42.9196 78.1129 43.1949 78.1129C43.1967 77.3108 43.1967 76.5944 43.1967 75.7869ZM73.5464 56.0173C73.5464 63.4129 73.5464 70.7246 73.5464 78.071C75.8652 78.071 78.1456 78.071 80.4443 78.071C80.4443 70.6991 80.4443 63.371 80.4443 56.0173C78.1274 56.0173 75.8633 56.0173 73.5464 56.0173ZM28.1048 26.7941C35.9141 26.7941 43.6305 26.7941 51.3889 26.7941C51.3889 25.2902 51.3962 23.8374 51.387 22.3845C51.3816 21.4712 50.9696 21.0574 50.049 21.0501C48.7529 21.0374 47.4568 21.0319 46.1607 21.052C45.4826 21.0629 45.0196 20.8168 44.6368 20.2371C42.2597 16.6314 37.2266 16.6332 34.8623 20.2371C34.4813 20.8186 34.0146 21.0629 33.3365 21.052C32.0186 21.0301 30.6988 21.0356 29.3808 21.0501C28.5988 21.0593 28.1357 21.4402 28.1175 22.1803C28.0774 23.7007 28.1048 25.221 28.1048 26.7941ZM76.4357 35.0064C75.1615 35.0064 73.8891 35.0009 72.6149 35.0082C71.76 35.0119 71.204 35.4621 71.1876 36.1421C71.173 36.8238 71.7764 37.3215 72.6441 37.3306C73.304 37.3379 73.9639 37.3415 74.6219 37.3288C75.2162 37.3178 75.7029 37.4856 75.949 38.0725C76.186 38.6395 75.9527 39.0788 75.5535 39.478C72.0936 42.9324 68.6373 46.3905 65.1738 49.8413C64.4993 50.5139 63.8995 50.5085 63.2214 49.8449C62.3756 49.0173 61.5425 48.1788 60.7058 47.3439C59.7761 46.4197 59.304 46.4178 58.3743 47.3457C54.3219 51.3981 50.2696 55.4504 46.2191 59.5027C46.0915 59.6322 45.9548 59.7561 45.8454 59.8983C45.4607 60.3978 45.4954 61.0267 45.9183 61.4478C46.3376 61.8634 46.9792 61.8962 47.466 61.5116C47.6428 61.3712 47.7995 61.2017 47.96 61.0413C51.4363 57.5704 54.9107 54.0978 58.3852 50.627C59.2857 49.7283 59.7943 49.721 60.6803 50.5996C61.4404 51.3525 62.1951 52.1072 62.9516 52.8619C63.9834 53.8918 64.4245 53.8954 65.4399 52.8801C69.3464 48.9717 73.2529 45.0634 77.1576 41.1533C77.5696 40.7413 78.0089 40.4587 78.6123 40.7194C79.1993 40.9728 79.3579 41.4613 79.3506 42.052C79.3397 42.7793 79.2777 43.5176 79.3779 44.2303C79.4326 44.6259 79.686 45.1163 80.005 45.3277C80.7743 45.8363 81.6639 45.14 81.6693 44.0626C81.6821 41.516 81.6785 38.9676 81.6712 36.421C81.6693 35.4311 81.2428 35.01 80.2548 35.0046C78.9824 35.0009 77.7081 35.0064 76.4357 35.0064ZM59.592 78.0619C61.8907 78.0619 64.1876 78.0619 66.4753 78.0619C66.4753 72.6241 66.4753 67.2283 66.4753 61.827C64.1566 61.827 61.8925 61.827 59.592 61.827C59.592 67.2465 59.592 72.6277 59.592 78.0619ZM44.4454 82.7158C56.8868 82.7158 69.2626 82.7158 81.6383 82.7158C81.6383 81.9447 81.6383 81.2264 81.6383 80.4809C69.2261 80.4809 56.8503 80.4809 44.4454 80.4809C44.4454 81.2392 44.4454 81.9574 44.4454 82.7158ZM53.735 25.704C55.1842 25.704 56.566 25.7022 57.9477 25.704C59.8508 25.7059 60.6949 26.5444 60.6967 28.4402C60.6985 33.4204 60.7058 38.4025 60.6876 43.3827C60.6857 44.0936 60.704 44.6496 61.5097 44.9996C62.0511 45.2348 62.454 45.7853 62.9826 46.2483C63.0045 46.0332 63.0264 45.9257 63.0264 45.8163C63.0282 39.1298 63.0355 32.4434 63.0209 25.7569C63.0173 24.3004 62.0675 23.3889 60.6055 23.378C58.491 23.3634 56.3764 23.3725 54.2618 23.3762C54.0904 23.3762 53.9191 23.4145 53.735 23.4363C53.735 24.191 53.735 24.8928 53.735 25.704ZM45.6102 78.0637C47.9399 78.0637 50.2204 78.0637 52.5191 78.0637C52.5191 75.3421 52.5191 72.6697 52.5191 69.9936C50.1894 69.9936 47.9071 69.9936 45.6102 69.9936C45.6102 72.7134 45.6102 75.384 45.6102 78.0637ZM60.7459 54.1324C60.7459 55.8915 60.7459 57.647 60.7459 59.3988C61.5298 59.3988 62.2626 59.3988 63.0282 59.3988C63.0282 58.2723 63.0355 57.2059 63.0191 56.1395C63.0173 55.9809 62.9462 55.7676 62.8313 55.6764C62.1605 55.1533 61.4641 54.6592 60.7459 54.1324ZM57.1894 75.8251C56.4074 75.8251 55.6891 75.8251 54.9527 75.8251C54.9527 76.5962 54.9527 77.329 54.9527 78.0746C55.7219 78.0746 56.4365 78.0746 57.1894 78.0746C57.1894 77.3181 57.1894 76.6035 57.1894 75.8251Z" fill="white"/>
<path d="M46.1517 37.3323C43.7217 37.3323 41.2918 37.336 38.8618 37.3305C37.9321 37.3287 37.4308 36.9058 37.4436 36.1529C37.4545 35.431 37.954 35.0081 38.8363 35.0081C43.7199 35.0045 48.6017 35.0045 53.4853 35.0081C54.342 35.0081 54.8798 35.4638 54.8889 36.1602C54.898 36.8584 54.3566 37.3287 53.5108 37.3305C51.0571 37.336 48.6035 37.3323 46.1517 37.3323Z" fill="white"/>
<path d="M26.8918 53.0495C28.4431 51.1883 29.9671 49.3563 31.4929 47.5261C31.6387 47.3511 31.7772 47.1706 31.9413 47.0138C32.397 46.5818 33.0259 46.5508 33.489 46.9227C33.9757 47.3146 34.0814 47.9708 33.6895 48.5068C33.314 49.019 32.8892 49.4948 32.4827 49.9833C31.0007 51.7625 29.5205 53.5453 28.0311 55.319C27.3239 56.163 26.6877 56.1904 25.9111 55.4302C25.6358 55.1604 25.3587 54.8888 25.0926 54.6099C24.5275 54.0193 24.4801 53.3594 24.9559 52.8599C25.4226 52.3714 26.0022 52.3787 26.6548 52.8818C26.7077 52.9237 26.7642 52.9602 26.8918 53.0495Z" fill="white"/>
<path d="M26.8903 65.8628C28.4416 63.9979 29.9674 62.1677 31.4913 60.3357C32.257 59.4151 32.8622 59.231 33.4856 59.7359C34.1091 60.2409 34.0562 60.9026 33.3088 61.7995C31.5661 63.894 29.8234 65.9904 28.0734 68.0794C27.3078 68.9945 26.6953 69.0182 25.8567 68.1906C25.5979 67.9354 25.3372 67.682 25.0874 67.4177C24.5424 66.8453 24.4822 66.2164 24.9124 65.7187C25.3718 65.1864 25.9861 65.1792 26.657 65.6969C26.7117 65.7388 26.7682 65.7771 26.8903 65.8628Z" fill="white"/>
<path d="M26.8843 40.2472C28.4957 38.3131 30.0598 36.4227 31.6403 34.5469C31.8517 34.2954 32.1233 34.042 32.4205 33.929C32.9054 33.7449 33.3739 33.8907 33.6892 34.3282C34.0374 34.8131 34.0046 35.3162 33.6327 35.7738C32.8871 36.6907 32.1252 37.5949 31.3687 38.5027C30.2494 39.848 29.1319 41.1951 28.0072 42.5368C27.3273 43.348 26.6856 43.3753 25.9345 42.6389C25.6429 42.3527 25.3512 42.0647 25.0687 41.7693C24.5291 41.2042 24.4726 40.5644 24.9137 40.0704C25.3694 39.5581 25.971 39.5454 26.609 40.0321C26.6801 40.085 26.7512 40.1415 26.8843 40.2472Z" fill="white"/>
<path d="M43.2383 41.988C41.7617 41.988 40.2852 41.9935 38.8086 41.9862C37.9209 41.9807 37.4378 41.5614 37.4414 40.8268C37.4451 40.1031 37.9446 39.6656 38.8214 39.662C41.7745 39.6547 44.7276 39.6547 47.6807 39.662C48.5302 39.6638 49.0643 40.1377 49.0607 40.8377C49.0571 41.545 48.5412 41.9807 47.668 41.9844C46.1914 41.9917 44.7149 41.988 43.2383 41.988Z" fill="white"/>
<path d="M43.1965 50.1512C41.7418 50.1512 40.289 50.1548 38.8343 50.1493C37.9484 50.1457 37.4525 49.7319 37.4416 49.0064C37.4306 48.2535 37.9338 47.8288 38.8616 47.827C41.7929 47.8233 44.7241 47.8233 47.6536 47.827C48.5213 47.8288 49.0481 48.2626 49.0609 48.9645C49.0736 49.6863 48.5249 50.1457 47.6262 50.1493C46.1497 50.1548 44.6731 50.1512 43.1965 50.1512Z" fill="white"/>
<path d="M40.2764 54.7995C39.7077 54.7995 39.1389 54.8195 38.572 54.794C37.892 54.7648 37.4564 54.3127 37.4418 53.6747C37.4272 53.0403 37.8519 52.5172 38.5118 52.4953C39.7149 52.457 40.9217 52.4588 42.1248 52.4916C42.7902 52.5099 43.2241 53.0166 43.2222 53.6474C43.2186 54.3109 42.7665 54.7685 42.0483 54.794C41.4595 54.8177 40.867 54.7995 40.2764 54.7995Z" fill="white"/>
<path d="M40.8975 21.6243C40.903 22.7982 40.5348 23.3579 39.7564 23.3652C38.9762 23.3706 38.5751 22.7873 38.5769 21.6425C38.5769 21.3928 38.5624 21.1394 38.6006 20.8951C38.6954 20.2844 39.1986 19.8579 39.7746 19.8706C40.3871 19.8852 40.8501 20.3501 40.8957 21.0118C40.9085 21.216 40.8975 21.4201 40.8975 21.6243Z" fill="white"/>
</g>
<defs>
<clipPath id="clip0_586_29974">
<rect width="70" height="70" fill="white" transform="translate(14 15.0928)"/>
</clipPath>
</defs>
</svg>
