<svg width="100" height="101" viewBox="0 0 100 101" fill="none" xmlns="http://www.w3.org/2000/svg">
<circle cx="50" cy="50.0928" r="50" fill="#7D7DFF"/>
<g clip-path="url(#clip0_586_29945)">
<path d="M62.1358 72.6569C62.1905 75.0996 62.2124 75.1616 60.189 75.8908C58.5502 76.4814 56.8494 76.9025 55.1741 77.3929C54.5707 77.5697 54.1095 77.3546 53.7668 76.8423C53.3494 76.2189 52.9356 75.5936 52.4999 74.9811C51.4408 73.4918 48.69 73.4918 47.6254 74.9793C47.1897 75.59 46.7778 76.2171 46.3567 76.8387C46.0121 77.3455 45.5473 77.5824 44.9476 77.3929C42.9168 76.7512 40.8916 76.0949 38.8663 75.4387C38.1772 75.2163 37.9293 74.7132 37.9567 74.0168C37.9858 73.2895 38.0041 72.5621 37.9986 71.833C37.9822 69.7147 35.7528 68.147 33.7549 68.8379C33.0476 69.0822 32.3348 69.3173 31.633 69.5762C31.097 69.7749 30.6213 69.6874 30.2858 69.2389C28.9679 67.478 27.6663 65.7043 26.3775 63.9197C26.0439 63.4585 26.1442 62.979 26.4741 62.5288C26.9991 61.8142 27.5041 61.085 28.0272 60.3686C28.565 59.634 28.6835 58.8392 28.4119 57.9788C28.3153 57.6762 28.2132 57.3754 28.1275 57.0692C27.8759 56.1613 27.3127 55.5817 26.3976 55.3155C25.5918 55.0803 24.8098 54.7632 24.0004 54.5408C23.3041 54.3494 22.9431 53.921 22.9377 53.2283C22.9213 51.1629 22.9213 49.0975 22.9413 47.0322C22.9468 46.3668 23.3059 45.953 23.9713 45.7652C24.8007 45.5301 25.6082 45.222 26.434 44.9705C27.2871 44.7116 27.8413 44.1738 28.0983 43.3207C28.2022 42.9725 28.3171 42.628 28.421 42.2798C28.6726 41.4431 28.565 40.6665 28.0437 39.952C27.5205 39.2356 27.0192 38.5046 26.4905 37.7918C26.1223 37.2942 26.0603 36.7929 26.4304 36.2843C27.6845 34.5598 28.9442 32.8389 30.2147 31.1272C30.6049 30.6022 31.1244 30.5165 31.7332 30.7517C32.4733 31.0379 33.2335 31.2767 33.9791 31.5501C34.7684 31.84 35.4593 31.6832 36.1739 31.2475C37.5666 30.4017 38.1098 29.2551 38.0114 27.6054C37.8601 25.066 37.6705 25.2702 40.1606 24.3277C41.7246 23.7371 43.3707 23.3561 44.984 22.8968C45.5564 22.7327 46.0067 22.9423 46.3366 23.4309C46.7577 24.0525 47.2645 24.6304 47.5871 25.2994C48.2926 26.7668 51.84 26.7285 52.5364 25.2975C52.8608 24.6304 53.3658 24.0507 53.7869 23.4309C54.0986 22.9697 54.5325 22.7218 55.0739 22.8895C57.1502 23.533 59.2192 24.2001 61.2882 24.8728C61.9408 25.0843 62.1905 25.5801 62.1668 26.2473C62.1395 26.9965 62.1176 27.7475 62.1249 28.4986C62.1486 30.584 64.3744 32.1517 66.334 31.4736C67.0632 31.222 67.796 30.9759 68.5215 30.7134C69.0319 30.5293 69.4968 30.6095 69.814 31.0324C71.1465 32.8116 72.4627 34.6035 73.7624 36.4064C74.0778 36.8421 73.9812 37.3124 73.6713 37.7408C73.139 38.479 72.6176 39.2246 72.0817 39.9574C71.5585 40.672 71.4491 41.4486 71.7025 42.2853C71.8137 42.6554 71.9286 43.0236 72.047 43.39C72.3041 44.183 72.8309 44.7007 73.6275 44.954C74.4715 45.222 75.3064 45.5192 76.1559 45.7652C76.8158 45.9548 77.1785 46.3686 77.184 47.0358C77.2004 49.1231 77.2004 51.2121 77.1804 53.3012C77.1749 53.9392 76.8194 54.3421 76.1905 54.528C75.3848 54.7668 74.5991 55.0731 73.7916 55.2991C72.82 55.5689 72.2312 56.1777 71.9759 57.1384C71.8939 57.4447 71.7791 57.7436 71.6916 58.0481C71.4601 58.8611 71.5567 59.6194 72.0634 60.3158C72.5994 61.0504 73.1189 61.7978 73.6549 62.5324C74.003 63.0082 74.0632 63.5004 73.7132 63.9835C72.4481 65.728 71.1757 67.4671 69.8887 69.1952C69.5187 69.691 69.0155 69.7822 68.4267 69.5561C67.6429 69.2553 66.8408 69.002 66.0496 68.7194C65.3022 68.4533 64.6515 68.6319 63.9825 69.0293C62.4694 69.9262 61.8077 71.1822 62.1358 72.6569ZM59.9447 72.327C59.6038 69.177 62.2033 67.0806 64.4746 66.5191C65.14 66.3551 65.9075 66.5246 66.6148 66.6322C67.1015 66.7069 67.5845 66.8929 68.0293 67.1098C68.5233 67.3504 68.8168 67.2046 69.1085 66.7962C69.5715 66.1491 70.091 65.5439 70.5486 64.8949C71.595 63.4147 71.6569 63.3509 70.514 61.9418C68.6674 59.6705 69.3655 56.6918 70.822 54.7522C71.3051 54.1087 72.1674 53.7205 72.9093 53.3103C73.396 53.0405 73.972 52.9202 74.5207 52.7744C74.9017 52.6741 75.0913 52.5046 75.0913 52.0817C75.0913 51.0371 75.1642 49.9908 75.1442 48.9462C75.1205 47.7212 75.0931 47.7212 73.9155 47.3366C73.5491 47.2163 73.1754 47.1142 72.8127 46.9848C71.4437 46.4962 70.5067 45.5629 70.0163 44.1957C69.8395 43.7054 69.6918 43.2022 69.5588 42.6991C69.2088 41.3793 69.3728 40.127 70.122 38.9767C70.4812 38.4244 70.8585 37.883 71.265 37.3634C71.4983 37.0663 71.5312 36.8311 71.2996 36.5231C70.5249 35.4858 69.7593 34.4431 69.0064 33.3895C68.7658 33.0522 68.5215 33.0285 68.1405 33.158C67.3056 33.4405 66.4616 33.7613 65.5939 33.878C63.9843 34.0949 62.7903 33.1652 61.6364 32.2119C60.6812 31.4225 60.0996 30.4199 59.9939 29.1804C59.9374 28.5259 59.9392 27.8624 59.972 27.2061C59.9939 26.7905 59.8499 26.5772 59.4671 26.4533C58.583 26.1671 57.7116 25.8335 56.822 25.5637C55.3036 25.1007 55.2853 25.1061 54.4194 26.3949C53.7176 27.4395 52.8189 28.2233 51.5611 28.4348C48.989 28.8668 46.7468 28.4111 45.3632 25.8955C45.2976 25.777 45.1973 25.6767 45.1371 25.5546C44.964 25.2064 44.727 25.1517 44.3588 25.2738C43.4765 25.5637 42.5668 25.7788 41.6882 26.0759C40.1533 26.5955 40.0968 26.6155 40.1934 28.2142C40.3684 31.1199 38.0843 33.0468 35.8767 33.7304C35.1676 33.9491 34.3108 33.7869 33.5397 33.6793C32.9892 33.6027 32.4752 33.2856 31.9265 33.158C31.7022 33.1051 31.3213 33.1853 31.1937 33.3475C30.3679 34.4012 29.5767 35.484 28.8147 36.585C28.7035 36.7436 28.7272 37.1064 28.8348 37.285C29.1739 37.8483 29.5676 38.3806 29.9687 38.9038C31.6621 41.1095 30.1983 45.5192 28.2424 46.5436C27.803 46.7751 27.3345 46.9593 26.8697 47.1324C26.4231 47.2983 25.9455 47.3895 25.5153 47.5845C25.3184 47.6738 25.0905 47.9254 25.0705 48.1241C24.9903 48.9134 24.9575 49.7119 24.9611 50.5067C24.9702 52.5574 24.983 52.5574 26.897 53.1736C27.1121 53.2428 27.3236 53.3285 27.5351 53.4124C28.7437 53.89 29.5804 54.7449 30.0416 55.9535C30.2512 56.504 30.4262 57.071 30.5739 57.6415C30.9111 58.9358 30.7489 60.1699 30.0179 61.302C29.6606 61.8561 29.2851 62.3994 28.8785 62.9171C28.6288 63.2343 28.5942 63.4822 28.8439 63.8158C29.5366 64.7436 30.2275 65.6751 30.871 66.6376C31.272 67.2374 31.695 67.3139 32.3457 67.0369C33.3684 66.6012 34.4312 66.1947 35.5796 66.4718C37.6504 66.9694 40.4905 69.0639 40.1843 72.183C40.1533 72.4983 40.1916 72.8228 40.1551 73.1363C40.1095 73.5246 40.2718 73.7142 40.6309 73.8309C41.6226 74.1554 42.596 74.5363 43.595 74.8353C44.8327 75.2072 44.8546 75.1908 45.5692 74.1061C46.2382 73.0871 47.0421 72.203 48.2707 71.9551C51.3752 71.3335 53.2856 71.9624 54.6236 74.2119C54.7403 74.4069 54.8916 74.5819 55.0009 74.7806C55.1723 75.0942 55.3856 75.1507 55.7301 75.0395C56.7218 74.7186 57.7371 74.4671 58.7252 74.1298C59.9775 73.7014 59.9684 73.6777 59.9447 72.327Z" fill="white"/>
<path d="M78.7972 60.7149C79.4698 60.961 80.1042 61.1943 80.9081 61.4878C80.1206 63.1047 79.4571 64.7216 78.5839 66.2182C73.3576 75.1706 65.6157 80.6321 55.4274 82.4568C40.6308 85.1055 25.4076 76.5797 19.7948 62.6052C19.5378 61.9654 19.2571 61.7466 18.6063 61.9544C18.2636 62.0638 17.8954 62.1021 17.5344 62.144C16.6376 62.2443 16.0214 61.5498 16.2967 60.6912C16.9912 58.5292 17.7003 56.3709 18.4459 54.2271C18.7685 53.2974 19.7566 53.1334 20.3836 53.9008C21.8237 55.6599 23.2456 57.4354 24.6438 59.2274C25.2618 60.0185 24.9154 60.8643 23.9292 61.0685C23.2402 61.2107 22.5456 61.3183 21.8529 61.4459C21.8128 61.4531 21.7818 61.4987 21.7454 61.5261C25.3748 71.0435 34.8667 79.356 47.0675 80.581C60.9946 81.981 74.2034 73.4607 78.7972 60.7149ZM18.9217 59.6886C19.9042 59.5281 20.8047 59.3805 21.8438 59.2091C21.1657 58.3633 20.5696 57.6196 19.8969 56.7774C19.5542 57.7982 19.2534 58.6933 18.9217 59.6886Z" fill="white"/>
<path d="M80.3796 37.7936C81.127 37.5493 81.7686 37.3197 82.4212 37.1301C83.2908 36.8767 84.0199 37.4618 83.8832 38.3514C83.5478 40.528 83.185 42.7027 82.7895 44.8702C82.6327 45.7306 81.7449 46.0715 81.0559 45.5355C79.2257 44.1118 77.4137 42.6645 75.6236 41.1915C74.8671 40.5699 75.0767 39.6056 76.01 39.2629C76.7501 38.9913 77.5048 38.7598 78.254 38.5082C74.7559 29.5249 65.5538 21.0009 53.1124 19.7267C39.1816 18.2993 25.9126 26.8178 21.328 39.5855C20.6809 39.3504 20.0337 39.1134 19.3848 38.8783C22.1775 30.3962 30.6814 20.5306 43.9504 17.973C48.9178 17.0142 53.8525 17.222 58.7342 18.5801C63.6324 19.9436 67.9819 22.3189 71.7845 25.6876C75.5689 29.04 78.4181 33.0704 80.3796 37.7936ZM81.4387 39.7496C80.4215 40.0923 79.5301 40.3949 78.5293 40.7322C79.3697 41.4048 80.1152 42.0009 80.952 42.6699C81.1233 41.64 81.271 40.7559 81.4387 39.7496Z" fill="white"/>
<path d="M31.502 50.173C31.491 39.9373 39.8254 31.5902 50.0574 31.5884C60.2931 31.5866 68.6293 39.9282 68.622 50.1639C68.6147 60.3741 60.3077 68.6939 50.1012 68.7157C39.8692 68.7376 31.5129 60.4069 31.502 50.173ZM33.6858 50.0855C33.6548 59.109 40.972 66.4918 49.979 66.5319C59.0007 66.5702 66.3889 59.2621 66.4382 50.2514C66.4874 41.1988 59.1501 33.7959 50.1103 33.7722C41.0887 33.7504 33.715 41.073 33.6858 50.0855Z" fill="white"/>
<path d="M62.0719 49.6516C62.0719 51.9029 62.0755 54.156 62.0701 56.4073C62.0682 57.4227 61.6891 57.7909 60.6591 57.7945C59.4086 57.7982 58.1581 57.8 56.9057 57.7945C55.9122 57.7909 55.5221 57.419 55.5203 56.451C55.5167 51.8792 55.5167 47.3055 55.5203 42.7336C55.5221 41.8057 55.9177 41.4211 56.8602 41.4156C58.1563 41.4083 59.4523 41.4083 60.7484 41.4156C61.6763 41.4211 62.0628 41.8148 62.0664 42.7573C62.0755 45.056 62.0719 47.3547 62.0719 49.6516ZM57.7516 43.6323C57.7516 47.6482 57.7516 51.6112 57.7516 55.5578C58.488 55.5578 59.1789 55.5578 59.8552 55.5578C59.8552 51.5565 59.8552 47.6099 59.8552 43.6323C59.1479 43.6323 58.4753 43.6323 57.7516 43.6323Z" fill="white"/>
<path d="M46.7871 51.1756C46.7871 49.4693 46.7835 47.7631 46.7889 46.0568C46.7926 45.0761 47.1718 44.6969 48.1525 44.6933C49.4486 44.6878 50.7447 44.686 52.0408 44.6951C52.9322 44.7006 53.3332 45.098 53.335 45.9894C53.3423 49.493 53.3423 52.9948 53.335 56.4985C53.3332 57.3899 52.9304 57.7873 52.0408 57.7946C50.721 57.8037 49.403 57.8037 48.0832 57.7946C47.1918 57.7891 46.7944 57.3917 46.7889 56.4985C46.7817 54.7248 46.7871 52.9511 46.7871 51.1756ZM51.0965 55.5961C51.0965 52.705 51.0965 49.8193 51.0965 46.9227C50.3874 46.9227 49.6983 46.9227 49.0202 46.9227C49.0202 49.8394 49.0202 52.7105 49.0202 55.5961C49.7275 55.5961 50.3837 55.5961 51.0965 55.5961Z" fill="white"/>
<path d="M38.0516 53.4286C38.0516 52.4041 38.0443 51.3815 38.0534 50.357C38.0607 49.4638 38.4545 49.0682 39.3477 49.0627C40.6675 49.0536 41.9854 49.0536 43.3052 49.0627C44.1966 49.0682 44.5977 49.4656 44.6013 50.357C44.6104 52.4041 44.6104 54.4513 44.6013 56.4984C44.5977 57.3898 44.1966 57.7872 43.3071 57.7945C41.9873 57.8036 40.6693 57.8036 39.3495 57.7945C38.4581 57.789 38.0625 57.3916 38.0552 56.5002C38.0443 55.4758 38.0516 54.4531 38.0516 53.4286ZM42.3683 55.5851C42.3683 54.1031 42.3683 52.6867 42.3683 51.2776C41.6446 51.2776 40.9719 51.2776 40.2755 51.2776C40.2755 52.7268 40.2755 54.1432 40.2755 55.5851C40.9865 55.5851 41.6591 55.5851 42.3683 55.5851Z" fill="white"/>
</g>
<defs>
<clipPath id="clip0_586_29945">
<rect width="70" height="70" fill="white" transform="translate(15 15.0928)"/>
</clipPath>
</defs>
</svg>
