<svg width="100" height="101" viewBox="0 0 100 101" fill="none" xmlns="http://www.w3.org/2000/svg">
<circle cx="50" cy="50.0928" r="50" fill="#7D7DFF"/>
<g clip-path="url(#clip0_586_29956)">
<path d="M32.3409 77.7674C31.074 77.7674 29.8982 77.7692 28.7224 77.7674C27.7727 77.7656 27.5831 77.5687 27.5812 76.5989C27.5794 75.4651 27.5812 74.3312 27.5812 73.0934C26.4966 73.0934 25.4612 73.0934 24.4258 73.0934C23.1917 73.0934 23.0586 72.9604 23.0586 71.7299C23.0586 54.3976 23.0586 37.0635 23.0586 19.7312C23.0586 18.5208 23.1771 18.4005 24.3784 18.4005C34.4081 18.4005 44.4378 18.4059 54.4674 18.3877C55.0891 18.3859 55.5357 18.57 55.9622 19.013C57.1453 20.2398 58.3521 21.4484 59.5898 22.6223C59.8505 22.8703 60.2844 23.058 60.6417 23.0617C63.3924 23.0981 66.145 23.0799 68.8977 23.0817C69.9404 23.0817 70.1336 23.2749 70.1336 24.3158C70.1354 31.1627 70.1336 38.0096 70.1336 44.8565C70.1336 45.1244 70.1336 45.3924 70.1336 45.7533C71.0104 45.7533 71.8216 45.7533 72.631 45.7533C73.4039 45.7533 74.1786 45.7388 74.9516 45.757C77.4562 45.8171 79.0659 47.4486 79.0695 49.957C79.0786 56.8257 79.0732 63.6963 79.0732 70.5651C79.0732 71.4528 79.0859 72.3388 79.0695 73.2265C79.024 75.5471 77.3596 77.2169 75.0409 77.2278C71.3568 77.246 67.6727 77.2424 63.9867 77.2223C63.5401 77.2205 63.3086 77.3627 63.0789 77.7401C60.3245 82.2171 54.7117 83.7484 50.0906 81.2747C49.6458 81.0377 49.3997 81.0578 49.0497 81.4041C48.0836 82.3557 47.9888 82.4304 46.9734 81.5335C46.1367 80.7934 45.424 81.0377 44.651 81.4315C44.4633 81.5281 44.3266 81.8361 44.2737 82.0713C43.8216 84.1184 43.9656 83.9216 41.9221 83.8851C41.2622 83.8723 40.6042 83.8322 39.9443 83.8213C39.3992 83.8122 39.0966 83.5624 39.0383 83.0137C39.0219 82.857 38.938 82.7002 38.9471 82.5471C39.0164 81.4515 38.3201 80.9994 37.4214 80.7333C37.2737 80.6895 37.0896 80.7388 36.9292 80.7716C36.8453 80.788 36.7724 80.8609 36.6958 80.9083C34.9312 82.0148 35.2266 82.0877 33.7573 80.5565C33.3635 80.1463 32.9935 79.7106 32.576 79.326C32.1003 78.8885 31.8815 78.4291 32.3409 77.7674ZM54.9852 59.8882C54.668 59.8882 54.4 59.8882 54.132 59.8882C45.9909 59.8882 37.8479 59.8882 29.7068 59.8882C29.5026 59.8882 29.2437 59.9611 29.1052 59.8645C28.8372 59.6804 28.4654 59.4015 28.4599 59.1554C28.4544 58.9075 28.8099 58.6031 29.0742 58.419C29.2292 58.3114 29.5154 58.388 29.7432 58.388C37.8844 58.388 46.0273 58.388 54.1685 58.388C54.4328 58.388 54.6971 58.388 54.9578 58.388C54.9578 56.8859 54.9578 55.4695 54.9578 54.0257C54.6297 54.0257 54.3581 54.0257 54.0846 54.0257C45.9654 54.0257 37.8461 54.0257 29.7268 54.0257C29.5227 54.0257 29.2674 54.0986 29.1234 54.0039C28.8518 53.8252 28.5109 53.5846 28.4417 53.3075C28.3323 52.8736 28.6732 52.6002 29.1089 52.5364C29.3313 52.5036 29.5628 52.5237 29.7906 52.5237C37.9099 52.5237 46.0292 52.5237 54.1484 52.5237C54.4146 52.5237 54.6807 52.5237 55.1 52.5237C55.1 51.038 55.1 49.6234 55.1 48.1614C54.9633 48.1614 54.6917 48.1614 54.4219 48.1614C46.1659 48.1614 37.9117 48.1614 29.6557 48.1614C28.7042 48.1614 28.3724 47.9773 28.356 47.4414C28.3396 46.8835 28.7151 46.6611 29.6776 46.6611C38.3875 46.6611 47.0974 46.663 55.8091 46.6539C56.1117 46.6539 56.4654 46.6192 56.706 46.4643C57.4826 45.963 58.3193 45.7552 59.2271 45.7552C60.5924 45.757 61.956 45.757 63.3214 45.7533C63.562 45.7533 63.8026 45.7296 64.0414 45.7187C64.0414 40.3557 64.0414 35.071 64.0414 29.7317C63.7424 29.7317 63.4964 29.7317 63.2503 29.7317C60.6581 29.7317 58.0659 29.7335 55.4719 29.7317C54.4547 29.7317 54.2706 29.5531 54.2687 28.5486C54.2651 25.9565 54.2669 23.3624 54.2669 20.7703C54.2669 20.5041 54.2669 20.2398 54.2669 19.9481C44.3247 19.9481 34.4682 19.9481 24.6081 19.9481C24.6081 37.1729 24.6081 54.352 24.6081 71.5476C26.5349 71.5476 28.4089 71.5476 30.2773 71.5476C30.5016 69.6372 30.5016 69.6372 32.3773 69.2963C32.4667 69.2799 32.5687 69.2817 32.6417 69.2361C32.7674 69.1578 32.9187 69.0703 32.9826 68.9481C33.3763 68.1807 33.7937 67.4059 32.9516 66.6421C32.8057 66.5109 32.762 66.2666 32.6161 66.1335C32.443 65.9749 32.2151 65.7835 32.0036 65.7726C31.1177 65.7325 30.2299 65.7507 29.344 65.7562C28.819 65.7598 28.418 65.5703 28.4216 64.9979C28.4253 64.4236 28.8318 64.2486 29.3531 64.2505C30.5125 64.2578 31.6737 64.2231 32.8331 64.2651C33.3781 64.2851 33.7664 64.1247 34.1547 63.7473C35.8081 62.1395 35.4253 62.1888 37.3102 63.4666C37.4943 63.5906 37.775 63.7 37.9737 63.6544C38.8724 63.4429 39.6198 63.0455 39.5979 61.9408C39.5961 61.8734 39.618 61.8059 39.6326 61.7403C39.8349 60.8763 40.0172 60.7322 40.8904 60.7578C41.4354 60.7742 41.9805 60.8015 42.5273 60.8143C44.7841 60.8671 44.4633 60.6192 44.9099 62.8304C44.9518 63.0364 45.0156 63.3026 45.1651 63.4138C46.0036 64.0408 46.5615 64.0354 47.4711 63.463C48.6214 62.7374 48.6359 62.7247 49.5674 63.7091C49.8555 64.0135 50.0669 64.0171 50.4424 63.8622C51.2154 63.5414 52.0102 63.2515 52.8214 63.0583C53.5159 62.8942 54.2487 62.8851 54.987 62.8049C54.9852 61.8515 54.9852 60.9255 54.9852 59.8882ZM63.0388 67.2127C64.5646 69.8869 64.9109 72.7033 64.0414 75.7312C64.3112 75.7312 64.5135 75.7312 64.7159 75.7312C68.081 75.7312 71.4461 75.7348 74.8112 75.7294C76.5885 75.7276 77.5674 74.7669 77.5693 73.0023C77.5747 65.3387 77.5729 57.6752 77.5693 50.0117C77.5674 48.2416 76.5995 47.2609 74.8331 47.2572C69.6487 47.2481 64.4643 47.2481 59.2818 47.2572C57.4753 47.2609 56.5164 48.2434 56.5146 50.0536C56.5128 54.146 56.5146 58.2403 56.5146 62.3328C56.5146 62.5533 56.5146 62.7757 56.5146 62.896C57.4734 63.2716 58.3794 63.5304 59.1888 63.9679C59.9982 64.4072 60.7018 65.038 61.4747 65.552C61.6625 65.676 61.9378 65.7015 62.1747 65.7143C62.5849 65.7361 63.0807 65.6669 63.1956 66.1664C63.2685 66.4872 63.099 66.8627 63.0388 67.2127ZM54.6898 80.932C59.3164 80.9356 63.0169 77.2442 63.0133 72.6304C63.0096 68.0986 59.2964 64.3744 54.7773 64.3708C50.1417 64.3671 46.4266 68.0476 46.4247 72.6468C46.4229 77.2296 50.1125 80.9265 54.6898 80.932ZM40.4055 82.3885C40.9414 82.3885 41.3771 82.3393 41.7982 82.3994C42.4727 82.496 42.8245 82.2609 42.85 81.5718C42.8846 80.6148 43.4443 80.2502 44.3029 79.8911C45.5589 79.3679 46.6344 79.1145 47.6771 80.2192C47.7591 80.3067 48.0326 80.2137 48.1383 80.2083C47.1721 78.8028 46.2698 77.4885 45.362 76.1687C42.2776 77.9989 39.7583 77.8385 37.9044 75.6328C36.2948 73.7169 36.3057 70.875 37.9299 68.9882C38.7302 68.0585 39.7346 67.4697 40.9414 67.2601C42.7716 66.9447 44.3284 67.5335 45.6792 68.8315C46.3391 67.3749 47.2086 66.1682 48.3698 65.1783C48.4646 65.0981 48.4865 64.9304 48.5411 64.8046C48.3844 64.8174 48.2094 64.7882 48.0781 64.852C47.8138 64.9796 47.5604 65.14 47.3289 65.3205C46.8349 65.7033 46.3646 65.7052 45.8214 65.3898C45.3328 65.1072 44.8023 64.8903 44.2719 64.6916C43.8417 64.5294 43.6047 64.2687 43.5409 63.8093C43.4734 63.3208 43.3568 62.8395 43.2492 62.2872C42.8026 62.2872 42.3888 62.3401 41.9932 62.2763C41.275 62.1596 40.8721 62.3638 40.8393 63.1403C40.801 64.0226 40.3745 64.5494 39.4594 64.7117C39 64.7937 38.5844 65.1109 38.125 65.2057C37.7878 65.275 37.3703 65.244 37.0604 65.1018C36.5992 64.8885 36.2018 64.5385 35.7734 64.245C35.2375 64.821 34.749 65.346 34.2531 65.8802C35.2247 67.5882 35.1172 67.5518 34.6141 69.0083C34.1984 70.2078 33.5367 70.8093 32.2844 70.8385C32.1276 70.8421 31.8596 71.1083 31.8451 71.2723C31.7922 71.8776 31.8232 72.4901 31.8232 73.1901C33.1393 73.2429 33.9195 73.7515 34.4573 75.1169C35.0151 76.5333 34.5922 77.4265 33.7573 78.3653C34.3242 78.9432 34.8273 79.4554 35.3833 80.0223C36.3477 79.0999 37.2609 78.9523 38.6008 79.5374C39.9789 80.1372 40.318 81.0377 40.4055 82.3885ZM68.575 45.7114C68.575 38.6622 68.575 31.6531 68.575 24.6458C66.2471 24.6458 63.9776 24.6458 61.524 24.6458C62.7471 25.8507 63.8299 26.9518 64.9529 28.0072C65.4232 28.4484 65.6073 28.9187 65.6036 29.5622C65.5818 34.6554 65.5909 39.7505 65.5927 44.8437C65.5927 45.1281 65.6182 45.4124 65.631 45.7114C66.6573 45.7114 67.6016 45.7114 68.575 45.7114ZM55.8109 28.1677C58.1935 28.1677 60.5341 28.1677 62.6378 28.1677C60.3974 25.9309 58.0695 23.6049 55.8109 21.3481C55.8109 23.5247 55.8109 25.8526 55.8109 28.1677ZM38.3693 71.5221C38.4513 71.5513 38.4932 71.5786 38.5352 71.5804C40.4219 71.5859 42.3086 71.5968 44.1953 71.5841C44.4615 71.5822 44.9281 71.5002 44.9536 71.3817C45.0247 71.0354 45.0302 70.5906 44.8643 70.2989C44.4323 69.5442 43.725 69.0776 42.8901 68.8278C40.874 68.219 38.619 69.546 38.3693 71.5221ZM38.3073 73.1244C38.6536 74.4624 39.4102 75.301 40.5951 75.744C41.9003 76.2307 43.1016 75.9864 44.1807 75.1369C44.8242 74.6302 45.2617 74.0322 44.8443 73.1244C42.7078 73.1244 40.5568 73.1244 38.3073 73.1244ZM33.1211 76.238C33.0081 75.2536 32.5706 74.7104 31.5279 74.5846C30.3922 74.4479 30.4031 74.3604 30.2299 73.1408C29.8672 73.1408 29.5008 73.1408 29.1198 73.1408C29.1198 74.1945 29.1198 75.2026 29.1198 76.238C30.4669 76.238 31.774 76.238 33.1211 76.238Z" fill="white"/>
<path d="M43.4214 42.2973C38.8313 42.2973 34.243 42.2973 29.6529 42.2973C29.425 42.2973 29.1552 42.3648 28.982 42.2645C28.7378 42.1242 28.4042 41.858 28.4024 41.6429C28.4005 41.3804 28.6521 41.0523 28.8854 40.87C29.0477 40.7424 29.3649 40.7971 29.6128 40.7971C38.8367 40.7953 48.0625 40.7953 57.2865 40.7953C57.4906 40.7953 57.7586 40.7315 57.8844 40.8354C58.1378 41.0414 58.4841 41.3513 58.4714 41.5992C58.4586 41.8398 58.0667 42.1005 57.7914 42.2736C57.6438 42.3666 57.3922 42.2955 57.188 42.2955C52.5997 42.2973 48.0115 42.2973 43.4214 42.2973Z" fill="white"/>
<path d="M31.9818 25.561C31.9818 25.2967 31.9599 25.067 31.9873 24.8446C32.0401 24.4107 32.268 24.1172 32.7365 24.1209C33.1977 24.1264 33.4985 24.3998 33.4565 24.8464C33.4 25.4407 33.6771 25.6357 34.1802 25.8326C35.2886 26.2701 35.994 27.0995 36.1763 28.3081C36.2511 28.8021 36.1508 29.256 35.5638 29.3381C34.9969 29.4165 34.7654 29.0719 34.6834 28.5415C34.5539 27.6956 33.9341 27.1706 32.988 27.0412C32.1677 26.93 31.2253 27.3912 30.9117 28.0584C30.5617 28.8021 30.8716 29.6589 31.6755 29.9597C32.288 30.1875 32.9443 30.3006 33.5823 30.4573C34.769 30.749 35.7716 31.2503 36.036 32.5974C36.3568 34.2454 35.6185 35.649 34.049 36.2688C33.6297 36.4347 33.4128 36.6042 33.4693 37.0855C33.5276 37.5868 33.2925 37.9532 32.7565 37.9623C32.1823 37.9714 31.9563 37.5777 31.9873 37.0563C32.0128 36.6425 31.8615 36.4857 31.4604 36.3545C30.0987 35.9097 29.2328 34.7922 29.2018 33.5782C29.1891 33.075 29.3568 32.7068 29.8909 32.6685C30.3849 32.6339 30.6529 32.9511 30.6857 33.4178C30.744 34.2381 31.2216 34.6902 31.9453 34.9326C32.7419 35.1987 33.482 35.0584 34.1055 34.4969C34.9367 33.7477 34.7435 32.5264 33.7099 32.0998C33.1904 31.8865 32.6235 31.7826 32.0711 31.6568C30.0823 31.2011 29.3695 30.492 29.2748 28.8605C29.1909 27.4058 30.0732 26.2555 31.7266 25.6576C31.7886 25.6339 31.8505 25.6102 31.9818 25.561Z" fill="white"/>
<path d="M49.0261 36.4366C46.2772 36.4366 43.5264 36.4366 40.7774 36.4366C40.5732 36.4366 40.3217 36.4986 40.1758 36.4019C39.9389 36.247 39.6326 35.9973 39.6107 35.7639C39.5889 35.5269 39.8331 35.2116 40.0464 35.0293C40.1886 34.9072 40.4785 34.9381 40.7027 34.9381C46.2699 34.9345 51.8389 34.9345 57.4061 34.9345C57.5428 34.9345 57.6813 34.9254 57.8144 34.9473C58.2519 35.0184 58.5381 35.2736 58.5144 35.7238C58.4925 36.165 58.2154 36.4275 57.7542 36.4311C56.8902 36.4384 56.0279 36.4366 55.1639 36.4366C53.1167 36.4366 51.0714 36.4366 49.0261 36.4366Z" fill="white"/>
<path d="M67.0475 49.237C69.5486 49.237 72.0478 49.2351 74.5488 49.237C75.6954 49.2388 76.0345 49.5833 76.0363 50.7518C76.0381 52.4799 76.04 54.2081 76.0363 55.9344C76.0345 56.9643 75.6754 57.3344 74.6454 57.3362C69.5759 57.3417 64.5082 57.3417 59.4387 57.3362C58.416 57.3344 58.0514 56.9588 58.0478 55.9271C58.0423 54.1534 58.0405 52.3797 58.0478 50.6078C58.0514 49.6289 58.4433 49.2388 59.4131 49.237C61.9561 49.2333 64.5027 49.237 67.0475 49.237ZM74.4996 50.7828C69.4902 50.7828 64.5465 50.7828 59.5863 50.7828C59.5863 52.4745 59.5863 54.1224 59.5863 55.8031C64.5738 55.8031 69.5194 55.8031 74.4996 55.8031C74.4996 54.1187 74.4996 52.469 74.4996 50.7828Z" fill="white"/>
<path d="M67.2341 72.4227C66.8932 72.4227 66.5086 72.5229 66.226 72.3935C65.9508 72.2695 65.6081 71.9068 65.6153 71.657C65.6226 71.4128 66.0055 71.019 66.2716 70.9753C66.8914 70.8732 67.5495 70.875 68.1693 70.9735C68.4354 71.0172 68.7836 71.3745 68.851 71.6479C68.9531 72.069 68.6323 72.3716 68.1875 72.4208C67.8739 72.4555 67.5513 72.4281 67.2341 72.4281C67.2341 72.4263 67.2341 72.4245 67.2341 72.4227Z" fill="white"/>
<path d="M67.2415 61.9556C66.9024 61.9556 66.5287 62.0431 66.2316 61.9301C65.9655 61.828 65.6264 61.5145 65.6118 61.2775C65.5972 61.0369 65.9144 60.5848 66.1313 60.5556C66.8405 60.4608 67.5787 60.4572 68.2897 60.5465C68.5121 60.5738 68.8639 61.0296 68.8347 61.2447C68.7983 61.509 68.461 61.8116 68.1821 61.9356C67.9178 62.0522 67.5587 61.9611 67.2415 61.9611C67.2415 61.9574 67.2415 61.9556 67.2415 61.9556Z" fill="white"/>
<path d="M67.1809 67.2273C66.8419 67.2109 66.4627 67.282 66.1783 67.1507C65.9213 67.0323 65.5859 66.664 65.6151 66.4526C65.6515 66.1882 65.9997 65.8036 66.2604 65.7635C66.902 65.6651 67.5765 65.6724 68.2218 65.7635C68.4679 65.7981 68.8489 66.1901 68.8362 66.3979C68.8197 66.6695 68.5226 67.0377 68.2546 67.1526C67.9502 67.2838 67.5437 67.1836 67.1828 67.1836C67.1809 67.1981 67.1809 67.2127 67.1809 67.2273Z" fill="white"/>
<path d="M72.8018 70.9426C73.0735 70.9426 73.3433 70.9353 73.6149 70.9426C74.0688 70.9571 74.417 71.2269 74.3495 71.6389C74.3021 71.9306 73.9576 72.3426 73.686 72.3954C73.099 72.5103 72.4719 72.4647 71.8667 72.4155C71.4292 72.3808 71.1175 72.0509 71.2396 71.628C71.318 71.3564 71.6516 71.092 71.9341 70.9644C72.1748 70.8551 72.5084 70.9426 72.8018 70.9426Z" fill="white"/>
<path d="M61.6485 61.9593C61.3532 61.9593 61.0142 62.0504 60.7735 61.9356C60.4946 61.8007 60.1574 61.5054 60.1191 61.2411C60.0881 61.0278 60.4363 60.5775 60.6642 60.5411C61.3058 60.4408 61.9858 60.4299 62.6256 60.532C62.8644 60.5702 63.2071 61.026 63.1944 61.2757C63.1816 61.5145 62.8061 61.8098 62.5236 61.9392C62.2793 62.0504 61.9439 61.9629 61.6467 61.9629C61.6486 61.9611 61.6485 61.9611 61.6485 61.9593Z" fill="white"/>
<path d="M72.74 61.9557C72.4465 61.9557 72.1166 62.0413 71.8705 61.932C71.6062 61.8153 71.2671 61.5291 71.2471 61.2939C71.227 61.0533 71.526 60.5903 71.7338 60.5611C72.4155 60.4645 73.1283 60.459 73.8101 60.5502C74.0288 60.5794 74.3734 61.0424 74.3387 61.2538C74.295 61.5182 73.9559 61.8135 73.6752 61.9356C73.409 62.0504 73.0554 61.9611 72.7382 61.9611C72.74 61.9593 72.74 61.9575 72.74 61.9557Z" fill="white"/>
<path d="M72.8148 65.7327C73.1101 65.7327 73.451 65.6397 73.6898 65.7564C73.9687 65.8931 74.3041 66.1921 74.3387 66.4582C74.3661 66.6715 74.0106 67.1126 73.7791 67.1473C73.1356 67.2439 72.4575 67.253 71.8176 67.1473C71.5788 67.109 71.2361 66.6478 71.2525 66.3999C71.2689 66.1611 71.6554 65.8749 71.9398 65.7491C72.1877 65.6397 72.5213 65.7272 72.8166 65.7272C72.8148 65.7291 72.8148 65.7309 72.8148 65.7327Z" fill="white"/>
<path d="M57.5546 70.7749C57.3978 70.9098 57.1718 71.2434 56.8746 71.3291C56.4444 71.453 56.1783 71.1522 56.0653 70.7111C55.821 69.7577 55.4291 69.4077 54.6762 69.4259C53.9835 69.4423 53.4293 69.9436 53.3892 70.5853C53.3528 71.2033 53.8048 71.7556 54.4666 71.8759C54.8002 71.9361 55.1483 71.9343 55.4746 72.0199C56.6249 72.3225 57.4106 73.2431 57.5236 74.3843C57.6366 75.5218 57.0423 76.5845 55.9686 77.0986C55.666 77.2444 55.4801 77.372 55.4035 77.753C55.3561 77.9936 54.9624 78.3218 54.7236 78.3218C54.4775 78.3218 54.0655 78.0046 54.0218 77.7712C53.9452 77.3574 53.7228 77.2317 53.4093 77.0731C52.4832 76.6064 51.9929 75.828 51.8926 74.8035C51.8434 74.3022 52.0475 73.9358 52.578 73.8957C53.0647 73.8593 53.3072 74.1527 53.3837 74.6285C53.515 75.4343 53.9069 75.8207 54.585 75.8736C55.3543 75.9319 55.9723 75.4507 56.0288 74.7488C56.0835 74.0744 55.5931 73.5147 54.853 73.409C54.5395 73.3653 54.2168 73.3561 53.9142 73.2723C52.7822 72.9587 51.9746 71.989 51.889 70.8788C51.8033 69.7796 52.403 68.7095 53.4348 68.2192C53.772 68.0587 53.9252 67.8801 54.0272 67.5082C54.0929 67.2712 54.5048 66.9759 54.7491 66.9869C54.9879 66.9978 55.2212 67.3533 55.4363 67.5757C55.6168 67.7634 55.728 68.0533 55.9413 68.1663C56.9093 68.6858 57.447 69.4569 57.5546 70.7749Z" fill="white"/>
</g>
<defs>
<clipPath id="clip0_586_29956">
<rect width="70" height="70" fill="white" transform="translate(16 16.0928)"/>
</clipPath>
</defs>
</svg>
