<?xml version="1.0" encoding="UTF-8"?> <svg xmlns="http://www.w3.org/2000/svg" xmlns:xlink="http://www.w3.org/1999/xlink" width="60px" height="60px" viewBox="0 0 60 60" version="1.1"><title>icon-value-value</title><g id="icon-value-value" stroke="none" stroke-width="1" fill="none" fill-rule="evenodd"><path d="M13.968,22.992 C14.832,21.648 16.56,21.36 18.096,22.032 L18.096,22.032 L19.632,23.088 C20.592,23.76 20.976,24.816 20.88,25.872 L20.88,25.872 L21.936,25.872 C24.144,25.776 25.68,26.736 26.64,27.408 C26.664,27.432 26.694,27.456 26.727,27.48 L26.937,27.624 L26.937,27.624 L27.024,27.696 C27.792,27.504 29.328,27.12 30.192,26.928 L30.192,26.928 L30.2821312,26.9255248 C31.0725306,26.8818367 31.3337143,26.2834286 33.648,27.024 C34.8,27.408 36.144,27.792 38.064,27.12 L38.064,27.12 L40.272,26.352 C39.888,25.008 40.464,23.568 41.712,22.896 L41.712,22.896 L43.344,22.032 C44.688,21.36 46.416,21.84 47.184,23.28 L47.184,23.28 L52.752,34.032 C53.52,35.376 52.944,37.104 51.504,37.872 L51.504,37.872 L49.872,38.736 C49.392,38.928 49.008,39.024 48.528,39.024 C47.568,39.024 46.704,38.448 46.128,37.68 L46.128,37.68 L44.4,38.256 L40.848,41.136 C41.04,42 40.848,43.056 40.176,43.728 C39.696,44.208 39.024,44.496 38.352,44.592 C38.352,45.264 38.064,45.936 37.584,46.512 C37.104,46.992 36.432,47.28 35.76,47.376 C35.76,48.048 35.472,48.72 34.992,49.296 C34.512,49.776 33.84,50.064 33.168,50.16 C33.168,50.832 32.88,51.504 32.4,52.08 C31.344,53.232 29.616,53.52 27.984,51.984 C27.792,51.888 27.696,51.696 27.408,51.504 L27.408,51.504 L27.3050206,51.599605 C27.0121481,51.8524445 26.576,52.08 26.064,52.08 C25.776,52.08 25.296,51.984 24.816,51.6 L24.816,51.6 L24.72,51.504 C24.624,51.312 24.336,51.12 24.144,50.928 C23.568,50.448 22.992,49.968 22.8,49.296 C22.32,49.296 21.84,49.008 21.36,48.624 L21.36,48.624 L21.265536,48.529056 C20.95968,48.21888 20.4672,47.6832 20.208,46.992 L20.208,46.992 L20.016,46.992 C19.44,46.992 18.864,46.8 18.384,46.32 L18.384,46.32 L18.3153236,46.2716152 C17.9892245,46.0310204 17.3142857,45.3942857 17.136,44.592 C16.56,44.592 16.08,44.304 15.6,43.92 L15.6,43.92 L15.408,43.728 C15.024,43.344 14.16,42.576 14.064,41.52 C14.064,41.04 14.16,40.464 14.736,39.792 L14.736,39.792 L14.832,39.696 L13.776,38.832 C13.488,38.64 13.296,38.352 13.104,38.064 C12.048,38.832 10.8,38.832 9.83999996,38.16 L9.83999996,38.16 L8.30399995,37.2 C6.95999995,36.336 6.57599995,34.512 7.43999995,33.168 L7.43999995,33.168 Z M21.936,27.792 L19.92,27.888 L14.544,36.336 C14.736,36.72 14.928,37.008 15.216,37.296 L15.216,37.296 L16.368,38.256 C16.944,37.776 17.616,37.392 18.384,37.392 C19.344,37.392 20.4,37.968 20.976,39.312 C21.264,39.216 21.552,39.12 21.84,39.12 C22.416,39.12 23.376,39.408 23.856,39.888 L23.856,39.888 L23.994,40.0377778 C24.478,40.6073334 24.72,41.392 24.72,42.096 C25.296,42.192 25.776,42.384 26.256,42.864 C26.352,42.96 26.448,42.96 26.448,43.056 C27.408,44.304 27.312,45.264 27.024,46.032 C27.312,46.224 27.696,46.416 27.984,46.704 C28.848,47.568 29.04,48.816 28.656,49.872 L28.656,49.872 L28.7452828,49.961003 C29.0106122,50.2246531 29.7394286,50.9417143 29.904,51.024 C30.288,51.216 30.768,51.12 31.056,50.832 C31.344,50.448 31.344,49.872 30.96,49.488 L30.96,49.488 L28.944,47.664 C28.56,47.28 28.464,46.704 28.848,46.32 C29.136,45.936 29.616,45.936 30,46.128 C30.096,46.128 30.288,46.224 30.384,46.32 L30.384,46.32 L32.208,47.952 C32.592,48.24 33.168,48.24 33.552,47.856 C33.936,47.472 33.936,46.896 33.552,46.512 L33.552,46.512 L31.056,44.112 L30.9757742,44.0201511 C30.6879053,43.6405207 30.7901538,43.1224616 31.056,42.768 L31.056,42.768 L31.1478489,42.6877743 C31.5274793,42.3999054 32.0455385,42.5021539 32.4,42.768 L32.4,42.768 L34.896,45.168 L34.896,45.168 L35.0001866,45.2430088 C35.4568163,45.5368164 35.9725714,45.4285715 36.24,45.072 C36.528,44.688 36.528,44.112 36.144,43.728 L36.144,43.728 L33.264,41.232 C32.88,40.944 32.784,40.272 33.168,39.888 C33.456,39.504 34.128,39.408 34.512,39.792 L34.512,39.792 L37.392,42.288 L37.392,42.288 L37.4891662,42.3764054 C37.94752,42.75392 38.4672,42.6464 38.736,42.288 C39.024,41.904 39.024,41.328 38.64,40.944 L38.64,40.944 L38.544,40.848 L38.544,40.848 L38.5218947,40.8312287 C38.1028126,40.5099531 36.5227636,39.1269818 31.056,34.32 C30.864,34.128 30.48,34.032 30.096,34.128 L30.096,34.128 L26.064,34.992 L26.064,34.992 L25.9604444,35.0324445 C25.776,35.088 25.536,35.088 25.296,35.088 C23.664,35.088 22.32,34.032 21.936,32.496 C21.456,30.672 22.512,28.752 24.336,28.272 C23.664,27.984 22.896,27.792 21.936,27.792 L21.936,27.792 Z M26.0035555,47.7603951 L25.968,47.76 C25.584,47.76 25.008,48.432 24.72,48.72 C24.816,48.912 25.2,49.2 25.392,49.392 L25.392,49.392 L26.064,50.064 C26.112,50.016 26.16,49.962 26.208,49.905 L26.496,49.551 L26.496,49.551 L26.64,49.392 L26.64,49.392 L26.7059444,49.2940556 C26.9253333,48.928 26.896,48.488 26.544,48.048 C26.256,47.76 26.064,47.76 25.968,47.76 Z M24.180375,44.016375 L24.144,44.016 C23.472,44.016 22.704,45.168 21.936,45.936 C21.84,46.032 21.84,46.128 21.84,46.224 C21.936,46.416 22.128,46.704 22.512,47.088 C22.608,47.088 22.608,47.088 22.704,47.184 C22.8,47.28 22.896,47.376 22.992,47.376 C23.568,47.376 24.432,46.032 24.72,45.552 C25.008,45.168 25.104,44.88 24.624,44.208 L24.624,44.208 L24.524625,44.144625 C24.312,44.016 24.228,44.016 24.144,44.016 Z M21.456,41.04 C21.36,41.04 21.168,41.04 20.88,41.328 C20.784,41.424 18.96,43.44 18.864,43.536 C18.864,43.56 18.858,43.584 18.849,43.608 L18.783,43.752 L18.783,43.752 L18.768,43.824 C18.768,44.016 18.96,44.208 19.44,44.688 L19.632,44.88 C19.728,44.976 19.824,45.072 19.92,45.072 C20.496,45.072 21.552,43.44 22.224,42.672 C22.512,42.288 22.512,41.712 22.128,41.328 L22.128,41.328 L22.083375,41.2880625 C21.96,41.187 21.708,41.04 21.456,41.04 Z M18.4735102,39.5171808 C17.8607755,39.0777814 17.2877143,39.6557231 16.7543265,40.2818397 L16.578,40.491 C16.374,40.734 16.176,40.968 15.984,41.136 C15.984,41.16 15.978,41.184 15.969,41.208 L15.903,41.352 L15.903,41.352 L15.888,41.424 C15.888,41.712 16.944,42.576 17.04,42.576 C17.232,42.576 17.424,42.384 17.616,42.192 L17.616,42.192 L17.6473742,42.1605689 C17.84768,41.9594667 18.7616,41.0336 18.672,40.944 C18.96,40.56 19.056,40.272 18.576,39.6 L18.576,39.6 Z M41.136,27.888 L38.832,28.944 C36.624,29.712 35.088,29.52 33.072,28.848 C31.728,28.464 32.112,28.464 29.904,29.04 L29.904,29.04 L29.808,29.04 L29.808,29.04 L29.4364286,29.1335787 C28.3666704,29.4045873 27.1957895,29.712 27.024,29.712 L27.024,29.712 L24.816,30.096 C23.952,30.288 23.472,31.152 23.664,32.016 C23.856,32.88 24.72,33.36 25.584,33.168 L25.584,33.168 L29.616,32.304 C30.576,32.016 31.536,32.304 32.304,32.88 C35.2251429,35.3897143 35.3955918,35.4484898 35.3317784,35.3384956 L35.3140392,35.3111552 C35.309682,35.3048755 35.3052179,35.2986136 35.3009862,35.2926773 L35.2893274,35.2761531 C35.2876136,35.2736645 35.2860427,35.2713342 35.2846571,35.2692007 L35.2789076,35.2590697 C35.27701,35.2543006 35.2794355,35.2539117 35.2888993,35.2603655 L35.3087131,35.2754858 C35.4633402,35.4006927 36.298022,36.1798681 39.792,39.408 L39.792,39.408 L43.344,36.624 C43.44,36.528 43.536,36.432 43.632,36.432 L43.632,36.432 L45.264,35.856 L41.136,27.888 Z M45.456,23.856 C45.264,23.376 44.688,23.184 44.208,23.472 L44.208,23.472 L42.576,24.336 C41.52,24.912 42.384,26.064 42.384,26.16 L42.384,26.16 L47.76,36.432 C47.952,36.816 48.528,37.008 49.008,36.816 L49.008,36.816 L50.64,35.952 C51.12,35.664 51.312,35.088 51.024,34.608 L51.024,34.608 Z M16.944,23.76 C16.464,23.472 15.888,23.568 15.6,24.048 L15.6,24.048 L9.07199996,34.224 C8.78399996,34.704 8.87999996,35.28 9.35999996,35.568 L9.35999996,35.568 L10.896,36.624 C11.376,36.912 11.952,36.72 12.24,36.336 L12.24,36.336 L18.768,26.16 C19.056,25.68 18.96,25.104 18.48,24.816 L18.48,24.816 Z M30.48,6.95999995 C35.376,6.95999995 39.312,10.896 39.312,15.792 C39.312,20.688 35.376,24.624 30.48,24.624 C25.584,24.624 21.648,20.688 21.648,15.792 C21.648,10.896 25.584,6.95999995 30.48,6.95999995 Z M30.48,8.87999996 C26.64,8.87999996 23.568,11.952 23.568,15.792 C23.568,19.632 26.64,22.704 30.48,22.704 C34.32,22.704 37.392,19.632 37.392,15.792 C37.392,11.952 34.32,8.87999996 30.48,8.87999996 Z M34.608,11.952 C34.992,11.568 35.568,11.568 35.952,11.952 C36.336,12.336 36.336,12.912 35.952,13.296 L35.952,13.296 L29.52,19.728 C29.328,19.92 29.136,20.016 28.848,20.016 C28.56,20.016 28.368,19.92 28.176,19.728 L28.176,19.728 L25.008,16.56 C24.624,16.176 24.624,15.6 25.008,15.216 C25.392,14.832 25.968,14.832 26.352,15.216 L26.352,15.216 L28.848,17.712 Z" id="Combined-Shape" fill="#767676"></path></g></svg> 