<?xml version="1.0" encoding="UTF-8"?> <svg xmlns="http://www.w3.org/2000/svg" xmlns:xlink="http://www.w3.org/1999/xlink" width="60px" height="60px" viewBox="0 0 60 60" version="1.1"><title>icon-value-excellence</title><g id="icon-value-excellence" stroke="none" stroke-width="1" fill="none" fill-rule="evenodd"><path d="M26.599354,7.35739467 C27.0995049,7.35739467 27.5050143,7.7629041 27.5050143,8.26305505 L27.5050143,8.26305505 L27.5050143,8.68183241 L35.69664,8.68183241 C36.4404498,8.68183241 37.0458476,9.29120599 37.0458476,10.040323 L37.0458476,10.040323 L37.0458476,11.4801962 L47.4971865,11.4801962 C47.9805283,11.4801962 48.417437,11.7287185 48.664637,12.1457298 C48.9127246,12.5627411 48.9224514,13.0646581 48.6916166,13.4891864 L48.6916166,13.4891864 L45.9127246,18.5083471 L48.6885193,23.521757 C48.9215638,23.9502702 48.9122808,24.4499773 48.6668468,24.8634475 C48.4196468,25.2791275 47.9822944,25.5272151 47.4971865,25.5272151 L47.4971865,25.5272151 L33.0610143,25.5272151 C31.2270883,25.5272151 31.7882626,23.1301222 31.7025238,22.7377087 L31.7025238,22.7377087 L27.5049962,22.7377087 L27.5049962,22.7377087 L27.5046656,26.9252605 C27.5037268,27.6138736 27.5015413,28.1272592 27.4968724,28.2270068 L27.4968724,28.2270068 L33.4673026,36.7022581 L39.6916166,28.4330174 C39.7772468,28.3192574 39.887194,28.2290445 40.0112876,28.1672423 C40.1359336,28.1044528 40.2745721,28.0699562 40.4177389,28.0699562 L40.4177389,28.0699562 L40.5388104,28.0780167 C40.7771234,28.1100263 40.9949654,28.2359767 41.1416513,28.4308075 C47.4927534,36.878751 50.3442835,40.6717502 51.5782636,42.3131293 L51.6892678,42.4607815 C51.7247278,42.5079486 51.7586657,42.5530909 51.7911387,42.5962848 L51.884221,42.7200977 C52.0618268,42.9563388 52.1887685,43.1251876 52.2774521,43.2431457 C52.2750793,43.239994 52.2904393,43.2604438 52.3276438,43.30992 L52.3254905,43.3073947 L52.3336585,43.3179498 L52.3336585,43.3179498 L52.3423427,43.3294823 L52.3423427,43.3294823 L52.3344905,43.3183947 L52.3594905,43.3523947 L52.3618076,43.3553751 L52.384628,43.385751 C52.3950793,43.3996257 52.4008302,43.4072604 52.408954,43.4180921 L52.4064905,43.4153947 L52.4210299,43.4340974 L52.4210299,43.4340974 L52.4296302,43.4455608 L52.4296302,43.4455608 C52.4321208,43.4488212 52.4344936,43.4520272 52.4367578,43.4550702 L52.4490363,43.4713483 L52.4490363,43.4713483 L52.4598159,43.4856906 C52.5778868,43.6426778 52.6415095,43.8336544 52.6415095,44.0300015 L52.6415095,44.0300015 L52.6415095,51.7369631 C52.6415095,52.237114 52.236,52.6426234 51.7358491,52.6426234 L51.7358491,52.6426234 L8.2641509,52.6426234 C7.76399995,52.6426234 7.35849052,52.237114 7.35849052,51.7369631 L7.35849052,51.7369631 L7.35849052,27.4924166 C7.35849052,27.3053615 7.41641656,27.1231698 7.52388222,26.9706023 L7.52388222,26.9706023 L16.3266566,14.4731049 L16.3266566,14.4731049 C16.668489,13.9893192 17.4706687,13.9888754 17.8102913,14.4704513 C17.8109918,14.4714463 17.8116645,14.4724018 17.8123192,14.4733317 C17.816733,14.479601 17.8173569,14.4804873 17.8179924,14.4813899 L17.8242895,14.4903343 L17.8242895,14.4903343 L17.8296214,14.4979076 L17.8296214,14.4979076 L17.8364115,14.5075518 C17.9438825,14.6601982 18.6188989,15.6189308 25.6936936,25.6672755 L25.6936936,25.6672755 L25.6936936,8.26305505 C25.6936936,7.7629041 26.099203,7.35739467 26.599354,7.35739467 Z M35.4381645,37.0956589 L34.5632332,38.2580196 L43.4205102,50.8313027 L50.8301887,50.8313027 L50.8301887,44.332483 L45.3878853,37.0964287 L45.1065781,37.3777359 C44.0177298,38.4802868 42.224314,38.4878038 41.1235291,37.3741947 C40.7600242,37.0106989 40.0794566,37.0071578 39.7088785,37.3777359 C38.6340136,38.4526008 36.7891381,38.4458536 35.7205223,37.3781796 L35.7205223,37.3781796 L35.4381645,37.0956589 Z M18.3900317,26.4682415 C17.7032694,25.7814792 16.4433962,25.7752845 15.745132,26.4735487 C14.3822219,27.8584574 11.9490837,27.8978174 10.5247607,26.4735487 L10.5247607,26.4735487 L10.2695456,26.2182249 L9.16981128,27.7794204 L9.16981128,50.8312936 L41.2044408,50.8312936 L40.9571321,50.4802325 C38.1875843,46.5486074 37.5171857,45.5982012 36.8146071,44.6019263 L36.7030955,44.4437973 C35.5790904,42.8498681 34.095197,40.744387 23.8615789,26.2114234 L23.8615789,26.2114234 L23.5944815,26.4762023 C22.1832,27.9111396 19.835366,27.9375668 18.3900317,26.4682415 Z M40.4159819,30.4857872 L36.5426083,35.6384966 L37.0011894,36.0970777 C37.3837042,36.4796015 38.0377449,36.4822551 38.415831,36.1006189 C39.4600755,35.0414491 41.2829525,34.9703638 42.4081721,36.0975215 C43.2881298,36.9876498 44.1925132,35.6889691 44.2884227,35.6345751 L44.2884227,35.6345751 L40.4159819,30.4857872 Z M17.0683562,16.5677796 L11.3300377,24.7175004 L11.8054188,25.1928815 C12.522249,25.9088332 13.7432151,25.9105992 14.452972,25.1955351 C15.8150581,23.8127819 18.1997071,23.7156589 19.675997,25.1928815 C20.3857539,25.9141404 21.6111396,25.9097117 22.3111698,25.1981887 L22.3111698,25.1981887 L22.8038581,24.7098747 L17.0683562,16.5677796 Z M46.7308438,13.2915079 L37.0458476,13.2915079 L37.0458476,21.3885011 C37.0458476,22.1323109 36.4404498,22.7376996 35.69664,22.7377087 L35.69664,22.7377087 L33.5138536,22.7377087 L33.5138536,23.7158943 L46.7255366,23.7158943 L44.2053464,19.1641539 C43.9837947,18.7489087 43.9837947,18.2677766 44.1991517,17.864477 L44.1991517,17.864477 L46.7308438,13.2915079 Z M35.2345268,10.4931532 L27.509434,10.4931532 L27.509434,20.9263788 L27.509434,20.9263788 L35.2345268,20.9263788 L35.2345268,20.9263788 L35.2345268,10.4931532 Z" id="Combined-Shape" fill="#767676"></path></g></svg> 