<?xml version="1.0" encoding="UTF-8"?> <svg xmlns="http://www.w3.org/2000/svg" xmlns:xlink="http://www.w3.org/1999/xlink" width="60px" height="60px" viewBox="0 0 60 60" version="1.1"><title>icon-value-innovate</title><g id="icon-value-innovate" stroke="none" stroke-width="1" fill="none" fill-rule="evenodd"><path d="M30,7.35968599 L30.1212496,7.36779685 C30.3599257,7.40000045 30.5780339,7.52665613 30.7243472,7.72185958 L30.7243472,7.72185958 L35.0359698,13.47024 C35.2141766,13.6356317 35.3256181,13.8717736 35.3256181,14.1340075 C35.3256181,14.6372468 34.9170113,15.0617751 34.4106747,15.0396679 L34.4106747,15.0396679 L33.269751,15.0396679 L33.269751,24.1605373 C34.2673902,24.3914898 35.2341283,24.7190581 36.1583094,25.1540921 L36.1583094,25.1540921 L36.1583094,18.318249 C36.1583094,16.5153328 37.6211683,15.0489419 39.4187774,15.0489419 L39.4187774,15.0489419 L44.8076378,15.0489419 L44.8076378,14.550566 C44.8076378,13.7386505 45.4652106,13.0784241 46.2731412,13.0784241 C46.5999397,13.0784241 46.9125917,13.1849932 47.1770355,13.3866475 L47.1770355,13.3866475 L52.0714959,17.1569932 C52.4354355,17.4413434 52.6415095,17.8632181 52.6415095,18.3182581 C52.6415095,18.7732981 52.4354355,19.1951728 52.0763593,19.4759819 L52.0763593,19.4759819 L47.1818989,23.2556106 C46.913914,23.4594747 46.603037,23.5651653 46.2784483,23.5651653 C45.4674295,23.5651653 44.8076378,22.9018415 44.8076378,22.0859502 L44.8076378,22.0859502 L44.8076378,21.578726 L42.6885374,21.578726 L42.6885374,31.3276166 C43.8288,33.4262672 44.4361812,35.7973223 44.4361812,38.2065238 C44.4361812,46.8024997 36.9261193,53.4543306 28.4706023,52.5595563 C21.2356528,51.7995533 15.563837,45.628637 15.563837,38.2065238 C15.563837,35.8075472 16.1677403,33.4429585 17.3026324,31.3469072 L17.3026324,31.3469072 L17.3026324,21.578717 L15.1923713,21.578717 L15.1923713,22.0859411 C15.1923713,22.9013887 14.5308136,23.5651562 13.7175758,23.5651562 C13.3890113,23.5651562 13.076803,23.4572558 12.8150128,23.2525132 L12.8150128,23.2525132 L7.92806939,19.4790792 C7.56500826,19.1956166 7.35849052,18.7732981 7.35849052,18.3182581 C7.35849052,17.8632181 7.56500826,17.4408996 7.92452826,17.1605343 L7.92452826,17.1605343 L12.8194143,13.3897539 C13.0781162,13.1872211 13.3920905,13.0784332 13.7228649,13.0784332 C14.5330053,13.0784332 15.1923532,13.7386686 15.1923532,14.5505751 L15.1923532,14.5505751 L15.1923532,15.0489419 L20.5812136,15.0489419 C22.3788317,15.0489419 23.8416815,16.5153328 23.8416815,18.318249 L23.8416815,18.318249 L23.8416815,25.1543185 C24.7664694,24.7188498 25.7332619,24.3913811 26.7306838,24.1605464 L26.7306838,24.1605464 L26.7306838,15.0396588 L25.5893253,15.0396588 C25.2461706,15.0396588 24.9321962,14.8455305 24.7791849,14.5386294 C24.6257298,14.2317373 24.6593389,13.8642475 24.8654128,13.5900769 L24.8654128,13.5900769 L29.2760875,7.7214158 C29.4472302,7.49367844 29.7152151,7.35968599 30,7.35968599 L30,7.35968599 Z M29.9973464,42.44784 C26.3846581,42.44784 23.0325464,43.988631 20.6863607,46.6996438 C23.2160604,49.4698506 26.5971985,50.8313842 30,50.8313842 C33.474557,50.8313842 36.8343487,49.4151215 39.3113208,46.7022431 C36.9650264,43.9894642 33.6116921,42.44784 29.9973464,42.44784 Z M31.1043804,25.6306506 C23.6738083,24.9781585 17.3751396,30.8443925 17.3751396,38.2065147 C17.3751396,40.8254944 18.1776,43.2600634 19.5483079,45.2791698 C22.2262098,42.323674 25.9644951,40.6365012 29.9973464,40.6365012 C34.0319094,40.6365012 37.771354,42.3248876 40.4494189,45.2822129 C41.8214581,43.2624997 42.6248513,40.8268257 42.6248513,38.2065238 C42.6248513,31.4676951 37.3821464,26.1845796 31.1043804,25.6306506 Z M30.0004438,27.5601509 C33.3480272,27.5601509 36.071203,30.2833177 36.071203,33.6309011 C36.071203,36.9784845 33.3480272,39.7016604 30.0004438,39.7016604 C26.6528604,39.7016604 23.9296845,36.9784936 23.9296845,33.6309102 C23.9296845,30.2833268 26.6528604,27.5601509 30.0004438,27.5601509 Z M30.0004438,29.3714717 C27.6518309,29.3714717 25.7410053,31.2822883 25.7410053,33.6309102 C25.7410053,35.9795321 27.6518219,37.8903487 30.0004438,37.8903487 C32.3490657,37.8903487 34.2598823,35.9795321 34.2598823,33.6309102 C34.2598823,31.2822883 32.3490566,29.3714717 30.0004438,29.3714717 Z M13.3810415,15.243523 L9.38915316,18.3187019 L13.3810415,21.4013977 L13.3810415,20.6730656 C13.3810415,20.1729147 13.7865509,19.7674053 14.2867019,19.7674053 L14.2867019,19.7674053 L18.2082928,19.7674053 C18.7084438,19.7674053 19.1139532,20.1729147 19.1139532,20.6730656 L19.1139532,20.6730656 L19.1139532,28.7231819 C19.9278521,27.7878974 21.0465509,26.815517 22.0303698,26.1631879 L22.0303698,26.1631879 L22.0303698,18.3182581 C22.0303698,17.5143124 21.3803049,16.8602717 20.5812226,16.8602717 L20.5812226,16.8602717 L14.2867019,16.8602717 C13.7865509,16.8602717 13.3810415,16.4547622 13.3810415,15.9546113 L13.3810415,15.9546113 L13.3810415,15.243523 Z M46.6189585,15.2430792 L46.6189585,15.9546113 C46.6189585,16.4547622 46.2134491,16.8602717 45.7132981,16.8602717 L45.7132981,16.8602717 L39.4187774,16.8602717 C38.619677,16.8602717 37.9696302,17.5143034 37.9696302,18.3182581 L37.9696302,18.3182581 L37.9696302,26.1640755 C38.9279276,26.8014249 40.0422521,27.7589343 40.8772166,28.7143426 L40.8772166,28.7143426 L40.8772166,20.6730656 C40.8772166,20.1729147 41.2827261,19.7674053 41.782877,19.7674053 L41.782877,19.7674053 L45.7132981,19.7674053 C46.2134491,19.7674053 46.6189585,20.1729147 46.6189585,20.6730656 L46.6189585,20.6730656 L46.6189585,21.4018415 L50.6112906,18.3187019 L46.6189585,15.2430792 Z M29.9991125,9.77374184 L27.4028649,13.2283471 L27.6363532,13.2283471 C28.1365041,13.2283471 28.5420136,13.6338566 28.5420136,14.1340075 L28.5420136,14.1340075 L28.5420136,23.844643 C29.2843291,23.7688573 30.4021947,23.7379019 31.4584302,23.844643 L31.4584302,23.844643 L31.4584302,14.1339985 C31.4584302,13.6338475 31.8639396,13.2283381 32.3640906,13.2283381 L32.3640906,13.2283381 L32.5905057,13.2283381 L29.9991125,9.77374184 Z" id="Combined-Shape" fill="#767676"></path></g></svg> 