<?xml version="1.0" encoding="UTF-8"?> <svg xmlns="http://www.w3.org/2000/svg" xmlns:xlink="http://www.w3.org/1999/xlink" width="60px" height="60px" viewBox="0 0 60 60" version="1.1"><title>icon-value-grow</title><g id="icon-value-grow" stroke="none" stroke-width="1" fill="none" fill-rule="evenodd"><path d="M47.9901465,34.6452679 L44.1677344,36.2829102 C42.9956921,32.3456332 39.5361238,29.5032272 35.4245525,29.138563 L35.4245525,26.3604498 C36.9228951,26.2016966 39.9665117,25.6181343 42.1188317,23.4651441 C45.0135849,20.5708347 45.0728423,16.0611079 45.0741646,15.8705117 C45.0754868,15.6286188 44.9799759,15.396009 44.8088332,15.2248754 C44.6372559,15.0537419 44.4117193,14.9387592 44.163197,14.9595441 C43.9726008,14.9608664 39.4633178,15.0201237 36.5685645,17.9144422 C36.1203261,18.3625721 35.7470944,18.8515019 35.4245525,19.3551305 L35.4245525,18.0064211 C35.4277585,17.9754113 35.4426838,17.9484951 35.4426838,17.9166521 C35.4426838,17.8625932 35.4337268,17.8107441 35.4245525,17.7591668 L35.4245525,8.26658712 C35.4245525,7.76643618 35.019043,7.36092675 34.5188921,7.36092675 C34.0187411,7.36092675 33.6132317,7.76643618 33.6132317,8.26658712 L33.6132317,11.7517585 C33.2912966,11.2497328 32.9160725,10.7631305 32.4692196,10.3162686 C29.5749102,7.42151542 25.0647396,7.36225807 24.8741434,7.3609358 C24.6503819,7.33307769 24.3996407,7.45512448 24.2285072,7.62626712 C24.0573736,7.79740977 23.9618536,8.03001052 23.9631758,8.27190335 C23.9644981,8.46249958 24.0241992,12.9726702 26.9185087,15.8669796 C29.0711638,18.0196347 32.1148891,18.6034143 33.6132317,18.7622309 L33.6132317,29.1422762 C29.7772166,29.4906294 26.4584332,32.0156377 25.0930958,35.6123502 C24.1661524,35.1984906 23.3224573,34.5969057 22.6254702,33.832483 C22.6086702,33.8139079 22.5909736,33.7962204 22.5724075,33.7789766 C20.8260951,31.8933645 18.35808,30.8134732 15.7883592,30.8134732 L14.9008211,30.8134732 L14.9008211,30.7909223 C14.9008211,29.6261253 13.9531471,28.6784513 12.7883502,28.6784513 L9.47084373,28.6784513 C8.30604675,28.6784513 7.35837278,29.6261253 7.35837278,30.7909223 L7.35837278,47.5575759 C7.35837278,48.7223729 8.30604675,49.6704906 9.47084373,49.6704906 L12.7883592,49.6704906 C13.7256905,49.6704906 14.5130626,49.0523774 14.7885102,48.2056483 L26.592163,52.1619442 C27.5433691,52.4812257 28.5339351,52.6430763 29.5364468,52.6430763 C31.315046,52.6430763 33.045437,52.1345299 34.539686,51.1713782 L51.1060166,40.5148347 C52.5152785,39.6150793 53.0000695,37.8525102 52.3703185,36.3991245 C51.6455366,34.7022611 49.6818295,33.9217902 47.9901465,34.6452679 Z M37.8492317,19.1950913 C39.477917,17.5668498 41.8512996,17.0317675 43.1797132,16.8562053 C43.0068046,18.1815305 42.4743759,20.5478309 40.8381736,22.184477 C39.2094883,23.8131623 36.8361057,24.3482445 35.5076921,24.5238068 C35.6806008,23.1980377 36.2130294,20.8317373 37.8492317,19.1950913 Z M28.1991758,14.5863034 C26.5709343,12.9576181 26.0354083,10.5838007 25.859846,9.25537807 C27.1856151,9.42828675 29.5519155,9.96071543 31.1885615,11.5969177 C32.8172468,13.225603 33.3523291,15.5994203 33.5278913,16.927843 C32.2021223,16.7549343 29.8358128,16.2225056 28.1991758,14.5863034 Z M34.5241993,30.9098626 C38.2854793,30.9098626 41.5299623,33.4312211 42.4947713,36.9996317 L41.4656785,37.4405253 C40.8801872,36.7042325 39.9864634,36.2606944 39.0073902,36.2606944 L28.1208996,36.2606944 C27.6860377,36.2606944 27.2567004,36.2134913 26.8336574,36.1385842 C28.0720302,33.0201781 31.1092347,30.9098626 34.5241993,30.9098626 Z M13.0895094,47.5575578 C13.0895094,47.723828 12.9541856,47.8591517 12.7883502,47.8591517 L9.47084373,47.8591517 C9.30500826,47.8591517 9.16969354,47.723837 9.16969354,47.5575578 L9.16969354,30.7909042 C9.16969354,30.624634 9.30500826,30.489754 9.47084373,30.489754 L12.7883592,30.489754 C12.9541947,30.489754 13.0895094,30.624634 13.0895094,30.7909042 C13.0895094,33.4708981 13.0895094,43.2314355 13.0895094,47.5575578 Z M50.1287095,38.9900468 L33.5592815,49.6483653 C31.6798551,50.8582733 29.292326,51.1589797 27.1683623,50.4443593 L14.9008211,46.3326249 L14.9008211,32.6247759 L15.7883502,32.6247759 C17.8738415,32.6247759 19.876646,33.5096513 21.2829011,35.0529872 C21.3001449,35.0715623 21.3178324,35.0892498 21.3364075,35.1064936 C23.1229041,37.0350702 25.6489449,38.071997 28.1208996,38.071997 L39.0073993,38.071997 C39.7652378,38.071997 40.3433389,38.6917223 40.3433389,39.4074928 C40.3433389,40.1150853 39.771994,40.7438762 39.0073993,40.7438762 L29.4992875,40.7438762 C28.9991366,40.7438762 28.5936272,41.148951 28.5936272,41.6495366 C28.5936272,42.1501223 28.9991366,42.555197 29.4992875,42.555197 L39.0073993,42.555197 C40.7752483,42.555197 42.1546596,41.1153147 42.1546596,39.4074928 C42.1546596,39.3127517 42.136637,39.2206551 42.1282415,39.1270732 L48.7030099,36.3102068 C49.4627412,35.9873842 50.3843231,36.3606159 50.7066929,37.11504 C50.9981978,37.7894581 50.7618295,38.5853615 50.1287095,38.9900468 Z" fill="#767676"></path></g></svg> 