<svg width="399" height="277" viewBox="0 0 399 277" fill="none" xmlns="http://www.w3.org/2000/svg">
<g clip-path="url(#clip0_175_290)">
<path d="M164.294 42.869C164.294 42.869 156.059 45.3422 152.765 46.5788C149.47 47.8154 144.529 54.4107 142.882 61.0059C141.235 68.0134 139.588 74.6086 138.765 77.9062C137.529 84.5015 137.529 88.6235 138.353 91.9211C139.176 95.2187 142.47 97.6919 145.353 98.5163C146.176 98.9285 148.235 99.753 148.235 99.753H172.117L168.823 51.9375L164.294 42.869Z" fill="#4949FC"/>
<path d="M150.706 140.973H145.353V239.49H150.706V140.973Z" fill="#707070"/>
<path d="M206.294 140.973H200.941V239.49H206.294V140.973Z" fill="#707070"/>
<path d="M211.235 125.309C211.235 122.836 209.176 120.775 206.294 120.775H145.353C142.471 120.775 140.412 122.836 140.412 125.309L138.765 138.5C138.765 140.973 140.823 143.034 143.706 143.034H208.353C211.235 143.034 213.294 140.973 213.294 138.5L211.235 125.309Z" fill="#1E2020"/>
<path d="M195.588 143.034C195.588 143.034 178.294 149.217 171.294 147.156C164.294 145.095 174.177 129.844 174.177 129.844L191.059 130.668L195.588 143.034Z" fill="#F09F5B"/>
<path d="M198.47 98.1041C198.47 98.1041 203.823 112.531 206.706 117.478C209.588 122.012 209.588 132.317 207.118 137.263C204.647 141.798 173.765 129.844 173.765 129.844L172.529 100.577L198.47 98.1041Z" fill="#4949FC"/>
<path d="M195.588 143.034C195.588 143.034 210.412 139.737 207.529 124.073C205.882 117.478 197.647 123.249 197.647 123.249L181.176 125.31L195.588 143.034Z" fill="#4949FC"/>
<path d="M183.647 200.743C183.647 202.804 183.235 208.162 184.47 213.109C185.706 218.467 188.176 224.65 193.941 223.826C202.176 222.589 195.176 201.567 193.941 199.094C192.294 195.796 190.235 195.384 188.176 195.796C184.47 196.621 184.059 195.384 183.647 200.743Z" fill="#1E2020"/>
<path d="M169.235 216.406C169.235 216.406 167.588 229.185 168.824 234.131C170.471 239.077 171.294 241.551 174.588 241.551C179.118 241.551 180.765 236.604 180.765 231.246C180.765 226.299 180.765 219.704 179.118 216.406C178.294 212.696 169.235 216.406 169.235 216.406Z" fill="#1E2020"/>
<path d="M153.588 140.973C148.235 138.912 142.883 137.676 142.059 133.141C141.235 128.607 143.706 123.661 146.177 119.539C149.059 115.417 154 100.577 154 100.577H176.235L175.824 140.149L153.588 140.973Z" fill="#4949FC"/>
<path d="M158.941 143.859C158.118 147.981 160.177 158.286 163.471 171.476C165.941 180.957 170.059 203.628 169.647 207.338C169.235 211.048 169.235 218.88 169.235 222.177C169.235 225.475 169.235 229.597 174.588 229.597C179.941 229.597 179.941 221.765 179.53 217.231C178.706 212.696 177.471 205.277 177.471 201.155C177.471 197.033 178.294 176.423 178.294 168.591C177.883 160.759 174.177 135.202 174.177 135.202C174.177 135.202 159.353 141.798 158.941 143.859Z" fill="#F09F5B"/>
<path d="M192.294 195.796C190.235 192.499 188.588 162.408 188.588 162.408C188.588 162.408 186.529 131.905 184.47 129.432C182.823 126.958 168.412 126.958 160.588 132.317C153.176 137.676 153.588 138.5 153.588 141.385C153.588 141.385 164.706 143.446 170.882 142.21C169.647 152.103 175.412 168.591 177.059 173.125C179.529 179.72 183.647 190.025 183.647 194.972C184.059 201.155 184.47 216.406 191.47 215.17C198.47 213.521 195.176 200.743 192.294 195.796Z" fill="#FDB171"/>
<path d="M188.176 53.5863L175.823 58.5327L165.529 53.5863V100.577H188.176V53.5863Z" fill="white"/>
<path d="M169.647 33.8006C169.647 33.8006 169.235 39.9836 167.588 43.2813L175.824 59.3571V37.9226L169.647 33.8006Z" fill="#FDB171"/>
<path d="M182 33.8006C182 33.8006 182.412 39.9836 184.059 43.2813L175.824 59.3571V37.9226L182 33.8006Z" fill="#FDB171"/>
<path d="M182.412 36.686C182.412 35.8616 182.412 35.0372 182 34.2128V33.3884L175.824 37.5104L170.059 33.8006H169.647C169.647 34.625 169.647 36.2738 169.235 38.3348L168.824 39.9836C168.824 39.9836 169.647 42.0446 174.588 42.0446C179.118 42.0446 182.412 36.686 182.412 36.686Z" fill="#F09F5B"/>
<path d="M152.765 62.6547C156.059 63.8914 152.765 100.577 152.765 100.577H172.118L168.823 48.2277L152.765 62.6547Z" fill="#4949FC"/>
<path d="M185.294 33.8006C185.294 33.8006 186.529 32.564 186.941 32.1518L186.117 31.7396L185.294 33.8006Z" fill="#4F290F"/>
<path d="M166.765 33.8006C166.765 33.8006 165.529 32.564 165.118 32.1518L165.941 31.7396L166.765 33.8006Z" fill="#4F290F"/>
<path d="M177.882 3.70981C178.706 7.41963 176.235 9.06844 172.118 10.305C168.412 11.1295 165.118 11.1295 163.882 7.41963C163.059 3.70981 165.529 1.6488 169.235 0.412192C173.353 -0.412213 176.647 -1.03563e-05 177.882 3.70981Z" fill="#4F290F"/>
<path d="M187.765 25.5566C187.765 25.5566 189.412 18.1369 187.353 14.0149C185.294 9.48066 182 7.00745 175.824 7.00745C169.647 7.00745 166.353 9.48066 164.294 14.0149C162.235 18.1369 163.882 25.5566 163.882 25.5566C161 25.1444 161.824 28.0298 162.647 29.2664C163.471 30.503 163.471 30.503 163.882 31.7396C164.706 33.3884 165.941 32.1518 165.941 32.1518C166.765 34.2128 167.176 35.0372 170.471 37.9226C173.353 40.3958 174.176 40.3958 175.824 40.3958C177.471 40.3958 178.294 40.3958 181.176 37.9226C184.471 35.0372 184.882 34.625 185.706 32.1518C185.706 32.1518 186.941 33.3884 187.765 31.7396C188.176 30.503 188.176 30.503 189 29.2664C189.824 27.6176 190.647 24.7321 187.765 25.5566Z" fill="#FDB171"/>
<path d="M183.647 7.00742C177.059 3.7098 171.294 7.00742 171.294 7.00742C157.294 8.65623 162.235 25.5565 162.235 25.5565C162.647 25.1443 163.059 25.1443 163.882 25.1443C163.882 23.9077 165.118 22.2589 167.588 20.6101C170.471 18.9613 171.294 16.4881 171.294 16.4881C171.294 16.4881 173.765 21.0223 179.941 22.2589C186.118 23.4955 187.353 24.3199 187.765 25.5565C188.588 25.5565 189.412 25.5565 189.412 25.9687C189.412 25.9687 193.118 11.9538 183.647 7.00742Z" fill="#582D11"/>
<path d="M187.353 32.1518C187.353 32.564 186.941 32.9762 186.529 32.9762C186.117 32.9762 185.706 32.564 185.706 32.1518C185.706 31.7396 186.117 31.7396 186.529 31.7396C187.353 31.7396 187.353 32.1518 187.353 32.1518Z" fill="#D40000"/>
<path d="M164.294 32.1518C164.294 32.564 164.706 32.9762 164.706 32.9762C165.117 32.9762 165.529 32.564 165.529 32.1518C165.529 31.7396 165.117 31.7396 164.706 31.7396L164.294 32.1518Z" fill="#D40000"/>
<path d="M175.824 59.7693L167.588 43.2812L168.824 40.3958L165.53 41.2202L158.941 49.4643L165.53 50.7009L164.294 54.4107L175.824 59.7693Z" fill="#D8E9ED"/>
<path d="M187.353 42.869C187.353 42.869 195.588 45.3422 198.882 46.5788C202.176 47.8154 207.118 54.4107 208.765 61.0059C210.412 68.0134 212.47 75.433 212.882 78.7306C214.118 84.5015 214.118 88.6235 213.294 91.9211C212.47 95.2187 209.176 97.6919 206.294 98.5163C205.47 98.9285 203.412 99.753 203.412 99.753H179.529L182.823 51.9375L187.353 42.869Z" fill="#4949FC"/>
<path d="M175.824 59.7693L184.059 43.2812L182.824 40.3958L186.118 41.2202L192.706 49.4643L186.118 50.7009L187.353 54.4107L175.824 59.7693Z" fill="#D8E9ED"/>
<path d="M194.765 90.2723C194.765 90.2723 202.176 86.5625 202.176 86.1503C202.588 85.7381 197.647 65.9524 197.647 65.9524C197.647 65.9524 198.882 82.4405 199.294 84.0893C199.294 85.3259 192.294 90.2723 192.294 90.2723H194.765Z" fill="#3357BD"/>
<path d="M156.882 90.2723C156.882 90.2723 149.471 86.5625 149.471 86.1503C149.059 85.7381 154 65.9524 154 65.9524C154 65.9524 152.353 82.4405 152.353 84.0893C152.353 85.3259 159.353 90.2723 159.353 90.2723H156.882Z" fill="#3357BD"/>
<path d="M151.529 100.165C151.529 100.165 149.059 100.577 148.647 99.3408C147.824 98.1042 146.588 97.692 145.353 97.692C145.353 97.692 145.765 93.9822 149.471 92.7456C153.177 91.5089 157.706 89.4479 158.118 89.8601C158.53 90.6845 151.529 100.165 151.529 100.165Z" fill="#EDAB72"/>
<path d="M159.765 90.2723C161.412 91.5089 165.53 95.631 164.294 97.2798C163.059 98.9286 162.235 98.5164 161.824 98.9286C161.412 99.753 161 100.165 160.177 100.577C159.353 101.402 157.706 100.99 156.882 101.814C156.059 102.226 154.412 103.463 153.177 101.814C151.53 100.165 149.882 97.2798 149.471 96.4554C149.471 95.631 149.882 94.3944 151.118 93.9822C151.941 93.5699 152.765 92.3333 153.177 92.3333C154 91.9211 154.824 91.9211 155.235 91.0967C155.647 90.6845 156.882 90.6845 156.882 90.2723C157.294 90.6845 158.53 89.4479 159.765 90.2723Z" fill="#FDB171"/>
<path d="M27.1763 159.522L43.6469 141.798C43.6469 141.798 43.6469 141.385 44.0586 141.385L45.7057 141.798C45.7057 141.798 64.2351 145.507 73.7057 148.805C81.941 151.69 81.941 154.576 82.3527 159.935C82.7645 166.942 79.4704 206.101 79.4704 206.513C76.1763 206.101 71.6469 206.513 67.941 207.338C62.9998 191.262 65.8822 174.362 67.941 164.469C67.941 164.469 59.2939 162.408 29.2351 159.11C28.8233 159.935 27.9998 159.522 27.1763 159.522Z" fill="#F09F5B"/>
<path d="M79.4702 207.338C79.8819 223.002 78.2349 239.902 82.7643 244.024C82.7643 244.024 79.0584 246.085 76.9996 245.26C73.2937 243.199 69.1761 230.009 69.1761 230.009C69.1761 230.009 71.6467 224.65 69.9996 214.345C69.5878 211.46 68.7643 209.811 68.3525 208.574C71.6467 207.338 76.1761 206.926 79.4702 207.338Z" fill="#F09F5B"/>
<path d="M43.2355 241.963C43.2355 244.024 41.5884 245.673 39.5296 245.673C37.4708 245.673 35.8237 244.024 35.8237 241.963V162.408C35.8237 160.347 37.4708 158.698 39.5296 158.698C41.5884 158.698 43.2355 160.347 43.2355 162.408V241.963Z" fill="#ABABAB"/>
<path d="M15.2353 165.705C15.2353 169.003 12.7647 171.476 9.47059 171.476C6.17647 171.476 3.70588 169.003 3.70588 165.705L0 77.9063C0 74.6086 2.47059 72.1354 5.76471 72.1354C9.05882 72.1354 11.5294 74.6086 11.5294 77.9063L15.2353 165.705Z" fill="#878787"/>
<path d="M69.1766 165.293C69.1766 161.996 66.2943 159.11 63.0002 159.11H9.88253C6.58841 159.11 3.70605 161.996 3.70605 165.293C3.70605 168.591 6.58841 171.476 9.88253 171.476H63.0002C66.2943 171.064 69.1766 168.591 69.1766 165.293Z" fill="#707070"/>
<path d="M54.7645 243.199C54.7645 240.726 52.7057 239.077 50.6468 239.077H27.1762C24.7057 239.077 23.0586 241.138 23.0586 243.199C23.0586 245.673 25.1174 247.321 27.1762 247.321H50.6468C53.1174 247.734 54.7645 245.673 54.7645 243.199Z" fill="#707070"/>
<path d="M69.1765 229.597C69.1765 229.597 65.8824 232.482 66.7059 237.429C67.1177 241.963 67.9412 247.734 67.5294 249.382L69.5883 249.795L70 239.49C70 239.49 73.7059 242.787 74.5294 245.673C75.353 248.146 73.7059 249.795 84 250.619C88.9412 251.031 93.0588 250.619 92.2353 248.558C91 245.26 88.9412 247.734 83.5882 244.436C82.7647 243.612 77.4118 244.848 69.1765 229.597Z" fill="black"/>
<path d="M18.1179 139.737L30.4708 140.973L45.7061 142.21C45.7061 142.21 68.3532 148.805 79.059 152.103C87.7061 154.576 87.7061 157.461 88.5296 162.82C89.3531 169.415 88.5296 208.987 88.5296 209.811C85.2355 209.811 80.7061 210.635 77.0002 211.46C71.2355 195.796 73.2943 178.896 74.5296 169.003C74.5296 169.003 65.8826 167.354 35.412 166.118C4.52962 164.469 18.1179 139.737 18.1179 139.737Z" fill="#FDB171"/>
<path d="M88.5298 209.399C89.7651 225.063 89.7651 241.963 94.2945 245.673C94.2945 245.673 90.5886 248.146 88.5298 247.321C84.8239 245.673 79.4709 232.482 79.4709 232.482C79.4709 232.482 81.5298 226.711 79.4709 216.818C78.6474 213.933 78.2356 212.696 77.4121 211.048C80.2945 210.223 84.8239 209.399 88.5298 209.399Z" fill="#FDB171"/>
<path d="M79.4705 232.482C79.4705 232.482 76.5881 235.78 77.4116 240.314C78.2352 244.848 79.0587 250.207 79.0587 251.856H81.1175L80.7058 241.551C80.7058 241.551 84.4116 244.848 85.6469 247.321C86.4705 249.795 85.2352 251.443 95.5293 251.443C100.47 251.443 104.588 251.031 103.765 248.97C102.529 245.673 100.47 248.558 94.7058 245.26C93.8822 245.673 88.9411 247.321 79.4705 232.482Z" fill="#4949FC"/>
<path d="M69.5882 167.766C67.9411 158.698 72.4705 148.805 72.4705 148.805C62.5882 145.507 45.7058 142.21 45.7058 142.21L45.294 140.149C45.294 140.149 37.4705 140.561 30.4705 140.561C23.8823 140.561 18.1176 139.324 18.1176 139.324C18.1176 139.324 4.52934 164.057 35.8235 165.293C53.5293 166.53 64.2352 167.354 69.5882 167.766Z" fill="#1E2020"/>
<path d="M116.529 112.531H110.353V246.497H116.529V112.531Z" fill="#1E2020"/>
<path d="M252 112.531H245.824V246.497H252V112.531Z" fill="#1E2020"/>
<path d="M318.706 155.4L302.236 137.676C302.236 137.676 302.236 137.263 301.824 137.263L300.177 137.676C300.177 137.676 281.647 141.385 272.177 144.683C263.942 147.568 263.942 150.454 263.53 155.813C263.118 162.82 266.412 201.979 266.412 202.391C269.706 201.979 274.236 202.391 277.942 203.216C282.883 187.14 280 170.24 277.942 160.347C277.942 160.347 286.589 158.286 316.647 154.988C317.059 155.813 317.883 155.813 318.706 155.4Z" fill="#3357BD"/>
<path d="M266 203.216C265.588 218.88 267.235 235.78 262.706 239.902C262.706 239.902 266.412 241.963 268.471 241.138C272.177 239.077 276.294 225.887 276.294 225.887C276.294 225.887 273.824 220.528 275.471 210.223C275.883 207.338 276.706 205.689 277.118 204.452C274.235 203.216 269.706 202.804 266 203.216Z" fill="#F09F5B"/>
<path d="M302.235 237.841C302.235 239.902 303.882 241.551 305.941 241.551C308 241.551 309.647 239.902 309.647 237.841V158.286C309.647 156.225 308 154.576 305.941 154.576C303.882 154.576 302.235 156.225 302.235 158.286V237.841Z" fill="#ABABAB"/>
<path d="M330.647 161.583C330.647 164.881 333.118 167.354 336.412 167.354C339.706 167.354 342.177 164.881 342.177 161.583L345.883 73.7843C345.883 70.4866 343.412 68.0134 340.118 68.0134C336.824 68.0134 334.353 70.4866 334.353 73.7843L330.647 161.583Z" fill="#878787"/>
<path d="M276.706 161.171C276.706 157.874 279.588 154.988 282.883 154.988H336C339.294 154.988 342.177 157.874 342.177 161.171C342.177 164.469 339.294 167.354 336 167.354H282.883C279.177 167.354 276.706 164.469 276.706 161.171Z" fill="#707070"/>
<path d="M290.706 239.077C290.706 236.604 292.765 234.955 294.824 234.955H318.294C320.765 234.955 322.412 237.016 322.412 239.077C322.412 241.551 320.353 243.199 318.294 243.199H294.824C292.765 243.612 290.706 241.551 290.706 239.077Z" fill="#707070"/>
<path d="M276.706 225.475C276.706 225.475 280 228.36 279.176 233.307C278.764 237.841 277.941 243.612 278.353 245.26L276.294 245.673V234.955C276.294 234.955 272.588 238.253 271.764 241.138C270.941 243.612 272.588 245.26 262.294 246.085C257.353 246.497 253.235 246.085 254.059 244.024C255.294 240.726 257.353 243.199 262.706 239.902C262.706 239.902 268.059 240.726 276.706 225.475Z" fill="black"/>
<path d="M327.765 135.615L315.412 136.851L300.177 138.088C300.177 138.088 277.53 144.683 266.824 147.981C258.177 150.454 258.177 153.339 257.353 158.698C256.53 165.293 257.353 204.865 257.353 205.689C260.647 205.689 265.177 206.513 268.883 207.338C274.647 191.674 272.589 174.774 271.353 164.881C271.353 164.881 280 163.232 310.471 161.996C341.353 160.347 327.765 135.615 327.765 135.615Z" fill="#4949FC"/>
<path d="M257.353 205.277C256.118 220.941 256.118 237.841 251.588 241.551C251.588 241.551 255.294 244.024 257.353 243.199C261.059 241.551 266.412 228.36 266.412 228.36C266.412 228.36 264.353 223.002 266.412 212.696C267.235 209.811 267.647 208.574 268.471 206.926C265.177 206.101 260.647 205.277 257.353 205.277Z" fill="#FDB171"/>
<path d="M266.412 228.36C266.412 228.36 269.294 231.658 268.471 236.192C267.647 240.726 266.824 246.085 266.824 247.734H264.765L265.176 237.429C265.176 237.429 261.471 240.726 260.235 243.199C259.412 245.673 260.647 247.321 250.353 247.321C245.412 247.321 241.294 246.909 242.118 244.848C243.353 241.551 245.412 244.436 251.176 241.138C251.588 241.551 256.941 243.199 266.412 228.36Z" fill="#4949FC"/>
<path d="M310.059 54.8229C310.059 54.8229 306.353 57.2961 303.882 65.5402C302.647 69.25 303.882 75.4331 303.882 81.6161C303.882 86.5625 305.53 91.9212 304.294 96.0432C301.412 104.287 304.294 110.882 304.294 110.882C304.294 110.882 301.824 107.173 303.882 102.226C304.706 100.577 306.765 97.2798 306.765 91.9212C306.765 86.5625 306.765 82.4405 308.412 79.1429C310.059 75.8453 309.647 72.1354 309.235 68.8378C308.824 65.5402 310.882 58.1206 311.706 57.7084C312.53 56.8839 310.882 56.8839 310.882 56.8839L310.059 54.8229Z" fill="#713C1F"/>
<path d="M334.353 55.2351C334.353 55.2351 337.647 59.3571 336.823 68.8378C336.412 73.372 334.765 80.7917 331.882 86.9747C329.823 92.3333 325.294 97.2798 325.294 101.814C324.882 111.707 316.647 116.653 316.647 116.653C316.647 116.653 320.353 113.768 320.353 107.173C320.353 105.112 318.706 100.99 321.588 95.6309C324.059 89.8601 329 84.5015 328.588 80.7917C328.176 77.0818 328.176 73.372 329.823 70.4866C331.47 67.189 329 62.2425 328.588 61.0059C327.765 60.1815 333.118 56.4717 333.118 56.4717L334.353 55.2351Z" fill="#713C1F"/>
<path d="M325.706 64.3036C325.706 64.3036 325.294 69.25 325.706 72.5476C326.118 75.8452 324.059 77.494 322.824 79.9673C321.588 82.4405 322.412 83.2649 322.824 85.7381C323.235 88.2113 320.765 89.8601 320.353 91.5089C319.941 93.1577 320.353 93.9821 319.941 94.8065C319.529 96.0432 317.059 100.577 318.706 103.463C320.353 106.348 325.706 90.2723 325.706 90.2723L328.588 77.494C328.588 77.494 333.118 66.3646 332.294 65.9524C331.471 65.5402 329 61.4182 329 61.4182L325.706 64.3036Z" fill="#713C1F"/>
<path d="M304.706 70.8988C304.706 75.0209 308 78.3185 312.118 78.3185C316.235 78.3185 319.53 75.0209 319.53 70.8988C319.53 66.7768 316.235 63.4792 312.118 63.4792C308 63.4792 304.706 66.7768 304.706 70.8988Z" fill="#713C1F"/>
<path d="M309.647 76.6696C310.882 76.2574 312.118 75.8452 313.353 75.433C315.823 74.1964 315.412 67.189 315.412 67.189H325.706C325.706 67.189 325.294 74.1964 327.765 75.433C330.235 76.6696 333.941 77.0818 336.412 77.9062C338.882 78.7306 336.412 80.3794 337.235 85.3259C337.647 89.0357 337.647 93.9821 337.647 93.9821H309.647V76.6696Z" fill="#FDB171"/>
<path d="M307.176 77.494C309.235 77.0818 311.706 76.6696 313.353 75.433C315.823 74.1964 315.412 67.189 315.412 67.189H325.706C325.706 67.189 325.294 74.1964 327.765 75.433C330.235 76.6696 333.941 77.0818 336.412 77.9062C338.882 78.7306 336.412 80.3794 337.235 85.3259C337.647 89.0357 337.647 93.9821 337.647 93.9821H312.117C310.882 94.8065 310.059 95.2187 308.412 95.6309C308 95.6309 307.588 96.0431 307.176 96.0431V77.494Z" fill="#FDB171"/>
<path d="M326.117 73.3721C323.235 72.9599 317.882 70.8988 315.412 69.25V68.8378H320.765H326.117C325.706 67.6012 325.294 70.8988 326.117 73.3721Z" fill="#F09F5B"/>
<path d="M337.647 92.3333C337.647 92.3333 338.471 86.1503 337.235 82.8527C336.412 80.7917 336.412 78.3185 334.353 77.4941C333.529 77.0818 330.235 76.2574 329 76.2574C327.353 79.5551 309.647 78.7307 310.882 76.2574C309.647 76.6696 306.765 76.6696 305.118 78.3185C303.471 80.3795 299.765 86.5625 298.529 91.5089C297.294 96.4554 298.941 98.5164 300.588 106.348C301 108.821 302.647 114.18 302.647 116.653C302.647 124.897 299.765 137.263 299.765 137.676C318.706 141.798 327.353 135.202 327.353 135.202L325.294 130.668C324.059 124.485 328.177 111.707 332.706 104.287C335.588 99.753 336.824 96.8676 337.235 94.3944V92.3333H337.647Z" fill="#4985E2"/>
<path d="M307.176 52.3497C307.176 52.3497 305.941 47.4033 307.176 43.6935C308.412 39.5714 312.118 34.625 319.529 35.0372C327.353 35.4494 307.176 52.3497 307.176 52.3497Z" fill="#713C1F"/>
<path d="M308 54.8229C307.177 55.6473 307.588 56.8839 308.412 57.7083L310.059 58.9449C310.883 59.7693 312.118 59.3571 312.53 58.9449C313.353 58.1205 312.941 56.8839 312.53 56.0595L310.883 54.8229C310.059 53.9985 308.824 53.9985 308 54.8229Z" fill="#C90E00"/>
<path d="M309.235 44.9301C311.706 39.1592 315.824 33.3884 324.059 35.4494C332.706 37.5104 336 45.7545 335.177 51.1131C334.353 56.0595 332.706 58.945 332.294 59.7694C331.882 60.5938 326.941 62.6548 325.706 65.5402C324.471 68.4256 309.235 44.9301 309.235 44.9301Z" fill="#713C1F"/>
<path d="M327.353 61.006C326.53 62.6548 325.706 65.128 325.294 67.6012C324.471 68.0134 324.059 68.4256 323.235 68.8378C317.471 70.8988 313.353 68.4256 313.353 68.4256C313.353 68.4256 313.353 69.25 314.177 68.0134L327.353 61.006Z" fill="#F09F5B"/>
<path d="M328.177 60.5937C327.353 62.2425 326.53 64.7158 323.235 66.3646C319.941 68.4256 315 70.4866 313.353 70.4866C311.706 70.0744 310.883 70.4866 309.235 66.3646C307.588 62.2425 306.353 60.1815 306.765 56.4717C307.177 52.7619 306.765 44.5178 312.118 42.4568C315.824 40.808 321.588 42.869 324.059 46.1666C326.53 49.8765 326.53 51.1131 326.941 56.0595C326.941 56.0595 329.824 53.1741 331.059 53.1741C331.883 53.1741 332.706 53.9985 331.883 56.0595C331.059 58.1205 330.647 57.7083 330.235 58.5327C329.824 59.7693 329.824 60.5937 329 61.0059C328.177 61.4181 328.177 60.5937 328.177 60.5937Z" fill="#FDB171"/>
<path d="M314.588 41.6324C314.588 41.6324 318.294 53.9985 326.118 57.2961L331.471 48.2277L325.294 40.3958L314.588 41.6324Z" fill="#713C1F"/>
<path d="M316.235 42.0446C316.235 42.0446 310.882 47.4033 306.765 48.6399C306.765 48.6399 308.412 39.9836 314.176 37.0982L316.235 42.0446Z" fill="#713C1F"/>
<path d="M73.2941 138.088H67.1177V277H73.2941V138.088Z" fill="#1E2020"/>
<path d="M295.235 144.683H289.059V277H295.235V144.683Z" fill="#1E2020"/>
<path d="M276.294 118.714C270.941 115.417 261.47 112.531 255.294 112.531H191.059C184.882 112.531 174.588 112.531 168.412 112.531H104.588C98.4116 112.531 88.941 115.417 83.588 118.714L51.4704 138.912C46.1175 142.21 46.941 145.095 53.1175 145.095H109.941C116.117 145.095 125.588 141.798 130.529 138.088L132.588 136.439C137.529 132.729 135.47 129.432 141.647 129.432H168.823C175 129.432 185.294 129.432 191.47 129.432H218.647C224.823 129.432 222.764 132.729 227.706 136.439L229.764 138.088C234.706 141.798 244.176 145.095 250.353 145.095H307.176C313.353 145.095 314.176 142.21 308.823 138.912L276.294 118.714Z" fill="#707070"/>
<path d="M308 126.958H268.471V140.973H308V126.958Z" fill="#707070"/>
<path d="M47.7646 131.08V143.034H92.647V132.729L47.7646 131.08Z" fill="#707070"/>
<path d="M276.294 106.348C270.941 103.051 261.47 100.165 255.294 100.165H191.059C184.882 100.165 174.588 100.165 168.412 100.165H104.588C98.4116 100.165 88.941 103.051 83.588 106.348L51.4704 126.546C46.1175 129.844 46.941 132.729 53.1175 132.729H109.941C116.117 132.729 125.588 129.432 130.529 125.722L132.588 124.073C137.529 120.363 135.47 117.065 141.647 117.065H168.823C175 117.065 185.294 117.065 191.47 117.065H218.647C224.823 117.065 222.764 120.363 227.706 124.073L229.764 125.722C234.706 129.432 244.176 132.729 250.353 132.729H307.176C313.353 132.729 314.176 129.844 308.823 126.546L276.294 106.348Z" fill="#ABABAB"/>
<path d="M276.294 110.47C276.294 110.47 273 108.821 271.353 108.409C269.706 107.997 269.706 107.997 268.059 108.409C266.412 108.821 264.765 109.234 264.353 108.409C263.941 107.997 262.706 107.585 262.706 106.76C262.706 105.936 261.059 105.936 260.647 105.112C260.647 104.287 259 103.463 259 102.638C259 101.402 260.235 101.402 263.941 101.402C267.235 101.402 269.294 102.226 270.118 102.638C270.941 103.463 275.471 104.699 275.471 104.699L276.294 110.47Z" fill="#FDB171"/>
<path d="M259.412 110.058C259.824 110.058 260.235 110.058 260.235 109.646L267.647 98.9286C268.059 98.5164 267.647 98.1042 267.647 98.1042C267.235 98.1042 266.824 98.1042 266.824 98.5164L259.412 109.234C259 109.234 259 109.646 259.412 110.058Z" fill="#3357BD"/>
<path d="M266.824 103.875C266 103.875 262.294 102.226 261.882 103.051C261.471 103.875 264.353 105.112 264.765 105.524C265.177 105.936 267.647 106.348 267.647 106.348L266.824 103.875Z" fill="#FDB171"/>
<path d="M307.588 77.0818C307.176 77.4941 304.706 87.3869 302.235 91.5089C299.765 95.631 297.294 104.287 297.294 104.287L274.235 103.875L273 109.646L300.176 114.18L311.294 93.9821L307.588 77.0818Z" fill="#3357BD"/>
<path d="M271.353 110.882H245.412V112.943H271.353V110.882Z" fill="white"/>
<path d="M269.706 110.882H246.647V112.119H269.706V110.882Z" fill="white"/>
<path d="M287.823 108.409C287.823 108.409 284.117 107.997 282.882 107.585C281.647 107.173 270.941 109.234 270.529 112.119C270.117 115.004 273.412 114.18 276.294 113.768C279.176 113.356 287.823 112.943 289.47 113.356C290.706 113.356 287.823 108.409 287.823 108.409Z" fill="#FDB171"/>
<path d="M303.059 117.065C303.059 117.89 303.059 119.126 303.059 119.951C310.882 121.188 319.118 120.775 326.941 121.188C328.177 115.417 331.059 108.821 333.529 104.287C336.412 99.753 337.647 96.8676 338.059 94.3944V92.3333H337.647C337.647 92.3333 338.471 86.1503 337.235 82.8527C336.412 80.7917 336.412 78.3185 334.353 77.4941C333.529 77.0818 330.235 76.2574 329 76.2574C327.353 79.5551 309.647 78.7307 310.882 76.2574C309.647 76.6696 306.765 76.6696 305.118 78.3185C303.471 80.3795 299.765 86.5625 298.529 91.5089C297.294 96.4554 298.941 98.5164 300.588 106.348C301.412 109.234 302.647 114.592 303.059 117.065Z" fill="#4985E2"/>
<path d="M303.059 117.065C303.059 117.065 303.059 118.302 303.059 119.951L325.706 126.546C325.706 126.546 327.353 119.126 328.588 115.829C329.412 112.943 303.059 117.065 303.059 117.065Z" fill="#3357BD"/>
<path d="M328.176 87.7991C328.176 87.7991 320.353 104.699 318.294 107.585C317.059 109.234 301 107.585 301 107.585L303.471 115.417L323.235 116.653L328.176 87.7991Z" fill="#3357BD"/>
<path d="M332.706 77.0818C336.412 77.9063 344.235 77.9063 340.529 93.5699C336.823 109.234 326.941 121.188 324.882 123.661C322.823 126.134 284.529 112.943 284.529 112.943L285.765 105.524L319.118 110.47C319.118 110.47 322.412 109.234 325.706 96.0432C328.588 85.7381 332.706 77.0818 332.706 77.0818Z" fill="#4985E2"/>
<path d="M14.4119 59.3572C14.4119 59.3572 11.5295 63.4792 12.3531 72.9599C12.7648 77.4941 14.4119 84.9137 16.4707 91.0968C18.5295 96.4554 22.2354 101.402 22.2354 105.936C22.6472 115.829 29.6472 120.775 29.6472 120.775C29.6472 120.775 26.3531 117.89 26.7648 111.295C26.7648 109.234 28.0001 105.112 25.9413 99.753C23.8825 93.9822 19.7648 88.6235 19.7648 84.9137C20.1766 81.2039 20.1766 77.4941 18.9413 74.6087C17.2942 71.311 19.3531 66.3646 20.1766 65.128C20.5884 64.3036 16.0589 60.5938 16.0589 60.5938L14.4119 59.3572Z" fill="#37120B"/>
<path d="M21.412 64.7158C21.412 64.7158 21.8238 70.0745 21.412 73.7843C21.0003 77.4941 22.6473 79.1429 23.8826 81.6161C25.1179 84.0893 24.2944 84.9137 23.8826 87.7992C23.4708 90.6846 25.5297 92.3334 25.9414 94.3944C26.3532 96.4554 25.9414 96.8676 26.3532 98.1042C26.765 99.3408 28.8238 104.287 27.1767 107.585C25.9414 110.47 21.0003 93.1578 21.0003 93.1578L18.5297 79.1429C18.5297 79.1429 14.8238 67.189 15.2356 66.3646C15.6473 65.5402 18.1179 61.4182 18.1179 61.4182L21.412 64.7158Z" fill="#37120B"/>
<path d="M36.2354 80.7917C35.0001 80.3795 33.7648 79.9673 32.5295 79.5551C30.0589 78.3185 30.4706 71.311 30.4706 71.311H20.1765C20.1765 71.311 20.5883 78.3185 18.1177 79.5551C15.6471 80.7917 11.9412 81.2039 9.47065 82.0283C7.00006 82.8527 9.47065 84.5015 8.64712 89.4479C8.23535 92.7456 8.23535 97.692 8.23535 97.692H36.2354V80.7917Z" fill="#FDB171"/>
<path d="M38.7059 81.6161C36.6471 81.2039 34.1765 80.7917 32.5295 79.5551C30.0589 78.3185 30.4706 71.311 30.4706 71.311H20.1765C20.1765 71.311 20.5883 78.3185 18.1177 79.5551C15.6471 80.7917 11.9412 81.2039 9.47065 82.0283C7.00006 82.8527 9.47065 84.5015 8.64712 89.4479C8.23535 92.7456 8.23535 97.692 8.23535 97.692H33.7648C35.0001 98.5164 35.8236 98.9286 37.4706 99.3408C37.8824 99.3408 38.2942 99.753 38.7059 99.753V81.6161Z" fill="#FDB171"/>
<path d="M19.7646 77.4941C22.647 77.0819 27.9999 75.0208 30.4705 73.372V72.9598C30.4705 72.9598 30.4705 72.9598 30.4705 72.5476H25.5294H20.1764C20.1764 71.7232 20.1764 75.0208 19.7646 77.4941Z" fill="#F09F5B"/>
<path d="M8.23522 96.4553C8.23522 96.4553 7.41169 90.2723 8.64698 86.9747C9.47051 84.9137 9.47051 82.4405 11.5293 81.6161C12.3529 81.2039 15.647 80.3795 16.8823 80.3795C18.5293 83.6771 36.2352 82.8527 34.9999 80.3795C36.2352 80.7917 39.1176 80.7917 40.7646 82.4405C42.4117 84.5015 46.1176 90.6845 47.3529 95.6309C48.5882 100.577 46.9411 102.638 45.294 110.47C44.8823 112.943 43.2352 118.302 43.2352 120.775C43.2352 129.019 46.1176 141.385 46.1176 141.798C27.1764 145.92 18.5293 139.324 18.5293 139.324L20.5882 134.79C21.8235 128.607 17.7058 115.829 13.1764 108.409C10.294 103.875 9.05875 100.99 8.64698 98.5164V96.4553H8.23522Z" fill="#4949FC"/>
<path d="M38.7058 56.4717C38.7058 56.4717 39.9411 51.5253 38.7058 47.8155C37.4705 43.6934 33.7646 38.747 26.3529 39.1592C18.5293 39.5714 38.7058 56.4717 38.7058 56.4717Z" fill="#37120B"/>
<path d="M37.4707 58.945C38.2942 59.7694 37.8825 61.006 37.0589 61.8304L35.4119 63.067C34.5883 63.8914 33.353 63.4792 32.9413 63.067C32.1178 62.2426 32.5295 61.006 32.9413 60.1816L34.5883 58.945C35.8236 57.7083 37.0589 58.1205 37.4707 58.945Z" fill="#C90E00"/>
<path d="M36.647 49.0521C34.1764 43.2812 30.0588 37.5104 21.8235 39.5714C13.1764 41.6324 9.88229 49.8765 10.7058 55.2351C11.5293 60.1815 13.1764 63.067 13.5882 63.8914C13.9999 64.7158 18.9411 66.7768 20.1764 69.6622C21.4117 72.5476 36.647 49.0521 36.647 49.0521Z" fill="#37120B"/>
<path d="M18.1177 64.7158C18.9412 66.3646 19.7647 68.8378 20.1765 71.311C21 71.7232 21.4118 72.1354 22.2353 72.5476C28 74.6086 32.1177 72.1354 32.1177 72.1354C32.1177 72.1354 32.1177 72.9598 31.2941 71.7232L18.1177 64.7158Z" fill="#F09F5B"/>
<path d="M17.7057 64.7158C18.5292 66.3646 19.3527 68.8378 22.6469 70.4866C25.941 72.5477 30.8822 74.6087 32.5292 74.6087C34.1763 74.1965 34.9998 74.6087 36.6469 70.4866C38.2939 66.3646 39.5292 64.3036 39.1175 60.5938C38.7057 56.884 39.1175 48.6399 33.7645 46.5789C30.0586 44.9301 24.2939 46.9911 21.8233 50.2887C19.3528 53.9985 19.3527 55.2351 18.941 60.1816C18.941 60.1816 16.0586 57.2962 14.8233 57.2962C13.9998 57.2962 13.1763 58.1206 13.9998 60.1816C14.8233 62.2426 15.2351 61.8304 15.6469 62.6548C16.0586 63.8914 16.0586 64.7158 16.8822 65.128C17.7057 65.5402 17.7057 64.7158 17.7057 64.7158Z" fill="#FDB171"/>
<path d="M30.8824 45.7545C30.8824 45.7545 27.1765 58.1206 19.3529 61.4182L14 52.3497L20.5882 44.5179L30.8824 45.7545Z" fill="#37120B"/>
<path d="M29.647 46.1666C29.647 46.1666 34.9999 51.5253 39.1176 52.7619C39.1176 52.7619 37.4705 44.1056 31.7058 41.2202L29.647 46.1666Z" fill="#37120B"/>
<path d="M69.5884 114.592C69.5884 114.592 72.8825 112.943 74.5296 112.531C76.1766 112.119 76.1766 112.119 77.8237 112.531C79.4707 112.943 81.1178 113.356 81.5296 112.531C81.9413 112.119 83.1766 111.707 83.1766 110.882C83.1766 110.058 84.8237 110.058 85.2354 109.234C85.2354 108.409 86.8825 107.585 86.8825 106.76C86.8825 105.524 85.6472 105.524 81.9413 105.524C78.6472 105.524 76.5884 106.348 75.7648 106.76C74.9413 107.585 70.4119 108.821 70.4119 108.821L69.5884 114.592Z" fill="#FDB171"/>
<path d="M86.4705 114.18C86.0588 114.18 85.647 114.18 85.647 113.768L78.2353 103.051C77.8235 102.638 78.2353 102.226 78.2353 102.226C78.647 102.226 79.0588 102.226 79.0588 102.638L86.4705 113.356C86.8823 113.356 86.8823 113.768 86.4705 114.18Z" fill="#3357BD"/>
<path d="M78.6473 107.997C79.4708 107.997 83.1767 106.348 83.5884 107.173C84.0002 107.997 81.1179 109.234 80.7061 109.646C80.2943 110.058 77.8237 110.47 77.8237 110.47L78.6473 107.997Z" fill="#FDB171"/>
<path d="M37.8821 81.2039C38.2939 81.6161 40.7645 91.5089 43.2351 95.6309C45.7057 99.753 48.1763 108.409 48.1763 108.409L71.2351 107.997L72.4704 113.768L45.2939 117.89L34.1763 97.692L37.8821 81.2039Z" fill="#3357BD"/>
<path d="M100.47 114.592H74.5293V116.653H100.47V114.592Z" fill="white"/>
<path d="M99.2351 114.592H76.1763V115.829H99.2351V114.592Z" fill="white"/>
<path d="M58.0589 112.531C58.0589 112.531 61.7648 112.119 63.0001 111.707C64.2354 111.295 74.9413 113.356 75.353 116.241C75.7648 119.127 72.4707 118.302 69.5883 117.89C66.706 117.478 58.0589 117.066 56.4119 117.478C54.7648 117.478 58.0589 112.531 58.0589 112.531Z" fill="#FDB171"/>
<path d="M42.8237 121.187C42.8237 122.012 42.8237 123.249 42.8237 124.073C35.0002 125.31 26.7649 124.897 18.9414 125.31C17.7061 119.539 14.8237 112.943 12.3531 108.409C9.47079 103.875 8.2355 100.99 7.82373 98.5164V96.4553H8.2355C8.2355 96.4553 7.41197 90.2723 8.64726 86.9747C9.47079 84.9137 9.47079 82.4405 11.5296 81.6161C12.3531 81.2039 15.6473 80.3795 16.8826 80.3795C18.5296 83.6771 36.2355 82.8527 35.0002 80.3795C36.2355 80.7917 39.1178 80.7917 40.7649 82.4405C42.412 84.5015 46.1178 90.6845 47.3531 95.6309C48.5884 100.577 46.9414 102.638 45.2943 110.47C44.4708 113.356 42.8237 118.714 42.8237 121.187Z" fill="#4949FC"/>
<path d="M42.8237 121.188C42.8237 121.188 42.8237 122.424 42.8237 124.073L20.1767 130.668C20.1767 130.668 18.5296 123.249 17.2943 119.951C16.4708 117.065 42.8237 121.188 42.8237 121.188Z" fill="#3357BD"/>
<path d="M17.2939 91.9211C17.2939 91.9211 25.1175 108.821 27.1763 111.707C28.4116 113.356 44.4704 111.707 44.4704 111.707L41.9998 119.539L22.2351 120.775L17.2939 91.9211Z" fill="#3357BD"/>
<path d="M13.1765 81.2039C9.47061 82.0283 1.64708 82.0283 5.35296 97.692C9.05885 113.356 18.9412 125.31 21 127.783C23.0588 130.256 61.353 117.065 61.353 117.065L60.1177 109.646L26.7647 114.592C26.7647 114.592 23.4706 113.356 20.1765 100.165C17.2941 89.8601 13.1765 81.2039 13.1765 81.2039Z" fill="#4949FC"/>
<path d="M21.4116 83.6771C21.4116 83.6771 34.9999 91.9211 37.8822 102.226C37.8822 102.226 33.7646 84.0893 34.9999 80.7917L21.4116 83.6771Z" fill="#B4D1D7"/>
<path d="M18.9412 78.3185L30.0589 82.0283L28.8236 86.9747L15.2354 80.3795L17.2942 77.9063L19.7648 76.6697L18.9412 78.3185Z" fill="#D8E9ED"/>
<path d="M30.0586 82.0282L32.5292 79.555C32.5292 79.555 32.1174 79.1428 31.7057 78.7306C31.7057 78.3184 31.2939 77.494 31.2939 77.494L34.1762 78.7306L34.9998 80.7916L34.1762 86.5625L30.0586 82.0282Z" fill="#D8E9ED"/>
<path d="M293.177 123.248C293.177 122.012 291.941 120.775 290.294 120.775H260.235C258.588 120.775 257.353 122.012 257.353 123.248C257.353 124.485 258.588 125.722 260.235 125.722H290.294C291.941 125.722 293.177 124.485 293.177 123.248Z" fill="white"/>
<path d="M263.118 122.836H287.823C289.059 122.836 289.882 122.012 289.882 120.775H260.647C260.647 122.012 261.882 122.836 263.118 122.836Z" fill="#D8E9ED"/>
<path d="M290.294 124.485H260.235C259 124.485 257.765 123.661 257.765 122.836V123.249C257.765 124.485 259 125.722 260.647 125.722H290.706C292.353 125.722 293.588 124.485 293.588 123.249V122.836C292.765 123.661 291.529 124.485 290.294 124.485Z" fill="#B4D1D7"/>
<path d="M259.824 122.012C259.824 123.249 259 124.073 257.765 124.073C256.53 124.073 255.706 123.249 255.706 122.012L248.706 84.0893C248.706 82.8527 249.53 82.0283 250.765 82.0283C252 82.0283 252.824 82.8527 252.824 84.0893L259.824 122.012Z" fill="#B4D1D7"/>
<path d="M186.529 110.882V111.295C186.529 111.295 186.529 111.707 187.353 111.295C188.176 110.882 199.706 101.814 199.706 101.814C199.706 101.814 200.118 101.402 199.706 100.99L186.529 110.882Z" fill="#878787"/>
<path d="M185.294 111.295C185.706 111.295 186.117 111.295 186.529 110.882L199.294 101.402C199.706 101.402 199.706 100.99 199.294 100.99L160.588 100.165C160.176 100.165 159.353 98.9286 159.353 99.3408L144.117 108.409C143.706 108.409 143.706 108.821 144.117 108.821L185.294 111.295Z" fill="white"/>
<path d="M186.529 111.295C186.529 111.707 186.117 112.119 185.706 112.119L144.117 109.234C143.706 109.234 143.294 108.821 143.294 108.409V70.4866C143.294 70.0744 143.706 69.6622 144.117 69.6622L185.706 72.1354C186.117 72.1354 186.529 72.5477 186.529 72.9599V111.295Z" fill="#707070"/>
<path d="M186.529 110.882C186.529 111.295 186.117 111.707 185.706 111.707L144.117 108.821C143.706 108.821 143.294 108.409 143.294 107.997V70.0744C143.294 69.6622 143.706 69.25 144.117 69.25L185.706 71.7232C186.117 71.7232 186.529 72.1354 186.529 72.5476V110.882Z" fill="#B4D1D7"/>
<path d="M167.588 92.3334C168 91.9212 168 91.509 168 90.6846C168 89.0358 166.764 87.387 164.706 87.387C163.059 87.387 161.823 88.2114 161.823 90.2724C161.823 90.6846 161.823 91.509 162.235 91.9212C163.059 93.57 163.059 93.9822 163.059 94.3944C163.059 95.631 163.059 96.0432 163.059 96.0432H164.706H166.353C166.353 96.0432 166.353 95.2188 166.353 94.3944C166.764 94.3944 166.764 93.9822 167.588 92.3334Z" fill="white"/>
<path d="M165.117 96.8676H163.882C163.882 97.692 165.117 98.1042 165.117 98.1042C165.117 98.1042 165.941 98.1042 166.352 97.2798L165.117 96.8676Z" fill="white"/>
<path d="M167.176 95.631C167.176 96.0432 166.764 96.0432 166.764 96.0432L163.47 95.631C163.059 95.631 163.059 95.2188 163.059 95.2188C163.059 94.8066 163.47 94.8066 163.47 94.8066L166.764 95.2188C166.764 95.2188 167.176 95.2188 167.176 95.631Z" fill="white"/>
<path d="M166.764 95.631C166.764 96.0432 166.353 96.0432 166.353 96.0432L163.47 95.631C163.059 95.631 163.059 95.2188 163.059 95.2188C163.059 94.8066 163.47 94.8066 163.47 94.8066L166.353 95.2188C166.764 95.2188 166.764 95.2188 166.764 95.631Z" fill="white"/>
<path d="M167.176 96.8676C167.176 97.2798 166.764 97.2798 166.764 97.2798L163.47 96.8676C163.059 96.8676 163.059 96.4554 163.059 96.4554C163.059 96.0432 163.47 96.0432 163.47 96.0432L166.764 96.4554C166.764 96.0432 167.176 96.4554 167.176 96.8676Z" fill="white"/>
<path d="M165.117 85.3259L165.529 86.9747C165.529 86.9747 165.529 86.9747 165.117 86.9747C165.117 86.9747 164.706 86.9747 164.706 86.5625L165.117 85.3259C164.706 85.3259 164.706 85.3259 165.117 85.3259Z" fill="white"/>
<path d="M162.235 85.7381L163.058 86.9747V87.3869H162.647L162.235 85.7381Z" fill="white"/>
<path d="M160.176 87.387L161.412 88.2114C161.412 88.2114 161.412 88.2114 161.412 88.6236C161.412 88.6236 161.412 88.6236 161 88.6236L160.176 87.387Z" fill="white"/>
<path d="M159.353 90.2724H161C161 90.2724 161.411 90.2724 161.411 90.6846C161.411 90.6846 161.411 90.6846 161 90.6846L159.353 90.2724Z" fill="white"/>
<path d="M160.176 93.1578L161.412 92.3334H161.823V92.7456L160.176 93.1578Z" fill="white"/>
<path d="M167.588 86.1503L166.764 87.3869V87.7991H167.176L167.588 86.1503C167.999 86.5625 167.999 86.5625 167.588 86.1503Z" fill="white"/>
<path d="M169.646 88.6235L168.411 89.0357C168.411 89.0357 168.411 89.0357 168.411 89.4479C168.411 89.4479 168.411 89.4479 168.823 89.4479L169.646 88.6235C170.058 88.6235 169.646 89.0357 169.646 88.6235Z" fill="white"/>
<path d="M170.47 91.5089L169.235 91.0967H168.823C168.823 91.0967 168.823 91.5089 169.235 91.5089H170.47Z" fill="white"/>
<path d="M170.058 93.9822L168.823 93.1578H168.411V93.57L170.058 93.9822C170.058 94.3944 169.646 94.3944 170.058 93.9822Z" fill="white"/>
<path d="M166.764 96.4554C166.764 96.8676 166.353 96.8676 166.353 96.8676L163.47 96.4554C163.059 96.4554 163.059 96.0432 163.059 96.0432C163.059 95.631 163.47 95.631 163.47 95.631L166.353 96.0432C166.764 96.0432 166.764 96.4554 166.764 96.4554Z" fill="white"/>
<path d="M200.117 100.165C200.117 100.165 202.588 100.577 203 99.3408C203.823 98.1042 205.059 97.692 206.294 97.692C206.294 97.692 205.882 93.9822 202.176 92.7456C198.47 91.5089 193.941 89.4479 193.529 89.8601C193.117 90.6845 200.117 100.165 200.117 100.165Z" fill="#EDAB72"/>
<path d="M191.883 90.2723C190.235 91.5089 186.118 95.631 187.353 97.2798C188.588 98.9286 189.412 98.5164 189.824 98.9286C190.235 99.753 190.647 100.165 191.471 100.577C192.294 101.402 193.941 100.99 194.765 101.814C195.588 102.226 197.236 103.463 198.471 101.814C200.118 100.165 201.765 97.2798 202.177 96.4554C202.177 95.631 201.765 94.3944 200.53 93.9822C199.706 93.5699 198.883 92.3333 198.471 92.3333C197.647 91.9211 196.824 91.9211 196.412 91.0967C196 90.6845 194.765 90.6845 194.765 90.2723C194.353 90.6845 193.118 89.4479 191.883 90.2723Z" fill="#FDB171"/>
<path d="M306.764 117.478C306.764 117.478 302.647 116.653 301.412 115.829C300.176 115.004 291.117 116.241 287 119.951C284.529 122.424 289.47 122.012 292.764 121.6C296.059 121.188 306.353 123.249 308 123.661C310.059 124.485 306.764 117.478 306.764 117.478Z" fill="#F09F5B"/>
<path d="M344.235 104.287C343.823 105.524 340.529 116.653 338.059 119.951C338.059 119.951 309.647 115.417 303.882 115.004L301.412 125.722C304.706 127.371 343.823 138.088 345.059 136.027C352.882 124.897 355.353 121.6 361.529 107.173C367.294 92.7456 375.529 86.1503 367.706 82.8527C350 75.0209 345.059 103.051 344.235 104.287Z" fill="#001533"/>
<path d="M348.353 69.6622V69.25L352.47 65.5402C353.294 66.3646 354.941 66.7768 356.176 65.9524L370.588 53.1741C371.823 60.1816 368.529 68.0134 368.118 69.6622C367.706 71.311 368.529 75.4331 369.765 79.5551C365.647 80.7917 361.529 81.6161 357 82.4405C358.235 79.5551 359.059 73.3721 352.47 74.6087C346.294 75.8453 346.706 73.372 347.118 71.311C347.941 70.4866 348.353 70.8988 348.353 69.6622Z" fill="#FDB171"/>
<path d="M354.529 45.3423C353.706 46.1667 348.765 47.8155 346.706 52.3497C345.882 55.2351 345.882 54.8229 346.294 55.6473C347.118 57.2962 345.47 58.945 344.647 59.7694C343.412 61.006 341.765 61.8304 343.823 63.067C345.882 64.3036 345.059 65.128 344.235 65.5402C343.823 65.9524 344.647 66.7768 344.647 67.189C344.647 67.189 343.412 68.0134 344.235 68.8378C344.647 69.6622 345.47 69.6622 345.47 70.0744C345.47 70.4866 344.647 72.9598 345.47 73.7843C346.706 74.6087 349.588 74.1965 350.823 74.1965C352.059 74.1965 353.706 74.1965 355.353 75.8453C359.882 80.3795 358.647 82.4405 358.647 82.4405C358.647 82.4405 361.941 83.2649 366.47 79.9673C367.706 79.1429 364.412 80.7917 364.412 78.7307C364 75.4331 375.529 59.7694 369.765 58.945C369.353 58.945 357.823 53.1741 357.823 53.1741L354.529 45.3423Z" fill="#FDB171"/>
<path d="M374.706 49.8765C371.823 46.5789 364.823 41.6324 359.47 42.0446C357.411 42.0446 355.764 43.6935 354.529 45.3423C353.294 46.1667 348.764 47.8155 347.117 52.3497C346.294 55.2351 346.294 54.8229 346.706 55.6473C347.529 57.2961 345.882 58.9449 345.059 59.7693C343.823 61.006 342.176 61.8304 344.235 63.067C346.294 64.3036 345.47 65.128 344.647 65.5402C344.235 65.9524 345.059 66.7768 345.059 67.189C345.059 67.189 343.823 68.0134 344.647 68.8378C345.059 69.6622 345.882 69.6622 345.882 70.0744C345.882 70.4866 345.059 72.9598 345.882 73.7842C347.117 74.6086 350 74.1964 351.235 74.1964C351.647 74.1964 352.059 74.1964 352.059 74.1964C352.059 74.6086 352.47 74.6086 352.47 75.0208C352.882 75.8452 352.47 77.494 352.882 77.9062C353.294 78.7307 353.706 78.7307 354.117 79.5551C354.529 81.6161 353.294 83.6771 353.294 83.6771L358.647 80.7917C359.059 82.0283 358.647 82.4405 358.647 82.4405C358.647 82.4405 361.941 83.2649 366.47 79.9673C367.706 79.1429 364.411 80.7917 364.411 78.7307V78.3185L366.882 77.0819C366.882 77.0819 369.353 71.311 373.47 65.128C378 58.9449 377.588 53.1741 374.706 49.8765Z" fill="#FDB171"/>
<path d="M379.647 53.5863C378 46.9911 375.529 40.3959 368.117 39.5714C360.706 38.747 352.47 41.2203 352.059 37.5104C352.059 37.5104 347.941 44.1057 350.411 47.8155C351.235 46.5789 359.47 59.3572 360.706 61.006C361.941 63.067 361.117 57.2962 364 58.1206C366.882 58.5328 368.117 64.3036 366.882 66.7768C366.059 68.8378 368.529 72.9598 368.529 72.9598L368.117 74.6087L372.647 70.0744C372.235 70.0744 381.294 60.1816 379.647 53.5863Z" fill="#260D08"/>
<path d="M383.353 160.759C383.353 160.759 382.118 113.768 382.118 109.234C382.118 104.699 380.882 82.8527 371.824 79.5551L369.353 75.8453L354.941 82.0283C354.941 82.0283 347.529 90.6846 346.294 101.402C345.471 109.234 346.706 121.188 348.765 130.256C351.235 139.324 355.353 163.644 355.353 163.644L383.353 160.759Z" fill="#4949FC"/>
<path d="M310.058 122.836C310.058 122.836 305.941 121.188 304.294 120.363C301.411 118.302 292.352 120.363 288.235 122.836C284.941 124.897 290.294 126.134 294.411 125.31C297.705 124.485 308.411 129.432 310.058 130.256C312.529 130.668 310.058 122.836 310.058 122.836Z" fill="#FDB171"/>
<path d="M324.47 250.207C326.117 251.856 330.647 253.917 333.117 253.092C335.588 252.68 338.882 249.795 339.294 251.443C340.117 253.092 340.941 258.039 340.117 260.512C340.117 260.512 340.941 260.924 340.529 262.573C340.117 263.81 336.823 264.222 332.706 264.222C328.588 264.222 315.823 265.046 312.529 264.222C309.235 262.985 305.941 261.749 305.529 260.1C305.117 258.451 303.882 255.153 307.176 255.566C310.47 255.978 313.764 255.978 315.411 255.153C317.058 254.329 320.353 252.68 322 251.443C323.235 250.207 323.647 249.795 324.47 250.207Z" fill="black"/>
<path d="M358.647 182.193C358.647 182.193 334.352 180.545 334.352 184.667L340.117 251.443C334.764 260.924 321.176 254.741 321.176 254.741C321.176 254.741 315 171.888 315.411 170.24C315.823 164.881 329.411 161.996 345.882 161.996L358.647 182.193Z" fill="#363636"/>
<path d="M315.411 255.566C317.059 257.214 322 259.275 324.882 258.863C327.353 258.039 331.059 255.153 331.47 257.214C332.294 259.275 333.529 264.222 332.706 267.107C332.706 267.107 333.529 267.932 333.117 269.168C332.706 270.405 329.411 270.817 324.882 270.817C320.353 270.817 306.764 272.054 303.059 270.817C299.353 269.58 296.059 268.344 295.647 266.283C295.235 264.634 294 260.924 297.294 261.336C300.588 261.749 304.706 261.749 306.353 260.924C308 260.1 311.706 258.451 313.353 256.802C314.176 255.566 315 255.153 315.411 255.566Z" fill="#4949FC"/>
<path d="M355.353 264.222C355.353 266.283 357 267.932 359.059 267.932C361.118 267.932 362.765 266.283 362.765 264.222V183.842C362.765 181.781 361.118 180.132 359.059 180.132C357 180.132 355.353 181.781 355.353 183.842V264.222Z" fill="#ABABAB"/>
<path d="M383.765 187.14C383.765 190.438 386.235 192.911 389.529 192.911C392.823 192.911 395.294 190.438 395.294 187.14L399 98.9286C399 95.631 396.529 93.1578 393.235 93.1578C389.941 93.1578 387.471 95.631 387.471 98.9286L383.765 187.14Z" fill="#878787"/>
<path d="M329.412 186.728C329.412 183.43 332.294 180.545 335.588 180.545H389.118C392.412 180.545 395.294 183.43 395.294 186.728C395.294 190.025 392.412 192.911 389.118 192.911H335.588C331.882 192.911 329.412 190.025 329.412 186.728Z" fill="#707070"/>
<path d="M343.823 265.458C343.823 262.985 345.882 261.336 347.941 261.336H371.823C374.294 261.336 375.941 263.397 375.941 265.458C375.941 267.932 373.882 269.58 371.823 269.58H347.941C345.47 269.993 343.823 267.932 343.823 265.458Z" fill="#707070"/>
<path d="M352.47 183.842C352.47 183.842 326.529 182.193 326.529 186.316L332.294 257.214C326.529 267.519 311.706 260.512 311.706 260.512C311.706 260.512 305.118 172.713 305.529 170.652C305.941 164.881 320.765 158.698 338.059 158.698L352.47 183.842Z" fill="#525252"/>
<path d="M382.941 156.225C382.941 156.225 387.47 175.186 381.294 179.308C373.47 184.667 352.059 183.842 352.059 183.842L335.176 159.11L382.941 156.225Z" fill="#525252"/>
<path d="M349.588 109.234C349.176 110.47 345.059 121.188 342.176 124.485C342.176 124.485 311.706 119.951 305.941 119.539L303.882 129.844C307.176 131.493 347.529 143.034 349.176 140.973C357.824 130.256 360.706 126.958 367.294 112.943C373.882 98.9286 378.412 89.4479 370.588 85.3259C352.471 76.6696 350.412 107.997 349.588 109.234Z" fill="#3357BD"/>
<path d="M363.588 68.4256C361.941 73.7842 351.647 74.6086 351.647 74.6086C352.059 74.6086 352.47 74.6086 352.47 74.6086C352.47 75.0208 352.882 75.0208 352.882 75.433C352.882 75.8452 353.294 76.2574 353.294 76.6696C363.588 75.8452 363.588 68.4256 363.588 68.4256Z" fill="#F09F5B"/>
</g>
<defs>
<clipPath id="clip0_175_290">
<rect width="399" height="277" fill="white"/>
</clipPath>
</defs>
</svg>
