<svg width="235" height="39" viewBox="0 0 235 39" fill="none" xmlns="http://www.w3.org/2000/svg">
<g clip-path="url(#clip0_1_20374)">
<path d="M235 22.9299C234.578 22.4764 234.522 21.8528 234.184 21.371C233.283 20.0389 231.989 19.2453 230.666 18.48C229.372 17.7431 227.937 17.2329 226.671 16.411C226.136 16.0709 225.629 15.6741 225.235 15.1922C223.913 13.605 224.532 11.3943 226.445 10.714C228.134 10.1188 229.85 10.6007 230.92 12.0745C231.286 12.5847 231.567 12.5847 232.045 12.3012C232.664 11.9328 233.283 11.621 233.931 11.3092C234.353 11.1108 234.325 10.9124 234.156 10.5723C233.48 9.1835 232.411 8.24818 231.004 7.73801C228.978 7.00109 226.868 6.91606 224.813 7.59629C222.365 8.3899 220.902 10.1472 220.564 12.7264C220.255 15.1355 221.042 17.1479 223.069 18.6217C224.447 19.6137 225.939 20.4073 227.458 21.1443C228.387 21.5977 229.316 22.0796 230.075 22.8165C231.06 23.7518 231.398 24.8855 230.976 26.161C230.554 27.4648 229.625 28.23 228.303 28.4001C226.08 28.6835 223.941 28.0883 223.069 25.6225C222.928 25.1973 222.759 25.2823 222.478 25.4241C221.915 25.7075 221.38 26.0193 220.789 26.2177C219.917 26.4727 219.832 26.8979 220.17 27.6915C220.817 29.3354 221.859 30.6108 223.491 31.2627C226.389 32.4531 229.288 32.4248 232.045 30.7809C233.537 29.8739 234.437 28.4851 234.859 26.7845C234.887 26.6711 234.831 26.5011 235.028 26.4727C235 25.254 235 24.0919 235 22.9299Z" fill="#0F0F0F"/>
<path d="M46.8536 19.5002C46.6848 19.3301 46.5441 19.1601 46.3752 18.99C40.8035 13.3498 35.2035 7.7095 29.6036 2.06924C29.0126 1.47404 28.4217 0.907177 27.8589 0.311974C27.5212 -0.0564855 27.2961 -0.0848285 26.9584 0.311974C26.2268 1.10558 25.4951 1.87084 24.679 2.60776C24.1725 3.06125 24.3132 3.28799 24.7072 3.71314C29.4629 8.50311 34.1905 13.2931 38.9462 18.083C39.312 18.4515 39.6497 18.8483 40.0437 19.1884C40.3532 19.4719 40.3814 19.6419 40.0437 19.9537C38.6366 21.3142 37.2578 22.703 35.907 24.1201C35.5131 24.5169 35.3442 24.4319 35.0065 24.0918C31.5171 20.4072 27.9715 16.8076 24.3976 13.208C22.8499 11.6208 21.2459 10.062 19.6982 8.47476C19.3324 8.10631 19.1354 8.13465 18.8258 8.50311C18.0942 9.29671 17.3625 10.0903 16.5746 10.7989C16.0681 11.2524 16.2088 11.4791 16.6028 11.8759C20.2047 15.5038 23.8067 19.1317 27.4086 22.7596C28.9001 24.2618 30.3634 25.7924 31.883 27.2662C32.2488 27.6346 32.2488 27.833 31.883 28.1732C30.5604 29.4769 29.2378 30.8091 27.9433 32.1695C27.5494 32.5947 27.2961 32.5663 26.9021 32.1695C23.7504 28.9384 20.5705 25.764 17.3907 22.5329C15.4771 20.6056 13.5355 18.6783 11.6501 16.7226C11.2842 16.3541 11.0591 16.2974 10.6933 16.7226C9.96163 17.5445 9.1737 18.3098 8.38578 19.0751C8.07623 19.3585 7.99181 19.5569 8.35764 19.9253C12.9445 24.5169 17.5032 29.1368 22.062 33.7567C23.6941 35.4006 25.3263 37.0445 26.9303 38.6884C27.2961 39.0569 27.4931 39.1136 27.887 38.7168C34.0779 32.453 40.2688 26.2175 46.4597 19.9537C46.5722 19.812 46.7129 19.6703 46.8536 19.5002Z" fill="#4A4AFE"/>
<path d="M22.5968 35.9108C19.2199 32.5664 15.8994 29.2502 12.607 25.9624C10.6371 24.0068 8.69546 21.9944 6.72564 20.0387C6.30353 19.6136 6.33167 19.3869 6.72564 18.99C8.04823 17.7146 9.34269 16.4108 10.609 15.0504C11.003 14.6536 11.2 14.6252 11.6221 15.0504C16.6592 20.1521 21.7244 25.2539 26.7616 30.3556C27.2962 30.8941 27.5495 30.8658 28.0279 30.3273C28.6751 29.5903 29.3786 28.8818 30.1103 28.2299C30.5605 27.8331 30.4761 27.6063 30.0821 27.2095C25.1294 22.1928 20.1767 17.1761 15.1959 12.1594C14.3517 11.3091 14.3517 11.3091 15.1677 10.5155C16.3778 9.29673 17.5878 8.10633 18.7697 6.85923C19.1918 6.40575 19.4169 6.43409 19.839 6.85923C24.8762 11.961 29.9414 17.0627 34.9785 22.1645C35.4288 22.6463 35.682 22.7313 36.1604 22.1645C36.8077 21.3992 37.5393 20.6623 38.2991 19.9821C38.7212 19.5853 38.7212 19.3869 38.2991 18.9617C35.3444 16.0424 32.4459 13.0664 29.5193 10.1187C26.2832 6.85923 23.047 3.59979 19.839 0.311995C19.3888 -0.141493 19.1918 -0.11315 18.7697 0.311995C12.607 6.5758 6.47237 12.7829 0.309638 18.9617C-0.140607 19.4152 -0.112467 19.6419 0.309638 20.0671C6.47237 26.2742 12.6351 32.4813 18.7978 38.7168C19.1637 39.0853 19.3607 39.1419 19.7265 38.7168C20.627 37.7815 21.5837 36.9028 22.5968 35.9108Z" fill="#4A4AFE"/>
<path d="M54.1702 19.5002C54.1702 23.3265 54.1702 27.1528 54.1702 30.9792C54.1702 31.546 54.2265 31.8011 54.9019 31.7728C60.3892 31.7444 65.8766 31.7444 71.3358 31.7728C71.9268 31.7728 72.0675 31.6027 72.0393 31.0358C72.0112 29.7321 72.0112 28.4566 72.0393 27.1528C72.0675 26.6143 71.8986 26.5293 71.3921 26.5293C67.8746 26.5576 64.3852 26.5293 60.8676 26.5576C60.2767 26.5576 60.0516 26.4443 60.0797 25.7924C60.136 24.6303 60.136 23.4683 60.0797 22.3345C60.0516 21.711 60.1923 21.5409 60.8395 21.5409C64.0475 21.5693 67.2555 21.5409 70.4635 21.5693C71.1107 21.5693 71.364 21.4559 71.3358 20.719C71.2796 19.4719 71.2796 18.2248 71.3358 17.006C71.364 16.4108 71.1951 16.2691 70.6042 16.2691C67.3399 16.2975 64.0756 16.2691 60.8114 16.2975C60.2485 16.2975 60.0516 16.1841 60.0797 15.5889C60.136 14.7103 60.136 13.8316 60.0797 12.953C60.0516 12.3861 60.2485 12.2728 60.7832 12.2728C64.2445 12.3011 67.7057 12.2728 71.1389 12.3011C71.7017 12.3011 71.8986 12.1877 71.8705 11.5925C71.8142 10.2887 71.8142 9.01331 71.8705 7.70953C71.8986 7.14267 71.7017 7.0293 71.1951 7.0293C65.7359 7.05764 60.2767 7.05764 54.8175 7.0293C54.2265 7.0293 54.1421 7.25604 54.1421 7.73787C54.1702 11.6776 54.1702 15.5889 54.1702 19.5002Z" fill="#0F0F0F"/>
<path d="M98.238 31.1492C95.4803 23.3832 92.7788 15.5889 90.0773 7.8229C89.8803 7.2277 89.5708 7.02929 88.9798 7.08598C88.0793 7.14267 87.1789 7.08598 86.2784 7.08598C85.3779 7.08598 84.4774 7.14267 83.5769 7.05764C82.9578 7.02929 82.6483 7.19935 82.4513 7.8229C80.1438 14.7386 77.8363 21.6259 75.5006 28.5416C75.2192 29.4203 74.9378 30.2989 74.6001 31.1775C74.375 31.7444 74.572 31.8294 75.0785 31.8294C76.6544 31.8011 78.2584 31.8011 79.8342 31.8294C80.3689 31.8294 80.5377 31.631 80.6784 31.1775C81.1287 29.7604 81.6071 28.3432 82.0855 26.8978C82.198 26.5293 82.395 26.3309 82.8452 26.3309C85.0965 26.3592 87.3477 26.3592 89.5989 26.3309C90.021 26.3309 90.218 26.4443 90.3587 26.8694C90.8371 28.3149 91.3718 29.7604 91.8783 31.2059C92.019 31.6027 92.1878 31.8294 92.6662 31.8011C94.3828 31.7727 96.1275 31.7727 97.844 31.8011C98.3787 31.8011 98.435 31.6877 98.238 31.1492ZM83.7176 21.0874C84.5337 18.4515 85.2935 15.9007 86.1377 13.2364C87.01 15.929 87.8542 18.4799 88.6984 21.0874H83.7176Z" fill="#0F0F0F"/>
<path d="M109.128 31.8577C111.689 31.8011 114.053 31.2342 115.882 29.2785C118.978 26.0191 118.359 20.974 114.588 18.5082C113.181 17.6012 111.661 16.9777 110.142 16.2691C109.325 15.9006 108.509 15.4755 107.89 14.8236C107.046 13.9166 107.328 12.7545 108.481 12.3294C109.916 11.7909 111.323 12.2444 112.252 13.6899C112.674 14.3134 112.984 14.3701 113.603 14.03C114.644 13.4631 115.685 12.9529 116.783 12.4995C117.317 12.2727 117.345 12.0176 117.148 11.5074C116.164 8.92823 114.137 7.68114 111.577 7.22765C109.185 6.80251 106.821 6.94422 104.654 8.21966C100.349 10.7422 100.152 16.5242 104.26 19.3585C105.752 20.3788 107.384 21.1441 109.016 21.881C109.748 22.1928 110.451 22.5612 111.07 23.0431C111.605 23.4682 111.999 24.0067 111.858 24.7436C111.717 25.5372 111.239 26.0758 110.479 26.3309C108.312 27.1245 106.258 26.0758 105.611 23.865C105.47 23.3548 105.33 23.1564 104.739 23.4115C103.472 24.0067 102.206 24.5169 100.94 25.0838C100.63 25.2255 100.489 25.3105 100.602 25.7356C101.39 29.1085 103.782 31.2909 107.159 31.6877C107.806 31.8011 108.453 31.8861 109.128 31.8577Z" fill="#0F0F0F"/>
<path d="M151.395 7.70931C150.269 7.70931 149.256 7.73766 148.243 7.68097C147.709 7.65263 147.483 7.87937 147.315 8.3612C145.654 13.1512 143.741 17.8561 142.193 22.7028C142.165 22.7878 142.137 22.8445 142.024 23.0712C140.111 17.5443 137.916 12.2442 135.833 6.68896C133.835 12.3009 131.64 17.601 129.896 23.0712C129.558 22.9012 129.614 22.5044 129.502 22.2209C127.898 17.4877 126.012 12.8394 124.352 8.13446C124.24 7.82269 124.099 7.65263 123.705 7.68097C122.636 7.70931 121.566 7.68097 120.384 7.68097C123.395 15.8721 126.406 24.0066 129.445 32.3111C131.584 26.6708 133.892 21.2856 135.805 15.6737C137.831 21.2289 140.111 26.6425 142.306 32.3111C145.373 24.0349 148.356 15.9004 151.395 7.70931Z" fill="#0F0F0F"/>
<path d="M177.903 18.7915C177.566 12.641 172.388 7.11416 165.381 7.1425C158.374 7.08582 152.689 12.8678 152.83 19.8402C152.943 26.3307 158.402 32.0277 165.437 32.0277C171.853 31.9993 178.325 26.6425 177.903 18.7915ZM165.409 28.3998C160.653 28.3998 156.826 24.4601 156.826 19.5567C156.826 14.6251 160.653 10.657 165.381 10.6854C170.108 10.6854 173.964 14.6817 173.935 19.5851C173.935 24.4317 170.08 28.3998 165.409 28.3998Z" fill="#0F0F0F"/>
<path d="M190.313 20.7192C190.679 20.3507 191.129 20.4357 191.495 20.3224C193.662 19.7272 194.956 18.31 195.378 16.0993C195.772 13.9168 195.632 11.8195 194.253 9.97716C193.324 8.73007 192.058 8.10652 190.594 7.87977C187.921 7.48297 185.248 7.79475 182.546 7.70972C182.209 7.70972 182.096 7.82309 182.124 8.13486C182.124 8.19155 182.124 8.24823 182.124 8.30492C182.124 15.8158 182.124 23.3267 182.124 30.8093C182.124 31.2911 182.237 31.4328 182.715 31.4045C183.503 31.3761 184.319 31.3478 185.107 31.4045C185.698 31.4328 185.782 31.2061 185.754 30.6959C185.726 27.7482 185.726 24.8006 185.754 21.8529C185.754 21.5128 185.473 20.9743 185.923 20.8325C186.317 20.7192 186.486 21.286 186.683 21.5695C188.991 24.6588 191.242 27.7482 193.521 30.866C193.802 31.2628 194.112 31.4328 194.59 31.4045C195.772 31.3761 196.926 31.4045 198.249 31.4045C195.575 27.7199 192.93 24.2054 190.313 20.7192ZM186.486 17.7715C186.036 17.7715 185.951 17.6014 185.951 17.2046C185.979 16.2693 185.951 15.334 185.951 14.3987V12.9815C185.951 10.8558 185.951 10.8558 188.09 10.9975C190.904 11.1959 192.086 12.7264 191.579 15.4757C191.382 16.5244 190.791 17.1763 189.75 17.4314C188.653 17.7148 187.583 17.7431 186.486 17.7715Z" fill="#0F0F0F"/>
<path d="M204.862 19.3302C207.451 22.703 210.012 25.8491 212.319 29.1369C213.501 30.8091 214.739 31.8011 216.878 31.4043C217.525 31.2909 218.229 31.376 219.045 31.376C217.694 29.6754 216.456 28.0882 215.19 26.501C213.135 23.8934 211.081 21.2859 208.97 18.7066C208.605 18.2815 208.745 18.0264 209.055 17.6863C211.925 14.4552 214.796 11.2241 217.638 7.99298C217.694 7.9363 217.722 7.87961 217.835 7.70955C216.315 7.70955 214.88 7.70955 213.445 7.70955C213.079 7.70955 212.995 7.96464 212.826 8.16304C210.209 11.1674 207.592 14.2284 204.862 17.4029C204.862 16.9494 204.862 16.6943 204.862 16.4392C204.862 13.7466 204.862 11.0257 204.862 8.3331C204.862 7.82292 204.749 7.65287 204.215 7.68121C203.399 7.7379 202.555 7.7379 201.738 7.68121C201.091 7.65287 200.922 7.82292 200.922 8.47481C200.951 12.7263 200.95 16.9777 200.95 21.2292C200.95 24.3752 200.979 27.5213 200.922 30.6674C200.922 31.2626 201.091 31.4043 201.654 31.376C202.47 31.3193 203.314 31.3193 204.13 31.376C204.721 31.4043 204.862 31.2059 204.834 30.6391C204.806 27.2096 204.834 23.8084 204.834 20.3789C204.862 20.1238 204.862 19.8404 204.862 19.3302Z" fill="#101010"/>
</g>
<defs>
<clipPath id="clip0_1_20374">
<rect width="235" height="39" fill="white"/>
</clipPath>
</defs>
</svg>
