<svg width="60" height="60" viewBox="0 0 60 60" fill="none" xmlns="http://www.w3.org/2000/svg">
<path d="M53.5792 25.3658C52.7733 24.918 51.9375 24.9479 51.1912 25.4852C50.5793 25.918 50.042 26.4255 49.43 26.8583C47.7734 28.0224 46.9973 29.6642 46.6092 31.5895C46.3405 32.9029 46.3405 34.2611 46.0719 35.5745C45.9823 35.9775 45.9077 36.2312 45.4152 36.0671C45.0719 35.9477 44.7436 36.082 44.4152 36.2462C42.1615 37.3656 39.9228 38.47 37.6691 39.5745C36.4303 40.1864 35.5646 41.1416 35.1616 42.4699C34.9527 43.1266 34.7587 43.7983 34.5945 44.4699C33.893 47.3504 33.8632 50.3355 33.4303 53.2608C33.3557 53.7533 33.6244 53.9772 34.087 54.0667C35.5049 54.3354 36.9079 54.619 38.3258 54.8876C39.475 55.1115 39.4601 55.0966 39.7138 53.9324C40.3257 51.1116 42.2063 49.3504 44.6689 48.1415C46.3405 47.3206 47.9525 46.3803 49.5793 45.4848C50.9226 44.7386 51.7882 43.6192 52.0569 42.052C52.6539 38.6491 53.3106 35.2611 53.9374 31.8582C54.221 30.3508 54.4897 28.8284 54.7583 27.3956C54.7135 26.4702 54.3404 25.7837 53.5792 25.3658ZM53.5195 27.6642C52.833 31.306 52.1763 34.9477 51.5046 38.5894C51.3106 39.664 51.1017 40.7386 50.9226 41.8132C50.7285 43.0371 50.042 43.9177 48.9823 44.4998C47.3555 45.3953 45.7435 46.3355 44.057 47.1564C41.4153 48.4549 39.4153 50.3802 38.6243 53.3354C38.5347 53.6787 38.4004 53.7533 38.0571 53.6787C37.1616 53.4847 36.2512 53.3056 35.3407 53.1563C34.7736 53.0668 34.4303 52.9026 34.6243 52.4101C35.087 49.3355 35.1169 46.3505 35.9825 43.4998C36.4154 42.0371 37.1915 41.0073 38.5944 40.3655C40.6242 39.4401 42.6093 38.3954 44.6242 37.4103C45.2809 37.082 45.8331 37.2462 46.1167 37.8432C46.3704 38.3954 46.1614 38.9028 45.5197 39.2312C44.0421 39.9924 42.5496 40.7386 41.072 41.4849C40.669 41.6789 40.2511 41.8879 40.5347 42.4252C40.7884 42.9177 41.2063 42.7087 41.5645 42.5296C43.1615 41.7237 44.7585 40.9177 46.3555 40.0968C47.2808 39.6192 47.654 38.4252 47.1764 37.3805C47.0122 37.0074 46.9674 36.679 47.0719 36.3208C47.445 34.9775 47.4152 33.5597 47.654 32.1865C47.9674 30.3209 48.6689 28.709 50.2957 27.6195C50.7882 27.2911 51.236 26.8881 51.7136 26.515C52.1464 26.1717 52.6091 26.0822 53.0867 26.3956C53.5344 26.709 53.6091 27.1568 53.5195 27.6642Z" fill="white"/>
<path d="M26.909 49.6936C26.6851 47.2906 26.4015 44.9026 25.6254 42.5892C25.1627 41.1862 24.2971 40.1713 22.9687 39.5296C20.7748 38.455 18.5957 37.3803 16.4166 36.2908C16.0286 36.0968 15.6405 35.9475 15.2077 36.0819C14.8196 36.2013 14.745 35.9923 14.6704 35.6789C14.4913 34.9028 14.4316 34.1117 14.3719 33.3207C14.1331 30.4402 13.2077 27.9328 10.6257 26.3208C10.2675 26.097 9.95405 25.7985 9.6257 25.5447C9.22272 25.2313 8.76005 25.0671 8.23767 25.0671C6.77501 25.0671 5.77502 26.291 6.04368 27.7835C6.90933 32.4998 7.80484 37.2162 8.65557 41.9325C8.95407 43.634 9.90928 44.7981 11.3869 45.619C13.2227 46.6488 15.1331 47.5742 16.9539 48.6189C19.1778 49.9025 20.7598 51.7234 21.1031 54.395C21.1777 54.9173 21.4613 55.0666 21.9389 54.9621C23.506 54.6636 25.0583 54.3502 26.6254 54.0666C27.2224 53.9621 27.4015 53.6636 27.3119 53.0816C27.1478 51.9622 27.0134 50.8279 26.909 49.6936ZM25.5806 53.1413C24.5956 53.3054 23.6254 53.4845 22.6553 53.6935C22.2971 53.7681 22.1777 53.6786 22.0882 53.3353C21.2822 50.2906 19.1927 48.3503 16.4614 47.0518C14.8196 46.2608 13.2674 45.3354 11.6854 44.4698C10.6257 43.8877 10.0138 42.9623 9.78988 41.7534C8.93915 37.052 8.05857 32.3655 7.19291 27.679C7.10336 27.1567 7.17798 26.7238 7.62574 26.4402C8.10334 26.1268 8.56602 26.2014 8.99885 26.5596C9.81973 27.2313 10.6555 27.9029 11.4764 28.5895C12.2077 29.2163 12.4913 30.0969 12.7749 30.9775C13.2674 32.5297 13.2077 34.1715 13.5361 35.7535C13.6704 36.4102 13.76 37.0072 13.4615 37.6938C13.0435 38.6341 13.5659 39.7087 14.5062 40.1863C16.0286 40.9624 17.5659 41.7385 19.0882 42.5146C19.1479 42.5444 19.2225 42.5743 19.2822 42.6191C19.6255 42.7832 19.9837 42.8579 20.1927 42.4549C20.4165 42.037 20.1628 41.7534 19.7897 41.5743C18.2524 40.7982 16.73 40.0221 15.1928 39.2609C14.745 39.037 14.4764 38.7385 14.5211 38.2162C14.5808 37.4699 15.2972 37.0371 15.9689 37.3803C18.2226 38.4848 20.4762 39.5893 22.715 40.7236C23.6851 41.2012 24.2374 42.037 24.5657 43.037C25.2821 45.2011 25.5508 47.4399 25.7597 49.6936C25.8344 50.604 25.9687 51.5144 26.0732 52.5144C26.1776 52.8577 26.0135 53.0666 25.5806 53.1413Z" fill="white"/>
<path d="M39.3567 34.5895C40.3268 33.4552 41.2821 32.306 42.2522 31.1717C42.7895 30.5448 43.2223 29.8433 43.491 29.0672C44.5506 26.0673 44.1924 23.2464 42.297 20.6644C41.7746 19.948 41.2074 19.2465 40.6552 18.5301C39.4612 16.963 37.9538 15.8436 36.1478 15.0973C34.0285 14.2317 31.8195 14.1421 29.5658 14.0526C23.5958 13.8138 19.2825 18.5749 17.1183 23.0226C16.387 24.5001 16.6556 26.127 16.8795 27.724C17.1332 29.5001 17.8795 31.0373 19.1631 32.306C20.0138 33.1418 20.8645 33.9776 21.7302 34.7985C23.0884 36.0969 24.7003 36.7537 26.5808 36.7686C27.9241 36.7686 29.2673 36.7686 30.6106 36.7686C31.9837 36.7686 33.3419 36.7835 34.715 36.7686C36.5956 36.7387 38.1329 36.0074 39.3567 34.5895ZM30.536 35.6044C29.2375 35.6044 27.9539 35.6044 26.6555 35.6044C25.0286 35.6044 23.6555 35.0373 22.4914 33.9179C21.6705 33.1269 20.8496 32.3209 20.0287 31.5299C18.9243 30.4553 18.2526 29.1419 18.0287 27.6195C17.8347 26.2464 17.4914 24.7986 18.178 23.5151C20.2824 19.545 22.9242 16.0227 27.7599 15.366C31.3718 14.8735 35.0583 15.0376 38.0284 17.5749C40.2522 19.4853 42.2671 21.6793 42.8044 24.7389C43.1775 26.8732 42.7149 28.8433 41.2821 30.515C40.3418 31.6194 39.4313 32.7239 38.4911 33.8134C37.4762 34.9925 36.2075 35.6044 34.6404 35.6044C33.2822 35.6044 31.9091 35.6044 30.536 35.6044Z" fill="white"/>
<path d="M24.7443 10.3809C25.5055 11.6048 26.6398 12.3361 28.0577 12.56C28.7144 12.6645 29.386 12.6346 30.0576 12.6794C30.0576 12.6645 30.0576 12.6645 30.0576 12.6495C30.5054 12.6495 30.9532 12.6645 31.4009 12.6495C33.1024 12.5749 34.5501 11.9182 35.6098 10.5899C36.3411 9.67944 36.9978 8.70931 37.6694 7.7541C38.0724 7.17202 38.2963 6.54517 37.9381 5.87354C37.5799 5.18698 36.9232 5.03773 36.2366 5.00788C34.4606 4.94818 32.774 5.21683 31.2367 6.18696C30.6696 6.54517 30.0576 6.61979 29.4905 6.21681C28.1323 5.23176 26.595 4.96311 24.9682 5.00788C23.2667 5.06758 22.5354 6.33621 23.3115 7.84365C23.7742 8.70931 24.2369 9.56004 24.7443 10.3809ZM25.0279 6.15711C26.3861 6.11234 27.6846 6.33621 28.8487 7.15709C29.8188 7.84365 30.8785 7.79887 31.8636 7.17202C33.2068 6.33621 34.6695 6.09741 36.2217 6.15711C37.0127 6.18696 37.162 6.48547 36.7142 7.12724C36.0725 8.06753 35.4158 9.00781 34.6994 9.90331C33.8785 10.9182 32.7591 11.4257 31.4606 11.5003C31.0129 11.5301 30.5651 11.5003 30.1173 11.5003C29.6696 11.5003 29.2218 11.5152 28.7741 11.5003C27.5055 11.4257 26.4756 10.8884 25.7741 9.81376C25.2667 9.02273 24.8189 8.18693 24.3861 7.35112C23.9831 6.60487 24.1921 6.18696 25.0279 6.15711Z" fill="white"/>
<path d="M33.6548 20.9778C33.4309 20.8286 33.1473 20.7689 32.9085 20.6644C32.4309 20.4554 31.7294 20.6047 31.4906 20.1868C31.2667 19.7838 31.3861 19.1719 31.416 18.6495C31.4458 18.1868 31.2667 18.0674 30.819 18.0525C30.3414 18.0525 30.1921 18.2167 30.2518 18.6644C30.2817 18.8883 30.222 19.1122 30.2668 19.336C30.3563 20.0077 30.1921 20.3808 29.4459 20.6196C28.2966 20.9927 27.5952 21.8584 27.5504 23.127C27.5056 24.2464 28.1772 25.2016 29.3712 25.6941C29.8041 25.8732 30.2668 25.9777 30.7294 26.0971C31.2518 26.2314 31.7294 26.4105 32.1324 26.7538C32.7294 27.2613 32.804 27.7389 32.3413 28.3807C31.819 29.112 31.0578 29.2612 30.222 29.2165C29.3265 29.1568 28.5354 28.8433 27.7743 28.3807C27.2519 28.0523 27.237 28.6195 27.028 28.8135C26.7444 29.0672 26.9235 29.2314 27.1623 29.3657C27.8638 29.7985 28.6101 30.1866 29.4309 30.2612C30.1921 30.3209 30.3414 30.6642 30.2518 31.306C30.2369 31.4105 30.2518 31.5 30.2518 31.6045C30.2518 31.7537 30.2518 31.903 30.2518 32.0522C30.2518 32.4403 30.1623 32.8134 30.8041 32.8433C31.5055 32.8582 31.4011 32.4403 31.4011 32.0373C31.4011 31.7687 31.4309 31.4851 31.4011 31.2164C31.3115 30.5896 31.5205 30.2612 32.1473 30.0075C33.1324 29.6045 33.7145 28.7687 33.7742 27.6941C33.8339 26.6792 33.1771 26.0523 32.3861 25.5598C31.8936 25.2613 31.3563 25.0822 30.7891 24.9628C30.2966 24.8583 29.819 24.7389 29.4011 24.4404C28.4907 23.7987 28.4608 22.6793 29.3414 21.9927C29.7294 21.6942 30.1623 21.545 30.6548 21.5151C31.5503 21.4554 32.416 21.6196 33.1622 22.0673C33.804 22.4405 33.9383 22.0076 34.1324 21.6345C34.4159 21.0823 33.8786 21.1271 33.6548 20.9778Z" fill="white"/>
</svg>
