<svg width="100" height="100" viewBox="0 0 100 100" fill="none" xmlns="http://www.w3.org/2000/svg">
<path d="M20.2979 40.0255C27.4745 39.1099 33.1414 32.552 33.1662 25.1527C33.2157 17.6792 27.6229 11.2451 20.1989 10.1563C12.7502 9.0674 5.62315 13.7693 3.54443 21.1438C3.39595 21.6635 3.19797 22.1584 3 22.6533C3 24.2619 3 25.8456 3 27.4542C3.14848 27.8996 3.32171 28.3451 3.44544 28.8152C5.44992 36.363 12.478 41.0153 20.2979 40.0255ZM17.8975 13.0269C24.7028 12.9526 30.1718 18.3227 30.2213 25.0537C30.2708 31.6859 24.8513 37.1549 18.1945 37.2044C11.4881 37.2291 6.01909 31.9086 5.9696 25.2517C5.89536 18.5701 11.2654 13.0764 17.8975 13.0269Z" fill="white"/>
<path d="M58.0856 61.8768C53.161 61.3571 48.0879 61.2829 43.1633 61.7778C35.7146 62.4955 30.79 68.3852 30.6663 75.8587C30.6168 79.1748 30.6415 82.5155 30.6663 85.8316C30.691 88.8259 31.8294 89.989 34.7742 89.989C39.9463 90.0138 45.1183 89.989 50.2904 89.989C55.5862 89.989 60.8819 90.0138 66.1777 89.989C68.7019 89.9643 69.9392 88.7517 69.964 86.2523C69.9887 82.565 70.0382 78.853 69.9392 75.1658C69.7413 68.4347 64.7919 62.5945 58.0856 61.8768ZM49.7954 64.5742C50.1419 64.5742 50.5131 64.5742 50.8595 64.5742C50.5626 68.7069 52.9383 72.8396 50.3151 76.9475C47.7662 72.8149 50.0677 68.6822 49.7954 64.5742ZM67.0439 86.9205C55.8584 86.9205 44.8709 86.9205 33.4379 86.9205C33.6359 82.1691 33.3142 77.393 34.1556 72.7901C35.1702 67.1726 40.8372 63.8566 46.8258 64.6732C46.6031 67.3458 46.5289 69.9442 46.1082 72.4931C45.7865 74.4976 46.0339 76.2299 47.2218 77.8879C47.791 78.6798 48.1869 79.5954 48.6818 80.4368C49.8202 82.3423 50.7111 82.1938 52.0721 80.3873C54.5716 77.0465 55.0912 73.4335 54.2993 69.4493C54.0024 67.8903 53.9776 66.2817 53.8539 64.7227C59.7931 63.5101 65.8313 67.717 66.8954 73.7305C67.0686 74.6956 67.0439 75.6855 67.0439 76.6753C67.0439 80.0656 67.0439 83.4312 67.0439 86.9205Z" fill="white"/>
<path d="M19.803 44.2571C18.6151 43.0445 17.6253 42.9208 16.3879 44.1829C13.2946 47.3505 10.1023 50.4438 7.03368 53.6361C6.53875 54.1311 5.96958 55.2199 6.1923 55.6159C6.514 56.185 7.50387 56.6057 8.24627 56.6552C10.0528 56.8037 11.8593 56.7047 13.5915 56.7047C13.7648 59.6001 13.8143 62.1737 14.0865 64.7474C14.4329 67.8902 15.794 70.5133 18.5904 72.1961C21.362 73.8541 24.4553 74.3243 27.6229 74.3986C28.1178 74.3986 28.9345 73.9779 29.0582 73.5819C29.2067 73.0622 28.885 72.3693 28.6375 71.8002C28.5138 71.5032 28.1178 71.3052 27.8209 71.0825C22.0797 66.6034 22.0797 68.1129 22.2034 59.0804C22.2034 58.4122 22.2034 57.7441 22.2034 56.7295C24.2079 56.7295 25.9649 56.8284 27.7219 56.68C28.4643 56.6305 29.6274 56.2593 29.8006 55.7396C29.9986 55.1952 29.4789 54.1311 28.9592 53.5866C26.0144 50.4191 22.8716 47.4 19.803 44.2571ZM21.1888 53.8093C20.4711 53.9826 19.4318 54.824 19.407 55.3931C19.2585 58.7092 19.1843 62.05 19.506 65.3413C19.6792 67.0488 20.7186 68.6573 21.362 70.2411C18.8378 69.3997 17.3778 67.3458 17.0808 64.5247C16.8086 61.9015 16.8086 59.2536 16.7591 56.6057C16.7344 53.9083 16.6106 53.7351 13.9875 53.7104C13.1956 53.7104 12.4037 53.7104 11.7603 53.7104C13.938 51.6069 16.1405 49.4539 18.2192 47.4C20.0504 49.256 22.2529 51.4337 24.5296 53.7104C23.4655 53.7351 22.2776 53.5371 21.1888 53.8093Z" fill="white"/>
<path d="M83.9956 43.9849C83.0305 42.995 82.1149 43.0197 81.125 43.9849C77.8585 47.2514 74.5672 50.4932 71.3748 53.8093C70.9294 54.2547 70.5087 55.2941 70.7314 55.69C71.0284 56.2097 71.944 56.6057 72.6369 56.6552C74.4682 56.7789 76.2994 56.7046 78.3534 56.7046C78.3534 59.4763 78.4029 61.9262 78.3287 64.3761C78.2792 66.0589 77.5368 67.4447 76.151 68.4593C74.8146 69.4492 73.4536 70.4143 72.241 71.5279C71.7708 71.9733 71.3996 72.9137 71.5233 73.5324C71.5976 73.9283 72.6864 74.4233 73.2803 74.3738C75.2353 74.2005 77.1903 73.9531 79.0711 73.4334C83.6244 72.1961 86.0496 69.0532 86.5446 64.4256C86.7425 62.5449 86.7425 60.6146 86.8415 58.7091C86.8663 58.0657 86.891 57.4223 86.9405 56.7046C88.945 56.7046 90.7267 56.8036 92.5085 56.6552C93.2014 56.6057 94.0923 56.185 94.414 55.6653C94.6367 55.2693 94.1913 54.2547 93.7458 53.8093C90.5535 50.4932 87.2622 47.2514 83.9956 43.9849ZM85.8764 53.735C84.4906 53.6856 83.8967 54.3537 83.8719 55.7395C83.8472 58.6349 83.8472 61.5302 83.575 64.4009C83.3275 67.222 81.8674 69.3254 78.6999 70.4638C82.7831 65.7372 81.026 60.3919 81.1993 55.3436C81.224 54.8486 80.0857 54.0073 79.368 53.834C78.3287 53.5618 77.1903 53.7598 76.3984 53.7598C78.4771 51.6811 80.6301 49.5034 82.6841 47.4494C84.5401 49.3301 86.7178 51.5078 88.945 53.7598C88.0294 53.7598 86.9405 53.7845 85.8764 53.735Z" fill="white"/>
<path d="M82.486 40.1493C90.8009 40.1988 97.6062 33.5172 97.6557 25.227C97.7052 16.9122 91.0236 10.1068 82.7582 10.0326C74.3444 9.95835 67.5143 16.6894 67.4895 25.0291C67.44 33.3192 74.1711 40.0998 82.486 40.1493ZM82.4118 13.0269C89.1924 12.9774 94.6861 18.3475 94.7109 25.0786C94.7356 31.7354 89.3656 37.1549 82.6592 37.2044C75.9776 37.2539 70.5581 31.9334 70.4591 25.2518C70.3354 18.6197 75.7549 13.0764 82.4118 13.0269Z" fill="white"/>
<path d="M50.3895 59.8229C56.1802 59.7734 60.7831 55.121 60.7584 49.3303C60.7584 43.5396 56.1307 38.912 50.34 38.8872C44.5493 38.8872 39.8969 43.4653 39.8722 49.2561C39.8474 55.1458 44.5493 59.8724 50.3895 59.8229ZM50.3648 41.8568C54.5469 41.8816 57.8135 45.1976 57.8135 49.3798C57.7888 53.5372 54.448 56.878 50.2905 56.8533C46.1331 56.8285 42.8418 53.463 42.8418 49.3056C42.8665 45.1234 46.1826 41.8568 50.3648 41.8568Z" fill="white"/>
<path d="M15.151 29.4092C16.1903 30.498 17.1307 30.3743 18.1453 29.335C20.1993 27.2315 22.3028 25.1528 24.4062 23.074C25.2229 22.2822 25.8663 21.3665 24.8269 20.4014C23.8866 19.5353 23.0204 20.2282 22.3028 20.9706C20.4468 22.8761 18.6155 24.7568 16.4626 26.984C15.3737 25.7219 14.5076 24.6826 13.6167 23.6927C12.899 22.9256 11.9092 22.5544 11.2905 23.5195C10.9688 23.9897 11.1668 25.2023 11.5627 25.6972C12.6268 27.0335 13.9631 28.1471 15.151 29.4092Z" fill="white"/>
<path d="M80.8033 25.0537C79.6649 26.0683 78.7493 26.6622 78.1801 27.5036C77.8089 28.0727 77.9574 28.9884 77.8831 29.7555C78.6503 29.706 79.6402 29.9287 80.1351 29.5328C80.9517 28.8646 81.4714 27.8005 82.3623 26.5385C83.6244 28.0233 84.243 29.0131 85.1092 29.6565C85.5794 30.003 86.5197 29.7308 87.2374 29.7555C87.2126 29.0379 87.4354 28.0975 87.0642 27.6521C86.3465 26.7859 85.2824 26.192 84.1688 25.3011C85.4556 24.1628 86.396 23.5689 86.9404 22.7275C87.3116 22.1583 87.1384 21.2427 87.2126 20.5003C86.4455 20.5498 85.5051 20.3518 84.9854 20.723C84.1193 21.3169 83.5254 22.3068 82.5108 23.4946C81.4962 22.2573 80.9022 21.2674 80.0361 20.624C79.5659 20.2528 78.6503 20.5003 77.9079 20.4508C77.9079 21.1684 77.6604 22.0841 78.0069 22.5542C78.6503 23.4204 79.6402 24.039 80.8033 25.0537Z" fill="white"/>
</svg>
