<svg width="100" height="100" viewBox="0 0 100 100" fill="none" xmlns="http://www.w3.org/2000/svg">
<path d="M90.9875 65.1077C90.9875 63.8708 90.8329 63.5174 89.6181 63.1861C87.9394 62.7444 87.1222 61.7504 86.4154 60.1381C85.6645 58.3711 85.5319 56.9354 86.5259 55.3451C86.9897 54.6163 86.7909 53.9537 86.1725 53.3573C85.0239 52.2529 83.8754 51.1265 82.7931 49.9559C82.1747 49.2932 81.5121 48.9178 80.5623 49.3374C80.5623 48.9398 80.5623 48.6085 80.5623 48.2772C80.5623 40.4583 80.5623 32.6174 80.5623 24.7985C80.5623 23.4953 80.1206 23.0757 78.8174 23.0757C75.924 23.0757 73.0306 23.0757 70.1371 23.0757C68.5689 23.0757 68.1935 23.4512 68.1935 25.0414C68.1935 31.3142 68.1935 37.6091 68.1935 43.8819C68.1935 44.2132 68.1935 44.5224 68.1935 44.9421C67.31 44.9421 66.5148 44.9421 65.7197 44.9421C65.0129 44.9421 64.527 45.2513 64.2619 45.936C63.9748 46.709 63.6876 47.4821 63.3563 48.2331C63.2238 48.4981 62.9367 48.6969 62.7158 48.9178C62.6495 48.8736 62.5833 48.8294 62.517 48.7852C62.517 48.4981 62.517 48.1889 62.517 47.9017C62.517 43.3076 62.517 38.6914 62.517 34.0972C62.517 32.6395 62.1195 32.2419 60.6617 32.2419C57.8345 32.2419 54.9853 32.2419 52.1581 32.2419C50.5236 32.2419 50.1703 32.6174 50.1703 34.2518C50.1703 40.635 50.1923 47.0403 50.1482 53.4236C50.1482 54.4837 50.2365 55.4556 50.7887 56.3391C51.4292 57.3551 51.4734 58.3048 50.7666 59.2767C50.5678 59.5417 50.4132 59.8509 50.369 60.1823C50.0819 61.9271 48.9996 62.7223 47.3652 63.1861C46.0179 63.5616 45.9074 63.8708 45.9074 65.2844C45.9074 67.1176 45.9074 68.9509 45.9074 70.762C45.3994 70.762 44.9798 70.762 44.5159 70.762C44.5159 70.3645 44.5159 70.0332 44.5159 69.7239C44.5159 61.2204 44.5159 52.6947 44.5159 44.1911C44.5159 42.8879 44.0742 42.4462 42.7931 42.4462C39.9218 42.4462 37.0725 42.4462 34.2012 42.4462C32.5225 42.4462 32.1692 42.7996 32.1692 44.4782C32.1692 52.9156 32.1692 61.3308 32.1692 69.7681C32.1692 70.1215 32.1471 70.4528 32.125 70.7841C30.2034 70.7841 28.4143 70.7841 26.5148 70.7841C26.5148 70.4086 26.5148 70.0994 26.5148 69.7681C26.5148 64.4672 26.5148 59.1883 26.5148 53.8874C26.5148 52.6505 26.051 52.1867 24.8141 52.1867C21.8986 52.1867 18.9831 52.1867 16.0455 52.1867C14.5214 52.1867 14.1239 52.5842 14.1239 54.0862C14.1239 59.3209 14.1239 64.5555 14.1239 69.7902C14.1239 70.0994 14.1239 70.4307 14.1239 70.8283C12.7545 70.8283 11.4734 70.8062 10.2144 70.8283C9.46346 70.8504 9.04381 71.3142 8.97754 72.021C8.91128 72.7499 9.33094 73.2137 10.0377 73.3904C10.347 73.4567 10.7003 73.4346 11.0317 73.4346C23.4668 73.4346 35.8798 73.4346 48.3149 73.4346C49.8169 73.4346 49.6623 73.5229 50.4353 74.804C51.4513 76.4826 51.3851 77.9846 50.369 79.5749C49.8831 80.3258 50.104 81.0105 50.7666 81.629C51.9372 82.7554 53.0637 83.926 54.2122 85.0746C55.0515 85.9139 55.427 86.0685 56.4651 85.4501C57.9891 84.5666 59.2923 84.677 60.9709 85.3396C62.7821 86.0464 63.8202 87.0182 64.2398 88.8294C64.4386 89.6687 65.0571 90 65.9185 89.9779C67.4867 89.9559 69.0549 89.9779 70.623 89.9779C72.0808 89.9779 72.3459 89.8896 72.7655 88.4539C73.2073 86.9078 73.9582 85.8035 75.6369 85.5605C75.7473 85.5384 75.8577 85.5163 75.9461 85.4501C77.4701 84.3015 78.972 84.5666 80.474 85.5163C81.247 86.0022 81.9759 85.8255 82.6164 85.1408C83.7208 83.9923 84.8693 82.8658 85.9958 81.7394C86.9234 80.8117 87.056 80.5025 86.3933 79.354C85.5319 77.8741 85.6865 76.6152 86.305 75.0028C87.0118 73.1475 87.9836 72.0873 89.839 71.6455C90.6783 71.4467 90.9875 70.8283 90.9654 69.9669C90.9654 68.3545 90.9875 66.7201 90.9875 65.1077ZM23.7981 70.74C21.5231 70.74 19.226 70.74 16.8185 70.74C16.8185 65.439 16.8185 60.2043 16.8185 54.8813C19.1377 54.8813 21.4348 54.8813 23.7981 54.8813C23.7981 60.116 23.7981 65.3948 23.7981 70.74ZM41.8213 70.762C39.5021 70.762 37.205 70.762 34.8638 70.762C34.8638 62.1922 34.8638 53.6886 34.8638 45.1188C37.183 45.1188 39.48 45.1188 41.8213 45.1188C41.8213 53.6444 41.8213 62.1701 41.8213 70.762ZM70.9102 25.7482C73.2514 25.7482 75.5485 25.7482 77.8897 25.7482C77.8897 33.9205 77.8897 42.0928 77.8897 50.243C76.5645 49.735 75.2393 49.227 73.9361 48.6969C73.7374 48.6085 73.5827 48.3656 73.4944 48.1668C73.2514 47.6146 73.0085 47.0624 72.8318 46.4661C72.5446 45.5163 72.0808 44.7874 70.8881 44.8979C70.9102 38.4484 70.9102 32.1315 70.9102 25.7482ZM52.8649 34.9365C55.2061 34.9365 57.5253 34.9365 59.9107 34.9365C59.9107 35.2678 59.9107 35.555 59.9107 35.8642C59.9107 40.1933 59.9107 44.5224 59.9107 48.8515C59.9107 50.3313 59.3365 50.7068 58.0112 50.1105C57.4149 49.8454 56.7964 49.5804 56.2001 49.3153C55.5154 49.0061 54.919 49.1165 54.411 49.6687C53.9693 50.1546 53.5275 50.6406 53.0858 51.1044C53.0195 51.0602 52.9532 50.994 52.887 50.9498C52.8649 45.6268 52.8649 40.3258 52.8649 34.9365ZM86.9234 69.9448C85.554 70.3424 84.8472 71.0933 84.4938 72.5069C84.2067 73.7217 83.5662 74.8482 82.9919 75.9746C82.6606 76.6152 82.5722 77.1894 82.8815 77.8521C83.2349 78.6251 83.8533 79.4865 83.7208 80.1712C83.5883 80.8338 82.6606 81.3639 82.0863 81.9603C81.7771 82.2695 81.49 82.6008 81.2028 82.9321C80.3414 82.5566 79.5463 82.2253 78.7732 81.8719C78.199 81.6069 77.691 81.6731 77.1167 81.9382C75.6148 82.6229 74.0687 83.1751 72.5888 83.8598C72.1029 84.0806 71.6391 84.5003 71.374 84.942C70.9544 85.6709 70.9323 86.8195 70.3359 87.217C69.7175 87.6367 68.6352 87.2833 67.7517 87.3937C66.7578 87.5263 66.2056 87.1508 66.0068 86.1789C65.9626 85.936 65.808 85.7151 65.7418 85.4721C65.4767 84.412 64.8141 83.9481 63.776 83.6389C62.4729 83.2634 61.2139 82.645 59.9991 82.0486C59.2923 81.6952 58.6959 81.5627 57.9891 81.9382C57.2823 82.2916 56.4651 82.8879 55.8246 82.7775C55.162 82.6671 54.6319 81.8057 54.0797 81.2314C52.7766 79.8841 52.8207 80.4804 53.66 78.7797C54.2564 77.5428 54.3447 76.5489 53.5717 75.3341C52.9091 74.2739 52.5557 73.037 52.1802 71.8222C51.9372 71.0713 51.5838 70.5633 50.8329 70.3203C50.0819 70.0773 49.088 69.9006 48.7125 69.3485C48.337 68.7963 48.58 67.8024 48.5579 67.0072C48.5579 65.5274 48.5579 65.5274 49.9494 64.9973C50.3028 64.8647 50.7224 64.7985 51.0096 64.5555C51.4292 64.2021 51.871 63.8046 52.0918 63.3186C52.7766 61.8609 53.3066 60.3148 53.9913 58.857C54.2564 58.2827 54.3889 57.7747 54.1018 57.2226C54.0576 57.1563 54.0355 57.068 53.9913 57.0017C53.7042 56.2728 53.4171 55.5218 53.1079 54.793C53.9472 53.9316 54.7865 53.0481 55.67 52.2088C55.7583 52.1204 56.0896 52.1867 56.2663 52.2529C56.9069 52.518 57.5474 52.783 58.1437 53.0922C58.7401 53.4015 59.2702 53.291 59.8666 53.0039C61.3464 52.3413 62.8704 51.7891 64.3282 51.1044C64.8141 50.8835 65.1454 50.3976 65.5651 50.0221C65.5872 50 65.5872 49.9779 65.5872 49.9559C65.9185 49.1828 66.2498 48.4098 66.6032 47.6146C67.7959 47.5925 68.9665 47.5704 70.1592 47.5925C70.3138 47.5925 70.5347 47.8797 70.623 48.0564C70.8881 48.6527 71.1311 49.2712 71.3298 49.9117C71.5507 50.5743 71.9925 50.9056 72.6551 51.1486C74.1349 51.7008 75.6148 52.2971 77.0504 52.9597C77.6689 53.2469 78.2211 53.3352 78.8395 53.026C79.6126 52.6726 80.474 52.0541 81.1807 52.1867C81.8434 52.3192 82.3955 53.2248 82.9698 53.8211C83.9196 54.7709 83.9196 54.7709 83.3895 56.0078C83.2349 56.3612 83.0803 56.7146 82.9036 57.068C82.5723 57.7085 82.6827 58.2828 82.9919 58.9454C83.6324 60.3148 84.2288 61.7063 84.7147 63.1199C84.9798 63.8929 85.3552 64.4009 86.1283 64.666C86.8572 64.9089 87.829 65.0635 88.1824 65.5715C88.5579 66.1458 88.3149 67.1176 88.337 67.8907C88.3591 69.4368 88.3591 69.5252 86.9234 69.9448Z" fill="white"/>
<path d="M15.3832 45.3617C17.1943 44.6991 19.0055 44.0586 20.7946 43.3739C38.1993 36.7256 54.3451 27.8686 69.0331 16.3833C69.6736 15.8753 70.3142 15.3893 71.1093 14.7488C70.8443 16.1182 70.6013 17.2668 70.3583 18.4153C70.1595 19.365 70.5571 20.0718 71.3302 20.2264C72.1253 20.3811 72.7438 19.9393 72.9425 18.9896C73.4285 16.6262 73.9144 14.2408 74.4003 11.8775C74.6433 10.6848 74.0911 10.0221 72.8542 10.0001C70.4467 9.97796 68.0613 10.0001 65.6538 10.0001C64.6377 10.0001 64.0193 10.5522 64.0414 11.3695C64.0635 12.1646 64.6598 12.6505 65.6538 12.6505C66.8244 12.6505 67.995 12.6505 69.4086 12.6505C69.0994 12.9377 68.9889 13.0481 68.8564 13.1364C59.6681 20.4694 49.8172 26.8084 39.3478 32.1977C31.3081 36.328 23.0254 39.862 14.4997 42.8659C13.307 43.2855 12.8652 43.9261 13.1966 44.7433C13.55 45.5826 14.2347 45.7814 15.3832 45.3617Z" fill="white"/>
<path d="M68.4142 54.6163C61.3021 54.6384 55.5815 60.381 55.6036 67.5152C55.6257 74.5831 61.3904 80.3037 68.4584 80.3037C75.5705 80.3037 81.3573 74.539 81.3352 67.4269C81.291 60.3148 75.5484 54.5942 68.4142 54.6163ZM68.4142 77.6754C62.7378 77.6533 58.2099 73.0591 58.232 67.3827C58.254 61.7725 62.8703 57.2447 68.5246 57.2667C74.1348 57.2888 78.7068 61.9272 78.6627 67.5152C78.6185 73.1475 74.0464 77.6974 68.4142 77.6754Z" fill="white"/>
<path d="M73.1189 66.1679C72.0587 66.1458 70.9764 66.1679 69.7837 66.1679C69.7837 64.7322 69.8058 63.4511 69.7837 62.148C69.7616 61.1982 69.2094 60.5798 68.4364 60.6019C67.6412 60.6019 67.1553 61.1982 67.1553 62.1922C67.1553 63.8708 67.1332 65.5494 67.1553 67.2281C67.1553 68.3103 67.6192 68.7742 68.7235 68.7963C70.1813 68.8183 71.639 68.8183 73.0968 68.8183C74.0907 68.8183 74.6429 68.3103 74.665 67.4931C74.665 66.6759 74.1128 66.19 73.1189 66.1679Z" fill="white"/>
</svg>
