<svg width="100" height="100" viewBox="0 0 100 100" fill="none" xmlns="http://www.w3.org/2000/svg">
<path d="M44.1312 28.1282C41.4684 28.1282 38.8056 28.1282 36.3889 28.1282C36.3889 25.443 36.5232 22.8921 36.3665 20.3636C36.0756 15.8883 32.3611 12.308 28.0201 12.0171C26.6103 11.9276 25.9167 12.3975 25.9614 13.8744C26.0062 15.3288 25.9614 16.7609 25.9614 18.2154C25.9614 24.2123 21.0386 29.1799 15.0864 29.1799C13.6991 29.1799 12.3117 29.2023 10.902 29.1799C9.64892 29.1576 9 29.6498 9 30.9253C9 37.7725 9.02238 44.6198 9 51.467C9 52.7424 9.58179 53.2795 10.8349 53.2571C12.8935 53.2347 14.9522 53.2123 17.0108 53.2795C17.5255 53.3018 18.1744 53.3914 18.5548 53.7046C21.8218 56.4793 25.6482 56.8597 29.7207 56.5017C33.8156 56.1437 37.9105 55.808 42.0054 55.6066C45.4066 55.4276 47.2863 53.0781 46.5702 49.7887C46.4807 49.4307 46.5031 48.8042 46.7269 48.6475C48.7631 47.0812 48.8974 45.0449 48.2708 42.8744C51.4931 40.413 51.6721 38.0634 48.9198 34.9531C50.3966 30.791 48.5394 28.1506 44.1312 28.1282ZM17.1674 50.4824C15.3997 50.4824 13.6543 50.4824 11.7971 50.4824C11.7971 44.3512 11.7971 38.2201 11.7971 31.9099C13.6319 31.9099 15.3326 31.9099 17.1674 31.9099C17.1674 38.0858 17.1674 44.217 17.1674 50.4824ZM35.74 32.6035C35.8295 31.9546 36.635 31.0372 37.2616 30.9029C38.6042 30.6344 40.0139 30.8134 41.4012 30.8134C42.632 30.8134 43.885 30.612 45.0486 30.8805C45.7199 31.0372 46.6374 31.9099 46.6597 32.4917C46.6821 33.0511 45.7199 34.1251 45.1381 34.1475C42.4753 34.3265 39.8125 34.3042 37.1497 34.1475C36.6127 34.1251 35.6728 33.0734 35.74 32.6035ZM33.659 25.8906C33.5247 26.9199 32.6744 27.8373 32.2716 28.8443C32.0031 29.4932 31.6898 30.3659 31.8912 30.9253C33.3009 34.5727 32.8534 36.318 29.7207 38.6228C29.2732 38.9585 28.6466 39.1599 28.3781 39.585C28.0872 40.0549 27.8187 40.9276 28.0424 41.2856C28.2886 41.666 29.206 41.8674 29.7207 41.7332C30.4367 41.5542 31.0409 40.9724 31.7346 40.5248C32.8086 41.5765 33.6366 42.494 33.0772 44.3289C32.7415 45.4253 33.4576 46.835 33.6366 47.7972C33.3457 49.6545 33.0995 51.3551 32.8087 53.3018C29.2955 53.8613 25.3125 54.8011 21.4637 52.5187C20.412 51.8921 19.9198 51.1761 19.9421 49.8559C20.0316 44.1275 20.0093 38.3991 19.9421 32.6483C19.9421 31.5966 20.1659 30.8582 21.1281 30.3211C21.8441 29.9184 22.4931 29.3589 23.1644 28.8667C26.9907 26.1591 29.0718 22.6012 28.6466 17.7903C28.5795 16.9623 28.6466 16.112 28.669 15.2841C28.669 15.1946 28.7585 15.0827 28.8032 14.9932C31.4213 15.5079 33.4128 17.5889 33.659 20.3859C33.838 22.2208 33.8827 24.0781 33.659 25.8906ZM43.9745 51.1313C43.8627 51.7802 43.0571 52.5634 42.3858 52.8319C41.6026 53.1228 40.6404 52.8991 39.7454 52.8991C38.9174 52.8991 38 53.1228 37.284 52.8319C36.6127 52.541 35.8071 51.7802 35.7176 51.1313C35.6505 50.639 36.5679 49.565 37.1273 49.4978C38.9174 49.2964 40.7747 49.2741 42.5872 49.4978C43.1242 49.565 44.0417 50.639 43.9745 51.1313ZM44.1088 46.656C42.99 46.6784 41.8712 46.656 40.7747 46.656C40.7747 46.656 40.7747 46.656 40.7747 46.6336C39.6111 46.6336 38.3804 46.835 37.284 46.5665C36.635 46.4099 35.74 45.4701 35.74 44.8883C35.7624 44.3065 36.7245 43.3219 37.3287 43.2772C39.5887 43.0758 41.8935 43.0758 44.1536 43.2772C44.7801 43.3219 45.6528 44.2393 45.8094 44.8883C46.0556 45.9847 45.2276 46.6113 44.1088 46.656ZM45.9661 40.5248C44.3549 40.5248 42.7438 40.5248 41.1104 40.5248C39.544 40.5248 38 40.5248 36.4337 40.5248C35.2029 40.5248 34.3079 40.0549 34.3303 38.7123C34.3526 37.4593 35.2253 36.9893 36.3441 36.967C39.5664 36.9446 42.811 36.9446 46.0332 36.967C47.1744 36.967 48.0695 37.4816 48.0695 38.7123C48.0918 40.0102 47.1968 40.5248 45.9661 40.5248Z" fill="white"/>
<path d="M81.5668 39.6746C78.7921 39.7417 75.9951 39.697 73.2204 39.697C71.8778 39.697 71.3184 40.3459 71.3184 41.6661C71.3407 57.0835 71.3407 72.5234 71.3184 87.9408C71.3184 89.4624 71.9897 90.0218 73.4665 89.9994C75.9727 89.9547 78.4789 89.9771 80.985 89.9771C83.5136 89.9771 83.6702 89.8204 83.6702 87.359C83.6702 79.8852 83.6702 72.4338 83.6702 64.9601C83.6702 57.2849 83.6478 49.5874 83.6926 41.9122C83.6926 40.3459 83.1779 39.6298 81.5668 39.6746ZM80.9179 87.2024C78.6131 87.2024 76.465 87.2024 74.1602 87.2024C74.1602 72.3443 74.1602 57.5087 74.1602 42.5164C76.3531 42.5164 78.5907 42.5164 80.9179 42.5164C80.9179 57.3968 80.9179 72.1877 80.9179 87.2024Z" fill="white"/>
<path d="M65.7473 50.7509C65.7473 49.453 65.2102 48.8041 63.8453 48.8488C61.1153 48.8936 58.3854 48.8488 55.6555 48.8712C53.5968 48.8712 53.3954 49.0726 53.3954 51.2208C53.3954 57.2848 53.3954 63.3489 53.3954 69.4353C53.3954 75.6112 53.4178 81.7871 53.373 87.9631C53.373 89.3728 53.9101 89.9993 55.3422 89.9993C58.1169 89.9546 60.9139 89.9546 63.6886 89.9993C65.076 90.0217 65.7473 89.4399 65.7473 88.0302C65.7473 75.5888 65.7473 63.1698 65.7473 50.7509ZM62.9726 87.2023C60.6007 87.2023 58.4525 87.2023 56.1925 87.2023C56.1925 75.3427 56.1925 63.5502 56.1925 51.6459C58.4078 51.6459 60.6678 51.6459 62.9726 51.6459C62.9726 63.5279 62.9726 75.2979 62.9726 87.2023Z" fill="white"/>
<path d="M91.7708 20.2293C91.3233 19.0209 90.2716 18.8867 89.1752 18.8419C87.2284 18.7524 85.2816 18.5958 83.3349 18.5734C82.3727 18.5734 81.9699 18.1706 81.679 17.3203C81.0301 15.4407 80.3812 13.5163 79.5085 11.7262C79.1281 10.9654 78.1883 10.0703 77.4498 10.0032C76.8681 9.93606 75.9059 10.943 75.5478 11.6814C74.6528 13.5387 74.0934 15.5302 73.2431 17.4098C73.0193 17.9245 72.3032 18.4615 71.7438 18.5287C69.6404 18.7524 67.5147 18.6629 65.4113 18.9538C64.6281 19.0657 63.5764 19.7146 63.3079 20.4083C63.0841 20.9677 63.6211 22.1089 64.1805 22.6459C65.6798 24.0557 67.3356 25.3088 68.9691 26.5395C69.7299 27.1213 69.9761 27.6807 69.6628 28.6652C68.9691 30.9029 68.4321 33.1629 67.8503 35.2439C67.8055 37.0564 69.4167 37.9963 70.8935 37.1236C72.6613 36.0719 74.4066 34.9754 76.0625 33.7447C77.0694 32.9839 77.8079 32.9615 78.8372 33.7C80.4483 34.8859 82.1265 36.0271 83.8719 36.9669C84.5208 37.325 85.7292 37.3921 86.2662 36.9893C86.7809 36.6089 87.027 35.423 86.8927 34.6845C86.5571 32.7825 86.0424 30.8805 85.4159 29.0456C85.0131 27.8597 85.1698 27.0989 86.2215 26.3604C87.7207 25.3087 89.0856 24.078 90.5401 22.9368C91.4352 22.1984 92.2184 21.4824 91.7708 20.2293ZM83.6481 24.9955C82.3951 25.9129 82.0147 26.9422 82.5293 28.4638C83.0664 30.075 83.4468 31.7532 83.9838 33.8342C82.1937 32.6706 80.6944 31.7756 79.2847 30.7686C78.0764 29.9183 77.0023 29.8736 75.7716 30.7463C74.3843 31.7532 72.9074 32.6259 71.0278 33.8566C71.6096 31.6413 72.0347 29.8736 72.5494 28.1282C72.9298 26.8751 72.5718 25.98 71.5872 25.2192C70.1551 24.1004 68.7677 22.9592 67.0447 21.5942C69.0363 21.46 70.625 21.2138 72.1914 21.281C74.1605 21.3705 75.1451 20.4978 75.6821 18.7077C76.1073 17.2308 76.7562 15.8211 77.4722 13.9638C78.233 15.9554 78.9267 17.5441 79.4861 19.2C79.956 20.6097 80.8063 21.2586 82.3056 21.2586C84.0286 21.2586 85.7515 21.4376 87.9221 21.5719C86.3557 22.8473 85.0355 23.9885 83.6481 24.9955Z" fill="white"/>
<path d="M47.7791 60.9545C47.7791 59.5224 47.1525 58.9406 45.7652 58.963C43.0353 59.0077 40.3053 59.0077 37.5978 58.963C36.0314 58.9182 35.3825 59.5224 35.4049 61.1111C35.472 65.5641 35.4272 70.017 35.4272 74.4699C35.4272 78.9229 35.472 83.3758 35.4049 87.8287C35.3825 89.4399 36.0538 90.0216 37.5978 89.9769C40.3277 89.9098 43.0576 89.9321 45.7876 89.9769C47.1749 89.9993 47.8238 89.4399 47.8015 87.9854C47.7567 78.9676 47.7567 69.9723 47.7791 60.9545ZM44.982 87.1798C42.7667 87.1798 40.5515 87.1798 38.2243 87.1798C38.2243 78.7662 38.2243 70.3527 38.2243 61.7377C40.4843 61.7377 42.6772 61.7377 44.982 61.7377C44.982 70.2184 44.982 78.6544 44.982 87.1798Z" fill="white"/>
<path d="M27.9524 68.6968C25.0659 68.7192 22.1569 68.6968 19.2703 68.6968C18.0396 68.6968 17.4131 69.301 17.4131 70.5317C17.4131 76.372 17.4131 82.2346 17.4131 88.0749C17.4131 89.4175 18.0396 89.9769 19.3598 89.9769C22.2017 89.9545 25.0435 89.9545 27.8853 89.9769C29.2055 89.9769 29.8097 89.4175 29.7873 88.0525C29.7426 85.166 29.7649 82.257 29.7649 79.3704C29.7649 76.4839 29.7426 73.5749 29.7873 70.6883C29.8097 69.3681 29.3398 68.6744 27.9524 68.6968ZM26.9903 87.2022C24.7078 87.2022 22.4926 87.2022 20.1878 87.2022C20.1878 81.9661 20.1878 76.8195 20.1878 71.5163C22.4031 71.5163 24.6407 71.5163 26.9903 71.5163C26.9903 76.73 26.9903 81.9214 26.9903 87.2022Z" fill="white"/>
</svg>
