<svg width="100" height="100" viewBox="0 0 100 100" fill="none" xmlns="http://www.w3.org/2000/svg">
<path d="M45.3787 41.3739C44.5296 44.0519 43.6588 46.7298 42.8314 49.4295C42.1565 51.6502 43.0927 53.6097 44.9869 54.1975C47.0116 54.8289 48.8405 53.7621 49.5807 51.4761C50.2339 49.4731 50.8217 47.4483 51.5184 45.4453C51.6708 45.0098 52.0627 44.6615 52.3457 44.2696C52.5634 44.3785 52.7594 44.4873 52.9771 44.5962C50.6693 49.4077 50.3863 54.8725 47.7083 59.5969C46.2496 62.166 44.5296 64.2561 41.8517 65.6277C39.7834 66.6946 37.8675 68.0444 35.908 69.2854C33.7091 70.6788 33.0777 72.6165 34.188 74.4671C35.3202 76.3395 37.432 76.6225 39.7181 75.2291C41.0026 74.4235 42.2654 73.5962 43.5717 72.8124C47.9043 70.2434 52.3457 67.8049 54.7624 62.8192C56.33 63.9949 57.854 65.1488 59.378 66.2809C58.2023 68.5234 57.092 70.5699 56.0252 72.6383C54.893 74.8372 55.3502 76.8184 57.2226 77.8417C59.0514 78.8432 61.0544 78.1248 62.2301 75.9911C63.7977 73.0955 65.3435 70.1781 66.8675 67.2389C68.0214 65.0181 67.7166 63.5594 65.7572 61.9701C64.059 60.5549 62.3172 59.1833 60.5755 57.7463C61.3157 56.2223 62.1213 54.8725 62.6656 53.4138C63.3187 51.672 64.3202 50.8011 66.2579 50.91C67.4336 50.9753 68.631 50.7358 69.8067 50.5616C72.0057 50.2351 73.2467 48.6893 73.0725 46.6427C72.8983 44.6833 71.2437 43.3987 69.0447 43.5294C68.1521 43.5729 67.2594 43.6818 66.5845 43.7471C65.8878 42.1795 65.2782 40.8079 64.6686 39.458C68.9794 39.0661 71.2654 36.6712 70.7865 33.0353C70.3946 30.0091 67.4554 27.7666 64.4509 28.5068C63.1445 28.8334 61.7511 29.726 60.8803 30.7493C59.2038 32.7305 59.7264 35.0383 60.7714 37.1502C57.0049 37.3897 53.3908 37.5856 49.7767 37.8251C47.5124 38.0211 46.0754 39.2403 45.3787 41.3739ZM69.5237 45.8589C70.0027 45.9242 70.7211 46.5992 70.7211 46.9911C70.7211 47.4265 70.0462 47.8837 69.6325 48.2974C69.5019 48.4062 69.2189 48.3627 69.0012 48.3845C67.7819 48.4933 66.5627 48.624 65.1911 48.7328C66.1273 46.1855 67.1288 45.4888 69.5237 45.8589ZM46.4673 68.3928C43.7459 69.8079 41.2203 71.615 38.6077 73.2479C37.8239 73.7486 36.9313 74.3582 36.2128 73.2914C35.4726 72.1811 36.4305 71.6585 37.2361 71.1578C39.7181 69.612 42.1348 67.9791 44.6821 66.5422C46.4456 65.5407 47.7736 64.2561 48.6445 62.4491C49.1453 61.4258 49.7767 60.4896 50.408 59.401C51.3007 60.1412 52.0409 60.7509 52.8029 61.404C51.1918 64.2779 49.4936 66.847 46.4673 68.3928ZM65.3435 30.6622C67.1723 30.6404 68.631 32.1427 68.5657 33.9933C68.5222 35.7786 67.0852 37.1284 65.2782 37.1067C63.4929 37.0631 62.0995 35.648 62.0995 33.8627C62.143 32.0992 63.58 30.6622 65.3435 30.6622ZM58.5072 39.5669C60.0094 39.3492 61.8818 39.7628 63.1881 41.657C64.342 43.3334 64.2985 45.0969 63.4058 46.8822C61.7729 50.1698 60.1836 53.5008 58.5072 56.7666C57.8975 57.9641 58.0499 58.7261 59.1168 59.5316C60.8585 60.8162 62.4696 62.2967 64.1896 63.603C65.2346 64.4085 65.4741 65.1923 64.7992 66.368C63.2534 69.1548 61.8382 72.0286 60.2489 74.7937C59.9441 75.338 58.899 75.9476 58.4418 75.7952C57.3315 75.4468 57.6363 74.4889 58.0717 73.6398C59.2038 71.5497 60.2489 69.3943 61.4463 67.3477C62.1648 66.1285 62.0342 65.3229 60.8367 64.4956C58.3547 62.7539 55.9598 60.8815 53.5432 59.0527C51.6273 57.6157 51.366 56.7884 52.1062 54.437C53.086 51.2801 54.0875 48.145 55.0672 44.9881C55.7421 42.7673 54.9583 42.0053 52.607 41.9836C50.604 41.9836 49.7331 42.8327 49.2977 44.6833C48.8187 46.6863 48.1002 48.6022 47.4906 50.5834C47.2076 51.4761 46.7721 52.4123 45.7271 51.8897C45.2917 51.672 44.9651 50.5181 45.1175 49.9303C45.836 47.2741 46.7504 44.6615 47.5559 42.0271C47.9261 40.8514 48.6881 40.22 49.9073 40.133C52.5852 39.9588 55.2196 39.7846 58.5072 39.5669Z" fill="white"/>
<path d="M85.5046 54.9595C86.4844 39.5451 76.0992 25.1757 60.9243 20.9955C60.3146 20.8213 59.7268 20.6254 58.9648 20.3859C59.3131 20.1682 59.4873 20.0376 59.6833 19.9505C60.467 19.6021 61.0767 18.9925 60.4888 18.2087C60.2276 17.8604 59.2261 17.7515 58.6818 17.9257C57.2013 18.4482 55.8079 19.1667 54.3927 19.8416C53.5872 20.2117 53.0429 20.9302 53.696 21.6269C55.0023 23.0638 56.461 24.3702 57.9415 25.6329C58.181 25.8289 59.0301 25.7418 59.2043 25.5023C59.4438 25.1757 59.4873 24.5008 59.3349 24.0871C59.1607 23.6299 58.6818 23.2816 58.2463 22.8026C58.5294 22.7808 58.6818 22.759 58.8342 22.7808C75.3372 26.2643 86.2884 43.2899 82.6308 59.7493C79.365 74.4889 66.9768 84.5039 51.7801 84.5692C38.4993 84.6345 25.2185 84.591 11.9377 84.591C11.3063 84.591 10.6749 84.591 10 84.591C10 85.4401 10 86.115 10 86.8117C10.5008 86.8335 10.8709 86.877 11.2628 86.877C24.8048 86.877 38.3687 86.8988 51.9107 86.8552C53.5218 86.8552 55.1547 86.7464 56.7658 86.5069C72.681 84.2644 84.4814 71.3102 85.5046 54.9595Z" fill="white"/>
<path d="M19.3835 26.9827C19.2311 28.5503 19.7537 29.4212 21.4519 29.5954C22.5622 29.7042 23.629 31.7943 22.9541 32.5781C21.3648 34.3416 22.3227 35.452 23.6726 36.6059C24.0862 36.9542 24.4781 37.3244 24.8265 37.7598C25.828 39.0226 26.8295 39.3491 28.2447 38.217C29.2026 37.4332 31.2492 38.2823 31.4016 39.4798C31.6193 41.1997 32.4466 41.8093 34.123 41.6134C34.8633 41.5263 35.6471 41.5263 36.3873 41.6134C37.9331 41.7658 38.8475 41.3521 39.0217 39.6104C39.1523 38.3694 41.2207 37.4114 42.1351 38.1735C43.6809 39.458 44.7259 38.9137 45.7927 37.6074C46.337 36.9325 46.9684 36.3446 47.6216 35.7786C48.536 34.9948 48.536 34.211 47.8828 33.2313C46.7942 31.6201 47.5127 29.9219 49.4069 29.5736C50.5825 29.3559 51.1051 28.7898 50.9962 27.5706C50.9527 27.0263 50.9962 26.482 50.9962 25.9377C51.1051 24.0218 51.4316 22.0841 48.5142 21.8228C48.1005 21.7793 47.2297 19.5368 47.578 19.0796C48.9061 17.3161 48.2312 16.2492 46.8596 15.1171C46.3588 14.7034 45.8798 14.2462 45.4879 13.7455C44.53 12.5263 43.5938 12.3956 42.331 13.3971C41.3513 14.1809 39.1959 13.4407 39.087 12.265C38.8911 10.1314 37.6719 9.87011 35.9736 10.0443C35.3205 10.1096 34.6673 10.1314 34.036 10.0443C32.4248 9.84833 31.6411 10.4797 31.4451 12.1126C31.2927 13.3318 29.2462 14.2462 28.3317 13.4842C26.873 12.2868 25.828 12.6569 24.8047 13.9632C24.3693 14.5075 23.8685 15.03 23.3242 15.4437C22.0179 16.467 21.8002 17.4685 22.9106 18.8401C23.6726 19.7763 22.8017 21.8881 21.6043 21.997C19.819 22.1712 19.2964 23.0856 19.4706 24.7185C19.4706 25.4587 19.4488 26.2207 19.3835 26.9827ZM21.7349 24.4354C25.0442 23.238 26.3505 20.1682 24.6959 17.3596C25.3925 16.7718 26.111 16.1404 26.9166 15.4655C29.834 16.8153 32.8167 15.5961 33.7965 12.3521C34.6891 12.3521 35.6035 12.3521 36.7139 12.3521C36.6486 14.2245 37.8896 14.9429 39.4571 15.5525C40.9594 16.1186 42.3092 16.6847 43.6373 15.1389C44.4211 15.9227 45.096 16.5976 45.7492 17.2507C44.1163 20.1682 45.4008 23.3033 48.6884 24.4354C48.6884 25.0233 48.7972 25.6764 48.6448 26.286C48.536 26.7433 48.1005 27.3964 47.7304 27.4617C46.6201 27.6141 46.1629 28.2673 45.8363 29.2035C45.2484 30.8799 43.8115 32.5128 45.8363 34.211C45.0743 34.9948 44.3993 35.6915 43.768 36.3446C41.9174 35.2996 38.7822 35.6915 37.4324 37.0413C37.3235 37.1502 37.1711 37.3026 37.1711 37.4332C37.0622 39.8063 35.4076 39.3491 33.9489 39.2403C32.5555 35.8874 29.6381 34.6682 26.6989 36.3664C26.0675 35.6915 25.4143 34.9948 24.7612 34.2981C26.3287 31.3371 25.1531 28.4632 21.7784 27.1569C21.7349 26.2425 21.7349 25.3281 21.7349 24.4354Z" fill="white"/>
<path d="M34.689 82C35.0374 82.2831 35.8865 81.9129 36.5179 81.8476C36.3219 81.3033 36.1695 80.7373 35.93 80.193C35.8647 80.0188 35.5817 79.9535 35.4075 79.8228C22.1267 71.027 17.4022 55.8303 23.2806 40.9602C23.5854 40.1764 23.9991 39.3273 22.9976 38.8483C21.8219 38.304 21.5171 39.3273 21.1905 40.1111C19.3617 44.2913 18.5344 48.6674 18.4473 53.2177C18.4473 61.3386 21.2776 69.3506 26.7859 75.3379C29.0937 77.8634 31.9893 79.8664 34.689 82Z" fill="white"/>
<path d="M90.2728 85.0264C88.9011 83.8072 87.4207 82.7186 85.8749 81.7171C85.5701 81.5211 84.721 81.7171 84.5032 82.0219C84.2855 82.3049 84.4162 83.0016 84.6121 83.437C84.7863 83.8072 85.2217 84.0684 85.7878 84.5909C84.8951 84.5909 84.3726 84.5909 83.8501 84.5909C80.4972 84.5909 77.1444 84.5909 73.7697 84.5909C72.8771 84.5909 71.6579 84.395 71.6143 85.6795C71.5708 87.16 72.8989 86.8117 73.8133 86.8334C74.8366 86.877 75.8816 86.8334 76.9049 86.8334C79.757 86.8334 82.6091 86.8334 85.8966 86.8334C85.3959 87.3124 85.1782 87.4431 85.0911 87.6172C84.8298 88.2268 84.2637 89.0542 84.4815 89.4461C85.0258 90.4476 85.8313 89.8815 86.5062 89.3807C87.6384 88.5316 88.8576 87.7914 89.8591 86.8334C90.251 86.4633 90.5123 85.2441 90.2728 85.0264Z" fill="white"/>
<path d="M31.2493 53.3267C30.705 53.4137 30.2478 54.0016 29.7471 54.3717C30.2261 54.7636 30.6833 55.4603 31.184 55.4821C33.4483 55.6127 35.7125 55.6127 37.955 55.4821C38.4558 55.4603 38.913 54.7418 39.392 54.3499C38.8912 54.0016 38.4123 53.4137 37.8462 53.3267C36.8011 53.1525 35.6908 53.2831 34.624 53.2831C33.5136 53.2831 32.3597 53.1525 31.2493 53.3267Z" fill="white"/>
<path d="M39.3045 47.4048C37.4757 47.3177 35.6469 47.2959 33.8398 47.4048C33.4915 47.4265 32.9036 48.0797 32.9254 48.428C32.9254 48.7982 33.4697 49.386 33.8616 49.4731C34.6889 49.6255 35.5598 49.5166 36.4307 49.5166V49.4949C37.3886 49.4949 38.3683 49.6037 39.3263 49.4513C39.6747 49.386 40.1101 48.7546 40.1536 48.3409C40.1754 48.0361 39.6311 47.4048 39.3045 47.4048Z" fill="white"/>
<path d="M36.6489 59.3356C36.2788 59.3574 35.6474 60.0976 35.7127 60.3589C35.8216 60.7943 36.3441 61.3386 36.7795 61.4475C37.498 61.6216 38.2818 61.491 39.022 61.491C39.8276 61.491 40.6549 61.5999 41.4387 61.4475C41.8524 61.3604 42.5055 60.7725 42.4402 60.5113C42.3531 60.0541 41.8524 59.3791 41.4822 59.3356C39.8929 59.205 38.26 59.2267 36.6489 59.3356Z" fill="white"/>
<path d="M34.9727 34.4069C39.8278 34.4939 43.7467 30.7274 43.7903 25.9158C43.8338 21.1478 40.0891 17.2289 35.3864 17.1636C30.553 17.0765 26.5906 20.8648 26.5252 25.6546C26.4599 30.3573 30.2918 34.3415 34.9727 34.4069ZM35.2122 19.4278C38.6957 19.4496 41.5042 22.2364 41.526 25.7199C41.5478 29.2252 38.7828 32.0773 35.321 32.1208C31.7505 32.1644 28.8548 29.3558 28.8113 25.8288C28.7895 22.3235 31.6852 19.4278 35.2122 19.4278Z" fill="white"/>
</svg>
