<svg width="60" height="60" viewBox="0 0 60 60" fill="none" xmlns="http://www.w3.org/2000/svg">
<path d="M45.8002 17.7292C47.5632 14.1326 48.7621 10.3244 49.3615 6.33995C49.5026 5.28213 49.0442 4.92952 48.0569 4.96478C44.7071 5.70526 41.3573 6.33995 38.0427 7.08043C36.2092 7.4683 36.0329 7.89143 37.267 9.33713C38.2543 10.5007 38.0075 11.2412 36.9497 12.0875C35.7508 13.0043 34.6224 14.0621 33.3883 14.9436C26.2656 20.0917 18.5082 24.1467 10.4687 27.6376C9.6577 27.9902 7.89466 27.8844 8.28253 29.1185C8.6704 30.3174 10.2571 29.6827 11.2444 29.4359C21.5759 26.7913 31.2727 22.7363 40.4052 17.3061C41.8862 16.4246 42.7677 16.1778 43.7198 17.835C44.3545 18.8928 45.1655 19.0339 45.8002 17.7292ZM40.9694 15.0847C35.1161 19.1749 28.5576 21.7842 21.9285 24.2525C22.3869 23.3357 23.2684 23.0889 24.0089 22.6658C29.2628 19.6686 34.4461 16.5656 38.8538 12.3696C39.8058 11.4528 40.4052 10.6418 39.2769 9.44292C38.6774 8.84348 38.9948 8.34983 39.7353 8.20878C42.0272 7.71513 44.3192 7.25674 46.6112 6.79835C47.3869 6.62204 47.7395 7.00991 47.5985 7.75039C47.0695 10.395 46.2585 12.969 45.2007 15.4373C44.7423 16.4951 44.2134 16.0014 43.8255 15.402C42.9793 14.0974 42.2035 14.2384 40.9694 15.0847Z" fill="white"/>
<path d="M40.0168 40.0142C40.0168 35.6771 39.9815 31.3047 40.0168 26.9676C40.0168 25.7687 39.5584 25.2398 38.3595 25.2751C36.5964 25.3103 34.8334 25.3103 33.0703 25.2751C31.8362 25.2398 31.4131 25.804 31.4131 27.0029C31.4483 35.7476 31.4483 44.4923 31.4131 53.2723C31.4131 54.4711 31.9067 55 33.1056 54.9648C34.6924 54.9295 36.2791 54.8943 37.8658 54.9648C39.4173 55.0353 40.0873 54.5417 40.052 52.8491C39.9462 48.5826 40.0168 44.2807 40.0168 40.0142ZM36.5612 53.4486C32.3651 53.3428 32.9646 53.7307 32.9646 49.8872C32.9293 42.9408 32.9998 36.0297 32.9293 29.0833C32.894 27.3555 33.3524 26.6855 35.186 26.756C38.9589 26.8971 38.5005 26.474 38.5005 30.0706C38.5358 33.3498 38.5005 36.6644 38.5005 39.9436C38.5005 43.7518 38.43 47.5953 38.5358 51.4034C38.5711 52.9197 38.1479 53.4838 36.5612 53.4486Z" fill="white"/>
<path d="M51.7588 37.8985C51.7588 32.5389 51.7235 27.2145 51.7588 21.8548C51.7588 20.6207 51.5472 19.8097 50.031 19.9155C48.4442 20.0212 46.8575 20.0212 45.2708 19.9155C43.7193 19.8097 43.2256 20.3738 43.2256 21.9253C43.2961 27.0382 43.2609 32.151 43.2609 37.2638C43.2609 42.4472 43.2961 47.5953 43.2256 52.7786C43.1904 54.3301 43.6135 55.1059 45.306 54.9648C46.7517 54.859 48.2327 54.8943 49.7136 54.9648C51.2651 55.0706 51.7588 54.4006 51.7588 52.8844C51.7235 47.9126 51.7588 42.9056 51.7588 37.8985ZM48.2327 53.4486C44.2835 53.3076 44.6361 53.8365 44.6361 49.852C44.6361 41.1778 44.6361 32.5036 44.6361 23.7942C44.6361 21.4317 44.6361 21.3964 46.928 21.4317C50.5599 21.4669 50.3483 20.8675 50.3483 24.7815C50.3483 29.0128 50.3483 33.2441 50.3483 37.4401C50.3483 42.0241 50.2778 46.608 50.3836 51.1566C50.4189 52.8492 49.9957 53.5191 48.2327 53.4486Z" fill="white"/>
<path d="M26.7231 31.9042C24.96 31.9395 23.197 31.9747 21.4339 31.9042C20.1293 31.869 19.6709 32.3274 19.6709 33.632C19.7414 36.8408 19.7062 40.0848 19.7062 43.2935C19.7062 46.5728 19.7062 49.852 19.7062 53.1313C19.7062 54.1186 19.8825 54.8944 21.0813 54.8944C23.0207 54.8944 24.96 54.8944 26.8994 54.8944C27.922 54.8944 28.3451 54.2949 28.3451 53.3076C28.3451 46.6786 28.3451 40.0495 28.3451 33.4204C28.3451 32.3274 27.8514 31.869 26.7231 31.9042ZM26.7936 36.8055C26.8289 39.0269 26.7936 41.2836 26.7936 43.5051C26.7936 46.2554 26.7583 49.041 26.7936 51.7914C26.8289 52.9903 26.4057 53.4839 25.1716 53.4839C20.6229 53.3781 21.1519 54.0481 21.1166 49.6757C21.0813 44.986 21.1519 40.2963 21.0813 35.5714C21.0461 33.9141 21.5397 33.2794 23.2675 33.3499C27.6046 33.3852 26.7231 33.2794 26.7936 36.8055Z" fill="white"/>
<path d="M16.4274 45.5853C16.4274 42.9408 16.3921 40.2962 16.4274 37.6516C16.4626 36.5585 16.11 35.9944 14.9464 36.0296C13.1128 36.0649 11.3145 36.0649 9.48096 36.0296C8.45839 36.0296 8 36.488 8 37.5106C8.03526 42.7997 8.03526 48.0889 8 53.378C8 54.5064 8.49365 54.9648 9.58674 54.9648C11.2793 54.9295 13.0071 54.9295 14.6996 54.9648C16.0042 55 16.4626 54.4358 16.4274 53.1664C16.3921 50.6277 16.4274 48.1241 16.4274 45.5853ZM15.0522 45.5501C15.0522 47.6657 15.0169 49.7814 15.0522 51.8618C15.0522 52.9196 14.6643 53.4485 13.5007 53.4485C8.6347 53.378 9.41044 53.8717 9.37518 49.5346C9.33992 46.079 9.41044 42.6234 9.33992 39.1679C9.30465 37.8985 9.76305 37.3695 11.0677 37.4048C15.4401 37.4753 14.9817 36.9112 15.0169 41.1425C15.0522 42.6234 15.0522 44.0691 15.0522 45.5501Z" fill="white"/>
</svg>
