<svg width="60" height="60" viewBox="0 0 60 60" fill="none" xmlns="http://www.w3.org/2000/svg">
<path d="M14.0497 26.4577C14.0497 19.8238 14.0596 13.19 14.0397 6.55613C14.0397 6.10924 14.1589 6 14.5959 6C21.8256 6.00993 29.0652 6.00993 36.2949 6C36.6028 6 36.8113 6.08938 37.0298 6.30786C40.0091 9.29707 42.9884 12.2863 45.9776 15.2556C46.2457 15.5238 46.345 15.7919 46.345 16.1693C46.3351 26.2293 46.3351 36.2993 46.355 46.3593C46.355 46.7863 46.2755 46.9651 45.7988 46.9452C44.7064 46.9055 43.614 46.9452 42.5216 46.9253C42.1343 46.9154 42.1045 47.0147 42.2733 47.3424C42.8593 48.405 43.4154 49.4677 43.9815 50.5303C44.0609 50.6892 44.2198 50.8481 44.0907 51.0367C43.9616 51.2354 43.7531 51.1063 43.5842 51.0765C42.7401 50.9374 41.886 50.7984 41.0419 50.6296C40.744 50.57 40.5851 50.6494 40.456 50.9176C40.0687 51.722 39.6516 52.5165 39.2543 53.3109C39.1848 53.45 39.1352 53.6089 38.9663 53.6188C38.7876 53.6287 38.728 53.4698 38.6585 53.3407C38.0825 52.298 37.5164 51.2552 36.9404 50.2125C36.861 50.0635 36.7915 49.9146 36.8808 49.7457C37.4668 48.703 37.8144 47.5113 38.8174 46.7267C39.1153 46.4983 39.3636 46.3394 39.741 46.3891C39.9495 46.4189 40.1779 46.3791 40.3865 46.4089C40.7638 46.4685 40.9923 46.3196 41.0816 45.962C41.1809 45.5549 41.4391 45.4953 41.8165 45.5052C42.6904 45.535 43.5743 45.4953 44.4482 45.5251C44.7859 45.535 44.915 45.4456 44.905 45.0881C44.8852 44.1943 44.8951 43.3006 44.8951 42.4068C44.8951 33.886 44.8951 25.3554 44.8951 16.8346C44.8951 16.1593 45.0441 16.1693 44.2397 16.1693C41.7271 16.1693 39.2047 16.1593 36.6922 16.1792C36.285 16.1792 36.1559 16.07 36.1658 15.6529C36.1857 13.0907 36.1658 10.5186 36.1857 7.95639C36.1857 7.57902 36.0864 7.44992 35.6891 7.44992C29.1049 7.45985 22.5108 7.45985 15.9266 7.44992C15.4698 7.44992 15.4797 7.65846 15.4797 7.98619C15.4797 20.2211 15.4797 32.4461 15.4797 44.681C15.4797 45.535 15.4797 45.535 16.3437 45.535C21.2595 45.535 26.1753 45.5449 31.0911 45.5251C31.4983 45.5251 31.7466 45.6244 31.8558 46.0216C31.9452 46.3394 32.1339 46.4983 32.4715 46.4288C32.5013 46.4189 32.541 46.4288 32.5708 46.4288C33.3951 46.26 34.0505 46.5281 34.5471 47.1935C34.7854 47.5113 35.0536 47.5609 35.3912 47.3424C35.5998 47.2133 35.858 47.1637 36.0764 47.0445C36.5631 46.7664 36.9305 47.124 37.3277 47.2729C37.4866 47.3325 37.3774 47.4715 37.3277 47.5709C36.2949 49.6266 35.272 51.6823 34.2392 53.738C34.0605 54.0955 33.8916 54.0855 33.693 53.7181C33.2859 52.9435 32.8787 52.1689 32.5112 51.3645C32.3424 50.9871 32.114 50.9374 31.7664 51.007C30.9521 51.1658 30.1378 51.3049 29.3234 51.4538C29.1546 51.4836 28.946 51.573 28.8169 51.3943C28.6978 51.2254 28.8368 51.0765 28.9063 50.9374C29.4724 49.7954 30.0484 48.6633 30.6144 47.5212C30.9024 46.9551 30.8925 46.9551 30.2768 46.9551C25.0631 46.9551 19.8493 46.9452 14.6356 46.9651C14.139 46.9651 14 46.8459 14 46.3394C14.0596 39.7056 14.0497 33.0816 14.0497 26.4577ZM37.6356 9.18783C37.6157 9.32686 37.5859 9.45596 37.5859 9.57513C37.576 11.1442 37.5859 12.7232 37.5562 14.2923C37.5462 14.7094 37.6853 14.8286 38.0924 14.8286C39.7012 14.8087 41.3001 14.8187 42.9089 14.8187C43.0182 14.8187 43.1373 14.8683 43.2267 14.7591C43.048 14.4314 38.2017 9.60493 37.6356 9.18783Z" fill="white"/>
<path d="M39.602 45.8129C39.026 45.6044 38.6685 46.0811 38.3011 46.4684C38.023 46.7564 37.745 46.8756 37.3874 46.6471C36.7618 46.24 36.1461 46.2996 35.5304 46.6571C35.2026 46.8458 34.9246 46.7961 34.7061 46.4982C34.2493 45.9023 33.6534 45.6938 32.9285 45.8129C32.561 45.8725 32.3227 45.7037 32.2134 45.3561C32.0049 44.661 31.5679 44.2339 30.843 44.1048C30.4259 44.0353 30.2769 43.7473 30.3067 43.3401C30.3663 42.6748 30.1279 42.1584 29.5519 41.7909C29.1746 41.5526 29.0455 41.2447 29.254 40.8177C29.5519 40.2218 29.5321 39.6558 29.115 39.1096C28.8469 38.762 28.8469 38.4045 29.1944 38.0966C29.7208 37.6299 29.8399 37.0539 29.6612 36.3984C29.5619 36.0211 29.681 35.7331 30.0386 35.594C30.7238 35.3358 31.0912 34.8393 31.1707 34.1242C31.2104 33.7071 31.4686 33.5185 31.8659 33.5085C32.5511 33.4986 33.0576 33.2106 33.3654 32.585C33.564 32.1877 33.8818 32.0785 34.2691 32.2374C34.9246 32.4956 35.4807 32.3565 35.9971 31.9097C36.305 31.6415 36.6228 31.6217 36.9306 31.8997C37.457 32.3665 38.033 32.4956 38.7083 32.2374C39.0757 32.0983 39.3935 32.1976 39.5822 32.575C39.9 33.2106 40.3965 33.5284 41.1215 33.5185C41.5386 33.5085 41.767 33.7568 41.8067 34.154C41.8663 34.8492 42.2139 35.316 42.8594 35.5642C43.2765 35.7231 43.4155 36.0409 43.2963 36.4382C43.0977 37.1135 43.2765 37.6696 43.783 38.1363C44.0809 38.4144 44.1305 38.7322 43.8823 39.0599C43.4354 39.6458 43.4155 40.2715 43.7234 40.917C43.8922 41.2646 43.7929 41.5426 43.495 41.7313C42.8495 42.1286 42.6012 42.7046 42.6508 43.4395C42.6707 43.8168 42.4919 44.0353 42.1344 44.1048C41.4194 44.2439 40.9526 44.6411 40.764 45.3561C40.5852 45.9321 40.1085 45.8129 39.602 45.8129ZM42.045 39.2089C42.0053 36.0906 39.5027 33.6078 36.4341 33.6376C33.3257 33.6674 30.843 36.2097 30.8827 39.3181C30.9224 42.357 33.4846 44.8596 36.5235 44.8099C39.602 44.7702 42.0848 42.2477 42.045 39.2089Z" fill="white"/>
<path d="M30.1467 22.5548C26.5517 22.5548 22.9666 22.5449 19.3716 22.5648C18.9545 22.5648 18.8354 22.4456 18.8453 22.0384C18.8652 21.0354 18.8453 21.0354 19.8285 21.0354C26.8397 21.0354 33.8609 21.0354 40.8721 21.0354C41.5672 21.0354 41.5772 21.0354 41.5672 21.7306C41.5573 22.6641 41.6765 22.5548 40.7529 22.5548C37.2374 22.5648 33.692 22.5548 30.1467 22.5548Z" fill="white"/>
<path d="M30.2171 27.6295C26.6221 27.6295 23.037 27.6196 19.442 27.6394C19.015 27.6394 18.8263 27.5699 18.8461 27.0833C18.8859 26.12 18.8561 26.12 19.8194 26.12C26.8405 26.12 33.8518 26.12 40.8729 26.12C41.727 26.12 41.5582 26.0505 41.578 26.835C41.578 26.9343 41.5681 27.0336 41.578 27.1329C41.6376 27.5302 41.4787 27.6394 41.0815 27.6394C39.3436 27.6196 37.6057 27.6295 35.8678 27.6295C33.9908 27.6295 32.1039 27.6295 30.2171 27.6295Z" fill="white"/>
<path d="M24.4863 32.6943C22.7683 32.6943 21.0502 32.6844 19.3322 32.7042C18.9647 32.7042 18.8555 32.6049 18.8555 32.2276C18.8654 31.1848 18.8555 31.1848 19.8883 31.1848C23.1556 31.1947 26.4328 31.2146 29.7 31.2146C30.0774 31.2146 30.2065 31.304 30.1966 31.7012C30.1767 32.7142 30.1966 32.7142 29.1836 32.7142C27.6145 32.7142 26.0455 32.7142 24.4764 32.7142C24.4863 32.7142 24.4863 32.7042 24.4863 32.6943Z" fill="white"/>
<path d="M23.5329 42.8337C22.1426 42.8337 20.7622 42.8238 19.3719 42.8436C18.9945 42.8536 18.8555 42.7741 18.8555 42.357C18.8753 41.3341 18.8555 41.3341 19.8585 41.3341C22.4703 41.3341 25.0822 41.3441 27.6841 41.3242C28.1012 41.3242 28.27 41.4037 28.2601 41.8605C28.2303 42.8337 28.2601 42.8337 27.2968 42.8337C26.0455 42.8337 24.7842 42.8337 23.5329 42.8337Z" fill="white"/>
<path d="M23.1464 37.769C21.8553 37.769 20.5643 37.7591 19.2832 37.779C18.9555 37.779 18.8661 37.6796 18.8661 37.3619C18.8562 36.2694 18.8463 36.2694 19.9585 36.2694C22.2923 36.2694 24.6161 36.2794 26.9499 36.2595C27.3471 36.2595 27.4464 36.3787 27.4365 36.766C27.4167 37.779 27.4365 37.779 26.4236 37.779C25.3312 37.769 24.2388 37.769 23.1464 37.769Z" fill="white"/>
<path d="M31.4679 39.2486C31.448 36.5077 33.6825 34.2236 36.4135 34.2137C39.1942 34.2037 41.4584 36.4183 41.4882 39.1791C41.518 41.9201 39.2736 44.2042 36.5525 44.234C33.7322 44.2538 31.4977 42.069 31.4679 39.2486ZM39.1942 37.7391C39.0651 37.4511 38.8267 37.2724 38.5784 37.1135C38.3699 36.9844 38.2507 37.1731 38.1316 37.3121C37.486 38.047 36.8405 38.7819 36.2149 39.5267C35.9765 39.8048 35.7879 39.8346 35.5297 39.5664C35.2913 39.3182 35.0033 39.1096 34.765 38.8613C34.4472 38.5336 34.2585 38.7422 34.04 38.9805C33.8116 39.2288 33.6726 39.4274 34.0102 39.7154C34.5664 40.1821 35.1026 40.6688 35.629 41.1752C35.907 41.4434 36.0957 41.3838 36.3241 41.1156C37.208 40.0828 38.1018 39.0599 38.9856 38.0371C39.0551 37.9576 39.1048 37.8583 39.1942 37.7391Z" fill="white"/>
</svg>
