<svg width="60" height="60" viewBox="0 0 60 60" fill="none" xmlns="http://www.w3.org/2000/svg">
<path d="M51.4978 26.3084C49.1417 10.7579 30.4013 2.74702 17.6057 11.8091C17.2069 12.0991 16.337 12.2803 16.8082 12.9328C17.2794 13.6215 17.7507 12.7878 18.1131 12.534C21.7017 10.1779 25.6165 8.98172 30.5825 8.90922C37.9409 9.19921 44.2119 12.679 48.1992 19.7112C52.114 26.6709 51.8965 33.8118 47.9455 40.7714C47.5105 41.5326 47.148 42.2939 45.9881 42.4389C44.9731 42.5476 44.5019 43.4538 44.7919 44.505C45.0456 45.4112 45.7706 45.9549 46.713 45.7374C47.8367 45.52 48.4167 44.7225 48.0542 43.5988C47.8005 42.8376 48.018 42.3664 48.3804 41.7864C51.3528 37.0016 52.3315 31.8544 51.4978 26.3084ZM46.423 44.8675C45.8068 44.8675 45.5531 44.4688 45.5893 43.925C45.6256 43.4538 45.9518 43.1638 46.423 43.1638C47.0755 43.1638 47.1842 43.635 47.293 44.0338C47.2205 44.6138 46.9305 44.8675 46.423 44.8675Z" fill="white"/>
<path d="M41.3494 47.6949C33.0848 52.8784 22.609 52.0085 15.7218 45.52C8.43595 38.6329 6.76853 28.3746 11.5533 19.7113C12.097 18.6963 12.6045 17.7539 14.0182 17.6451C14.9969 17.5726 15.3956 16.7027 15.2144 15.724C15.0694 14.854 14.4169 14.3828 13.547 14.3828C12.532 14.3465 11.7345 14.999 11.8795 15.9052C12.1333 17.3551 11.2996 18.2613 10.7196 19.3488C8.94343 22.6474 7.96472 26.1635 8.00097 29.897C8.00097 37.9804 12.1695 45.375 19.1654 49.1086C26.7776 53.2047 34.3172 52.9147 41.7118 48.4561C42.2556 48.1299 43.4155 47.8399 42.908 47.0425C42.4731 46.39 41.8206 47.4049 41.3494 47.6949ZM13.402 15.2165C14.0182 15.1802 14.3082 15.5427 14.3444 16.0865C14.3807 16.5577 14.0907 16.8839 13.5832 16.9202C13.0032 16.9564 12.6407 16.6302 12.6407 16.0502C12.677 15.6515 12.8945 15.2527 13.402 15.2165Z" fill="white"/>
<path d="M23.2251 44.5776C22.2464 44.1063 21.304 43.7438 21.3765 42.2939C21.4127 41.3515 20.5428 40.844 19.5641 40.9527C18.5854 41.0615 18.0054 41.7139 18.0416 42.6564C18.0416 43.5989 18.6216 44.3963 19.6003 44.3238C20.579 44.2513 21.3402 44.6138 22.1377 45.0488C28.6261 48.4924 36.927 47.1512 42.0017 41.8589C47.3302 36.3492 48.3814 27.8671 44.5391 21.4512C44.2854 21.0524 44.1766 20.0012 43.3792 20.4725C42.763 20.8349 43.4517 21.4512 43.7054 21.8861C45.1916 24.3873 45.8803 27.1059 45.9165 30.0058C45.8803 41.6777 33.7009 49.5073 23.2251 44.5776ZM20.6878 42.7651C20.6153 43.2726 20.2528 43.5626 19.5641 43.5264C19.0928 43.5264 18.8391 43.1639 18.8754 42.6201C18.8754 42.0764 19.2378 41.7502 19.7816 41.7502C20.3978 41.7502 20.7603 42.1852 20.6878 42.7651Z" fill="white"/>
<path d="M40.2972 15.5064C39.0285 15.7239 38.1223 15.1077 37.0711 14.6364C34.7875 13.5852 32.3951 13.0415 29.894 13.0415C23.768 13.0415 18.0045 16.3401 15.1409 21.6686C12.0598 27.3958 12.2411 33.123 15.3584 38.7778C15.5759 39.1402 15.7209 39.8652 16.3009 39.5752C16.9533 39.249 16.3371 38.7415 16.1921 38.3428C16.1196 38.1615 16.0109 38.0166 15.9021 37.8716C12.4586 31.8906 13.3285 24.2422 18.0045 19.2037C22.8981 13.9115 30.3652 12.4253 36.7086 15.4701C37.6148 15.9051 38.5211 16.2676 38.5573 17.6088C38.5936 18.515 39.4998 18.9862 40.4422 18.8412C41.4209 18.6962 41.8921 17.9713 41.8559 17.0288C41.8921 16.0864 41.2397 15.3614 40.2972 15.5064ZM40.2972 18.08C39.681 18.08 39.2823 17.7175 39.3185 17.1013C39.3548 16.5576 39.7172 16.2676 40.2247 16.2314C40.8409 16.3038 41.1672 16.6301 41.1672 17.1738C41.1672 17.7175 40.8409 18.08 40.2972 18.08Z" fill="white"/>
<path d="M23.6237 39.394C26.8861 40.1915 30.1847 40.3002 33.4833 39.9015C37.6881 39.394 37.7968 39.249 37.6518 35.0442C37.5431 31.6731 35.2594 29.3895 31.9608 29.2808C31.3084 29.2445 30.6196 29.2808 29.9672 29.2808C29.3147 29.2808 28.626 29.2808 27.9735 29.2808C24.4937 29.3533 22.2463 31.5644 22.1376 35.0442C22.1013 35.8417 22.1738 36.6029 22.1013 37.4004C21.9926 38.5603 22.5 39.104 23.6237 39.394ZM23.6237 32.4706C25.5811 29.2445 33.6645 28.9545 35.8756 32.0356C37.1443 33.8118 36.7819 35.8417 36.7819 37.7991C36.7819 38.5241 36.1656 38.4516 35.7669 38.5966C33.8457 39.1765 31.8521 39.2853 29.8584 39.3215C27.9373 39.3215 26.0161 39.1403 24.1312 38.6691C23.225 38.4516 22.8263 37.9803 22.8625 37.0379C23.0075 35.4792 22.7538 33.8843 23.6237 32.4706Z" fill="white"/>
<path d="M34.2094 24.2786C34.2094 21.8137 32.3245 19.8926 29.8596 19.8926C27.5035 19.9288 25.5823 21.7775 25.5098 24.0974C25.4373 26.526 27.3222 28.4834 29.7871 28.5197C32.3245 28.5922 34.2094 26.7435 34.2094 24.2786ZM26.416 24.3511C26.3435 22.3212 27.8297 20.7625 29.8596 20.7263C31.7808 20.69 33.4482 22.3212 33.4482 24.2424C33.4482 26.1273 31.962 27.686 30.0771 27.7947C28.0835 27.8672 26.4523 26.3448 26.416 24.3511Z" fill="white"/>
</svg>
