<svg width="27" height="27" viewBox="0 0 27 27" fill="none" xmlns="http://www.w3.org/2000/svg">
<path d="M12.3974 1.57199C12.4974 0.205504 14.5026 0.205504 14.6026 1.57199C14.6857 2.70811 16.2258 2.98948 16.7077 1.95727C17.2871 0.716203 19.145 1.48411 18.7533 2.79656C18.4282 3.88565 19.772 4.69886 20.5907 3.91049C21.5764 2.96127 23.1261 4.24051 22.2917 5.32513L22.1623 5.49326C21.4717 6.391 22.4174 7.62309 23.4632 7.18809L23.6788 7.09838C24.9411 6.57333 25.8455 8.35637 24.6762 9.06469L24.4016 9.23104C23.4355 9.81624 23.8653 11.3027 24.9946 11.282L25.327 11.2759C26.6931 11.2508 26.8808 13.2398 25.5341 13.4708L25.1867 13.5304C24.0742 13.7212 23.9292 15.2604 24.9865 15.6556L25.3131 15.7776C26.5932 16.2561 26.0369 18.1755 24.6994 17.8952L24.4147 17.8356C23.3078 17.6037 22.608 18.9865 23.4503 19.7411L23.654 19.9235C24.6728 20.8361 23.3435 22.3499 22.2001 21.5992C21.2516 20.9765 20.0761 22.0239 20.5924 23.0343C21.2154 24.2535 19.5338 25.365 18.7383 24.2506C18.0771 23.3243 16.6112 23.8807 16.7343 25.0122C16.8824 26.3736 14.9144 26.7646 14.5694 25.4393C14.2826 24.337 12.7174 24.337 12.4306 25.4393C12.0856 26.7646 10.1176 26.3736 10.2657 25.0122C10.3888 23.8807 8.9229 23.3243 8.26167 24.2506C7.46625 25.365 5.78463 24.2535 6.40759 23.0343C6.92387 22.0239 5.74836 20.9765 4.79985 21.5992C3.65649 22.3499 2.3272 20.8361 3.34597 19.9235L3.54966 19.7411C4.39199 18.9865 3.69216 17.6037 2.58533 17.8356L2.30064 17.8952C0.963052 18.1755 0.406767 16.2561 1.6869 15.7776L2.01348 15.6556C3.07079 15.2604 2.92584 13.7212 1.81334 13.5304L1.46587 13.4708C0.119173 13.2398 0.306907 11.2508 1.67305 11.2759L2.00538 11.282C3.13467 11.3027 3.5645 9.81625 2.59844 9.23105L2.3238 9.06469C1.1545 8.35637 2.05891 6.57333 3.32117 7.09838L3.53684 7.18809C4.58264 7.6231 5.52829 6.391 4.83765 5.49325L4.70831 5.32513C3.87389 4.24051 5.42359 2.96127 6.4093 3.91049C7.22799 4.69886 8.57179 3.88565 8.24674 2.79656C7.85503 1.48411 9.7129 0.716203 10.2923 1.95727C10.7742 2.98948 12.3143 2.70811 12.3974 1.57199Z" fill="#7D7DFF"/>
</svg>
