<svg width="50" height="50" viewBox="0 0 50 50" fill="none" xmlns="http://www.w3.org/2000/svg">
<g clip-path="url(#clip0_328_213)">
<path d="M22.1614 33.5807C19.401 34.0495 17.6171 35.599 16.7578 38.3333C15.9244 36.6016 14.6354 35.5339 12.7343 35.1562C13.4505 34.4922 13.9453 33.75 14.1406 32.8385C14.4921 31.1328 13.789 29.4271 12.3046 28.5156C12.0312 28.3464 11.9401 28.1771 11.9401 27.8646C11.9531 22.474 11.9401 17.0833 11.9531 11.6927C11.9661 7.36979 14.8958 3.9974 19.1666 3.34635C19.5442 3.29427 19.9479 3.28125 20.3385 3.28125C22.9427 3.28125 25.5338 3.28125 28.138 3.28125C28.2552 3.28125 28.3593 3.29427 28.5156 3.30729C28.5156 10.8724 28.5156 18.4375 28.5156 26.0677C27.2005 24.9089 25.7161 24.4271 24.0104 24.7917C22.8385 25.0521 21.888 25.6641 21.1588 26.6146C19.5312 28.724 19.8828 31.1719 22.1614 33.5807ZM15.8463 19.1927C15.5859 19.1927 15.3255 19.1797 15.0651 19.1927C14.7265 19.2187 14.5312 19.4141 14.5182 19.7526C14.5052 20.0911 14.7135 20.3255 15.039 20.3385C15.5859 20.3776 16.1328 20.3646 16.6796 20.3385C17.0052 20.3255 17.2135 20.0911 17.2135 19.7526C17.2135 19.4271 17.0052 19.2057 16.6666 19.1797C16.3932 19.1797 16.1198 19.1927 15.8463 19.1927ZM15.8854 24.4531C16.1588 24.4531 16.4583 24.5182 16.7057 24.4271C16.914 24.349 17.1614 24.1016 17.2135 23.8802C17.2786 23.5677 17.0442 23.3073 16.7057 23.2943C16.1588 23.2682 15.6119 23.2682 15.052 23.2943C14.7265 23.3073 14.5182 23.5286 14.5182 23.8672C14.5182 24.2057 14.7265 24.4141 15.052 24.4401C15.3255 24.4792 15.6119 24.4531 15.8854 24.4531ZM15.8593 28.5547C16.1198 28.5547 16.3802 28.5677 16.6406 28.5547C17.0052 28.5417 17.2265 28.3333 17.2265 27.9818C17.2265 27.6302 16.9921 27.4089 16.6406 27.3958C16.1198 27.3828 15.6119 27.3698 15.0911 27.3958C14.7395 27.4089 14.5182 27.6302 14.5312 27.9948C14.5442 28.3333 14.7526 28.5286 15.0911 28.5417C15.3385 28.5677 15.5989 28.5547 15.8593 28.5547ZM15.8463 16.25C16.1198 16.25 16.3932 16.276 16.6666 16.25C17.0182 16.2109 17.2395 15.9896 17.2135 15.638C17.1875 15.3125 16.9791 15.1042 16.6406 15.1042C16.1198 15.0911 15.6119 15.0911 15.0911 15.1042C14.7526 15.1172 14.5442 15.2995 14.5182 15.638C14.4921 16.0026 14.7135 16.2109 15.0651 16.25C15.3255 16.276 15.5859 16.25 15.8463 16.25ZM24.5833 12.1484C24.8437 12.1484 25.1041 12.1745 25.3645 12.1484C25.7161 12.1094 25.9375 11.9271 25.9244 11.5495C25.9114 11.1979 25.7031 11.0156 25.3645 11.0026C24.8437 10.9896 24.3229 10.9896 23.802 11.0026C23.4505 11.0026 23.2421 11.2109 23.2421 11.5495C23.2291 11.9141 23.4505 12.1224 23.802 12.1615C24.0625 12.1615 24.3359 12.1484 24.5833 12.1484ZM15.8333 12.1484C16.1067 12.1484 16.3802 12.1615 16.6536 12.1354C17.0052 12.0964 17.2265 11.888 17.2135 11.5234C17.2005 11.1979 16.9921 10.9896 16.6406 10.9766C16.1198 10.9635 15.6119 10.9635 15.0911 10.9766C14.7265 10.9896 14.5052 11.1849 14.5052 11.5495C14.5052 11.9141 14.7395 12.0964 15.0911 12.1224C15.3515 12.1615 15.5859 12.1484 15.8333 12.1484ZM24.5963 19.1927C24.3359 19.1927 24.0755 19.1797 23.8281 19.1927C23.4635 19.2057 23.2552 19.4141 23.2552 19.7786C23.2552 20.1172 23.4635 20.3385 23.789 20.3516C24.3229 20.3776 24.8567 20.3776 25.3906 20.3516C25.7421 20.3385 25.9635 20.1172 25.9375 19.7526C25.9244 19.4141 25.7161 19.2318 25.3776 19.2057C25.1171 19.1797 24.8567 19.1927 24.5963 19.1927ZM20.2474 6.88802C19.9609 6.88802 19.6484 6.82292 19.375 6.91406C19.1796 6.97917 18.9583 7.21354 18.8932 7.40885C18.802 7.70833 18.9974 7.98177 19.3099 8.00781C19.9088 8.04687 20.5078 8.0599 21.1067 7.99479C21.276 7.96875 21.4974 7.63021 21.5364 7.40885C21.5885 7.10938 21.3411 6.91406 21.0156 6.88802C20.7682 6.875 20.5078 6.88802 20.2474 6.88802ZM24.6093 8.03385C24.8698 8.03385 25.1302 8.04687 25.3906 8.02083C25.7421 7.98177 25.9635 7.77344 25.9375 7.39583C25.9114 7.04427 25.6901 6.875 25.3515 6.86198C24.8437 6.84896 24.3489 6.84896 23.8411 6.86198C23.4765 6.86198 23.2552 7.07031 23.2421 7.4349C23.2421 7.79948 23.4765 7.99479 23.8281 8.02083C24.0885 8.0599 24.3489 8.03385 24.6093 8.03385ZM24.5833 15.0911C24.3229 15.0911 24.0625 15.0781 23.8151 15.0911C23.4635 15.1042 23.2682 15.3125 23.2552 15.638C23.2421 15.9766 23.4375 16.2109 23.763 16.237C24.3229 16.276 24.8958 16.276 25.4557 16.237C25.7812 16.2109 26.0156 15.9505 25.9244 15.625C25.8593 15.4167 25.625 15.1953 25.4036 15.1172C25.1562 15.026 24.8567 15.0911 24.5833 15.0911ZM20.2213 12.1484C20.4817 12.1484 20.7421 12.1615 21.0026 12.1484C21.3541 12.1224 21.5755 11.9141 21.5625 11.5495C21.5494 11.2109 21.3411 11.0026 21.0026 11.0026C20.4817 10.9896 19.9609 10.9896 19.4401 11.0026C19.1015 11.0156 18.8932 11.1979 18.8802 11.5495C18.8671 11.9271 19.0885 12.1224 19.4401 12.1615C19.7005 12.1615 19.9609 12.1484 20.2213 12.1484ZM20.2604 15.0911C19.9869 15.0911 19.7135 15.0781 19.427 15.0911C19.0885 15.1042 18.8802 15.2995 18.8671 15.651C18.8541 16.0026 19.0625 16.224 19.388 16.237C19.9349 16.276 20.4948 16.276 21.0416 16.237C21.3671 16.2109 21.5755 15.9766 21.5494 15.638C21.5234 15.2995 21.3281 15.1042 20.9765 15.0911C20.7552 15.0781 20.5078 15.0911 20.2604 15.0911ZM20.1823 20.3516C20.4557 20.3516 20.7421 20.3646 21.0156 20.3516C21.3802 20.3255 21.5885 20.1042 21.5755 19.7396C21.5625 19.401 21.3541 19.2057 21.0156 19.1927C20.4948 19.1797 19.9739 19.1797 19.4531 19.1927C19.1145 19.2057 18.9062 19.401 18.8932 19.7526C18.8802 20.1302 19.1015 20.3255 19.4531 20.3516C19.6875 20.3646 19.9349 20.3516 20.1823 20.3516Z" fill="#4949FC"/>
<path d="M37.4219 35.1433C35.4557 35.547 34.1536 36.5886 33.3333 38.3464C32.474 35.6251 30.6901 34.0496 27.8906 33.5808C28.0078 33.4636 28.112 33.3725 28.2031 33.2813C29.7526 31.8621 30.2474 30.1433 29.7266 28.1121C29.6615 27.8516 29.6875 27.5652 29.6875 27.2917C29.6875 27.1095 29.7005 26.9402 29.7005 26.7579C29.7005 22.2136 29.7005 17.6563 29.7005 13.1121C29.7005 12.9167 29.7005 12.7214 29.7005 12.4871C32.513 12.4871 35.2995 12.4871 38.151 12.4871C38.151 12.6563 38.151 12.8256 38.151 12.9949C38.151 17.9298 38.151 22.8777 38.151 27.8126C38.151 28.073 38.1641 28.2813 37.8646 28.4636C35.4687 29.948 35.1302 32.9688 37.1354 34.948C37.1875 35.0131 37.2526 35.0391 37.4219 35.1433ZM33.8932 16.185C34.2839 16.185 34.6745 16.198 35.0651 16.185C35.4036 16.172 35.599 15.9636 35.612 15.6251C35.625 15.2865 35.4167 15.0522 35.0781 15.0391C34.3229 15.0131 33.5547 15.0131 32.7995 15.0391C32.474 15.0522 32.2526 15.2475 32.2526 15.6121C32.2526 15.9897 32.474 16.172 32.8255 16.198C33.1771 16.198 33.5417 16.185 33.8932 16.185ZM33.9323 20.3126C34.3099 20.3126 34.6745 20.3256 35.0521 20.2996C35.4167 20.2735 35.625 20.0652 35.599 19.7006C35.5859 19.349 35.3646 19.1667 35.026 19.1667C34.2969 19.1537 33.5677 19.1537 32.8385 19.1667C32.487 19.1667 32.2526 19.349 32.2396 19.7266C32.2266 20.1042 32.4609 20.2996 32.8125 20.3126C33.1901 20.3256 33.5547 20.3126 33.9323 20.3126ZM34.3359 24.4402C34.5964 24.4272 34.8568 24.4662 35.1172 24.4272C35.4427 24.3751 35.6771 24.1277 35.5859 23.8152C35.5208 23.6069 35.2604 23.3464 35.0521 23.3074C34.6094 23.2292 34.1536 23.2813 33.6979 23.2813C33.3594 23.2813 33.138 23.4636 33.125 23.8152C33.099 24.1928 33.3203 24.3881 33.6719 24.4402C33.8802 24.4662 34.1146 24.4402 34.3359 24.4402Z" fill="#4949FC"/>
<path d="M2.74744 46.5755C2.74744 45.3516 2.74744 44.1536 2.74744 42.9297C17.6042 42.9297 32.448 42.9297 47.3308 42.9297C47.3308 44.1276 47.3308 45.3385 47.3308 46.5755C32.487 46.5755 17.6433 46.5755 2.74744 46.5755Z" fill="#4949FC"/>
<path d="M17.6823 41.7056C17.7864 40.5728 17.7474 39.4661 17.9948 38.4374C18.5286 36.2369 20.5208 34.7916 22.9036 34.7395C24.3099 34.7135 25.7291 34.7135 27.1354 34.7395C30.1432 34.7916 32.2395 36.927 32.2786 39.9478C32.2916 40.5208 32.2786 41.1067 32.2786 41.7056C27.4349 41.7056 22.6432 41.7056 17.6823 41.7056Z" fill="#4949FC"/>
<path d="M45.69 41.7057C41.8229 41.7057 38.0078 41.7057 34.1927 41.7057C33.789 38.9062 34.9869 37.0052 37.1874 36.4192C37.5911 36.3151 38.0208 36.289 38.4374 36.289C39.6744 36.289 40.9114 36.2239 42.1354 36.3411C44.1015 36.5234 45.5208 38.0468 45.664 40.013C45.7161 40.5599 45.69 41.1067 45.69 41.7057Z" fill="#4949FC"/>
<path d="M15.8984 41.7057C12.0703 41.7057 8.26818 41.7057 4.45307 41.7057C3.86713 38.3463 5.95047 36.2369 8.60672 36.289C9.9088 36.3151 11.2109 36.25 12.4999 36.3672C14.2968 36.5364 15.7161 38.0468 15.8854 39.8437C15.9505 40.4427 15.8984 41.0677 15.8984 41.7057Z" fill="#4949FC"/>
<path d="M28.763 29.5443C28.763 31.6016 27.1354 33.2552 25.0651 33.2682C22.9948 33.2812 21.3281 31.6146 21.3281 29.5312C21.3281 27.487 22.9948 25.8203 25.0391 25.8203C27.0964 25.8333 28.75 27.5 28.763 29.5443Z" fill="#4949FC"/>
<path d="M13.0599 32.0314C13.0339 33.6069 11.7188 34.8959 10.1432 34.8829C8.54168 34.8699 7.2396 33.5548 7.26564 31.9402C7.27866 30.3387 8.61981 29.0236 10.2084 29.0626C11.8229 29.1017 13.0729 30.4038 13.0599 32.0314Z" fill="#4949FC"/>
<path d="M37.0312 31.9792C37.0312 30.3646 38.3333 29.0625 39.9349 29.0625C41.5365 29.0625 42.8385 30.3906 42.8255 31.9922C42.8125 33.5807 41.5234 34.8698 39.9479 34.8828C38.3464 34.8958 37.0312 33.5938 37.0312 31.9792Z" fill="#4949FC"/>
</g>
<defs>
<clipPath id="clip0_328_213">
<rect width="50" height="50" fill="white"/>
</clipPath>
</defs>
</svg>
