<svg width="50" height="50" viewBox="0 0 50 50" fill="none" xmlns="http://www.w3.org/2000/svg">
<g clip-path="url(#clip0_328_225)">
<path d="M28.2031 15.9895C28.5937 15.3124 28.9843 14.6353 29.414 13.9192C30.4036 14.4921 31.3802 15.052 32.4218 15.651C32.0833 16.2369 31.7708 16.8228 31.4192 17.3697C31.25 17.6301 31.263 17.7994 31.4974 18.0208C32.2786 18.7369 32.2656 18.7499 33.2291 18.203C33.5937 17.9947 33.9583 17.7864 34.3489 17.578C34.9349 18.5806 35.4948 19.5442 36.0807 20.5728C35.5078 20.8984 34.9739 21.2499 34.401 21.5364C34.0494 21.7187 33.9843 21.914 34.1276 22.2655C34.2448 22.552 34.2968 22.8515 34.388 23.19C35.1562 23.19 35.9375 23.19 36.7448 23.19C36.7448 24.3619 36.7448 25.4947 36.7448 26.6666C35.9765 26.6666 35.1953 26.6666 34.414 26.6666C34.2838 27.1093 34.1536 27.4999 34.0625 27.9036C34.0364 28.0077 34.1796 28.19 34.2838 28.2551C34.8567 28.6067 35.4557 28.9452 36.0807 29.3098C35.5078 30.3124 34.9349 31.289 34.3489 32.3176C33.763 31.9791 33.1901 31.6796 32.6432 31.3411C32.3567 31.1588 32.1875 31.1588 31.9531 31.4322C31.25 32.2135 31.2369 32.2004 31.7708 33.1249C31.9791 33.4895 32.1875 33.8541 32.4218 34.2577C31.4192 34.8437 30.4427 35.4036 29.414 35.9895C28.9974 35.2864 28.6067 34.5963 28.2031 33.9192C27.7864 34.0234 27.3828 34.1015 27.0052 34.2447C26.901 34.2838 26.8099 34.5051 26.7968 34.6484C26.7708 35.3124 26.7838 35.9765 26.7838 36.6666C25.5989 36.6666 24.4791 36.6666 23.2942 36.6666C23.2942 35.9765 23.2812 35.3124 23.2942 34.6614C23.3073 34.3879 23.2291 34.2577 22.9427 34.2057C22.5911 34.1536 22.2526 34.0234 21.888 33.9322C21.4974 34.6093 21.1067 35.2864 20.677 36.0025C19.6875 35.4296 18.7109 34.8697 17.6692 34.2708C18.0078 33.6848 18.3203 33.0989 18.6718 32.539C18.8411 32.2655 18.8281 32.1093 18.5807 31.8879C17.7864 31.1588 17.7994 31.1588 16.8489 31.7056C16.4974 31.914 16.1458 32.1093 15.7421 32.3437C15.1692 31.3411 14.5963 30.3645 13.9974 29.3489C14.5833 29.0103 15.1432 28.6588 15.7291 28.3593C16.0026 28.2161 16.0937 28.0859 15.9895 27.7603C15.664 26.7447 15.677 26.7317 14.5963 26.7317C14.1927 26.7317 13.789 26.7317 13.3463 26.7317C13.3463 25.5598 13.3463 24.44 13.3463 23.2421C14.0104 23.2421 14.6614 23.2291 15.3255 23.2421C15.6119 23.2551 15.7421 23.177 15.8203 22.8645C16.0546 21.8098 16.0677 21.8098 15.1432 21.276C14.7786 21.0676 14.414 20.8593 14.0104 20.6249C14.5833 19.6223 15.1562 18.6458 15.7421 17.6171C16.3281 17.9556 16.901 18.2551 17.4479 18.6067C17.7343 18.789 17.9036 18.789 18.138 18.5155C18.8411 17.7343 18.8541 17.7473 18.3203 16.8228C18.1119 16.4583 17.9036 16.0937 17.6692 15.69C18.6718 15.1041 19.6484 14.5442 20.664 13.9583C21.0807 14.6614 21.4713 15.3385 21.875 16.0286C22.3046 15.9244 22.6953 15.8463 23.0729 15.703C23.177 15.664 23.2682 15.4426 23.2812 15.2994C23.3073 14.6353 23.2942 13.9713 23.2942 13.2942C24.4791 13.2942 25.5989 13.2942 26.7838 13.2942C26.7838 14.0885 26.7838 14.8697 26.7838 15.651C27.2786 15.7421 27.7213 15.8593 28.2031 15.9895ZM25.052 31.6275C28.75 31.6145 31.7578 28.5806 31.7187 24.9088C31.6796 21.2109 28.6979 18.2551 25.026 18.2681C21.3281 18.2812 18.3203 21.302 18.3593 24.9869C18.3984 28.6718 21.3932 31.6405 25.052 31.6275Z" fill="#4949FC"/>
<path d="M46.9792 41.5755C46.9792 44.4922 44.5964 46.875 41.6797 46.875C38.75 46.875 36.3412 44.4661 36.3542 41.5365C36.3672 38.6328 38.7761 36.25 41.6797 36.25C44.5964 36.263 46.9792 38.6589 46.9792 41.5755ZM37.5912 41.5755C37.5912 43.8411 39.4141 45.6641 41.6797 45.651C43.9453 45.651 45.7682 43.8281 45.7552 41.5625C45.7552 39.2969 43.9323 37.487 41.6667 37.487C39.4011 37.5 37.5912 39.3099 37.5912 41.5755Z" fill="#4949FC"/>
<path d="M41.6667 3.00781C44.5834 3.00781 46.9662 5.39062 46.9792 8.30729C46.9922 11.237 44.5834 13.6458 41.6537 13.6328C38.7501 13.6198 36.3542 11.224 36.3672 8.30729C36.3672 5.39062 38.7501 3.00781 41.6667 3.00781ZM41.6928 12.3958C43.9584 12.3828 45.7683 10.5599 45.7553 8.29427C45.7422 6.02865 43.9063 4.21875 41.6537 4.23177C39.3881 4.24479 37.5782 6.06771 37.5912 8.33333C37.6042 10.612 39.4271 12.4089 41.6928 12.3958Z" fill="#4949FC"/>
<path d="M8.42449 3.00781C11.3412 3.00781 13.724 5.40365 13.724 8.30729C13.724 11.237 11.3151 13.6458 8.38543 13.6198C5.46876 13.6068 3.09897 11.1979 3.11199 8.28125C3.12501 5.3776 5.50782 3.00781 8.42449 3.00781ZM12.5 8.32031C12.5 6.05469 10.6771 4.23177 8.41147 4.24479C6.14585 4.24479 4.32293 6.06771 4.33595 8.33333C4.33595 10.599 6.15887 12.4089 8.42449 12.4089C10.6901 12.3958 12.5 10.5859 12.5 8.32031Z" fill="#4949FC"/>
<path d="M8.38543 46.875C5.46876 46.862 3.09897 44.4661 3.11199 41.5365C3.12501 38.6198 5.52085 36.25 8.43751 36.25C11.3672 36.25 13.763 38.6849 13.737 41.6146C13.7109 44.5313 11.3021 46.901 8.38543 46.875ZM12.5 41.5495C12.487 39.2839 10.6771 37.474 8.39845 37.487C6.13283 37.5 4.32293 39.3229 4.33595 41.5885C4.34897 43.8542 6.18491 45.6641 8.43751 45.651C10.7031 45.638 12.513 43.8151 12.5 41.5495Z" fill="#4949FC"/>
<path d="M14.7396 13.6848C15.3776 14.2838 15.9115 14.7786 16.4193 15.2994C16.849 15.7161 16.8881 16.1718 16.5625 16.4843C16.237 16.7968 15.7943 16.7447 15.3776 16.315C14.8698 15.8072 14.375 15.2994 13.724 14.6223C13.5677 14.8567 13.4896 15.1041 13.3204 15.2213C13.1511 15.3385 12.8516 15.4426 12.6823 15.3775C12.5131 15.3124 12.3568 15.0129 12.3568 14.8176C12.3568 14.1926 12.4089 13.5546 12.461 12.9296C12.487 12.5911 12.6823 12.3958 13.0209 12.3827C13.6329 12.3437 14.2579 12.2786 14.8698 12.2786C15.0782 12.2786 15.3776 12.4348 15.4688 12.6171C15.5469 12.7603 15.4167 13.0728 15.2995 13.2551C15.2084 13.4114 15 13.5025 14.7396 13.6848Z" fill="#4949FC"/>
<path d="M35.2865 13.6849C35.0651 13.5026 34.8568 13.3984 34.7526 13.2292C34.6355 13.0469 34.5313 12.7604 34.5964 12.5911C34.6615 12.4219 34.961 12.2656 35.1563 12.2656C35.7813 12.2656 36.4193 12.3177 37.0443 12.3698C37.3828 12.3958 37.5782 12.6042 37.5912 12.9427C37.6302 13.5547 37.6953 14.1797 37.6953 14.7917C37.6953 15 37.5261 15.2995 37.3568 15.3906C37.2136 15.4688 36.9011 15.3385 36.7318 15.2214C36.5625 15.1172 36.4844 14.8958 36.2891 14.6354C35.7162 15.2474 35.2474 15.7422 34.7787 16.224C34.2709 16.7448 33.8282 16.8229 33.4896 16.4714C33.1641 16.1328 33.2422 15.7031 33.737 15.2083C34.2318 14.7266 34.7136 14.2578 35.2865 13.6849Z" fill="#4949FC"/>
<path d="M13.7891 35.2083C14.401 34.5833 14.8958 34.0625 15.4167 33.5416C15.8073 33.151 16.263 33.0989 16.5755 33.3984C16.888 33.7109 16.862 34.1666 16.4583 34.5573C15.9245 35.0781 15.3776 35.5859 14.7266 36.1979C15.013 36.4062 15.2474 36.5234 15.3776 36.7057C15.4818 36.8489 15.5599 37.1224 15.4818 37.2656C15.4036 37.4218 15.1432 37.6041 14.974 37.6041C14.3099 37.6041 13.6458 37.5781 12.9818 37.4739C12.7865 37.4479 12.513 37.1484 12.487 36.9401C12.3828 36.3151 12.3568 35.6771 12.3698 35.0521C12.3698 34.8567 12.526 34.5573 12.6953 34.4922C12.8646 34.4271 13.151 34.5312 13.3333 34.6484C13.5026 34.7656 13.6068 34.9739 13.7891 35.2083Z" fill="#4949FC"/>
<path d="M35.3125 36.1849C34.7135 35.612 34.2057 35.1302 33.7109 34.6354C33.2552 34.1797 33.1771 33.75 33.5026 33.4115C33.8411 33.0729 34.2838 33.138 34.7656 33.6198C35.2474 34.1146 35.7422 34.6094 36.3281 35.2214C36.5104 34.974 36.6276 34.7396 36.8099 34.5964C36.9531 34.4922 37.2265 34.4141 37.3698 34.4792C37.539 34.5573 37.7083 34.8047 37.7083 34.987C37.7083 35.651 37.6823 36.3151 37.5781 36.9792C37.5521 37.1745 37.2526 37.4479 37.0443 37.487C36.4193 37.5912 35.7812 37.6172 35.1562 37.6042C34.9609 37.6042 34.6614 37.4479 34.5963 37.2787C34.5312 37.1094 34.6354 36.8229 34.7526 36.6406C34.8568 36.4844 35.0651 36.3802 35.3125 36.1849Z" fill="#4949FC"/>
<path d="M25.052 30.6379C23.802 30.6379 22.6692 30.2473 21.6406 29.5181C21.3411 29.2968 21.1979 29.0624 21.2109 28.6718C21.2239 27.9036 21.2239 27.1353 21.7317 26.4973C21.888 26.289 22.0703 26.1067 22.2656 25.9374C22.6041 25.6379 22.8906 25.5468 23.3724 25.8332C24.5182 26.5364 25.7291 26.4973 26.8619 25.7681C27.1744 25.5728 27.3698 25.5989 27.6432 25.7942C28.4114 26.328 28.776 27.0572 28.8932 27.9947C29.0364 29.0234 28.5937 29.5832 27.7213 29.9999C26.8619 30.4036 25.9895 30.651 25.052 30.6379Z" fill="#4949FC"/>
<path d="M25.026 25.3387C23.724 25.3256 22.6953 24.284 22.6953 22.9819C22.6953 21.6538 23.737 20.6121 25.0781 20.6251C26.4063 20.6381 27.4349 21.6928 27.4089 23.034C27.3828 24.3361 26.3411 25.3517 25.026 25.3387Z" fill="#4949FC"/>
<path d="M41.5495 44.6744C40.5599 44.6354 39.7396 44.1797 39.1146 43.3593C38.9062 43.0859 38.9062 42.8645 39.1536 42.6562C39.3489 42.4869 39.5312 42.3046 39.7656 42.1744C39.8958 42.1093 40.1172 42.1093 40.2344 42.1875C41.1979 42.7474 42.1484 42.7734 43.0859 42.1744C43.4635 41.9401 43.6719 42.2005 43.8932 42.3698C44.5052 42.8385 44.5182 43.0468 44.0234 43.6067C43.3724 44.3359 42.5651 44.6875 41.5495 44.6744Z" fill="#4949FC"/>
<path d="M41.6537 41.6276C40.7552 41.6146 40.0521 40.8984 40.0521 40.013C40.0521 39.1146 40.7683 38.4115 41.6537 38.3984C42.5651 38.3984 43.2813 39.1276 43.2683 40.0391C43.2683 40.9375 42.5521 41.6276 41.6537 41.6276Z" fill="#4949FC"/>
<path d="M41.3021 11.4194C40.625 11.4194 39.7917 10.9636 39.1407 10.1303C38.8933 9.8178 38.9193 9.57041 39.2058 9.34905C39.5052 9.11468 39.7396 8.63291 40.2084 8.90634C41.1979 9.49228 42.1615 9.49228 43.1511 8.90634C43.2943 8.82822 43.6068 8.93239 43.7761 9.03655C44.5183 9.51832 44.5443 9.80478 43.9453 10.4298C43.3334 11.0808 42.5782 11.4194 41.3021 11.4194Z" fill="#4949FC"/>
<path d="M43.2812 6.77085C43.2812 7.66929 42.5651 8.37241 41.6666 8.37241C40.7552 8.37241 40.039 7.63022 40.0521 6.71877C40.0651 5.83335 40.7942 5.13022 41.6927 5.14324C42.5911 5.15627 43.2812 5.87241 43.2812 6.77085Z" fill="#4949FC"/>
<path d="M8.39849 11.4323C7.3438 11.4193 6.49744 10.9505 5.8464 10.0911C5.65109 9.83071 5.65109 9.62238 5.88547 9.41405C6.08078 9.24478 6.26307 9.04946 6.48442 8.93227C6.61463 8.86717 6.86203 8.86717 6.99224 8.9453C7.94276 9.47915 8.88026 9.50519 9.80474 8.93227C10.2605 8.64582 10.4948 9.0104 10.7553 9.23175C11.237 9.64842 11.237 9.76561 10.8334 10.2604C10.2214 11.0286 9.41411 11.4193 8.39849 11.4323Z" fill="#4949FC"/>
<path d="M8.43748 8.37233C7.55206 8.38535 6.82289 7.68223 6.80987 6.79681C6.79685 5.89837 7.48696 5.1692 8.37237 5.15618C9.29685 5.14316 10.026 5.84629 10.039 6.75775C10.039 7.64316 9.33592 8.35931 8.43748 8.37233Z" fill="#4949FC"/>
<path d="M8.33333 44.6745C7.30469 44.6354 6.47135 44.1797 5.84635 43.3203C5.67708 43.0859 5.65104 42.8906 5.8724 42.6823C6.02865 42.5391 6.17188 42.3958 6.34115 42.2526C6.58854 42.0443 6.8099 42.0313 7.1224 42.2135C7.92969 42.7083 8.8151 42.7604 9.6224 42.2656C10.1042 41.9661 10.3906 42.1224 10.7292 42.4089C11.263 42.8646 11.276 43.0208 10.8203 43.5547C10.1562 44.3229 9.34896 44.6875 8.33333 44.6745Z" fill="#4949FC"/>
<path d="M10.039 40.026C10.039 40.9244 9.32289 41.6275 8.42445 41.6275C7.51299 41.6275 6.79685 40.8984 6.80987 39.9739C6.82289 39.0885 7.55205 38.3854 8.45049 38.3984C9.33591 38.4114 10.039 39.1275 10.039 40.026Z" fill="#4949FC"/>
</g>
<defs>
<clipPath id="clip0_328_225">
<rect width="50" height="50" fill="white"/>
</clipPath>
</defs>
</svg>
