<svg width="50" height="50" viewBox="0 0 50 50" fill="none" xmlns="http://www.w3.org/2000/svg">
<g clip-path="url(#clip0_328_247)">
<path d="M50 45.8008C49.8145 46.0449 49.668 46.3184 49.4531 46.5137C49.0137 46.8945 48.4863 46.9727 47.9492 46.7188C47.4023 46.4648 47.1094 46.0059 47.0801 45.4102C47.0605 44.873 47.0801 44.3359 47.0801 43.7305C46.8457 43.7305 46.6406 43.7305 46.4453 43.7305C39.541 43.7305 32.6367 43.7305 25.7422 43.7305C25.4297 43.7305 25.2148 43.7109 25.0977 43.3301C24.082 40.2051 22.1973 37.7246 19.502 35.8691C19.4238 35.8105 19.3457 35.752 19.2383 35.6641C21.3867 32.9688 22.0508 29.9414 21.2695 26.5527C21.4941 26.5527 21.6895 26.5527 21.8848 26.5527C30.6055 26.5527 39.3262 26.5625 48.0469 26.543C48.9551 26.543 49.6191 26.7871 50.0098 27.627C50 33.6914 50 39.7461 50 45.8008Z" fill="#4949FC"/>
<path d="M20.2735 0C21.0645 0.322266 21.9239 0.527344 22.6172 0.986328C24.1895 2.02148 24.9317 3.58398 24.9414 5.46875C24.961 7.76367 24.9414 10.0586 24.9512 12.3535C24.9512 12.627 25.0489 12.9297 25.1953 13.1543C26.0059 14.4141 26.836 15.6543 27.6758 16.8945C28.0469 17.4414 28.2227 18.0078 27.8907 18.6328C27.5586 19.2578 26.9922 19.4238 26.3282 19.4238C19.4239 19.4238 12.5293 19.4336 5.62502 19.4141C2.3926 19.3945 0.107446 17.0605 0.09768 13.8086C0.09768 11.0937 0.136742 8.36914 0.0879144 5.6543C0.0390862 2.4707 2.3633 0.351562 4.64846 0.0683594C4.68752 0.0585938 4.72659 0.0195312 4.77541 0C9.94143 0 15.1074 0 20.2735 0ZM12.5781 8.4082C14.0723 8.4082 15.5664 8.41797 17.0508 8.4082C18.0176 8.4082 18.6621 7.83203 18.6817 6.97266C18.7012 6.14258 18.0274 5.48828 17.0899 5.47852C14.043 5.46875 10.9961 5.46875 7.93948 5.48828C7.61721 5.48828 7.26565 5.60547 6.98245 5.77148C6.4551 6.09375 6.25002 6.75781 6.42581 7.35352C6.60159 7.95898 7.1387 8.39844 7.80276 8.39844C9.39456 8.41797 10.9864 8.4082 12.5781 8.4082ZM10.1367 13.8867C10.1367 13.8965 10.1367 13.9062 10.1367 13.916C10.8496 13.916 11.5625 13.9258 12.2754 13.9062C12.5293 13.8965 12.8028 13.877 13.0371 13.7891C13.7012 13.5449 14.0528 12.9102 13.9453 12.1973C13.8379 11.4941 13.2715 10.9961 12.461 10.9863C10.9375 10.9668 9.41409 10.9766 7.89065 10.9863C7.68557 10.9863 7.47073 11.0254 7.27541 11.1035C6.66018 11.3379 6.27932 11.9824 6.36721 12.6172C6.46487 13.291 6.97268 13.8379 7.64651 13.877C8.48635 13.916 9.30666 13.8867 10.1367 13.8867Z" fill="#4949FC"/>
<path d="M1.46484 50.0001C0.351561 49.5508 0.0488264 48.6915 0.0976545 47.5489C0.312498 42.6368 3.33984 38.4962 7.97851 36.9239C8.82812 36.6309 9.73633 36.5137 10.6348 36.3086C8.47656 35.9864 6.71875 34.961 5.50781 33.1055C4.28711 31.2403 4.0039 29.209 4.6289 27.0801C5.57617 23.8477 8.75 21.6993 12.1191 21.9922C15.498 22.2852 18.2812 25.0489 18.6328 28.3497C19.0039 31.9044 16.6504 35.7129 12.3242 36.3379C12.998 36.4649 13.6328 36.543 14.2285 36.709C18.7695 37.9688 21.5625 40.9278 22.6465 45.5079C22.793 46.1329 22.8027 46.7969 22.8809 47.4415C23.0176 48.6036 22.6953 49.5215 21.543 50.0098C14.8438 50.0001 8.1543 50.0001 1.46484 50.0001Z" fill="#4949FC"/>
<path d="M47.627 23.5157C41.4063 23.5157 35.2832 23.5157 29.0918 23.5157C30.0195 18.7989 32.8223 16.0938 37.6465 15.3028C35.8301 15 34.4434 14.1993 33.4473 12.8125C32.4512 11.4258 32.1094 9.88284 32.373 8.19339C32.832 5.30277 35.5273 3.06644 38.4863 3.14456C41.6016 3.22269 44.1504 5.59574 44.4238 8.71097C44.668 11.4551 42.9688 14.6094 39.1309 15.3125C43.877 16.0743 46.6797 18.7793 47.627 23.5157Z" fill="#4949FC"/>
</g>
<defs>
<clipPath id="clip0_328_247">
<rect width="50" height="50" fill="white"/>
</clipPath>
</defs>
</svg>
