<svg width="100" height="100" viewBox="0 0 100 100" fill="none" xmlns="http://www.w3.org/2000/svg">
<path d="M62.9834 73.2022C60.5014 73.3352 59.349 74.4432 59.349 76.8809C59.349 77.3241 59.3047 77.7673 59.349 78.2105C59.6593 80.1163 58.9501 80.6925 56.9557 80.6925C43.2161 80.6038 29.4765 80.6038 15.7368 80.6925C13.7424 80.6925 13.2992 80.1606 13.2992 78.2105C13.4321 60.8809 13.3878 43.5512 13.3878 26.1773C13.3878 22.144 13.3878 22.0554 17.5097 22.1883C19.4598 22.2327 20.4349 22.0111 20.1247 19.662C19.9474 18.1108 19.5042 17.6232 18.0416 17.7562C16.5789 17.8892 15.072 17.7562 13.6094 17.8005C10.0194 17.8005 9 18.7756 9 22.3656C9 32.0277 9 41.6897 9 51.3961C9 61.0581 9 70.7202 9 80.4266C9 84.0609 9.97507 85.036 13.5651 85.0803C26.7285 85.0803 39.8476 85.0803 53.0111 85.0803C55.4488 85.0803 57.8864 85.1246 60.3241 85.0803C62.3186 85.036 63.6039 84.0166 63.6925 82.0221C63.8255 79.4515 63.7368 76.8365 63.7368 74.2659C63.7368 73.734 63.8698 73.1579 62.9834 73.2022Z" fill="#363636"/>
<path d="M89.9753 83.5734C85.6318 79.3186 81.4213 75.0194 77.1222 70.7646C76.7233 70.3657 76.1028 69.7008 75.7482 69.7895C73.3105 70.41 72.5571 68.2382 71.1388 67.1745C69.7205 66.1551 69.8091 65.2244 70.6956 63.7175C73.931 58.0887 74.064 52.2826 70.8728 46.6538C67.6817 40.9806 62.5848 38.2327 57.3548 38.0554C48.8895 38.0554 42.5515 42.4432 40.0695 49.1801C37.5875 55.9169 39.582 63.4515 45.0778 68.061C50.5737 72.6704 58.2856 73.4238 64.5349 69.8338C65.9089 69.036 67.0169 68.3269 68.1692 70.0997C68.967 71.3407 70.9172 71.8726 70.8285 73.6454C70.7399 74.8864 71.2274 75.5956 71.9809 76.349C75.7039 80.0277 79.3825 83.7507 83.1055 87.4737C86.6069 90.9751 86.5626 90.9308 90.1083 87.3407C91.3493 85.9225 91.3493 84.9031 89.9753 83.5734ZM55.8922 69.036C48.1803 68.9474 41.8424 62.4765 41.9753 54.7646C42.1083 47.0083 48.4906 40.892 56.3354 41.0249C64.003 41.1579 70.0751 47.4515 69.9421 55.2078C69.8535 62.9197 63.5598 69.1247 55.8922 69.036Z" fill="#363636"/>
<path d="M27.3047 24.2715C30.3185 24.3158 33.3324 24.2715 36.3906 24.2715C39.0498 24.2715 41.7091 24.2715 44.3684 24.2715C48.9778 24.2715 50.7507 22.277 50.3518 17.6676C50.2188 16.4266 49.687 15.7618 48.446 15.7175C47.0277 15.6732 45.6537 15.6288 44.2354 15.7175C42.8615 15.8061 42.1523 15.4959 41.7978 13.9446C41.2659 11.5956 39.1385 10.0887 36.7895 9.95571C34.3518 9.86706 32.0914 10.7978 31.4709 13.0582C30.7174 15.6288 29.2548 15.8504 27.1274 15.6732C26.1967 15.5845 25.2216 15.6732 24.2465 15.6732C23.5374 15.7175 22.9612 15.9834 22.6509 16.6925C21.0997 20.1939 23.5374 24.1829 27.3047 24.2715ZM36.4349 13.1912C38.0304 13.1912 38.7839 14.2106 38.9169 15.7175C38.7396 17.2687 37.8975 18.1995 36.3019 18.1552C34.7507 18.1108 33.8199 17.1801 33.8642 15.6288C33.9086 14.0776 34.8393 13.1468 36.4349 13.1912Z" fill="#363636"/>
<path d="M55.2269 22.1884C55.9361 22.0555 56.6895 22.2327 57.443 22.1441C59.0386 21.9225 59.4375 22.7203 59.3931 24.1829C59.3045 26.9751 59.3488 29.8117 59.3488 32.6039C59.3488 35.928 59.3488 35.8837 62.4513 36.6815C63.4264 36.9474 63.7809 36.7701 63.7366 35.7064C63.6923 33.3574 63.7366 30.964 63.7366 28.615C63.7366 26.1773 63.7809 23.7397 63.7366 21.302C63.6923 19.0859 62.4513 17.8892 60.2796 17.8006C58.2851 17.712 56.2906 17.8449 54.2962 17.7563C53.0109 17.712 52.8336 18.2881 52.6563 19.4405C52.3017 21.6566 52.9222 22.5873 55.2269 22.1884Z" fill="#363636"/>
<path d="M52.8779 35.1746C53.853 35.1746 54.5621 35.1746 54.5621 33.845C54.5621 32.604 54.1632 32.2051 52.9222 32.2051C49.6868 32.2937 46.4513 32.2494 43.2159 32.2494C39.8918 32.2494 36.5677 32.2494 33.2879 32.2494C32.2242 32.2494 31.4707 32.2494 31.4707 33.712C31.4707 35.1303 32.1798 35.2189 33.2436 35.2189C39.7588 35.1746 46.3183 35.1746 52.8779 35.1746Z" fill="#363636"/>
<path d="M18.8392 30.2549C18.3517 30.5651 18.1301 31.1413 18.396 31.5845C19.1938 33.0915 20.3461 34.3768 21.9417 35.0416C22.8724 35.4405 28.6342 29.856 28.5456 28.748C28.5013 28.2604 28.2353 27.9502 27.8364 27.6842C27.2159 27.3297 26.6841 27.5513 26.2409 27.9502C25.3988 28.748 24.5123 29.5457 23.7145 30.4322C22.7838 31.4959 21.9417 32.205 20.8337 30.6095C20.3461 29.989 19.5927 29.8117 18.8392 30.2549Z" fill="#363636"/>
<path d="M21.1884 58.133C21.8976 58.7535 22.6953 58.6649 23.3602 58.0001C24.9557 56.4488 26.507 54.8976 28.0582 53.302C28.6344 52.6815 28.7674 52.0167 28.1025 51.3519C27.4377 50.7314 26.7729 50.8643 26.1524 51.4405C25.3546 52.194 24.5125 52.9474 23.8034 53.7895C22.8283 54.8976 21.9419 55.6953 20.7895 54.0111C20.5679 53.7009 20.0804 53.5679 19.6815 53.3463C19.2383 53.5236 18.7507 53.5679 18.5291 54.0111C18.2189 54.5873 18.2632 55.2078 18.7064 55.651C19.4599 56.5374 20.302 57.3796 21.1884 58.133Z" fill="#363636"/>
<path d="M22.2519 70.2771C22.3848 70.2328 22.7394 70.1884 22.9167 70.0111C24.7339 68.2826 26.5067 66.5098 28.2353 64.6926C28.7228 64.2051 28.6341 63.5846 28.1466 63.097C27.6148 62.5208 26.9499 62.4322 26.3738 62.9197C25.443 63.7618 24.5123 64.6039 23.6702 65.5347C22.7394 66.5984 21.8973 67.3075 20.7893 65.712C20.3904 65.1358 19.7256 64.8699 19.0164 65.1801C18.4846 65.4017 18.263 65.8893 18.3073 66.4211C18.3516 67.3075 21.2325 70.2328 22.2519 70.2771Z" fill="#363636"/>
<path d="M32.8002 70.3214C36.2572 70.2771 39.7143 70.3214 43.5259 70.3214C41.0439 67.3519 41.0439 67.3519 37.8085 67.3519C36.1686 67.3519 34.573 67.3962 32.9331 67.3519C31.9581 67.3076 31.3819 67.5292 31.4262 68.6815C31.4705 69.568 31.4705 70.3657 32.8002 70.3214Z" fill="#363636"/>
<path d="M21.0112 46.2993C21.7204 47.0971 22.6068 47.0084 23.3602 46.2993C24.9115 44.7481 26.5071 43.1968 28.0583 41.6012C28.6345 40.9807 28.8118 40.2716 28.147 39.6511C27.4821 39.0749 26.773 39.1636 26.1525 39.7397C25.3547 40.4932 24.5126 41.2467 23.8035 42.0888C22.7841 43.2855 21.8976 43.8616 20.7453 42.2661C20.3464 41.6899 19.6816 41.4683 18.9724 41.8672C18.5292 42.0888 18.3519 42.4877 18.3076 43.1082C18.7065 44.4821 20.0805 45.2356 21.0112 46.2993Z" fill="#363636"/>
<path d="M32.8894 43.9058C31.6484 43.8615 31.4268 44.482 31.4268 45.5014C31.4268 46.5207 31.7813 46.964 32.845 46.9196C33.7758 46.831 34.7509 46.7867 35.6816 46.9196C37.8977 47.2742 39.0943 46.2991 39.5819 43.9501C37.2772 43.9058 35.0611 43.9501 32.8894 43.9058Z" fill="#363636"/>
<path d="M34.1747 58.6206C34.8838 58.0444 36.6124 59.5957 36.6567 57.291C36.701 55.2079 35.2827 55.5181 34.1304 55.6511C33.111 55.7397 31.4711 54.809 31.4268 57.0694C31.4268 59.4184 33.1553 58.2217 34.1747 58.6206Z" fill="#363636"/>
<path d="M52.5234 44.5264C60.7672 45.6344 65.3323 50.3768 66.4403 59.1967C67.8586 54.41 67.1938 50.6427 64.2686 47.4959C61.0775 44.0388 57.0885 43.1081 52.5234 44.5264Z" fill="#363636"/>
</svg>
