<svg width="100" height="100" viewBox="0 0 100 100" fill="none" xmlns="http://www.w3.org/2000/svg">
<path d="M90.6503 36.2521C90.5934 34.9426 91.2197 33.2345 90.4225 32.4089C89.5685 31.4979 87.8035 32.0673 86.4655 32.0958C79.8324 32.3235 73.6833 30.8716 68.132 27.1423C67.4772 26.7153 66.9648 26.7722 66.3385 27.1993C63.9187 28.8219 61.3281 30.0461 58.5382 30.8432C56.8871 31.3271 56.8871 31.3271 56.8586 29.6475C56.8301 29.0497 57.0009 28.281 56.0899 28.2526C53.9548 28.1672 52.93 26.9715 52.503 25.0357C52.4745 24.8649 52.3037 24.7225 52.2183 24.5517C51.592 23.7546 51.4496 22.986 52.2752 22.2458C52.446 22.1035 52.503 21.8188 52.6738 21.648C53.4424 20.737 53.4424 20.0537 52.4745 19.1712C50.7379 17.634 49.1152 15.9543 47.5495 14.2462C46.8093 13.4207 46.2115 13.2499 45.3005 13.99C44.7596 14.4171 44.1333 15.1288 43.4786 14.9579C42.0836 14.5879 40.6887 13.99 39.4076 13.3068C38.6959 12.9367 38.8382 11.9403 38.6959 11.2286C38.4966 10.2892 38.0981 10.0045 37.0732 10.033C34.6534 10.1184 32.2336 10.1468 29.8423 10.0045C28.5897 9.94755 28.1912 10.4315 28.0203 11.5133C27.9349 12.1396 27.9634 13.0221 27.394 13.3353C26.113 14.0185 24.7465 14.6733 23.3516 14.9864C22.6114 15.1572 21.8712 14.2747 21.1595 13.8192C20.5332 13.3922 20.1062 13.4207 19.5653 13.99C18.3412 15.2996 17.0316 16.5522 15.7506 17.8048C13.2738 20.2815 13.2738 20.2815 15.1243 23.3276C14.8396 23.9254 14.4126 24.4663 14.2702 25.0926C13.7578 26.943 12.8753 28.2241 10.7971 28.2526C10.0854 28.2526 10 28.7365 10 29.3344C10.0285 32.2097 10.0569 35.0849 10.0854 37.9602C10.0285 38.3018 10.2277 38.5296 10.5409 38.5296C12.8468 38.5865 13.9286 39.9245 14.3556 42.0027C14.3841 42.0881 14.4126 42.202 14.4695 42.2589C15.1812 43.1414 15.0673 43.9955 14.3272 44.7641C13.2169 45.9882 13.3308 47.0416 14.6972 47.981C14.925 48.1233 15.1243 48.3511 15.3235 48.5219C16.6331 49.8884 18.028 51.1979 19.2806 52.5928C20.0208 53.4184 20.5902 53.39 21.4442 52.8206C22.042 52.422 22.6399 51.6249 23.4085 51.8242C24.775 52.2228 26.113 52.7352 27.3371 53.4469C28.0773 53.8739 27.9634 54.9842 28.1342 55.7813C28.305 56.6923 28.732 56.92 29.5861 56.8915C32.1482 56.8631 34.7104 56.8631 37.2725 56.8915C37.9842 56.8915 38.4966 56.7492 38.5251 55.9236C38.6105 54.0163 39.6354 52.9629 41.4858 52.5928C41.8843 52.5074 42.2829 52.2797 42.653 52.0804C43.7063 51.4541 44.0764 51.9096 44.2187 52.9629C44.6173 55.7528 45.3575 58.4288 46.5816 60.9625C47.3218 62.9268 48.3751 64.7203 49.5992 66.3999C50.0832 67.0547 50.2255 67.6525 49.9693 68.4781C49.343 70.5847 48.8306 72.7483 48.2612 74.9119C47.4641 77.7018 46.6955 80.4916 45.8699 83.4523C47.7203 82.9968 49.3145 82.7406 50.8233 82.2282C52.0475 81.8296 52.5884 82.1997 53.1577 83.2246C54.4103 85.4451 55.7483 87.6087 57.2002 90C58.5382 86.0145 59.7623 82.3136 60.9865 78.5843C61.5274 76.9047 61.5274 76.9331 63.1216 77.5879C65.1144 78.385 66.9933 79.6091 69.3276 78.4989C70.4948 77.958 72.0321 76.7054 72.8862 77.2747C73.7971 77.8726 73.911 79.6945 74.3665 80.9756C75.3344 83.8793 76.3023 86.7546 77.3841 89.9715C78.8075 87.5802 80.1171 85.5305 81.3127 83.3669C81.9675 82.1997 82.6223 81.7442 83.9887 82.2282C85.4406 82.7406 86.9779 82.9968 88.7429 83.4239C88.0028 80.8048 87.3195 78.4135 86.6363 76.0221C86.6078 75.3958 86.437 74.798 86.1239 74.2856C86.1239 74.2856 86.1239 74.2856 86.1523 74.2856C85.953 73.4031 85.8676 72.4921 85.526 71.695C84.4158 69.019 84.2165 66.4853 86.2662 64.1509C86.2947 64.1225 86.3231 64.094 86.3801 64.0655C89.0561 59.9092 90.4226 55.3827 90.6218 50.4577C90.7642 46.2729 90.7357 42.1166 90.6503 37.9317C90.6218 37.3909 90.6788 36.8215 90.6503 36.2521ZM37.6141 51.141C36.7316 51.3118 36.6747 52.0804 36.6462 52.6782C36.5323 54.0447 35.8491 54.4433 34.5965 54.2725C34.141 54.2155 33.657 54.244 33.1731 54.244C30.7533 54.244 30.7248 54.244 30.0131 51.9381C29.8138 51.3118 29.3868 51.1694 28.8744 51.0556C27.394 50.6855 25.9422 50.2015 24.6611 49.3759C23.6647 48.7212 22.7822 48.6073 21.8712 49.4329C21.0172 50.2015 20.3624 50.0307 19.6222 49.1767C18.7682 48.2088 17.8003 47.3832 16.8893 46.5007C16.9747 46.4153 17.0601 46.3299 17.117 46.2444C17.0886 46.2444 17.0316 46.2444 17.0032 46.2444C16.9462 46.2729 16.8608 46.3014 16.8039 46.3583C16.5477 45.6751 17.1455 45.2481 17.4587 44.7641C18.028 43.9385 18.1419 43.2553 17.5156 42.3443C16.747 41.2056 16.1491 39.953 15.9214 38.615C15.7221 37.3339 15.0958 36.7361 14.0425 36.5937C14.014 36.5083 13.9855 36.4229 13.9286 36.3375C13.7578 36.3945 13.6155 36.4799 13.4446 36.5653C12.7329 36.4229 12.4483 36.0244 12.4767 35.2842C12.5337 34.117 12.5337 32.9214 12.4767 31.7542C12.4198 30.8147 12.7329 30.3307 13.7009 30.2738C14.9535 30.1884 15.6082 29.5621 15.9214 28.2241C16.1776 27.0854 16.7185 26.0036 17.2024 24.8933C17.2878 24.6941 17.3733 24.4948 17.4587 24.2955C18.3412 23.5269 17.9711 22.7582 17.4017 22.075C16.5192 21.0786 16.6615 20.2815 17.7149 19.5129C18.1419 19.2282 18.455 18.8011 18.8251 18.4311C20.4763 16.7799 20.4763 16.7799 22.5829 17.8617C23.0669 18.1179 23.437 18.1179 23.8925 17.8332C25.4582 16.8653 27.1663 16.1251 28.9883 15.7266C29.7569 15.5558 29.9562 15.0718 30.0131 14.4171C30.0985 12.8513 30.9241 12.3104 32.4044 12.5666C32.7745 12.6236 33.1731 12.5666 33.5432 12.5666C35.963 12.5666 35.9914 12.5666 36.7316 14.8441C36.9024 15.385 37.1871 15.6127 37.6995 15.7266C39.4645 16.1251 41.1442 16.7799 42.653 17.7763C43.6494 18.4311 44.3041 17.7478 44.9304 17.2923C45.756 16.6945 46.3254 16.723 46.9517 17.5201C47.3502 18.0325 47.8911 18.4595 48.3466 18.9435C49.9693 20.5662 49.9978 20.5662 48.859 22.5589C48.4605 23.2706 48.8021 23.7261 49.1437 24.2386C49.1152 24.267 49.1152 24.2955 49.0868 24.2955C49.1152 24.2955 49.1437 24.324 49.2007 24.324C49.8839 25.9182 50.681 27.4839 51.0511 29.192C51.2504 30.2453 52.2183 29.9607 52.8446 30.2453C53.357 30.4731 54.1826 30.2453 54.1541 31.2133C54.0972 32.1812 53.3001 31.9534 52.7592 31.9819C51.6489 32.0673 50.3678 32.352 49.3999 31.9819C48.2327 31.5264 48.8306 29.9891 48.3466 28.9927C47.8911 28.0248 47.7488 26.9146 47.0086 26.089C46.9517 26.0036 46.8947 25.9182 46.8378 25.8328C46.0122 24.6371 45.272 23.3845 44.3041 22.3312C37.4148 14.7017 23.4654 17.0646 19.423 26.516C17.2878 30.6154 17.2024 34.8287 18.8251 39.1274C20.277 42.8567 22.7822 45.6751 26.3977 47.4116C32.5183 50.3723 38.2973 49.3759 43.8771 45.2196C43.6778 46.5007 44.1903 47.554 43.6494 48.465C43.5924 48.5788 43.507 48.6927 43.3932 48.8066C41.4858 49.7176 39.6923 50.7424 37.6141 51.141ZM46.1261 30.7008C46.3254 31.5549 46.2969 32.2381 45.1297 32.0673C44.0479 31.925 43.7348 32.4089 43.7917 33.4338C43.8771 35.028 43.8486 36.6222 43.8771 38.2164C43.8486 38.3018 43.8202 38.3872 43.8202 38.5011C43.6494 39.6398 44.1618 40.864 43.2223 41.8888C39.6354 45.732 35.3082 47.2693 30.127 46.0167C25.8283 44.9634 23.0099 42.1166 21.1311 38.2164C19.7646 34.3163 20.1347 30.53 21.9851 26.8576C22.1844 26.6014 22.3836 26.3167 22.5829 26.0605C25.8852 21.6195 30.2409 19.7691 35.7067 20.6231C38.8952 21.1071 41.3719 22.8721 43.507 25.2065C43.8202 25.662 44.1333 26.1175 44.4749 26.573C44.5034 26.6299 44.5319 26.6584 44.5603 26.7153C44.5888 26.7722 44.6458 26.8576 44.6742 26.9146C45.3005 28.1102 45.8129 29.3628 46.1261 30.7008ZM58.9937 76.2784C58.1966 78.6412 57.3995 81.0041 56.5739 83.5093C55.6629 82.6268 55.122 81.6304 54.695 80.634C53.9833 79.0682 53.0439 78.6697 51.5066 79.3529C50.9941 79.5807 50.4248 79.6091 49.7416 79.7799C49.9124 78.869 50.0832 78.0434 50.254 77.2463C50.2824 77.1609 50.3109 77.0755 50.3394 76.9616C50.4817 76.4776 50.6241 75.9937 50.7664 75.5097C50.7949 75.3389 50.8233 75.1966 50.8518 75.0258C51.0226 74.9973 51.165 74.9403 51.2788 74.8834C51.2504 74.798 51.2219 74.7126 51.1934 74.6557C51.1365 74.5987 51.0796 74.5133 51.0226 74.4564C51.4496 73.033 51.9051 71.5811 52.3891 69.9869C54.3819 71.7519 56.2038 73.6593 58.4528 74.9688C58.4243 75.1681 58.4243 75.3389 58.3959 75.5097C58.5951 75.5097 58.8229 75.4528 59.0506 75.282C59.1645 75.6521 59.1076 75.9652 58.9937 76.2784ZM81.939 79.0682C81.2558 78.869 80.9142 79.0113 80.5726 79.6091C79.8609 80.8902 79.0638 82.1143 78.1243 83.6516C77.2418 81.1464 76.4447 78.869 75.6191 76.62C75.4483 76.1645 75.4768 75.7375 75.7045 75.3958C75.7899 75.2535 75.9323 75.1112 76.1315 74.9688C78.4659 73.7447 80.2309 71.8089 82.2522 70.0154C82.7361 71.5526 83.1632 73.0045 83.6187 74.4279C83.6756 74.5987 83.7325 74.7695 83.7895 74.9688C84.1596 76.5061 84.5296 78.0434 84.9282 79.7799C83.8179 79.5522 82.85 79.3814 81.939 79.0682ZM87.2341 55.3543C86.4655 58.2295 85.2698 60.8771 83.8749 63.4392C83.8179 63.5531 83.7325 63.667 83.6756 63.8093C81.0281 67.8233 77.6688 71.0971 73.6263 73.6308C73.3986 73.5739 73.1708 73.5169 72.9146 73.4885C72.8577 73.6593 72.8577 73.8301 72.9146 74.0578C72.8577 74.0578 72.8008 74.0578 72.7723 74.0863C69.2992 76.4207 65.7691 76.7338 62.1821 74.3425C62.2391 74.0863 62.2106 73.887 62.1537 73.7447C62.0967 73.7447 62.0398 73.7447 62.0113 73.7447C61.7836 73.8016 61.5843 73.8301 61.3566 73.8586C57.7411 71.638 54.5811 68.9051 52.0759 65.432C51.108 64.094 50.3394 62.6706 49.5423 61.2472C49.3999 60.991 49.2576 60.7347 49.0868 60.4501C46.5816 55.0126 46.3254 49.2621 46.4108 43.4261V43.3692C46.4108 41.6326 46.4392 39.9245 46.4392 38.188C46.4392 37.0777 46.4392 35.9674 46.4677 34.8857C49.8554 34.7148 53.2716 34.8572 56.6308 34.117C60.0755 33.3484 63.3493 32.1527 66.3954 30.3592C66.9079 30.0461 67.3349 29.8183 67.9612 30.1884C73.9395 33.8323 80.5156 35.028 87.4334 34.8003C87.6611 34.8003 87.9174 34.8287 88.1451 34.8572C88.1451 35.9959 88.1736 37.1346 88.1736 38.2734C88.202 40.6078 88.202 42.9706 88.2305 45.305C88.202 45.305 88.1451 45.305 88.0882 45.3335C88.1166 45.3619 88.1736 45.3619 88.2305 45.3904C88.0597 48.7212 88.1166 52.0804 87.2341 55.3543Z" fill="#363636"/>
<path d="M84.5016 37.334C78.6656 37.277 73.1428 35.939 68.0185 33.1776C67.5061 32.8929 67.1075 32.8929 66.5667 33.1776C61.4139 35.939 55.8911 37.3055 50.0836 37.334C49.2865 37.334 49.0303 37.6187 49.0303 38.4158C49.0872 41.4903 49.0872 44.5649 49.0872 47.6394C48.9164 53.2477 50.4252 58.3719 53.6136 63.0122C56.7451 67.9372 61.1577 71.268 66.5382 73.4031C67.2214 73.6878 67.8193 73.4885 68.4456 73.2608C74.4523 70.841 79.0357 66.827 82.1387 61.1049C84.8147 56.5784 85.8111 51.6819 85.498 46.5007C85.5265 43.7962 85.5264 41.0918 85.5834 38.4158C85.5549 37.6187 85.2987 37.334 84.5016 37.334ZM82.2811 53.7886C81.6263 56.3507 80.5445 58.6851 79.2919 60.991C79.2635 61.0479 79.2065 61.1334 79.178 61.1903C76.4736 65.1189 73.0574 68.2504 68.6733 70.2716C67.6769 70.7271 66.8513 70.7271 65.855 70.2432C62.1541 68.4781 59.0511 66.0014 56.5459 62.7276C56.2327 62.329 55.8911 61.9305 55.5495 61.5319C55.6064 61.475 55.6634 61.3896 55.6918 61.3042C55.6634 61.3042 55.6064 61.2757 55.5779 61.2757C55.521 61.2757 55.4641 61.2757 55.4356 61.3042C53.9553 58.5143 52.5888 55.6675 52.0479 52.479C51.7632 50.8279 51.6778 49.1483 51.5924 47.4686C51.6778 47.4117 51.7917 47.3263 51.8771 47.2409C51.9056 47.2124 51.9056 47.2124 51.9056 47.184C51.8202 47.0986 51.7063 47.0416 51.5639 46.9847C51.5924 44.9919 51.6209 43.0276 51.6209 41.0348C51.6209 40.2662 51.7063 39.8392 52.6457 39.7822C57.5138 39.4406 62.1541 38.2165 66.5382 36.0814C67.136 35.7967 67.5915 35.8821 68.1324 36.1383C72.4026 38.188 76.9006 39.4121 81.5978 39.7253C82.7935 39.8107 82.9928 40.2947 82.9358 41.291C82.8789 42.4298 82.9358 43.5685 82.9643 44.6788C82.9358 45.1342 82.9358 45.5613 82.9358 45.9883C82.9074 48.6928 82.9074 51.2549 82.2811 53.7886Z" fill="#363636"/>
<path d="M40.459 30.1315C39.0072 26.8576 35.3632 25.0072 31.7762 25.7474C28.5024 26.4022 25.7979 29.4198 25.6841 32.4943C25.1716 35.4266 26.6235 38.4727 29.2711 40.0953C32.004 41.7465 35.591 41.5757 38.0677 39.6683C40.6868 37.6755 41.7401 34.4586 40.8291 31.3272C40.7153 30.9571 40.6298 30.53 40.459 30.1315ZM37.4983 36.5653C36.1888 38.2449 33.9683 39.0136 31.9186 38.3873C29.7835 37.761 28.3031 35.9105 28.2177 33.69C28.1893 33.206 28.2177 32.7506 28.2462 32.2666C28.3031 32.2666 28.3601 32.2381 28.4455 32.2097C28.3885 32.1812 28.3316 32.1527 28.2747 32.1527C28.4739 30.5016 30.8653 28.5657 32.3456 28.3095C34.6515 27.9394 36.8436 28.9074 37.9538 30.9855C38.1531 31.3841 38.3239 31.7826 38.4947 32.1812C38.4378 32.1812 38.3809 32.2097 38.3239 32.2381C38.3809 32.2381 38.4663 32.2381 38.5232 32.2381C38.6086 33.8039 38.5232 35.2842 37.4983 36.5653Z" fill="#363636"/>
<path d="M75.7339 42.6004C75.3353 42.2019 75.0222 42.088 74.5667 42.5435C71.4921 45.675 68.3606 48.778 65.2861 51.8811C64.8591 52.2796 64.489 52.2796 64.0904 51.8241C63.6634 51.3117 63.1225 50.9131 62.6955 50.4007C62.3254 50.0022 62.0122 49.8598 61.5568 50.3438C60.0479 51.9095 58.4822 53.4468 56.9449 54.9841C56.5464 55.3826 56.3756 55.6673 56.8595 56.1513C59.3362 58.5711 61.7845 61.0193 64.2043 63.4961C64.6028 63.8946 64.8591 63.8377 65.2576 63.4676C68.6738 59.9945 72.1184 56.5214 75.5346 53.0482C77.1288 51.4825 78.7231 49.9452 80.3173 48.4079C80.8297 47.924 80.7443 47.5539 80.2888 47.0984C78.7231 45.6181 77.2142 44.1092 75.7339 42.6004ZM76.2179 48.7496C75.5916 49.2905 75.0507 49.9452 74.4813 50.5431C74.4244 50.5431 74.3674 50.5146 74.3105 50.5146C74.3105 50.5715 74.339 50.6285 74.3674 50.6854C71.4352 53.5891 68.503 56.436 65.5992 59.3682C64.916 60.0514 64.5174 60.1653 63.8342 59.3966C62.8378 58.2579 61.7276 57.2331 60.6458 56.1797C59.7063 55.2688 60.7596 54.9556 61.1582 54.5286C61.5283 54.13 61.8414 53.2475 62.6955 54.0731C63.3787 54.7279 63.8911 56.0089 64.8591 55.7812C65.6562 55.6104 66.254 54.5571 66.9088 53.9023C67.8482 52.9628 68.7592 51.9949 69.6702 51.0555H69.6986V51.027C71.2075 49.5467 72.8017 48.1233 74.2251 46.5575C75.2215 45.4473 75.62 46.2444 76.3317 46.8137C77.1858 47.6108 76.9865 48.0948 76.2179 48.7496Z" fill="#363636"/>
<path d="M56.859 48.0379C56.8021 47.4401 56.916 46.8138 56.8306 46.1875C56.6882 45.0203 57.1152 44.4224 58.3109 44.3655C59.5066 44.337 59.7343 43.7677 59.4781 42.6289C59.1365 41.1201 58.254 41.7464 57.4284 41.8888C54.183 42.4866 54.183 42.4866 54.183 45.6466C54.183 46.3013 54.24 46.9846 54.183 47.6393C54.0122 48.9489 54.5816 49.2905 55.8057 49.1481C56.5743 49.0343 56.9444 48.835 56.859 48.0379Z" fill="#363636"/>
<path d="M62.8082 43.1406C63.5481 43.1691 64.4588 42.9414 65.028 42.1446C64.4873 41.5184 64.8288 40.2378 63.8327 40.2378C63.1781 40.2378 61.8975 40.1808 61.8975 41.3477C61.9259 41.9453 61.8405 43.0837 62.8082 43.1406Z" fill="#363636"/>
</svg>
