<svg width="100" height="100" viewBox="0 0 100 100" fill="none" xmlns="http://www.w3.org/2000/svg">
<path d="M22.3907 36.1976C24.3431 37.4689 26.2954 38.7402 28.2931 40.0569C32.107 42.554 35.8754 45.0512 39.6893 47.5029C41.5054 48.6834 42.2318 48.2748 42.2772 46.05C42.2772 45.6868 42.3226 45.2782 42.2772 44.915C42.0048 43.2351 42.6859 42.6902 44.4112 42.7356C49.5417 42.8264 54.7177 42.8264 59.8482 42.7356C60.8925 42.7356 62.7086 43.4621 62.7086 41.5552C62.7086 39.9206 60.9833 40.5109 59.939 40.4655C54.8085 40.4201 49.6325 40.3747 44.502 40.4655C42.9129 40.5109 42.0048 40.1931 42.2772 38.3769C42.4135 37.5143 42.2318 36.5154 41.1422 36.5154C39.8255 36.47 39.9617 37.6505 39.9617 38.5132C39.9163 40.4655 39.9617 42.4178 39.9617 44.7788C34.922 41.4643 30.2455 38.4223 25.6144 35.3804C24.7971 34.8355 25.2057 34.4269 25.796 34.0637C30.3363 31.0671 34.8766 28.1159 40.0071 24.7561C40.0071 26.7084 40.0071 28.1159 40.0071 29.5234C40.0071 30.0682 40.2341 30.5676 40.8243 30.7947C41.4146 30.9763 41.9594 30.7947 42.141 30.2044C42.5043 29.0239 43.4123 29.1147 44.3204 29.1147C47.4986 29.1147 50.6768 29.1147 53.855 29.1147C54.7177 29.1147 55.6711 29.1147 55.5803 27.8889C55.5349 26.89 54.6722 26.8446 53.9004 26.8446C51.3124 26.8446 48.7699 26.8446 46.1819 26.8446C42.6405 26.8446 42.6405 26.8446 42.368 23.2578C42.2318 21.487 41.5054 21.033 40.0979 21.9411C34.1955 25.7549 28.3385 29.6142 22.4362 33.5188C20.9833 34.4723 21.1195 35.3349 22.3907 36.1976Z" fill="#363636"/>
<path d="M75.9204 63.7572C73.9681 62.4859 72.0158 61.1692 70.0635 59.8979C66.3404 57.4462 62.6174 54.9944 58.8943 52.588C58.2587 52.1794 57.6685 51.5892 56.8512 51.9978C56.034 52.4064 56.1702 53.2691 56.1702 53.9955C56.1702 54.3588 56.1248 54.7674 56.1702 55.1306C56.4426 56.9013 55.6253 57.2645 53.9908 57.2645C48.6333 57.1737 43.2757 57.2191 37.8728 57.2645C36.9647 57.2645 35.648 56.9921 35.7388 58.4904C35.8296 59.7617 37.0101 59.5347 37.8728 59.5347C43.2303 59.5347 48.5879 59.5801 53.9908 59.4893C55.6253 59.4439 56.4426 59.8071 56.1702 61.5778C56.034 62.4405 56.2156 63.3939 57.3052 63.4393C58.4403 63.4847 58.4403 62.4405 58.4857 61.6232C58.6219 59.6255 58.2133 57.5824 58.7581 55.3122C63.7525 58.5812 68.6106 61.7594 73.7411 65.1647C68.6106 68.5245 63.7979 71.7027 58.4403 75.1987C58.4403 73.2464 58.4403 71.8843 58.4403 70.5676C58.4403 69.932 58.2587 69.3417 57.5322 69.1601C56.942 69.0239 56.4426 69.2509 56.261 69.8412C55.9431 70.9762 55.1259 70.84 54.2632 70.84C51.2212 70.84 48.2246 70.7946 45.1826 70.84C44.2746 70.84 42.9125 70.4314 42.8671 71.9297C42.8217 73.5642 44.32 73.1102 45.2735 73.1556C47.6798 73.201 50.1316 73.1556 52.5379 73.1556C55.8977 73.1556 55.8977 73.1556 56.0794 76.5608C56.1702 78.6039 56.8966 79.0126 58.6219 77.8775C64.3881 74.1544 70.1089 70.3406 75.875 66.5721C77.3279 65.5733 77.3279 64.7106 75.9204 63.7572Z" fill="#363636"/>
<path d="M93.2644 65.21C93.2644 57.8093 93.219 50.4087 93.3098 43.008C93.3098 41.2373 92.9012 40.42 90.9035 40.4654C86.454 40.6016 82.0045 40.5108 77.5096 40.5108C76.6015 40.5108 75.4211 40.3292 75.4211 41.6005C75.3757 43.0988 76.6924 42.781 77.6458 42.781C81.4143 42.8264 85.1827 42.8264 88.9966 42.781C90.3586 42.7356 91.0397 43.008 91.0397 44.5971C90.9943 58.3542 90.9943 72.1113 91.0397 85.8684C91.0397 87.2305 90.6311 87.7299 89.2236 87.6845C85.4551 87.5937 81.6867 87.6391 77.8728 87.6845C76.9194 87.6845 75.4211 87.2759 75.4665 88.865C75.5119 90.2724 76.874 89.9092 77.782 89.9546C82.0045 90 86.2724 89.8638 90.4949 90C92.6288 90.0908 93.4006 89.4552 93.3552 87.2305C93.1736 79.8752 93.2644 72.5199 93.2644 65.21Z" fill="#363636"/>
<path d="M20.6199 57.2191C17.1239 57.2191 13.6733 57.1737 10.1772 57.2191C8.90595 57.2191 8.27031 56.9467 8.27031 55.4938C8.31571 41.7367 8.31571 27.9796 8.27031 14.1771C8.27031 12.588 8.86054 12.2702 10.268 12.3156C13.5825 12.4064 16.9423 12.361 20.2567 12.3156C21.2101 12.3156 22.7084 12.7242 22.663 11.1351C22.663 9.72763 21.2556 10.0455 20.3475 10.0455C16.4882 10.0455 12.5382 10.1363 8.58813 10C6.6358 9.95465 5.95476 10.5903 6.00016 12.588C6.09096 19.9887 6.04556 27.4348 6.04556 34.8355C6.04556 42.2361 6.09096 49.6822 6.00016 57.0829C6.00016 58.9898 6.6358 59.6255 8.49732 59.5801C12.5836 59.4893 16.6699 59.5347 20.7561 59.5347C21.6642 59.5347 22.7992 59.6709 22.7538 58.3542C22.7084 56.9921 21.528 57.2191 20.6199 57.2191Z" fill="#363636"/>
<path d="M62.7996 29.16C63.7077 29.16 65.0244 29.5233 65.0698 28.0704C65.1152 26.6175 63.7985 26.9353 62.8904 26.8445C61.9824 26.9353 60.6657 26.5721 60.6203 27.9796C60.5749 29.4779 61.8916 29.2054 62.7996 29.16Z" fill="#363636"/>
<path d="M35.5578 70.7946C34.6497 70.7946 33.333 70.3859 33.333 71.8842C33.333 73.3371 34.6497 72.9739 35.4669 73.0647C36.4658 73.0193 37.7825 73.3371 37.7825 71.9296C37.7825 70.5221 36.4658 70.7946 35.5578 70.7946Z" fill="#363636"/>
<path d="M68.9284 42.7809C69.7002 42.6901 70.9261 43.0533 70.9715 41.7366C71.0169 40.2383 69.7456 40.5562 68.7922 40.5108C67.8841 40.4654 66.749 40.42 66.749 41.6912C66.749 42.9625 67.9295 42.7355 68.9284 42.7809Z" fill="#363636"/>
<path d="M29.5638 57.2191C28.6558 57.2645 27.3845 56.9466 27.4299 58.4449C27.4753 59.7616 28.6558 59.4438 29.5184 59.5346C30.4719 59.4892 31.6978 59.6708 31.6524 58.2633C31.607 57.0374 30.4265 57.1736 29.5638 57.2191Z" fill="#363636"/>
</svg>
