<svg width="100" height="100" viewBox="0 0 100 100" fill="none" xmlns="http://www.w3.org/2000/svg">
<path d="M19.4681 59.4223C18.4888 59.4223 17.5186 59.4314 16.5393 59.4223C15.0841 59.4131 14.178 58.4888 14.1689 57.0335C14.1689 55.2946 14.1689 53.5557 14.1689 51.8167C14.1689 47.2589 14.1689 42.7011 14.1689 38.1433C14.1689 34.821 14.1689 31.4987 14.1597 28.1856C14.1597 27.1788 14.1597 26.1721 14.1414 25.1653C14.1323 24.7809 14.2146 24.607 14.6631 24.6254C15.6516 24.662 16.6492 24.6254 17.6376 24.6254C24.0899 24.6254 30.5423 24.6254 36.9947 24.6254C36.9947 24.6345 36.9947 24.6345 36.9947 24.6437C42.6508 24.6437 48.3069 24.6437 53.963 24.6437C55.766 24.6437 57.5598 24.6528 59.3628 24.6345C59.7197 24.6345 59.8021 24.7535 59.7838 25.083C59.7564 25.6321 59.7655 26.1812 59.7838 26.7304C59.8021 27.4076 60.3329 27.8653 61.0011 27.792C61.5777 27.728 61.9437 27.2612 61.9437 26.5931C61.9437 23.7284 61.9071 20.8638 61.9437 17.99C61.9712 15.8392 60.7265 14.5579 58.5666 14.5853C57.0381 14.6036 55.5188 14.5853 53.9904 14.5945C53.6884 14.5945 53.606 14.4938 53.606 14.2009C53.6243 13.2125 53.6152 12.2149 53.606 11.2264C53.5969 10.4759 53.185 10.0183 52.5352 10.0092C51.8671 10 51.4461 10.4759 51.4369 11.2447C51.4369 12.16 51.4369 13.0752 51.4369 13.9904C51.4369 14.5945 51.4369 14.5945 50.8512 14.5945C47.5106 14.5945 44.17 14.5945 40.8295 14.5945C34.8805 14.5945 28.9315 14.5945 22.9917 14.6036C22.5615 14.6036 22.4517 14.4755 22.4608 14.0636C22.4883 13.1209 22.4791 12.1691 22.47 11.2264C22.4883 10.4576 22.0398 9.98172 21.3717 10C20.7311 10.0183 20.3284 10.4851 20.3284 11.2356C20.3284 12.1691 20.3101 13.0935 20.3375 14.027C20.3558 14.4572 20.246 14.6036 19.7884 14.5945C18.2233 14.567 16.6492 14.5762 15.0841 14.5853C13.2811 14.5945 12.009 15.8666 12.009 17.6696C12.009 22.2732 12.009 26.8768 12.009 31.4804C12.009 35.8003 12.009 40.111 12.009 44.4309C12.009 48.6684 11.9998 52.9059 12.009 57.1525C12.009 59.4406 13.6106 61.2802 15.8529 61.5456C17.0519 61.6921 18.26 61.5822 19.4681 61.5914C20.246 61.6005 20.7128 61.1795 20.7219 60.5114C20.7128 59.8433 20.246 59.4314 19.4681 59.4223ZM14.1597 21.9254C14.1872 20.5343 14.1689 19.1523 14.1689 17.7611C14.1689 17.0473 14.4618 16.7544 15.1573 16.7544C16.7315 16.7544 18.2966 16.7635 19.8708 16.7452C20.2277 16.7452 20.3467 16.8459 20.3375 17.212C20.3101 17.9442 20.3284 18.6764 20.3284 19.4086C20.3375 20.0858 20.7585 20.5343 21.3809 20.5434C21.9941 20.5526 22.4608 20.1133 22.4883 19.4452C22.5158 18.6947 22.5158 17.9533 22.4883 17.2029C22.47 16.8368 22.589 16.7452 22.9368 16.7452C26.076 16.7544 29.2152 16.7544 32.3636 16.7544C38.5414 16.7544 44.7192 16.7544 50.8878 16.7452C51.3454 16.7452 51.501 16.8551 51.4644 17.3218C51.4186 17.9717 51.4552 18.6306 51.4552 19.2896C51.4552 20.0675 51.8671 20.5434 52.5261 20.5526C53.2033 20.5617 53.6243 20.0767 53.6243 19.2621C53.6243 18.5482 53.6335 17.8252 53.6243 17.1113C53.6152 16.8276 53.7159 16.7452 53.9904 16.7452C55.6195 16.7544 57.2578 16.7452 58.8869 16.7544C59.4635 16.7544 59.7838 17.0839 59.7838 17.6788C59.793 19.1157 59.7655 20.5434 59.793 21.9803C59.8021 22.4013 59.6648 22.4746 59.2713 22.4746C52.8006 22.4654 46.3391 22.4654 39.8685 22.4654C38.9075 22.4654 37.9465 22.4654 36.9855 22.4654C29.563 22.4654 22.1314 22.4654 14.7089 22.4746C14.2787 22.4746 14.1506 22.3739 14.1597 21.9254Z" fill="#363636"/>
<path d="M46.6962 63.4401C44.6644 57.9304 39.2737 54.6905 33.4254 55.4227C28.6388 56.0267 25.1518 58.626 23.3305 63.074C21.2987 68.0528 22.223 72.6472 25.8473 76.6468C27.1012 78.0288 27.934 79.5938 28.2452 81.4426C28.4466 82.6415 28.3276 83.8496 28.3734 84.8289C28.3734 85.8357 28.3551 86.6319 28.3734 87.4282C28.4008 88.6271 29.2428 89.6705 30.3869 89.8901C31.2563 90.0549 32.1532 89.9999 33.0319 89.9267C33.3796 89.8993 33.7274 89.8535 34.0752 89.9267C34.3681 89.9908 34.6518 89.9816 34.9355 89.9542C36.0796 89.8444 37.2328 89.9725 38.3768 89.945C38.8985 89.9359 39.4476 89.9816 39.9418 89.7345C40.9577 89.2403 41.4977 88.4441 41.4977 87.3C41.5069 85.8174 41.4886 84.3438 41.5069 82.8612C41.5435 80.509 42.3489 78.4681 43.9505 76.72C47.5199 72.8669 48.5175 68.3823 46.6962 63.4401ZM39.3561 84.4171C39.3378 85.314 39.3561 86.2201 39.3469 87.117C39.3378 87.7576 39.2188 87.8309 38.5873 87.8217C37.5714 87.8034 36.5555 87.84 35.5304 87.84C34.0569 87.84 32.5742 87.8125 31.1007 87.8034C30.7163 87.8034 30.5333 87.6204 30.5241 87.2543C30.515 86.2658 30.5241 85.2682 30.515 84.2798C30.515 83.9869 30.6706 83.9778 30.8994 83.9778C32.2539 83.9869 33.6176 83.9778 34.9721 83.9778C36.2809 83.9778 37.5988 83.9869 38.9076 83.9686C39.2554 83.9686 39.3652 84.0784 39.3561 84.4171ZM45.2684 69.4531C44.9298 71.6588 43.9871 73.5625 42.4495 75.1824C40.7838 76.9214 39.7771 78.9806 39.4659 81.3694C39.4201 81.7354 39.2829 81.8361 38.9259 81.8361C37.5988 81.8178 36.2718 81.827 34.9447 81.827C33.5993 81.827 32.2631 81.8178 30.9177 81.8361C30.5974 81.8361 30.4692 81.7538 30.4235 81.4243C30.1031 78.9898 29.0415 76.9214 27.3758 75.1184C24.6026 72.1073 23.7698 68.5653 25.0419 64.6939C26.3232 60.8225 29.1055 58.4429 33.1142 57.6741C40.0608 56.3104 46.3484 62.4608 45.2684 69.4531Z" fill="#363636"/>
<path d="M86.2792 50.4348C85.5837 49.9405 84.8881 49.4463 84.1925 48.9521C82.3804 47.6799 80.4126 48.0094 79.1313 49.8124C73.9237 57.1068 68.7252 64.4011 63.5175 71.6863C63.3437 71.9243 63.243 72.1897 63.1881 72.4826C62.8128 74.7798 62.4467 77.0862 62.0623 79.3834C61.9342 80.1247 62.0623 80.7654 62.6938 81.2047C63.3162 81.6532 63.9752 81.5708 64.6341 81.2139C66.6659 80.1064 68.7069 79.0173 70.7478 77.919C71.0499 77.7543 71.2878 77.5346 71.4892 77.2601C76.6877 69.9657 81.8953 62.6714 87.1029 55.3862C87.5514 54.7638 87.8168 54.0774 87.8168 53.2994C87.7894 52.0822 87.2677 51.1395 86.2792 50.4348ZM85.3091 54.1323C81.4835 59.4955 77.6578 64.8496 73.8413 70.2128C72.5142 72.0707 71.1871 73.9287 69.8601 75.7957C69.7594 75.933 69.6496 76.052 69.5031 76.1343C67.8557 77.0221 66.1992 77.9099 64.5518 78.7977C64.5151 78.816 64.4694 78.816 64.3504 78.8434C64.6158 77.2052 64.9087 75.6401 65.11 74.0568C65.2107 73.2331 65.5493 72.5741 66.0161 71.9152C70.4275 65.7557 74.8206 59.587 79.2228 53.4276C79.8086 52.613 80.3943 51.7893 80.9801 50.9748C81.4835 50.2883 82.1516 50.1785 82.8471 50.6636C83.5702 51.167 84.2932 51.6795 85.0071 52.2012C85.7393 52.732 85.8399 53.391 85.3091 54.1323Z" fill="#363636"/>
<path d="M51.9952 31.0411C50.7322 31.0411 49.4601 31.0319 48.1971 31.0411C44.5087 31.0594 40.8203 30.9953 37.1228 31.0869C35.2924 31.1326 33.7914 32.4414 33.8097 34.0705C33.8188 35.0772 33.7914 36.084 33.7914 37.0907C33.7914 41.6394 33.7914 46.1789 33.7822 50.7276C33.7822 51.1303 33.8371 51.4873 34.1666 51.7527C34.5144 52.0364 34.908 52.1005 35.3198 51.9083C35.8049 51.6795 35.9513 51.2493 35.9513 50.7368C35.9513 45.7122 35.9513 40.6876 35.9513 35.663C35.9513 35.5898 35.9696 35.4982 35.9422 35.4342C35.7134 34.9491 35.9879 34.4732 36.0154 34.0064C36.0428 33.6312 36.3723 33.3841 36.7476 33.2651C37.0679 33.1644 37.4065 33.1004 37.736 33.1553C38.459 33.2926 39.1912 33.1919 39.9142 33.1919C48.3343 33.2193 56.7453 33.2102 65.1654 33.2102C67.2704 33.2102 69.3754 33.2102 71.4804 33.2102C72.5329 33.2102 72.899 33.5763 72.899 34.6471C72.899 39.9737 72.899 45.2912 72.899 50.6178C72.899 50.7734 72.8899 50.9198 72.9082 51.0754C72.9631 51.6886 73.439 52.1279 74.0339 52.1096C74.6105 52.0913 75.0407 51.652 75.0681 51.0388C75.0681 50.9473 75.0681 50.8558 75.0681 50.7642C75.0681 45.3644 75.0681 39.9646 75.0681 34.5647C75.0681 32.4048 73.7136 31.0502 71.5536 31.0502C69.0551 31.0502 66.5565 31.0502 64.0579 31.0502C60.0492 31.0411 56.0222 31.0411 51.9952 31.0411Z" fill="#363636"/>
<path d="M74.1891 78.6236C73.7132 78.5413 73.219 78.7884 73.0176 79.2277C72.9169 79.4565 72.8986 79.6945 72.8986 79.9416C72.8986 82.1107 72.8986 84.2706 72.8986 86.4397C72.8986 87.4007 72.4959 87.8034 71.5441 87.8034C68.9357 87.8034 66.3365 87.8034 63.7281 87.8034C60.8909 87.8034 58.0537 87.8034 55.2165 87.8034C52.1504 87.8034 49.0844 87.8034 46.0184 87.8034C45.332 87.8034 44.8652 88.2701 44.8652 88.9016C44.8744 89.5057 45.3412 89.9541 46.0001 89.9725C46.2747 89.9816 46.5493 89.9725 46.8238 89.9725C52.3701 89.9725 57.9072 89.9725 63.4535 89.9725C66.1992 89.9725 68.9449 89.9725 71.6905 89.9725C73.6583 89.9633 75.0586 88.5539 75.0677 86.5953C75.0677 85.9088 75.0677 85.2224 75.0677 84.536C75.0677 82.9161 75.0769 81.3053 75.0677 79.6853C75.0677 79.127 74.7016 78.7152 74.1891 78.6236Z" fill="#363636"/>
<path d="M67.7737 47.2314C67.5266 46.8195 67.1513 46.7005 66.6846 46.7005C62.6118 46.7097 58.5482 46.7097 54.4754 46.7005C50.4393 46.7005 46.394 46.7005 42.3578 46.7005C42.2022 46.7005 42.0558 46.6914 41.9002 46.7097C41.3694 46.7646 40.9758 47.1764 40.9392 47.7073C40.9026 48.229 41.2412 48.7049 41.7629 48.8147C41.9826 48.8605 42.2205 48.8605 42.4402 48.8605C44.3896 48.8605 46.3391 48.8422 48.2977 48.8422C53.7707 48.8422 59.2438 48.8513 64.7168 48.8605C65.449 48.8605 66.1812 48.8879 66.9134 48.833C67.7371 48.7872 68.1855 47.9178 67.7737 47.2314Z" fill="#363636"/>
<path d="M62.5757 61.1704C64.0492 61.2161 65.5136 61.1155 66.9871 61.1521C67.161 61.1612 67.3074 61.0514 67.4264 60.9324C67.765 60.6121 67.8932 60.2277 67.7376 59.7701C67.5911 59.3399 67.28 59.102 66.8315 59.0379C66.3922 58.983 65.9529 59.0928 65.5136 59.0745C63.857 59.0104 62.1913 59.0928 60.5347 59.0379C58.8416 58.9738 57.1484 59.0287 55.4644 59.0287V59.0379C53.698 59.0379 51.9316 59.0379 50.1652 59.0379C49.9364 59.0379 49.7076 59.0562 49.5062 59.1752C49.0761 59.4223 48.8747 59.8982 48.9937 60.3833C49.1218 60.8867 49.5245 61.1887 50.1194 61.1887C53.3685 61.1887 56.6084 61.2161 59.8575 61.1795C60.7544 61.1704 61.6696 61.1429 62.5757 61.1704Z" fill="#363636"/>
<path d="M58.5937 71.3935C57.4039 71.3843 56.2141 71.3935 55.0243 71.3935C53.8803 71.3935 52.7362 71.3935 51.5922 71.3935C51.2627 71.3935 50.9516 71.4484 50.7136 71.6955C50.3841 72.0341 50.2834 72.4277 50.4665 72.867C50.6678 73.3704 51.0797 73.5443 51.6014 73.5443C53.9352 73.5443 56.269 73.5443 58.6029 73.5443C58.7859 73.5443 58.9689 73.5168 59.1337 73.4344C59.5913 73.1965 59.811 72.7022 59.692 72.1989C59.5638 71.7138 59.152 71.3935 58.5937 71.3935Z" fill="#363636"/>
<path d="M20.3835 38.8205C21.2255 38.8296 22.0584 38.8205 22.9004 38.8205C23.7516 38.8205 24.6027 38.8205 25.463 38.8205C26.1769 38.8205 26.6528 38.3628 26.6437 37.713C26.6345 37.0907 26.1586 36.6605 25.463 36.6514C23.7699 36.6514 22.0859 36.6514 20.3927 36.6514C19.6697 36.6514 19.2029 37.0907 19.212 37.7588C19.212 38.3903 19.6788 38.8205 20.3835 38.8205Z" fill="#363636"/>
<path d="M20.3378 51.405C22.0584 51.4141 23.7791 51.4141 25.4997 51.405C26.1678 51.405 26.6254 50.9657 26.6437 50.3525C26.662 49.7301 26.1861 49.2725 25.4997 49.2633C24.6485 49.2542 23.7974 49.2633 22.9462 49.2633C22.9462 49.2633 22.9462 49.2633 22.9462 49.2725C22.095 49.2725 21.2439 49.2725 20.3927 49.2725C19.7063 49.2725 19.2304 49.6752 19.2121 50.2701C19.1663 50.9199 19.6331 51.3958 20.3378 51.405Z" fill="#363636"/>
</svg>
