<svg width="100" height="100" viewBox="0 0 100 100" fill="none" xmlns="http://www.w3.org/2000/svg">
<path d="M85.2986 35.3715C85.2986 35.0545 85.2851 34.7374 85.2312 34.4338C84.8264 31.9577 82.7686 30.2306 80.2049 30.2238C77.2836 30.2171 74.3555 30.2171 71.4342 30.2306C71.1306 30.2306 71.0362 30.1564 71.0362 29.8393C71.0497 27.0732 71.0429 24.307 71.0429 21.5409C71.0429 17.8707 68.2363 15.0101 64.5661 15.0101C53.6365 14.9966 42.7069 14.9966 31.7773 15.0101C28.1341 15.0169 25.3073 17.8437 25.2871 21.4667C25.2668 24.28 25.2803 27.0866 25.2871 29.9C25.2871 30.5409 25.6784 30.9727 26.2451 30.9795C26.8118 30.9862 27.2099 30.5544 27.2166 29.9135C27.2233 29.1849 27.2166 28.4495 27.2166 27.7208C27.2166 27.1474 27.1626 27.2216 27.7226 27.2216C41.3711 27.2216 55.0196 27.2216 68.6749 27.2216C68.7288 27.2216 68.7895 27.2283 68.8435 27.2216C69.0864 27.1878 69.1471 27.3025 69.1404 27.5319C69.1269 28.2876 69.1336 29.0364 69.1336 29.7921C69.1336 30.2238 69.1336 30.2238 68.6951 30.2238C63.0481 30.2238 57.4079 30.2238 51.761 30.2238C48.7789 30.2238 46.6065 32.3963 46.6065 35.3715C46.6065 40.0267 46.6065 44.6819 46.6065 49.3371C46.6065 54.1947 46.6065 59.0523 46.6065 63.9099C46.6065 66.4737 48.4753 68.5786 51.0188 68.889C51.3157 68.9227 51.626 68.9295 51.9296 68.9295C57.5091 68.9295 63.0819 68.9295 68.6614 68.9295C69.1269 68.9295 69.1269 68.9295 69.1269 69.4085C69.1269 70.0292 69.1066 70.6431 69.1336 71.2638C69.1471 71.5944 69.0662 71.7023 68.7086 71.7023C55.0129 71.6956 41.3171 71.6956 27.6214 71.7023C27.3043 71.7023 27.2031 71.6214 27.2031 71.2908C27.2166 68.7608 27.2099 66.2308 27.2099 63.7008C27.2099 63.5524 27.2166 63.4039 27.1896 63.2623C27.1154 62.7563 26.7039 62.4257 26.1979 62.4459C25.6311 62.4729 25.2803 62.8912 25.2803 63.5591C25.2803 68.5381 25.2803 73.5239 25.2803 78.503C25.2803 78.9078 25.314 79.3126 25.3883 79.7106C25.9887 82.8478 28.6064 85 31.8313 85C42.7137 85 53.6028 85 64.4852 85C64.6741 85 64.8697 84.9933 65.0586 84.9865C65.6186 84.9595 65.6186 84.9595 65.6456 84.4603C65.9222 84.8853 65.9222 84.8853 66.4754 84.7234C69.1674 83.9273 71.0294 81.458 71.0362 78.6244C71.0429 75.5209 71.0429 72.4175 71.0294 69.314C71.0294 68.9969 71.1239 68.9227 71.4275 68.9227C74.342 68.9362 77.2499 68.9295 80.1644 68.9295C80.5355 68.9295 80.9065 68.9025 81.2709 68.8283C83.6794 68.329 85.2851 66.3185 85.2851 63.775C85.3054 54.3094 85.3054 44.8439 85.2986 35.3715ZM68.6816 25.2853C62.8997 25.2853 57.1246 25.2853 51.3427 25.2853C50.2834 25.2853 49.231 25.2853 48.1717 25.2853C41.3374 25.2853 34.503 25.2853 27.6619 25.2853C27.2166 25.2853 27.2166 25.2853 27.2166 24.8265C27.2166 23.7336 27.2166 22.6473 27.2166 21.5544C27.2233 18.9164 29.2204 16.9262 31.8583 16.9262C42.7204 16.9262 53.5826 16.9262 64.4379 16.9262C67.1366 16.9262 69.1336 18.9097 69.1336 21.6084C69.1336 22.6743 69.1336 23.747 69.1336 24.813C69.1404 25.346 69.2078 25.2853 68.6816 25.2853ZM69.1336 78.4355C69.1269 81.1004 67.1838 83.0705 64.5189 83.0705C53.623 83.0772 42.7339 83.0772 31.8381 83.0705C29.2069 83.0705 27.2301 81.0802 27.2233 78.4557C27.2233 76.9715 27.2301 75.4872 27.2166 74.0029C27.2099 73.6791 27.3111 73.5914 27.6281 73.5914C34.4828 73.5981 41.3441 73.5981 48.1987 73.5981C55.0196 73.5981 61.8472 73.5981 68.6681 73.5981C69.1269 73.5981 69.1269 73.5981 69.1269 74.0502C69.1336 75.5142 69.1336 76.9782 69.1336 78.4355ZM83.3758 63.7817C83.3758 65.6843 82.0535 66.9999 80.1442 66.9999C75.408 66.9999 70.6786 66.9999 65.9425 66.9999C61.2063 66.9999 56.4769 66.9999 51.7407 66.9999C49.8517 66.9999 48.5428 65.6843 48.5428 63.7952C48.5428 54.3162 48.5428 44.8371 48.5428 35.3648C48.5428 33.4825 49.8584 32.1601 51.7475 32.1601C61.213 32.1601 70.6786 32.1601 80.1442 32.1601C82.0467 32.1601 83.3691 33.4825 83.3691 35.385C83.3826 44.8439 83.3826 54.3094 83.3758 63.7817Z" fill="#363636"/>
<path d="M28.2895 59.9497C29.3555 59.9362 30.2123 59.2885 30.5091 58.263C30.6171 57.8852 30.7183 57.5074 30.8262 57.1296C30.9004 56.8732 31.9934 56.3402 32.243 56.4347C32.3038 56.4617 32.3645 56.4954 32.4252 56.5291C32.7558 56.7045 33.0729 56.8867 33.4102 57.0486C34.3547 57.5209 35.4005 57.3455 36.1359 56.6033C36.4934 56.2458 36.8443 55.8814 37.1951 55.5171C38.1666 54.5186 38.3353 53.5336 37.5864 52.3529C37.1411 51.658 37.0062 51.0441 37.4447 50.3289C37.5324 50.1873 37.6066 50.0793 37.7753 50.0321C38.1868 49.9174 38.5984 49.7959 38.9964 49.6543C39.9207 49.3304 40.5212 48.5073 40.5279 47.5291C40.5347 46.8881 40.5279 46.2472 40.5077 45.6063C40.474 44.6145 39.8465 43.7914 38.902 43.5013C38.5714 43.4001 38.2341 43.2922 37.8967 43.218C37.5796 43.1505 37.4447 42.9616 37.2828 42.6917C36.9185 42.071 36.9792 41.538 37.384 40.9713C37.6808 40.5463 37.8765 40.0605 37.8563 39.595C37.863 38.8933 37.6471 38.3469 37.2086 37.9016C36.7565 37.4428 36.2978 36.9975 35.839 36.5522C35.5556 36.2824 35.2183 36.1137 34.8405 36.0125C34.0579 35.8101 33.3562 36.026 32.7423 36.478C32.1283 36.9368 31.5414 36.984 30.9004 36.5792C30.8937 36.5725 30.8802 36.5725 30.8667 36.5657C30.7183 36.532 30.6508 36.4308 30.6103 36.2891C30.5024 35.8978 30.381 35.5133 30.2595 35.1287C29.9289 34.0695 29.0721 33.442 27.9589 33.4488C27.3989 33.4555 26.8322 33.4555 26.2722 33.4623C25.1928 33.469 24.3494 34.0897 24.0323 35.122C23.9109 35.52 23.803 35.9248 23.6815 36.3229C23.6073 36.559 22.5008 37.0717 22.2715 36.984C22.2107 36.957 22.15 36.9233 22.0893 36.8896C21.7924 36.7277 21.4956 36.5725 21.1987 36.4106C20.207 35.8843 19.1478 36.0395 18.3584 36.8424C17.9536 37.2539 17.5623 37.6654 17.1642 38.077C16.4221 38.8529 16.2872 39.9053 16.8067 40.8431C16.9956 41.1872 17.198 41.5245 17.3869 41.8686C17.4341 41.9563 17.4948 42.0373 17.4476 42.152C17.2992 42.5028 17.1575 42.8604 17.0158 43.2112C16.9686 43.3259 16.8674 43.3394 16.7729 43.3731C16.3884 43.4946 15.9971 43.6093 15.6125 43.7307C14.6207 44.0545 13.9933 44.9181 14.0001 45.9706C14.0068 46.5643 14.0135 47.1648 14.027 47.7585C14.0473 48.7974 14.6815 49.6408 15.6732 49.9376C16.0578 50.0523 16.4491 50.167 16.8404 50.2682C17.0091 50.3154 17.0833 50.4166 17.171 50.5651C17.6028 51.2667 17.6163 51.9346 17.0765 52.5823C17.0158 52.6565 16.9753 52.7577 16.9349 52.8454C16.4693 53.7495 16.6245 54.802 17.3329 55.5239C17.7647 55.9624 18.21 56.3942 18.6553 56.8192C19.3906 57.5209 20.4296 57.6693 21.3404 57.1903C21.698 57.0014 22.0488 56.799 22.3996 56.6033C22.4941 56.5494 22.5886 56.4684 22.71 56.5224C23.0676 56.6641 23.4184 56.8057 23.776 56.9474C23.8974 56.9946 23.9109 57.1161 23.9446 57.224C24.0661 57.6086 24.1808 57.9999 24.3022 58.3844C24.6193 59.3425 25.4559 59.9564 26.4611 59.9632C27.0751 59.9632 27.6823 59.9564 28.2895 59.9497ZM26.1103 57.6895C25.9551 57.1498 25.773 56.6168 25.6178 56.0771C25.4964 55.6386 25.2332 55.3619 24.788 55.2405C24.2145 55.0853 23.6613 54.8492 23.135 54.5726C22.7775 54.3837 22.4266 54.3837 22.0758 54.5793C21.5698 54.8694 21.0503 55.1461 20.5443 55.4362C20.3082 55.5711 20.1125 55.5643 19.9101 55.3552C19.5526 54.9841 19.1747 54.6266 18.8037 54.269C18.689 54.1543 18.5743 54.0463 18.608 53.8102C18.6283 53.763 18.6755 53.6753 18.716 53.5876C18.9791 53.0883 19.2422 52.5958 19.5053 52.0966C19.701 51.739 19.701 51.3882 19.5053 51.0373C19.2017 50.4841 18.9521 49.9106 18.7565 49.3034C18.635 48.9256 18.3921 48.6962 18.0143 48.5883C17.4611 48.4399 16.9146 48.2712 16.3614 48.1228C16.0645 48.0486 15.9296 47.8866 15.9363 47.5763C15.9431 47.0703 15.9229 46.5643 15.9094 46.0583C15.8959 45.7682 16.0241 45.5995 16.3074 45.5186C16.8471 45.3634 17.3801 45.1812 17.9199 45.0261C18.3382 44.9046 18.6013 44.655 18.716 44.2367C18.8711 43.6632 19.1005 43.11 19.3839 42.5838C19.6065 42.179 19.5863 41.7944 19.3502 41.4031C19.0601 40.9173 18.7969 40.4248 18.5136 39.9391C18.3854 39.7232 18.3921 39.5478 18.5743 39.3656C18.9656 38.9743 19.3502 38.583 19.728 38.1849C19.9034 38.0028 20.0788 37.9758 20.3014 38.0972C20.8007 38.3738 21.3134 38.6302 21.8194 38.9136C22.2107 39.1295 22.5818 39.1362 22.9731 38.9136C23.4926 38.6235 24.0391 38.3806 24.6126 38.2052C25.0241 38.077 25.2737 37.8139 25.3817 37.3956C25.5234 36.8491 25.6988 36.3161 25.8404 35.7764C25.9147 35.493 26.0698 35.3716 26.3667 35.3716C26.8727 35.3783 27.3787 35.3648 27.8847 35.3446C28.1748 35.3311 28.3502 35.439 28.4312 35.7292C28.5863 36.2824 28.7685 36.8221 28.9304 37.3753C29.0384 37.7532 29.2678 37.996 29.6321 38.1377C30.2528 38.3738 30.8667 38.6235 31.4807 38.8731C31.8247 39.0148 32.1553 38.9945 32.4859 38.8056C32.9919 38.5155 33.5047 38.2389 34.0107 37.9421C34.24 37.8071 34.4222 37.8341 34.6111 38.023C34.9822 38.4008 35.36 38.7652 35.7445 39.1295C35.9469 39.3184 35.9807 39.5073 35.839 39.7569C35.5624 40.2427 35.3128 40.7487 35.0429 41.2412C34.827 41.6325 34.8203 42.0036 35.0429 42.3949C35.3397 42.9144 35.5759 43.4608 35.7445 44.0343C35.866 44.4526 36.1291 44.7022 36.5474 44.8102C37.0939 44.9518 37.6269 45.1205 38.1733 45.2622C38.4702 45.3364 38.6051 45.4983 38.5984 45.8154C38.5849 46.3349 38.5984 46.8477 38.6119 47.3671C38.6186 47.637 38.4972 47.7854 38.2476 47.8597C37.6876 48.0283 37.1344 48.2037 36.5676 48.3724C36.1763 48.4871 35.9267 48.73 35.8188 49.1213C35.6501 49.715 35.4072 50.2885 35.1306 50.8417C34.9417 51.2127 34.9619 51.5771 35.1643 51.9346C35.441 52.4204 35.7108 52.9197 35.9942 53.3987C36.1426 53.655 36.1224 53.8507 35.9132 54.0598C35.5421 54.4242 35.1846 54.7885 34.8337 55.173C34.6313 55.3957 34.4357 55.4092 34.1793 55.2675C33.6868 54.9909 33.1876 54.7413 32.6951 54.4714C32.3172 54.2622 31.9529 54.2622 31.5751 54.4714C31.0421 54.7682 30.4889 55.0111 29.9019 55.1798C29.4971 55.3012 29.261 55.5643 29.1463 55.9691C28.9979 56.5224 28.8292 57.0689 28.6875 57.6288C28.6133 57.9189 28.4447 58.0201 28.1546 58.0201C27.6351 58.0134 27.1223 58.0269 26.6028 58.0404C26.333 58.0539 26.1845 57.9459 26.1103 57.6895Z" fill="#363636"/>
<path d="M80.5493 42.7052C80.5493 40.5462 80.5493 38.3873 80.5493 36.2284C80.5493 35.3108 80.2255 34.9802 79.3215 34.9802C74.8687 34.9802 70.4159 34.9802 65.9631 34.9802C61.4765 34.9802 56.99 34.9802 52.5035 34.9802C51.7276 34.9802 51.3633 35.3445 51.3633 36.1137C51.3633 38.3198 51.3633 40.5192 51.3633 42.7254C51.3633 43.535 51.7209 43.8926 52.5439 43.8926C61.4833 43.8926 70.4226 43.8926 79.3619 43.8926C80.1985 43.8926 80.5493 43.5417 80.5493 42.7052ZM78.6198 41.6257C78.6198 41.8888 78.5456 41.963 78.2825 41.963C70.065 41.9563 61.8476 41.9563 53.6302 41.963C53.367 41.963 53.2861 41.8956 53.2861 41.6257C53.2996 40.1752 53.2996 38.7246 53.2861 37.2741C53.2861 36.9772 53.367 36.8963 53.6639 36.8963C57.7524 36.903 61.8476 36.903 65.9361 36.903C70.0246 36.903 74.1198 36.9098 78.2083 36.8963C78.5321 36.8963 78.6198 36.984 78.6198 37.3078C78.6063 38.7449 78.6131 40.1886 78.6198 41.6257Z" fill="#363636"/>
<path d="M70.2278 54.8425C71.7593 54.8425 73.2841 54.8425 74.8155 54.8425C76.3673 54.8425 77.919 54.8425 79.4707 54.8425C80.1791 54.8425 80.5502 54.4715 80.5502 53.7631C80.5502 51.5164 80.5502 49.2631 80.5502 47.0164C80.5502 46.335 80.1656 45.9504 79.4842 45.9504C76.401 45.9504 73.3245 45.9504 70.2413 45.9504C69.5127 45.9504 69.1416 46.3215 69.1416 47.0501C69.1416 49.29 69.1416 51.5232 69.1416 53.7631C69.1483 54.4782 69.5194 54.8425 70.2278 54.8425ZM71.3815 47.8665C72.5352 47.8732 73.6956 47.8732 74.8493 47.8732C76.003 47.8732 77.1634 47.88 78.3171 47.8665C78.5532 47.8665 78.6207 47.934 78.6207 48.1701C78.6139 49.6544 78.6072 51.1386 78.6207 52.6161C78.6207 52.8725 78.5397 52.94 78.2968 52.94C75.9962 52.9332 73.6889 52.9332 71.3882 52.94C71.1319 52.94 71.0644 52.8523 71.0644 52.6094C71.0711 51.1251 71.0711 49.6409 71.0644 48.1633C71.0644 47.9137 71.1589 47.8665 71.3815 47.8665Z" fill="#363636"/>
<path d="M52.4562 54.8425C53.9877 54.8425 55.5125 54.8425 57.044 54.8425C58.5755 54.8425 60.1002 54.8425 61.6317 54.8425C62.4211 54.8425 62.7651 54.5051 62.7651 53.7158C62.7651 51.4894 62.7651 49.263 62.7651 47.0366C62.7651 46.3012 62.4076 45.9436 61.6654 45.9436C58.5957 45.9436 55.526 45.9436 52.4562 45.9436C51.7478 45.9436 51.3633 46.3147 51.3633 47.0163C51.3633 49.263 51.3633 51.5096 51.3633 53.763C51.3633 54.4781 51.7411 54.8425 52.4562 54.8425ZM53.6302 47.8664C54.7771 47.8799 55.924 47.8731 57.071 47.8731C58.2179 47.8731 59.3648 47.8799 60.5118 47.8664C60.7614 47.8664 60.8626 47.9136 60.8558 48.197C60.8423 49.6678 60.8423 51.1385 60.8558 52.6161C60.8558 52.8657 60.7951 52.9466 60.5387 52.9466C58.2314 52.9399 55.9308 52.9399 53.6234 52.9466C53.3468 52.9466 53.2861 52.8454 53.2928 52.5958C53.2996 51.1318 53.3063 49.6745 53.2928 48.2105C53.2861 47.9406 53.367 47.8597 53.6302 47.8664Z" fill="#363636"/>
<path d="M79.5502 57.0754C77.9849 57.0754 76.4265 57.0754 74.8612 57.0754C73.2893 57.0754 71.7105 57.0754 70.1386 57.0754C69.5718 57.0754 69.1603 57.4735 69.1468 58.0065C69.1333 58.553 69.5449 58.9712 70.1251 58.9915C70.3477 58.9982 70.5771 58.9915 70.7997 58.9915C73.6806 58.9915 76.5546 58.9915 79.4355 58.9915C79.8065 58.9915 80.1304 58.9105 80.353 58.6002C80.5757 58.2898 80.6161 57.9525 80.4475 57.6152C80.2653 57.2509 79.955 57.0754 79.5502 57.0754Z" fill="#363636"/>
<path d="M61.7592 57.0755C60.194 57.0688 58.6355 57.0755 57.0703 57.0755C55.4983 57.0755 53.9196 57.0688 52.3476 57.0755C51.7809 57.0755 51.3761 57.4803 51.3626 58.0133C51.3491 58.5395 51.7607 58.9848 52.3139 58.9848C55.4713 58.9916 58.6288 58.9916 61.793 58.9848C62.1843 58.9848 62.4879 58.8027 62.6633 58.4518C62.9939 57.8041 62.5216 57.0823 61.7592 57.0755Z" fill="#363636"/>
<path d="M58.7711 61.245C56.6122 61.2315 54.4532 61.2315 52.2943 61.245C51.8558 61.245 51.5184 61.5351 51.4037 61.9399C51.2216 62.5741 51.6736 63.1475 52.3753 63.1543C53.421 63.1678 54.4667 63.1543 55.5125 63.1543C56.5919 63.1543 57.6714 63.161 58.7509 63.1475C59.2973 63.1408 59.6954 62.7225 59.6954 62.203C59.7021 61.6903 59.3108 61.2517 58.7711 61.245Z" fill="#363636"/>
<path d="M76.5481 61.245C74.3892 61.2315 72.2302 61.2315 70.0713 61.245C69.6665 61.245 69.3629 61.4609 69.2145 61.8454C68.9514 62.4999 69.4101 63.1475 70.1523 63.1543C71.198 63.1678 72.2437 63.1543 73.2895 63.1543C74.3689 63.1543 75.4484 63.161 76.5279 63.1475C77.0743 63.1408 77.4656 62.7292 77.4724 62.203C77.4859 61.6903 77.0946 61.2517 76.5481 61.245Z" fill="#363636"/>
<path d="M48.1924 75.1701C46.4788 75.1499 45.0283 76.5802 45.008 78.3141C44.9878 80.0615 46.4113 81.4918 48.1655 81.4985C49.9128 81.5052 51.3297 80.1087 51.3364 78.3681C51.3499 76.6072 49.9533 75.1904 48.1924 75.1701ZM48.1587 79.5824C47.484 79.569 46.9241 78.9887 46.9443 78.3141C46.9578 77.6529 47.5245 77.0997 48.1857 77.1064C48.8671 77.1064 49.4203 77.6731 49.4136 78.3613C49.4001 79.036 48.8401 79.5892 48.1587 79.5824Z" fill="#363636"/>
<path d="M53.0096 20.1578C52.8882 20.1444 52.76 20.1511 52.6386 20.1511C50.0006 20.1511 47.3559 20.1511 44.718 20.1511C44.2929 20.1511 43.8611 20.1444 43.4361 20.1578C42.9436 20.1713 42.586 20.4682 42.4916 20.9202C42.3566 21.5477 42.8087 22.0672 43.5103 22.0739C45.0621 22.0806 46.6138 22.0739 48.1588 22.0739C49.3394 22.0739 50.5201 22.0739 51.7008 22.0739C52.1258 22.0739 52.5576 22.0874 52.9826 22.0672C53.5089 22.0402 53.8799 21.6286 53.8799 21.1159C53.8799 20.6166 53.5156 20.2118 53.0096 20.1578Z" fill="#363636"/>
<path d="M33.6592 46.8274C33.666 43.3528 30.7716 40.4788 27.2769 40.4788C23.7349 40.4788 20.8945 43.3259 20.8945 46.8746C20.8945 50.3896 23.7484 53.2367 27.2769 53.2367C30.7986 53.2367 33.6525 50.3694 33.6592 46.8274ZM22.8106 46.8341C22.8241 44.3986 24.8278 42.4083 27.2769 42.4016C29.7057 42.3948 31.7297 44.4188 31.7229 46.8476C31.7162 49.3169 29.6989 51.3206 27.2229 51.3139C24.8076 51.3139 22.7971 49.2697 22.8106 46.8341Z" fill="#363636"/>
</svg>
