<svg width="107" height="122" viewBox="0 0 107 122" fill="none" xmlns="http://www.w3.org/2000/svg">
<path opacity="0.8" d="M8.74836 3.28586L2.54031 25.529C-3.66779 47.7721 1.85045 71.59 15.3013 87.1405C10.6453 94.2268 10.1279 104.266 14.784 111.943C20.6472 121.588 32.3737 124.147 40.8236 117.454C44.9623 114.108 47.7214 109.187 48.5837 103.872C71.6916 105.25 93.5923 89.109 100.835 62.7321L106.698 41.8669C107.388 39.5048 106.353 37.1427 104.284 36.1585C102.215 35.3711 99.8004 36.5522 99.1106 39.1111L93.7647 58.4016C87.3842 81.0384 68.5875 95.9984 48.5837 94.6205C48.0663 92.2584 47.204 89.8963 45.8245 87.7311C40.3062 78.6763 29.7869 75.9206 21.337 81.0384C9.61057 68.2437 4.43725 48.3627 9.7831 29.6627L16.5085 5.84481C17.1983 3.48271 15.9911 0.92376 13.9218 0.136392C11.68 -0.454133 9.43815 0.923757 8.74836 3.28586Z" fill="#CCCCCC"/>
</svg>
