<svg width="42" height="42" viewBox="0 0 42 42" fill="none" xmlns="http://www.w3.org/2000/svg">
<mask id="mask0_189_1781" style="mask-type:alpha" maskUnits="userSpaceOnUse" x="0" y="0" width="42" height="42">
<rect width="42" height="42" rx="11" fill="#D9D9D9"/>
</mask>
<g mask="url(#mask0_189_1781)">
<g filter="url(#filter0_f_189_1781)">
<circle cx="25.8462" cy="30.6923" r="24.2308" fill="black"/>
</g>
</g>
<rect x="0.25" y="0.25" width="41.5" height="41.5" rx="10.75" stroke="url(#paint0_linear_189_1781)" stroke-width="0.5"/>
<path d="M22.2351 12.2569C22.3972 12.42 22.5255 12.6135 22.6127 12.8263C22.6999 13.0391 22.7442 13.267 22.7431 13.4969V18.8849L28.6601 21.4259C28.7248 21.4516 28.783 21.4914 28.8304 21.5425C28.8778 21.5935 28.9133 21.6545 28.9341 21.7209L29.4531 23.2659C29.4806 23.3516 29.4849 23.443 29.4656 23.5309C29.4462 23.6188 29.4038 23.6999 29.3428 23.766C29.2817 23.8321 29.2042 23.8809 29.1182 23.9072C29.0322 23.9335 28.9407 23.9366 28.8531 23.9159L22.7531 22.3819L22.4591 27.6269L23.6281 28.5019V30.2499C22.7495 30.0175 21.8718 29.7815 20.9951 29.5419C20.9951 29.5419 19.9221 29.8369 18.3721 30.2499V28.5019L19.5421 27.6269L19.2461 22.3819L13.1471 23.9169C13.0596 23.9372 12.9682 23.934 12.8823 23.9075C12.7965 23.8811 12.7191 23.8324 12.6582 23.7663C12.5972 23.7003 12.5548 23.6193 12.5353 23.5316C12.5158 23.4439 12.5199 23.3526 12.5471 23.2669L13.0661 21.7209C13.0869 21.6545 13.1223 21.5935 13.1697 21.5425C13.2172 21.4914 13.2753 21.4516 13.3401 21.4259L19.2571 18.8849V13.4969C19.2561 13.267 19.3005 13.0391 19.3876 12.8264C19.4748 12.6136 19.6031 12.4201 19.7651 12.2569C20.0942 11.9324 20.5379 11.7505 21.0001 11.7505C21.4623 11.7505 21.906 11.9324 22.2351 12.2569Z" stroke="white" stroke-width="1.3" stroke-linecap="round" stroke-linejoin="round"/>
<defs>
<filter id="filter0_f_189_1781" x="-20.4845" y="-15.6385" width="92.6614" height="92.6615" filterUnits="userSpaceOnUse" color-interpolation-filters="sRGB">
<feFlood flood-opacity="0" result="BackgroundImageFix"/>
<feBlend mode="normal" in="SourceGraphic" in2="BackgroundImageFix" result="shape"/>
<feGaussianBlur stdDeviation="11.05" result="effect1_foregroundBlur_189_1781"/>
</filter>
<linearGradient id="paint0_linear_189_1781" x1="21" y1="0" x2="21" y2="8.07692" gradientUnits="userSpaceOnUse">
<stop stop-color="white"/>
<stop offset="1" stop-color="white" stop-opacity="0"/>
</linearGradient>
</defs>
</svg>
