<svg width="42" height="42" viewBox="0 0 42 42" fill="none" xmlns="http://www.w3.org/2000/svg">
<mask id="mask0_189_1766" style="mask-type:alpha" maskUnits="userSpaceOnUse" x="0" y="0" width="42" height="42">
<rect width="42" height="42" rx="11" fill="#D9D9D9"/>
</mask>
<g mask="url(#mask0_189_1766)">
<g filter="url(#filter0_f_189_1766)">
<circle cx="25.846" cy="30.6923" r="24.2308" fill="black"/>
</g>
</g>
<rect x="0.25" y="0.25" width="41.5" height="41.5" rx="10.75" stroke="url(#paint0_linear_189_1766)" stroke-width="0.5"/>
<path d="M30.625 18.9375H29.6969L27.3095 13.5664C27.2015 13.3234 27.0253 13.1169 26.8023 12.972C26.5793 12.8271 26.3191 12.75 26.0531 12.75H15.9469C15.6809 12.75 15.4207 12.8271 15.1977 12.972C14.9747 13.1169 14.7985 13.3234 14.6905 13.5664L12.3031 18.9375H11.375C11.1927 18.9375 11.0178 19.0099 10.8889 19.1389C10.7599 19.2678 10.6875 19.4427 10.6875 19.625C10.6875 19.8073 10.7599 19.9822 10.8889 20.1111C11.0178 20.2401 11.1927 20.3125 11.375 20.3125H12.0625V27.1875C12.0625 27.5522 12.2074 27.9019 12.4652 28.1598C12.7231 28.4176 13.0728 28.5625 13.4375 28.5625H15.5C15.8647 28.5625 16.2144 28.4176 16.4723 28.1598C16.7301 27.9019 16.875 27.5522 16.875 27.1875V25.8125H25.125V27.1875C25.125 27.5522 25.2699 27.9019 25.5277 28.1598C25.7856 28.4176 26.1353 28.5625 26.5 28.5625H28.5625C28.9272 28.5625 29.2769 28.4176 29.5348 28.1598C29.7926 27.9019 29.9375 27.5522 29.9375 27.1875V20.3125H30.625C30.8073 20.3125 30.9822 20.2401 31.1111 20.1111C31.2401 19.9822 31.3125 19.8073 31.3125 19.625C31.3125 19.4427 31.2401 19.2678 31.1111 19.1389C30.9822 19.0099 30.8073 18.9375 30.625 18.9375ZM15.9469 14.125H26.0531L28.1921 18.9375H13.8079L15.9469 14.125ZM15.5 27.1875H13.4375V25.8125H15.5V27.1875ZM26.5 27.1875V25.8125H28.5625V27.1875H26.5ZM28.5625 24.4375H13.4375V20.3125H28.5625V24.4375ZM14.8125 22.375C14.8125 22.1927 14.8849 22.0178 15.0139 21.8889C15.1428 21.7599 15.3177 21.6875 15.5 21.6875H16.875C17.0573 21.6875 17.2322 21.7599 17.3611 21.8889C17.4901 22.0178 17.5625 22.1927 17.5625 22.375C17.5625 22.5573 17.4901 22.7322 17.3611 22.8611C17.2322 22.9901 17.0573 23.0625 16.875 23.0625H15.5C15.3177 23.0625 15.1428 22.9901 15.0139 22.8611C14.8849 22.7322 14.8125 22.5573 14.8125 22.375ZM24.4375 22.375C24.4375 22.1927 24.5099 22.0178 24.6389 21.8889C24.7678 21.7599 24.9427 21.6875 25.125 21.6875H26.5C26.6823 21.6875 26.8572 21.7599 26.9861 21.8889C27.1151 22.0178 27.1875 22.1927 27.1875 22.375C27.1875 22.5573 27.1151 22.7322 26.9861 22.8611C26.8572 22.9901 26.6823 23.0625 26.5 23.0625H25.125C24.9427 23.0625 24.7678 22.9901 24.6389 22.8611C24.5099 22.7322 24.4375 22.5573 24.4375 22.375Z" fill="white"/>
<defs>
<filter id="filter0_f_189_1766" x="-20.4848" y="-15.6385" width="92.6614" height="92.6615" filterUnits="userSpaceOnUse" color-interpolation-filters="sRGB">
<feFlood flood-opacity="0" result="BackgroundImageFix"/>
<feBlend mode="normal" in="SourceGraphic" in2="BackgroundImageFix" result="shape"/>
<feGaussianBlur stdDeviation="11.05" result="effect1_foregroundBlur_189_1766"/>
</filter>
<linearGradient id="paint0_linear_189_1766" x1="21" y1="0" x2="21" y2="8.07692" gradientUnits="userSpaceOnUse">
<stop stop-color="white"/>
<stop offset="1" stop-color="white" stop-opacity="0"/>
</linearGradient>
</defs>
</svg>
