<svg width="42" height="42" viewBox="0 0 42 42" fill="none" xmlns="http://www.w3.org/2000/svg">
<mask id="mask0_189_1796" style="mask-type:alpha" maskUnits="userSpaceOnUse" x="0" y="0" width="42" height="42">
<rect width="42" height="42" rx="11" fill="#D9D9D9"/>
</mask>
<g mask="url(#mask0_189_1796)">
<g filter="url(#filter0_f_189_1796)">
<circle cx="25.8462" cy="30.6923" r="24.2308" fill="black"/>
</g>
</g>
<rect x="0.25" y="0.25" width="41.5" height="41.5" rx="10.75" stroke="url(#paint0_linear_189_1796)" stroke-width="0.5"/>
<path d="M11.25 18.75H13.5V24.75H12C11.8011 24.75 11.6103 24.829 11.4697 24.9697C11.329 25.1103 11.25 25.3011 11.25 25.5C11.25 25.6989 11.329 25.8897 11.4697 26.0304C11.6103 26.171 11.8011 26.25 12 26.25H30C30.1989 26.25 30.3897 26.171 30.5303 26.0304C30.671 25.8897 30.75 25.6989 30.75 25.5C30.75 25.3011 30.671 25.1103 30.5303 24.9697C30.3897 24.829 30.1989 24.75 30 24.75H28.5V18.75H30.75C30.9132 18.7499 31.0719 18.6965 31.202 18.598C31.3321 18.4995 31.4265 18.3612 31.4709 18.2042C31.5153 18.0472 31.5073 17.8799 31.4481 17.7279C31.3889 17.5758 31.2817 17.4472 31.1428 17.3616L21.3928 11.3616C21.2747 11.2889 21.1387 11.2505 21 11.2505C20.8613 11.2505 20.7253 11.2889 20.6072 11.3616L10.8572 17.3616C10.7183 17.4472 10.6111 17.5758 10.5519 17.7279C10.4927 17.8799 10.4847 18.0472 10.5291 18.2042C10.5735 18.3612 10.6679 18.4995 10.798 18.598C10.9281 18.6965 11.0868 18.7499 11.25 18.75ZM15 18.75H18V24.75H15V18.75ZM22.5 18.75V24.75H19.5V18.75H22.5ZM27 24.75H24V18.75H27V24.75ZM21 12.8803L28.1006 17.25H13.8994L21 12.8803ZM32.25 28.5C32.25 28.6989 32.171 28.8897 32.0303 29.0304C31.8897 29.171 31.6989 29.25 31.5 29.25H10.5C10.3011 29.25 10.1103 29.171 9.96967 29.0304C9.82902 28.8897 9.75 28.6989 9.75 28.5C9.75 28.3011 9.82902 28.1103 9.96967 27.9697C10.1103 27.829 10.3011 27.75 10.5 27.75H31.5C31.6989 27.75 31.8897 27.829 32.0303 27.9697C32.171 28.1103 32.25 28.3011 32.25 28.5Z" fill="white"/>
<defs>
<filter id="filter0_f_189_1796" x="-20.4845" y="-15.6385" width="92.6614" height="92.6615" filterUnits="userSpaceOnUse" color-interpolation-filters="sRGB">
<feFlood flood-opacity="0" result="BackgroundImageFix"/>
<feBlend mode="normal" in="SourceGraphic" in2="BackgroundImageFix" result="shape"/>
<feGaussianBlur stdDeviation="11.05" result="effect1_foregroundBlur_189_1796"/>
</filter>
<linearGradient id="paint0_linear_189_1796" x1="21" y1="0" x2="21" y2="8.07692" gradientUnits="userSpaceOnUse">
<stop stop-color="white"/>
<stop offset="1" stop-color="white" stop-opacity="0"/>
</linearGradient>
</defs>
</svg>
