<svg width="42" height="42" viewBox="0 0 42 42" fill="none" xmlns="http://www.w3.org/2000/svg">
<mask id="mask0_189_1731" style="mask-type:alpha" maskUnits="userSpaceOnUse" x="0" y="0" width="42" height="42">
<rect width="42" height="42" rx="11" fill="#D9D9D9"/>
</mask>
<g mask="url(#mask0_189_1731)">
<g filter="url(#filter0_f_189_1731)">
<circle cx="25.846" cy="30.6923" r="24.2308" fill="black"/>
</g>
</g>
<rect x="0.25" y="0.25" width="41.5" height="41.5" rx="10.75" stroke="url(#paint0_linear_189_1731)" stroke-width="0.5"/>
<g clip-path="url(#clip0_189_1731)">
<path d="M27.5256 27.2047C24.7756 27.2047 22.0428 27.2047 19.2871 27.2047C20.5475 27.6172 21.1548 28.4994 20.9657 29.6166C20.7938 30.6192 19.9001 31.3411 18.8746 31.3125C17.8548 31.2838 17.0011 30.4989 16.8923 29.4619C16.7891 28.5052 17.385 27.4854 18.5652 27.1932C18.2214 27.1932 17.8834 27.1989 17.5397 27.1932C16.6001 27.176 15.798 26.5458 15.5688 25.6349C15.5345 25.5031 15.5001 25.3656 15.5115 25.2338C15.6147 23.9906 15.2766 22.8104 15.0131 21.6244C14.3714 18.7599 13.7355 15.8953 13.0938 13.0364C13.0537 12.8531 12.985 12.664 12.8933 12.4979C12.7444 12.2229 12.5209 12.0625 12.1772 12.0911C11.9136 12.114 11.6501 12.1026 11.3808 12.0968C10.9912 12.0854 10.6933 11.7932 10.6876 11.4208C10.6819 11.0369 10.9798 10.7333 11.3808 10.7276C11.7933 10.7218 12.223 10.6817 12.624 10.7562C13.5923 10.9338 14.1251 11.6041 14.3714 12.5036C14.5662 13.1968 14.6923 13.9073 14.8527 14.6119C14.8699 14.6864 14.8928 14.7609 14.91 14.8468C15.0016 14.8468 15.0876 14.8468 15.1735 14.8468C20.2897 14.8468 25.4001 14.8468 30.5162 14.8468C30.7855 14.8468 31.0147 14.9099 31.1751 15.1276C31.3069 15.3109 31.3355 15.5172 31.2782 15.7406C30.7339 17.9062 30.1782 20.0718 29.6569 22.2432C29.485 22.9593 29.1813 23.5724 28.5683 24.0021C28.1272 24.3114 27.6402 24.4604 27.0959 24.4604C23.7787 24.4604 20.4615 24.4604 17.1444 24.4604C17.0584 24.4604 16.9725 24.4604 16.8751 24.4604C16.8751 24.7411 16.8522 25.0047 16.8808 25.2625C16.9152 25.5776 17.2016 25.8125 17.5167 25.8297C17.597 25.8354 17.6714 25.8297 17.7516 25.8297C21.9912 25.8297 26.2308 25.8297 30.4761 25.8297C30.5678 25.8297 30.6652 25.8239 30.7569 25.8411C31.1006 25.9099 31.3412 26.2307 31.3069 26.5802C31.2725 26.9239 30.986 27.1989 30.6251 27.1989C29.9089 27.2047 29.1928 27.1989 28.4766 27.1989C28.3964 27.1989 28.322 27.1989 28.236 27.2104C28.7917 27.3422 29.2558 27.6229 29.5766 28.1041C29.8975 28.5739 30.0006 29.0953 29.8975 29.6567C29.7199 30.6021 28.8548 31.3125 27.8751 31.3182C26.8897 31.3182 26.0188 30.5963 25.847 29.6396C25.6579 28.5109 26.2308 27.6687 27.5256 27.2047ZM29.7428 16.2276C24.8902 16.2276 20.0605 16.2276 15.2251 16.2276C15.2365 16.2963 15.2423 16.3536 15.2537 16.4109C15.735 18.5593 16.2162 20.7021 16.686 22.8505C16.7261 23.0396 16.7949 23.0854 16.9782 23.0797C20.3355 23.0739 23.6985 23.0739 27.0558 23.0739C27.6803 23.0739 28.1157 22.7359 28.2647 22.1343C28.6313 20.6677 29.0037 19.201 29.3704 17.7286C29.4964 17.2359 29.6167 16.7375 29.7428 16.2276ZM18.949 29.9432C19.3214 29.9375 19.6308 29.6281 19.6251 29.2557C19.6251 28.8776 19.2985 28.5625 18.9204 28.5739C18.548 28.5854 18.2444 28.9005 18.2558 29.2729C18.2615 29.6396 18.5766 29.9432 18.949 29.9432ZM28.5683 29.2442C28.5626 28.8718 28.2532 28.5682 27.8808 28.5682C27.5084 28.5682 27.199 28.8776 27.199 29.25C27.199 29.6281 27.5199 29.9432 27.898 29.9375C28.2647 29.9317 28.574 29.6166 28.5683 29.2442Z" fill="white"/>
</g>
<defs>
<filter id="filter0_f_189_1731" x="-20.4848" y="-15.6385" width="92.6614" height="92.6615" filterUnits="userSpaceOnUse" color-interpolation-filters="sRGB">
<feFlood flood-opacity="0" result="BackgroundImageFix"/>
<feBlend mode="normal" in="SourceGraphic" in2="BackgroundImageFix" result="shape"/>
<feGaussianBlur stdDeviation="11.05" result="effect1_foregroundBlur_189_1731"/>
</filter>
<linearGradient id="paint0_linear_189_1731" x1="21" y1="0" x2="21" y2="8.07692" gradientUnits="userSpaceOnUse">
<stop stop-color="white"/>
<stop offset="1" stop-color="white" stop-opacity="0"/>
</linearGradient>
<clipPath id="clip0_189_1731">
<rect width="22" height="22" fill="white" transform="translate(10 10)"/>
</clipPath>
</defs>
</svg>
