<svg width="42" height="42" viewBox="0 0 42 42" fill="none" xmlns="http://www.w3.org/2000/svg">
<mask id="mask0_2007_992" style="mask-type:alpha" maskUnits="userSpaceOnUse" x="0" y="0" width="42" height="42">
<rect width="42" height="42" rx="11" fill="#D9D9D9"/>
</mask>
<g mask="url(#mask0_2007_992)">
<g filter="url(#filter0_f_2007_992)">
<circle cx="25.8461" cy="30.6922" r="24.2308" fill="white"/>
</g>
</g>
<rect x="0.25" y="0.25" width="41.5" height="41.5" rx="10.75" stroke="url(#paint0_linear_2007_992)" stroke-width="0.5"/>
<path d="M22.235 12.2569C22.3971 12.42 22.5254 12.6135 22.6126 12.8263C22.6998 13.0391 22.7441 13.267 22.743 13.4969V18.8849L28.66 21.4259C28.7247 21.4516 28.7829 21.4914 28.8303 21.5425C28.8777 21.5935 28.9131 21.6545 28.934 21.7209L29.453 23.2659C29.4805 23.3516 29.4848 23.443 29.4654 23.5309C29.446 23.6188 29.4037 23.6999 29.3426 23.766C29.2816 23.8321 29.2041 23.8809 29.1181 23.9072C29.032 23.9335 28.9406 23.9366 28.853 23.9159L22.753 22.3819L22.459 27.6269L23.628 28.5019V30.2499C22.7494 30.0175 21.8717 29.7815 20.995 29.5419C20.995 29.5419 19.922 29.8369 18.372 30.2499V28.5019L19.542 27.6269L19.246 22.3819L13.147 23.9169C13.0594 23.9372 12.9681 23.934 12.8822 23.9075C12.7963 23.8811 12.719 23.8324 12.6581 23.7663C12.5971 23.7003 12.5547 23.6193 12.5352 23.5316C12.5157 23.4439 12.5198 23.3526 12.547 23.2669L13.066 21.7209C13.0868 21.6545 13.1222 21.5935 13.1696 21.5425C13.217 21.4914 13.2752 21.4516 13.34 21.4259L19.257 18.8849V13.4969C19.256 13.267 19.3003 13.0391 19.3875 12.8264C19.4747 12.6136 19.6029 12.4201 19.765 12.2569C20.0941 11.9324 20.5378 11.7505 21 11.7505C21.4622 11.7505 21.9058 11.9324 22.235 12.2569Z" stroke="#7D7DFF" stroke-width="1.3" stroke-linecap="round" stroke-linejoin="round"/>
<defs>
<filter id="filter0_f_2007_992" x="-20.4846" y="-15.6386" width="92.6615" height="92.6614" filterUnits="userSpaceOnUse" color-interpolation-filters="sRGB">
<feFlood flood-opacity="0" result="BackgroundImageFix"/>
<feBlend mode="normal" in="SourceGraphic" in2="BackgroundImageFix" result="shape"/>
<feGaussianBlur stdDeviation="11.05" result="effect1_foregroundBlur_2007_992"/>
</filter>
<linearGradient id="paint0_linear_2007_992" x1="21" y1="0" x2="21" y2="8.07692" gradientUnits="userSpaceOnUse">
<stop stop-color="white"/>
<stop offset="1" stop-color="white" stop-opacity="0"/>
</linearGradient>
</defs>
</svg>
