<svg width="25" height="25" viewBox="0 0 25 25" fill="none" xmlns="http://www.w3.org/2000/svg">
<mask id="mask0_586_45265" style="mask-type:alpha" maskUnits="userSpaceOnUse" x="0" y="0" width="25" height="25">
<rect x="0.808594" y="0.550293" width="23.94" height="23.94" rx="6.27" fill="#D9D9D9"/>
</mask>
<g mask="url(#mask0_586_45265)">
<g filter="url(#filter0_f_586_45265)">
<ellipse cx="15.542" cy="18.0444" rx="13.8116" ry="13.8115" fill="black"/>
</g>
</g>
<rect x="0.931563" y="0.692793" width="23.655" height="23.655" rx="6.1275" stroke="url(#paint0_linear_586_45265)" stroke-width="0.285"/>
<g clip-path="url(#clip0_586_45265)">
<path fill-rule="evenodd" clip-rule="evenodd" d="M12.7427 12.5211C13.8103 12.5211 14.7776 12.8745 15.4872 13.3687C16.1615 13.839 16.7327 14.5378 16.7327 15.2896C16.7327 15.7023 16.5565 16.0443 16.2789 16.2985C16.0179 16.5385 15.677 16.6941 15.3259 16.8001C14.6242 17.0127 13.7003 17.0811 12.7427 17.0811C11.7851 17.0811 10.8611 17.0127 10.1594 16.8001C9.8083 16.6941 9.46744 16.5385 9.20581 16.2985C8.92936 16.0449 8.75266 15.7029 8.75266 15.2902C8.75266 14.5383 9.3238 13.8395 9.99811 13.3693C10.7078 12.8745 11.6751 12.5211 12.7427 12.5211ZM12.7427 13.6611C11.9219 13.6611 11.1792 13.9347 10.6508 14.3035C10.087 14.6968 9.89266 15.0969 9.89266 15.2896C9.89266 15.4629 10.0933 15.5712 10.2757 15.6396L10.3926 15.6795L10.4895 15.7091C11.0253 15.871 11.8119 15.9411 12.7427 15.9411C13.6022 15.9411 14.3381 15.8813 14.8676 15.745L15.0409 15.6954L15.1492 15.6612C15.3447 15.5946 15.5927 15.4823 15.5927 15.2896C15.5927 15.0969 15.3983 14.6968 14.8346 14.3035C14.3067 13.9353 13.5635 13.6611 12.7427 13.6611ZM16.7327 13.0911C17.3277 13.0911 17.8681 13.2878 18.2677 13.5659C18.6325 13.8207 19.0127 14.2442 19.0127 14.7606C19.0127 15.5216 18.2734 15.7941 17.6088 15.8892L17.4378 15.9103L17.273 15.9246L17.1944 15.9291C17.2639 15.7325 17.3027 15.5187 17.3027 15.2896C17.3019 15.1156 17.2816 14.9468 17.2417 14.7834C17.4617 14.7663 17.6424 14.7378 17.7769 14.6974C17.8362 14.6791 17.7826 14.6233 17.7199 14.5748L17.6589 14.5304L17.6156 14.5013C17.4445 14.3845 17.2516 14.3035 17.0484 14.263C16.8318 13.8298 16.499 13.4548 16.1444 13.1555C16.3376 13.1128 16.5348 13.0913 16.7327 13.0911ZM8.75266 13.0911C8.95672 13.0919 9.1528 13.1133 9.3409 13.1555C8.98636 13.4548 8.65348 13.8298 8.43688 14.263C8.23372 14.3035 8.04082 14.3845 7.86973 14.5013L7.79677 14.5515C7.72438 14.6039 7.63945 14.6769 7.70842 14.6974C7.84294 14.7378 8.02363 14.7669 8.24422 14.7834C8.20318 14.9472 8.18266 15.1159 8.18266 15.2896C8.18266 15.5187 8.22142 15.7325 8.29096 15.9291L8.13136 15.9177L7.96264 15.9006C7.2775 15.8169 6.47266 15.5547 6.47266 14.7606C6.47266 14.2448 6.85228 13.8207 7.21765 13.5659C7.66964 13.2563 8.20478 13.0908 8.75266 13.0911ZM16.4477 9.67111C16.8256 9.67111 17.1881 9.82125 17.4553 10.0885C17.7225 10.3557 17.8727 10.7182 17.8727 11.0961C17.8727 11.474 17.7225 11.8365 17.4553 12.1037C17.1881 12.371 16.8256 12.5211 16.4477 12.5211C16.0697 12.5211 15.7073 12.371 15.44 12.1037C15.1728 11.8365 15.0227 11.474 15.0227 11.0961C15.0227 10.7182 15.1728 10.3557 15.44 10.0885C15.7073 9.82125 16.0697 9.67111 16.4477 9.67111ZM9.03766 9.67111C9.41559 9.67111 9.77805 9.82125 10.0453 10.0885C10.3125 10.3557 10.4627 10.7182 10.4627 11.0961C10.4627 11.474 10.3125 11.8365 10.0453 12.1037C9.77805 12.371 9.41559 12.5211 9.03766 12.5211C8.65972 12.5211 8.29727 12.371 8.03003 12.1037C7.76279 11.8365 7.61266 11.474 7.61266 11.0961C7.61266 10.7182 7.76279 10.3557 8.03003 10.0885C8.29727 9.82125 8.65972 9.67111 9.03766 9.67111ZM12.7427 7.39111C13.3474 7.39111 13.9273 7.63133 14.3549 8.05891C14.7825 8.48649 15.0227 9.06642 15.0227 9.67111C15.0227 10.2758 14.7825 10.8557 14.3549 11.2833C13.9273 11.7109 13.3474 11.9511 12.7427 11.9511C12.138 11.9511 11.558 11.7109 11.1305 11.2833C10.7029 10.8557 10.4627 10.2758 10.4627 9.67111C10.4627 9.06642 10.7029 8.48649 11.1305 8.05891C11.558 7.63133 12.138 7.39111 12.7427 7.39111ZM16.4477 10.8111C16.3721 10.8111 16.2996 10.8411 16.2461 10.8946C16.1927 10.948 16.1627 11.0205 16.1627 11.0961C16.1627 11.1717 16.1927 11.2442 16.2461 11.2976C16.2996 11.3511 16.3721 11.3811 16.4477 11.3811C16.5233 11.3811 16.5957 11.3511 16.6492 11.2976C16.7026 11.2442 16.7327 11.1717 16.7327 11.0961C16.7327 11.0205 16.7026 10.948 16.6492 10.8946C16.5957 10.8411 16.5233 10.8111 16.4477 10.8111ZM9.03766 10.8111C8.96207 10.8111 8.88958 10.8411 8.83613 10.8946C8.78269 10.948 8.75266 11.0205 8.75266 11.0961C8.75266 11.1717 8.78269 11.2442 8.83613 11.2976C8.88958 11.3511 8.96207 11.3811 9.03766 11.3811C9.11325 11.3811 9.18574 11.3511 9.23918 11.2976C9.29263 11.2442 9.32266 11.1717 9.32266 11.0961C9.32266 11.0205 9.29263 10.948 9.23918 10.8946C9.18574 10.8411 9.11325 10.8111 9.03766 10.8111ZM12.7427 8.53111C12.4403 8.53111 12.1504 8.65122 11.9366 8.86501C11.7228 9.0788 11.6027 9.36877 11.6027 9.67111C11.6027 9.97346 11.7228 10.2634 11.9366 10.4772C12.1504 10.691 12.4403 10.8111 12.7427 10.8111C13.045 10.8111 13.335 10.691 13.5488 10.4772C13.7626 10.2634 13.8827 9.97346 13.8827 9.67111C13.8827 9.36877 13.7626 9.0788 13.5488 8.86501C13.335 8.65122 13.045 8.53111 12.7427 8.53111Z" fill="white"/>
</g>
<defs>
<filter id="filter0_f_586_45265" x="-10.8665" y="-8.3641" width="52.8171" height="52.8171" filterUnits="userSpaceOnUse" color-interpolation-filters="sRGB">
<feFlood flood-opacity="0" result="BackgroundImageFix"/>
<feBlend mode="normal" in="SourceGraphic" in2="BackgroundImageFix" result="shape"/>
<feGaussianBlur stdDeviation="6.2985" result="effect1_foregroundBlur_586_45265"/>
</filter>
<linearGradient id="paint0_linear_586_45265" x1="12.7591" y1="0.550293" x2="12.7591" y2="5.15414" gradientUnits="userSpaceOnUse">
<stop stop-color="white"/>
<stop offset="1" stop-color="white" stop-opacity="0"/>
</linearGradient>
<clipPath id="clip0_586_45265">
<rect width="13.68" height="13.68" fill="white" transform="translate(5.90234 5.68018)"/>
</clipPath>
</defs>
</svg>
