<svg width="42" height="42" viewBox="0 0 42 42" fill="none" xmlns="http://www.w3.org/2000/svg">
<mask id="mask0_2007_959" style="mask-type:alpha" maskUnits="userSpaceOnUse" x="0" y="0" width="42" height="42">
<rect width="42" height="42" rx="11" fill="#D9D9D9"/>
</mask>
<g mask="url(#mask0_2007_959)">
<g filter="url(#filter0_f_2007_959)">
<circle cx="25.8461" cy="30.6922" r="24.2308" fill="white"/>
</g>
</g>
<rect x="0.25" y="0.25" width="41.5" height="41.5" rx="10.75" stroke="url(#paint0_linear_2007_959)" stroke-width="0.5"/>
<g clip-path="url(#clip0_2007_959)">
<path d="M32 22.9536C31.8968 23.2573 31.8338 23.5781 31.6848 23.8588C31.1348 24.913 29.9145 25.4343 28.7744 25.125C27.6343 24.8156 26.8552 23.7786 26.8781 22.5984C26.901 21.4125 27.7145 20.4156 28.8776 20.1578C28.9348 20.1463 28.9864 20.1291 29.0437 20.1177C29.2958 18.3588 28.3218 17.1156 27.05 16.8864C26.1046 16.7203 25.102 17.2531 24.6208 18.1984C24.4145 18.6052 24.3171 19.0406 24.3229 19.4989C24.3286 21.8135 24.3229 24.1281 24.3229 26.4484C24.3229 27.7547 23.9333 28.9177 23.0854 29.9203C21.3322 31.9885 18.1526 31.9828 16.4052 29.9088C15.5572 28.9005 15.1734 27.7375 15.1734 26.4369C15.1734 26.2937 15.1677 26.1505 15.1677 26.0073C15.1562 25.9786 15.1677 25.9958 15.1677 26.0073C14.9442 25.9041 14.7265 25.8411 14.5489 25.7208C14.2109 25.4744 14.1135 25.0963 14.0906 24.701C14.0734 24.3859 14.0734 24.0708 14.0848 23.7557C14.0906 23.6067 14.039 23.5494 13.8958 23.5093C12.727 23.1656 11.7645 22.5239 11.0312 21.5442C10.3838 20.6849 10.0572 19.7109 10.0515 18.6338C10.0515 18.3989 10.0515 18.164 10.0515 17.9062C10.2921 17.9062 10.527 17.9062 10.7791 17.9062C10.7791 17.8088 10.7791 17.7286 10.7791 17.6541C10.7791 16.1932 10.7906 14.738 10.7734 13.2828C10.7619 12.3088 11.3463 11.5583 12.177 11.3578C12.2458 11.3406 12.3203 11.2661 12.3546 11.1974C12.6125 10.6989 13.1453 10.464 13.6666 10.6244C14.1651 10.7791 14.5031 11.2776 14.4401 11.7703C14.3713 12.3489 13.9416 12.7614 13.3687 12.7729C12.9447 12.7786 12.6067 12.5953 12.3947 12.2172C12.3203 12.0854 12.2515 12.0854 12.1427 12.1427C11.7531 12.3375 11.5182 12.6583 11.5125 13.0937C11.501 14.675 11.5067 16.2505 11.5067 17.8317C11.5067 17.8432 11.5182 17.8547 11.5354 17.8948C11.8791 17.8948 12.2343 17.8948 12.6182 17.8948C12.5265 19.0406 12.7328 20.0718 13.6552 20.8338C14.3026 21.3666 15.0588 21.5729 15.8895 21.5442C17.3218 21.4927 19.075 20.3869 18.8343 17.9062C19.0692 17.9062 19.2984 17.9062 19.539 17.9062C19.5447 17.826 19.5562 17.7744 19.5562 17.7172C19.5505 16.2218 19.5447 14.7323 19.5333 13.2369C19.5276 12.6468 19.264 12.2687 18.7484 12.1026C18.7197 12.1427 18.6854 12.1885 18.6625 12.2343C18.4046 12.664 17.889 12.8646 17.4192 12.7213C16.9322 12.5724 16.6229 12.1369 16.6401 11.6213C16.6572 11.1458 17.0182 10.7161 17.488 10.6187C17.975 10.5156 18.4619 10.7448 18.6968 11.1859C18.7369 11.2604 18.8057 11.3521 18.8744 11.3692C19.625 11.5468 20.2723 12.2401 20.2666 13.2656C20.2609 14.7208 20.2723 16.1817 20.2781 17.6369C20.2781 17.7114 20.2781 17.7916 20.2781 17.8833C20.5244 17.8833 20.7479 17.8833 20.9713 17.8833C21.2578 19.8083 20.2666 22.65 16.9723 23.5724C16.9723 23.9161 16.9895 24.2656 16.9666 24.6151C16.9494 24.8385 16.9036 25.0677 16.8234 25.2797C16.6916 25.6406 16.4223 25.8583 16.0328 25.927C15.9755 25.9385 15.8895 26.0244 15.8895 26.076C15.838 27.1646 16.0385 28.1901 16.6802 29.101C18.2729 31.3755 21.5442 31.238 22.9421 28.8375C23.3776 28.0869 23.5666 27.2791 23.5666 26.4198C23.5666 24.1052 23.5609 21.7906 23.5723 19.4703C23.5781 18.1698 24.1223 17.1385 25.2625 16.4911C26.6776 15.6833 28.4364 16.2047 29.2901 17.6427C29.6338 18.2156 29.7828 18.8401 29.7885 19.5047C29.7885 19.6994 29.7885 19.8885 29.7885 20.0661C30.1036 20.1922 30.4187 20.2895 30.6994 20.4442C31.3526 20.8109 31.7479 21.3724 31.914 22.1057C31.9312 22.1859 31.9598 22.2718 31.9828 22.352C32 22.5526 32 22.7531 32 22.9536ZM10.7791 18.6338C10.7791 19.3213 10.9281 19.963 11.2604 20.5474C12.1598 22.1286 13.552 22.9364 15.3395 22.9937C17.2875 23.0567 18.8171 22.2604 19.8026 20.5416C20.1406 19.9573 20.2838 19.3156 20.2838 18.6338C20.0317 18.6338 19.8026 18.6338 19.5677 18.6338C19.4875 20.6562 17.9979 22.1286 15.9755 22.2661C14.0276 22.4036 11.9364 21.0744 11.8505 18.6281C11.501 18.6338 11.1458 18.6338 10.7791 18.6338ZM29.439 24.4718C30.4416 24.4718 31.2666 23.6468 31.2723 22.65C31.2723 21.6588 30.4416 20.8224 29.4447 20.8166C28.4479 20.8109 27.6229 21.6416 27.6171 22.6442C27.6114 23.6526 28.4307 24.4718 29.439 24.4718ZM14.7838 23.7385C14.8067 24.1052 14.8125 24.489 14.8526 24.8672C14.8812 25.1135 15.013 25.2052 15.2651 25.2109C15.4427 25.2166 15.6203 25.2166 15.7979 25.2109C16.05 25.2052 16.1817 25.1192 16.2104 24.8672C16.2562 24.489 16.2619 24.1052 16.2848 23.7099C15.7864 23.7099 15.3223 23.7099 14.864 23.7099C14.8468 23.7099 14.8354 23.7213 14.7838 23.7385ZM13.3401 11.3062C13.1395 11.3062 12.9734 11.4781 12.9734 11.6729C12.9791 11.8677 13.1338 12.0224 13.3286 12.0224C13.5291 12.0224 13.6838 11.8791 13.6895 11.6786C13.701 11.4781 13.5406 11.3062 13.3401 11.3062ZM18.0895 11.6786C18.0953 11.4895 17.9406 11.3234 17.7458 11.3119C17.5453 11.3005 17.3734 11.4609 17.3677 11.6614C17.3619 11.8619 17.5109 12.0166 17.7057 12.0281C17.9119 12.0338 18.0838 11.8791 18.0895 11.6786Z" fill="#7D7DFF"/>
<path d="M29.439 23.7385C28.8318 23.7385 28.3505 23.263 28.3448 22.6557C28.339 22.0427 28.8432 21.5385 29.4448 21.55C30.0406 21.5557 30.539 22.0542 30.5333 22.65C30.5333 23.2458 30.0406 23.7328 29.439 23.7385ZM29.8 22.6557C29.8057 22.4667 29.6453 22.3005 29.4562 22.2891C29.2557 22.2776 29.0838 22.438 29.0781 22.6385C29.0724 22.8391 29.2213 22.9937 29.4161 23.0052C29.6224 23.0109 29.7943 22.8562 29.8 22.6557Z" fill="#7D7DFF"/>
</g>
<defs>
<filter id="filter0_f_2007_959" x="-20.4846" y="-15.6386" width="92.6615" height="92.6614" filterUnits="userSpaceOnUse" color-interpolation-filters="sRGB">
<feFlood flood-opacity="0" result="BackgroundImageFix"/>
<feBlend mode="normal" in="SourceGraphic" in2="BackgroundImageFix" result="shape"/>
<feGaussianBlur stdDeviation="11.05" result="effect1_foregroundBlur_2007_959"/>
</filter>
<linearGradient id="paint0_linear_2007_959" x1="21" y1="0" x2="21" y2="8.07692" gradientUnits="userSpaceOnUse">
<stop stop-color="white"/>
<stop offset="1" stop-color="white" stop-opacity="0"/>
</linearGradient>
<clipPath id="clip0_2007_959">
<rect width="22" height="22" fill="white" transform="translate(10 10)"/>
</clipPath>
</defs>
</svg>
