<svg width="42" height="42" viewBox="0 0 42 42" fill="none" xmlns="http://www.w3.org/2000/svg">
<mask id="mask0_401_926" style="mask-type:alpha" maskUnits="userSpaceOnUse" x="0" y="0" width="42" height="42">
<rect width="42" height="42" rx="11" fill="#D9D9D9"/>
</mask>
<g mask="url(#mask0_401_926)">
<g filter="url(#filter0_f_401_926)">
<circle cx="25.8461" cy="30.6922" r="24.2308" fill="white"/>
</g>
</g>
<rect x="0.25" y="0.25" width="41.5" height="41.5" rx="10.75" stroke="url(#paint0_linear_401_926)" stroke-width="0.5"/>
<path d="M30.3913 18.4105C30.3176 18.1775 30.1756 17.9721 29.9838 17.8208C29.7919 17.6696 29.559 17.5795 29.3153 17.5623L24.1376 17.1437L22.1421 12.314C22.049 12.0877 21.8908 11.8941 21.6874 11.7578C21.484 11.6216 21.2448 11.5488 21 11.5488C20.7552 11.5488 20.516 11.6216 20.3126 11.7578C20.1093 11.8941 19.951 12.0877 19.8579 12.314L17.8624 17.142L12.6847 17.5623C12.4408 17.5796 12.2077 17.67 12.0159 17.8215C11.824 17.9731 11.6821 18.1789 11.6088 18.4122C11.5323 18.6448 11.5264 18.8949 11.5919 19.1309C11.6573 19.3669 11.7912 19.5782 11.9766 19.7382L15.9297 23.1422L14.7266 28.234C14.6701 28.4723 14.6856 28.7219 14.7712 28.9514C14.8567 29.1809 15.0083 29.3798 15.207 29.523C15.4031 29.6684 15.6387 29.7511 15.8826 29.7603C16.1266 29.7695 16.3677 29.7048 16.5742 29.5746L21 26.8538L25.4327 29.5789C25.6392 29.709 25.8803 29.7738 26.1243 29.7646C26.3683 29.7554 26.6038 29.6727 26.7999 29.5273C26.9986 29.3841 27.1502 29.1852 27.2358 28.9557C27.3213 28.7262 27.3368 28.4766 27.2803 28.2383L26.0772 23.1465L30.0235 19.7382C30.2092 19.578 30.3432 19.3664 30.4087 19.1301C30.4742 18.8938 30.4681 18.6433 30.3913 18.4105ZM29.348 18.9579L25.1637 22.5673C25.0923 22.6289 25.0392 22.7089 25.0101 22.7986C24.981 22.8883 24.977 22.9842 24.9987 23.076L26.2774 28.472C26.2886 28.5127 26.2868 28.556 26.2721 28.5956C26.2575 28.6352 26.2308 28.6692 26.1958 28.6929C26.1641 28.7174 26.1255 28.7314 26.0855 28.7329C26.0454 28.7345 26.0059 28.7235 25.9724 28.7015L21.2699 25.8123C21.1887 25.7624 21.0953 25.736 21 25.736C20.9048 25.736 20.8114 25.7624 20.7302 25.8123L16.0277 28.7006C15.9942 28.7226 15.9546 28.7336 15.9146 28.7321C15.8745 28.7305 15.8359 28.7165 15.8042 28.692C15.7685 28.669 15.7409 28.6352 15.7255 28.5955C15.71 28.5559 15.7075 28.5123 15.7183 28.4712L16.997 23.0751C17.0187 22.9834 17.0148 22.8874 16.9857 22.7977C16.9566 22.708 16.9034 22.628 16.832 22.5664L12.6478 18.957C12.6149 18.9303 12.5912 18.894 12.58 18.8532C12.5688 18.8124 12.5705 18.7691 12.585 18.7293C12.5962 18.6901 12.6194 18.6553 12.6513 18.6299C12.6832 18.6045 12.7222 18.5897 12.7629 18.5875L18.256 18.1441C18.3507 18.1364 18.4414 18.1027 18.5181 18.0467C18.5948 17.9908 18.6546 17.9147 18.6909 17.8269L20.8075 12.7051C20.8223 12.6672 20.8481 12.6346 20.8817 12.6116C20.9153 12.5886 20.955 12.5764 20.9957 12.5764C21.0364 12.5764 21.0761 12.5886 21.1097 12.6116C21.1433 12.6346 21.1692 12.6672 21.1839 12.7051L23.3006 17.8269C23.3368 17.9147 23.3966 17.9908 23.4733 18.0467C23.5501 18.1027 23.6408 18.1364 23.7354 18.1441L29.2285 18.5875C29.2693 18.5897 29.3083 18.6045 29.3402 18.6299C29.372 18.6553 29.3952 18.6901 29.4064 18.7293C29.4216 18.7687 29.4241 18.8119 29.4137 18.8529C29.4032 18.8939 29.3802 18.9306 29.348 18.9579Z" fill="#7D7DFF"/>
<defs>
<filter id="filter0_f_401_926" x="-20.4846" y="-15.6386" width="92.6615" height="92.6614" filterUnits="userSpaceOnUse" color-interpolation-filters="sRGB">
<feFlood flood-opacity="0" result="BackgroundImageFix"/>
<feBlend mode="normal" in="SourceGraphic" in2="BackgroundImageFix" result="shape"/>
<feGaussianBlur stdDeviation="11.05" result="effect1_foregroundBlur_401_926"/>
</filter>
<linearGradient id="paint0_linear_401_926" x1="21" y1="0" x2="21" y2="8.07692" gradientUnits="userSpaceOnUse">
<stop stop-color="white"/>
<stop offset="1" stop-color="white" stop-opacity="0"/>
</linearGradient>
</defs>
</svg>
