<svg width="25" height="25" viewBox="0 0 25 25" fill="none" xmlns="http://www.w3.org/2000/svg">
<mask id="mask0_586_45282" style="mask-type:alpha" maskUnits="userSpaceOnUse" x="0" y="0" width="25" height="25">
<rect x="0.316406" y="0.550293" width="23.94" height="23.94" rx="6.27" fill="#D9D9D9"/>
</mask>
<g mask="url(#mask0_586_45282)">
<g filter="url(#filter0_f_586_45282)">
<ellipse cx="15.0498" cy="18.0444" rx="13.8116" ry="13.8115" fill="black"/>
</g>
</g>
<rect x="0.455" y="0.692793" width="23.655" height="23.655" rx="6.1275" stroke="url(#paint0_linear_586_45282)" stroke-width="0.285"/>
<path d="M10.2273 14.5724C10.4087 14.5724 10.5827 14.5004 10.711 14.3721C10.8393 14.2438 10.9113 14.0698 10.9113 13.8884C10.9113 13.707 10.8393 13.533 10.711 13.4048C10.5827 13.2765 10.4087 13.2044 10.2273 13.2044C10.0459 13.2044 9.87194 13.2765 9.74367 13.4048C9.61539 13.533 9.54333 13.707 9.54333 13.8884C9.54333 14.0698 9.61539 14.2438 9.74367 14.3721C9.87194 14.5004 10.0459 14.5724 10.2273 14.5724ZM12.9633 13.8884C12.9633 14.0698 12.8913 14.2438 12.763 14.3721C12.6347 14.5004 12.4607 14.5724 12.2793 14.5724C12.0979 14.5724 11.9239 14.5004 11.7957 14.3721C11.6674 14.2438 11.5953 14.0698 11.5953 13.8884C11.5953 13.707 11.6674 13.533 11.7957 13.4048C11.9239 13.2765 12.0979 13.2044 12.2793 13.2044C12.4607 13.2044 12.6347 13.2765 12.763 13.4048C12.8913 13.533 12.9633 13.707 12.9633 13.8884ZM14.3313 14.5724C14.5127 14.5724 14.6867 14.5004 14.815 14.3721C14.9433 14.2438 15.0153 14.0698 15.0153 13.8884C15.0153 13.707 14.9433 13.533 14.815 13.4048C14.6867 13.2765 14.5127 13.2044 14.3313 13.2044C14.1499 13.2044 13.9759 13.2765 13.8477 13.4048C13.7194 13.533 13.6473 13.707 13.6473 13.8884C13.6473 14.0698 13.7194 14.2438 13.8477 14.3721C13.9759 14.5004 14.1499 14.5724 14.3313 14.5724ZM8.17533 7.93283C8.30357 7.80455 8.47752 7.73246 8.65892 7.73242H15.8997C16.0811 7.73246 16.2551 7.80455 16.3833 7.93283L18.1905 9.73928C18.7117 10.2612 18.3423 11.1524 17.605 11.1524H17.0673V15.9404C17.0673 16.3032 16.9232 16.6512 16.6667 16.9077C16.4101 17.1643 16.0622 17.3084 15.6993 17.3084H8.85933C8.49651 17.3084 8.14855 17.1643 7.892 16.9077C7.63545 16.6512 7.49133 16.3032 7.49133 15.9404V11.1524H6.9537C6.21635 11.1524 5.84767 10.2612 6.36957 9.73928L8.17533 7.93283ZM16.3833 15.9404V11.1524H8.17533V15.9404C8.17533 16.1218 8.24739 16.2958 8.37567 16.4241C8.50394 16.5524 8.67792 16.6244 8.85933 16.6244H15.6993C15.8807 16.6244 16.0547 16.5524 16.183 16.4241C16.3113 16.2958 16.3833 16.1218 16.3833 15.9404ZM17.605 10.4684C17.6333 10.4684 17.6611 10.46 17.6847 10.4443C17.7083 10.4285 17.7267 10.4062 17.7376 10.38C17.7485 10.3538 17.7514 10.325 17.7459 10.2971C17.7405 10.2693 17.7269 10.2437 17.7069 10.2236L15.8997 8.41642H8.65892L6.85247 10.2236C6.83252 10.2436 6.81894 10.2692 6.81346 10.2969C6.80797 10.3247 6.81081 10.3535 6.82163 10.3797C6.83245 10.4058 6.85075 10.4282 6.87425 10.444C6.89775 10.4598 6.92539 10.4683 6.9537 10.4684H17.605Z" fill="white"/>
<defs>
<filter id="filter0_f_586_45282" x="-11.3587" y="-8.3641" width="52.8171" height="52.8171" filterUnits="userSpaceOnUse" color-interpolation-filters="sRGB">
<feFlood flood-opacity="0" result="BackgroundImageFix"/>
<feBlend mode="normal" in="SourceGraphic" in2="BackgroundImageFix" result="shape"/>
<feGaussianBlur stdDeviation="6.2985" result="effect1_foregroundBlur_586_45282"/>
</filter>
<linearGradient id="paint0_linear_586_45282" x1="12.2825" y1="0.550293" x2="12.2825" y2="5.15414" gradientUnits="userSpaceOnUse">
<stop stop-color="white"/>
<stop offset="1" stop-color="white" stop-opacity="0"/>
</linearGradient>
</defs>
</svg>
