<svg width="100" height="100" viewBox="0 0 100 100" fill="none" xmlns="http://www.w3.org/2000/svg">
<path d="M46.9357 38.6656C47.916 38.7048 48.8964 38.6656 50.112 38.6656C49.0728 41.8419 48.1121 44.8222 47.1317 47.8417C44.7789 46.2143 42.8966 46.0771 41.3869 47.2927C39.7791 48.5868 39.485 50.4887 40.5438 52.9592C41.779 55.8806 42.9946 58.8021 44.3083 61.7039C45.5828 64.547 48.4258 65.2332 50.8571 63.2725C53.5433 61.1353 56.1706 58.9197 58.798 56.6845C60.3273 55.3904 60.8175 53.567 60.1705 51.92C59.543 50.2926 57.9745 49.3711 55.9157 49.4103C55.7196 49.4103 55.5432 49.3907 55.2491 49.3711C55.3667 48.9397 55.4648 48.5868 55.5628 48.2535C56.8569 44.2536 58.1705 40.2538 59.4254 36.2343C60.445 32.9795 58.7195 30.6463 55.3079 30.5482C54.3864 30.5286 53.4648 30.5482 52.308 30.5482C52.4845 29.862 52.6021 29.3718 52.759 28.9012C54.0923 24.7445 55.4255 20.5878 56.7588 16.4311C57.8176 13.1371 57.2686 11.7058 54.3471 10C53.6217 10 52.8962 10 52.1512 10C50.7198 10.7451 49.6807 11.7646 49.1709 13.3724C47.1121 19.9212 44.9553 26.4307 42.8966 32.9795C41.9162 36.1167 43.6417 38.5087 46.9357 38.6656ZM45.1514 33.6462C47.2494 27.0778 49.3866 20.5094 51.4845 13.9214C51.8767 12.7254 52.6413 12.1568 53.8374 12.5293C55.0334 12.9215 55.1118 13.8822 54.7589 14.941C53.1119 20.0388 51.4845 25.1367 49.8571 30.2345C49.1513 32.4501 49.4258 32.8423 51.7002 32.8423C52.8962 32.8423 54.0923 32.8031 55.2883 32.8619C57.0529 32.9403 57.7 33.8814 57.1706 35.5677C55.5628 40.6263 53.9158 45.6457 52.2884 50.7043C52.1512 51.0965 51.9159 51.4886 51.9159 51.8808C51.9355 52.4102 51.9943 53.1356 52.3276 53.3709C52.6413 53.6062 53.3864 53.4493 53.8374 53.2337C54.3864 52.9788 54.7981 52.2533 55.3275 52.1553C56.0922 52.0376 57.1314 52.0376 57.6608 52.469C58.445 53.116 58.1705 54.1356 57.3863 54.7826C54.6805 57.057 51.9747 59.3511 49.2101 61.5471C48.1121 62.4098 46.9945 62.0765 46.4259 60.7628C45.0338 57.6256 43.7201 54.4689 42.3868 51.3122C41.9555 50.273 42.1907 49.4299 43.2103 48.9593C44.2887 48.4691 44.9946 49.0573 45.524 49.9397C45.5436 49.9789 45.5632 50.0377 45.5828 50.0769C46.171 50.7828 46.7592 51.5082 47.3474 52.2141C47.8964 51.4102 48.6415 50.6847 48.9356 49.8024C50.1904 46.1751 51.3277 42.489 52.5041 38.842C52.6217 38.4499 52.7394 38.0578 52.9943 37.2147C52.4453 36.9206 51.8963 36.3912 51.2884 36.3127C49.8963 36.1755 48.4846 36.2931 47.0729 36.2539C45.2887 36.2343 44.6024 35.352 45.1514 33.6462Z" fill="white"/>
<path d="M88.5804 48.4887C88.5608 46.9986 87.7373 46.3319 86.306 46.3319C85.11 46.3319 83.9139 46.3907 82.7179 46.2927C82.3258 46.2535 81.7179 45.9006 81.6003 45.5672C81.0905 43.9399 80.718 42.2733 80.2866 40.587C81.5415 39.8616 82.7571 39.1557 83.9532 38.4499C85.5609 37.4891 85.7766 36.7244 84.8943 35.1363C83.9336 33.4108 82.9336 31.705 81.9336 29.9992C81.0121 28.4306 80.3062 28.2542 78.7377 29.1169C77.4436 29.8424 76.1495 30.5874 75.1888 31.156C73.6202 29.6267 72.2477 28.2934 70.8164 26.9013C71.5027 25.7249 72.2477 24.4112 72.9928 23.1171C73.6986 21.9015 73.4438 20.9211 72.2477 20.2153C70.3654 19.0977 68.4636 18.0193 66.5813 16.9409C65.4244 16.2742 64.4833 16.5095 63.7971 17.6663C63.15 18.7447 62.601 19.8623 61.8756 20.8819C61.6207 21.2348 60.9148 21.6074 60.5815 21.4897C59.0521 20.9603 58.3071 21.627 57.8953 22.9799C57.6992 23.6269 57.464 24.2543 57.2679 24.9014C56.6993 26.7444 56.9346 27.2738 58.6208 28.1365C61.0129 29.3522 62.4246 31.2345 62.8167 33.9402C62.9343 34.7441 63.3265 35.6853 63.9147 36.2343C67.6008 39.7243 69.9341 43.881 70.6595 48.9397C70.7772 49.7436 71.0321 50.5867 72.0909 50.4102C73.2477 50.2141 73.13 49.3122 72.9928 48.4495C72.1693 43.234 69.8949 38.7832 66.0911 35.1167C65.7382 34.7637 65.248 34.3324 65.2088 33.901C64.7578 30.1757 62.7971 27.5483 59.4639 25.8425C59.6992 25.1367 59.8952 24.5288 60.1109 23.921C62.4834 24.4112 62.6402 24.3328 63.8363 22.2936C64.4441 21.2348 65.0715 20.1957 65.6989 19.0977C67.5224 20.1564 69.1498 21.1172 70.8752 22.1368C70.0713 23.5289 69.4243 24.7641 68.6792 25.9601C67.9342 27.1366 68.1694 28.0581 69.1498 28.9796C70.4831 30.2149 71.7968 31.4894 73.0124 32.8422C73.9731 33.9206 74.9339 34.0971 76.1691 33.352C77.3848 32.607 78.6592 31.9403 79.9729 31.1952C81.0121 32.9991 81.9532 34.6461 82.9532 36.3715C81.5611 37.1754 80.3062 37.9009 79.0514 38.6263C77.9534 39.2538 77.6201 40.1165 78.0122 41.3909C78.5612 43.1752 79.0122 44.9986 79.4435 46.8221C79.7572 48.1358 80.4631 48.8024 81.8356 48.7632C83.2669 48.724 84.7178 48.7632 86.1688 48.7632C86.1688 50.8612 86.1688 52.7434 86.1688 54.763C84.6786 54.763 83.2865 54.8022 81.8748 54.7434C80.5023 54.7042 79.7572 55.2924 79.4239 56.6257C78.973 58.4883 78.5024 60.351 77.9534 62.1941C77.6005 63.3705 77.8946 64.2136 78.973 64.8214C80.267 65.5469 81.5611 66.3312 82.9336 67.1351C81.8944 68.9389 80.9141 70.6251 79.9337 72.3309C78.522 71.5271 77.3064 70.8408 76.1103 70.1153C74.9535 69.4291 74.0124 69.5467 73.0712 70.5859C71.8948 71.8996 70.6595 73.174 69.3263 74.3505C68.1302 75.3897 67.9538 76.4288 68.7773 77.7621C69.5027 78.9189 70.1498 80.1542 70.8556 81.409C69.0322 82.4678 67.4244 83.409 65.6793 84.4089C64.9343 83.1148 64.15 81.8992 63.4833 80.6247C62.8363 79.3895 61.9148 79.115 60.6207 79.4875C58.8365 80.0365 57.0326 80.5659 55.2091 80.9581C53.8367 81.2522 53.268 81.9972 53.3073 83.3501C53.3465 84.7422 53.3073 86.1343 53.3073 87.6049C51.2093 87.6049 49.327 87.6049 47.2487 87.6049C47.2487 86.0559 47.2291 84.605 47.2487 83.1541C47.2683 81.9188 46.6801 81.2522 45.4644 80.9777C43.641 80.5463 41.8371 80.0954 40.0529 79.5464C38.6215 79.0954 37.6608 79.4483 36.9745 80.8012C36.3471 82.0169 35.602 83.1933 34.8962 84.4089C33.0727 83.3305 31.4257 82.3894 29.7199 81.3894C30.5042 80.0365 31.1512 78.8601 31.8375 77.7033C32.5041 76.5661 32.5041 75.6445 31.4257 74.6838C30.0336 73.4289 28.72 72.0957 27.4651 70.7036C26.4847 69.6252 25.524 69.4879 24.3084 70.2526C23.1319 70.9781 21.9163 71.6251 20.6418 72.3505C19.6027 70.4683 18.6419 68.8213 17.6419 67.0762C19.0144 66.2724 20.2693 65.5469 21.5241 64.8214C22.5829 64.2136 22.8966 63.4097 22.5241 62.1941C21.9555 60.3706 21.4261 58.5079 21.034 56.6257C20.7203 55.1747 19.9164 54.6453 18.5047 54.6845C17.1714 54.7238 15.8185 54.7042 14.4264 54.7042C14.4264 52.6454 14.4264 50.7435 14.4264 48.7044C15.8969 48.7044 17.3086 48.6848 18.7007 48.7044C19.9752 48.724 20.7203 48.175 21.0144 46.8809C21.4457 45.0182 21.9359 43.136 22.5241 41.3125C22.9555 39.9596 22.5437 39.1165 21.3869 38.4695C20.1713 37.8028 18.9752 37.0774 17.6616 36.3323C18.7007 34.5285 19.6811 32.8422 20.681 31.1364C22.0535 31.9207 23.2496 32.5481 24.3868 33.2736C25.622 34.0579 26.5632 33.803 27.5239 32.7442C28.7396 31.3913 30.014 30.0776 31.3865 28.8816C32.4257 27.9601 32.6022 27.0385 31.8963 25.8817C31.1708 24.6465 30.4846 23.3916 29.7591 22.0779C31.5826 21.0192 33.21 20.078 34.7197 19.2153C36.7393 20.7251 36.3275 24.4112 40.0921 24.1367C39.2098 26.9405 38.3863 29.6267 37.5039 32.2736C37.3667 32.6658 36.9353 32.9795 36.6216 33.3128C34.8962 35.0971 32.8571 36.6852 31.465 38.7048C23.5437 50.1749 27.6416 66.0567 40.1509 72.2525C42.2489 73.2917 44.6605 73.7623 46.9742 74.3309C47.4055 74.4289 48.0133 73.8015 48.5231 73.5074C48.1506 73.0368 47.8173 72.527 47.3859 72.1349C47.1898 71.9584 46.7977 71.9584 46.484 71.8996C40.6999 70.8212 36.2687 67.7429 33.0139 62.8607C27.7004 54.861 28.8768 43.1752 35.9942 37.0382C38.4843 34.8814 40.1901 32.5677 40.8371 29.3914C40.9156 28.9796 41.0724 28.5875 41.2097 28.1954C41.7391 26.568 42.3273 24.9406 42.7586 23.2936C43.2096 21.6074 42.3077 20.8035 40.6215 21.2348C40.1313 21.3525 39.6411 21.4897 39.1117 21.627C38.7196 20.9603 38.3863 20.3917 38.0529 19.8035C37.6804 19.1761 37.3275 18.5291 36.9549 17.9212C35.9942 16.3527 35.3275 16.1566 33.759 17.0389C31.9943 18.0389 30.2297 19.0388 28.4847 20.078C27.0337 20.9407 26.8377 21.725 27.6416 23.1759C28.3474 24.4504 29.0925 25.7053 29.6807 26.7444C28.2102 28.2542 26.8181 29.6463 25.3671 31.1168C24.2495 30.4894 23.0143 29.7443 21.7398 29.0385C20.3085 28.2542 19.5634 28.4306 18.7399 29.7835C17.6616 31.5678 16.6224 33.3716 15.6224 35.1951C14.7793 36.7048 15.0342 37.4891 16.5636 38.4107C17.7596 39.1361 18.9752 39.8224 20.2105 40.5282C19.6615 42.5085 19.1517 44.3908 18.6419 46.3319C17.0733 46.3319 15.6224 46.3123 14.1715 46.3319C12.7794 46.3515 12.0343 47.0574 12.0147 48.4495C11.9951 50.6455 11.9951 52.8219 12.0147 55.0179C12.0343 56.3315 12.7402 57.0374 14.0538 57.0766C15.093 57.1158 16.1518 57.1747 17.1714 57.0766C18.4262 56.9394 18.9164 57.4295 19.0929 58.6452C19.3085 60.0569 20.3673 61.7039 19.9164 62.7823C19.4654 63.8607 17.6223 64.3705 16.3675 65.1155C15.0734 65.8802 14.8577 66.8802 15.5832 68.135C16.6224 69.9389 17.6419 71.7623 18.7007 73.5466C19.5438 74.9779 20.3281 75.1544 21.8183 74.3505C23.0927 73.6446 24.328 72.9192 25.622 72.1741C26.0338 72.6054 26.4063 72.978 26.7592 73.3505C27.7592 74.3897 29.4258 75.37 29.5631 76.5073C29.7003 77.6837 28.3278 79.017 27.6416 80.2914C26.8965 81.6835 27.1122 82.4678 28.4651 83.2717C30.2885 84.3697 32.1512 85.4089 33.9943 86.4873C35.2295 87.1931 36.1707 86.8794 36.8765 85.6834C37.4843 84.6442 38.0333 83.5854 38.7 82.5855C38.9353 82.2521 39.5235 81.86 39.8568 81.9384C41.5626 82.311 43.2292 82.8403 44.9938 83.3305C44.9938 84.8403 44.9742 86.3108 44.9938 87.7617C45.0135 89.3499 45.5821 89.9381 47.1506 89.9773C49.229 90.0165 51.3073 89.9969 53.4053 89.9773C55.0719 89.9577 55.6405 89.3891 55.6601 87.7029C55.6797 86.2128 55.6601 84.703 55.6601 83.2913C57.4051 82.8011 58.9541 82.2914 60.5227 81.9776C60.954 81.8992 61.6795 82.2325 61.954 82.6051C62.6598 83.5658 63.1892 84.6442 63.7971 85.6834C64.5029 86.8794 65.4637 87.1735 66.6989 86.4677C68.542 85.3893 70.4047 84.3501 72.2281 83.2521C73.6006 82.4286 73.7967 81.6443 73.032 80.2718C72.3065 78.9581 71.5419 77.6641 70.738 76.2916C71.5026 75.5661 72.2477 74.9191 72.934 74.2132C73.6202 73.527 74.2673 72.8015 74.9339 72.076C76.3848 72.8995 77.6789 73.6446 78.9926 74.3897C80.2082 75.0759 81.1886 74.8603 81.8944 73.625C82.9336 71.8212 83.9924 70.0369 85.0119 68.2135C85.8943 66.6449 85.6786 65.9194 84.1492 64.9979C82.8748 64.2332 81.5807 63.5077 80.3651 62.8019C80.816 61.0765 81.1493 59.5471 81.6395 58.0962C81.7768 57.6648 82.4042 57.1747 82.8356 57.1158C84.012 56.9786 85.2276 57.0766 86.4237 57.057C87.8746 57.057 88.6589 56.3315 88.6589 54.861C88.6 52.7434 88.6 50.6063 88.5804 48.4887Z" fill="white"/>
<path d="M51.8765 73.5466C51.8373 73.8603 52.5823 74.2916 52.798 74.4877C53.6019 74.3897 54.0333 74.3701 54.4254 74.272C63.3466 72.2329 69.366 66.939 72.2483 58.1942C72.562 57.2139 72.8365 56.1747 72.8953 55.1551C72.9149 54.7042 72.3463 54.214 72.0326 53.7434C71.5816 54.0767 70.9934 54.312 70.6993 54.7434C70.4052 55.1943 70.4052 55.8414 70.2876 56.3904C68.9739 61.9196 65.9544 66.3312 61.033 69.0958C58.5625 70.4879 55.6411 71.0957 52.9549 72.1741C52.4647 72.3702 51.9549 73.0368 51.8765 73.5466Z" fill="white"/>
</svg>
