<svg width="100" height="100" viewBox="0 0 100 100" fill="none" xmlns="http://www.w3.org/2000/svg">
<path d="M63.0734 42.8033C52.0003 44.2866 43.476 53.2914 42.5776 64.4482C41.6792 75.5631 48.8663 85.9469 59.6679 89.039C61.005 89.4151 62.384 89.6867 63.742 90.0001C65.4134 90.0001 67.0639 90.0001 68.7354 90.0001C70.4904 89.5613 72.308 89.2897 73.9795 88.6629C82.7753 85.3619 88.0194 79.0731 89.6699 69.8176C89.7326 69.4624 89.858 69.1282 89.9624 68.773C89.9624 66.9971 89.9624 65.2421 89.9624 63.4662C89.858 63.1737 89.7117 62.9021 89.6699 62.6096C87.6642 49.8232 75.9434 41.09 63.0734 42.8033ZM66.1029 87.5138C54.3193 87.4302 44.9176 77.7987 45.0221 65.9942C45.1265 54.3361 54.7581 44.9761 66.5416 45.0597C78.158 45.1432 87.5598 54.8166 87.4553 66.5792C87.3717 78.1538 77.7402 87.5974 66.1029 87.5138Z" fill="white"/>
<path d="M89.0416 23.2475C86.4718 19.2152 83.9229 15.1829 81.3322 11.1506C80.392 9.68809 79.5772 9.68809 78.637 11.1506C75.921 15.3918 73.2049 19.6539 70.5098 23.9161C69.5278 25.483 70.0083 26.2979 71.9096 26.3396C72.8915 26.3605 73.8526 26.3396 74.9808 26.3396C74.9808 26.9873 74.9808 27.5096 74.9808 28.0111C74.9808 32.0225 74.9808 36.013 74.9808 40.0244C74.9808 40.9646 75.0226 41.9257 76.2553 41.9048C77.4879 41.8839 77.4879 40.9019 77.4879 39.9617C77.4879 35.6369 77.4879 31.333 77.4879 27.0082C77.4879 24.4593 78.0312 23.6445 74.3331 23.8116C74.166 23.8116 73.978 23.7489 73.6019 23.7071C75.7538 20.3225 77.8013 17.105 79.9951 13.6786C82.1888 17.1259 84.2572 20.3643 86.4509 23.8325C85.3854 23.8325 84.5915 23.6445 83.9647 23.8952C83.3797 24.125 82.5649 24.8145 82.544 25.295C82.4604 31.8553 82.4604 38.3948 82.5231 44.9551C82.5231 45.4147 83.2543 45.8744 83.6513 46.3131C84.0901 45.8535 84.5915 45.4356 84.9258 44.8924C85.0929 44.6417 84.9676 44.1821 84.9676 43.8269C84.9676 38.5828 84.9676 33.3178 84.9676 28.0737C84.9676 27.5305 84.9676 26.9664 84.9676 26.653C86.7852 26.2979 88.3731 26.0054 89.9609 25.692C89.9609 25.2741 89.9609 24.8562 89.9609 24.4384C89.6684 24.0414 89.3133 23.6654 89.0416 23.2475Z" fill="white"/>
<path d="M38.8373 67.6029C36.7898 67.9581 36.2883 66.621 35.8078 65.1376C35.4944 64.1974 35.1183 63.2781 34.7005 62.4006C34.4916 61.9619 34.1991 61.3978 33.8021 61.2097C31.1278 60.0397 28.5998 58.6817 25.5077 60.6038C23.0841 62.1081 22.8961 61.8156 20.9113 59.789C18.2997 57.1565 18.3206 57.1774 19.7622 53.7092C20.1591 52.7691 20.9948 51.5573 20.6814 50.8469C19.6995 48.4442 19.4697 45.561 16.085 44.6209C12.4706 43.618 12.5541 43.3255 12.5541 39.5021C12.5541 36.7861 12.5124 36.6607 15.0613 35.825C17.5266 35.0102 19.2398 33.7984 20.0338 31.1241C20.4725 29.6407 20.7023 28.4708 20.0547 27.0083C18.237 22.9342 18.3623 22.9759 21.3918 19.7794C22.4782 18.6302 23.3975 18.1915 24.8182 19.1108C27.388 20.7613 29.9996 21.0956 32.7784 19.4033C33.6976 18.8392 34.5125 18.4422 34.8885 17.3558C35.4526 15.747 35.8078 13.5742 36.9778 12.8221C38.2523 12.0281 40.4042 12.5922 42.1592 12.5505C42.201 12.5505 42.2846 12.5296 42.3055 12.5505C42.7651 12.8638 43.4128 13.0728 43.6217 13.5115C44.2903 14.8695 44.729 16.3112 45.3558 17.6692C45.6065 18.1915 46.0453 18.7556 46.5258 19.0063C50.7879 20.9702 50.7879 20.9493 55.2172 19.1108C55.5515 18.9645 55.8858 18.7138 56.2201 18.7138C56.7633 18.7138 57.4736 18.7347 57.8079 19.0481C59.1242 20.2808 60.9627 21.4717 61.3806 23.0177C61.7149 24.2922 60.3359 26.0263 59.73 27.5724C59.6465 27.7604 59.5211 27.9484 59.5002 28.1365C59.4167 28.6379 59.2286 29.202 59.3749 29.6407C60.3986 32.3986 61.3179 35.2191 64.8906 35.7832C66.4993 36.0339 67.9827 36.7025 67.5648 38.938C67.5022 39.2305 68.317 39.9827 68.7348 39.9827C69.1527 39.9827 69.8004 39.3768 69.9257 38.9171C70.1346 38.1859 69.9466 37.3711 70.0093 36.598C70.1138 35.4907 69.6123 34.8639 68.5886 34.4879C67.2306 33.9864 65.8307 33.5268 64.5563 32.8373C63.8668 32.4613 63.3236 31.7509 62.8222 31.1032C61.7149 29.6407 62.0074 28.1574 62.8222 26.6322C63.3445 25.6711 63.637 24.6056 64.1175 23.6445C64.5772 22.7043 64.3891 21.994 63.6579 21.2836C62.0909 19.7585 60.5031 18.2542 59.0406 16.6245C58.0586 15.5381 57.1184 15.4337 55.8858 16.0604C54.7367 16.6454 53.4831 17.0424 52.3131 17.6065C51.4565 18.0244 50.7461 17.899 49.8478 17.6274C48.0301 17.0842 47.1317 15.956 46.6303 14.2428C46.3169 13.1981 45.9617 12.1326 45.3976 11.2342C45.0424 10.691 44.2903 10.106 43.6635 10.0642C41.2817 9.93885 38.879 10.0433 36.4973 10.0015C35.4317 9.98064 34.8676 10.4194 34.5125 11.3596C33.9901 12.7803 33.4051 14.1592 32.841 15.559C32.1725 17.2095 29.4773 18.3169 27.8477 17.6483C26.4061 17.0424 25.0062 16.332 23.5229 15.8933C22.9379 15.7888 21.9559 15.9142 21.4963 16.332C19.6786 17.9408 17.9445 19.6749 16.294 21.4926C15.8761 21.9522 15.709 22.9342 15.8761 23.5401C16.3148 25.0234 17.1297 26.4024 17.6102 27.8649C17.84 28.5543 17.7147 29.4109 17.5893 30.1631C17.2759 32.0852 15.9597 33.0045 14.1838 33.485C13.1809 33.7566 12.1572 34.0909 11.3215 34.655C10.7365 35.0311 10.1306 35.8459 10.1097 36.4936C9.96344 38.8754 9.96344 41.278 10.1097 43.6598C10.1515 44.3075 10.7783 45.1432 11.3633 45.4775C12.6168 46.1878 14.0166 46.6475 15.3956 47.128C16.3566 47.4623 16.7954 48.0891 17.2759 48.9666C18.1743 50.5753 17.9863 51.9542 17.1714 53.4585C16.6491 54.4196 16.1477 55.4224 15.9388 56.4671C15.7925 57.1565 15.897 58.1594 16.3357 58.6399C17.9027 60.4367 19.6159 62.129 21.3918 63.7169C21.8723 64.1556 22.917 64.3228 23.5646 64.1347C25.0898 63.6751 26.5314 62.9021 28.0357 62.3171C28.4744 62.1499 29.0385 62.0663 29.4773 62.1917C31.3994 62.6931 32.9873 63.6124 33.4051 65.827C33.5514 66.5792 34.0319 67.2687 34.22 67.9999C34.6587 69.6295 35.5989 70.4026 37.0823 70.0265C37.7717 70.0265 38.3149 70.1727 38.691 69.9847C39.2133 69.734 39.5894 69.2117 40.049 68.8147C39.6521 68.3969 39.1715 67.5403 38.8373 67.6029Z" fill="white"/>
<path d="M40.0066 56.6343C39.7977 56.4881 39.4007 56.5925 39.0873 56.5716C31.8166 56.1538 25.6742 50.9933 23.9401 43.8479C22.2269 36.8071 25.4861 29.3274 31.8375 25.713C38.2098 22.0776 46.1909 23.0387 51.4559 28.1157C54.7151 31.2496 56.3866 35.1356 56.5746 39.6485C56.6164 40.5887 56.8462 41.487 57.9117 41.2572C58.3923 41.1528 58.7266 40.2126 59.0608 39.6067C59.1653 39.4187 59.0817 39.1053 59.0608 38.8337C58.4341 28.5753 49.6591 20.6778 39.2545 21.033C29.1215 21.3882 20.9733 29.9124 20.9942 40.1081C21.0151 48.5906 26.7397 56.1538 34.8879 58.3475C36.5175 58.7863 38.2725 58.9325 39.9648 59.0161C40.3827 59.037 40.8632 58.2639 41.302 57.867C40.8841 57.4491 40.4872 56.9686 40.0066 56.6343Z" fill="white"/>
<path d="M40.488 41.3198C42.828 41.2989 45.168 41.2989 47.4871 41.3198C48.4273 41.3198 49.2003 41.1109 49.1585 39.9827C49.1167 38.938 48.3437 38.7918 47.4871 38.8127C45.4814 38.8336 43.4548 38.8127 41.261 38.8127C41.261 35.5743 41.3237 32.5657 41.1984 29.5572C41.1775 28.9931 40.4462 28.4498 40.0284 27.8857C39.6105 28.429 38.8375 28.9513 38.8166 29.5154C38.7121 32.8791 38.7748 36.2637 38.7539 39.6275C38.7539 40.8184 39.318 41.3198 40.488 41.3198Z" fill="white"/>
<path d="M66.208 48.7994C56.6808 48.7785 48.8252 56.6133 48.7834 66.1195C48.7416 75.8346 56.5346 83.7112 66.2288 83.753C75.7768 83.7948 83.6743 76.0018 83.737 66.4955C83.7997 56.7177 75.9858 48.8203 66.208 48.7994ZM66.0199 81.2667C57.8717 81.1832 51.2487 74.4139 51.2696 66.203C51.3114 57.8877 58.1224 51.2229 66.4796 51.3065C74.6277 51.3901 81.2716 58.1802 81.2299 66.3702C81.1672 74.6855 74.3561 81.3503 66.0199 81.2667Z" fill="white"/>
<path d="M68.798 65.5345C67.9832 65.242 67.0639 65.242 66.2073 65.0331C65.3716 64.8242 64.4523 64.6779 63.7211 64.2392C62.6764 63.5915 62.1541 62.5677 62.7391 61.2933C63.3241 60.0188 64.912 59.2667 66.7087 59.4338C68.3802 59.5801 69.6337 60.4785 69.9262 61.8992C70.1143 62.8394 70.3859 63.6124 71.4514 63.4035C72.6423 63.1736 72.5587 62.2126 72.308 61.2933C71.6603 58.807 69.9262 57.4908 67.628 56.9685C67.1475 55.8403 68.213 53.8972 66.2282 53.9181C64.2643 53.9181 65.3089 55.8612 64.8493 56.9476C64.5777 57.0521 64.2225 57.1565 63.8882 57.2819C61.5691 58.0967 59.9813 60.2069 60.0022 62.4006C60.023 64.469 61.7154 66.4956 64.0554 67.2059C64.7448 67.4149 65.497 67.4358 66.2073 67.5611C66.9177 67.7074 67.7743 67.6865 68.2757 68.0834C68.9861 68.6476 69.8427 69.5459 69.8636 70.319C69.8844 71.092 69.1114 72.1575 68.3802 72.6172C66.0402 74.1006 63.2405 72.8888 62.4466 70.3399C62.3004 69.8593 61.5691 69.5459 61.1095 69.1699C60.7543 69.7131 60.0022 70.3817 60.1275 70.7577C60.5245 71.9486 61.0677 73.2022 61.9034 74.1006C62.6764 74.9154 63.8882 75.2915 64.9955 75.9182C64.9955 76.1481 64.9955 76.4406 64.9955 76.754C64.9746 77.6732 64.9537 78.697 66.1864 78.7388C67.5236 78.7806 67.5862 77.715 67.4818 76.7331C67.3773 75.772 67.8578 75.5422 68.6518 75.2915C70.8873 74.5811 72.4543 72.4291 72.4751 70.2772C72.496 68.2924 71.0127 66.3076 68.798 65.5345Z" fill="white"/>
</svg>
