<svg width="100" height="100" viewBox="0 0 100 100" fill="none" xmlns="http://www.w3.org/2000/svg">
<path d="M90.024 71.8188C90.0463 70.1472 89.3554 68.8768 87.9735 68.0745C86.926 67.4727 85.7893 66.9601 84.6304 66.6703C82.9365 66.2469 81.1758 66.0686 79.3482 65.7565C79.3482 63.929 79.3482 62.1014 79.3482 60.2738C79.3482 58.2233 79.0807 57.9559 77.0526 57.9559C69.9428 57.9559 62.8553 57.9559 55.7455 57.9559C52.915 57.9559 51.0205 55.5934 51.6 52.6291C52.1795 52.6291 52.7812 52.6291 53.383 52.6291C58.9327 52.6291 64.4823 52.6737 70.0319 52.6068C77.0303 52.5399 83.048 47.6144 84.3406 40.9503C85.7002 33.9074 82.1342 27.2211 75.6039 24.3906C74.9575 24.1231 74.3112 23.5659 73.9546 22.9642C71.0795 17.994 65.775 15.6538 60.2031 17.1248C59.2001 17.3922 58.7544 17.1471 58.1303 16.4339C53.6505 11.1962 47.9225 9.01205 41.1694 10.4162C34.6168 11.798 30.293 15.9212 28.1979 22.2732C27.8859 23.2093 27.507 23.5659 26.5709 23.7888C20.1298 25.4381 15.6276 31.0323 15.4493 37.4957C15.2265 45.7199 21.6676 52.5177 29.8918 52.6068C36.0878 52.696 42.306 52.6291 48.6134 52.6291C48.8809 55.9945 47.1202 57.9559 44.0445 57.9559C37.0016 57.9559 29.9586 57.9781 22.9157 57.9336C21.3333 57.9336 20.687 58.513 20.7538 60.0955C20.8207 62.0122 20.7761 63.929 20.7761 65.9571C18.4582 65.9571 16.3631 65.9126 14.2458 65.9571C11.7942 66.024 10.078 67.6064 10.1449 70.0358C10.2117 72.5989 9.43166 75.2734 10.9249 77.6805C10.9918 77.7919 11.0141 78.0148 10.9472 78.1262C9.43166 80.5556 10.2563 83.2301 10.1672 85.7709C10.078 88.1334 11.7496 89.8273 14.0675 89.8718C19.4388 89.9387 24.8325 89.9387 30.2038 89.8718C32.2988 89.8496 34.0373 88.2671 34.015 86.2167C33.9927 83.5421 34.7505 80.7785 33.3018 78.2154C33.2126 78.0594 33.2126 77.7696 33.3018 77.6136C34.6613 75.4517 33.9927 73.0669 34.0596 70.7713C34.1487 67.4058 32.6109 65.9349 29.2231 65.9126C27.3064 65.9126 25.3897 65.9126 23.5398 65.9126C23.5398 63.9958 23.5398 62.3465 23.5398 60.5858C24.2307 60.5858 24.8325 60.5858 25.4342 60.5858C31.5856 60.5858 37.7593 60.5858 43.9107 60.5858C46.8081 60.5858 48.658 62.3688 48.7695 65.2439C48.7695 65.4445 48.8586 65.6451 48.8809 65.8011C49.7724 65.8011 50.5748 65.8011 51.4886 65.8011C51.0874 64.085 51.7114 63.0374 52.8927 61.8562C53.8956 60.8533 54.7426 60.5858 55.9907 60.6081C61.4289 60.6304 66.8671 60.6304 72.3053 60.6304C73.7317 60.6304 75.1581 60.6304 76.6068 60.6304C76.6068 62.5471 76.6068 64.3078 76.6068 65.8903C74.8461 66.4698 73.1968 66.9155 71.6367 67.5619C69.6085 68.4088 68.6278 69.9466 68.6947 72.2646C68.8061 76.1426 68.7838 80.043 68.6947 83.921C68.6724 85.8155 69.4079 87.2196 71.0349 87.9997C76.5622 90.6742 82.1564 90.6519 87.6838 88.022C89.2885 87.2419 90.0686 85.8601 90.0463 83.9656C89.9571 79.9092 89.9794 75.8752 90.024 71.8188ZM29.446 87.2865C27.0167 87.2419 24.565 87.2642 22.1357 87.2642C19.6394 87.2642 17.1655 87.2419 14.6693 87.2642C13.3543 87.2865 12.708 86.7516 12.7525 85.392C12.7971 83.8987 12.7525 82.4055 12.7525 80.9122C12.7525 79.8201 13.2874 79.2629 14.3795 79.2629C19.528 79.2629 24.6765 79.2629 29.8249 79.2629C30.9393 79.2629 31.4073 79.887 31.4073 80.9568C31.4073 82.4055 31.3628 83.8319 31.4296 85.2806C31.4519 86.707 30.8501 87.3088 29.446 87.2865ZM29.7135 68.6317C30.8947 68.6317 31.4073 69.2334 31.4073 70.3924C31.3851 71.8857 31.3851 73.3789 31.4073 74.8722C31.4296 76.1426 30.7833 76.6552 29.5575 76.6329C27.0167 76.6107 24.4759 76.6329 21.9128 76.6329C19.528 76.6329 17.1432 76.6107 14.7807 76.6552C13.3989 76.6775 12.708 76.1872 12.7525 74.7162C12.7971 73.2898 12.7748 71.8411 12.7525 70.3924C12.7302 69.2334 13.2651 68.6317 14.4464 68.6317C19.528 68.6317 24.6319 68.6317 29.7135 68.6317ZM28.7997 49.8208C22.782 49.4197 18.4359 44.2935 18.213 38.2535C18.0124 32.5256 22.1134 27.3771 27.9305 26.285C29.4237 25.9953 30.1369 25.4604 30.5381 23.878C32.0983 17.9271 35.954 14.1382 42.0386 13.0016C48.1231 11.8649 53.071 14.0268 56.6816 19.0192C57.64 20.3342 58.3978 20.6908 59.9579 20.0445C64.5714 18.15 69.5862 20.1782 71.7035 24.6803C72.2161 25.7724 72.9071 26.3519 74.066 26.7531C79.3259 28.6029 82.6914 34.1749 81.889 39.4793C80.9752 45.4079 76.2948 49.8208 70.5223 49.9323C64.9281 50.0437 59.3338 49.9546 53.4722 49.9546C53.8733 49.4642 54.0962 49.1299 54.386 48.8402C56.4587 46.7451 58.5538 44.6947 60.6265 42.5996C62.4764 40.7275 63.3902 38.4764 63.3902 35.8464C63.3902 32.793 63.3456 29.7396 63.4125 26.6862C63.4348 25.505 63.0113 24.8586 61.8746 24.4797C58.2863 23.343 54.7426 22.0949 51.132 20.9583C50.5079 20.7577 49.7055 20.7577 49.0592 20.9583C45.5155 22.0726 42.0163 23.2985 38.4725 24.4129C37.2467 24.814 36.6895 25.4604 36.7118 26.8199C36.801 29.8065 36.7341 32.8153 36.7341 35.8019C36.7341 38.4987 37.6702 40.772 39.5869 42.6665C41.9049 44.9844 44.2228 47.28 46.8304 49.8654C40.523 49.91 34.6391 50.222 28.7997 49.8208ZM50.129 61.1876C49.4827 60.3406 48.7695 59.828 48.8363 59.4268C48.9255 58.8919 49.5495 58.2456 50.0621 58.0896C50.3742 58.0004 51.2657 58.7805 51.288 59.204C51.3103 59.7166 50.6862 60.2738 50.129 61.1876ZM50.129 49.2859C46.9864 46.2102 43.8439 43.3351 40.9688 40.1925C40.055 39.1896 39.5869 37.518 39.4532 36.1139C39.208 33.4617 39.4086 30.7871 39.3641 28.1349C39.3418 27.288 39.6092 26.8645 40.4561 26.5971C43.3535 25.6833 46.2287 24.658 49.1261 23.7442C49.7055 23.5659 50.441 23.5882 51.0205 23.7665C53.8733 24.658 56.6816 25.7055 59.5344 26.5748C60.4705 26.8645 60.7157 27.3103 60.6934 28.2241C60.6265 30.7649 60.894 33.3502 60.6042 35.8687C60.4259 37.4735 59.8465 39.3233 58.7989 40.5046C56.1244 43.5803 53.071 46.3662 50.129 49.2859ZM72.5504 70.1249C74.7346 69.3003 77.0749 68.8545 79.4373 68.2305C81.7776 68.8768 84.0509 69.3226 86.1905 70.1472C87.7284 70.7267 87.7284 71.7519 86.2574 72.4429C81.6884 74.5825 77.0526 74.5602 72.4836 72.4206C70.9903 71.7519 71.0126 70.7044 72.5504 70.1249ZM71.5252 75.0505C76.7405 77.1901 81.9559 77.1901 87.2826 75.0282C87.5055 78.7057 87.1935 79.1737 83.8057 80.0653C80.7523 80.8453 77.6766 80.823 74.6232 79.9761C71.4806 79.1069 71.0572 78.4382 71.5252 75.0505ZM84.2961 86.5956C81.1535 87.5094 77.9664 87.5316 74.7792 86.6847C71.4584 85.7932 71.0795 85.236 71.4806 81.7145C76.696 83.8542 81.9113 83.8764 87.1266 81.7368C87.7284 84.924 87.2603 85.7486 84.2961 86.5956Z" fill="white"/>
<path d="M64.7044 78.2601C64.7044 74.7386 64.2587 74.226 60.7818 73.8248C60.7595 73.3568 60.7149 72.8664 60.7149 72.3761C60.6927 69.4118 59.9126 68.6318 56.9706 68.6095C54.3184 68.6095 51.6438 68.6095 48.8579 68.6095C47.9664 66.3138 47.4538 65.9572 45.1358 65.9572C43.4643 65.9572 41.815 66.0241 40.1434 65.935C38.5387 65.8681 38.0038 66.5813 38.0261 68.1192C38.0706 74.6717 38.0706 81.202 38.0261 87.7546C38.0038 89.3148 38.5387 89.9611 40.1434 89.9388C47.6321 89.8942 55.1207 89.8942 62.6094 89.9388C64.0804 89.9388 64.7267 89.4039 64.7044 87.8883C64.6599 84.7012 64.7044 81.4695 64.7044 78.2601ZM40.812 68.6986C42.5282 68.6986 44.1775 68.6986 45.8268 68.6986C46.4062 71.284 46.4062 71.284 49.1699 71.284C52.045 71.284 54.9201 71.284 57.929 71.284C57.929 72.1532 57.929 72.9333 57.929 73.8471C52.2679 73.8471 46.6068 73.8471 40.8343 73.8471C40.812 72.1755 40.812 70.5485 40.812 68.6986ZM61.9185 87.1974C54.831 87.1974 47.8772 87.1974 40.812 87.1974C40.812 83.7205 40.812 80.2882 40.812 76.7445C47.7881 76.7445 54.7864 76.7445 61.9185 76.7445C61.9185 80.1545 61.9185 83.6091 61.9185 87.1974Z" fill="white"/>
<path d="M56.5248 29.4722C54.4075 31.7232 52.3124 33.9074 49.9722 36.4036C49.0362 35.1555 48.2784 34.1303 47.6097 33.2165C46.6737 34.0189 46.0496 34.5538 45.2695 35.2224C46.5622 36.4482 47.7212 37.674 49.0139 38.6993C49.4373 39.0336 50.5517 39.2119 50.8637 38.9222C53.4491 36.4482 55.9008 33.8628 58.2633 31.4781C57.6838 30.8317 57.1712 30.2522 56.5248 29.4722Z" fill="white"/>
<path d="M17.9677 71.4177C17.0539 71.4177 16.2516 71.4177 15.4492 71.4177C15.4492 72.2647 15.4492 72.9779 15.4492 73.8471C16.3853 73.8471 17.1877 73.8471 17.9677 73.8471C17.9677 72.9556 17.9677 72.1755 17.9677 71.4177Z" fill="white"/>
<path d="M23.2723 71.3284C22.4254 71.3284 21.7122 71.3284 20.8652 71.3284C20.8652 72.1753 20.8652 72.9999 20.8652 73.8469C21.7122 73.8469 22.5145 73.8469 23.2723 73.8469C23.2723 72.9331 23.2723 72.153 23.2723 71.3284Z" fill="white"/>
<path d="M28.6442 71.3508C27.7973 71.3508 27.0395 71.3508 26.2148 71.3508C26.2148 72.3092 26.2148 73.1116 26.2148 73.8693C27.1064 73.8693 27.8641 73.8693 28.6442 73.8693C28.6442 73.0001 28.6442 72.1978 28.6442 71.3508Z" fill="white"/>
<path d="M15.4941 84.5228C16.3634 84.5228 17.1657 84.5228 17.9681 84.5228C17.9681 83.6313 17.9681 82.829 17.9681 82.0266C17.0989 82.0266 16.3411 82.0266 15.4941 82.0266C15.4941 82.9627 15.4941 83.7205 15.4941 84.5228Z" fill="white"/>
<path d="M20.8203 84.5228C21.6895 84.5228 22.4919 84.5228 23.2942 84.5228C23.2942 83.6313 23.2942 82.829 23.2942 82.0266C22.425 82.0266 21.6672 82.0266 20.8203 82.0266C20.8203 82.9627 20.8203 83.7205 20.8203 84.5228Z" fill="white"/>
<path d="M26.1699 84.5005C27.0837 84.5005 27.8638 84.5005 28.6439 84.5005C28.6439 83.6313 28.6439 82.8735 28.6439 82.0488C27.7746 82.0488 26.9723 82.0488 26.1699 82.0488C26.1699 82.918 26.1699 83.7204 26.1699 84.5005Z" fill="white"/>
</svg>
