<svg width="100" height="100" viewBox="0 0 100 100" fill="none" xmlns="http://www.w3.org/2000/svg">
<path d="M89.9761 22.8092C89.9761 16.2036 86.5488 11.8572 80.0963 10.2106C79.9432 10.1723 79.8283 10.0766 79.6942 10C65.315 10 50.9549 10 36.5757 10C36.097 10.1723 35.6375 10.3638 35.1397 10.517C30.0275 12.1061 26.6194 16.5482 26.562 21.9093C26.5045 27.0023 26.5428 32.1145 26.5428 37.2076C26.5428 37.782 26.5428 38.3372 26.5428 39.1988C25.394 39.1988 24.3218 39.1988 23.2687 39.1988C16.1653 39.218 12.0296 42.3963 10.2106 49.27C10.1723 49.4232 10.0766 49.5572 10 49.6913C10 59.6859 10 69.6805 10 79.6751C10.1149 80.0006 10.2489 80.3452 10.3446 80.6707C11.7041 86.1276 16.3759 89.9186 22.005 89.9569C30.9083 90.0144 39.8115 90.0144 48.7148 89.9569C55.1672 89.9186 60.222 85.1511 60.6815 78.7369C60.7964 77.052 60.7006 75.3288 60.7006 73.4524C62.3664 73.4524 63.7641 73.4524 65.1427 73.4524C69.2593 73.4524 73.3758 73.4715 77.4732 73.4524C84.8064 73.395 89.9186 68.2636 89.9378 60.9304C89.9952 48.217 89.9761 35.5035 89.9761 22.8092ZM56.7756 79.5411C56.2203 83.2556 52.8696 86.1084 48.9637 86.1467C39.9647 86.2424 30.9657 86.2424 21.9667 86.1467C17.4481 86.1084 13.9442 82.6429 13.8868 78.0859C13.7719 69.0869 13.7719 60.088 13.8868 51.089C13.9442 46.4363 17.4864 43.1431 22.1199 43.0473C23.5176 43.009 24.9153 43.0473 26.562 43.0473C26.562 43.6792 26.562 44.2344 26.562 44.7897C26.562 50.2082 26.5428 55.6076 26.562 61.0261C26.6003 68.2828 31.6741 73.395 38.9308 73.4524C44.2919 73.4907 49.653 73.4524 55.0141 73.4715C55.5885 73.4715 56.1437 73.4715 56.833 73.4715C56.833 75.616 57.0628 77.6264 56.7756 79.5411ZM56.9096 69.6613C56.3926 69.6613 55.8948 69.6613 55.397 69.6613C49.9785 69.6613 44.5791 69.6805 39.1605 69.6613C33.8186 69.6422 30.353 66.1958 30.3339 60.8921C30.3147 55.0141 30.3339 49.1551 30.3339 43.1048C36.9969 43.1048 43.4303 42.9707 49.8827 43.1622C53.5206 43.2771 56.7947 46.7044 56.8713 50.3997C57.0053 56.7373 56.9096 63.0749 56.9096 69.6613ZM86.185 60.9304C86.1467 66.1766 82.662 69.6422 77.4541 69.6613C72.3993 69.6805 67.3637 69.6613 62.309 69.6613C61.8495 69.6613 61.3899 69.6231 60.7964 69.5848C60.7964 68.9338 60.7964 68.3785 60.7964 67.8041C60.7964 62.7111 60.7964 57.5989 60.7964 52.5058C60.7772 44.1195 55.8948 39.1988 47.5468 39.1988C42.4538 39.1988 37.3416 39.1988 32.2485 39.1988C31.6741 39.1988 31.1189 39.1988 30.3913 39.1988C30.3913 33.0719 30.2381 27.1938 30.4487 21.3157C30.6019 17.1417 34.1632 13.8485 38.433 13.8294C51.6442 13.7528 64.8746 13.7528 78.0859 13.8294C82.8343 13.8676 86.185 17.563 86.2041 22.522C86.2424 31.7316 86.2041 40.9412 86.2041 50.1508C86.185 53.7504 86.2041 57.35 86.185 60.9304Z" fill="white"/>
<path d="M78.0639 22.5603C74.0048 22.5411 69.9457 22.5411 65.8865 22.5603C64.642 22.5603 63.4358 22.79 62.8805 24.0729C62.287 25.4323 62.8996 26.4853 63.8953 27.3852C65.427 28.7638 66.9396 30.1807 68.5862 31.6741C67.514 32.7272 66.7482 33.4356 66.0206 34.1632C63.991 36.1928 61.9423 38.184 59.9702 40.2519C58.9746 41.2858 58.9746 42.5686 59.817 43.4877C60.6978 44.445 62.0189 44.445 63.1677 43.4685C63.5315 43.1622 63.8378 42.8175 64.1633 42.492C66.5758 40.0604 68.9883 37.6288 71.554 35.0248C73.2581 36.748 74.8281 38.2798 76.3407 39.8498C77.2406 40.788 78.2745 41.3241 79.5382 40.8263C80.7827 40.3285 81.0508 39.2179 81.0508 37.9926C81.0508 33.8377 81.0891 29.6637 81.0508 25.5089C81.0316 23.4219 80.17 22.5794 78.0639 22.5603Z" fill="white"/>
</svg>
