<svg width="106" height="91" viewBox="0 0 106 91" fill="none" xmlns="http://www.w3.org/2000/svg">
<path d="M4.62502 79.7404C4.62502 79.4708 4.62502 79.2503 4.62502 79.0236C4.62502 61.2582 4.62502 43.4927 4.62502 25.7333C4.62502 22.168 6.98966 19.154 10.4509 18.3576C11.0328 18.2228 11.6454 18.1677 12.2397 18.1616C16.8832 18.1432 21.5328 18.1555 26.1764 18.1555C26.305 18.1555 26.4398 18.1555 26.6052 18.1555C26.6052 17.9962 26.6052 17.8675 26.6052 17.7328C26.6052 12.3909 26.6052 7.0551 26.6052 1.7132C26.6052 1.52942 26.6113 1.34564 26.6481 1.16799C26.7583 0.647275 27.2055 0.279713 27.7324 0.242957C27.812 0.236831 27.8978 0.242957 27.9774 0.242957C44.6096 0.242957 61.2417 0.242957 77.8678 0.242957C78.2169 0.242957 78.5416 0.285839 78.8112 0.518628C79.1542 0.806551 79.2522 1.18024 79.2522 1.60906C79.2461 6.06881 79.2522 10.5347 79.2522 14.9944C79.2522 15.9256 79.2522 16.8506 79.2522 17.7818C79.2522 17.892 79.2522 18.0023 79.2522 18.1555C79.4115 18.1555 79.5402 18.1555 79.6688 18.1555C84.3123 18.1555 88.962 18.1555 93.6055 18.1555C97.4772 18.1555 100.608 20.8325 101.165 24.649C101.22 25.0411 101.245 25.4454 101.245 25.8375C101.251 43.6703 101.251 61.5093 101.251 79.3422C101.251 79.4647 101.251 79.5811 101.251 79.7342C101.582 79.7342 101.876 79.7342 102.17 79.7342C102.893 79.7342 103.622 79.7281 104.344 79.7342C105 79.7404 105.527 80.1998 105.533 80.8492C105.551 82.5461 105.619 84.243 105.49 85.9277C105.263 88.7946 102.893 90.9204 100.019 91C99.9276 91 99.8357 91 99.7438 91C68.5317 91 37.3257 91 6.11364 91C3.4427 91 1.22508 89.3705 0.545087 86.8711C0.404189 86.3626 0.342929 85.8235 0.330677 85.3028C0.300046 83.8938 0.318424 82.4848 0.32455 81.0758C0.32455 80.1998 0.796254 79.7281 1.66615 79.7281C2.63406 79.7404 3.60197 79.7404 4.62502 79.7404ZM76.8386 62.4834C76.8386 42.5248 76.8386 22.6029 76.8386 2.66274C60.8987 2.66274 44.9771 2.66274 29.0311 2.66274C29.0311 22.6029 29.0311 42.537 29.0311 62.4834C44.971 62.4834 60.8987 62.4834 76.8386 62.4834ZM14.4879 72.2666C40.1315 72.2666 65.7566 72.2666 91.3879 72.2666C91.3879 57.509 91.3879 42.7698 91.3879 28.0245C87.3386 28.0245 83.3138 28.0245 79.2645 28.0245C79.2645 28.1776 79.2645 28.3063 79.2645 28.441C79.2645 40.0989 79.2645 51.7567 79.2645 63.4145C79.2645 64.4621 78.8357 64.8909 77.8065 64.8909C61.2295 64.8909 44.6463 64.8909 28.0693 64.8909C27.959 64.8909 27.8426 64.8909 27.7324 64.8848C27.1749 64.8419 26.7338 64.4498 26.642 63.8923C26.6113 63.7024 26.6174 63.5064 26.6174 63.3104C26.6174 51.6832 26.6174 40.056 26.6174 28.4288C26.6174 28.294 26.6052 28.1531 26.5991 28.0184C22.5436 28.0184 18.525 28.0184 14.494 28.0184C14.4879 42.7821 14.4879 57.5151 14.4879 72.2666ZM79.2767 25.6047C79.4176 25.6047 79.534 25.6047 79.6566 25.6047C83.9264 25.6047 88.1901 25.6047 92.4599 25.6047C93.3298 25.6047 93.7954 26.0764 93.7954 26.9524C93.7954 42.39 93.7954 57.8276 93.7954 73.2652C93.7954 73.357 93.7954 73.4489 93.7954 73.5408C93.7832 73.8716 93.6484 74.1534 93.4034 74.3801C93.1216 74.6435 92.7785 74.6864 92.4109 74.6864C66.0935 74.6803 39.77 74.6864 13.4526 74.6864C13.373 74.6864 13.2811 74.7109 13.2076 74.6803C12.9564 74.5884 12.6746 74.521 12.4663 74.3617C12.1294 74.1105 12.0681 73.7246 12.0681 73.3203C12.0743 57.8827 12.0743 42.4451 12.0743 27.0076C12.0743 26.058 12.5276 25.6108 13.4832 25.6047C17.7225 25.6047 21.9555 25.6047 26.1948 25.6047C26.3234 25.6047 26.452 25.6047 26.5929 25.6047C26.5929 23.9078 26.5929 22.2476 26.5929 20.5569C26.4398 20.5569 26.3111 20.5569 26.1825 20.5569C21.5757 20.5569 16.9751 20.5569 12.3683 20.5569C12.2458 20.5569 12.1233 20.5569 12.0008 20.563C9.20116 20.661 7.03255 22.8786 7.03255 25.6782C7.02642 43.5784 7.03255 61.4726 7.03255 79.3728C7.03255 79.4831 7.03255 79.5933 7.03255 79.7159C37.6565 79.7159 68.2438 79.7159 98.8616 79.7159C98.8616 79.5811 98.8616 79.4708 98.8616 79.3606C98.8616 61.5522 98.8616 43.75 98.8616 25.9416C98.8616 25.5924 98.8555 25.2433 98.8004 24.9063C98.3777 22.3211 96.2887 20.563 93.63 20.563C88.962 20.5569 84.3001 20.563 79.6321 20.563C79.5218 20.563 79.4115 20.5691 79.289 20.5752C79.2767 22.2599 79.2767 23.9139 79.2767 25.6047ZM31.9103 82.1601C22.1577 82.1601 12.4541 82.1601 2.75046 82.1601C2.75046 83.367 2.70757 84.5493 2.76883 85.7316C2.79334 86.1788 2.97712 86.6566 3.20991 87.0487C3.8899 88.1882 4.95582 88.6231 6.26067 88.6231C37.3747 88.617 68.4949 88.617 99.609 88.617C99.7009 88.617 99.7928 88.617 99.8847 88.617C101.673 88.5618 103.033 87.306 103.125 85.5478C103.18 84.4513 103.138 83.3425 103.131 82.2398C103.131 82.2153 103.107 82.1847 103.095 82.1479C93.3972 82.1479 83.6997 82.1479 73.9655 82.1479C73.9655 82.2704 73.9655 82.3807 73.9655 82.491C73.9655 83.3057 73.9655 84.1266 73.9655 84.9414C73.9655 85.8113 73.4877 86.2891 72.6178 86.2891C59.5019 86.2891 46.38 86.2891 33.2642 86.2891C33.2029 86.2891 33.1417 86.2891 33.0804 86.2891C32.3943 86.2523 31.9165 85.7745 31.9103 85.0884C31.8981 84.2307 31.9103 83.3731 31.9103 82.5155C31.9103 82.3991 31.9103 82.2888 31.9103 82.1601ZM71.5518 82.1601C59.1221 82.1601 46.7231 82.1601 34.324 82.1601C34.324 82.7421 34.324 83.2996 34.324 83.8632C46.7414 83.8632 59.1405 83.8632 71.5518 83.8632C71.5518 83.2873 71.5518 82.7299 71.5518 82.1601Z" fill="url(#paint0_linear_160_1270)"/>
<path d="M57.4559 46.9537C57.4559 48.963 57.4498 50.9785 57.462 52.9878C57.462 53.6066 57.2047 54.0293 56.6411 54.2927C53.1248 55.9467 49.6085 57.6069 46.0921 59.267C45.7062 59.4508 45.3325 59.4386 44.9466 59.2548C41.467 57.6069 37.9935 55.959 34.5078 54.3294C33.8707 54.0293 33.595 53.5821 33.6012 52.8898C33.6134 48.9263 33.6134 44.9689 33.6012 41.0053C33.6012 40.3192 33.8707 39.8843 34.5017 39.5964C37.9261 38.0342 41.3506 36.4598 44.7628 34.8732C45.2958 34.622 45.7736 34.622 46.3065 34.8732C49.7677 36.4843 53.2351 38.071 56.7024 39.6699C57.2109 39.9027 57.462 40.3008 57.462 40.8583C57.462 42.886 57.462 44.9199 57.4559 46.9537ZM55.0423 42.69C54.8952 42.7574 54.7972 42.8064 54.6931 42.8493C52.1385 44.0561 49.584 45.2629 47.0233 46.4636C46.8089 46.5678 46.7292 46.678 46.7292 46.917C46.7354 49.9248 46.7354 52.9388 46.7354 55.9467C46.7354 56.0447 46.7415 56.1427 46.7476 56.2714C46.8824 56.2101 46.9865 56.1734 47.0846 56.1244C49.6391 54.9175 52.1937 53.7107 54.7543 52.51C54.981 52.4059 55.0606 52.2834 55.0606 52.0322C55.0545 49.0243 55.0545 46.0103 55.0545 43.0024C55.0545 42.9228 55.0484 42.8309 55.0423 42.69ZM44.3095 56.2898C44.3217 56.1734 44.334 56.0937 44.334 56.0202C44.334 52.9695 44.334 49.9126 44.3401 46.8618C44.3401 46.6658 44.2666 46.5739 44.0951 46.4943C41.4976 45.2752 38.9063 44.05 36.315 42.8248C36.2292 42.7819 36.1373 42.7451 36.0271 42.7022C36.021 42.8064 36.0087 42.8615 36.0087 42.9228C36.0087 45.9981 36.0087 49.0672 36.0026 52.1425C36.0026 52.3507 36.0945 52.4242 36.2599 52.4978C38.3856 53.4963 40.5052 54.4948 42.6309 55.4995C43.1761 55.7629 43.7275 56.0202 44.3095 56.2898ZM37.675 40.8032C37.8159 40.8767 37.9078 40.9257 38.0058 40.9747C40.4133 42.1142 42.827 43.2475 45.2284 44.3869C45.4428 44.491 45.6082 44.4972 45.8226 44.393C47.7278 43.4803 49.6391 42.5859 51.5504 41.6853C52.1446 41.4035 52.745 41.1217 53.3821 40.8216C53.2718 40.7603 53.2106 40.7174 53.1432 40.6807C50.6683 39.5412 48.1934 38.3957 45.7184 37.2685C45.6021 37.2133 45.4183 37.2317 45.2958 37.2868C42.8576 38.4018 40.4194 39.529 37.9813 40.65C37.8955 40.6929 37.8098 40.7358 37.675 40.8032Z" fill="url(#paint1_linear_160_1270)"/>
<path d="M41.8894 26.3398C41.4851 26.7502 41.0808 27.1668 40.6703 27.5711C39.9291 28.3124 39.3103 28.3124 38.5691 27.565C37.5583 26.5542 36.5475 25.5434 35.5367 24.5326C34.9119 23.9016 34.9057 23.24 35.5367 22.609C35.9717 22.1741 36.4189 21.7391 36.8599 21.3103C36.8477 21.2858 36.8354 21.2552 36.8232 21.2307C36.4924 21.2307 36.1616 21.2307 35.8308 21.2307C35.5245 21.2307 35.2182 21.2307 34.9119 21.2307C34.1032 21.2246 33.6131 20.7528 33.607 19.9381C33.5948 19.0376 33.607 18.1432 33.607 17.2426C33.607 16.63 33.6009 16.0174 33.607 15.4048C33.6131 14.5778 34.1032 14.1 34.9302 14.1C35.5612 14.1 36.1922 14.1 36.9028 14.1C36.7803 13.9713 36.7129 13.8917 36.6394 13.8182C36.2412 13.42 35.8369 13.0279 35.4509 12.6236C34.9486 12.0968 34.9486 11.3862 35.4632 10.8716C36.5536 9.76889 37.6563 8.67233 38.7529 7.5819C39.2675 7.07344 39.9781 7.07344 40.5049 7.5819C40.9092 7.97396 41.3013 8.37216 41.6995 8.77035C41.7669 8.83773 41.8465 8.90512 41.9752 9.02764C41.9752 8.44567 42.0058 7.92496 41.969 7.4165C41.8771 6.14841 42.4959 5.68283 43.6598 5.72571C45.0137 5.77472 46.3736 5.73797 47.7336 5.73797C48.6464 5.73797 49.1058 6.19742 49.1058 7.11632C49.1058 7.71055 49.1058 8.29864 49.1058 8.89287C49.1058 8.91125 49.1181 8.92962 49.1365 8.97863C49.2039 8.92962 49.2651 8.88674 49.3141 8.83773C49.7246 8.42729 50.135 8.01072 50.5516 7.6064C51.0907 7.07344 51.8074 7.06731 52.3465 7.6064C53.4247 8.67846 54.4968 9.75664 55.5627 10.8409C56.1324 11.4168 56.1324 12.1029 55.5627 12.6787C55.1094 13.1321 54.6499 13.5793 54.1476 14.0755C54.2946 14.0877 54.3681 14.1061 54.4416 14.1061C55.0358 14.1061 55.6239 14.1061 56.2182 14.1061C56.9288 14.1122 57.4495 14.6084 57.4495 15.3129C57.4556 16.8873 57.4556 18.4556 57.4495 20.03C57.4434 20.7222 56.941 21.2246 56.2427 21.2368C55.6791 21.2491 55.1216 21.2368 54.558 21.2429C54.4539 21.2429 54.3436 21.2552 54.1782 21.2613C54.3007 21.39 54.3804 21.4818 54.46 21.5615C54.8459 21.9535 55.2441 22.3334 55.6239 22.7316C56.0895 23.2216 56.1201 23.92 55.6546 24.3917C54.5274 25.5434 53.3879 26.6828 52.2301 27.81C51.7584 28.2695 51.0601 28.2388 50.57 27.7733C50.1595 27.3812 49.7613 26.9646 49.357 26.5664C49.2835 26.4929 49.21 26.4317 49.0997 26.3214C49.0875 26.4562 49.0752 26.5419 49.0752 26.6277C49.0752 27.2219 49.0813 27.81 49.0752 28.4043C49.0691 29.0842 48.579 29.5927 47.899 29.5988C46.3185 29.6111 44.7319 29.6111 43.1514 29.5988C42.4591 29.5927 41.9629 29.0842 41.9568 28.3859C41.9507 27.7243 41.9568 27.0627 41.9568 26.401C41.9384 26.3704 41.9139 26.352 41.8894 26.3398ZM36.0268 18.817C36.1554 18.8232 36.2596 18.8293 36.3698 18.8293C37.0131 18.8293 37.6563 18.8232 38.2995 18.8293C38.9244 18.8354 39.3042 19.1172 39.5309 19.6992C39.6166 19.9258 39.7085 20.1525 39.8127 20.3792C40.1251 21.0714 40.0516 21.4941 39.5064 22.0332C39.004 22.5355 38.4956 23.0379 38.0177 23.5157C38.5752 24.0732 39.1143 24.6122 39.6656 25.1636C39.7269 25.1084 39.8065 25.0349 39.8862 24.9553C40.3334 24.5081 40.7806 24.0609 41.2278 23.6137C41.6872 23.1604 42.1712 23.0869 42.7654 23.3625C43.0227 23.4851 43.2923 23.5831 43.5557 23.6872C44.0641 23.8894 44.3521 24.2937 44.3582 24.8389C44.3643 25.4944 44.3582 26.1437 44.3582 26.7992C44.3582 26.9156 44.3582 27.0381 44.3582 27.1545C45.1607 27.1545 45.9203 27.1545 46.6922 27.1545C46.6922 26.3827 46.6861 25.6414 46.6922 24.894C46.6983 24.2876 46.9801 23.8832 47.5315 23.6688C47.7704 23.5769 48.0093 23.4851 48.2421 23.3809C48.9466 23.0624 49.3693 23.142 49.9267 23.6933C50.4229 24.1895 50.9192 24.6919 51.397 25.1758C51.9545 24.6184 52.4935 24.0793 53.0449 23.5279C52.9959 23.4728 52.9285 23.3993 52.8611 23.3319C52.4016 22.8663 51.9361 22.4069 51.4766 21.9474C51.0417 21.5125 50.9682 21.0285 51.2193 20.4649C51.3357 20.2076 51.4399 19.9381 51.544 19.6747C51.7523 19.1295 52.1505 18.8415 52.7325 18.8354C53.3328 18.8293 53.9393 18.8354 54.5396 18.8354C54.6989 18.8354 54.8582 18.8354 55.0297 18.8354C55.0297 18.039 55.0297 17.2794 55.0297 16.4953C54.8949 16.4953 54.7847 16.4953 54.6744 16.4953C54.0496 16.4953 53.4308 16.4953 52.806 16.4953C52.1382 16.4953 51.7645 16.2257 51.5256 15.607C51.4337 15.3619 51.3296 15.1169 51.2193 14.8719C50.9559 14.296 51.0355 13.8059 51.4827 13.3587C51.9483 12.887 52.42 12.4215 52.8917 11.9498C52.953 11.8885 53.0081 11.8211 53.0449 11.7782C52.4935 11.2208 51.9667 10.6878 51.4215 10.1364C51.3541 10.1977 51.2806 10.2651 51.2132 10.3325C50.7599 10.7858 50.3065 11.2453 49.8471 11.6986C49.3876 12.158 48.9282 12.2377 48.3401 11.9804C48.0889 11.8701 47.8316 11.7598 47.5805 11.6618C46.9862 11.429 46.7044 11.0431 46.6983 10.406C46.6922 9.76276 46.6983 9.11953 46.6983 8.4763C46.6983 8.37215 46.6861 8.26189 46.6861 8.16387C45.8958 8.16387 45.1484 8.16387 44.3643 8.16387C44.3643 8.29252 44.3643 8.40279 44.3643 8.51305C44.3643 9.16854 44.3704 9.8179 44.3643 10.4734C44.3582 11.037 44.0703 11.4413 43.5434 11.6435C43.2861 11.7415 43.0288 11.8456 42.7777 11.9559C42.1406 12.2438 41.6872 12.1642 41.191 11.6741C40.8847 11.3739 40.5784 11.0737 40.2844 10.7613C40.0761 10.5408 39.8801 10.308 39.7147 10.1119C39.1082 10.7123 38.5691 11.2514 38.0116 11.8089C38.5323 12.3234 39.0714 12.8503 39.6044 13.3894C40.0271 13.8182 40.1006 14.296 39.8556 14.8474C39.7392 15.1047 39.6289 15.3742 39.5309 15.6376C39.3226 16.2012 38.9244 16.483 38.3179 16.4891C37.6624 16.4953 37.0131 16.4891 36.3576 16.4891C36.2535 16.4891 36.1432 16.4891 36.0329 16.4891C36.0268 17.2916 36.0268 18.0451 36.0268 18.817Z" fill="url(#paint2_linear_160_1270)"/>
<path d="M65.9221 38.6776C67.619 38.6776 69.3097 38.6715 71.0067 38.6776C71.5825 38.6776 72.0175 38.9839 72.1951 39.4802C72.3605 39.9519 72.2441 40.491 71.8398 40.7789C71.6131 40.9382 71.3007 41.0729 71.0312 41.0729C67.6312 41.0913 64.2313 41.0913 60.8375 41.079C60.1207 41.079 59.6061 40.5461 59.6184 39.86C59.6245 39.1861 60.1513 38.6838 60.8803 38.6776C62.5527 38.6715 64.2374 38.6776 65.9221 38.6776Z" fill="url(#paint3_linear_160_1270)"/>
<path d="M65.9341 11.2334C67.631 11.2334 69.3218 11.2334 71.0187 11.2334C71.6313 11.2334 72.1092 11.6071 72.2317 12.1584C72.3542 12.7036 72.1092 13.2611 71.6068 13.4939C71.4108 13.5858 71.178 13.6287 70.9575 13.6287C67.6065 13.6348 64.2617 13.6348 60.9108 13.6348C60.1389 13.6348 59.6121 13.1386 59.606 12.4341C59.606 11.7296 60.1389 11.2334 60.9047 11.2334C62.5832 11.2334 64.2617 11.2334 65.9341 11.2334Z" fill="url(#paint4_linear_160_1270)"/>
<path d="M65.9341 57.5454C64.2311 57.5454 62.5219 57.5516 60.8189 57.5454C60.2553 57.5454 59.8265 57.2207 59.661 56.7123C59.5079 56.2345 59.661 55.6831 60.0837 55.4074C60.3043 55.2665 60.5922 55.1624 60.8495 55.1624C64.2311 55.144 67.6065 55.1502 70.9881 55.1502C71.7293 55.1502 72.2623 55.6647 72.2623 56.357C72.2623 57.0431 71.7293 57.5515 70.9819 57.5515C69.2973 57.5454 67.6187 57.5454 65.9341 57.5454Z" fill="url(#paint5_linear_160_1270)"/>
<path d="M65.916 30.1013C64.2191 30.1013 62.5283 30.1013 60.8314 30.1013C60.2862 30.1013 59.8635 29.8073 59.6858 29.3417C59.5143 28.8884 59.6 28.3493 59.986 28.0552C60.2249 27.8776 60.5496 27.7183 60.8375 27.7183C64.2374 27.6938 67.6374 27.6999 71.0312 27.706C71.7418 27.706 72.2687 28.2451 72.2625 28.919C72.2503 29.599 71.7234 30.0952 71.0006 30.1013C69.3037 30.1013 67.6129 30.1013 65.916 30.1013Z" fill="url(#paint6_linear_160_1270)"/>
<path d="M65.9219 22.2166C67.625 22.2166 69.3341 22.2166 71.0372 22.2166C71.5579 22.2166 71.9438 22.4555 72.1582 22.9272C72.3604 23.3867 72.2869 23.8278 71.9561 24.2137C71.6927 24.52 71.3373 24.618 70.9392 24.618C68.1028 24.618 65.2665 24.618 62.424 24.618C61.9033 24.618 61.3826 24.6241 60.8618 24.618C60.1267 24.6119 59.5999 24.0973 59.606 23.3989C59.6121 22.719 60.1328 22.2227 60.868 22.2227C62.5526 22.2105 64.2373 22.2166 65.9219 22.2166Z" fill="url(#paint7_linear_160_1270)"/>
<path d="M65.9464 49.6615C67.6494 49.6615 69.3586 49.6615 71.0616 49.6615C71.5823 49.6615 71.9621 49.9127 72.1643 50.3905C72.3542 50.8438 72.2807 51.2726 71.9621 51.6463C71.7232 51.9281 71.4047 52.0568 71.0371 52.0568C67.6372 52.0568 64.2372 52.0629 60.8373 52.0568C60.1205 52.0568 59.606 51.5299 59.606 50.8438C59.6121 50.1638 60.1328 49.6615 60.8557 49.6615C62.5526 49.6615 64.2495 49.6615 65.9464 49.6615Z" fill="url(#paint8_linear_160_1270)"/>
<path d="M65.9589 16.7218C67.6251 16.7218 69.2853 16.7218 70.9516 16.7218C71.7173 16.7218 72.2625 17.218 72.2625 17.9102C72.2625 18.6086 71.7296 19.1171 70.9638 19.1171C67.6068 19.1171 64.2497 19.1171 60.8865 19.1171C60.1391 19.1171 59.6123 18.6147 59.6123 17.9225C59.6123 17.2119 60.1391 16.7218 60.911 16.7218C62.5895 16.7218 64.2742 16.7218 65.9589 16.7218Z" fill="url(#paint9_linear_160_1270)"/>
<path d="M65.9403 5.75014C67.6127 5.75014 69.2912 5.75014 70.9636 5.75014C71.7294 5.75014 72.2684 6.25248 72.2623 6.95085C72.2562 7.63696 71.7232 8.13929 70.9759 8.13929C67.6065 8.14542 64.2372 8.14542 60.8679 8.13929C60.1267 8.13929 59.606 7.62471 59.606 6.92634C59.6121 6.22798 60.1328 5.74402 60.8863 5.74402C62.5771 5.75014 64.2617 5.75014 65.9403 5.75014Z" fill="url(#paint10_linear_160_1270)"/>
<path d="M65.9218 35.5902C64.2249 35.5902 62.5341 35.5902 60.8372 35.5902C60.2981 35.5902 59.8693 35.2961 59.6855 34.8306C59.514 34.3772 59.5998 33.8381 59.9796 33.5441C60.2001 33.3726 60.5003 33.2133 60.7698 33.2133C64.2127 33.1888 67.6494 33.1949 71.0922 33.201C71.7599 33.201 72.2684 33.7463 72.2623 34.4079C72.2561 35.0756 71.7354 35.5902 71.037 35.5963C69.3279 35.5963 67.6249 35.5902 65.9218 35.5902Z" fill="url(#paint11_linear_160_1270)"/>
<path d="M65.9467 46.5679C64.262 46.5679 62.5774 46.5679 60.8927 46.5679C60.1392 46.5679 59.6124 46.0778 59.6124 45.3856C59.6062 44.6872 60.1331 44.1788 60.8743 44.1726C64.2498 44.1665 67.6313 44.1726 71.0068 44.1726C71.6745 44.1726 72.1646 44.5953 72.2442 45.2079C72.3239 45.8083 71.9685 46.3596 71.3866 46.5189C71.2395 46.5557 71.0864 46.5618 70.9333 46.5618C69.2731 46.5679 67.6068 46.5679 65.9467 46.5679Z" fill="url(#paint12_linear_160_1270)"/>
<path d="M45.541 12.7156C48.2916 12.7279 50.5031 14.9578 50.4847 17.7022C50.4664 20.4467 48.2365 22.6214 45.4675 22.6092C42.7659 22.5969 40.5667 20.3487 40.5851 17.6287C40.5973 14.9149 42.8272 12.7034 45.541 12.7156ZM45.5104 20.2139C46.9133 20.2261 48.0711 19.0867 48.0895 17.6838C48.1017 16.2871 46.9623 15.1293 45.5594 15.1109C44.1627 15.0925 43.0049 16.232 42.9803 17.6409C42.9497 19.0254 44.1137 20.2016 45.5104 20.2139Z" fill="url(#paint13_linear_160_1270)"/>
<defs>
<linearGradient id="paint0_linear_160_1270" x1="19.9401" y1="8.40297" x2="102.862" y2="106.027" gradientUnits="userSpaceOnUse">
<stop stop-color="#4949FC"/>
<stop offset="1" stop-color="#7D7DFF"/>
</linearGradient>
<linearGradient id="paint1_linear_160_1270" x1="38.0504" y1="36.9075" x2="60.9271" y2="59.33" gradientUnits="userSpaceOnUse">
<stop stop-color="#4949FC"/>
<stop offset="1" stop-color="#7D7DFF"/>
</linearGradient>
<linearGradient id="paint2_linear_160_1270" x1="38.0493" y1="7.87119" x2="60.1609" y2="30.2881" gradientUnits="userSpaceOnUse">
<stop stop-color="#4949FC"/>
<stop offset="1" stop-color="#7D7DFF"/>
</linearGradient>
<linearGradient id="paint3_linear_160_1270" x1="61.9769" y1="38.8919" x2="62.7877" y2="43.2071" gradientUnits="userSpaceOnUse">
<stop stop-color="#4949FC"/>
<stop offset="1" stop-color="#7D7DFF"/>
</linearGradient>
<linearGradient id="paint4_linear_160_1270" x1="61.9661" y1="11.4494" x2="62.7691" y2="15.7459" gradientUnits="userSpaceOnUse">
<stop stop-color="#4949FC"/>
<stop offset="1" stop-color="#7D7DFF"/>
</linearGradient>
<linearGradient id="paint5_linear_160_1270" x1="61.9636" y1="55.3652" x2="62.7671" y2="59.6635" gradientUnits="userSpaceOnUse">
<stop stop-color="#4949FC"/>
<stop offset="1" stop-color="#7D7DFF"/>
</linearGradient>
<linearGradient id="paint6_linear_160_1270" x1="61.9625" y1="27.9165" x2="62.7648" y2="32.212" gradientUnits="userSpaceOnUse">
<stop stop-color="#4949FC"/>
<stop offset="1" stop-color="#7D7DFF"/>
</linearGradient>
<linearGradient id="paint7_linear_160_1270" x1="61.9675" y1="22.4314" x2="62.7728" y2="26.7353" gradientUnits="userSpaceOnUse">
<stop stop-color="#4949FC"/>
<stop offset="1" stop-color="#7D7DFF"/>
</linearGradient>
<linearGradient id="paint8_linear_160_1270" x1="61.967" y1="49.8772" x2="62.7675" y2="54.1682" gradientUnits="userSpaceOnUse">
<stop stop-color="#4949FC"/>
<stop offset="1" stop-color="#7D7DFF"/>
</linearGradient>
<linearGradient id="paint9_linear_160_1270" x1="61.9712" y1="16.9372" x2="62.7706" y2="21.2234" gradientUnits="userSpaceOnUse">
<stop stop-color="#4949FC"/>
<stop offset="1" stop-color="#7D7DFF"/>
</linearGradient>
<linearGradient id="paint10_linear_160_1270" x1="61.966" y1="5.95986" x2="62.768" y2="10.2538" gradientUnits="userSpaceOnUse">
<stop stop-color="#4949FC"/>
<stop offset="1" stop-color="#7D7DFF"/>
</linearGradient>
<linearGradient id="paint11_linear_160_1270" x1="61.962" y1="33.4115" x2="62.7643" y2="37.707" gradientUnits="userSpaceOnUse">
<stop stop-color="#4949FC"/>
<stop offset="1" stop-color="#7D7DFF"/>
</linearGradient>
<linearGradient id="paint12_linear_160_1270" x1="61.9698" y1="44.3856" x2="62.7715" y2="48.6762" gradientUnits="userSpaceOnUse">
<stop stop-color="#4949FC"/>
<stop offset="1" stop-color="#7D7DFF"/>
</linearGradient>
<linearGradient id="paint13_linear_160_1270" x1="42.431" y1="13.6054" x2="51.5898" y2="22.9091" gradientUnits="userSpaceOnUse">
<stop stop-color="#4949FC"/>
<stop offset="1" stop-color="#7D7DFF"/>
</linearGradient>
</defs>
</svg>
