<svg width="79" height="80" viewBox="0 0 79 80" fill="none" xmlns="http://www.w3.org/2000/svg">
<path d="M5.27079 31.0582C7.59449 31.455 9.2138 32.7666 10.1692 34.896C10.4849 35.5923 10.7845 36.3048 11.0517 37.0254C11.8452 39.1467 11.5942 41.1546 10.3149 43.0249C9.80484 43.7698 9.83723 44.4499 10.4769 45.0976C11.497 46.1259 12.5172 47.146 13.5373 48.1581C14.2013 48.8139 14.8733 48.8625 15.6424 48.32C17.0917 47.2999 18.6948 46.9517 20.4437 47.2513C21.6177 47.4537 22.654 48.0285 23.7309 48.482C25.9007 49.3888 27.1719 51.0486 27.601 53.3561C27.7386 54.1252 28.2568 54.6272 29.0341 54.6353C30.5724 54.6515 32.1108 54.6515 33.6491 54.6353C34.4345 54.6272 34.9364 54.1414 35.0822 53.3642C35.5113 51.0405 36.7905 49.3888 38.9766 48.4658C39.6 48.2067 40.2316 47.9638 40.8388 47.6804C41.5756 47.3322 41.948 46.725 41.9561 45.9073C41.9642 45.3 41.9561 44.6928 41.9561 44.0855C41.9561 42.9439 41.4056 42.4015 40.2639 42.4096C37.3492 42.4258 34.4345 42.4258 31.5197 42.4501C29.277 42.4662 27.1233 42.029 25.083 41.0817C18.5815 38.0779 15.1324 31.2849 16.525 24.2653C17.8771 17.4318 23.9899 12.3148 30.9529 12.2257C34.0944 12.1853 37.2439 12.2338 40.3854 12.2338C41.357 12.2338 41.9399 11.6428 41.948 10.6631C41.948 10.0316 41.948 9.39196 41.948 8.76043C41.948 7.9022 41.5432 7.29496 40.774 6.93872C40.2235 6.68773 39.6648 6.46102 39.098 6.23432C36.9363 5.37609 35.6004 3.80536 35.1469 1.53834C34.9931 0.777266 34.6854 0.242896 33.9325 0C32.2079 0 30.4753 0 28.7507 0C28.0301 0.242896 27.6901 0.74488 27.5443 1.49786C27.1071 3.7244 25.7955 5.27083 23.7147 6.17764C23.0588 6.46102 22.403 6.7444 21.7391 7.00349C19.6016 7.82124 17.5613 7.61882 15.6586 6.33148C14.8652 5.79711 14.2093 5.83759 13.5211 6.5096C12.5172 7.51357 11.5132 8.50944 10.5173 9.51341C9.83723 10.1935 9.79674 10.8574 10.3392 11.6428C11.3756 13.1487 11.7237 14.8004 11.3594 16.606C11.1408 17.6585 10.6388 18.6058 10.234 19.5855C9.31905 21.812 7.67546 23.1641 5.28698 23.5852C4.5583 23.7147 4.06441 24.1924 4.04822 24.9211C4.01583 26.5242 4.01583 28.1354 4.04822 29.7385C4.04822 30.4429 4.5502 30.9287 5.27079 31.0582Z" fill="url(#paint0_linear_160_1243)"/>
<path d="M76.6579 61.2419C75.0385 60.4809 73.4111 59.7198 71.7837 58.983C70.9174 58.5944 70.0592 58.6835 69.2819 59.2097C68.9904 59.404 68.7961 59.3717 68.5208 59.2421C65.8409 57.9791 63.1529 56.7241 60.4729 55.4691C57.1209 53.8984 53.6232 53.4531 49.9798 54.0603C48.2634 54.3437 46.6683 54.9995 45.0571 55.6068C41.2194 57.0561 37.3735 58.5053 33.5358 59.9627C32.0298 60.5376 30.7425 61.3877 30.0948 62.9422C29.9733 63.2337 29.8843 63.3228 29.5523 63.2256C28.0868 62.8046 26.6133 62.424 25.1478 62.0273C18.6868 60.2785 12.2257 58.5296 5.76472 56.7889C3.96729 56.3031 2.06461 56.9994 0.947293 58.481C0.429116 59.1611 0.18622 59.9141 0 60.7076V61.8411C0.21051 62.7965 0.615335 63.6547 1.20638 64.4563C1.43308 64.7639 1.82172 64.7801 1.98365 65.1283C2.1051 65.193 2.21845 65.274 2.33989 65.3307C2.34799 65.3388 2.35609 65.3388 2.36418 65.3469C3.61105 65.9703 4.83362 66.5776 6.06429 67.1929C12.2581 70.2939 18.4439 73.3948 24.6377 76.4958C26.4351 77.3945 28.184 78.3904 30.0381 79.1514C33.4953 80.5683 37.0335 80.6655 40.604 79.5563C45.1381 78.1394 49.6802 76.7306 54.2224 75.3299C56.368 74.666 58.4974 74.7469 60.6186 75.4918C60.8858 75.589 60.983 75.6942 60.9668 76.0019C60.9101 77.103 61.3797 77.9694 62.3594 78.4551C64.003 79.2648 65.679 80.0097 67.3388 80.7789C67.5088 80.8598 67.6869 80.9084 67.865 80.9732H68.7556C69.9215 80.706 70.5612 79.9125 71.0632 78.86C73.2735 74.245 75.5243 69.6542 77.759 65.0554C77.9047 64.7558 78.0181 64.4401 78.1395 64.1324V63.2418C77.8966 62.3674 77.4918 61.6387 76.6579 61.2419ZM61.2664 72.4232C58.4083 71.5083 55.5826 71.6055 52.7245 72.5204C48.2634 73.9454 43.786 75.3299 39.2924 76.682C36.1591 77.6212 33.1067 77.2812 30.1838 75.8157C23.3989 72.4151 16.6222 69.0227 9.83727 65.6222C7.9103 64.6587 5.98333 63.6952 4.05636 62.7236C3.34386 62.3674 2.98762 61.7358 3.10906 61.0557C3.27909 60.1084 4.12113 59.5903 5.1251 59.8413C6.23432 60.1246 7.33545 60.4404 8.43657 60.7319C15.6101 62.675 22.7917 64.6182 29.9652 66.5533C30.2081 66.618 30.3862 66.7233 30.5482 66.9338C31.3821 68.0592 32.5966 68.4964 33.9001 68.796C35.3332 69.1199 36.7663 68.9741 38.2075 68.8527C40.7174 68.6341 43.2354 68.4398 45.7453 68.2292C46.0935 68.1969 46.4416 68.1807 46.7898 68.1402C47.7209 68.043 48.3362 67.3386 48.2634 66.448C48.1905 65.5817 47.478 64.9825 46.5469 65.0554C43.616 65.2902 40.685 65.525 37.7541 65.776C36.4343 65.8893 35.1146 66.027 33.8354 65.5655C33.4143 65.4117 33.0095 65.2578 32.9124 64.7154C32.8476 64.3348 32.9205 64.0272 33.1714 63.7438C33.5358 63.347 33.9973 63.088 34.4912 62.9017C39.1143 61.1529 43.7374 59.404 48.3605 57.6714C49.8503 57.1127 51.4129 56.8941 52.9998 56.886C55.5097 56.8617 57.8253 57.5985 60.06 58.6915C62.076 59.6793 64.1325 60.6104 66.1648 61.5658C66.8854 61.9059 67.0392 62.3107 66.6991 63.0232C65.2984 65.9703 63.8977 68.9094 62.4889 71.8484C62.2379 72.4394 61.8736 72.6176 61.2664 72.4232ZM74.7471 64.1243C72.5772 68.5612 70.4154 73.0062 68.2618 77.4512C68.1484 77.686 68.0593 77.6941 67.8407 77.5888C66.7072 77.0545 65.5737 76.5282 64.4321 76.0181C64.1892 75.9047 64.1973 75.7995 64.2945 75.5971C66.4643 71.1602 68.618 66.7152 70.7879 62.2702C70.8284 62.1811 70.8446 62.0516 70.9822 62.0354C71.0551 62.0678 71.1279 62.1002 71.2008 62.1326C72.3262 62.6507 73.4435 63.177 74.577 63.6871C74.8118 63.7843 74.8766 63.8733 74.7471 64.1243Z" fill="url(#paint1_linear_160_1243)"/>
<path d="M51.5345 21.3344C51.073 21.804 50.5629 22.0064 49.9152 21.9983C45.705 21.9822 41.4948 21.9902 37.2846 21.9902C35.811 21.9902 34.3456 21.9902 32.872 21.9902C31.9247 21.9902 31.4065 22.5246 31.3984 23.4719C31.3984 23.7796 31.3984 24.0953 31.3984 24.403C31.4065 25.3665 31.9409 25.8928 32.9125 25.8928C35.9487 25.8928 38.9849 25.8928 42.0211 25.8928C44.9601 25.8928 47.9072 25.8766 50.8463 25.9009C51.9879 25.909 52.9028 25.5122 53.6963 24.7107C55.2994 23.0752 56.943 21.464 58.5542 19.8366C58.9509 19.4398 59.3962 19.2536 59.963 19.2536C62.3109 19.2617 64.6589 19.2617 67.0069 19.2536C67.3065 19.2536 67.4441 19.3508 67.5737 19.618C68.61 21.7716 71.0066 22.9861 73.2736 22.5327C75.7107 22.0469 77.4838 20.0714 77.6377 17.6667C77.7996 15.1244 76.1641 12.8412 73.7028 12.1692C71.2657 11.5053 68.6829 12.6793 67.5737 14.9787C67.4279 15.2782 67.2741 15.3511 66.9664 15.3511C64.3594 15.343 61.7604 15.3673 59.1533 15.3349C58.0279 15.3268 57.1211 15.7073 56.3357 16.5008C54.7488 18.1282 53.1214 19.7151 51.5345 21.3344ZM72.3668 14.7924C73.7351 14.8005 74.8444 15.9341 74.8363 17.3186C74.8282 18.7193 73.6947 19.8285 72.294 19.8123C70.9337 19.7961 69.8002 18.6464 69.8083 17.2862C69.8245 15.9017 70.9661 14.7924 72.3668 14.7924Z" fill="url(#paint2_linear_160_1243)"/>
<path d="M61.0395 36.2317C63.4118 35.6812 65.1202 33.5599 65.1606 31.1147C65.2011 28.6777 63.4847 26.4673 61.1124 25.9006C58.6753 25.3176 56.1735 26.4673 55.0886 28.7263C54.9347 29.042 54.7566 29.1149 54.4489 29.1149C50.8622 29.1068 47.2754 29.1068 43.6806 29.1068C41.0897 29.1068 38.4988 29.1068 35.9079 29.1068C34.8716 29.1068 33.8271 29.0987 32.7907 29.1068C31.9487 29.1149 31.4143 29.6655 31.3981 30.5075C31.39 30.7747 31.4143 31.05 31.3901 31.3171C31.2848 32.564 32.1511 33.0336 33.0741 33.0255C40.1829 33.0012 47.2916 33.0174 54.4004 33.0093C54.7404 33.0093 54.9347 33.0741 55.1048 33.4222C56.2059 35.6407 58.6591 36.7823 61.0395 36.2317ZM57.3232 31.0662C57.3151 29.6817 58.4486 28.5481 59.8412 28.5562C61.2338 28.5562 62.3511 29.6736 62.3511 31.0743C62.3511 32.4588 61.2014 33.5923 59.825 33.5842C58.4567 33.5599 57.3313 32.4264 57.3232 31.0662Z" fill="url(#paint3_linear_160_1243)"/>
<path d="M32.8801 14.8732C31.9409 14.8732 31.4065 15.4076 31.3984 16.3549C31.3984 16.6545 31.3984 16.946 31.3984 17.2455C31.4065 18.2657 31.9166 18.7758 32.953 18.7758C34.9366 18.7758 36.9203 18.7758 38.9039 18.7758C40.8066 18.7758 42.7093 18.7596 44.612 18.7839C45.8021 18.8001 46.7413 18.3628 47.5348 17.4803C48.6845 16.193 49.8747 14.938 51.0325 13.6588C51.2025 13.4725 51.3402 13.424 51.5912 13.4887C52.3522 13.675 53.1133 13.6588 53.8744 13.4968C56.5543 12.9301 58.3437 10.323 57.9712 7.52161C57.6231 4.92262 55.1698 2.8742 52.5385 3.00375C48.6116 3.18997 46.2556 7.19774 48.0044 10.7278C48.1259 10.9707 48.0854 11.1084 47.9153 11.2865C46.9923 12.2743 46.0774 13.262 45.1706 14.266C44.782 14.6951 44.3205 14.8813 43.7375 14.8813C40.1184 14.8732 36.4992 14.8732 32.8801 14.8732ZM52.749 5.81324C54.1335 5.82943 55.2427 6.97104 55.2184 8.37984C55.1941 9.74815 54.0525 10.8493 52.6761 10.8331C51.3078 10.8169 50.1905 9.67528 50.1986 8.30697C50.2067 6.91437 51.3483 5.79705 52.749 5.81324Z" fill="url(#paint4_linear_160_1243)"/>
<path d="M47.8182 49.0243C49.0975 50.6922 50.8625 51.3804 52.9271 51.0161C55.9229 50.4898 57.8174 47.656 57.2183 44.7332C56.6192 41.8103 53.7773 39.9886 50.8059 40.6363C50.5468 40.693 50.4172 40.6202 50.2634 40.442C49.4052 39.4543 48.5145 38.4989 47.6644 37.503C46.9033 36.6124 45.9479 36.1914 44.7901 36.1995C42.847 36.2076 40.9038 36.1995 38.9606 36.1995C36.9608 36.1995 34.9691 36.1995 32.9692 36.1995C32.4429 36.1995 31.9814 36.3209 31.6495 36.7662C31.2528 37.2925 31.2609 39.0818 31.6657 39.6C31.9895 40.021 32.4429 40.1425 32.953 40.1425C36.5965 40.1344 40.2318 40.1425 43.8752 40.1344C44.4906 40.1344 44.9602 40.3449 45.3569 40.8064C45.9237 41.4784 46.4985 42.1342 47.0976 42.7819C47.3324 43.0329 47.3648 43.2191 47.2191 43.543C46.3609 45.4781 46.5228 47.3403 47.8182 49.0243ZM52.0041 43.292C53.4048 43.292 54.5222 44.4093 54.5222 45.81C54.5141 47.1864 53.3967 48.3119 52.0284 48.3119C50.6439 48.3119 49.4942 47.1702 49.5104 45.7857C49.5185 44.4012 50.6277 43.3001 52.0041 43.292Z" fill="url(#paint5_linear_160_1243)"/>
<path d="M71.7918 63.9949C71.1198 63.9949 70.5854 64.5373 70.5854 65.2013C70.5854 65.8652 71.1198 66.4157 71.7837 66.4319C72.4476 66.44 73.0306 65.8571 73.0225 65.1932C73.0063 64.5292 72.4557 63.9949 71.7918 63.9949Z" fill="url(#paint6_linear_160_1243)"/>
<defs>
<linearGradient id="paint0_linear_160_1243" x1="5.92451" y1="43.7016" x2="47.1605" y2="22.2778" gradientUnits="userSpaceOnUse">
<stop stop-color="#4949FC"/>
<stop offset="1" stop-color="#7D7DFF"/>
</linearGradient>
<linearGradient id="paint1_linear_160_1243" x1="3.9148" y1="75.5303" x2="23.0684" y2="34.3099" gradientUnits="userSpaceOnUse">
<stop stop-color="#4949FC"/>
<stop offset="1" stop-color="#7D7DFF"/>
</linearGradient>
<linearGradient id="paint2_linear_160_1243" x1="33.7156" y1="23.1136" x2="42.5989" y2="1.01762" gradientUnits="userSpaceOnUse">
<stop stop-color="#4949FC"/>
<stop offset="1" stop-color="#7D7DFF"/>
</linearGradient>
<linearGradient id="paint3_linear_160_1243" x1="33.0737" y1="34.242" x2="40.0662" y2="17.5938" gradientUnits="userSpaceOnUse">
<stop stop-color="#4949FC"/>
<stop offset="1" stop-color="#7D7DFF"/>
</linearGradient>
<linearGradient id="paint4_linear_160_1243" x1="32.7322" y1="15.6223" x2="46.9049" y2="-2.2652" gradientUnits="userSpaceOnUse">
<stop stop-color="#4949FC"/>
<stop offset="1" stop-color="#7D7DFF"/>
</linearGradient>
<linearGradient id="paint5_linear_160_1243" x1="32.6581" y1="48.1242" x2="45.9406" y2="30.8103" gradientUnits="userSpaceOnUse">
<stop stop-color="#4949FC"/>
<stop offset="1" stop-color="#7D7DFF"/>
</linearGradient>
<linearGradient id="paint6_linear_160_1243" x1="70.7076" y1="65.9439" x2="72.8639" y2="64.33" gradientUnits="userSpaceOnUse">
<stop stop-color="#4949FC"/>
<stop offset="1" stop-color="#7D7DFF"/>
</linearGradient>
</defs>
</svg>
