<svg width="82" height="91" viewBox="0 0 82 91" fill="none" xmlns="http://www.w3.org/2000/svg">
<path d="M65.0272 35.8643C64.5864 28.6657 61.5565 22.771 55.9556 18.2352C51.7687 14.8563 46.939 13.075 41.5034 13.0383C37.8307 12.8914 34.3232 13.5708 30.9994 15.2052C28.2632 16.3437 25.8943 18.0148 23.856 20.1634C21.6156 22.2936 19.9445 24.8277 18.7693 27.6925C17.3002 30.9612 16.6942 34.3952 16.8962 37.9761C16.9145 38.3984 16.9145 38.8392 16.9329 39.2615C16.8962 39.5921 16.9145 39.9226 17.0614 40.2164C17.19 42.4384 17.8694 44.5135 18.8243 46.4968C20.2016 49.3431 21.9829 51.9691 23.3234 54.8522C23.856 56.4315 24.4436 57.9924 24.8292 59.6084C25.3251 61.6284 25.5087 63.6851 25.8576 65.7051C25.876 67.4497 25.8943 69.1758 25.9127 70.9204C25.9494 73.2158 26.9594 74.9053 29.0529 75.8418C29.512 76.0438 29.5854 76.3193 29.5854 76.7416C29.6038 77.5313 29.4569 78.3209 29.6956 79.1105C29.7874 80.6898 30.522 82.0671 31.8809 82.6731C33.3867 83.3525 33.5152 84.3625 33.3867 85.6664C33.3867 85.7214 33.3867 85.7949 33.3867 85.85C33.4234 88.7514 35.6454 90.9734 38.5652 90.9918C40.1261 91.0102 41.6687 90.9918 43.2296 90.9918C43.6887 90.9918 44.1478 90.9734 44.5701 90.7898C46.4983 90.3123 47.6736 89.0636 48.2428 87.2089C48.6101 85.9785 48.3714 84.7114 48.4448 83.4627C50.5016 82.7098 51.8972 81.3876 52.1176 79.0922C52.3563 78.3209 52.2277 77.5313 52.2277 76.7416C52.2277 76.2458 52.3747 76.0071 52.8337 75.7867C54.5416 74.9787 55.6066 73.6933 55.7903 71.7467C56.0657 70.2777 55.8454 68.7902 55.9188 67.3027C56.1208 63.1342 56.8921 59.0942 58.3612 55.2011C58.8019 54.3013 59.2243 53.4015 59.7017 52.52C60.5832 50.8857 61.483 49.2697 62.3828 47.6537C64.3294 44.3115 65.119 40.6939 64.9721 36.8375C65.0272 36.5437 65.0455 36.1948 65.0272 35.8643ZM53.2928 24.7543C53.2561 24.7359 53.201 24.7359 53.1643 24.7359C53.1827 24.7543 53.1827 24.7726 53.201 24.791C53.2194 24.791 53.2377 24.8094 53.2561 24.8094C52.797 25.4521 52.2277 25.801 51.4565 25.3052C50.8505 24.9195 50.8321 24.3319 51.0525 23.6892C51.181 23.3219 51.4565 23.2117 51.7503 23.1383C51.8237 23.1199 51.8972 23.1016 51.9523 23.0832C53.1092 23.3036 53.3112 23.5606 53.2928 24.7543ZM49.4916 18.1617C50.6301 18.6759 51.6401 19.4105 52.6501 19.8696C51.3096 19.6125 50.3363 19.9246 49.8405 20.8612C49.8405 20.8796 49.8588 20.8979 49.8588 20.8979C49.565 20.9714 49.2896 21.1734 49.1978 21.4121C48.4816 23.0832 47.0492 22.9546 45.6168 22.8628C45.4332 22.8445 45.2496 22.8628 45.0659 22.8628C43.7621 22.8812 43.303 23.3954 43.3581 24.7543C43.3398 25.7275 43.3214 26.7008 43.3214 27.6741C43.3214 28.0414 43.3214 28.3352 42.8072 28.3168C42.3114 28.2985 42.4032 27.9679 42.4032 27.6741C42.3849 26.609 42.3849 25.5623 42.3665 24.4972C42.4583 24.4421 42.5685 24.3686 42.6603 24.2401C42.8256 23.8728 42.7889 23.4688 42.8072 23.0648C42.8256 21.2285 42.8072 19.3921 42.8256 17.5557C42.8256 17.0416 42.8256 16.5274 43.0459 16.0499C43.2296 16.4356 43.6152 16.4539 43.9825 16.509C45.8923 16.8763 47.7287 17.3721 49.4916 18.1617ZM46.4248 41.5386C46.4248 41.8875 46.3881 42.2732 46.5534 42.5853C45.7087 42.4201 44.8272 42.5119 43.9825 42.5119C43.3214 42.5119 42.8623 42.3466 42.7338 41.6488C42.697 41.6121 42.6419 41.557 42.6052 41.5202C42.8623 41.2815 42.8439 40.9326 42.8623 40.6204C42.899 37.9393 42.899 35.2583 42.8623 32.5772C42.8623 32.2834 42.8623 31.9712 42.6787 31.7508C42.697 31.7508 42.7154 31.7508 42.7154 31.7324C43.4316 31.5121 44.1661 31.6039 44.9007 31.6039C46.2963 31.6039 46.4248 31.7324 46.4248 33.1097C46.4248 35.9377 46.4065 38.729 46.4248 41.5386ZM39.0794 42.5302C39.061 43.0077 38.8774 43.173 38.3816 42.9893C36.031 42.163 34.1763 39.0228 34.4885 36.5437C34.5987 35.6806 35.1312 34.8726 34.8925 33.9544C35.2781 33.9361 35.4618 33.6055 35.7005 33.3484C36.3249 32.5955 36.986 31.8977 37.8858 31.4386C38.8407 30.9428 39.061 31.053 39.0794 32.1181C39.0978 34.1014 39.061 36.0846 39.0978 38.0679C39.0978 38.4719 39.0059 38.931 39.4099 39.2064C39.3916 39.2064 39.3916 39.2248 39.3732 39.2248C39.0427 39.537 39.0978 39.9593 39.0978 40.345C39.0794 41.0612 39.0978 41.7957 39.0794 42.5302ZM39.3549 22.1099C39.3732 22.1283 39.3916 22.165 39.3916 22.1834C39.4283 22.2201 39.465 22.2568 39.5018 22.3119C39.4834 23.5423 39.4283 24.791 39.5018 26.0214C39.5569 26.9579 39.3916 27.5639 38.3632 27.6925C35.627 28.3903 33.6254 30.0063 32.3216 32.5037C32.2114 32.6874 32.0829 32.8526 31.991 33.0363C29.4569 38.6004 32.5603 45.1379 38.4918 46.607C39.3181 46.809 39.5385 47.1211 39.4834 47.9291C39.4099 49.233 39.4834 50.5368 39.4834 51.859C39.465 51.8773 39.4283 51.8773 39.4099 51.8957C39.2814 52.1528 39.2447 52.0793 39.2263 51.859C39.0978 50.7571 38.3999 50.2062 37.4083 49.9491C36.435 49.6921 35.4801 49.3615 34.617 48.829C33.607 48.1679 32.5603 48.0577 31.5136 48.6821C30.8158 49.0861 30.3016 48.9391 29.7323 48.3882C29.1998 47.8557 28.9427 47.3782 29.3467 46.6253C29.9343 45.5602 29.8609 44.4768 29.1998 43.4117C28.8325 42.8241 28.5203 42.163 28.3734 41.4835C28.0245 39.9777 27.2716 38.8575 25.6923 38.4535C25.1598 38.325 25.068 37.921 24.9762 37.4252C24.8109 36.4703 25.4169 35.9193 25.8943 35.2766C25.8943 35.2583 25.8943 35.2399 25.8943 35.2399C26.684 35.0563 27.3634 34.7441 27.6021 33.8259C27.9327 32.4854 28.4652 31.2366 29.1631 30.043C29.4569 29.5288 29.5671 28.9595 29.2365 28.4821C28.3734 27.1966 28.502 26.1132 29.7874 25.2134C30.1914 24.7175 30.6689 24.6808 31.2014 25.0114C32.395 25.801 33.5336 25.7275 34.7272 24.9012C35.4985 24.3686 36.4167 24.1116 37.3349 23.8728C37.7572 23.7626 38.2347 23.6708 38.4734 23.2301C38.4918 23.2301 38.5101 23.2485 38.5285 23.2668C39.1712 23.175 39.1345 22.6425 39.2447 22.2017C39.3365 22.0732 39.3181 22.0365 39.3549 22.1099ZM21.3218 43.8708C20.8627 42.769 20.7893 41.557 20.2567 40.4919C20.22 40.4735 20.2016 40.4368 20.1649 40.4184C20.3669 40.1797 20.2934 39.8675 20.2934 39.5737C20.2934 37.6823 20.1649 35.7908 20.4403 33.8994C20.624 32.5955 21.1014 31.3468 21.2667 30.043C21.2667 29.9879 21.2483 29.9328 21.2483 29.8777C21.5605 29.7492 21.6523 29.3819 21.7809 29.0881C22.7358 26.8661 24.0029 24.8461 25.6556 23.0832C25.876 22.8445 26.0963 22.5874 26.1514 22.2385C26.4636 22.2936 26.684 22.0365 26.9043 21.8161C28.5203 20.2736 30.3751 19.0983 32.3767 18.125C32.6705 17.9781 32.9643 17.8496 33.0378 17.519C33.0561 17.5374 33.0745 17.5557 33.1112 17.5741C33.4969 17.7027 33.8274 17.5374 34.1763 17.4272C35.5536 17.0416 36.9125 16.5641 38.3449 16.4723C38.657 16.4539 38.9876 16.4172 39.0243 16.8579C39.061 17.2252 38.8774 17.3905 38.5285 17.5007C36.986 17.9781 36.1229 19.2819 36.1412 21.0081C36.1596 21.0265 36.178 21.0448 36.1963 21.0632C35.2414 21.3386 34.3232 21.6876 33.4601 22.165C33.0745 22.367 32.744 22.3854 32.34 22.2017C29.4752 20.8796 29.8425 21.0448 27.6389 23.2301C27.6021 23.2668 27.5838 23.3403 27.5471 23.377C26.9778 23.9279 26.4085 24.4788 25.8392 25.0114C25.2332 25.5806 25.0496 26.2968 25.4903 26.9946C26.3167 28.2985 26.2432 29.5105 25.5271 30.8694C25.1047 31.6774 24.8476 32.5221 23.9845 32.871C23.8743 32.8159 23.7642 32.7424 23.6356 32.6874C22.1114 32.8526 21.3585 33.6055 21.3034 35.0746C21.2667 36.3233 21.3034 37.5904 21.2851 38.8392C21.2667 40.1246 21.7992 40.9877 23.048 41.4101C23.5622 41.5937 24.26 41.6672 24.4803 42.163C25.0863 43.577 26.2983 44.8808 25.2516 46.6621C24.5538 47.8373 24.7925 48.6453 25.7474 49.637C26.4636 50.3899 27.2165 51.106 27.9511 51.8406C29.512 53.3831 29.9711 53.475 31.991 52.5384C32.3583 52.3731 32.7256 52.0977 33.1112 52.2813C34.5069 52.9424 36.3249 53.1077 36.6921 55.1093C36.839 55.899 37.4267 56.4315 38.1796 56.5784C38.9692 56.7437 39.1529 57.1844 39.1161 57.8822C39.0978 58.3046 39.0978 58.7453 39.1161 59.1677C39.1712 61.3529 39.0059 63.5382 39.1896 65.7235C38.859 65.5582 38.4918 65.5949 38.1245 65.5949C35.572 65.5766 33.001 65.5949 30.4485 65.5766C29.3651 65.5582 29.2181 65.3746 29.0896 64.3095C28.8692 62.3446 28.6305 60.3797 28.0061 58.4882C27.9327 58.4148 27.8592 58.3229 27.7858 58.2495C27.9878 57.9189 27.8409 57.5333 27.7307 57.2028C27.0512 54.9257 26.1698 52.722 25.0129 50.6286C23.7642 48.425 22.2951 46.2764 21.3218 43.8708ZM45.5618 84.2156C45.525 84.5094 45.5618 84.8216 45.5618 85.1338C45.5618 87.2273 44.9741 87.9434 43.0276 88.1087C42.9541 88.1087 42.8807 88.1271 42.7889 88.1271C41.5034 88.1087 40.2363 88.1087 38.9509 88.0903C37.3532 88.072 36.6187 87.466 36.3432 85.9051C36.3616 85.1705 36.3616 84.4544 36.38 83.7198C38.051 83.7198 39.7038 83.7198 41.3749 83.7014C42.5685 83.7014 43.7805 83.6831 44.9741 83.6831C45.3965 83.6464 45.5985 83.7565 45.5618 84.2156ZM49.363 77.4211C49.3263 77.6231 49.363 77.8435 49.363 78.0638C49.3447 79.9002 48.4999 80.7265 46.6636 80.7449C46.3514 80.7449 46.0576 80.7633 45.7454 80.7816C45.727 80.7449 45.7087 80.7082 45.6903 80.6715C45.6719 80.6898 45.6719 80.7082 45.6536 80.7449C45.6536 80.7633 45.6536 80.7633 45.6536 80.7816H39.5936H39.2998C37.9041 80.7633 36.5085 80.7633 35.1129 80.7449C33.4601 80.7265 32.597 79.8818 32.5603 78.2291C32.542 77.6231 32.542 77.0171 32.542 76.4111C33.3683 76.3927 34.1947 76.3376 35.0027 76.3376C36.2147 76.3376 37.4267 76.3376 38.6387 76.3376C41.8523 76.3376 45.0659 76.3376 48.2796 76.3009C49.2161 76.2826 49.4916 76.558 49.363 77.4211ZM53.0357 70.0573C52.9806 70.3878 53.0357 70.7367 53.0174 71.0673C52.9256 72.4629 52.0808 73.3077 50.6668 73.3811C50.171 73.3995 49.6936 73.4178 49.1978 73.4178C49.1794 73.3811 49.161 73.3627 49.1427 73.3444C49.1243 73.3627 49.1059 73.3995 49.0876 73.4178H36.9309H36.7289C35.0027 73.3995 33.2765 73.3995 31.532 73.3811C29.7507 73.3627 28.906 72.518 28.8692 70.7735C28.8692 70.2226 28.8509 69.6533 28.8509 69.1024C28.9243 69.1575 28.9794 69.2126 29.0529 69.2493C28.9978 69.1758 28.9427 69.1024 28.8509 69.0289C29.1814 69.0106 29.512 68.9555 29.8609 68.9555C37.2247 68.9555 44.5885 68.9738 51.9523 68.9187C52.8888 68.9187 53.1643 69.1942 53.0357 70.0573ZM59.7201 45.799C58.453 48.0026 57.1308 50.1879 56.0106 52.4833C55.8637 52.7771 55.6985 53.1077 55.9005 53.4015C55.8637 53.4199 55.8454 53.4199 55.8086 53.4382C55.5516 53.6219 55.3863 53.879 55.2761 54.1544C53.9723 57.2395 53.3479 60.5082 52.8888 63.7953C52.8521 64.1075 52.8705 64.438 53.1276 64.6584C53.1092 64.6584 53.0908 64.6768 53.0725 64.6951C52.7419 65.1358 52.4665 65.6133 51.8054 65.6133C49.1243 65.6317 46.4248 65.6317 43.7438 65.6133C43.1561 65.6133 42.8439 65.3011 42.8256 64.7135C42.8072 64.1626 42.8256 63.6117 42.8072 63.0608C42.7705 60.196 42.899 57.3313 42.7338 54.4666C42.6236 54.3197 42.495 54.1728 42.3665 54.0259C42.3665 51.4917 42.3849 48.9759 42.3849 46.4417C42.3849 46.1295 42.3665 45.8541 42.8439 45.8541C43.303 45.8541 43.3214 46.0928 43.303 46.4417C43.303 47.5068 43.2847 48.5719 43.303 49.637C43.3214 50.7755 43.8539 51.308 44.9925 51.3448C45.8188 51.3631 46.6452 51.3815 47.4716 51.3448C47.9858 51.3264 48.2612 51.455 48.5367 51.9508C49.5467 53.7137 51.5483 54.4115 53.403 53.7688C55.2577 53.1444 56.3412 51.5284 56.2126 49.5635C56.0841 47.6537 54.6517 46.1111 52.7052 45.7622C50.9056 45.4501 49.1059 46.4784 48.2979 48.2781C47.9307 48.5351 47.5267 48.3699 47.141 48.425C46.4432 48.5351 46.131 48.2964 46.2228 47.5435C46.2779 47.011 46.2412 46.4417 46.2412 45.8908C46.6819 45.8173 47.1594 46.001 47.5818 45.7255C48.0408 45.5235 48.5367 45.4133 48.8672 44.991C49.4916 44.4401 49.6568 43.7239 49.6752 42.9342C49.6936 41.7222 49.6752 40.4919 49.6936 39.2799C49.6936 39.0412 49.565 38.729 49.9323 38.5821C50.5567 38.325 51.6217 38.6923 52.0074 39.2983C53.1827 41.1713 55.4965 41.7773 57.4246 40.7306C59.0223 39.9226 59.8486 38.3617 59.6283 36.5253C59.4446 34.9277 58.1225 33.4586 56.5248 33.073C54.7986 32.669 53.1459 33.3301 52.0992 34.8543C51.8788 35.0379 51.7503 35.2766 51.7319 35.5704C51.0708 35.5888 50.3914 35.6072 49.7303 35.6072C49.7119 34.1197 49.7303 32.6323 49.6936 31.1448C49.6568 29.5472 48.6285 28.4821 47.0492 28.3352C46.7738 28.3168 46.5167 28.2801 46.2412 28.2434C46.2412 27.6006 46.2412 26.9579 46.2412 26.3335C46.2412 26.1315 46.2045 25.9295 46.4983 25.8377C47.1961 25.599 48.1878 25.9295 48.5918 26.5355C50.2445 29.1248 53.9356 29.1248 55.5332 26.5539C55.6434 26.5539 55.7536 26.5355 55.8821 26.4988C56.7819 25.5623 56.8554 23.8912 56.0474 22.5506C56.3596 22.9914 56.6166 23.4688 56.9472 23.8912C59.2977 26.7926 60.7852 30.1164 61.4463 33.7892C61.5014 34.1197 61.5381 34.4503 61.8319 34.6706C61.6299 34.9277 61.6483 35.2583 61.6483 35.5704C61.887 36.6355 61.9788 37.719 61.6483 38.7841C61.4463 40.5837 61.1708 42.3833 60.4546 44.0728C60.3077 44.4217 60.1425 44.789 60.1792 45.2113C60.2159 45.2481 60.2343 45.2848 60.271 45.3399C60.0323 45.3582 59.867 45.5602 59.7201 45.799ZM51.0341 49.3799C51.3463 48.7922 51.8054 48.4984 52.4481 48.7004C53.1276 48.9024 53.4214 49.4166 53.2928 50.1144C53.1643 50.7755 52.7052 51.0877 52.0441 51.0326C51.9523 51.0326 51.8605 50.9959 51.787 50.9775C51.6217 50.9224 51.4565 50.8306 51.2912 50.7755C51.2545 50.7204 51.1994 50.6653 51.1627 50.6102C51.1076 50.4817 51.0708 50.3531 51.0157 50.2246C50.9056 49.9491 50.8688 49.6737 51.0341 49.3799ZM56.1759 38.1781C56.1208 38.2148 56.0657 38.2515 55.9923 38.2699C54.7803 38.325 54.3946 37.9393 54.3763 36.6906C54.413 36.6355 54.4497 36.5621 54.4865 36.507C54.8905 35.9561 55.423 35.699 56.1208 36.0112C56.9472 36.4152 57.0206 37.6455 56.1759 38.1781Z" fill="url(#paint0_linear_160_1255)"/>
<path d="M40.9156 8.2269C41.7787 8.24526 42.403 7.6209 42.4214 6.64762C42.4397 5.8029 42.4214 4.93981 42.4214 4.09508C42.4214 3.25036 42.4397 2.38727 42.4214 1.54254C42.3847 0.624362 41.7787 0 40.9523 0C40.1259 0 39.5016 0.624362 39.5016 1.54254C39.4832 3.25036 39.4832 4.95817 39.5016 6.66599C39.5016 7.60253 40.0892 8.20853 40.9156 8.2269Z" fill="url(#paint1_linear_160_1255)"/>
<path d="M58.104 12.8179C58.508 12.7995 58.9487 12.6343 59.2058 12.2303C60.1791 10.6143 61.134 8.97992 62.0338 7.32719C62.4195 6.62937 62.0889 5.80301 61.3911 5.4541C60.6566 5.08683 59.9587 5.23374 59.5364 5.91319C58.5447 7.52919 57.5898 9.14519 56.7267 10.8163C56.2493 11.7345 57.0022 12.7995 58.104 12.8179Z" fill="url(#paint2_linear_160_1255)"/>
<path d="M6.72281 42.4018C7.60426 42.3834 8.21026 41.8141 8.26535 41.0245C8.30208 40.2532 7.71444 39.5187 6.86972 39.5003C5.05172 39.4452 3.21536 39.4452 1.379 39.5003C0.515911 39.5187 -0.0349971 40.1981 0.00173009 41.0245C0.0384573 41.8325 0.607729 42.3834 1.50755 42.4018C2.35227 42.4201 3.21536 42.4018 4.06009 42.4018C4.94154 42.4018 5.82299 42.4201 6.72281 42.4018Z" fill="url(#paint3_linear_160_1255)"/>
<path d="M10.5977 56.7983C9.07349 57.6246 7.56767 58.5061 6.08022 59.4059C5.29058 59.8833 5.07022 60.7281 5.49258 61.4443C5.91495 62.1604 6.74131 62.3808 7.56767 61.9217C9.09185 61.077 10.5793 60.1955 12.0851 59.3141C12.5626 59.0386 12.8013 58.5979 12.8564 58.0837C12.838 56.9084 11.6444 56.229 10.5977 56.7983Z" fill="url(#paint4_linear_160_1255)"/>
<path d="M75.715 59.3326C74.301 58.4879 72.8686 57.6799 71.4362 56.8719C71.1792 56.725 70.8853 56.6515 70.6466 56.5597C69.8937 56.6331 69.3612 56.9453 69.1408 57.6431C68.9204 58.3961 69.2326 58.9653 69.857 59.351C71.3261 60.214 72.7951 61.0771 74.2826 61.9035C75.1457 62.381 76.0088 62.1606 76.4128 61.426C76.8535 60.6731 76.578 59.8468 75.715 59.3326Z" fill="url(#paint5_linear_160_1255)"/>
<path d="M22.5889 12.0282C23.0847 12.8362 23.911 13.0382 24.6272 12.6159C25.3434 12.1935 25.5454 11.3672 25.0863 10.5408C24.2599 9.05334 23.3969 7.58425 22.5338 6.11516C22.2399 5.60098 21.8176 5.2888 21.1932 5.30716C20.0363 5.30716 19.3752 6.44571 19.9812 7.52916C20.8076 9.03498 21.689 10.5408 22.5889 12.0282Z" fill="url(#paint6_linear_160_1255)"/>
<path d="M70.5913 25.3239C70.7198 25.3055 70.8851 25.3239 71.0136 25.2505C72.7215 24.2772 74.466 23.3223 76.1371 22.2572C76.7798 21.8532 76.7798 21.1003 76.4125 20.4575C76.0269 19.7781 75.3107 19.5394 74.6864 19.8699C72.9602 20.7697 71.2891 21.7614 69.6364 22.7897C69.1222 23.1203 68.9569 23.7079 69.1956 24.3323C69.416 24.975 69.8751 25.3055 70.5913 25.3239Z" fill="url(#paint7_linear_160_1255)"/>
<path d="M12.177 22.6603C10.5793 21.7238 8.98169 20.7689 7.34733 19.8874C6.64951 19.5018 5.78642 19.8323 5.47424 20.5118C5.12533 21.2279 5.21715 21.9441 5.8966 22.3665C7.5126 23.3581 9.1286 24.313 10.7997 25.1761C11.7179 25.6536 12.8013 24.919 12.8197 23.8539C12.8013 23.3949 12.6177 22.9358 12.177 22.6603Z" fill="url(#paint8_linear_160_1255)"/>
<path d="M80.5812 39.5003C78.7265 39.4452 76.8718 39.4452 74.9987 39.5003C74.1907 39.5187 73.6398 40.2348 73.6582 40.9694C73.6765 41.759 74.2825 42.365 75.1456 42.3834C76.0271 42.4201 76.9085 42.3834 77.79 42.3834C78.6714 42.3834 79.5529 42.4018 80.4343 42.3834C81.2974 42.365 81.83 41.8325 81.8851 41.0612C81.9585 40.2532 81.4443 39.537 80.5812 39.5003Z" fill="url(#paint9_linear_160_1255)"/>
<defs>
<linearGradient id="paint0_linear_160_1255" x1="36.6775" y1="90.7457" x2="70.7799" y2="28.3162" gradientUnits="userSpaceOnUse">
<stop stop-color="#4949FC"/>
<stop offset="1" stop-color="#7D7DFF"/>
</linearGradient>
<linearGradient id="paint1_linear_160_1255" x1="40.698" y1="8.20047" x2="44.9668" y2="3.6775" gradientUnits="userSpaceOnUse">
<stop stop-color="#4949FC"/>
<stop offset="1" stop-color="#7D7DFF"/>
</linearGradient>
<linearGradient id="paint2_linear_160_1255" x1="58.8912" y1="12.7933" x2="61.85" y2="6.2792" gradientUnits="userSpaceOnUse">
<stop stop-color="#4949FC"/>
<stop offset="1" stop-color="#7D7DFF"/>
</linearGradient>
<linearGradient id="paint3_linear_160_1255" x1="3.40097" y1="42.4003" x2="3.76518" y2="39.3768" gradientUnits="userSpaceOnUse">
<stop stop-color="#4949FC"/>
<stop offset="1" stop-color="#7D7DFF"/>
</linearGradient>
<linearGradient id="paint4_linear_160_1255" x1="8.39789" y1="62.1438" x2="9.75055" y2="56.6913" gradientUnits="userSpaceOnUse">
<stop stop-color="#4949FC"/>
<stop offset="1" stop-color="#7D7DFF"/>
</linearGradient>
<linearGradient id="paint5_linear_160_1255" x1="72.1762" y1="62.1382" x2="73.5459" y2="56.6633" gradientUnits="userSpaceOnUse">
<stop stop-color="#4949FC"/>
<stop offset="1" stop-color="#7D7DFF"/>
</linearGradient>
<linearGradient id="paint6_linear_160_1255" x1="22.0475" y1="12.8064" x2="24.9962" y2="6.32679" gradientUnits="userSpaceOnUse">
<stop stop-color="#4949FC"/>
<stop offset="1" stop-color="#7D7DFF"/>
</linearGradient>
<linearGradient id="paint7_linear_160_1255" x1="72.2036" y1="25.3056" x2="73.5717" y2="19.8249" gradientUnits="userSpaceOnUse">
<stop stop-color="#4949FC"/>
<stop offset="1" stop-color="#7D7DFF"/>
</linearGradient>
<linearGradient id="paint8_linear_160_1255" x1="8.37906" y1="25.3065" x2="9.75162" y2="19.8283" gradientUnits="userSpaceOnUse">
<stop stop-color="#4949FC"/>
<stop offset="1" stop-color="#7D7DFF"/>
</linearGradient>
<linearGradient id="paint9_linear_160_1255" x1="77.0452" y1="42.3901" x2="77.4084" y2="39.3771" gradientUnits="userSpaceOnUse">
<stop stop-color="#4949FC"/>
<stop offset="1" stop-color="#7D7DFF"/>
</linearGradient>
</defs>
</svg>
