<svg width="94" height="91" viewBox="0 0 94 91" fill="none" xmlns="http://www.w3.org/2000/svg">
<path d="M15.5784 0.19043C14.3499 0.623288 13.0629 0.91576 11.9164 1.5007C9.91573 2.51851 8.48837 4.14465 7.529 6.19195C6.86212 7.60751 6.54623 9.09327 6.54623 10.6492C6.54623 12.7901 6.53453 14.9427 6.55793 17.0836C6.55793 17.5867 6.40584 17.9727 6.04315 18.3237C2.69705 21.5643 0.731506 25.5302 0.16993 30.1395C-0.590553 36.4569 1.19949 42.0256 5.59856 46.6584C6.27714 47.372 6.56963 48.0622 6.56963 49.0566C6.53454 61.3755 6.54623 73.7061 6.54623 86.0251C6.54623 87.2768 6.55793 88.5169 6.55793 89.7687C6.55793 90.6578 6.85043 90.9737 7.7396 90.9854C8.88617 91.0088 10.0444 90.9971 11.191 90.9971C25.3827 90.9971 39.5743 90.9971 53.7777 90.9971C54.0702 90.9971 54.3627 91.0088 54.6552 90.962C55.2519 90.8567 55.5093 90.5291 55.5093 89.9091C55.5093 89.4762 55.521 89.0551 55.4976 88.6222C55.4742 88.2128 55.6614 88.049 56.0592 88.0724C56.258 88.0841 56.4452 88.0724 56.6441 88.0724C65.454 88.0724 74.2755 88.0841 83.0853 88.0607C86.3496 88.049 89.0756 86.7738 91.1932 84.2819C92.7844 82.375 93.615 80.1639 93.615 77.6721C93.6267 67.5759 93.6267 57.4681 93.6267 47.372C93.6267 47.1029 93.6267 46.8221 93.6033 46.5531C93.5448 46.0383 93.147 45.6639 92.6791 45.6756C92.1643 45.6756 91.8133 45.9213 91.7314 46.4478C91.6729 46.8338 91.6378 47.2199 91.6378 47.606C91.6378 57.55 91.6261 67.494 91.6378 77.4381C91.6378 78.9589 91.3336 80.3862 90.5848 81.6965C88.865 84.7031 85.671 86.5047 82.0441 85.99C78.4406 85.4752 76.1007 83.3577 74.9541 79.9416C74.6967 79.1812 74.5914 78.3389 74.5914 77.52C74.568 56.5205 74.5797 35.521 74.568 14.5215C74.568 13.9132 74.7669 13.7611 75.3402 13.7728C80.5114 13.7962 85.671 13.7845 90.8422 13.7845C91.6261 13.7845 91.6378 13.7962 91.6378 14.6268C91.6378 23.5414 91.6378 32.4442 91.6378 41.3588C91.6378 41.6512 91.6378 41.9437 91.6846 42.2362C91.7782 42.786 92.1409 43.0551 92.6674 43.02C93.2055 42.9849 93.5331 42.6924 93.615 42.1543C93.6384 41.9788 93.6384 41.8033 93.6384 41.6278C93.6384 32.3038 93.6384 22.9915 93.6384 13.6675C93.6384 13.4102 93.6501 13.1645 93.6267 12.9071C93.5916 12.2403 93.264 11.9127 92.6089 11.8776C92.41 11.8659 92.2228 11.8776 92.0239 11.8776C86.4899 11.8776 80.9443 11.8776 75.4104 11.8776C74.568 11.8776 74.5563 11.8776 74.568 11.0353C74.6499 7.92338 73.5501 5.25604 71.374 3.08005C69.8881 1.59429 68.0513 0.728578 65.9922 0.319117C65.8401 0.284021 65.688 0.248924 65.5476 0.202129C48.8756 0.19043 32.227 0.19043 15.5784 0.19043ZM8.46497 49.2087C8.90956 49.5012 9.17866 49.7118 9.48285 49.8638C10.8049 50.5307 12.0919 51.2911 13.4724 51.7942C16.3271 52.8354 19.2989 53.1629 22.3291 52.8471C25.7337 52.4844 28.8458 51.3262 31.6654 49.4193C31.9462 49.2204 32.1451 49.2321 32.3674 49.4661C33.1863 50.2967 34.0053 51.1273 34.8243 51.9579C35.0349 52.1685 35.0466 52.3206 34.8243 52.5312C33.7362 53.5958 32.6716 54.6721 31.6069 55.7484C31.0336 56.3333 31.0102 56.8481 31.5718 57.4213C32.578 58.4508 33.5958 59.4569 34.6137 60.463C35.07 60.9076 35.6316 60.9076 36.1347 60.4981C36.2399 60.4162 36.3335 60.3109 36.4271 60.2173C37.1525 59.5037 37.1525 59.5037 37.8779 60.229C42.4642 64.815 47.0621 69.4127 51.6484 73.9986C52.678 75.0281 52.678 75.0281 51.7888 76.1395C51.3442 76.6894 51.3559 77.169 51.8473 77.7072C52.1983 78.0815 52.5376 78.4559 52.9236 78.7835C53.4501 79.2046 53.5905 79.7194 53.5788 80.3745C53.5554 82.8898 53.5671 85.405 53.5671 87.9203C53.5671 88.9849 53.5671 88.9849 52.5259 88.9849C40.6507 88.9849 28.7756 88.9849 16.9004 88.9849C14.3499 88.9849 11.7877 88.9849 9.23715 88.9849C8.46498 88.9849 8.42988 88.9498 8.42988 88.201C8.42988 87.6395 8.44158 87.0663 8.44158 86.5047C8.44158 74.3379 8.44158 62.1711 8.44158 50.0042C8.46498 49.8053 8.46497 49.5948 8.46497 49.2087ZM76.8611 85.99C76.4984 86.0251 76.2879 86.0602 76.0773 86.0602C69.4085 86.0602 62.7397 86.0602 56.0709 86.0719C55.6614 86.0719 55.5093 85.9081 55.5093 85.5337C55.5093 84.2234 55.4976 82.9249 55.521 81.6146C55.521 81.4508 55.6965 81.2636 55.8369 81.1466C56.1177 80.9243 56.4803 80.784 56.7377 80.5266C60.4816 76.8064 64.2138 73.0627 67.946 69.3308C68.8586 68.4183 68.8352 67.8801 67.9109 66.991C67.1387 66.254 66.3782 65.4935 65.6412 64.7097C64.7052 63.7153 64.0851 63.7153 63.1725 64.7448C62.6812 65.3064 62.6461 65.3064 62.1313 64.7916C60.1072 62.756 58.1183 60.7087 56.0709 58.7082C55.6029 58.2636 55.4859 57.8191 55.4859 57.2224C55.4976 52.7418 55.4976 48.2611 55.4976 43.7687C55.4976 41.3705 55.4976 38.9722 55.4976 36.5739C55.4976 36.1762 55.5561 35.9071 56.0358 35.8369C56.4803 35.7667 56.726 35.4508 56.7962 34.9946C56.8781 34.4798 56.9366 33.9417 57.1004 33.4503C57.1706 33.2163 57.4046 32.9824 57.6386 32.8771C58.4342 32.5144 59.2532 32.1985 60.0721 31.8944C60.271 31.8242 60.5752 31.7891 60.7507 31.8944C61.1719 32.1284 61.5463 32.4325 61.9441 32.725C62.5057 33.1345 62.9619 33.1579 63.4767 32.7016C64.0968 32.1517 64.6818 31.5551 65.2551 30.9468C65.6412 30.5373 65.6412 30.0694 65.3136 29.6131C65.0796 29.2855 64.8573 28.9346 64.5999 28.607C64.2957 28.2092 64.1436 27.8349 64.4946 27.3552C64.7052 27.0627 64.9158 26.7118 64.9626 26.3608C65.1615 24.8283 66.1209 24.3369 67.5248 24.3018C68.0045 24.2901 68.3204 23.9508 68.3789 23.4829C68.4491 22.9447 68.4608 22.3949 68.4608 21.8567C68.4725 19.9615 68.414 19.8679 66.5303 19.6106C65.8401 19.517 65.3604 19.3181 65.2668 18.546C65.2317 18.2301 65.1147 17.8791 64.9158 17.6217C64.0266 16.4636 64.3191 15.5043 65.2668 14.5332C65.6997 14.0887 65.6295 13.492 65.2551 13.106C64.7286 12.5561 64.1904 12.018 63.6522 11.4915C63.114 10.9534 62.5642 10.9183 61.9324 11.3746C61.5697 11.6319 61.2304 11.9478 60.8326 12.1467C60.6103 12.252 60.2827 12.2637 60.0487 12.1818C59.534 11.9946 59.0777 11.5968 58.5629 11.5149C57.3344 11.3161 56.9132 10.5907 56.8664 9.44424C56.8547 9.06987 56.6558 8.59022 56.375 8.37964C55.9656 8.06377 56.0124 7.81809 56.1645 7.44373C57.7088 3.74689 61.5229 1.61769 65.4891 2.24943C68.9873 2.79928 71.9239 5.6538 72.4387 9.15177C72.6259 10.4503 72.5674 11.784 72.5674 13.106C72.5791 34.3979 72.5674 55.6782 72.5791 76.9701C72.5791 78.4091 72.7429 79.8481 73.2693 81.2168C73.983 83.0769 75.153 84.6446 76.8611 85.99ZM53.5437 56.1695C53.0289 55.6548 52.6195 55.2336 52.21 54.8242C50.7241 53.3384 49.2266 51.8643 47.7524 50.3552C47.0387 49.6299 47.0621 49.6065 47.7992 48.8811C48.5363 48.1441 48.5831 47.7113 47.8577 46.9391C46.9451 45.9798 46.0092 45.0439 45.0498 44.1197C44.3946 43.488 43.7979 43.5231 43.1544 44.1665C42.1483 45.1726 41.1421 46.1787 40.1593 47.1965C39.8785 47.4773 39.6796 47.5124 39.3872 47.2082C38.6267 46.4244 37.8545 45.6522 37.0706 44.8918C36.8132 44.6344 36.7547 44.4239 36.977 44.0846C39.0011 41.0546 40.1593 37.7438 40.4284 34.0938C40.639 31.2158 40.2412 28.4432 39.2585 25.7642C37.5854 21.1899 34.602 17.6685 30.3901 15.1884C27.5822 13.5271 24.5286 12.638 21.2878 12.4742C16.9823 12.252 12.981 13.3166 9.31905 15.6212C9.06166 15.785 8.81597 15.9488 8.50008 16.136C8.47668 15.902 8.44158 15.7733 8.44158 15.6446C8.46498 13.7611 8.45328 11.8659 8.54688 9.98239C8.75747 5.6772 12.4897 2.08565 16.8302 2.08565C30.3199 2.06225 43.8213 2.07395 57.311 2.07395C57.4514 2.07395 57.5801 2.10904 57.7673 2.13244C55.9422 3.6182 54.6435 5.39643 53.9766 7.57242C53.8596 7.94678 53.7075 8.13396 53.298 8.13396C52.678 8.13396 52.327 8.47323 52.2334 9.08157C52.1515 9.56123 52.1164 10.0526 51.976 10.5205C51.9058 10.7545 51.6835 11.0002 51.4612 11.1055C50.6773 11.4798 49.8583 11.784 49.0628 12.1467C48.7469 12.2988 48.4895 12.3339 48.197 12.1116C47.8109 11.8074 47.4248 11.5149 47.0153 11.2576C46.4186 10.8715 46.0092 10.9066 45.4827 11.3863C44.9328 11.901 44.3946 12.4508 43.8681 13.0007C43.4001 13.492 43.3767 13.9834 43.7745 14.5332C44.0553 14.931 44.3946 15.2937 44.6286 15.7148C44.7339 15.902 44.7456 16.2179 44.6637 16.4285C44.4882 16.8964 44.1021 17.3293 44.0436 17.8089C43.8681 19.2947 42.9204 19.6691 41.6452 19.7275C41.0719 19.7509 40.6741 20.0902 40.6507 20.6869C40.6156 21.576 40.6156 22.4768 40.6507 23.3659C40.6741 23.9274 41.0602 24.2199 41.6101 24.3018C42.0664 24.372 42.5344 24.489 42.9906 24.5241C43.3884 24.5592 43.5405 24.7698 43.6692 25.1207C43.95 25.9046 44.2308 26.7001 44.6169 27.4371C44.8275 27.8466 44.7807 28.1156 44.535 28.4432C44.2308 28.8527 43.9266 29.2621 43.6692 29.695C43.3884 30.1629 43.4352 30.6192 43.8564 31.017C44.3361 31.4732 44.7924 31.9529 45.2604 32.4208C46.0209 33.1696 46.3835 33.1929 47.2493 32.5963C47.378 32.5027 47.5067 32.4208 47.6237 32.3155C48.2321 31.7072 48.8522 31.5668 49.5541 32.1751C49.6945 32.2921 49.8934 32.3974 50.0806 32.4208C51.5899 32.6314 52.2919 33.4854 52.2334 34.9946C52.2217 35.4508 52.5376 35.7667 52.9236 35.8135C53.532 35.8837 53.5554 36.2347 53.5554 36.7026C53.5437 42.9615 53.5554 49.2204 53.5554 55.4793C53.5788 55.6665 53.5554 55.8537 53.5437 56.1695ZM61.324 66.5815C59.0543 68.8511 56.9015 71.0037 54.7488 73.1446C54.1872 73.7061 54.1872 73.7061 53.6139 73.1329C48.782 68.3013 43.95 63.4579 39.1064 58.638C38.9426 58.4742 38.732 58.3572 38.5331 58.2051C38.7437 57.9712 38.849 57.8308 38.966 57.7138C41.0368 55.6431 43.1076 53.5958 45.1551 51.5017C45.5295 51.1156 45.7518 51.1273 46.1379 51.5017C50.7592 56.1461 55.3923 60.7672 60.0253 65.3882C60.4114 65.7977 60.8443 66.1604 61.324 66.5815ZM1.99507 32.8186C1.77277 22.8043 10.1614 14.5683 19.9774 14.4397C30.2263 14.311 38.4161 22.7225 38.5097 32.491C38.615 42.7158 30.1912 50.905 20.4103 50.9986C10.3018 51.0922 1.86637 42.6924 1.99507 32.8186ZM63.2193 30.081C62.6227 30.7713 62.6227 30.7713 61.9792 30.3033C61.7452 30.1278 61.5229 29.9407 61.2772 29.7769C60.8326 29.4961 60.388 29.2972 59.8732 29.6599C58.7384 30.4554 57.4865 30.9468 56.1294 31.2158C55.6497 31.3094 55.3455 31.6019 55.287 32.1401C55.2402 32.608 55.1232 33.0643 55.053 33.5205C55.0062 33.8481 54.8307 34.0587 54.5031 33.9534C54.3159 33.8949 54.0702 33.7077 54.0117 33.5322C53.8713 33.0643 53.8128 32.5846 53.7309 32.105C53.6373 31.5785 53.3214 31.2977 52.8067 31.1924C51.5314 30.9351 50.3263 30.4905 49.2734 29.7301C48.782 29.3791 48.3374 29.4259 47.8694 29.7535C47.5184 29.9992 47.1557 30.2331 46.8281 30.5022C46.5356 30.7479 46.325 30.666 46.0677 30.432C45.7869 30.1746 45.8805 29.9875 46.0677 29.7301C46.3367 29.3791 46.5941 29.0048 46.8398 28.6304C47.0855 28.256 47.1323 27.87 46.8866 27.4722C46.1262 26.2789 45.6231 24.9803 45.3072 23.5999C45.1902 23.1085 44.8626 22.8394 44.3595 22.781C43.95 22.7225 43.5522 22.6406 43.1427 22.5821C42.8269 22.5353 42.5812 22.4534 42.5929 22.0556C42.6046 21.6813 42.7684 21.5409 43.1193 21.5058C43.5639 21.4473 44.0085 21.3537 44.4414 21.2718C44.8509 21.1899 45.1902 21.0144 45.2721 20.5699C45.5412 19.166 46.0911 17.8908 46.8515 16.6975C47.144 16.2296 47.0855 15.7733 46.7579 15.3405C46.5005 15.0012 46.2665 14.6385 45.9975 14.2993C45.8103 14.0536 45.822 13.8664 46.056 13.6441C46.2899 13.4219 46.4771 13.3283 46.7579 13.5505C47.1089 13.8313 47.4716 14.0887 47.846 14.3461C48.2906 14.6502 48.7352 14.7087 49.2032 14.3812C50.2795 13.6441 51.4729 13.1645 52.7365 12.9071C53.3331 12.7784 53.6607 12.4391 53.7543 11.8542C53.8245 11.433 53.8362 10.9885 53.9883 10.5907C54.0702 10.3801 54.3744 10.2164 54.6201 10.1462C54.702 10.1228 54.9594 10.4035 55.0179 10.579C55.1349 10.93 55.1817 11.3044 55.2168 11.667C55.2753 12.4508 55.755 12.7433 56.4686 12.9773C57.5684 13.3283 58.6565 13.7845 59.686 14.311C60.271 14.6034 60.739 14.6502 61.2538 14.2759C61.5697 14.0419 61.8622 13.7494 62.2015 13.609C62.4121 13.5154 62.7514 13.5973 62.9736 13.7026C63.3129 13.8781 63.0789 14.1238 62.9386 14.3344C62.7982 14.5449 62.6461 14.7438 62.494 14.9427C62.0728 15.5394 61.7452 16.1243 62.2366 16.8613C62.9503 17.9376 63.4767 19.1075 63.6756 20.4061C63.7458 20.8506 63.9798 21.108 64.4127 21.2016C64.9041 21.3069 65.4189 21.3654 65.8986 21.5175C66.0975 21.576 66.3314 21.7632 66.3899 21.9503C66.4952 22.2779 66.2846 22.5002 65.9454 22.5704C65.5008 22.6523 65.0679 22.7225 64.6233 22.8043C64.1436 22.8862 63.7575 23.1319 63.6756 23.6233C63.4533 24.992 62.8918 26.2204 62.1664 27.3903C61.8973 27.8232 61.8856 28.256 62.2249 28.6889C62.5876 29.1217 62.8801 29.6014 63.2193 30.081ZM35.3742 58.3923C35.2455 58.287 35.1285 58.2168 35.0349 58.1232C34.6839 57.784 34.3446 57.433 33.9936 57.1171C33.6309 56.7896 33.5841 56.5205 33.9702 56.1578C35.0115 55.1634 36.0411 54.1456 37.0589 53.1278C39.317 50.8699 41.5633 48.6004 43.8096 46.3308C44.0436 46.0968 44.2308 46.0968 44.4414 46.3308C44.8041 46.7051 45.1668 47.0912 45.5529 47.4422C45.8922 47.758 45.8571 48.0037 45.5412 48.3196C42.2653 51.5836 39.0011 54.8476 35.7369 58.1115C35.6433 58.2051 35.5029 58.287 35.3742 58.3923ZM64.5882 66.3359C65.0328 66.8272 65.5476 67.3654 66.0039 67.9386C66.0858 68.0439 66.0507 68.3481 65.9571 68.465C65.6997 68.7809 65.3721 69.0383 65.0913 69.3308C62.1313 72.3023 59.183 75.2621 56.2229 78.2336C56.0475 78.4091 55.8486 78.5495 55.7082 78.6665C55.0413 78.0815 54.4329 77.5434 53.883 77.0637C57.4748 73.4488 60.973 69.9508 64.5882 66.3359ZM35.4912 46.2138C36.275 46.9742 37.094 47.7814 37.9364 48.5653C38.2874 48.8928 38.2289 49.1385 37.913 49.431C37.4333 49.8638 36.9653 50.3201 36.4154 50.8465C35.5497 49.9457 34.6722 49.0683 33.8181 48.1558C33.7479 48.0856 33.7947 47.8048 33.8766 47.7229C34.3914 47.2082 34.953 46.7168 35.4912 46.2138Z" fill="url(#paint0_linear_160_1311)"/>
<path d="M3.85532 32.8187C3.87872 41.8853 11.2729 49.1854 20.4805 49.0801C29.384 48.9865 36.7079 41.8151 36.6026 32.5379C36.509 23.5298 29.384 16.3584 20.2114 16.3233C11.1208 16.3116 3.83192 23.6935 3.85532 32.8187ZM8.46498 32.7017C8.46498 30.1513 8.45328 27.5893 8.47668 25.0389C8.47668 24.723 8.54688 24.3604 8.72237 24.1147C10.1029 22.1727 11.9164 20.6869 14.0691 19.7042C18.6788 17.6101 23.2533 17.7856 27.629 20.3711C30.7645 22.2195 32.9055 24.9219 33.9819 28.4433C35.3391 32.8889 34.719 37.0654 32.0983 40.8675C29.6998 44.3655 26.3303 46.483 22.0951 46.986C17.1812 47.5709 13.0044 45.9799 9.57644 42.4117C8.78087 41.5811 8.40648 40.6803 8.45328 39.487C8.52348 37.2291 8.46498 34.9713 8.46498 32.7017ZM6.49944 28.5369C6.49944 31.3212 6.49944 34.1172 6.49944 36.9016C5.65706 34.1055 5.62196 31.3095 6.49944 28.5369Z" fill="url(#paint1_linear_160_1311)"/>
<path d="M54.5034 27.9396C57.6506 28.0566 60.4702 25.3892 60.4936 22.0434C60.5053 18.7443 57.8378 16.0886 54.5502 16.0886C51.2275 16.0886 48.56 18.7326 48.56 22.055C48.56 25.2956 51.2158 27.9279 54.5034 27.9396ZM54.5736 18.0891C56.7731 18.0891 58.5047 19.8323 58.493 22.0317C58.4813 24.1959 56.6795 26.0327 54.5736 26.021C52.339 26.0093 50.5606 24.2193 50.5606 21.9966C50.5723 19.7621 52.3039 18.0774 54.5736 18.0891Z" fill="url(#paint2_linear_160_1311)"/>
<path d="M18.7959 26.7819C20.5157 26.7819 22.2239 26.7819 23.9437 26.7819C24.7042 26.7819 25.0669 26.4777 25.0786 25.8343C25.0903 25.1908 24.7276 24.8632 23.9788 24.8515C20.5742 24.8398 17.1579 24.8398 13.7533 24.8515C12.946 24.8515 12.5249 25.2259 12.5483 25.8693C12.5717 26.4543 13.0396 26.7819 13.7884 26.7702C15.4381 26.7702 17.1111 26.7819 18.7959 26.7819Z" fill="url(#paint3_linear_160_1311)"/>
<path d="M18.784 35.8956C20.5039 35.8956 22.212 35.9189 23.9318 35.8722C24.2711 35.8605 24.7274 35.685 24.9146 35.4276C25.3709 34.7959 24.9146 33.9886 24.119 33.9886C20.5741 33.9769 17.0291 33.9769 13.4841 33.9886C12.9108 33.9886 12.5247 34.4215 12.5364 34.9596C12.5481 35.4978 12.9342 35.8839 13.5309 35.8839C15.2741 35.8956 17.0291 35.8956 18.784 35.8956Z" fill="url(#paint4_linear_160_1311)"/>
<path d="M18.8425 40.4576C20.5156 40.4576 22.1886 40.4576 23.8617 40.4576C24.1074 40.4576 24.4701 40.4576 24.5754 40.3172C24.7977 40.0247 24.9966 39.627 25.0083 39.2643C25.02 38.8431 24.669 38.5858 24.2127 38.5624C23.8968 38.5507 23.5926 38.5507 23.2767 38.5507C20.1061 38.5507 16.9238 38.5507 13.7532 38.5624C13.4607 38.5624 13.0395 38.5975 12.8991 38.7846C12.6885 39.0537 12.5598 39.4866 12.6066 39.8141C12.6651 40.2938 13.1214 40.4576 13.5894 40.4693C15.3444 40.4576 17.0876 40.4459 18.8425 40.4576C18.8425 40.4459 18.8425 40.4459 18.8425 40.4576Z" fill="url(#paint5_linear_160_1311)"/>
<path d="M18.7842 31.3329C20.5392 31.3329 22.2941 31.3329 24.0373 31.3329C24.5287 31.3329 24.8563 31.1223 25.0084 30.6544C25.1371 30.2449 25.0435 29.8589 24.6925 29.6249C24.517 29.5079 24.2596 29.4377 24.0373 29.426C20.5509 29.4143 17.0644 29.4143 13.5779 29.426C12.911 29.426 12.5015 29.8472 12.5249 30.4087C12.5483 30.9703 12.9461 31.3212 13.5896 31.3329C15.3211 31.3329 17.0527 31.3329 18.7842 31.3329Z" fill="url(#paint6_linear_160_1311)"/>
<defs>
<linearGradient id="paint0_linear_160_1311" x1="7.01685" y1="-2.15038" x2="93.6267" y2="78.8416" gradientUnits="userSpaceOnUse">
<stop stop-color="#4949FC"/>
<stop offset="1" stop-color="#7D7DFF"/>
</linearGradient>
<linearGradient id="paint1_linear_160_1311" x1="6.30919" y1="15.4788" x2="37.4725" y2="43.7313" gradientUnits="userSpaceOnUse">
<stop stop-color="#4949FC"/>
<stop offset="1" stop-color="#7D7DFF"/>
</linearGradient>
<linearGradient id="paint2_linear_160_1311" x1="49.4542" y1="15.783" x2="60.7392" y2="26.0851" gradientUnits="userSpaceOnUse">
<stop stop-color="#4949FC"/>
<stop offset="1" stop-color="#7D7DFF"/>
</linearGradient>
<linearGradient id="paint3_linear_160_1311" x1="13.4864" y1="24.7928" x2="14.101" y2="28.3951" gradientUnits="userSpaceOnUse">
<stop stop-color="#4949FC"/>
<stop offset="1" stop-color="#7D7DFF"/>
</linearGradient>
<linearGradient id="paint4_linear_160_1311" x1="13.4773" y1="33.9303" x2="14.0799" y2="37.5023" gradientUnits="userSpaceOnUse">
<stop stop-color="#4949FC"/>
<stop offset="1" stop-color="#7D7DFF"/>
</linearGradient>
<linearGradient id="paint5_linear_160_1311" x1="13.5271" y1="38.5012" x2="14.1347" y2="42.0656" gradientUnits="userSpaceOnUse">
<stop stop-color="#4949FC"/>
<stop offset="1" stop-color="#7D7DFF"/>
</linearGradient>
<linearGradient id="paint6_linear_160_1311" x1="13.4636" y1="29.3679" x2="14.0635" y2="32.9292" gradientUnits="userSpaceOnUse">
<stop stop-color="#4949FC"/>
<stop offset="1" stop-color="#7D7DFF"/>
</linearGradient>
</defs>
</svg>
