<svg width="86" height="91" viewBox="0 0 86 91" fill="none" xmlns="http://www.w3.org/2000/svg">
<g clip-path="url(#clip0_160_1290)">
<path d="M67.4973 91C51.1658 91 34.8342 91 18.5027 91C17.8514 90.6657 17.7475 90.1179 17.7475 89.4493C17.7759 86.8029 17.757 84.1564 17.757 81.5193C17.757 80.8693 17.757 80.86 17.0773 80.86C13.4334 80.86 9.78002 80.8693 6.13611 80.86C3.50231 80.8507 1.21778 79.235 0.368167 76.7836C0.226564 76.3657 0.122722 75.9293 0 75.5021C0 52.1207 0 28.7579 0 5.38571C0.0377607 5.265 0.0849616 5.15357 0.113282 5.03286C0.623052 2.46071 2.47333 0.631429 5.07881 0.120714C5.21098 0.0928571 5.34314 0.0371429 5.4753 0C30.4634 0 55.4422 0 80.4303 0C80.5625 0.0371429 80.6946 0.0928571 80.8268 0.120714C83.5172 0.631429 85.3392 2.42357 85.8773 5.08857C85.9056 5.21857 85.9622 5.34857 86 5.47857C86 28.8136 86 52.1579 86 75.4929C85.9528 75.6043 85.8962 75.7157 85.8773 75.8364C85.1976 78.9564 82.8092 80.8507 79.5618 80.8507C76.0217 80.8507 72.4817 80.8507 68.951 80.8507C68.2619 80.8507 68.2619 80.8507 68.2619 81.5564C68.2619 84.1843 68.243 86.8121 68.2713 89.4493C68.2619 90.1179 68.1297 90.6564 67.4973 91ZM42.9906 17.5407C42.9906 17.55 42.9906 17.55 42.9906 17.5593C29.6044 17.5593 16.2088 17.5593 2.82261 17.5593C2.07684 17.5593 2.07684 17.5593 2.07684 18.2929C2.07684 29.1386 2.07684 39.9936 2.0674 50.8393C2.0674 58.7136 2.05796 66.5971 2.08628 74.4714C2.08628 75.1771 2.22788 75.9386 2.52997 76.5793C3.27574 78.1393 4.62569 78.8636 6.37212 78.8729C9.93106 78.8821 13.4806 78.8729 17.0395 78.8729C17.757 78.8729 17.757 78.8729 17.757 78.1579C17.757 69.5036 17.757 60.8586 17.757 52.2043C17.757 49.2514 17.757 46.2893 17.7475 43.3364C17.7475 43.1414 17.6909 42.8721 17.5587 42.77C16.8885 42.2593 16.6902 42.2964 16.1049 42.8721C16.0577 42.9186 16.02 42.965 15.9728 43.0021C15.5008 43.42 14.9155 43.42 14.4529 42.9743C13.4711 42.0179 12.4894 41.0521 11.517 40.0864C11.0261 39.6036 11.0356 39.0279 11.5265 38.5357C11.6492 38.415 11.7625 38.285 11.8946 38.1736C12.1117 37.9971 12.1212 37.8114 11.9985 37.5607C11.8097 37.1893 11.5831 36.8179 11.4981 36.4186C11.3754 35.8336 11.0544 35.7129 10.4975 35.7314C9.57234 35.7686 9.21361 35.3971 9.20417 34.4779C9.19473 33.3914 9.19473 32.3143 9.20417 31.2279C9.20417 30.9029 9.21361 30.5779 9.27969 30.2621C9.36465 29.835 9.68562 29.5007 10.0915 29.5657C11.1111 29.7236 11.5076 29.2221 11.6869 28.3679C11.6964 28.3121 11.7341 28.2564 11.7625 28.2007C12.1306 27.3836 12.1306 27.3836 11.517 26.7336C11.0828 26.2693 11.0167 25.6936 11.4321 25.2757C12.4422 24.2543 13.4711 23.2514 14.5095 22.2671C14.9438 21.8586 15.5385 21.8029 15.8973 22.2393C16.4825 22.945 17.049 22.9264 17.7381 22.4714C17.8136 22.425 17.908 22.3786 18.0024 22.3693C18.6915 22.2671 18.8898 21.8864 18.852 21.2179C18.8048 20.4657 19.258 20.0943 20.0226 20.085C21.1554 20.085 22.2883 20.085 23.4211 20.085C25.0448 20.085 25.1297 20.1593 25.1958 21.7286C25.2053 21.9886 25.3091 22.1093 25.5546 22.1929C25.9227 22.3136 26.3003 22.4529 26.6496 22.6107C27.3859 22.9357 27.3765 22.945 27.9429 22.4064C28.5565 21.8214 29.1041 21.8121 29.7082 22.3971C30.0764 22.75 30.4634 23.1029 30.8033 23.4836C31.0676 23.79 31.3697 23.8643 31.7568 23.8643C39.4033 23.8643 47.0498 23.8643 54.6964 23.8643C55.225 23.8643 55.6215 24.0221 55.9897 24.3936C59.9262 28.2843 63.8722 32.1657 67.8277 36.0471C68.1203 36.335 68.2619 36.66 68.2619 37.0779C68.2525 41.5536 68.2619 46.02 68.2619 50.4957C68.2619 59.735 68.2525 68.9743 68.2525 78.2136C68.2525 78.8914 68.2525 78.9007 68.951 78.9007C72.51 78.9007 76.0595 78.91 79.6184 78.9007C82.2239 78.8914 83.9609 77.1643 83.9515 74.6014C83.942 55.8257 83.942 37.0593 83.9326 18.2836C83.9326 17.5686 83.9326 17.5686 83.2151 17.5686C69.8007 17.5407 56.3956 17.5407 42.9906 17.5407ZM32.0588 37.9043C32.04 37.9507 32.0305 37.9879 32.0116 38.0343C32.1532 38.1736 32.2854 38.3221 32.427 38.4614C33.0123 39.0371 33.0217 39.585 32.4553 40.1514C31.634 40.9686 30.7844 41.7486 29.9914 42.5843C29.0285 43.6057 28.4716 43.5314 27.6408 42.575C27.452 42.3614 27.2727 42.3614 27.0178 42.4821C26.593 42.6864 26.1682 42.8907 25.715 43.0207C25.2902 43.1414 25.1014 43.3457 25.1769 43.7729C25.1958 43.8657 25.1769 43.9586 25.1769 44.0514C25.1675 44.8129 24.7805 45.2029 24.0252 45.2029C22.8452 45.2029 21.6652 45.2029 20.4852 45.2029C19.7772 45.2029 19.7772 45.2029 19.7772 45.8714C19.7772 60.0321 19.7772 74.1929 19.7772 88.3443C19.7772 88.9664 19.7772 88.9664 20.4191 88.9664C32.7952 88.9664 45.1807 88.9664 57.5568 88.9757C60.2944 88.9757 63.0321 88.9664 65.7697 88.9757C66.0812 88.9757 66.2323 88.92 66.2134 88.5671C66.1945 88.075 66.2323 87.5736 66.2323 87.0814C66.2228 82.4293 66.2039 77.7679 66.2039 73.1157C66.1945 68.7329 66.2039 64.3593 66.2039 59.9764C66.2039 52.8079 66.2039 45.6486 66.1945 38.48C66.1945 37.8671 66.1945 37.8671 65.5809 37.8671C62.1824 37.8671 58.784 37.8671 55.3855 37.8671C54.2905 37.8671 53.9695 37.57 53.96 36.5114C53.9506 33.28 53.9506 30.0393 53.9506 26.8079C53.9506 26.5014 53.9506 26.195 53.9506 25.8236C53.6485 25.8236 53.422 25.8236 53.186 25.8236C46.7006 25.8236 40.2246 25.8236 33.7392 25.8236C33.2577 25.8236 32.7668 25.7493 32.7102 26.4271C32.7102 26.4829 32.6536 26.5479 32.6064 26.5757C31.804 27.0957 31.87 27.7364 32.342 28.4329C32.3798 28.4979 32.3987 28.5814 32.427 28.6464C32.8235 29.6121 32.5308 29.4821 33.6353 29.5007C34.0979 29.51 34.5322 29.6586 34.6643 30.095C34.8059 30.5593 35.0797 30.5964 35.4667 30.5686C35.6744 30.55 35.8727 30.5686 36.0804 30.5686C39.998 30.5686 43.9157 30.5593 47.8334 30.5779C48.1827 30.5779 48.5886 30.6893 48.8718 30.8843C49.2305 31.1257 49.2966 31.5529 49.1172 31.9707C48.919 32.435 48.5319 32.5836 48.0505 32.5836C45.9548 32.5836 43.8685 32.5836 41.7728 32.5836C39.6204 32.5836 37.4586 32.5929 35.3063 32.5836C34.9286 32.5836 34.7587 32.6857 34.787 33.0757C34.8154 33.475 34.7965 33.8836 34.7965 34.2829C34.7965 35.3971 34.5227 35.6943 33.3993 35.7964C33.843 35.815 34.249 35.8521 34.6549 35.8521C39.0446 35.8521 43.4342 35.8521 47.8239 35.8521C47.9844 35.8521 48.1449 35.8429 48.2959 35.8614C48.7585 35.9264 49.1078 36.2421 49.1833 36.6971C49.2588 37.1429 49.0795 37.5143 48.6924 37.7186C48.4753 37.83 48.1827 37.8579 47.9183 37.8579C42.8206 37.8671 37.7229 37.8671 32.6252 37.8671C32.4553 37.8764 32.2571 37.895 32.0588 37.9043ZM42.9906 15.5443C43.557 15.5443 44.1234 15.5443 44.6898 15.5443C57.5568 15.5443 70.4237 15.5536 83.2907 15.5536C83.9232 15.5536 83.9326 15.5443 83.9326 14.95C83.9326 12.0714 83.9232 9.19286 83.9232 6.31429C83.9232 3.77 82.1484 2.03357 79.5618 2.03357C75.7668 2.03357 71.9813 2.03357 68.1864 2.03357C47.6068 2.03357 27.0367 2.04286 6.45708 2.04286C3.85159 2.04286 2.08628 3.77929 2.08628 6.36071C2.08628 8.35714 2.08628 10.3536 2.08628 12.35C2.08628 13.2786 2.09572 14.2071 2.08628 15.1357C2.08628 15.4329 2.19012 15.5721 2.50165 15.5443C2.64325 15.535 2.78485 15.5443 2.92645 15.5443C16.2749 15.5443 29.6327 15.5443 42.9906 15.5443ZM13.6788 25.9071C13.8015 26.0464 13.8676 26.1393 13.9526 26.2321C14.6228 26.9286 14.6134 27.1793 14.1603 28.0336C13.7827 28.7579 13.4523 29.5193 13.1974 30.29C12.867 31.33 12.7726 31.46 11.6397 31.525C11.3754 31.5436 11.2716 31.6271 11.281 31.8779C11.2905 32.2957 11.3093 32.7136 11.2716 33.1314C11.2338 33.5957 11.3849 33.7536 11.8663 33.735C12.6121 33.7071 12.8575 33.9857 13.103 34.6821C13.4334 35.6107 13.8299 36.5207 14.2547 37.4121C14.5379 37.9971 14.5284 38.4057 14.0564 38.8793C13.9148 39.0186 13.7921 39.1671 13.5939 39.3714C14.0092 39.7521 14.4246 40.0679 14.7644 40.4486C15.076 40.8014 15.2931 40.82 15.6235 40.4671C16.1144 39.9379 16.5109 39.9471 17.1434 40.235C18.0779 40.6621 19.0408 41.0429 20.0037 41.405C20.6268 41.6279 20.8722 41.8879 20.8817 42.5564C20.8817 42.6307 20.8817 42.7143 20.8817 42.7886C20.8628 43.0764 20.9761 43.2157 21.2876 43.2064C21.6935 43.1879 22.1089 43.2064 22.5148 43.2064C23.1379 43.2064 23.1379 43.2064 23.1473 42.6029C23.1567 41.9157 23.3928 41.6464 23.9875 41.4236C24.9787 41.0521 25.9605 40.6436 26.9328 40.2164C27.4709 39.9843 27.8863 40.0029 28.3205 40.3836C28.481 40.5229 28.6509 40.6621 28.9341 40.9129C29.3117 40.4857 29.661 40.0679 30.0481 39.6871C30.3124 39.4271 30.3502 39.2507 30.0481 38.9814C29.4533 38.4429 29.4628 38.0621 29.8215 37.3379C30.2086 36.5671 30.5862 35.7779 30.8505 34.9607C31.1998 33.9207 31.2659 33.7907 32.3609 33.7721C32.6724 33.7629 32.7763 33.6421 32.7668 33.3543C32.7574 32.9643 32.7668 32.5836 32.7668 32.1936C32.7668 31.5621 32.7668 31.5621 32.1438 31.5529C31.4452 31.5436 31.1809 31.2929 30.9355 30.6707C30.5673 29.705 30.1519 28.7579 29.7177 27.82C29.4722 27.2907 29.4911 26.8914 29.8876 26.4643C30.0292 26.3064 30.1802 26.1486 30.3124 26C30.2746 25.9257 30.2652 25.87 30.2369 25.8421C29.897 25.4986 29.5289 25.1736 29.2173 24.8114C28.9247 24.4771 28.717 24.4679 28.4055 24.7929C27.8674 25.35 27.5181 25.35 26.8101 25.0157C25.9888 24.635 25.1581 24.2729 24.299 23.9757C23.2606 23.6136 23.1662 23.5671 23.1284 22.49C23.119 22.1743 22.9963 22.0907 22.7036 22.1C22.326 22.1186 21.9484 22.1 21.5708 22.1093C20.8533 22.1186 20.9005 22.0536 20.8817 22.75C20.8722 23.4 20.5607 23.6786 19.9377 23.9014C18.9842 24.245 18.0402 24.635 17.1245 25.0621C16.5392 25.3314 16.1427 25.3407 15.6707 24.9043C15.5668 24.8114 15.4819 24.6814 15.3592 24.6257C15.2742 24.5793 15.1043 24.5793 15.0476 24.6257C14.5945 25.0157 14.1414 25.4614 13.6788 25.9071ZM56.0558 27.4764C56.0463 27.6529 56.0274 27.8107 56.0274 27.9593C56.0274 30.42 56.0369 32.8807 56.018 35.3414C56.018 35.7964 56.1785 35.88 56.5939 35.88C59.0955 35.8707 61.5971 35.8707 64.0988 35.8707C64.2593 35.8707 64.4198 35.8521 64.5142 35.8429C61.701 33.0571 58.8973 30.29 56.0558 27.4764Z" fill="url(#paint0_linear_160_1290)"/>
<path d="M42.9905 75.465C37.5812 75.465 32.1626 75.465 26.7534 75.465C24.7615 75.465 23.2322 74.0072 23.2322 72.0572C23.2227 66.0958 23.2227 60.1436 23.2322 54.1822C23.2322 52.26 24.7143 50.8115 26.6684 50.7929C28.3393 50.7743 30.0008 50.7743 31.6717 50.7929C32.0776 50.8022 32.2947 50.6815 32.4552 50.31C33.4936 48.0258 34.5604 45.7508 35.6177 43.4758C36.1369 42.3708 37.0054 41.795 38.2609 41.795C41.4045 41.795 44.5575 41.795 47.7011 41.795C48.9944 41.795 49.8724 42.38 50.4104 43.5222C51.4677 45.7972 52.5345 48.0722 53.5823 50.3565C53.7428 50.7 53.9411 50.8022 54.2998 50.8022C55.9801 50.7929 57.6699 50.7743 59.3503 50.8022C61.3422 50.83 62.7771 52.2972 62.7865 54.2379C62.7865 60.1343 62.7865 66.0308 62.7865 71.9272C62.7865 74.0165 61.3138 75.4558 59.1992 75.4558C53.7806 75.465 48.3902 75.4558 42.9905 75.465ZM42.9999 52.7615C38.8651 52.7615 34.7303 52.7615 30.5861 52.7615C29.9441 52.7615 29.9441 52.7615 29.9441 53.4115C29.9441 58.1286 29.9441 62.8458 29.9441 67.5629C29.9441 69.355 29.9441 71.1565 29.9347 72.9486C29.9347 73.255 29.963 73.4779 30.3878 73.4686C31.8699 73.45 33.3426 73.4593 34.8247 73.4686C35.1268 73.4686 35.2778 73.3479 35.3911 73.0879C35.7593 72.3172 36.1463 71.5558 36.5239 70.7943C36.7316 70.3672 37.0809 70.1258 37.5718 70.1258C41.1779 70.1258 44.7747 70.1258 48.3808 70.1258C48.9189 70.1258 49.2965 70.3765 49.5231 70.8686C49.8629 71.6022 50.25 72.3079 50.5804 73.0415C50.722 73.3572 50.9108 73.4686 51.2601 73.4686C52.6761 73.45 54.0921 73.4408 55.5081 73.4686C55.9801 73.4779 56.0934 73.3108 56.084 72.8743C56.0651 70.5993 56.0746 68.3243 56.0746 66.0493C56.0746 61.9172 56.0746 57.785 56.0746 53.6529C56.0746 52.7429 56.0746 52.7429 55.1305 52.7429C51.0807 52.7615 47.0403 52.7615 42.9999 52.7615ZM27.8673 52.7615C27.5747 52.7615 27.3387 52.7615 27.1026 52.7615C25.8093 52.7615 25.2618 53.2908 25.2618 54.5536C25.2618 56.7636 25.2618 58.9829 25.2618 61.1929C25.2618 64.7679 25.2618 68.3429 25.2618 71.9179C25.2618 72.7629 25.6772 73.3108 26.4796 73.4315C26.9233 73.4965 27.3764 73.4408 27.8579 73.4408C27.8673 66.5508 27.8673 59.6886 27.8673 52.7615ZM58.1042 63.115C58.1042 66.2072 58.0947 69.2993 58.1042 72.3915C58.1042 73.6358 57.8776 73.4686 59.237 73.4686C60.1338 73.4686 60.7286 72.8465 60.7286 71.9643C60.7286 67.6836 60.7286 63.3936 60.7286 59.1129C60.7286 57.5158 60.7286 55.9279 60.7191 54.3308C60.7097 53.3186 60.1527 52.7893 59.1426 52.7893C59.001 52.7893 58.8594 52.7893 58.7178 52.7893C58.1042 52.7893 58.1042 52.7893 58.1042 53.4022C58.1042 56.6522 58.1042 59.8836 58.1042 63.115ZM34.4943 50.7558C34.8342 50.7743 35.0607 50.765 35.2873 50.7929C35.7876 50.8579 36.0331 50.6443 36.2313 50.1893C36.8449 48.7686 37.5435 47.3758 38.176 45.9643C38.4403 45.3793 38.8462 45.1379 39.4976 45.1379C41.8765 45.1565 44.246 45.1472 46.6249 45.1472C47.1725 45.1472 47.5406 45.3793 47.7672 45.8808C48.4563 47.385 49.1549 48.8893 49.8629 50.3936C49.929 50.5329 50.0517 50.7465 50.1744 50.7558C50.5804 50.8022 50.9957 50.7743 51.4772 50.7743C51.3922 50.5422 51.345 50.3936 51.2789 50.2543C50.3821 48.3322 49.4759 46.41 48.5979 44.4786C48.3714 43.9772 48.0504 43.7915 47.5123 43.7915C44.482 43.81 41.4423 43.81 38.412 43.7915C37.9211 43.7915 37.6284 43.9772 37.4302 44.4136C36.7883 45.8436 36.118 47.255 35.4572 48.6758C35.1457 49.335 34.8436 49.9943 34.4943 50.7558ZM38.2326 50.7465C41.4612 50.7465 44.567 50.7465 47.7483 50.7465C47.6445 50.505 47.5784 50.3193 47.4934 50.1429C47.0969 49.2886 46.6816 48.4343 46.304 47.5708C46.1624 47.2458 45.9736 47.1436 45.6243 47.1436C44.095 47.1622 42.5657 47.2086 41.0458 47.125C40.1773 47.0786 39.6958 47.3015 39.4126 48.1372C39.1106 49.0008 38.6574 49.8179 38.2326 50.7465ZM37.5152 73.4315C41.2157 73.4315 44.803 73.4315 48.4752 73.4315C48.3053 73.0508 48.1542 72.7536 48.0221 72.4472C47.9182 72.1965 47.7389 72.1315 47.4745 72.1315C44.5009 72.1408 41.5272 72.1408 38.5536 72.1408C38.4025 72.1408 38.1665 72.1872 38.1005 72.2893C37.8833 72.6143 37.7323 72.9858 37.5152 73.4315Z" fill="url(#paint1_linear_160_1290)"/>
<path d="M42.9717 85.0386C38.11 85.0386 33.2483 85.0386 28.3866 85.0386C27.6314 85.0386 27.1972 84.6857 27.1783 84.0915C27.1594 83.5715 27.4804 83.1629 28.009 83.07C28.2073 83.0329 28.4149 83.0422 28.6226 83.0422C38.2327 83.0422 47.8428 83.0422 57.4624 83.0422C57.5379 83.0422 57.6228 83.0422 57.6984 83.0422C58.3969 83.0793 58.8689 83.5065 58.8406 84.0915C58.8123 84.6486 58.3403 85.0386 57.6512 85.0386C52.7612 85.0386 47.8617 85.0386 42.9717 85.0386Z" fill="url(#paint2_linear_160_1290)"/>
<path d="M43.0001 80.2379C38.1573 80.2379 33.305 80.2379 28.4622 80.2286C28.179 80.2286 27.8486 80.1914 27.6126 80.0522C27.2539 79.8479 27.1217 79.4672 27.1972 79.04C27.2728 78.6314 27.5371 78.3714 27.9336 78.2879C28.2073 78.2229 28.4905 78.2229 28.7738 78.2229C37.2038 78.2229 45.6433 78.2229 54.0734 78.2229C55.1779 78.2229 56.273 78.2136 57.3775 78.2229C57.6229 78.2229 57.8873 78.2507 58.1233 78.3157C58.6047 78.455 58.8785 78.91 58.803 79.4022C58.7369 79.8479 58.3498 80.21 57.8589 80.21C56.981 80.2286 56.0936 80.2193 55.2157 80.2193C51.147 80.2379 47.0783 80.2379 43.0001 80.2379Z" fill="url(#paint3_linear_160_1290)"/>
<path d="M19.6827 12.4521C16.6429 12.4521 13.6126 12.4521 10.5729 12.4521C8.51495 12.4521 6.86291 10.8271 6.87235 8.84C6.88179 6.79714 8.50551 5.15357 10.5635 5.15357C16.6146 5.14429 22.6752 5.14429 28.7264 5.15357C30.6144 5.15357 32.2192 6.54643 32.4269 8.33857C32.6535 10.205 31.4734 11.895 29.6232 12.3593C29.3683 12.4243 29.0945 12.4429 28.8302 12.4429C25.7905 12.4429 22.7318 12.4429 19.6827 12.4521C19.6827 12.4429 19.6827 12.4429 19.6827 12.4521ZM19.6355 10.4371C20.8438 10.4371 22.0522 10.4371 23.2699 10.4371C25.0919 10.4371 26.9138 10.4464 28.7452 10.4279C29.6515 10.4186 30.3218 9.77786 30.4067 8.905C30.4822 8.13428 29.8875 7.39143 29.0284 7.215C28.783 7.16857 28.5281 7.15928 28.2827 7.15928C22.5147 7.15928 16.7468 7.15928 10.9694 7.15928C10.7334 7.15928 10.4974 7.16857 10.2708 7.22429C9.28904 7.43786 8.75095 8.39428 9.05304 9.32286C9.2796 10.0193 9.92153 10.4279 10.8278 10.4279C13.7542 10.4371 16.6901 10.4371 19.6355 10.4371Z" fill="url(#paint4_linear_160_1290)"/>
<path d="M38.8181 12.4429C36.7223 12.4429 35.0609 10.7993 35.0797 8.77503C35.0986 6.76932 36.7884 5.14432 38.8464 5.1536C40.9043 5.16289 42.528 6.80646 42.528 8.89575C42.528 10.8272 40.8383 12.4429 38.8181 12.4429ZM38.8181 10.4279C39.7243 10.4186 40.4701 9.68503 40.4512 8.80289C40.4418 7.91146 39.7054 7.18718 38.7992 7.17789C37.8929 7.1686 37.1188 7.93932 37.1377 8.84003C37.1566 9.72218 37.9118 10.4372 38.8181 10.4279Z" fill="url(#paint5_linear_160_1290)"/>
<path d="M49.6743 12.4429C47.6163 12.4429 45.9832 10.8457 45.9832 8.84C45.9832 6.77857 47.6257 5.14429 49.7026 5.14429C51.7417 5.14429 53.4126 6.79714 53.4126 8.81214C53.4126 10.8179 51.7417 12.4429 49.6743 12.4429ZM49.6837 10.4279C50.59 10.4279 51.3452 9.70357 51.3546 8.82143C51.3735 7.94857 50.5522 7.15 49.6648 7.16857C48.768 7.18714 48.0317 7.93 48.0317 8.81214C48.0317 9.69429 48.7774 10.4279 49.6837 10.4279Z" fill="url(#paint6_linear_160_1290)"/>
<path d="M60.5775 12.4429C58.4913 12.4429 56.8581 10.8458 56.8487 8.8029C56.8392 6.80647 58.5385 5.13504 60.5775 5.14433C62.6261 5.15361 64.2781 6.79718 64.2781 8.83075C64.2781 10.8365 62.6355 12.4429 60.5775 12.4429ZM60.5775 10.4279C61.4838 10.4279 62.2296 9.70361 62.2296 8.81218C62.2296 7.93004 61.4177 7.14075 60.5398 7.15933C59.6713 7.1779 58.8877 7.98575 58.9066 8.82147C58.9161 9.7129 59.6713 10.4372 60.5775 10.4279Z" fill="url(#paint7_linear_160_1290)"/>
<path d="M27.4804 32.6578C27.471 35.6757 25.0354 38.0157 21.9107 37.9971C18.9371 37.9785 16.5298 35.5457 16.5487 32.5835C16.5676 29.64 19.0598 27.2164 22.0523 27.235C25.0449 27.2535 27.4899 29.6957 27.4804 32.6578ZM25.4225 32.6671C25.4508 30.8285 23.9309 29.3057 22.024 29.2778C20.2115 29.25 18.635 30.7543 18.6067 32.5557C18.5783 34.4314 20.0604 35.9543 21.9485 35.9821C23.8365 36.0193 25.3941 34.5335 25.4225 32.6671Z" fill="url(#paint8_linear_160_1290)"/>
<path d="M42.9621 68.1107C40.8664 68.1107 38.7801 68.1107 36.6844 68.1107C35.4383 68.1107 35.0135 67.4978 35.495 66.3835C36.5617 63.895 37.6473 61.4064 38.7235 58.9178C38.9501 58.3885 39.3182 58.1285 39.9224 58.1378C41.9709 58.1564 44.01 58.1564 46.0585 58.1378C46.6816 58.1285 47.0686 58.3978 47.2952 58.9364C48.3336 61.3507 49.3815 63.7742 50.4199 66.1978C50.5426 66.495 50.6653 66.8107 50.6842 67.1171C50.7125 67.6557 50.4104 67.99 49.8535 68.055C49.4664 68.1014 49.0699 68.0735 48.6734 68.0735C46.7665 68.0735 44.8691 68.0735 42.9621 68.0735C42.9621 68.0921 42.9621 68.1014 42.9621 68.1107ZM37.8644 66.0678C41.329 66.0678 44.6897 66.0678 48.0693 66.0678C48.0504 65.9471 48.0598 65.8821 48.0315 65.8264C47.2574 64.025 46.4833 62.2142 45.6809 60.4128C45.6148 60.2735 45.3411 60.1528 45.1617 60.1528C43.7174 60.1342 42.273 60.1528 40.8192 60.1342C40.4983 60.1342 40.3472 60.2457 40.2245 60.5335C39.7242 61.7314 39.1955 62.92 38.6857 64.1178C38.4309 64.74 38.1665 65.3621 37.8644 66.0678Z" fill="url(#paint9_linear_160_1290)"/>
<path d="M34.1545 60.0692C33.5692 60.0692 32.9933 60.0785 32.408 60.0692C31.8133 60.0507 31.3696 59.6142 31.3791 59.0757C31.3885 58.5464 31.8416 58.0914 32.4269 58.0821C33.5881 58.0728 34.7492 58.0821 35.9103 58.0914C36.4767 58.1007 36.8921 58.5185 36.9016 59.0664C36.911 59.6328 36.5051 60.0507 35.9009 60.0692C35.5988 60.0785 35.3062 60.0692 35.0041 60.0692C34.7209 60.0785 34.4377 60.0785 34.1545 60.0692Z" fill="url(#paint10_linear_160_1290)"/>
<path d="M51.8172 60.0693C51.2508 60.0693 50.6844 60.0786 50.1274 60.0693C49.495 60.0507 49.1079 59.67 49.1079 59.0943C49.1079 58.5186 49.4855 58.1286 50.118 58.11C51.2508 58.0914 52.3742 58.0821 53.507 58.0914C53.9602 58.0914 54.3283 58.2493 54.5266 58.7043C54.6871 59.0757 54.6587 59.4378 54.3755 59.6886C54.1678 59.8836 53.8469 60.0321 53.5731 60.06C52.9878 60.1064 52.4025 60.0693 51.8172 60.0693Z" fill="url(#paint11_linear_160_1290)"/>
<path d="M34.1546 56.8471C33.607 56.8471 33.0595 56.8471 32.5025 56.8471C31.8323 56.8378 31.3792 56.4385 31.3792 55.8628C31.3792 55.3243 31.8512 54.8878 32.4742 54.8878C33.5882 54.8785 34.7021 54.8785 35.816 54.8878C36.4863 54.8971 36.9111 55.3057 36.9017 55.9093C36.8922 56.485 36.4768 56.8471 35.8066 56.8564C35.5234 56.8657 35.2402 56.8564 34.957 56.8564C34.6927 56.8471 34.4283 56.8471 34.1546 56.8471Z" fill="url(#paint12_linear_160_1290)"/>
<path d="M51.8738 56.8471C51.2979 56.8471 50.7127 56.8564 50.1368 56.8471C49.4949 56.8378 49.1173 56.4664 49.1078 55.8907C49.0984 55.2964 49.5043 54.8971 50.1557 54.8878C51.2885 54.8785 52.4119 54.8785 53.5447 54.8878C54.1866 54.8971 54.6303 55.3243 54.6209 55.8721C54.6114 56.4385 54.1772 56.8285 53.5258 56.8471C53.4975 56.8471 53.4597 56.8471 53.4314 56.8471C52.9122 56.8378 52.393 56.8378 51.8738 56.8471Z" fill="url(#paint13_linear_160_1290)"/>
</g>
<defs>
<linearGradient id="paint0_linear_160_1290" x1="-20.64" y1="-7.39375" x2="73.6918" y2="98.0094" gradientUnits="userSpaceOnUse">
<stop stop-color="#4949FC"/>
<stop offset="1" stop-color="#7D7DFF"/>
</linearGradient>
<linearGradient id="paint1_linear_160_1290" x1="13.7304" y1="39.0594" x2="47.0326" y2="85.3231" gradientUnits="userSpaceOnUse">
<stop stop-color="#4949FC"/>
<stop offset="1" stop-color="#7D7DFF"/>
</linearGradient>
<linearGradient id="paint2_linear_160_1290" x1="19.578" y1="82.8788" x2="19.7997" y2="87.0337" gradientUnits="userSpaceOnUse">
<stop stop-color="#4949FC"/>
<stop offset="1" stop-color="#7D7DFF"/>
</linearGradient>
<linearGradient id="paint3_linear_160_1290" x1="19.5835" y1="78.0547" x2="19.8102" y2="82.2544" gradientUnits="userSpaceOnUse">
<stop stop-color="#4949FC"/>
<stop offset="1" stop-color="#7D7DFF"/>
</linearGradient>
<linearGradient id="paint4_linear_160_1290" x1="0.732547" y1="4.55303" x2="4.21044" y2="18.9524" gradientUnits="userSpaceOnUse">
<stop stop-color="#4949FC"/>
<stop offset="1" stop-color="#7D7DFF"/>
</linearGradient>
<linearGradient id="paint5_linear_160_1290" x1="33.292" y1="4.56131" x2="40.7608" y2="13.5848" gradientUnits="userSpaceOnUse">
<stop stop-color="#4949FC"/>
<stop offset="1" stop-color="#7D7DFF"/>
</linearGradient>
<linearGradient id="paint6_linear_160_1290" x1="44.2001" y1="4.55128" x2="51.6837" y2="13.558" gradientUnits="userSpaceOnUse">
<stop stop-color="#4949FC"/>
<stop offset="1" stop-color="#7D7DFF"/>
</linearGradient>
<linearGradient id="paint7_linear_160_1290" x1="55.0656" y1="4.55128" x2="62.5492" y2="13.5581" gradientUnits="userSpaceOnUse">
<stop stop-color="#4949FC"/>
<stop offset="1" stop-color="#7D7DFF"/>
</linearGradient>
<linearGradient id="paint8_linear_160_1290" x1="13.9249" y1="26.3604" x2="24.9645" y2="39.6184" gradientUnits="userSpaceOnUse">
<stop stop-color="#4949FC"/>
<stop offset="1" stop-color="#7D7DFF"/>
</linearGradient>
<linearGradient id="paint9_linear_160_1290" x1="31.6092" y1="57.3273" x2="40.3793" y2="73.3227" gradientUnits="userSpaceOnUse">
<stop stop-color="#4949FC"/>
<stop offset="1" stop-color="#7D7DFF"/>
</linearGradient>
<linearGradient id="paint10_linear_160_1290" x1="30.0534" y1="57.9159" x2="31.2195" y2="61.7269" gradientUnits="userSpaceOnUse">
<stop stop-color="#4949FC"/>
<stop offset="1" stop-color="#7D7DFF"/>
</linearGradient>
<linearGradient id="paint11_linear_160_1290" x1="47.784" y1="57.9256" x2="48.9486" y2="61.7321" gradientUnits="userSpaceOnUse">
<stop stop-color="#4949FC"/>
<stop offset="1" stop-color="#7D7DFF"/>
</linearGradient>
<linearGradient id="paint12_linear_160_1290" x1="30.0537" y1="54.72" x2="31.2003" y2="58.502" gradientUnits="userSpaceOnUse">
<stop stop-color="#4949FC"/>
<stop offset="1" stop-color="#7D7DFF"/>
</linearGradient>
<linearGradient id="paint13_linear_160_1290" x1="47.7845" y1="54.7208" x2="48.9228" y2="58.4869" gradientUnits="userSpaceOnUse">
<stop stop-color="#4949FC"/>
<stop offset="1" stop-color="#7D7DFF"/>
</linearGradient>
<clipPath id="clip0_160_1290">
<rect width="86" height="91" fill="white"/>
</clipPath>
</defs>
</svg>
