<svg width="138" height="138" viewBox="0 0 138 138" fill="none" xmlns="http://www.w3.org/2000/svg">
<circle cx="69" cy="69" r="69" fill="#4949FC"/>
<g clip-path="url(#clip0_586_30150)">
<path d="M66.8877 102.93C48.0591 100.264 37.4216 89.665 34.7695 70.805C33.8433 70.805 32.764 70.805 31.6847 70.805C29.7108 70.805 27.7342 70.8235 25.7603 70.7945C24.6863 70.7786 24.0424 70.1868 24.0239 69.3018C24.0028 68.3746 24.6705 67.7432 25.7894 67.7352C28.8505 67.7141 31.909 67.7273 34.8698 67.7273C37.4164 48.8568 48.1171 38.2948 66.9563 35.6055C66.9563 34.237 66.9563 32.6968 66.9563 31.1567C66.9563 29.5082 66.9536 27.8623 66.9563 26.2138C66.9589 24.7899 67.5184 23.9973 68.5053 24.0105C69.4843 24.0237 70.0121 24.8004 70.0121 26.2561C70.0148 29.1225 70.0359 31.9915 69.9963 34.8578C69.9857 35.5949 70.2311 35.801 70.9437 35.8485C86.3892 36.8762 99.3488 48.981 101.526 64.3881C101.674 65.4289 101.777 66.4777 101.916 67.6665C102.27 67.6665 102.616 67.6665 102.961 67.6665C106.318 67.6665 109.678 67.6639 113.034 67.6692C114.243 67.6718 114.937 68.2425 114.905 69.1935C114.876 70.0944 114.174 70.6703 113.053 70.6729C109.334 70.6809 105.616 70.6756 102.004 70.6756C99.4676 89.5593 88.7774 100.127 69.896 102.832C69.896 102.98 69.896 103.328 69.896 103.677C69.896 106.905 69.9066 110.136 69.8881 113.365C69.8828 114.345 69.2653 114.989 68.4129 115.005C67.5447 115.021 66.9431 114.4 66.8877 113.423C66.8745 113.159 66.8824 112.894 66.8824 112.633C66.8824 109.7 66.8824 106.768 66.8824 103.833C66.8877 103.474 66.8877 103.117 66.8877 102.93ZM68.4472 38.8047C51.6559 38.8311 38.026 52.4761 38.0655 69.2226C38.1051 85.977 51.7852 99.5718 68.5634 99.5321C85.2861 99.4925 98.9847 85.7366 98.9292 69.0403C98.8738 52.3625 85.1779 38.7783 68.4472 38.8047Z" fill="white"/>
<path d="M34.5196 104.422C35.0078 104.422 35.3614 104.422 35.7177 104.422C38.8765 104.422 42.0379 104.414 45.1966 104.427C46.4079 104.433 46.9436 104.961 46.9542 106.176C46.9726 108.517 46.9779 110.855 46.9515 113.196C46.941 114.313 46.3366 114.926 45.2336 114.929C38.7155 114.942 32.1974 114.942 25.6819 114.929C24.6105 114.926 24.0194 114.345 24.0168 113.27C24.001 106.713 23.9983 100.153 24.0168 93.596C24.0194 92.5155 24.5947 91.9819 25.6978 91.9713C28.0015 91.9502 30.3053 91.9555 32.6091 91.966C33.9787 91.974 34.5144 92.5129 34.517 93.8893C34.5275 96.9881 34.5196 100.084 34.5196 103.183C34.5196 103.545 34.5196 103.904 34.5196 104.422ZM27.0674 111.827C32.6724 111.827 38.2405 111.827 43.8587 111.827C43.8587 110.353 43.8587 108.953 43.8587 107.437C43.4629 107.437 43.1119 107.437 42.7583 107.437C39.6681 107.437 36.578 107.439 33.4878 107.434C31.9995 107.431 31.4823 106.919 31.477 105.408C31.4664 102.314 31.4743 99.2205 31.4743 96.1269C31.4743 95.7755 31.4743 95.4242 31.4743 95.0464C29.9332 95.0464 28.5082 95.0464 27.07 95.0464C27.0674 100.671 27.0674 106.224 27.0674 111.827Z" fill="white"/>
<path d="M104.482 104.422C104.482 103.965 104.482 103.614 104.482 103.26C104.482 100.164 104.477 97.0647 104.485 93.9685C104.487 92.4759 105.002 91.9687 106.512 91.9634C108.718 91.9555 110.921 91.9528 113.127 91.966C114.463 91.974 114.993 92.4865 114.996 93.81C115.006 100.235 115.006 106.66 114.996 113.082C114.993 114.387 114.431 114.929 113.111 114.931C106.728 114.939 100.342 114.939 93.9582 114.931C92.6124 114.929 92.0529 114.355 92.045 112.99C92.0345 110.781 92.0345 108.575 92.045 106.367C92.0503 104.94 92.5781 104.425 94.0295 104.422C97.1223 104.414 100.218 104.42 103.311 104.42C103.661 104.422 104.015 104.422 104.482 104.422ZM111.903 111.838C111.903 106.184 111.903 100.61 111.903 95.0358C110.43 95.0358 109.029 95.0358 107.53 95.0358C107.53 95.477 107.53 95.8654 107.53 96.2511C107.53 99.3446 107.541 102.438 107.525 105.532C107.517 106.9 106.963 107.434 105.593 107.437C102.469 107.444 99.3469 107.439 96.2224 107.439C95.8714 107.439 95.5205 107.439 95.151 107.439C95.151 108.969 95.151 110.374 95.151 111.838C100.748 111.838 106.29 111.838 111.903 111.838Z" fill="white"/>
<path d="M34.5193 34.5172C34.5193 37.9489 34.5193 41.2406 34.5193 44.5323C34.5193 46.6167 34.1552 46.976 32.0361 46.976C29.9963 46.976 27.9564 46.9839 25.9165 46.9734C24.5232 46.9655 24.0086 46.4609 24.0059 45.0686C23.998 38.6781 23.998 32.2849 24.0059 25.8943C24.0086 24.5259 24.5548 24.0054 25.9455 24.0054C32.3 24.0001 38.6519 24.0001 45.0011 24.0054C46.368 24.0054 46.9459 24.5681 46.9565 25.9049C46.9697 28.1452 46.9697 30.3854 46.9565 32.6257C46.9486 33.9862 46.405 34.5119 45.0143 34.5146C41.9215 34.5225 38.8287 34.5172 35.7332 34.5172C35.3796 34.5172 35.0234 34.5172 34.5193 34.5172ZM27.0829 27.0964C27.0829 32.7287 27.0829 38.3029 27.0829 43.8851C28.5633 43.8851 29.9857 43.8851 31.4714 43.8851C31.4714 43.4518 31.4714 43.0899 31.4714 42.7306C31.4714 39.8669 31.4714 37.0032 31.4714 34.1394C31.4714 31.8014 31.767 31.5003 34.0575 31.5003C36.327 31.5003 38.5938 31.5003 40.8633 31.5003C41.8423 31.5003 42.8213 31.5003 43.8294 31.5003C43.8294 29.9759 43.8294 28.5546 43.8294 27.0937C38.2059 27.0964 32.6642 27.0964 27.0829 27.0964Z" fill="white"/>
<path d="M104.481 34.5171C103.998 34.5171 103.644 34.5171 103.29 34.5171C100.132 34.5171 96.9729 34.525 93.8115 34.5118C92.6214 34.5065 92.0567 33.9438 92.0461 32.7497C92.025 30.4434 92.0276 28.1371 92.0461 25.8308C92.0567 24.5944 92.6399 24.0079 93.8722 24.0079C100.322 23.9974 106.771 23.9974 113.223 24.0079C114.413 24.0106 114.989 24.5759 114.991 25.77C115.005 32.261 115.005 38.7493 114.991 45.2402C114.989 46.4369 114.429 46.9627 113.21 46.9706C110.941 46.9864 108.669 46.9838 106.399 46.9732C105.027 46.9653 104.491 46.4264 104.486 45.0526C104.475 41.9564 104.483 38.8602 104.483 35.7614C104.481 35.4021 104.481 35.0402 104.481 34.5171ZM111.936 27.0989C106.296 27.0989 100.752 27.0989 95.1679 27.0989C95.1679 28.5836 95.1679 30.0048 95.1679 31.5028C95.5981 31.5028 95.9543 31.5028 96.3132 31.5028C99.4377 31.5028 102.56 31.4948 105.684 31.5054C106.935 31.5107 107.505 32.0523 107.521 33.3018C107.547 35.3413 107.529 37.3834 107.529 39.4229C107.529 40.8971 107.529 42.3712 107.529 43.9008C109.046 43.9008 110.471 43.9008 111.936 43.9008C111.936 38.2896 111.936 32.7365 111.936 27.0989Z" fill="white"/>
<path d="M51.8566 63.5137C50.9831 61.0541 50.9119 58.5867 51.4528 56.1536C52.2551 52.5633 55.3901 50.1196 59.0027 50.0562C62.6761 49.9928 65.856 52.3573 66.872 55.9079C66.9511 56.1879 67.025 56.4679 67.1042 56.7559C68.0384 56.7559 68.9198 56.7559 69.846 56.7559C69.9252 56.4785 70.0096 56.2011 70.0835 55.9237C71.0678 52.1169 74.5908 49.7313 78.6969 50.0906C82.3544 50.4102 85.5026 53.6333 85.719 57.3556C85.8378 59.3924 85.9565 61.4451 85.0725 63.4582C85.3575 63.6907 85.6346 63.9099 85.9037 64.1398C89.1549 66.9348 90.8675 70.4643 90.9414 74.7651C90.9572 75.6554 90.9757 76.5457 90.9256 77.4334C90.7831 80.0144 89.0177 81.6946 86.4474 81.7184C84.8429 81.7343 83.2411 81.721 81.539 81.721C81.539 82.5347 81.5496 83.2507 81.5364 83.9666C81.4889 86.4684 79.7736 88.3599 77.2877 88.389C71.5613 88.4524 65.8322 88.4524 60.1032 88.389C57.6464 88.3626 55.8915 86.4288 55.8545 83.9613C55.844 83.2718 55.8519 82.5796 55.8519 81.721C55.1104 81.721 54.4031 81.721 53.6959 81.721C52.7406 81.721 51.7853 81.7343 50.8327 81.7184C48.5738 81.6788 46.6316 80.1597 46.5286 77.9089C46.4204 75.4969 46.4943 73.0189 46.9324 70.6518C47.4918 67.6666 49.3681 65.3708 51.8566 63.5137ZM62.8661 72.7653C60.9555 74.1126 59.52 75.8773 59.074 78.181C58.7204 80.0012 58.7468 81.9007 58.6808 83.7658C58.6359 85.0048 59.1584 85.4671 60.433 85.4671C65.761 85.4724 71.0863 85.4724 76.4142 85.4671C77.6756 85.4671 78.2694 84.9599 78.2931 83.7156C78.3195 82.2362 78.3591 80.7383 78.1665 79.28C77.7997 76.5087 76.3615 74.3504 74.0894 72.7521C71.052 75.3807 66.6397 75.8958 62.8661 72.7653ZM63.4783 65.7618C63.5047 65.7645 63.5285 65.7671 63.5522 65.7698C63.5522 66.1977 63.5417 66.6257 63.5549 67.0537C63.6261 69.5106 65.4813 71.5897 67.8272 71.8459C70.4424 72.1313 72.7673 70.5964 73.2608 68.0629C73.5035 66.8238 73.4877 65.5056 73.4006 64.2375C73.2396 61.8863 71.308 59.9551 69.115 59.7808C66.521 59.5773 64.3571 61.0092 63.7343 63.4265C63.5443 64.1767 63.5601 64.9825 63.4783 65.7618ZM55.8308 78.7728C56.5169 75.3807 58.1715 72.6253 60.8711 70.5118C61.003 70.4088 61.0954 70.1182 61.0532 69.9518C60.9107 69.3547 60.7048 68.7735 60.5148 68.1685C57.8707 68.4988 55.5774 67.8251 53.6062 66.0498C51.4185 67.619 49.9539 69.6479 49.5766 72.2792C49.3338 73.9594 49.3998 75.6898 49.3787 77.399C49.3681 78.2708 49.9249 78.7437 50.7535 78.7622C52.4266 78.8018 54.1023 78.7728 55.8308 78.7728ZM81.159 78.7728C82.906 78.7728 84.579 78.7966 86.2521 78.7649C87.1836 78.7464 87.5926 78.1387 87.6085 77.2722C87.6296 76.0543 87.6586 74.8338 87.5874 73.6212C87.4026 70.4405 85.9803 67.9361 83.3625 66.0366C81.3701 67.8885 79.0109 68.4538 76.4301 68.2161C76.219 68.9531 76.0342 69.611 75.8337 70.311C78.747 72.3954 80.5204 75.2195 81.159 78.7728ZM82.8215 59.2075C82.7898 59.2049 82.7608 59.2022 82.7291 59.1996C82.7291 58.6738 82.7608 58.1455 82.7239 57.6198C82.555 55.1602 80.4465 53.1524 77.9659 53.0679C75.4378 52.9834 73.2159 54.793 72.9124 57.2525C72.8702 57.596 73.0496 58.1138 73.3083 58.3225C75.2426 59.8732 76.3535 61.8335 76.4354 64.3273C76.4565 64.9297 76.7098 65.0987 77.2561 65.1674C79.5836 65.458 81.9032 63.9575 82.5207 61.6406C82.7291 60.8586 82.7265 60.0185 82.8215 59.2075ZM60.3697 64.9719C60.4146 62.375 61.3039 60.1718 63.3464 58.5682C63.985 58.0662 64.0774 57.5748 63.9085 56.8827C63.3596 54.6371 61.3171 53.0362 59.0133 53.0653C56.7095 53.0943 54.6406 54.7217 54.2844 57.0306C54.0786 58.3753 54.0522 59.8019 54.2606 61.1413C54.7119 64.0367 57.3825 65.6773 60.3697 64.9719Z" fill="white"/>
</g>
<defs>
<clipPath id="clip0_586_30150">
<rect width="91" height="91" fill="white" transform="translate(24 24)"/>
</clipPath>
</defs>
</svg>
