<svg width="138" height="138" viewBox="0 0 138 138" fill="none" xmlns="http://www.w3.org/2000/svg">
<circle cx="69" cy="69" r="69" fill="#4949FC"/>
<g clip-path="url(#clip0_586_30123)">
<path d="M70.8156 47.1663C76.7163 47.6229 81.8349 49.7978 86.1924 53.609C87.1708 52.6402 88.1224 51.6978 89.1232 50.7069C87.6389 48.3905 87.1862 45.8298 88.0467 43.1039C88.6901 41.0637 89.9473 39.4648 91.7666 38.3184C95.4345 36.0062 100.285 36.6751 103.174 39.8798C106.077 43.0998 106.209 47.9186 103.502 51.2856C101.121 54.2488 96.2853 56.042 91.5647 53.1357C90.599 54.1058 89.6389 55.0691 88.641 56.0697C93.8858 62.3778 95.8214 69.6865 94.4338 77.9501C98.6231 79.0646 102.798 80.1749 107.028 81.2991C108.438 78.6926 110.565 77.0216 113.504 76.4747C115.571 76.0903 117.546 76.4331 119.395 77.4282C123.151 79.4504 124.903 83.9153 123.538 87.9555C122.16 92.0345 118.14 94.4634 113.755 93.8527C109.762 93.2961 105.938 89.775 106.157 84.4302C101.997 83.324 97.82 82.2137 93.5886 81.0895C92.6566 83.7932 91.3769 86.2678 89.6712 88.5176C87.9626 90.7715 85.9388 92.7035 83.5294 94.3607C84.1601 95.4474 84.7656 96.53 85.4286 97.5764C85.5085 97.7027 85.9177 97.7027 86.1476 97.65C89.7118 96.8298 92.7757 97.6958 95.2215 100.394C97.8466 103.29 98.1424 107.619 96.0358 110.889C93.8914 114.217 89.8646 115.736 86.0369 114.662C82.2806 113.608 79.6344 110.162 79.5966 106.272C79.5727 103.76 80.4992 101.635 82.2708 99.8568C82.4011 99.7263 82.5567 99.6208 82.7263 99.4834C82.0465 98.3134 81.4004 97.1989 80.8061 96.1747C67.3551 101.556 56.3246 98.5105 47.4385 87.2199C46.0145 88.0318 44.5022 88.8937 42.9913 89.757C40.9912 90.8992 38.9996 92.0554 36.9855 93.1726C36.5117 93.4363 36.3548 93.657 36.5103 94.2344C37.8068 98.9963 34.8831 103.889 30.077 105.068C25.2374 106.256 20.3949 103.328 19.24 98.5147C18.3261 94.7063 20.0795 90.7368 23.526 88.8077C26.9627 86.884 31.3217 87.4267 34.1192 90.197C34.614 90.6883 34.9195 90.6508 35.4535 90.3399C38.7333 88.4371 42.0326 86.5676 45.3249 84.687C45.5226 84.5745 45.7132 84.4496 45.9556 84.2997C43.4636 79.0576 42.7782 73.6018 43.8294 67.9016C42.4391 67.5297 41.116 67.1758 39.741 66.808C39.6064 67.0259 39.4733 67.234 39.3472 67.4464C37.2336 70.9856 33.0064 72.6233 29.0819 71.4214C25.0173 70.1764 22.4636 66.4221 22.7958 62.1821C23.1055 58.2293 26.2759 54.8872 30.3153 54.253C35.6371 53.4188 40.5329 57.5243 40.5553 62.883C40.5581 63.5186 40.7557 63.7615 41.3528 63.8934C42.4419 64.1335 43.5127 64.4485 44.5933 64.7344C48.6733 54.3695 56.1886 48.414 67.4714 47.0886C67.4714 46.9096 67.4714 46.6861 67.4714 46.4627C67.4714 42.6959 67.463 38.9291 67.4812 35.1623C67.484 34.6696 67.3593 34.46 66.8393 34.3226C62.4593 33.1707 59.7711 29.161 60.2995 24.6337C60.7887 20.4325 64.4734 17.1445 68.8464 17.0057C73.2586 16.8656 77.0695 19.9134 77.888 24.2353C78.7388 28.7266 75.9118 33.1304 71.3889 34.3379C71.0315 34.4337 70.7553 34.4739 70.7581 34.968C70.7792 38.9194 70.7708 42.8708 70.7736 46.8221C70.7722 46.9109 70.7932 47.0012 70.8156 47.1663ZM60.7354 81.7363C61.0564 81.7363 61.3086 81.7363 61.5609 81.7363C66.5534 81.7363 71.5458 81.7363 76.5383 81.7349C77.525 81.7349 77.5138 81.7321 77.6652 80.7411C78.2833 76.7023 78.4052 72.6469 78.066 68.5803C77.9427 67.0966 77.7142 65.6213 77.5348 64.1515C71.8598 64.1515 66.3193 64.1515 60.7382 64.1515C59.7417 70.0071 59.7375 75.8155 60.7354 81.7363ZM80.8131 81.7016C81.1215 81.7168 81.3261 81.7349 81.5322 81.7349C84.0971 81.7363 86.6634 81.721 89.2283 81.7488C89.7385 81.7543 89.9599 81.5767 90.1295 81.1187C92.1604 75.6489 92.145 70.1903 90.1099 64.7261C89.9235 64.2265 89.653 64.0849 89.133 64.0904C86.6143 64.1168 84.0957 64.1029 81.577 64.1029C81.35 64.1029 81.1229 64.1029 80.8019 64.1029C81.7088 69.989 81.7242 75.803 80.8131 81.7016ZM57.4066 64.1668C57.2244 64.1362 57.1333 64.1071 57.0436 64.1071C54.3161 64.1029 51.59 64.0904 48.8639 64.1251C48.6341 64.1279 48.2865 64.411 48.1968 64.6414C46.0706 70.1278 46.0678 75.6281 48.1141 81.1436C48.2935 81.6252 48.5556 81.7515 49.0391 81.746C51.0196 81.7238 53.0014 81.7363 54.9819 81.7363C55.7668 81.7363 56.5516 81.7363 57.4206 81.7363C56.4718 75.846 56.4816 70.0376 57.4066 64.1668ZM76.7401 85.0159C71.6313 85.0159 66.6024 85.0159 61.5497 85.0159C61.5595 85.1602 61.5455 85.2782 61.5763 85.3851C62.2491 87.7487 63.0606 90.0706 64.4846 92.097C65.1924 93.1046 66.0642 94.0456 67.0229 94.8201C68.29 95.8443 69.7868 95.8707 71.1043 94.8964C71.9859 94.2455 72.7848 93.4266 73.4436 92.5522C74.8802 90.6452 75.7282 88.4385 76.4234 86.1762C76.5369 85.8084 76.6266 85.4323 76.7401 85.0159ZM76.6799 60.8261C76.6799 60.7192 76.6953 60.647 76.6771 60.5846C75.909 57.8296 74.9195 55.1634 73.117 52.8928C72.5087 52.1267 71.7365 51.4466 70.9235 50.8915C69.7392 50.0823 68.3951 50.092 67.25 50.9345C66.3305 51.6118 65.4882 52.4501 64.7902 53.3522C63.5189 54.9969 62.7425 56.915 62.0879 58.8747C61.8777 59.5034 61.6941 60.1419 61.4838 60.8247C66.6094 60.8261 71.6355 60.8261 76.6799 60.8261ZM63.4783 25.8037C63.4741 28.8987 65.9815 31.3886 69.1127 31.3997C72.227 31.4108 74.7527 28.914 74.7597 25.8162C74.7653 22.7267 72.241 20.2187 69.1253 20.2187C66.0012 20.2174 63.4825 22.7086 63.4783 25.8037ZM37.3331 63.012C37.3303 59.9295 34.7864 57.4299 31.6524 57.4327C28.5563 57.4354 26.0208 59.9364 26.0223 62.9843C26.0237 66.0904 28.604 68.6317 31.7393 68.6164C34.7962 68.6011 37.3345 66.0571 37.3331 63.012ZM115.128 90.7299C118.22 90.7216 120.73 88.2372 120.747 85.1672C120.765 82.0944 118.199 79.542 115.103 79.5517C111.956 79.5614 109.441 82.0513 109.45 85.1464C109.46 88.2289 112.011 90.7382 115.128 90.7299ZM27.8864 102.098C31.0063 102.108 33.5446 99.6056 33.5544 96.5105C33.5642 93.4488 30.9979 90.9214 27.8808 90.9228C24.7917 90.9242 22.2898 93.3975 22.259 96.48C22.2282 99.5736 24.7468 102.087 27.8864 102.098ZM88.4967 111.764C91.6236 111.771 94.1423 109.261 94.1254 106.156C94.1086 103.074 91.6306 100.61 88.5219 100.588C85.416 100.566 82.8595 103.084 82.8511 106.17C82.8412 109.271 85.3515 111.757 88.4967 111.764ZM96.5376 51.3647C99.6659 51.3467 102.189 48.8304 102.166 45.7493C102.145 42.6723 99.579 40.1699 96.4675 40.1921C93.3798 40.2129 90.8541 42.7361 90.8765 45.777C90.899 48.8818 93.4316 51.3814 96.5376 51.3647ZM88.1855 84.9854C85.5197 84.9854 83.0277 84.9937 80.5342 84.977C80.0927 84.9743 80.0731 85.2505 79.996 85.5433C79.2658 88.2983 78.3169 90.9672 76.8158 93.4183C76.642 93.7014 76.4668 93.9818 76.1879 94.4314C81.3514 92.6008 85.2324 89.5113 88.1855 84.9854ZM61.8707 94.3648C61.1306 92.87 60.3331 91.4599 59.7262 89.9735C59.118 88.4815 58.6821 86.9187 58.2097 85.3768C58.085 84.9715 57.8355 84.9826 57.5243 84.984C55.7766 84.9881 54.0288 84.9854 52.281 84.9854C51.59 84.9854 50.9004 84.9854 50.0553 84.9854C53.0028 89.5127 56.888 92.6077 61.8707 94.3648ZM76.3407 51.6048C78.0955 54.3362 79.2027 57.3119 79.9988 60.4111C80.1109 60.8469 80.3422 60.8705 80.6968 60.8691C82.98 60.8608 85.2646 60.8663 87.5478 60.8636C87.6977 60.8636 87.8477 60.8455 88.1294 60.8261C85.1973 56.3681 81.3331 53.2967 76.3407 51.6048ZM50.0931 60.8663C52.7463 60.8663 55.2159 60.8761 57.6855 60.8455C57.8649 60.8427 58.134 60.5735 58.2027 60.375C58.5629 59.3271 58.7886 58.2279 59.2161 57.2106C60.0164 55.3064 60.9218 53.4452 61.7796 51.5757C56.9189 53.2911 53.0533 56.3654 50.0931 60.8663Z" fill="white"/>
<path d="M68.918 112.153C58.9541 112.027 50.6903 109.299 43.3152 103.931C43.2395 103.877 43.168 103.818 43.0937 103.762C42.1953 103.072 41.9879 102.119 42.5667 101.357C43.1526 100.588 44.1477 100.501 45.0447 101.171C47.4961 103 50.1199 104.535 52.9357 105.743C59.2849 108.467 65.8976 109.428 72.7695 108.614C73.0008 108.587 73.2335 108.557 73.4661 108.548C74.4108 108.509 75.1382 109.093 75.2363 109.959C75.3359 110.834 74.7037 111.64 73.7521 111.736C71.8753 111.923 69.993 112.062 68.918 112.153Z" fill="white"/>
<path d="M36.0902 48.6817C36.1631 48.5262 36.2738 48.1682 36.4771 47.8739C41.3658 40.8386 47.8678 35.8269 55.8905 32.7305C56.908 32.3377 57.8205 32.6847 58.1723 33.5521C58.5409 34.4626 58.1064 35.337 57.0552 35.7381C49.6366 38.5652 43.6854 43.2383 39.1387 49.6824C38.6075 50.4346 37.8955 50.6983 37.1568 50.4429C36.5177 50.2223 36.0748 49.5783 36.0902 48.6817Z" fill="white"/>
<path d="M110.675 71.2115C110.675 71.7431 110.684 72.2732 110.673 72.8048C110.652 73.8138 109.974 74.5439 109.066 74.5508C108.145 74.5577 107.438 73.861 107.426 72.8423C107.389 69.9208 107.15 67.0173 106.373 64.1984C105.804 62.1332 105.065 60.111 104.348 58.0902C103.96 56.9966 104.218 56.0958 105.157 55.7128C106.042 55.3505 106.917 55.7891 107.367 56.8342C109.347 61.4268 110.428 66.222 110.675 71.2115Z" fill="white"/>
<path d="M103.9 88.4103C105.065 88.4103 105.856 89.5831 105.355 90.6587C104.947 91.5358 104.507 92.4172 103.951 93.2069C102.476 95.3054 100.946 97.3664 99.4041 99.4191C98.9907 99.9701 98.381 100.212 97.6648 100.013C97.0201 99.8341 96.5533 99.4164 96.5239 98.7654C96.5029 98.3213 96.6192 97.755 96.8967 97.4344C99.0608 94.9334 100.928 92.2437 102.43 89.3041C102.732 88.717 103.237 88.4297 103.9 88.4103Z" fill="white"/>
<path d="M80.5459 31.0387C80.6636 31.0692 80.9383 31.1178 81.199 31.2094C84.1746 32.2559 86.9988 33.6119 89.6618 35.2954C90.5673 35.8686 90.8434 36.8096 90.3542 37.6021C89.8791 38.3724 88.8391 38.5695 87.9589 38.0199C85.4248 36.439 82.7548 35.1455 79.932 34.1532C79.1037 33.8631 78.6874 33.1441 78.8276 32.3725C78.9691 31.5952 79.604 31.0526 80.5459 31.0387Z" fill="white"/>
<path d="M31.9962 85.0032C31.4188 84.9838 30.8876 84.6479 30.6395 83.9734C29.5729 81.0754 28.9015 78.0831 28.5609 75.0186C28.4586 74.1012 29.1412 73.3573 30.0705 73.2671C30.9731 73.1796 31.6613 73.825 31.8463 74.8507C32.1602 76.598 32.477 78.3482 32.8638 80.0803C33.0797 81.0463 33.4581 81.9748 33.7356 82.9269C34.0538 84.0164 33.2899 84.9976 31.9962 85.0032Z" fill="white"/>
</g>
<defs>
<clipPath id="clip0_586_30123">
<rect width="105" height="98" fill="white" transform="translate(19 17)"/>
</clipPath>
</defs>
</svg>
