<svg width="138" height="138" viewBox="0 0 138 138" fill="none" xmlns="http://www.w3.org/2000/svg">
<circle cx="69" cy="69" r="69" fill="#4949FC"/>
<g clip-path="url(#clip0_586_30134)">
<path d="M108.993 87.7889C108.99 89.1269 109.016 90.465 108.987 91.7998C108.93 94.3412 107.461 95.9038 104.952 96.0675C103.321 96.1734 101.281 95.6279 100.163 96.4237C99.0364 97.2259 98.848 99.3372 98.1968 100.849C97.1944 103.175 97.1784 103.162 99.03 105.046C99.6653 105.691 100.333 106.316 100.891 107.025C102.101 108.566 102.053 110.85 100.671 112.326C98.6661 114.463 96.591 116.539 94.4713 118.564C92.9166 120.05 90.5765 119.989 88.9484 118.574C88.9069 118.538 88.8654 118.506 88.8271 118.468C87.6299 117.345 86.5669 115.567 85.2005 115.291C83.9204 115.034 82.3337 116.395 80.862 116.992C78.3177 118.025 78.3113 118.009 78.3113 120.756C78.3113 121.452 78.3273 122.148 78.3017 122.841C78.206 125.261 76.5427 126.933 74.1197 126.968C71.3551 127.006 68.5872 127.013 65.8194 126.965C63.4826 126.923 61.8225 125.258 61.73 122.918C61.6789 121.584 61.797 120.236 61.6661 118.911C61.6182 118.436 61.1458 117.816 60.7052 117.605C59.0324 116.803 57.3117 116.081 55.5654 115.458C55.1121 115.298 54.3523 115.426 53.9852 115.728C53.0019 116.533 52.1751 117.531 51.2461 118.41C49.4935 120.069 47.1088 120.088 45.3721 118.404C43.38 116.475 41.4231 114.508 39.5076 112.503C37.854 110.77 37.8572 108.37 39.4725 106.586C40.542 105.402 42.2914 104.41 42.5851 103.079C42.8533 101.853 41.5284 100.306 40.9921 98.8687C39.9514 96.0707 39.9769 96.0611 37.0686 96.0803C36.3759 96.0835 35.6831 96.1188 34.9936 96.0643C32.5769 95.875 31.0765 94.3187 31.0382 91.8865C30.9935 89.1045 30.9967 86.3225 31.0382 83.5437C31.0765 81.0729 32.6567 79.4621 35.1309 79.337C36.3504 79.276 37.5794 79.2824 38.8021 79.3274C39.6641 79.3595 40.1844 79.1413 40.3919 78.1947C40.5867 77.3155 40.9474 76.4652 41.3177 75.6405C41.7232 74.7356 42.384 74.1067 43.4566 74.5078C44.5133 74.9057 44.6698 75.7881 44.3665 76.7604C43.8908 78.2877 43.4886 79.86 42.799 81.2879C42.5085 81.8912 41.5955 82.4784 40.9123 82.549C39.1756 82.7287 37.407 82.6356 35.6512 82.6035C34.6488 82.5875 34.1955 82.9822 34.2114 84.025C34.2466 86.4316 34.2593 88.8414 34.2083 91.2447C34.1827 92.4416 34.7222 92.8812 35.8332 92.8683C37.4294 92.8491 39.0256 92.9069 40.6218 92.8491C41.9179 92.8042 42.5947 93.2759 43.0512 94.5882C43.9419 97.1456 45.0082 99.6517 46.167 102.103C46.7225 103.278 46.6012 104.093 45.7169 104.949C44.5261 106.098 43.4024 107.311 42.2084 108.453C41.4231 109.201 41.3944 109.84 42.1829 110.613C43.9004 112.288 45.5987 113.985 47.2556 115.721C48.025 116.527 48.6315 116.501 49.3754 115.705C50.5055 114.499 51.7314 113.382 52.8519 112.169C53.7745 111.171 54.6428 111.216 55.8304 111.774C58.2726 112.923 60.785 113.937 63.3166 114.874C64.4403 115.288 64.9703 115.875 64.9351 117.082C64.8873 118.792 64.9447 120.505 64.916 122.216C64.9 123.3 65.3725 123.756 66.4579 123.74C68.7979 123.701 71.1412 123.695 73.4812 123.743C74.6369 123.766 75.1381 123.307 75.1061 122.135C75.0646 120.48 75.1413 118.818 75.0806 117.162C75.0359 115.885 75.585 115.285 76.779 114.852C79.3137 113.927 81.8102 112.875 84.2588 111.736C85.3857 111.213 86.2285 111.178 87.1096 112.115C88.278 113.36 89.5262 114.524 90.701 115.763C91.397 116.494 91.978 116.533 92.7027 115.782C94.4074 114.017 96.1505 112.294 97.8967 110.568C98.615 109.856 98.6022 109.223 97.8744 108.521C96.6868 107.372 95.5599 106.156 94.3659 105.017C93.4241 104.121 93.2933 103.278 93.8871 102.042C95.0363 99.6485 96.0675 97.1841 96.9358 94.6749C97.4051 93.3144 98.0914 92.7849 99.4738 92.8523C101.012 92.9261 102.561 92.8427 104.103 92.8748C105.287 92.8972 105.852 92.4512 105.817 91.1709C105.753 88.8189 105.763 86.4637 105.814 84.1116C105.839 82.9822 105.361 82.5811 104.291 82.6035C102.644 82.6388 100.99 82.5746 99.3429 82.6228C98.1042 82.6581 97.354 82.2217 97.0348 80.9382C96.7155 79.6482 96.2239 78.4 95.7929 77.139C95.4449 76.1218 95.6748 75.294 96.6996 74.9121C97.7339 74.5271 98.433 75.0501 98.8512 76.0095C98.8736 76.0576 98.9055 76.1058 98.9119 76.1571C99.2311 79.1509 101.089 79.5231 103.688 79.3787C107.598 79.1605 108.987 80.6911 108.997 84.5833C108.997 85.6518 108.993 86.7204 108.993 87.7889Z" fill="white"/>
<path d="M90.2383 49.1971C90.085 54.9023 87.9014 60.0459 83.3395 63.9895C80.9132 66.088 79.7672 68.5556 79.9555 71.7162C79.9906 72.3034 80.1407 72.9965 79.8949 73.4553C79.5756 74.0554 78.9052 74.8704 78.4008 74.8608C77.8422 74.8512 76.8685 74.0554 76.8206 73.5291C76.3896 69.0369 77.1654 64.9874 80.8717 61.8204C86.0562 57.3891 88.0515 51.6069 86.5383 44.9615C84.9963 38.1846 80.6036 33.8046 73.8804 32.12C66.3367 30.2301 58.4579 34.0004 54.9239 40.9185C51.3452 47.92 52.7882 56.3623 58.7899 61.5027C62.509 64.6922 63.6072 68.6197 63.2752 73.2339C63.1986 74.2896 62.7006 74.9699 61.5896 74.9538C60.4404 74.9378 60.0413 74.1966 60.0509 73.1377C60.0573 72.4414 60.0349 71.7451 60.0509 71.052C60.1115 68.3053 59.0581 66.1073 56.9894 64.3039C51.8751 59.8502 49.4649 54.1931 49.8384 47.3938C50.3236 38.5697 56.4467 31.3532 65.4461 28.9017C73.1302 26.8095 82.1615 30.3937 86.7968 37.376C89.1082 40.8575 90.2383 44.692 90.2383 49.1971Z" fill="white"/>
<path d="M69.2901 107.234C54.6146 106.435 46.0845 91.0619 53.1652 78.1691C53.3185 77.8899 53.4941 77.6204 53.6664 77.3508C54.2698 76.4171 54.9243 75.448 56.2044 76.247C57.4175 77.0075 56.9865 78.0054 56.4662 79.0419C55.7511 80.4633 55.0009 81.9009 54.5348 83.4154C51.9713 91.7742 56.9067 100.666 65.5358 103.367C73.4625 105.851 82.5864 101.102 85.217 93.1348C86.8196 88.2767 86.3056 83.6561 83.707 79.2665C83.624 79.1285 83.541 78.9937 83.458 78.8558C82.9121 77.9252 82.778 77.0075 83.7836 76.3208C84.8403 75.5989 85.7214 76.1347 86.1428 77.0877C87.2122 79.5103 88.5339 81.9233 89.0383 84.4807C91.407 96.4269 81.3542 107.892 69.2901 107.234Z" fill="white"/>
<path d="M68.3605 50.7438C70.6175 48.4335 72.5489 46.4537 74.4835 44.4771C74.7804 44.1722 75.0773 43.8642 75.3934 43.5786C76.1787 42.8791 77.0566 42.7379 77.8036 43.5241C78.5443 44.307 78.3847 45.1798 77.6344 45.9371C75.0071 48.5811 72.3766 51.2251 69.746 53.8659C68.9224 54.6906 68.0413 54.7162 67.2208 53.9205C65.73 52.4733 64.2774 50.9877 62.8249 49.502C62.1034 48.764 61.8608 47.8976 62.6493 47.1018C63.4825 46.2611 64.4083 46.4697 65.1745 47.2623C66.2024 48.3276 67.1793 49.4442 68.3605 50.7438Z" fill="white"/>
<path d="M69.9592 80.8516C72.2928 80.8516 74.6296 80.8516 76.9633 80.8516C78.0232 80.8516 78.9202 81.1436 78.9681 82.3918C79.0224 83.7267 78.0998 84.1246 76.9761 84.1278C72.3056 84.147 67.6351 84.147 62.9646 84.1246C61.9111 84.1182 61.0332 83.7203 61.0332 82.4849C61.0332 81.2559 61.86 80.8548 62.9518 80.8548C65.2887 80.8484 67.6223 80.8516 69.9592 80.8516Z" fill="white"/>
<path d="M70.0422 93.1604C68.9281 93.1604 67.7724 93.3401 66.7125 93.0962C66.0517 92.9422 65.1898 92.2427 65.0301 91.6298C64.7652 90.5998 65.5984 89.9228 66.6232 89.8939C68.9057 89.8297 71.1979 89.7687 73.4645 89.9613C74.0391 90.0094 74.8564 90.9496 74.9841 91.5913C75.166 92.5283 74.3807 93.1251 73.3879 93.154C72.2737 93.1861 71.1564 93.1604 70.0422 93.1604Z" fill="white"/>
<path d="M50 17.1049C50.249 16.8353 50.5906 16.1326 51.0599 16.0331C51.6122 15.9144 52.5731 16.123 52.838 16.5273C54.2267 18.6739 55.5229 20.8912 56.6721 23.1726C56.9052 23.6315 56.5732 24.7481 56.1422 25.0658C55.724 25.3738 54.447 25.3032 54.2235 24.9567C52.7519 22.6817 51.4621 20.288 50.1213 17.9295C50.0479 17.8012 50.0702 17.6183 50 17.1049Z" fill="white"/>
<path d="M89.7183 17.148C89.4693 17.8186 89.3736 18.239 89.1724 18.5984C88.1062 20.4947 87.0239 22.3815 85.9289 24.2618C85.4022 25.1667 84.6935 25.7988 83.5985 25.1924C82.446 24.557 82.545 23.6169 83.1292 22.6125C84.2721 20.6391 85.3415 18.6176 86.5898 16.7148C86.9058 16.2367 87.8157 15.8805 88.4063 15.9415C88.8915 15.996 89.3065 16.7437 89.7183 17.148Z" fill="white"/>
<path d="M38.8181 28.9209C39.3959 29.168 39.6992 29.2642 39.9705 29.4183C41.9434 30.5542 43.9131 31.6933 45.8701 32.8516C46.7767 33.3875 47.2332 34.2924 46.5501 35.0978C46.1446 35.5759 44.9475 35.9128 44.4239 35.6561C42.2435 34.594 40.1333 33.3586 38.1125 32.0077C37.6433 31.6933 37.3911 30.6408 37.4964 30.0023C37.5762 29.5498 38.419 29.2257 38.8181 28.9209Z" fill="white"/>
<path d="M102.747 31.0354C102.526 31.2857 102.204 31.8633 101.715 32.1649C99.7809 33.3618 97.7952 34.4688 95.8287 35.6111C94.8422 36.1855 93.9419 36.0764 93.3865 35.0656C92.8533 34.0998 93.3162 33.3297 94.2101 32.8099C96.1766 31.6643 98.1208 30.4803 100.116 29.3957C101.47 28.6577 102.791 29.354 102.747 31.0354Z" fill="white"/>
<path d="M37.7236 50.3458C36.552 50.349 35.3835 50.3619 34.2119 50.3426C33.1616 50.3266 32.421 49.8292 32.4338 48.7254C32.4465 47.6408 33.1808 47.0985 34.2215 47.0857C36.5615 47.0568 38.9016 47.0472 41.2416 47.0889C42.2983 47.1082 42.9463 47.705 42.9144 48.812C42.8857 49.8613 42.2217 50.3234 41.232 50.3394C40.0668 50.3587 38.8952 50.3458 37.7236 50.3458Z" fill="white"/>
<path d="M102.331 50.3458C101.16 50.3458 99.9912 50.3587 98.8196 50.3426C97.7565 50.3266 96.9169 49.7939 97.1563 48.7158C97.2968 48.0836 98.1428 47.198 98.727 47.1531C101.109 46.9766 103.516 46.9734 105.897 47.1531C106.497 47.198 107.385 48.0708 107.519 48.6965C107.742 49.7426 106.9 50.3137 105.843 50.3362C104.674 50.3619 103.503 50.3426 102.331 50.3458Z" fill="white"/>
<path d="M71.5792 16.2079C71.5792 17.4336 71.5984 18.6594 71.576 19.8851C71.5569 20.8927 71.0269 21.5216 70.0181 21.528C69.0029 21.5344 68.457 20.883 68.4443 19.8947C68.4155 17.4432 68.406 14.9918 68.4507 12.5403C68.4698 11.5391 69.1083 10.8075 70.0724 11.0482C70.6598 11.1958 71.3973 11.9531 71.5122 12.5435C71.7356 13.7243 71.5792 14.9821 71.5792 16.2079Z" fill="white"/>
</g>
<defs>
<clipPath id="clip0_586_30134">
<rect width="78" height="116" fill="white" transform="translate(31 11)"/>
</clipPath>
</defs>
</svg>
