<svg width="1440" height="1957" viewBox="0 0 1440 1957" fill="none" xmlns="http://www.w3.org/2000/svg">
<g filter="url(#filter0_f_1_3835)">
<ellipse cx="281" cy="711" rx="313" ry="308" fill="#4949FC" fill-opacity="0.52"/>
</g>
<g opacity="0.23" filter="url(#filter1_f_1_3835)">
<ellipse cx="1098" cy="767" rx="313" ry="308" fill="#1C174F"/>
</g>
<g opacity="0.7" filter="url(#filter2_f_1_3835)">
<circle cx="749" cy="1129" r="228" fill="#4949FC"/>
</g>
<mask id="mask0_1_3835" style="mask-type:alpha" maskUnits="userSpaceOnUse" x="573" y="1164" width="281" height="66">
<rect x="574.125" y="1165.12" width="278.25" height="63.75" rx="18.675" fill="black" stroke="black" stroke-width="2.25"/>
</mask>
<g mask="url(#mask0_1_3835)">
<g filter="url(#filter3_f_1_3835)">
<ellipse cx="603.121" cy="1117.8" rx="107.305" ry="92.4" fill="#F6F6F6"/>
<path d="M709.301 1117.8C709.301 1168.06 661.926 1209.07 603.121 1209.07C544.315 1209.07 496.94 1168.06 496.94 1117.8C496.94 1067.54 544.315 1026.52 603.121 1026.52C661.926 1026.52 709.301 1067.54 709.301 1117.8Z" stroke="black" stroke-width="2.25"/>
</g>
<g opacity="0.5" filter="url(#filter4_f_1_3835)">
<ellipse cx="832.792" cy="1274.55" rx="107.305" ry="92.4" fill="#F6F6F6"/>
<path d="M938.973 1274.55C938.973 1324.81 891.598 1365.82 832.792 1365.82C773.987 1365.82 726.612 1324.81 726.612 1274.55C726.612 1224.29 773.987 1183.27 832.792 1183.27C891.598 1183.27 938.973 1224.29 938.973 1274.55Z" stroke="black" stroke-width="2.25"/>
</g>
</g>
<path d="M648.055 1207.82C646.647 1207.82 645.344 1207.56 644.147 1207.05C642.951 1206.54 641.903 1205.83 641.006 1204.91C640.108 1204 639.404 1202.92 638.894 1201.69C638.401 1200.46 638.155 1199.11 638.155 1197.65C638.155 1196.19 638.392 1194.85 638.867 1193.61C639.36 1192.36 640.047 1191.29 640.927 1190.39C641.824 1189.48 642.871 1188.77 644.068 1188.28C645.265 1187.77 646.567 1187.52 647.975 1187.52C649.383 1187.52 650.642 1187.75 651.751 1188.23C652.877 1188.7 653.827 1189.34 654.602 1190.13C655.376 1190.9 655.931 1191.76 656.265 1192.69L653.071 1194.22C652.701 1193.2 652.076 1192.37 651.196 1191.74C650.316 1191.11 649.243 1190.79 647.975 1190.79C646.743 1190.79 645.652 1191.08 644.702 1191.66C643.769 1192.24 643.039 1193.04 642.511 1194.06C642 1195.08 641.745 1196.28 641.745 1197.65C641.745 1199.03 642.009 1200.23 642.537 1201.27C643.083 1202.29 643.831 1203.09 644.781 1203.67C645.731 1204.25 646.823 1204.54 648.055 1204.54C649.058 1204.54 649.982 1204.35 650.827 1203.96C651.671 1203.56 652.349 1202.99 652.859 1202.27C653.37 1201.53 653.625 1200.66 653.625 1199.66V1198.15L655.262 1199.58H647.975V1196.54H657.215V1198.52C657.215 1200.04 656.96 1201.38 656.45 1202.54C655.939 1203.7 655.244 1204.68 654.364 1205.47C653.502 1206.24 652.525 1206.83 651.434 1207.24C650.343 1207.62 649.216 1207.82 648.055 1207.82ZM666.577 1207.82C665.099 1207.82 663.805 1207.48 662.696 1206.81C661.588 1206.14 660.725 1205.24 660.109 1204.09C659.493 1202.95 659.185 1201.68 659.185 1200.29C659.185 1198.85 659.493 1197.57 660.109 1196.46C660.743 1195.34 661.596 1194.45 662.67 1193.8C663.761 1193.15 664.976 1192.82 666.313 1192.82C667.44 1192.82 668.425 1193.01 669.27 1193.38C670.132 1193.75 670.863 1194.26 671.461 1194.91C672.06 1195.56 672.517 1196.31 672.834 1197.15C673.151 1197.98 673.309 1198.88 673.309 1199.84C673.309 1200.09 673.292 1200.35 673.256 1200.61C673.239 1200.87 673.195 1201.1 673.124 1201.3H662.036V1198.66H671.171L669.534 1199.9C669.692 1199.09 669.648 1198.37 669.402 1197.73C669.173 1197.1 668.786 1196.6 668.24 1196.23C667.712 1195.86 667.07 1195.67 666.313 1195.67C665.592 1195.67 664.949 1195.86 664.386 1196.23C663.823 1196.58 663.392 1197.11 663.092 1197.81C662.811 1198.5 662.705 1199.33 662.776 1200.32C662.705 1201.2 662.82 1201.98 663.119 1202.67C663.436 1203.34 663.893 1203.86 664.492 1204.23C665.108 1204.6 665.812 1204.78 666.604 1204.78C667.396 1204.78 668.064 1204.61 668.61 1204.28C669.173 1203.94 669.613 1203.5 669.93 1202.93L672.728 1204.31C672.447 1204.99 672.007 1205.6 671.408 1206.13C670.81 1206.66 670.097 1207.07 669.27 1207.37C668.46 1207.67 667.563 1207.82 666.577 1207.82ZM682.478 1207.66C680.859 1207.66 679.601 1207.22 678.703 1206.34C677.823 1205.44 677.383 1204.18 677.383 1202.56V1196.23H674.901V1193.14H675.165C675.869 1193.14 676.415 1192.95 676.802 1192.58C677.189 1192.21 677.383 1191.68 677.383 1190.97V1189.86H680.841V1193.14H684.141V1196.23H680.841V1202.38C680.841 1202.85 680.921 1203.26 681.079 1203.59C681.255 1203.93 681.519 1204.18 681.871 1204.36C682.241 1204.53 682.707 1204.62 683.27 1204.62C683.393 1204.62 683.534 1204.61 683.693 1204.6C683.869 1204.58 684.036 1204.56 684.194 1204.54V1207.5C683.948 1207.54 683.666 1207.57 683.349 1207.61C683.033 1207.64 682.742 1207.66 682.478 1207.66ZM698.841 1207.82C697.592 1207.82 696.43 1207.59 695.357 1207.13C694.301 1206.67 693.385 1206.04 692.611 1205.23C691.854 1204.4 691.3 1203.44 690.948 1202.35L693.931 1201.06C694.406 1202.18 695.093 1203.07 695.99 1203.72C696.888 1204.36 697.9 1204.68 699.026 1204.68C699.66 1204.68 700.205 1204.58 700.663 1204.38C701.138 1204.17 701.499 1203.89 701.745 1203.54C702.009 1203.19 702.141 1202.77 702.141 1202.27C702.141 1201.69 701.965 1201.22 701.613 1200.85C701.279 1200.46 700.769 1200.16 700.082 1199.95L696.307 1198.74C694.776 1198.26 693.623 1197.55 692.849 1196.6C692.074 1195.65 691.687 1194.53 691.687 1193.24C691.687 1192.12 691.96 1191.12 692.505 1190.26C693.069 1189.4 693.843 1188.73 694.829 1188.25C695.832 1187.76 696.976 1187.52 698.261 1187.52C699.44 1187.52 700.522 1187.73 701.508 1188.15C702.493 1188.55 703.338 1189.13 704.042 1189.86C704.764 1190.59 705.301 1191.44 705.653 1192.43L702.696 1193.75C702.309 1192.76 701.728 1192 700.953 1191.48C700.179 1190.93 699.281 1190.66 698.261 1190.66C697.662 1190.66 697.134 1190.76 696.677 1190.97C696.219 1191.17 695.858 1191.45 695.594 1191.82C695.348 1192.17 695.225 1192.59 695.225 1193.09C695.225 1193.63 695.401 1194.12 695.753 1194.54C696.105 1194.94 696.641 1195.26 697.363 1195.49L700.98 1196.62C702.546 1197.13 703.717 1197.84 704.491 1198.74C705.283 1199.63 705.679 1200.74 705.679 1202.06C705.679 1203.19 705.389 1204.18 704.808 1205.04C704.227 1205.91 703.426 1206.58 702.405 1207.08C701.385 1207.57 700.197 1207.82 698.841 1207.82ZM715.169 1207.66C713.55 1207.66 712.291 1207.22 711.394 1206.34C710.514 1205.44 710.074 1204.18 710.074 1202.56V1196.23H707.592V1193.14H707.856C708.56 1193.14 709.106 1192.95 709.493 1192.58C709.88 1192.21 710.074 1191.68 710.074 1190.97V1189.86H713.532V1193.14H716.832V1196.23H713.532V1202.38C713.532 1202.85 713.611 1203.26 713.77 1203.59C713.946 1203.93 714.21 1204.18 714.562 1204.36C714.931 1204.53 715.398 1204.62 715.961 1204.62C716.084 1204.62 716.225 1204.61 716.383 1204.6C716.559 1204.58 716.726 1204.56 716.885 1204.54V1207.5C716.638 1207.54 716.357 1207.57 716.04 1207.61C715.723 1207.64 715.433 1207.66 715.169 1207.66ZM723.831 1207.82C722.828 1207.82 721.957 1207.65 721.218 1207.32C720.479 1206.98 719.907 1206.51 719.502 1205.89C719.097 1205.26 718.895 1204.53 718.895 1203.7C718.895 1202.91 719.071 1202.2 719.423 1201.59C719.775 1200.95 720.32 1200.42 721.059 1200C721.799 1199.58 722.731 1199.28 723.858 1199.1L728.557 1198.34V1200.98L724.518 1201.67C723.831 1201.79 723.321 1202.01 722.987 1202.33C722.652 1202.64 722.485 1203.06 722.485 1203.57C722.485 1204.06 722.67 1204.46 723.039 1204.75C723.427 1205.04 723.902 1205.18 724.465 1205.18C725.187 1205.18 725.82 1205.03 726.366 1204.73C726.929 1204.41 727.36 1203.98 727.659 1203.43C727.976 1202.89 728.135 1202.29 728.135 1201.64V1197.94C728.135 1197.33 727.888 1196.82 727.395 1196.41C726.92 1195.99 726.287 1195.78 725.495 1195.78C724.755 1195.78 724.095 1195.98 723.515 1196.39C722.951 1196.77 722.538 1197.29 722.274 1197.94L719.449 1196.57C719.731 1195.81 720.171 1195.16 720.769 1194.62C721.385 1194.05 722.107 1193.61 722.934 1193.3C723.761 1192.98 724.659 1192.82 725.627 1192.82C726.806 1192.82 727.844 1193.04 728.742 1193.48C729.639 1193.9 730.335 1194.5 730.827 1195.28C731.338 1196.03 731.593 1196.92 731.593 1197.94V1207.5H728.319V1205.04L729.059 1204.99C728.689 1205.61 728.249 1206.13 727.739 1206.55C727.228 1206.95 726.647 1207.27 725.996 1207.5C725.345 1207.71 724.623 1207.82 723.831 1207.82ZM734.79 1207.5V1193.14H738.037V1196.33L737.773 1195.86C738.107 1194.78 738.626 1194.04 739.33 1193.61C740.052 1193.19 740.914 1192.98 741.918 1192.98H742.762V1196.04H741.522C740.536 1196.04 739.744 1196.35 739.146 1196.97C738.547 1197.56 738.248 1198.41 738.248 1199.5V1207.5H734.79ZM751.598 1207.66C749.978 1207.66 748.72 1207.22 747.822 1206.34C746.942 1205.44 746.502 1204.18 746.502 1202.56V1196.23H744.021V1193.14H744.285C744.989 1193.14 745.534 1192.95 745.922 1192.58C746.309 1192.21 746.502 1191.68 746.502 1190.97V1189.86H749.961V1193.14H753.261V1196.23H749.961V1202.38C749.961 1202.85 750.04 1203.26 750.198 1203.59C750.374 1203.93 750.638 1204.18 750.99 1204.36C751.36 1204.53 751.826 1204.62 752.39 1204.62C752.513 1204.62 752.654 1204.61 752.812 1204.6C752.988 1204.58 753.155 1204.56 753.314 1204.54V1207.5C753.067 1207.54 752.786 1207.57 752.469 1207.61C752.152 1207.64 751.862 1207.66 751.598 1207.66ZM762.638 1207.82C761.16 1207.82 759.866 1207.48 758.757 1206.81C757.649 1206.14 756.786 1205.24 756.17 1204.09C755.554 1202.95 755.246 1201.68 755.246 1200.29C755.246 1198.85 755.554 1197.57 756.17 1196.46C756.804 1195.34 757.657 1194.45 758.731 1193.8C759.822 1193.15 761.037 1192.82 762.374 1192.82C763.501 1192.82 764.486 1193.01 765.331 1193.38C766.193 1193.75 766.924 1194.26 767.522 1194.91C768.121 1195.56 768.578 1196.31 768.895 1197.15C769.212 1197.98 769.37 1198.88 769.37 1199.84C769.37 1200.09 769.353 1200.35 769.317 1200.61C769.3 1200.87 769.256 1201.1 769.185 1201.3H758.097V1198.66H767.232L765.595 1199.9C765.753 1199.09 765.709 1198.37 765.463 1197.73C765.234 1197.1 764.847 1196.6 764.301 1196.23C763.773 1195.86 763.131 1195.67 762.374 1195.67C761.653 1195.67 761.01 1195.86 760.447 1196.23C759.884 1196.58 759.453 1197.11 759.153 1197.81C758.872 1198.5 758.766 1199.33 758.837 1200.32C758.766 1201.2 758.881 1201.98 759.18 1202.67C759.497 1203.34 759.954 1203.86 760.553 1204.23C761.169 1204.6 761.873 1204.78 762.665 1204.78C763.457 1204.78 764.125 1204.61 764.671 1204.28C765.234 1203.94 765.674 1203.5 765.991 1202.93L768.789 1204.31C768.508 1204.99 768.068 1205.6 767.469 1206.13C766.871 1206.66 766.158 1207.07 765.331 1207.37C764.521 1207.67 763.624 1207.82 762.638 1207.82ZM778.671 1207.82C777.281 1207.82 776.04 1207.49 774.949 1206.84C773.857 1206.17 772.995 1205.26 772.361 1204.12C771.728 1202.98 771.411 1201.71 771.411 1200.32C771.411 1198.91 771.728 1197.64 772.361 1196.52C772.995 1195.39 773.857 1194.49 774.949 1193.82C776.057 1193.16 777.289 1192.82 778.645 1192.82C779.736 1192.82 780.704 1193.04 781.549 1193.48C782.411 1193.9 783.089 1194.5 783.581 1195.28L783.053 1195.99V1187.52H786.512V1207.5H783.238V1204.73L783.608 1205.41C783.115 1206.19 782.429 1206.79 781.549 1207.21C780.669 1207.61 779.709 1207.82 778.671 1207.82ZM779.041 1204.65C779.833 1204.65 780.528 1204.46 781.126 1204.09C781.725 1203.72 782.191 1203.21 782.525 1202.56C782.877 1201.91 783.053 1201.16 783.053 1200.32C783.053 1199.49 782.877 1198.75 782.525 1198.1C782.191 1197.43 781.725 1196.91 781.126 1196.54C780.528 1196.17 779.833 1195.99 779.041 1195.99C778.266 1195.99 777.571 1196.18 776.955 1196.57C776.339 1196.94 775.855 1197.45 775.503 1198.1C775.169 1198.74 775.001 1199.47 775.001 1200.32C775.001 1201.16 775.169 1201.91 775.503 1202.56C775.855 1203.21 776.339 1203.72 776.955 1204.09C777.571 1204.46 778.266 1204.65 779.041 1204.65Z" fill="white"/>
<rect x="574.125" y="1165.12" width="278.25" height="63.75" rx="17.025" stroke="url(#paint0_linear_1_3835)" stroke-width="2.25"/>
<mask id="mask1_1_3835" style="mask-type:alpha" maskUnits="userSpaceOnUse" x="573" y="1164" width="281" height="66">
<rect x="574.125" y="1165.12" width="278.25" height="63.75" rx="18.675" fill="black" stroke="black" stroke-width="2.25"/>
</mask>
<g mask="url(#mask1_1_3835)">
<g filter="url(#filter5_f_1_3835)">
<ellipse cx="603.121" cy="1117.8" rx="107.305" ry="92.4" fill="#4949FC"/>
<path d="M709.301 1117.8C709.301 1168.06 661.926 1209.07 603.121 1209.07C544.315 1209.07 496.94 1168.06 496.94 1117.8C496.94 1067.54 544.315 1026.52 603.121 1026.52C661.926 1026.52 709.301 1067.54 709.301 1117.8Z" stroke="black" stroke-width="2.25"/>
</g>
<g opacity="0.5" filter="url(#filter6_f_1_3835)">
<ellipse cx="832.792" cy="1274.55" rx="107.305" ry="92.4" fill="#4985E2"/>
<path d="M938.973 1274.55C938.973 1324.81 891.598 1365.82 832.792 1365.82C773.987 1365.82 726.612 1324.81 726.612 1274.55C726.612 1224.29 773.987 1183.27 832.792 1183.27C891.598 1183.27 938.973 1224.29 938.973 1274.55Z" stroke="black" stroke-width="2.25"/>
</g>
</g>
<path d="M648.055 1207.82C646.647 1207.82 645.344 1207.56 644.147 1207.05C642.951 1206.54 641.903 1205.83 641.006 1204.91C640.108 1204 639.404 1202.92 638.894 1201.69C638.401 1200.46 638.155 1199.11 638.155 1197.65C638.155 1196.19 638.392 1194.85 638.867 1193.61C639.36 1192.36 640.047 1191.29 640.927 1190.39C641.824 1189.48 642.871 1188.77 644.068 1188.28C645.265 1187.77 646.567 1187.52 647.975 1187.52C649.383 1187.52 650.642 1187.75 651.751 1188.23C652.877 1188.7 653.827 1189.34 654.602 1190.13C655.376 1190.9 655.931 1191.76 656.265 1192.69L653.071 1194.22C652.701 1193.2 652.076 1192.37 651.196 1191.74C650.316 1191.11 649.243 1190.79 647.975 1190.79C646.743 1190.79 645.652 1191.08 644.702 1191.66C643.769 1192.24 643.039 1193.04 642.511 1194.06C642 1195.08 641.745 1196.28 641.745 1197.65C641.745 1199.03 642.009 1200.23 642.537 1201.27C643.083 1202.29 643.831 1203.09 644.781 1203.67C645.731 1204.25 646.823 1204.54 648.055 1204.54C649.058 1204.54 649.982 1204.35 650.827 1203.96C651.671 1203.56 652.349 1202.99 652.859 1202.27C653.37 1201.53 653.625 1200.66 653.625 1199.66V1198.15L655.262 1199.58H647.975V1196.54H657.215V1198.52C657.215 1200.04 656.96 1201.38 656.45 1202.54C655.939 1203.7 655.244 1204.68 654.364 1205.47C653.502 1206.24 652.525 1206.83 651.434 1207.24C650.343 1207.62 649.216 1207.82 648.055 1207.82ZM666.577 1207.82C665.099 1207.82 663.805 1207.48 662.696 1206.81C661.588 1206.14 660.725 1205.24 660.109 1204.09C659.493 1202.95 659.185 1201.68 659.185 1200.29C659.185 1198.85 659.493 1197.57 660.109 1196.46C660.743 1195.34 661.596 1194.45 662.67 1193.8C663.761 1193.15 664.976 1192.82 666.313 1192.82C667.44 1192.82 668.425 1193.01 669.27 1193.38C670.132 1193.75 670.863 1194.26 671.461 1194.91C672.06 1195.56 672.517 1196.31 672.834 1197.15C673.151 1197.98 673.309 1198.88 673.309 1199.84C673.309 1200.09 673.292 1200.35 673.256 1200.61C673.239 1200.87 673.195 1201.1 673.124 1201.3H662.036V1198.66H671.171L669.534 1199.9C669.692 1199.09 669.648 1198.37 669.402 1197.73C669.173 1197.1 668.786 1196.6 668.24 1196.23C667.712 1195.86 667.07 1195.67 666.313 1195.67C665.592 1195.67 664.949 1195.86 664.386 1196.23C663.823 1196.58 663.392 1197.11 663.092 1197.81C662.811 1198.5 662.705 1199.33 662.776 1200.32C662.705 1201.2 662.82 1201.98 663.119 1202.67C663.436 1203.34 663.893 1203.86 664.492 1204.23C665.108 1204.6 665.812 1204.78 666.604 1204.78C667.396 1204.78 668.064 1204.61 668.61 1204.28C669.173 1203.94 669.613 1203.5 669.93 1202.93L672.728 1204.31C672.447 1204.99 672.007 1205.6 671.408 1206.13C670.81 1206.66 670.097 1207.07 669.27 1207.37C668.46 1207.67 667.563 1207.82 666.577 1207.82ZM682.478 1207.66C680.859 1207.66 679.601 1207.22 678.703 1206.34C677.823 1205.44 677.383 1204.18 677.383 1202.56V1196.23H674.901V1193.14H675.165C675.869 1193.14 676.415 1192.95 676.802 1192.58C677.189 1192.21 677.383 1191.68 677.383 1190.97V1189.86H680.841V1193.14H684.141V1196.23H680.841V1202.38C680.841 1202.85 680.921 1203.26 681.079 1203.59C681.255 1203.93 681.519 1204.18 681.871 1204.36C682.241 1204.53 682.707 1204.62 683.27 1204.62C683.393 1204.62 683.534 1204.61 683.693 1204.6C683.869 1204.58 684.036 1204.56 684.194 1204.54V1207.5C683.948 1207.54 683.666 1207.57 683.349 1207.61C683.033 1207.64 682.742 1207.66 682.478 1207.66ZM698.841 1207.82C697.592 1207.82 696.43 1207.59 695.357 1207.13C694.301 1206.67 693.385 1206.04 692.611 1205.23C691.854 1204.4 691.3 1203.44 690.948 1202.35L693.931 1201.06C694.406 1202.18 695.093 1203.07 695.99 1203.72C696.888 1204.36 697.9 1204.68 699.026 1204.68C699.66 1204.68 700.205 1204.58 700.663 1204.38C701.138 1204.17 701.499 1203.89 701.745 1203.54C702.009 1203.19 702.141 1202.77 702.141 1202.27C702.141 1201.69 701.965 1201.22 701.613 1200.85C701.279 1200.46 700.769 1200.16 700.082 1199.95L696.307 1198.74C694.776 1198.26 693.623 1197.55 692.849 1196.6C692.074 1195.65 691.687 1194.53 691.687 1193.24C691.687 1192.12 691.96 1191.12 692.505 1190.26C693.069 1189.4 693.843 1188.73 694.829 1188.25C695.832 1187.76 696.976 1187.52 698.261 1187.52C699.44 1187.52 700.522 1187.73 701.508 1188.15C702.493 1188.55 703.338 1189.13 704.042 1189.86C704.764 1190.59 705.301 1191.44 705.653 1192.43L702.696 1193.75C702.309 1192.76 701.728 1192 700.953 1191.48C700.179 1190.93 699.281 1190.66 698.261 1190.66C697.662 1190.66 697.134 1190.76 696.677 1190.97C696.219 1191.17 695.858 1191.45 695.594 1191.82C695.348 1192.17 695.225 1192.59 695.225 1193.09C695.225 1193.63 695.401 1194.12 695.753 1194.54C696.105 1194.94 696.641 1195.26 697.363 1195.49L700.98 1196.62C702.546 1197.13 703.717 1197.84 704.491 1198.74C705.283 1199.63 705.679 1200.74 705.679 1202.06C705.679 1203.19 705.389 1204.18 704.808 1205.04C704.227 1205.91 703.426 1206.58 702.405 1207.08C701.385 1207.57 700.197 1207.82 698.841 1207.82ZM715.169 1207.66C713.55 1207.66 712.291 1207.22 711.394 1206.34C710.514 1205.44 710.074 1204.18 710.074 1202.56V1196.23H707.592V1193.14H707.856C708.56 1193.14 709.106 1192.95 709.493 1192.58C709.88 1192.21 710.074 1191.68 710.074 1190.97V1189.86H713.532V1193.14H716.832V1196.23H713.532V1202.38C713.532 1202.85 713.611 1203.26 713.77 1203.59C713.946 1203.93 714.21 1204.18 714.562 1204.36C714.931 1204.53 715.398 1204.62 715.961 1204.62C716.084 1204.62 716.225 1204.61 716.383 1204.6C716.559 1204.58 716.726 1204.56 716.885 1204.54V1207.5C716.638 1207.54 716.357 1207.57 716.04 1207.61C715.723 1207.64 715.433 1207.66 715.169 1207.66ZM723.831 1207.82C722.828 1207.82 721.957 1207.65 721.218 1207.32C720.479 1206.98 719.907 1206.51 719.502 1205.89C719.097 1205.26 718.895 1204.53 718.895 1203.7C718.895 1202.91 719.071 1202.2 719.423 1201.59C719.775 1200.95 720.32 1200.42 721.059 1200C721.799 1199.58 722.731 1199.28 723.858 1199.1L728.557 1198.34V1200.98L724.518 1201.67C723.831 1201.79 723.321 1202.01 722.987 1202.33C722.652 1202.64 722.485 1203.06 722.485 1203.57C722.485 1204.06 722.67 1204.46 723.039 1204.75C723.427 1205.04 723.902 1205.18 724.465 1205.18C725.187 1205.18 725.82 1205.03 726.366 1204.73C726.929 1204.41 727.36 1203.98 727.659 1203.43C727.976 1202.89 728.135 1202.29 728.135 1201.64V1197.94C728.135 1197.33 727.888 1196.82 727.395 1196.41C726.92 1195.99 726.287 1195.78 725.495 1195.78C724.755 1195.78 724.095 1195.98 723.515 1196.39C722.951 1196.77 722.538 1197.29 722.274 1197.94L719.449 1196.57C719.731 1195.81 720.171 1195.16 720.769 1194.62C721.385 1194.05 722.107 1193.61 722.934 1193.3C723.761 1192.98 724.659 1192.82 725.627 1192.82C726.806 1192.82 727.844 1193.04 728.742 1193.48C729.639 1193.9 730.335 1194.5 730.827 1195.28C731.338 1196.03 731.593 1196.92 731.593 1197.94V1207.5H728.319V1205.04L729.059 1204.99C728.689 1205.61 728.249 1206.13 727.739 1206.55C727.228 1206.95 726.647 1207.27 725.996 1207.5C725.345 1207.71 724.623 1207.82 723.831 1207.82ZM734.79 1207.5V1193.14H738.037V1196.33L737.773 1195.86C738.107 1194.78 738.626 1194.04 739.33 1193.61C740.052 1193.19 740.914 1192.98 741.918 1192.98H742.762V1196.04H741.522C740.536 1196.04 739.744 1196.35 739.146 1196.97C738.547 1197.56 738.248 1198.41 738.248 1199.5V1207.5H734.79ZM751.598 1207.66C749.978 1207.66 748.72 1207.22 747.822 1206.34C746.942 1205.44 746.502 1204.18 746.502 1202.56V1196.23H744.021V1193.14H744.285C744.989 1193.14 745.534 1192.95 745.922 1192.58C746.309 1192.21 746.502 1191.68 746.502 1190.97V1189.86H749.961V1193.14H753.261V1196.23H749.961V1202.38C749.961 1202.85 750.04 1203.26 750.198 1203.59C750.374 1203.93 750.638 1204.18 750.99 1204.36C751.36 1204.53 751.826 1204.62 752.39 1204.62C752.513 1204.62 752.654 1204.61 752.812 1204.6C752.988 1204.58 753.155 1204.56 753.314 1204.54V1207.5C753.067 1207.54 752.786 1207.57 752.469 1207.61C752.152 1207.64 751.862 1207.66 751.598 1207.66ZM762.638 1207.82C761.16 1207.82 759.866 1207.48 758.757 1206.81C757.649 1206.14 756.786 1205.24 756.17 1204.09C755.554 1202.95 755.246 1201.68 755.246 1200.29C755.246 1198.85 755.554 1197.57 756.17 1196.46C756.804 1195.34 757.657 1194.45 758.731 1193.8C759.822 1193.15 761.037 1192.82 762.374 1192.82C763.501 1192.82 764.486 1193.01 765.331 1193.38C766.193 1193.75 766.924 1194.26 767.522 1194.91C768.121 1195.56 768.578 1196.31 768.895 1197.15C769.212 1197.98 769.37 1198.88 769.37 1199.84C769.37 1200.09 769.353 1200.35 769.317 1200.61C769.3 1200.87 769.256 1201.1 769.185 1201.3H758.097V1198.66H767.232L765.595 1199.9C765.753 1199.09 765.709 1198.37 765.463 1197.73C765.234 1197.1 764.847 1196.6 764.301 1196.23C763.773 1195.86 763.131 1195.67 762.374 1195.67C761.653 1195.67 761.01 1195.86 760.447 1196.23C759.884 1196.58 759.453 1197.11 759.153 1197.81C758.872 1198.5 758.766 1199.33 758.837 1200.32C758.766 1201.2 758.881 1201.98 759.18 1202.67C759.497 1203.34 759.954 1203.86 760.553 1204.23C761.169 1204.6 761.873 1204.78 762.665 1204.78C763.457 1204.78 764.125 1204.61 764.671 1204.28C765.234 1203.94 765.674 1203.5 765.991 1202.93L768.789 1204.31C768.508 1204.99 768.068 1205.6 767.469 1206.13C766.871 1206.66 766.158 1207.07 765.331 1207.37C764.521 1207.67 763.624 1207.82 762.638 1207.82ZM778.671 1207.82C777.281 1207.82 776.04 1207.49 774.949 1206.84C773.857 1206.17 772.995 1205.26 772.361 1204.12C771.728 1202.98 771.411 1201.71 771.411 1200.32C771.411 1198.91 771.728 1197.64 772.361 1196.52C772.995 1195.39 773.857 1194.49 774.949 1193.82C776.057 1193.16 777.289 1192.82 778.645 1192.82C779.736 1192.82 780.704 1193.04 781.549 1193.48C782.411 1193.9 783.089 1194.5 783.581 1195.28L783.053 1195.99V1187.52H786.512V1207.5H783.238V1204.73L783.608 1205.41C783.115 1206.19 782.429 1206.79 781.549 1207.21C780.669 1207.61 779.709 1207.82 778.671 1207.82ZM779.041 1204.65C779.833 1204.65 780.528 1204.46 781.126 1204.09C781.725 1203.72 782.191 1203.21 782.525 1202.56C782.877 1201.91 783.053 1201.16 783.053 1200.32C783.053 1199.49 782.877 1198.75 782.525 1198.1C782.191 1197.43 781.725 1196.91 781.126 1196.54C780.528 1196.17 779.833 1195.99 779.041 1195.99C778.266 1195.99 777.571 1196.18 776.955 1196.57C776.339 1196.94 775.855 1197.45 775.503 1198.1C775.169 1198.74 775.001 1199.47 775.001 1200.32C775.001 1201.16 775.169 1201.91 775.503 1202.56C775.855 1203.21 776.339 1203.72 776.955 1204.09C777.571 1204.46 778.266 1204.65 779.041 1204.65Z" fill="white"/>
<rect x="574.125" y="1165.12" width="278.25" height="63.75" rx="17.025" stroke="url(#paint1_linear_1_3835)" stroke-width="2.25"/>
<defs>
<filter id="filter0_f_1_3835" x="-434.4" y="0.600006" width="1430.8" height="1420.8" filterUnits="userSpaceOnUse" color-interpolation-filters="sRGB">
<feFlood flood-opacity="0" result="BackgroundImageFix"/>
<feBlend mode="normal" in="SourceGraphic" in2="BackgroundImageFix" result="shape"/>
<feGaussianBlur stdDeviation="201.2" result="effect1_foregroundBlur_1_3835"/>
</filter>
<filter id="filter1_f_1_3835" x="382.6" y="56.6" width="1430.8" height="1420.8" filterUnits="userSpaceOnUse" color-interpolation-filters="sRGB">
<feFlood flood-opacity="0" result="BackgroundImageFix"/>
<feBlend mode="normal" in="SourceGraphic" in2="BackgroundImageFix" result="shape"/>
<feGaussianBlur stdDeviation="201.2" result="effect1_foregroundBlur_1_3835"/>
</filter>
<filter id="filter2_f_1_3835" x="-79" y="301" width="1656" height="1656" filterUnits="userSpaceOnUse" color-interpolation-filters="sRGB">
<feFlood flood-opacity="0" result="BackgroundImageFix"/>
<feBlend mode="normal" in="SourceGraphic" in2="BackgroundImageFix" result="shape"/>
<feGaussianBlur stdDeviation="300" result="effect1_foregroundBlur_1_3835"/>
</filter>
<filter id="filter3_f_1_3835" x="406.88" y="936.465" width="392.481" height="362.67" filterUnits="userSpaceOnUse" color-interpolation-filters="sRGB">
<feFlood flood-opacity="0" result="BackgroundImageFix"/>
<feBlend mode="normal" in="SourceGraphic" in2="BackgroundImageFix" result="shape"/>
<feGaussianBlur stdDeviation="44.4675" result="effect1_foregroundBlur_1_3835"/>
</filter>
<filter id="filter4_f_1_3835" x="689.187" y="1145.85" width="287.211" height="257.4" filterUnits="userSpaceOnUse" color-interpolation-filters="sRGB">
<feFlood flood-opacity="0" result="BackgroundImageFix"/>
<feBlend mode="normal" in="SourceGraphic" in2="BackgroundImageFix" result="shape"/>
<feGaussianBlur stdDeviation="18.15" result="effect1_foregroundBlur_1_3835"/>
</filter>
<filter id="filter5_f_1_3835" x="406.88" y="936.465" width="392.481" height="362.67" filterUnits="userSpaceOnUse" color-interpolation-filters="sRGB">
<feFlood flood-opacity="0" result="BackgroundImageFix"/>
<feBlend mode="normal" in="SourceGraphic" in2="BackgroundImageFix" result="shape"/>
<feGaussianBlur stdDeviation="44.4675" result="effect1_foregroundBlur_1_3835"/>
</filter>
<filter id="filter6_f_1_3835" x="689.187" y="1145.85" width="287.211" height="257.4" filterUnits="userSpaceOnUse" color-interpolation-filters="sRGB">
<feFlood flood-opacity="0" result="BackgroundImageFix"/>
<feBlend mode="normal" in="SourceGraphic" in2="BackgroundImageFix" result="shape"/>
<feGaussianBlur stdDeviation="18.15" result="effect1_foregroundBlur_1_3835"/>
</filter>
<linearGradient id="paint0_linear_1_3835" x1="573" y1="1197" x2="853.5" y2="1197" gradientUnits="userSpaceOnUse">
<stop stop-color="white"/>
<stop offset="1" stop-color="white" stop-opacity="0"/>
</linearGradient>
<linearGradient id="paint1_linear_1_3835" x1="573" y1="1197" x2="853.5" y2="1197" gradientUnits="userSpaceOnUse">
<stop stop-color="white"/>
<stop offset="1" stop-color="white" stop-opacity="0"/>
</linearGradient>
</defs>
</svg>
