<svg width="100" height="100" viewBox="0 0 100 100" fill="none" xmlns="http://www.w3.org/2000/svg">
<path d="M42.864 74.9845C43.2095 72.5835 43.5369 70.3463 43.9007 67.9272C43.3551 67.9272 42.864 67.9272 42.3911 67.9272C36.2797 67.9272 30.1682 67.9272 24.0387 67.9272C19.9098 67.9272 18 66.0174 18 61.834C18 49.884 18 37.9341 18 25.9659C18 21.8916 19.9098 20 24.0023 20C41.8454 20 59.6885 20 77.5316 20C81.6059 20 83.4793 21.9098 83.4975 26.0023C83.4975 37.9523 83.4975 49.9204 83.4975 61.8704C83.4975 65.9992 81.5695 67.9091 77.4043 67.9091C71.3293 67.9091 65.2724 67.9091 59.1974 67.9091C58.7063 67.9091 58.2152 67.9091 57.5786 67.9091C57.9242 70.2918 58.2516 72.5472 58.5972 74.9663C60.0523 74.9663 61.4528 74.9481 62.8352 74.9663C64.5449 74.9845 65.6362 75.9485 65.6726 77.4036C65.709 78.9132 64.5995 79.9864 62.8352 79.9864C54.7776 80.0045 46.7018 80.0045 38.6442 79.9864C36.8617 79.9864 35.7522 78.9132 35.8067 77.4036C35.8431 75.9485 36.9526 74.9845 38.6442 74.9663C40.0083 74.9663 41.3725 74.9845 42.864 74.9845ZM19.637 58.6146C40.4449 58.6146 61.0709 58.6146 81.8606 58.6146C81.8606 58.069 81.8606 57.5779 81.8606 57.0868C81.8606 46.7556 81.8606 36.4426 81.8606 26.1114C81.8606 22.7647 80.7329 21.6188 77.3679 21.6188C59.6339 21.637 41.8818 21.637 24.1296 21.637C20.7647 21.637 19.637 22.7647 19.637 26.1114C19.637 36.4426 19.637 46.7556 19.637 57.0868C19.637 57.5779 19.637 58.0508 19.637 58.6146ZM81.8424 60.4153C61.0345 60.4153 40.3903 60.4153 19.7461 60.4153C19.2368 64.3986 20.31 66.363 24.8935 66.3448C42.2637 66.2357 59.6521 66.2903 77.0224 66.2903C77.5135 66.2903 78.0227 66.3084 78.5138 66.2721C80.4236 66.1084 81.6787 64.8715 81.8242 62.9617C81.8969 62.1614 81.8424 61.3429 81.8424 60.4153ZM55.9235 68C52.3767 68 49.0117 68 45.5559 68C45.2285 70.3282 44.8829 72.5835 44.5555 74.8935C48.7389 74.8935 52.7768 74.8935 56.9238 74.8935C56.5782 72.5472 56.269 70.31 55.9235 68ZM50.6851 78.4039C54.4865 78.4039 58.288 78.4039 62.0894 78.4039C62.4896 78.4039 62.9443 78.4767 63.2899 78.313C63.5991 78.1857 63.9811 77.7855 63.9811 77.4945C63.9811 77.2035 63.5991 76.8397 63.2899 76.676C62.9989 76.5305 62.5805 76.6214 62.2167 76.6214C54.5775 76.6214 46.92 76.6214 39.2808 76.6214C38.9716 76.6214 38.5896 76.5305 38.3532 76.6578C38.0076 76.8397 37.5347 77.2217 37.5347 77.5127C37.5347 77.8037 38.0076 78.1857 38.3532 78.3494C38.6442 78.4949 39.0625 78.4039 39.4263 78.4039C43.1732 78.4039 46.9382 78.4039 50.6851 78.4039Z" fill="#4949FC"/>
<path d="M53.8469 50.4297C53.8469 49.4657 53.8833 48.6108 53.8288 47.756C53.7742 46.6283 54.3017 46.2645 55.3748 46.2463C58.9398 46.1917 58.9216 46.1735 59.1944 49.6658C59.2126 49.9568 59.3581 50.2296 59.4491 50.5206C59.5946 50.5024 59.7401 50.5024 59.8674 50.4843C59.9038 49.9932 59.9584 49.4839 59.9584 48.9928C59.9765 48.3198 59.9584 47.6286 59.9584 46.9556C59.9584 43.0269 60.3767 42.6449 64.3055 43.3179C64.7056 43.3907 65.2695 44.1182 65.3058 44.5729C65.4332 46.1008 65.3422 47.6468 65.3604 49.1929C65.3604 49.6112 65.415 50.0295 65.4513 50.4479C65.5787 50.4661 65.7242 50.4843 65.8515 50.5024C65.9424 50.0841 66.1061 49.684 66.1061 49.2656C66.1243 46.9556 66.1607 44.6457 66.1061 42.3357C66.0698 41.1534 66.5245 40.7351 67.6886 40.7715C72.0538 40.8806 71.3809 40.1894 71.4354 44.5002C71.4536 46.1372 71.4172 47.756 71.4536 49.3929C71.4536 49.7567 71.6173 50.1205 71.7083 50.5024C71.8538 50.4843 71.9811 50.4843 72.1266 50.4661C72.163 50.0113 72.2175 49.5384 72.2175 49.0837C72.2175 44.8276 72.2539 40.5714 72.1994 36.3153C72.1812 35.0602 72.6541 34.6419 73.8727 34.6601C78.2744 34.7328 77.565 34.2236 77.6014 38.2796C77.6378 42.2993 77.6014 46.319 77.6014 50.266C77.8015 50.3751 77.8742 50.4479 77.947 50.4661C78.5472 50.6116 79.5294 50.2296 79.5112 51.2664C79.493 52.3577 78.529 52.1212 77.856 52.1212C69.8348 52.1394 61.8318 52.1394 53.8106 52.1212C53.5377 52.1212 53.2103 52.2122 53.0103 52.0849C52.6647 51.903 52.3737 51.5756 52.0645 51.3209C52.3555 51.0481 52.6101 50.7389 52.9375 50.5206C53.1376 50.4297 53.4104 50.4843 53.8469 50.4297ZM73.9818 36.3698C73.9818 41.1353 73.9818 45.7734 73.9818 50.4297C74.6912 50.4297 75.2914 50.4297 75.928 50.4297C75.928 45.7006 75.928 41.0625 75.928 36.3698C75.2732 36.3698 74.6912 36.3698 73.9818 36.3698ZM69.7257 50.4297C69.7257 47.7378 69.7257 45.1186 69.7257 42.4994C69.0345 42.4994 68.4707 42.4994 67.8886 42.4994C67.8886 45.1732 67.8886 47.7741 67.8886 50.4297C68.5434 50.4297 69.1073 50.4297 69.7257 50.4297ZM61.7045 44.9731C61.7045 46.8283 61.7045 48.6108 61.7045 50.4297C62.3956 50.4297 62.9959 50.4297 63.6688 50.4297C63.6688 48.5744 63.6688 46.8101 63.6688 44.9731C63.0141 44.9731 62.432 44.9731 61.7045 44.9731ZM57.4483 50.4479C57.4483 49.5203 57.4483 48.7381 57.4483 47.9924C56.7571 47.9924 56.1933 47.9924 55.5749 47.9924C55.5749 48.8473 55.5749 49.6294 55.5749 50.4479C56.2479 50.4479 56.8299 50.4479 57.4483 50.4479Z" fill="#4949FC"/>
<path d="M21.8918 41.3171C22.0555 35.0784 27.6758 28.9306 34.3693 27.7119C43.1908 26.0931 51.3939 32.0772 52.5762 40.9715C52.7944 42.6085 51.9032 43.6816 50.1934 43.6998C47.4288 43.7362 44.6641 43.7362 41.8994 43.6998C41.1173 43.6816 40.6444 43.8453 40.1897 44.6274C38.8255 47.0283 35.5697 46.992 34.2056 44.5729C33.7872 43.8271 33.3325 43.6998 32.605 43.718C29.8403 43.7362 27.0756 43.7544 24.3109 43.718C22.6557 43.6816 21.8554 42.8449 21.8918 41.3171ZM27.8759 32.6957C28.6034 33.3141 29.2582 33.7506 29.7493 34.3144C29.9676 34.5509 29.8403 35.0966 29.8585 35.4967C29.4583 35.4785 28.9127 35.6058 28.6762 35.4058C28.076 34.8965 27.5849 34.2417 26.9846 33.5505C24.9839 35.8423 23.9108 38.225 23.5288 40.9351C23.3833 41.9173 23.8744 42.081 24.6929 42.081C27.403 42.0628 30.1313 42.0992 32.8414 42.0446C33.2598 42.0265 33.8236 41.6991 34.0419 41.3353C34.733 40.2076 35.6425 39.571 36.9521 39.3709C37.3704 39.3163 37.8797 38.9162 38.0616 38.5342C38.6072 37.352 38.971 36.0787 39.5167 34.8965C39.6804 34.5509 40.2078 34.369 40.5534 34.0962C40.6989 34.5509 41.0627 35.0602 40.9536 35.424C40.5716 36.7699 40.0078 38.0613 39.5349 39.3709C39.2802 40.0985 40.517 42.0628 41.281 42.0628C44.2275 42.0992 47.1559 42.0992 50.1025 42.0265C50.3753 42.0265 50.921 41.408 50.8846 41.1352C50.539 38.3523 49.5023 35.8605 47.3742 33.5323C46.8103 34.2053 46.3738 34.8601 45.7918 35.3694C45.5371 35.5877 45.0097 35.5149 44.5913 35.5513C44.6095 35.1147 44.464 34.5145 44.7005 34.2599C45.2279 33.6778 45.9191 33.2413 46.6103 32.7138C43.882 30.4221 41.2082 29.2944 37.9706 29.0943C37.9706 29.9492 38.0434 30.7131 37.9343 31.4588C37.8797 31.8044 37.4795 32.1136 37.2431 32.441C36.9521 32.1136 36.461 31.8226 36.3882 31.4588C36.2609 30.7313 36.3518 29.9492 36.3518 29.0761C33.1688 29.3307 30.4951 30.4221 27.8759 32.6957ZM39.0801 42.8631C39.0801 41.8628 38.298 41.0625 37.2795 41.0443C36.2245 41.0261 35.3515 41.8809 35.3696 42.8995C35.3878 43.8817 36.2063 44.7184 37.1885 44.7548C38.2071 44.773 39.0801 43.8999 39.0801 42.8631Z" fill="#4949FC"/>
<path d="M70.659 31.9136C69.9133 31.4043 69.4586 31.1133 69.0039 30.8041C69.404 30.4585 69.7496 29.9311 70.2225 29.7674C73.1691 28.7852 73.2236 28.8034 73.933 31.659C74.0603 32.2047 73.7875 32.8413 73.6965 33.4415C73.2055 33.1323 72.7144 32.8231 72.1141 32.4593C72.1687 32.3865 71.9868 32.532 71.9141 32.7139C71.1865 34.3509 69.9861 35.1148 68.1308 35.2785C67.4214 35.3331 66.5666 36.1334 66.1482 36.8064C65.1479 38.4252 63.8565 39.1709 61.9466 39.2437C61.2191 39.2619 60.437 39.8803 59.8368 40.3896C59.2365 40.8989 58.6909 41.59 58.3089 42.2812C57.454 43.8818 55.9444 43.9546 54.4711 44.0455C54.1437 44.0637 53.7981 43.6272 53.4707 43.4089C53.7072 43.1179 53.9436 42.5722 54.1619 42.5722C56.4355 42.6632 57.3995 40.9534 58.3998 39.4619C59.3093 38.0978 60.4915 37.5521 62.0194 37.5521C63.1653 37.5521 64.0202 37.152 64.5658 36.1152C65.4934 34.4055 66.8394 33.496 68.8584 33.3505C69.5495 33.3142 70.1679 32.332 70.659 31.9136Z" fill="#4949FC"/>
<path d="M37.5686 47.283C40.6425 47.283 43.7164 47.2466 46.7903 47.3194C47.2814 47.3376 47.7725 47.8105 48.2636 48.0651C47.7907 48.3562 47.3178 48.8836 46.8267 48.8836C40.5334 48.9382 34.2401 48.9382 27.965 48.8836C27.4921 48.8836 27.0374 48.338 26.5645 48.0469C27.0192 47.7923 27.4739 47.3376 27.9286 47.3194C31.148 47.2466 34.3492 47.283 37.5686 47.283Z" fill="#4949FC"/>
<path d="M37.4959 51.2481C40.6061 51.2481 43.7346 51.2118 46.8449 51.2845C47.3178 51.3027 47.7907 51.812 48.2636 52.0848C47.8089 52.3395 47.3541 52.8306 46.8994 52.8306C40.5698 52.8851 34.2401 52.8851 27.9104 52.8306C27.4557 52.8306 27.0192 52.3395 26.5645 52.0666C27.0374 51.7938 27.5103 51.2845 28.0014 51.2845C31.1662 51.2118 34.331 51.2481 37.4959 51.2481Z" fill="#4949FC"/>
<path d="M74.0217 63.5074C73.4579 63.8893 72.894 64.5987 72.3665 64.5805C71.8936 64.5623 71.0933 63.762 71.057 63.2891C71.0388 62.8344 71.8027 61.9977 72.2756 61.9431C72.8213 61.8886 73.4215 62.5434 74.0035 62.889C74.0035 63.1072 74.0035 63.3073 74.0217 63.5074Z" fill="#4949FC"/>
<path d="M70.2773 63.6346C69.7134 63.9802 69.1132 64.635 68.5857 64.5804C68.1128 64.5259 67.458 63.7438 67.3489 63.2163C67.1852 62.325 67.9309 61.743 68.7676 61.9249C69.3315 62.034 69.7862 62.6343 70.2955 63.0162C70.2955 63.1981 70.2955 63.4164 70.2773 63.6346Z" fill="#4949FC"/>
<path d="M76.367 61.634C76.7308 62.1433 77.3128 62.6344 77.4038 63.1982C77.5675 64.0713 76.9491 64.6533 76.0578 64.6533C75.1666 64.6533 74.5482 64.0713 74.7119 63.1982C74.821 62.6344 75.403 62.1615 75.7668 61.634C75.9669 61.634 76.167 61.634 76.367 61.634Z" fill="#4949FC"/>
</svg>
