<svg width="100" height="100" viewBox="0 0 100 100" fill="none" xmlns="http://www.w3.org/2000/svg">
<path d="M58.8366 71.1576C59.0183 68.5927 58.3317 66.3509 56.716 64.291C49.1627 54.6979 54.0703 42.0351 66.1677 39.8539C71.3378 38.9249 76.2454 39.7125 80.6078 42.7621C87.3532 47.488 88.7871 57.1618 83.617 63.7457C81.6579 66.2298 80.6683 68.8148 80.9309 71.9452C81.0723 73.7225 80.7491 75.3179 79.2546 76.5701C78.9113 76.8528 78.8911 77.6607 78.9113 78.2261C78.9517 79.8822 78.4266 81.1747 76.8513 81.9422C76.5686 82.0836 76.2454 82.3663 76.1243 82.649C74.4682 86.9508 65.7234 87.2941 63.6836 82.6087C63.5826 82.3865 63.421 82.1442 63.2393 82.0634C61.3409 81.1949 60.836 79.6399 60.9571 77.7212C60.9773 77.3981 60.9571 76.8932 60.7552 76.7518C58.776 75.2977 58.675 73.2781 58.8366 71.1576ZM84.0815 57.283C86.0809 48.9017 79.1335 41.7725 70.9945 41.9139C70.9945 43.6507 70.9541 45.4078 71.0147 47.1648C71.0551 48.417 70.8329 49.2248 69.3788 49.5479C68.773 49.6691 68.0661 50.6991 67.9853 51.3656C67.9247 51.9513 68.6316 53.1024 69.1163 53.1832C71.0147 53.4861 71.1157 54.6575 70.9945 56.1318C70.9541 56.4953 71.0753 56.8791 71.0955 57.2224C72.2265 57.5455 72.7919 57.2224 73.3574 56.253C74.8115 53.6881 78.7093 53.3448 80.1836 55.8491C81.2944 57.6869 82.6273 57.3032 84.0815 57.283ZM68.7528 41.6917C67.9449 41.7927 67.2785 41.8533 66.6524 41.9745C59.9271 43.0853 55.5042 48.0333 55.4235 54.5161C55.3831 57.3436 55.3831 57.384 58.2509 57.3234C59.6646 57.3032 60.8158 57.3234 61.0581 59.1814C61.1187 59.6863 62.2295 60.3528 62.8556 60.373C63.4816 60.373 64.6126 59.7065 64.6732 59.2218C64.9357 57.283 66.1677 57.2628 67.6218 57.3436C67.9853 57.3638 68.369 57.283 68.6922 57.2426C68.9749 56.1116 68.7124 55.4855 67.7026 54.9806C66.2889 54.2738 65.683 52.9409 65.683 51.3656C65.683 49.2248 67.0159 48.0333 68.7326 47.2456C68.7528 45.3472 68.7528 43.6103 68.7528 41.6917ZM83.617 59.5651C82.8091 59.5247 82.3244 59.4641 81.8397 59.4843C80.3654 59.5651 79.0527 59.6055 78.7497 57.5859C78.669 57.1012 77.5178 56.4146 76.9119 56.4751C76.2454 56.5357 75.2155 57.2628 75.0943 57.8485C74.7913 59.3228 73.9835 59.5853 72.7314 59.4843C72.2063 59.4439 71.661 59.4843 71.1157 59.4843C70.9945 59.6257 70.8733 59.7671 70.7724 59.9084C71.1359 60.4941 71.3378 61.2818 71.8629 61.6049C74.9529 63.5437 74.9731 67.3002 71.8427 69.2188C71.4994 69.4207 71.0551 69.8044 71.0551 70.1276C70.9743 71.7635 71.0147 73.3993 71.0147 75.1362C72.6304 75.1362 74.0239 75.1362 75.4376 75.1362C78.2852 75.1362 78.8709 74.6515 78.7295 71.8038C78.5276 68.209 79.4364 65.0786 81.9003 62.3925C82.5668 61.6655 82.9707 60.6557 83.617 59.5651ZM68.8133 75.1362C68.8133 73.1974 68.8739 71.5009 68.7931 69.7843C68.7326 68.4917 68.9547 67.6233 70.4896 67.28C71.0955 67.1588 71.8427 66.1086 71.8629 65.4623C71.8831 64.8161 71.1359 63.6649 70.5906 63.5841C68.7932 63.3216 68.7124 62.231 68.7931 60.8779C68.8133 60.4335 68.7528 60.0094 68.7124 59.5853C67.2179 59.4641 67.2179 59.4641 66.511 60.5749C64.8549 63.2206 61.0379 63.4225 59.4424 60.7769C58.6346 59.4641 57.7864 59.3026 56.2717 59.6459C56.9583 60.7163 57.4834 61.8069 58.2509 62.6753C60.2705 65.018 61.1793 67.6637 61.0177 70.7133C60.9773 71.5211 60.9773 72.3289 61.0379 73.1166C61.1187 74.2879 61.8054 75.015 62.9565 75.0756C64.8549 75.1968 66.7534 75.1362 68.8133 75.1362ZM63.3403 77.3779C63.0575 79.6802 63.3806 80.0842 65.481 80.1044C68.4498 80.1246 71.4388 80.1246 74.4076 80.1044C76.5888 80.0842 76.9321 79.6399 76.508 77.3779C72.1457 77.3779 67.7834 77.3779 63.3403 77.3779ZM66.2081 82.4269C68.7124 84.2445 71.6206 84.1839 73.4382 82.4269C71.0753 82.4269 68.8133 82.4269 66.2081 82.4269Z" fill="#4949FC"/>
<path d="M32.0762 48.6391C27.8351 48.6391 23.594 48.6593 19.3528 48.6391C14.9299 48.6189 12.6478 44.7211 14.8491 40.9041C19.0701 33.5326 23.3314 26.1813 27.613 18.8502C29.8345 15.0533 34.419 15.0533 36.6405 18.83C40.9221 26.1611 45.1834 33.5124 49.4043 40.8839C51.6057 44.7211 49.3438 48.6189 44.941 48.6391C40.6595 48.6391 36.3578 48.6391 32.0762 48.6391ZM32.1368 46.4782C36.277 46.4782 40.397 46.4782 44.5371 46.4782C47.7079 46.4782 48.9196 44.4384 47.3646 41.7119C43.2042 34.4818 39.0236 27.2718 34.8229 20.0619C33.3688 17.5576 30.8847 17.5576 29.4306 20.0821C25.2298 27.292 21.0493 34.502 16.8889 41.7321C15.354 44.3778 16.5658 46.458 19.5952 46.4782C23.7757 46.4782 27.9563 46.4782 32.1368 46.4782Z" fill="#4949FC"/>
<path d="M69.5197 33.4518C68.4291 32.3006 67.6213 31.2908 66.6519 30.4628C61.3201 25.8783 55.221 24.3435 48.3544 25.9187C48.0514 25.9793 47.7283 26.1813 47.4859 26.1005C47.0012 25.9591 46.5771 25.6764 46.1328 25.434C46.3954 24.9695 46.5569 24.2021 46.9406 24.0809C48.1726 23.677 49.4651 23.374 50.7577 23.2529C58.5735 22.546 65.117 25.1311 70.3073 31.0081C70.4285 31.1495 70.5699 31.2908 70.8122 31.5332C70.893 31.2505 70.9738 31.0889 70.994 30.9273C71.1354 30.1397 71.3777 29.2511 72.3471 29.5944C72.7914 29.756 73.1145 30.7254 73.1347 31.3514C73.1751 32.442 72.8924 33.5326 72.8116 34.6434C72.7308 35.6734 72.1855 36.0369 71.1959 35.9359C69.9842 35.8147 68.7724 35.7945 67.6011 35.532C67.1164 35.431 66.4297 34.8453 66.3691 34.4212C66.2479 33.472 67.0356 33.371 67.8232 33.4316C68.2473 33.472 68.6916 33.4518 69.5197 33.4518Z" fill="#4949FC"/>
<path d="M34.4186 57.7879C34.2974 58.2322 34.2772 58.7169 34.0349 58.9794C33.7521 59.3026 33.1463 59.7469 32.9039 59.6459C32.5 59.4843 31.9951 58.8582 32.0355 58.4947C32.2172 57.0608 32.5202 55.6067 32.9847 54.2536C33.1261 53.8497 33.9743 53.4053 34.459 53.4457C35.7515 53.5669 37.0643 53.8699 38.276 54.294C38.7203 54.4555 38.9627 55.1624 39.306 55.6269C38.7809 55.8693 38.2558 56.1924 37.6903 56.3136C37.347 56.3943 36.9229 56.1924 36.1554 56.0308C36.8421 56.9598 37.2662 57.6465 37.8115 58.2524C41.7093 62.7561 46.6775 65.0786 52.6151 65.4219C53.1604 65.4623 54.049 65.8258 54.15 66.2096C54.4731 67.4011 53.5845 67.6031 52.5949 67.5627C47.3642 67.3809 42.6989 65.6643 38.7607 62.2512C37.246 60.9586 35.9131 59.3631 34.4186 57.7879Z" fill="#4949FC"/>
<path d="M33.2478 32.9469C33.2478 34.6635 33.3286 36.36 33.1872 38.0565C33.1468 38.5816 32.5005 39.0461 32.1168 39.5308C31.7331 39.0461 31.0666 38.5614 31.0464 38.0565C30.9455 34.6433 30.9455 31.2302 31.0464 27.8171C31.0666 27.3122 31.7533 26.8275 32.1168 26.3226C32.4803 26.8275 33.1468 27.292 33.1872 27.8171C33.3286 29.5136 33.2478 31.2302 33.2478 32.9469Z" fill="#4949FC"/>
<path d="M33.6509 41.9139C32.9642 42.4794 32.5199 43.0852 32.2169 43.0247C31.7726 42.9237 31.4293 42.3582 31.0254 41.9947C31.3889 41.6513 31.7121 41.106 32.0958 41.0455C32.4997 41.0051 32.944 41.4898 33.6509 41.9139Z" fill="#4949FC"/>
</svg>
