<svg width="100" height="100" viewBox="0 0 100 100" fill="none" xmlns="http://www.w3.org/2000/svg">
<path d="M85.9055 66.8553C85.5395 68.5755 84.4598 69.8199 83.2337 71.0277C78.915 75.2733 74.6511 79.5737 70.3506 83.8559C67.6422 86.5643 65.2633 86.5826 62.5732 83.8925C62.0242 83.3435 61.4752 82.7945 60.9262 82.2455C59.5537 80.873 59.0962 79.2809 59.6269 77.3594C59.7367 76.9568 59.5537 76.3529 59.2975 75.9869C58.9498 75.4745 58.4191 75.072 57.9616 74.6145C54.1186 70.7715 54.1003 70.7349 48.647 70.9362C47.8784 70.9728 46.9817 71.3754 46.3778 71.8878C45.0053 73.0773 43.7975 74.4498 42.4799 75.7124C41.9675 76.2065 41.7662 76.6091 42.0773 77.3594C42.8093 79.1894 42.3518 80.8547 40.9976 82.2638C40.1742 83.1239 39.3507 83.984 38.4723 84.7709C36.5691 86.4545 34.0254 86.3996 32.1771 84.6611C31.2072 83.7644 30.2922 82.8128 29.3406 81.8795C28.6818 81.2207 28.3707 80.4704 29.0844 79.7384C29.8713 78.9332 30.6399 79.2809 31.3353 79.9946C32.1954 80.873 33.0555 81.7514 33.9522 82.6115C34.8489 83.4899 35.8188 83.5082 36.7338 82.6481C37.539 81.8978 38.3259 81.1292 39.0579 80.324C39.8448 79.4456 39.8814 78.5489 39.003 77.6705C34.2633 72.9126 29.5602 68.1363 24.8023 63.4149C23.3749 62.0059 22.6429 62.0608 21.2338 63.4515C20.6848 64.0005 20.1175 64.5312 19.5868 65.0985C18.5071 66.2331 18.5254 67.1481 19.6234 68.2827C20.4469 69.1245 21.2887 69.9663 22.1305 70.7898C22.8076 71.4669 23.0272 72.2172 22.2769 72.9309C21.5815 73.608 20.8678 73.4067 20.2273 72.7662C19.2208 71.778 18.196 70.7898 17.2444 69.765C15.5974 67.9533 15.5791 65.3913 17.2261 63.5613C18.0496 62.6464 18.9463 61.8046 19.8247 60.9445C21.0325 59.7733 22.5331 59.389 24.1252 59.8099C24.8755 60.0112 25.2964 59.8099 25.7722 59.3158C27.0166 58.0531 28.2975 56.827 29.5602 55.6009C26.9983 52.2337 27.4924 49.5437 30.6948 47.5673C30.6948 45.902 30.4569 44.3648 30.7497 42.9557C31.0791 41.4002 32.4516 40.5584 34.0254 40.0094C33.6228 37.0631 34.7757 34.9953 37.6854 33.9705C37.356 32.0856 37.7037 30.4203 39.186 29.1393C39.6252 28.755 40.1925 28.2609 40.6866 28.2609C43.4498 28.2792 46.0301 26.8152 48.9032 27.4557C52.124 28.1877 55.4362 28.6086 58.7119 29.1576C61.4203 29.6151 62.7928 31.6464 62.6647 35.16C65.428 36.1665 66.7273 38.1611 66.2332 41.1257C69.3258 42.608 70.131 43.9622 69.8748 47.1098C73.7361 48.6287 74.7243 52.4167 71.9244 55.6009C73.3152 56.9368 74.6877 58.3093 76.1151 59.6269C76.3347 59.8282 76.8471 59.8465 77.1765 59.755C79.1895 59.1511 80.8364 59.6818 82.2821 61.1458C83.7644 62.6646 85.5212 63.9822 85.8689 66.288C85.9055 66.4893 85.9055 66.6723 85.9055 66.8553ZM69.8931 57.6505C69.8199 57.7054 69.6735 57.8152 69.5454 57.925C68.8317 58.6936 67.9899 59.2426 67.1116 58.291C66.2698 57.376 66.9286 56.644 67.6239 55.9669C68.5023 55.1068 69.399 54.265 70.2225 53.35C71.0643 52.4167 71.0277 51.337 70.2408 50.5318C69.4539 49.7449 68.3559 49.7267 67.4226 50.4952C67.1847 50.6965 66.9652 50.9344 66.7456 51.154C66.0502 51.8677 65.2816 52.5997 64.3117 51.6847C63.3418 50.7514 64.0189 49.9645 64.7509 49.2509C65.428 48.5738 66.1417 47.9333 66.7456 47.2013C67.4776 46.3046 67.4409 45.3164 66.5992 44.4929C65.7574 43.6877 64.8058 43.6694 63.8908 44.438C63.4333 44.8223 63.0307 45.2615 62.6098 45.6641C61.9327 46.3229 61.1641 46.5608 60.4504 45.8105C59.7367 45.0602 60.0295 44.3099 60.7066 43.6511C61.5118 42.8459 62.3536 42.0773 63.0856 41.2172C63.8359 40.3388 63.8176 39.3323 63.0124 38.5088C62.2072 37.6853 61.219 37.6487 60.304 38.399C59.8099 38.8016 59.389 39.2774 58.9132 39.7166C58.2544 40.3388 57.5407 40.5035 56.8636 39.8264C56.1865 39.1493 56.3329 38.4173 56.9734 37.7768C57.742 36.9899 58.5289 36.2397 59.2792 35.4528C60.1759 34.5012 60.2125 33.33 59.4439 32.5248C58.6021 31.6464 57.4492 31.6647 56.4244 32.6163C55.363 33.6228 54.3016 34.6293 53.3501 35.7273C53.0573 36.075 53.0573 36.7154 53.039 37.2278C53.0207 38.2526 53.2952 39.3506 53.039 40.3022C52.4534 42.4799 50.7515 43.4681 48.5555 43.7243C48.2444 46.3046 46.9268 47.9333 44.3465 48.4457C44.0903 48.5006 43.7243 48.8483 43.6877 49.1045C43.1753 51.6847 41.5466 53.0023 39.0213 53.3134C38.0514 57.3943 36.1482 58.5472 32.0856 57.6139C31.8294 57.559 31.4268 57.5956 31.2438 57.7786C29.8713 59.0779 28.5171 60.4138 27.2728 61.6582C31.5732 65.9769 35.7456 70.1493 40.0461 74.4864C40.7598 73.6995 41.6198 72.9309 42.2969 72.0159C44.7491 68.6853 47.9882 67.6056 51.9959 68.2644C54.0454 68.5938 55.8754 68.0814 57.2479 66.3612C57.7969 65.6658 58.5838 65.4645 59.2792 66.1233C60.0112 66.8187 59.8465 67.5873 59.1877 68.2827C58.6021 68.9049 58.0348 69.5271 57.5407 70.0578C58.9681 71.5218 60.3772 72.9858 61.7314 74.3766C65.9038 70.2042 70.0944 66.0318 74.1753 61.951C72.8028 60.5602 71.3571 59.1145 69.8931 57.6505ZM66.4528 83.2703C66.9835 82.9592 67.5324 82.7762 67.8984 82.4102C72.7479 77.6156 77.5791 72.8028 82.3736 67.9533C83.2886 67.0383 83.2337 66.0318 82.3187 65.0619C81.6599 64.3665 80.9828 63.6894 80.2875 63.0306C79.1895 62.0059 78.2928 61.9876 77.2131 63.0672C72.4368 67.8069 67.6788 72.5649 62.9392 77.3411C61.8961 78.3842 61.9144 79.2626 62.8843 80.3057C63.5614 81.0377 64.2751 81.7514 65.0254 82.4102C65.3914 82.7762 65.9038 82.9592 66.4528 83.2703ZM38.637 36.4409C38.0331 36.9533 37.1547 37.3376 37.0083 37.8866C36.8253 38.582 37.0083 39.6434 37.4658 40.1924C38.9115 41.876 40.5585 43.3949 42.1505 44.9504C43.157 45.9203 44.3282 45.9569 45.17 45.0968C45.9752 44.2733 45.9203 43.0655 44.9504 42.0773C43.4315 40.5218 41.8943 38.9663 40.3023 37.4657C39.918 37.0814 39.369 36.8618 38.637 36.4409ZM42.3518 30.2556C41.5649 30.9327 40.7231 31.2987 40.6133 31.8477C40.4487 32.5614 40.5951 33.6411 41.0525 34.1718C42.5348 35.892 44.2184 37.4291 45.8288 39.0395C46.3046 39.5153 46.7255 40.1558 47.3111 40.412C47.9516 40.6865 48.8483 40.8512 49.4339 40.595C49.9646 40.3571 50.3855 39.5336 50.5319 38.8931C50.7149 38.0696 50.0195 37.7219 49.3058 37.3742C46.7987 36.1848 44.9504 34.3182 43.7426 31.8111C43.4864 31.2804 42.9557 30.9144 42.3518 30.2556ZM35.0319 42.4799C34.4646 42.9374 33.6045 43.2851 33.4215 43.8707C33.2019 44.5112 33.3483 45.5543 33.7509 46.0667C34.8672 47.4392 36.1848 48.647 37.4658 49.8547C38.3808 50.7148 39.6069 50.6782 40.3938 49.8547C41.144 49.0496 41.1623 47.9333 40.3023 47.0366C39.0762 45.7556 37.8135 44.5112 36.5325 43.2851C36.2031 42.9923 35.709 42.8459 35.0319 42.4799ZM32.7627 49.9096C31.2255 49.8913 30.1824 51.6298 31.0425 52.9108C31.5915 53.716 32.3418 54.4663 33.147 55.0153C34.4463 55.8754 36.1482 54.814 36.1299 53.2585C36.1116 52.0324 33.9705 49.9279 32.7627 49.9096ZM49.928 34.6476C51.1358 33.4398 52.2521 32.3052 53.405 31.1706C51.1175 30.768 48.7019 30.3288 46.0301 29.853C46.8536 32.3418 48.3908 33.6777 49.928 34.6476Z" fill="#4949FC"/>
<path d="M51.4461 16C51.684 16.7503 52.0866 17.4823 52.1414 18.2509C52.2512 19.8796 52.1781 21.5266 52.1598 23.1735C52.1598 24.0885 51.8304 24.8388 50.7873 24.8571C49.7442 24.8571 49.4148 24.1251 49.4148 23.1918C49.4148 21.3619 49.3599 19.5502 49.4514 17.7202C49.4697 17.1346 49.8723 16.5673 50.0919 16C50.5311 16 50.9886 16 51.4461 16Z" fill="#4949FC"/>
<path d="M34.9034 22.8991C34.6472 23.2102 34.4276 23.7409 34.0616 23.9056C33.6773 24.0703 32.9636 24.0703 32.7074 23.8324C30.8957 22.1305 29.1023 20.392 27.437 18.5437C27.1625 18.2326 27.2174 17.2261 27.5285 16.8967C27.8396 16.5673 28.8827 16.4026 29.1572 16.6588C31.0421 18.3607 32.7989 20.1907 34.574 21.9841C34.7387 22.1671 34.757 22.4782 34.9034 22.8991Z" fill="#4949FC"/>
<path d="M74.6323 17.6287C74.3395 18.1411 74.1931 18.5803 73.9003 18.8731C72.3815 20.4286 70.826 21.9474 69.3071 23.5029C68.6483 24.1617 67.9163 24.4362 67.1843 23.7042C66.4523 22.9905 66.6902 22.2402 67.349 21.5632C68.8862 20.026 70.3868 18.4522 71.9972 16.9882C72.3815 16.6405 73.1318 16.5124 73.6807 16.5856C73.9918 16.6222 74.2663 17.2261 74.6323 17.6287Z" fill="#4949FC"/>
<path d="M25.7162 74.5961C26.0822 75.1268 26.741 75.6392 26.741 76.1699C26.741 76.6274 25.9541 77.4692 25.6064 77.4326C25.0758 77.3777 24.2889 76.7372 24.2157 76.2614C24.1242 75.7856 24.783 75.1817 25.1307 74.6327C25.3136 74.6144 25.5149 74.6144 25.7162 74.5961Z" fill="#4949FC"/>
<path d="M63.1217 61.219C63.4328 61.7679 64.0367 62.3535 63.9818 62.8659C63.9452 63.3234 63.0851 64.1103 62.7557 64.0371C62.225 63.909 61.493 63.2319 61.4564 62.7378C61.4198 62.262 62.1335 61.713 62.5178 61.2007C62.7191 61.2007 62.9204 61.219 63.1217 61.219Z" fill="#4949FC"/>
</svg>
