<svg width="100" height="100" viewBox="0 0 100 100" fill="none" xmlns="http://www.w3.org/2000/svg">
<path d="M49.2918 79.9819C41.3062 79.9819 33.3026 79.9819 25.3171 79.9819C20.6197 79.9819 18 77.3622 18 72.7191C18 57.561 18 42.4029 18 27.2448C18 22.6558 20.6197 20 25.1906 20C41.3604 20 57.5303 20 73.682 20C78.1987 20 80.8726 22.6739 80.8726 27.1364C80.8726 42.3848 80.8726 57.6332 80.8726 72.8817C80.8726 77.3261 78.1807 79.9819 73.682 80C65.5519 80 57.4219 79.9819 49.2918 79.9819ZM20.71 33.514C20.692 34.0741 20.6558 34.4715 20.6558 34.869C20.6558 47.5158 20.6558 60.1445 20.6558 72.7913C20.6558 75.953 22.1192 77.3803 25.3171 77.3803C41.3966 77.3803 57.4761 77.3803 73.5556 77.3803C76.8257 77.3803 78.2168 75.935 78.2349 72.6649C78.2349 60.1084 78.2349 47.57 78.2349 35.0135C78.2349 34.5438 78.2349 34.0741 78.2349 33.5863C77.8555 33.5501 77.6748 33.514 77.5122 33.5321C75.4345 33.7669 73.7904 33.2249 72.8509 31.1653C72.7064 30.8582 72.056 30.6414 71.6224 30.6414C69.0027 30.5872 66.383 30.5691 63.7633 30.6594C63.2213 30.6775 62.4986 31.075 62.1915 31.5266C60.2584 34.4173 56.8437 34.4173 54.9106 31.5266C54.6034 31.075 53.8808 30.6594 53.3388 30.6414C50.7191 30.551 48.0994 30.5691 45.4797 30.6414C45.0099 30.6594 44.3053 31.0027 44.1066 31.3821C43.2394 33.0443 41.9566 33.5682 40.1319 33.5501C33.682 33.4598 27.2683 33.514 20.71 33.514ZM20.6739 30.822C21.2159 30.8401 21.6134 30.8762 22.0108 30.8762C28.009 30.8762 34.0253 30.8582 40.0235 30.8943C40.963 30.8943 41.5411 30.6594 41.9386 29.7922C42.5348 28.5276 43.5646 27.9855 44.9919 28.0217C47.9729 28.0759 50.9539 28.0578 53.935 28.0217C55.2358 28.0036 56.1572 28.4914 56.8437 29.6116C57.9639 31.4544 59.1021 31.4544 60.1861 29.6477C60.8546 28.5276 61.7579 28.0036 63.0587 28.0217C66.1301 28.0578 69.2014 28.0397 72.2728 28.0217C73.4652 28.0217 74.4589 28.4192 74.9286 29.5212C75.6152 31.1111 76.8076 30.9846 78.2349 30.7498C78.2349 29.5212 78.2349 28.3469 78.2349 27.1906C78.2349 26.7931 78.2529 26.3776 78.1987 25.9801C78 24.2818 76.6269 22.9088 74.9286 22.692C74.477 22.6378 74.0253 22.6378 73.5736 22.6378C57.5122 22.6378 41.4327 22.6378 25.3713 22.6378C24.9738 22.6378 24.5583 22.6378 24.1608 22.6739C22.2638 22.8726 20.8184 24.2999 20.71 26.215C20.6197 27.6965 20.6739 29.178 20.6739 30.822Z" fill="#4949FC"/>
<path d="M38.0356 61.5899C38.2524 61.1021 38.3427 60.5059 38.704 60.1807C39.1015 59.8194 39.8422 59.4219 40.2578 59.5664C40.6553 59.6929 41.1431 60.5962 41.0347 60.9937C40.6011 62.5475 39.9868 64.047 39.3002 65.4924C39.1196 65.8537 38.2704 66.197 37.873 66.0705C36.4095 65.6369 34.9642 65.0949 33.6092 64.4083C33.1936 64.1915 32.7239 63.0533 32.8865 62.8727C33.3382 62.3487 34.1151 62.1139 34.9461 61.6622C34.7474 60.7046 34.3861 59.3316 34.2054 57.9404C33.4104 51.5989 36.807 45.1672 42.4439 42.2042C43.7086 41.5357 44.901 41.8971 44.7745 42.9811C44.7022 43.5411 44.106 44.2096 43.564 44.5348C38.9028 47.3352 36.5902 51.4363 36.7528 56.8383C36.807 58.4463 37.331 60.0181 37.6562 61.626C37.7646 61.5899 37.9091 61.5899 38.0356 61.5899Z" fill="#4949FC"/>
<path d="M60.9834 63.9747C60.1342 64.0289 59.538 64.1915 59.0683 64.0289C58.5985 63.8663 57.9843 63.3965 57.9301 62.999C57.8759 62.5835 58.3275 61.7705 58.7069 61.6802C60.3149 61.3008 61.977 61.0117 63.6392 60.9214C64.0367 60.9033 64.7232 61.6802 64.8677 62.2041C65.211 63.4507 65.3013 64.7696 65.5001 66.0523C65.6446 66.9015 65.482 67.6242 64.5245 67.8229C63.585 68.0036 63.0972 67.4796 62.9527 66.5763C62.9346 66.4679 62.8443 66.3775 62.8985 66.4498C61.0376 67.8048 59.3393 69.3947 57.3339 70.4065C52.1306 73.0442 46.9093 72.7732 41.8325 69.8825C41.0195 69.4128 40.333 68.8346 40.8569 67.859C41.4531 66.7931 42.3384 67.1725 43.1875 67.6422C48.8966 70.8581 55.5995 69.9186 59.8813 65.3297C60.2246 64.9864 60.4956 64.5889 60.9834 63.9747Z" fill="#4949FC"/>
<path d="M52.4718 40.3432C59.6444 41.9511 64.2334 46.0523 65.8232 53.1707C66.0762 54.2908 66.0942 55.4832 66.1304 56.6576C66.1665 57.597 65.8774 58.4281 64.7212 58.3739C63.6552 58.3197 63.4926 57.5248 63.4926 56.6214C63.4926 51.2014 61.162 47.0821 56.3924 44.4805C54.9289 43.6856 53.2307 43.3062 51.6588 42.7461C51.5866 42.8726 51.5324 42.999 51.4601 43.1255C51.7672 43.541 52.2189 43.9385 52.3273 44.4082C52.4357 44.9322 52.4357 45.7632 52.1105 46.0342C51.7853 46.3233 50.7736 46.3233 50.4845 46.0342C49.3643 44.878 48.3165 43.6133 47.4673 42.2583C47.2325 41.8789 47.5757 40.8671 47.9732 40.4516C48.8404 39.5482 49.9244 38.8617 50.9 38.0668C51.5685 37.5248 52.2731 37.2718 52.9416 37.9584C53.592 38.6449 53.3752 39.3495 52.7248 39.9638C52.6525 40.018 52.5983 40.1445 52.4718 40.3432Z" fill="#4949FC"/>
<path d="M48.9651 55.2665C48.9651 53.785 48.947 52.3035 48.9651 50.822C48.9831 49.9006 49.3445 49.1779 50.3743 49.2321C51.3138 49.2863 51.6028 49.9729 51.6028 50.8401C51.5848 53.7489 51.5848 56.6757 51.6028 59.5844C51.6028 60.5239 51.2776 61.2466 50.2839 61.2466C49.2722 61.2466 48.9651 60.4697 48.9651 59.5664C48.9651 58.1391 48.9651 56.6937 48.9651 55.2665Z" fill="#4949FC"/>
<path d="M49.9804 66.1066C49.6371 65.5646 48.9506 64.9865 49.0229 64.5167C49.0951 64.0289 49.8539 63.3966 50.3959 63.3062C50.7392 63.252 51.5342 64.0831 51.5522 64.5348C51.5703 65.0587 50.938 65.5827 50.5766 66.1066C50.3779 66.1066 50.1791 66.1066 49.9804 66.1066Z" fill="#4949FC"/>
<path d="M32.7622 28.6721C32.0938 27.7687 31.4072 27.2629 31.353 26.6847C31.2627 25.7995 32.0215 25.42 32.9068 25.4381C33.8101 25.4562 34.5147 25.9079 34.3341 26.7931C34.2076 27.3713 33.503 27.8229 32.7622 28.6721Z" fill="#4949FC"/>
<path d="M27.7584 28.6721C27.0357 27.8049 26.3311 27.3352 26.2408 26.757C26.0962 25.8717 26.837 25.4562 27.7223 25.4381C28.6075 25.4381 29.3483 25.8537 29.2399 26.7209C29.1495 27.299 28.4449 27.7868 27.7584 28.6721Z" fill="#4949FC"/>
<path d="M37.9618 24.8239C38.6664 25.7273 39.3349 26.197 39.4252 26.7752C39.5878 27.6966 38.829 28.094 37.9618 28.094C37.1127 28.094 36.3358 27.6966 36.4803 26.7932C36.5707 26.197 37.2391 25.7273 37.9618 24.8239Z" fill="#4949FC"/>
</svg>
