<svg width="70" height="86" viewBox="0 0 70 86" fill="none" xmlns="http://www.w3.org/2000/svg">
<path d="M1.25346 85.8801C0.658624 85.4113 0.5 84.7639 0.5 83.938C0.519828 56.7036 0.519828 29.4692 0.519828 2.23479C0.519828 0.716806 0.856903 0.314987 2.22503 0.314987C18.5435 0.314987 34.8817 0.314987 51.2001 0.292664C51.8148 0.292664 52.2708 0.493573 52.7071 0.984685C54.8881 3.48489 57.1089 5.96277 59.3098 8.41833C59.7063 8.8648 59.8848 9.33359 59.8848 9.95864C59.8649 14.4903 59.8649 19.0442 59.8848 23.5758C59.8848 24.2009 59.7658 24.3795 59.1908 24.3572C57.4856 24.3348 57.4856 24.3572 57.4856 22.4597C57.4856 19.7586 57.4658 17.0574 57.5054 14.3563C57.5054 13.8206 57.3666 13.642 56.8908 13.642C54.4519 13.6643 51.9932 13.6643 49.5544 13.642C48.3846 13.642 48.0078 13.2178 48.0078 11.9008C48.0078 9.22197 47.988 6.54318 48.0276 3.88671C48.0475 3.15004 47.8889 2.92681 47.1949 2.92681C34.6041 3.0161 22.053 2.99378 9.48207 2.99378C7.47945 2.99378 5.47682 3.0161 3.4742 2.99378C3.03798 2.99378 2.81987 3.08307 2.87936 3.64115C2.89918 3.77509 2.87936 3.90903 2.87936 4.0653C2.87936 30.0942 2.87936 56.1455 2.85953 82.1744C2.85953 83.0674 3.07764 83.246 3.8311 83.246C21.4185 83.2236 39.0059 83.2236 56.5933 83.246C57.327 83.246 57.5252 83.0674 57.5252 82.2191C57.4856 73.5353 57.5054 64.8516 57.4856 56.1455C57.4856 55.3642 57.6046 55.0963 58.358 55.1186C59.8848 55.1856 59.8848 55.1409 59.8848 56.8822C59.8848 65.9008 59.8848 74.9194 59.9046 83.9603C59.9046 84.7863 59.746 85.4336 59.1511 85.9024C39.8387 85.8801 20.5461 85.8801 1.25346 85.8801ZM53.9562 11.0525C54.8683 11.0525 55.7804 11.0748 56.6925 11.0525C56.9502 11.0525 57.327 11.2534 57.4856 10.8739C57.6442 10.4721 57.4063 10.1596 57.1287 9.86935C55.2252 7.72631 53.3217 5.58328 51.4182 3.44025C51.3389 3.35095 51.2794 3.28398 51.2001 3.21701C51.0018 2.97146 50.7441 2.99378 50.5061 3.06075C50.2484 3.15004 50.3674 3.44025 50.3674 3.64115C50.3674 5.91813 50.3673 8.1951 50.3475 10.4721C50.3475 10.9632 50.4863 11.0971 50.9027 11.0748C51.9338 11.0302 52.945 11.0525 53.9562 11.0525Z" fill="white"/>
<path d="M69.5003 29.5585C69.4607 31.2774 68.8857 32.5945 67.8744 33.7553C62.2036 40.1174 56.5527 46.5242 50.8819 52.9087C48.9585 55.074 47.0352 57.2394 45.1119 59.4048C44.874 59.6726 44.6162 59.8512 44.299 59.9405C42.1377 60.5432 39.9765 61.146 37.8152 61.7264C36.6454 62.0389 35.9514 61.2353 36.229 59.8959C36.7445 57.4849 37.26 55.0964 37.7954 52.6854C37.8747 52.3059 38.0532 51.9934 38.3109 51.7032C44.9731 44.2026 51.6353 36.702 58.2975 29.179C59.3286 28.0182 60.3398 26.8351 61.4303 25.7412C62.9373 24.2009 64.7218 23.8438 66.5856 24.7367C68.4693 25.652 69.3615 27.3932 69.5003 29.5585ZM62.8183 35.5412C62.7588 35.4519 62.6993 35.3626 62.6398 35.2956C61.6683 34.2018 60.6769 33.1079 59.7053 31.9918C59.4079 31.6569 59.2889 31.9471 59.1303 32.1257C54.2526 37.6172 49.3749 43.1088 44.4972 48.578C44.2197 48.8905 44.2197 49.0691 44.4972 49.3816C45.4093 50.3638 46.3016 51.3684 47.174 52.3952C47.4714 52.7524 47.6499 52.7078 47.9275 52.3729C52.7655 46.9037 57.6234 41.4345 62.4812 35.943C62.6002 35.8314 62.6993 35.7198 62.8183 35.5412ZM64.5235 27.0806C64.3847 27.103 64.2063 27.1253 64.0476 27.1699C62.7985 27.5048 62.1838 28.7549 61.3114 29.6255C61.1131 29.8264 61.3709 29.9603 61.47 30.0943C62.4019 31.1658 63.3537 32.215 64.3054 33.2865C64.5235 33.5321 64.6623 33.599 64.9002 33.3088C65.4158 32.6838 66.0106 32.1034 66.4865 31.4337C67.121 30.5631 67.1805 29.5585 66.7442 28.5317C66.2882 27.5494 65.5149 27.1476 64.5235 27.0806ZM45.7662 54.7169C45.7068 54.6499 45.6473 54.5606 45.568 54.4713C44.5964 53.3775 43.7041 52.1274 42.6136 51.2344C41.9791 50.6987 41.6817 51.9488 41.186 52.3059C40.9679 52.4622 40.5911 52.6854 41.0075 53.1319C41.6618 53.8463 42.2963 54.5829 42.9507 55.2973C44.18 56.6813 44.18 56.6813 45.4093 55.2526C45.5481 55.0964 45.7266 54.9624 45.7662 54.7169ZM39.8377 55.5205C39.7584 55.5651 39.6791 55.6321 39.6196 55.6768C39.4213 56.6367 39.2032 57.5742 38.9851 58.6458C39.8575 58.4002 40.611 58.1993 41.3843 57.9984C41.6618 57.9314 41.7213 57.7975 41.5032 57.5519C40.948 56.8599 40.3929 56.1902 39.8377 55.5205Z" fill="white"/>
<path d="M18.3021 21.7231C18.3021 28.7103 23.1402 34.626 29.2075 35.0725C35.6318 35.5413 41.1241 30.5855 41.9371 23.4644C42.4328 19.2229 41.3026 15.5396 38.7249 12.459C38.3086 11.9679 38.368 11.7223 38.7448 11.2758C39.9345 9.84716 39.9543 9.80251 41.0448 11.3428C44.5147 16.1646 45.4268 21.5892 43.4837 27.3933C41.5603 33.108 37.7732 36.5235 32.4196 37.5503C24.6867 39.0237 17.3702 32.9741 16.1211 24.2233C14.8719 15.5619 20.166 7.32463 27.9187 5.89594C30.1593 5.47179 32.3403 5.69503 34.5214 6.43169C34.9775 6.58796 35.1163 6.78887 34.918 7.3023C34.6999 7.86038 34.6602 8.61938 34.3033 8.95423C33.8869 9.33372 33.2921 8.79796 32.7766 8.66402C25.3014 6.83351 18.3021 13.151 18.3021 21.7231Z" fill="white"/>
<path d="M27.825 73.8478C30.7596 73.8478 33.714 73.8701 36.6485 73.8255C37.2037 73.8255 37.3425 73.9818 37.3425 74.6068C37.3226 76.5043 37.3425 76.5043 35.6571 76.5043C30.1251 76.5043 24.5931 76.5043 19.0413 76.5266C18.4464 76.5266 18.3076 76.348 18.3076 75.7007C18.3473 73.8478 18.3076 73.8478 19.9533 73.8478C22.5706 73.8478 25.2078 73.8478 27.825 73.8478Z" fill="white"/>
<path d="M9.95804 51.1228C8.8675 51.1228 7.77697 51.1228 6.68643 51.1228C5.71486 51.1228 5.27864 50.6317 5.25881 49.5602C5.25881 47.0377 5.23898 44.4928 5.25881 41.9703C5.25881 40.9434 5.71486 40.4746 6.64677 40.4523C6.82522 40.4523 6.98385 40.43 7.1623 40.4523C7.69765 40.4969 8.5106 40.1844 8.70888 40.5862C8.98647 41.189 8.82785 42.0373 8.82785 42.7962C8.82785 43.332 8.43129 43.1311 8.21318 43.1088C7.75714 43.0641 7.61834 43.2427 7.63817 43.7561C7.67783 45.1179 7.67783 46.4796 7.63817 47.8413C7.61834 48.3994 7.81662 48.4887 8.23301 48.4664C9.42269 48.444 10.6124 48.4217 11.7822 48.4664C12.2779 48.4887 12.4564 48.3101 12.3771 47.7743C12.2977 47.2832 12.4762 47.1046 12.9322 47.1046C14.7564 47.0823 14.7564 47.06 14.7366 49.1137C14.7366 50.7657 14.4193 51.1228 12.9719 51.1228C11.9805 51.1228 10.9693 51.1228 9.95804 51.1228Z" fill="white"/>
<path d="M9.95824 65.8338C8.8677 65.8338 7.77716 65.8338 6.68663 65.8338C5.69523 65.8338 5.25901 65.3426 5.25901 64.2711C5.23918 61.7486 5.23918 59.2037 5.25901 56.6812C5.25901 55.6543 5.71505 55.1632 6.62714 55.1409C7.1625 55.1186 7.71768 55.1856 8.25304 55.1186C8.72891 55.0739 8.8677 55.2972 8.80822 55.7883C8.78839 56.1008 8.78839 56.391 8.80822 56.7035C8.84788 57.3732 8.88753 58.0206 7.97544 57.7974C7.67802 57.7304 7.61854 57.9536 7.61854 58.2438C7.61854 59.7172 7.63837 61.1905 7.61854 62.6639C7.61854 63.0433 7.75734 63.1326 8.05476 63.1326C9.34357 63.1103 10.6324 63.1103 11.9014 63.1326C12.3376 63.1326 12.4169 62.9094 12.3574 62.5299C12.2583 61.8602 12.5359 61.7709 13.0514 61.7709C14.717 61.7932 14.717 61.7709 14.717 63.6907C14.717 65.4766 14.4195 65.7891 12.873 65.7891C11.941 65.8338 10.9496 65.8338 9.95824 65.8338Z" fill="white"/>
<path d="M9.97807 80.5225C8.8677 80.5225 7.75734 80.5225 6.64697 80.5225C5.71505 80.5002 5.27884 80.0314 5.25901 78.9822C5.23918 76.4597 5.23918 73.9148 5.25901 71.3923C5.25901 70.3431 5.69523 69.852 6.60731 69.8297C6.74611 69.8297 6.90473 69.8297 7.04353 69.8297C8.8677 69.8297 8.84788 69.8297 8.82805 71.8834C8.82805 72.4192 8.6496 72.5754 8.23321 72.5085C7.73751 72.4192 7.59871 72.6647 7.61854 73.2005C7.6582 74.5399 7.63837 75.8793 7.61854 77.1964C7.59871 77.6875 7.71768 77.8884 8.19355 77.8661C9.40306 77.8214 10.6126 77.8214 11.8221 77.8661C12.2979 77.8884 12.4566 77.6875 12.3773 77.1964C12.2979 76.6606 12.4962 76.5043 12.9721 76.5043C14.7368 76.5043 14.7368 76.482 14.7368 78.4688C14.7368 80.1654 14.4394 80.5225 12.9126 80.5225C11.9609 80.5449 10.9695 80.5449 9.97807 80.5225Z" fill="white"/>
<path d="M27.3262 28.4423C26.89 28.4646 26.5926 28.2861 26.3348 27.9959C25.2641 26.7904 24.2132 25.5849 23.1227 24.4018C22.8451 24.0893 22.8649 23.9107 23.1227 23.5982C24.4115 22.0579 24.4115 22.0579 25.7202 23.5312C26.2159 24.067 26.6917 24.9822 27.2271 25.0269C27.7823 25.0938 28.2383 24.0893 28.7142 23.5535C30.9746 21.031 33.235 18.4861 35.4755 15.919C35.8126 15.5171 35.9911 15.5395 36.3281 15.919C37.5773 17.3253 37.5971 17.3253 36.3281 18.7317C33.6712 21.723 31.0142 24.7143 28.3573 27.7057C28.0797 28.0852 27.7624 28.487 27.3262 28.4423Z" fill="white"/>
<path d="M26.6354 47.1046C24.0577 47.1046 21.4999 47.0822 18.9223 47.1269C18.4266 47.1269 18.3076 46.9706 18.3076 46.4349C18.3076 44.4481 18.2878 44.4481 20.0723 44.4481C24.7914 44.4481 29.5104 44.4704 34.2295 44.4258C34.8243 44.4258 34.9631 44.6044 34.9631 45.2517C34.9235 47.1046 34.9631 47.1046 33.3174 47.1046C31.0967 47.1046 28.8561 47.1046 26.6354 47.1046Z" fill="white"/>
<path d="M24.2549 61.8156C22.4704 61.8156 20.7057 61.7933 18.9212 61.8156C18.485 61.8156 18.3264 61.7263 18.3264 61.1905C18.3065 59.1368 18.2867 59.1368 20.1109 59.1368C23.2437 59.1368 26.3964 59.1591 29.5292 59.1145C30.0447 59.1145 30.2628 59.2038 30.243 59.8735C30.2232 61.7933 30.243 61.7933 28.4981 61.7933C27.0705 61.8156 25.6627 61.8156 24.2549 61.8156Z" fill="white"/>
<path d="M17.3308 68.8028C17.192 68.9814 17.0731 69.1153 16.9541 69.2493C15.0506 71.3923 13.1471 73.5353 11.2436 75.6784C10.9264 76.0579 10.7479 76.0355 10.4307 75.6784C9.14187 74.2497 9.12204 74.272 10.4109 72.821C12.0169 71.0128 13.6428 69.2046 15.2291 67.3741C15.586 66.95 15.8239 66.9276 16.161 67.3741C16.4187 67.7313 16.7558 68.0438 17.0532 68.3787C17.1325 68.5126 17.2119 68.6465 17.3308 68.8028Z" fill="white"/>
<path d="M16.6804 40.1174C16.6011 40.2067 16.5019 40.3407 16.4028 40.4523C14.6778 42.3944 12.9329 44.3365 11.2079 46.301C10.9105 46.6358 10.732 46.6135 10.4346 46.301C9.10611 44.85 9.10611 44.8723 10.3751 43.4436C11.8027 41.8363 13.2502 40.229 14.6778 38.5994C14.995 38.2199 15.2131 38.2199 15.4907 38.5994C15.7683 38.9789 16.1252 39.3138 16.4226 39.671C16.5416 39.7826 16.7002 39.8719 16.6804 40.1174Z" fill="white"/>
<path d="M10.6907 61.5253C10.5321 61.2575 10.4131 60.9673 10.2347 60.744C9.18379 59.5386 9.16396 59.5386 10.2148 58.3554C11.7019 56.6812 13.189 55.0293 14.6563 53.3327C14.9934 52.9309 15.1917 52.9532 15.5287 53.3327C16.7779 54.7391 16.7977 54.7391 15.5486 56.1454C14.1408 57.7304 12.7132 59.3377 11.3054 60.9226C11.1666 61.0565 11.008 61.2128 10.6907 61.5253Z" fill="white"/>
<path d="M59.8839 51.1227C59.8839 52.4621 59.8839 52.4621 58.4762 52.4621C57.5244 52.4621 57.5244 52.4621 57.5244 50.8548C57.5244 49.8057 57.5244 49.8057 58.9719 49.8057C59.8839 49.7833 59.8839 49.7833 59.8839 51.1227Z" fill="white"/>
<path d="M33.7918 59.1368C34.9419 59.1368 34.9419 59.1368 34.9419 60.6995C34.9419 61.8156 34.9419 61.8156 33.4548 61.8156C32.5625 61.8156 32.5625 61.8156 32.5625 60.1414C32.5823 59.1368 32.5823 59.1368 33.7918 59.1368Z" fill="white"/>
</svg>
