<svg width="72" height="90" viewBox="0 0 72 90" fill="none" xmlns="http://www.w3.org/2000/svg">
<path d="M61.7504 28.7815C58.0652 15.2302 44.5237 6.78751 30.7385 9.44901C15.5397 12.3835 5.8978 27.6213 9.79744 42.5569C11.2988 48.3089 14.399 53.0372 19.0006 56.7809C20.6579 58.1262 21.6231 59.8616 21.8083 61.9869C21.9546 63.7222 21.8571 65.4576 21.8668 67.2026C21.8766 69.6204 23.5047 71.2778 25.9322 71.2778C29.2274 71.2875 32.5323 71.2778 35.8275 71.2778C39.1715 71.2778 42.5252 71.2875 45.8691 71.2778C48.0821 71.268 49.7785 69.5619 49.7785 67.3489C49.7785 65.9353 49.798 64.5216 49.7785 63.108C49.7395 60.427 50.7729 58.2822 52.8592 56.5859C61.0777 49.8785 64.5386 39.0278 61.7504 28.7815ZM40.0684 69.172C38.6548 69.1622 37.2411 69.172 35.8275 69.172C34.4139 69.172 33.0003 69.1622 31.5867 69.1817C31.2552 69.1817 31.1382 69.0842 31.1382 68.743C31.148 66.3837 31.1382 64.0342 31.148 61.6749C31.1577 60.622 31.9181 59.8518 32.9613 59.8421C34.8624 59.8226 36.7634 59.8226 38.6645 59.8421C39.7174 59.8518 40.4876 60.6123 40.4876 61.6652C40.5071 64.0342 40.4876 66.4032 40.4973 68.782C40.5071 69.1135 40.3609 69.172 40.0684 69.172ZM28.6327 42.05C28.6034 41.6795 28.6034 41.2993 28.6327 40.9288C28.6522 40.5681 28.5157 40.4999 28.1745 40.5291C26.0102 40.7339 24.1579 42.206 23.5437 44.2923C23.4169 44.7407 23.2024 44.8285 22.793 44.809C21.1259 44.7212 19.8098 43.4538 19.6928 41.8062C19.5758 40.1197 20.6969 38.667 22.3738 38.3941C22.8417 38.3161 22.9587 38.1503 22.91 37.7214C22.871 37.3509 22.8905 36.9707 22.91 36.6002C22.9295 36.2785 22.8125 36.181 22.4908 36.2103C21.4476 36.3273 20.4922 36.649 19.6733 37.3119C19.3808 37.5459 19.1371 37.5459 18.8348 37.4094C17.5967 36.8537 16.885 35.8983 16.8265 34.5432C16.768 33.1686 17.3822 32.1157 18.6301 31.5112C19.8293 30.9263 21.0186 31.0433 22.0521 31.8914C22.4128 32.1839 22.5883 32.1449 22.871 31.8427C23.1439 31.5502 23.4559 31.2772 23.7776 31.0335C24.0214 30.8483 23.9726 30.7313 23.7776 30.546C22.8905 29.6979 21.8376 29.2007 20.6189 29.0837C20.3167 29.0544 20.1607 28.9375 20.0242 28.684C18.9421 26.5879 20.5604 23.9752 22.9197 23.9849C23.2609 23.9849 23.4169 24.1019 23.5242 24.4529C24.1384 26.5489 25.9614 28.0698 28.0477 28.2745C28.4572 28.3135 28.7204 28.255 28.6327 27.7676C28.6229 27.6896 28.6327 27.6018 28.6327 27.5238C28.6327 27.1339 28.7204 26.7049 28.5937 26.3637C28.4377 25.9445 27.921 26.1395 27.57 26.0127C26.0687 25.457 25.1815 23.9264 25.474 22.3081C25.747 20.8067 27.1898 19.6563 28.7302 19.7051C30.3193 19.7538 31.6647 20.9627 31.8401 22.5323C31.8889 22.9808 31.8889 23.439 31.8889 23.8972C31.8889 26.5099 31.8889 29.1227 31.8889 31.7452C31.8889 32.3204 31.8889 32.3204 31.3624 32.1449C29.0616 31.3747 26.6536 32.7786 26.2052 35.1476C26.0784 35.8106 26.1077 35.8496 26.7706 35.8496C26.8974 35.8496 27.0338 35.8398 27.1606 35.8496C27.7845 35.8983 28.3012 35.9275 28.506 35.0696C28.6814 34.3384 29.5784 33.9582 30.3193 34.0655C31.0992 34.1727 31.7426 34.7772 31.8499 35.5571C31.9669 36.3955 31.8791 37.2437 31.8986 38.0918C31.9084 39.0473 31.8986 40.0124 31.8986 40.9678C31.8986 42.6057 31.9181 44.2533 31.8889 45.8911C31.8694 47.412 30.8652 48.6794 29.4419 49.0401C28.0282 49.4008 26.5464 48.7574 25.8249 47.4802C24.7331 45.5402 25.8834 43.0931 28.1062 42.7227C28.5547 42.6252 28.6717 42.4497 28.6327 42.05ZM31.6842 50.288C33.1758 49.2351 33.9557 47.7727 34.0044 45.9496C34.0142 45.5791 34.1312 45.4817 34.4821 45.4914C35.3791 45.5109 36.2662 45.5207 37.1631 45.4914C37.5336 45.4817 37.6116 45.6084 37.6311 45.9594C37.6993 47.7824 38.4695 49.2351 39.9709 50.288C40.1756 50.4342 40.2439 50.5512 40.1561 50.8047C39.4347 52.9885 38.723 55.182 38.0211 57.3853C37.9333 57.6583 37.7871 57.7265 37.5239 57.7168C36.9584 57.707 36.3832 57.7168 35.8178 57.7168C35.2523 57.7168 34.6771 57.707 34.1117 57.7265C33.8485 57.7363 33.7022 57.668 33.6145 57.3951C32.9223 55.2015 32.2106 53.008 31.4989 50.8144C31.4209 50.5512 31.4794 50.4342 31.6842 50.288ZM39.7467 40.9386C39.7467 39.3007 39.7467 37.6531 39.7467 36.0153C39.7467 35.2354 40.0294 34.6114 40.7313 34.241C41.3358 33.9192 41.95 33.9582 42.5349 34.3189C42.9541 34.5822 43.2466 34.9624 43.3148 35.4498C43.3636 35.7911 43.5196 35.8301 43.7925 35.8203C44.1825 35.8008 44.5725 35.7911 44.9624 35.8203C45.4109 35.8593 45.5181 35.7033 45.4596 35.2646C45.1769 33.1881 43.1588 31.6379 41.0823 31.9207C40.7606 31.9694 40.4388 32.0182 40.1464 32.1644C39.7954 32.3399 39.7467 32.1839 39.7467 31.8719C39.7564 29.6589 39.7467 27.4556 39.7467 25.2425C39.7467 24.4821 39.7272 23.7119 39.7467 22.9515C39.7954 21.1479 41.1213 19.7538 42.8469 19.6856C44.5627 19.6173 46.0056 20.8847 46.2103 22.62C46.4053 24.2871 45.1477 25.8957 43.4513 26.12C43.0808 26.1687 42.9931 26.2954 43.0126 26.6367C43.0419 27.0461 43.0321 27.4458 43.0126 27.8553C42.9931 28.2063 43.1198 28.294 43.4611 28.2745C45.4889 28.1673 47.4484 26.6464 48.0821 24.5699C48.2479 24.0239 48.5111 23.9459 48.9888 23.9947C51.2701 24.2189 52.635 26.6172 51.6406 28.645C51.5041 28.9179 51.3481 29.0544 51.0166 29.0837C49.8272 29.1909 48.8036 29.6881 47.9261 30.4876C47.6922 30.702 47.6044 30.8775 47.9261 31.0822C47.9944 31.1212 48.0431 31.1895 48.1114 31.248C48.4428 31.5405 48.7256 31.9402 49.1155 32.0864C49.5347 32.2424 49.7785 31.6964 50.1392 31.5112C51.7868 30.702 53.8244 31.404 54.5555 33.0516C55.316 34.7772 54.5165 36.7465 52.8104 37.4192C52.4985 37.5459 52.2547 37.5361 51.972 37.3022C51.1531 36.649 50.1879 36.3273 49.1448 36.2103C48.8426 36.181 48.7353 36.2688 48.7451 36.571C48.7646 36.961 48.7743 37.3509 48.7451 37.7409C48.7061 38.1503 48.8231 38.3161 49.2618 38.3941C51.2213 38.7158 52.3815 40.6169 51.8355 42.5082C51.4456 43.8341 50.1879 44.7602 48.7743 44.809C48.4136 44.8187 48.2381 44.7212 48.1309 44.341C47.5167 42.2157 45.6839 40.7436 43.4903 40.5291C43.1003 40.4901 43.0029 40.6071 43.0224 40.9678C43.0419 41.3773 43.0516 41.777 43.0224 42.1865C43.0029 42.5082 43.1101 42.6349 43.4416 42.6837C44.9819 42.9176 46.0446 44.029 46.2298 45.5694C46.3955 46.9538 45.5376 48.3284 44.1727 48.8841C42.0962 49.7323 39.8149 48.1724 39.7662 45.8619C39.7272 44.224 39.7467 42.5862 39.7467 40.9386ZM53.4246 53.2127C52.7617 53.9049 52.0305 54.5288 51.2896 55.143C48.8718 57.1221 47.6922 59.6861 47.6532 62.796C47.6337 64.2877 47.6532 65.789 47.6532 67.2806C47.6532 68.4408 46.922 69.172 45.7716 69.1817C44.9137 69.1915 44.046 69.1622 43.1881 69.1915C42.7494 69.211 42.6031 69.094 42.6129 68.6358C42.6421 66.374 42.6226 64.1219 42.6226 61.8601C42.6226 60.154 41.9012 58.8964 40.3803 58.1165C40.1366 57.9897 40.0976 57.8728 40.1854 57.629C40.8581 55.5915 41.5112 53.5539 42.1644 51.5163C42.2327 51.3019 42.3302 51.2044 42.5836 51.2239C45.1964 51.4579 47.5362 49.742 48.1796 47.2657C48.2674 46.9148 48.4721 46.9538 48.7256 46.9538C52.479 46.9148 55.0137 43.3369 53.7756 39.7882C53.6684 39.4665 53.7269 39.3495 54.0193 39.2032C57.0611 37.6434 57.9092 33.8022 55.8132 31.1017C55.316 30.4583 54.7115 29.9514 53.9803 29.6101C53.7171 29.4931 53.6781 29.3762 53.7659 29.0934C54.9747 25.418 52.518 21.9376 48.6671 21.8986C48.2771 21.8986 48.2284 21.7036 48.1406 21.4306C47.4094 19.0421 45.2354 17.492 42.7689 17.5993C40.3219 17.7065 38.2745 19.4516 37.7481 21.8889C37.6603 22.3178 37.6311 22.7565 37.6311 23.1952C37.6311 26.4124 37.6311 29.6296 37.6311 32.8468C37.6311 36.181 37.6214 39.5055 37.6409 42.8397C37.6409 43.2686 37.5434 43.4441 37.0754 43.4246C36.2467 43.3856 35.4181 43.3856 34.5894 43.4246C34.1409 43.4441 34.0142 43.3076 34.0142 42.8592C34.0337 37.4777 34.0337 32.1059 34.0239 26.7244C34.0239 25.2815 34.1117 23.8289 33.9752 22.3861C33.7412 19.8805 31.7232 17.882 29.1981 17.6188C26.6926 17.3555 24.2943 18.9154 23.5632 21.3332C23.4364 21.7524 23.2804 21.9084 22.8125 21.9084C19.1761 21.9668 16.69 25.535 17.8599 28.9959C17.9867 29.3762 17.8989 29.5029 17.5772 29.6881C15.6956 30.7313 14.6817 32.3496 14.711 34.4847C14.7305 36.61 15.7639 38.1893 17.6357 39.2032C17.9087 39.3495 17.9964 39.4567 17.8892 39.7882C16.6706 43.4051 19.1663 46.9148 22.9782 46.9538C23.2999 46.9538 23.4169 47.0513 23.5047 47.3535C24.2651 49.8688 26.3904 51.3701 29.0129 51.2336C29.3249 51.2141 29.4321 51.3116 29.5199 51.5943C30.1535 53.6027 30.8067 55.611 31.4599 57.6193C31.5574 57.902 31.4794 58.0092 31.2357 58.136C29.7733 58.8964 29.0324 60.1053 29.0227 61.7529C29.0129 64.0634 29.0129 66.3642 29.0324 68.6748C29.0324 69.0745 28.9349 69.211 28.5254 69.2012C27.648 69.172 26.7706 69.2012 25.8932 69.2012C24.7526 69.2012 24.0116 68.4603 23.9921 67.3099C23.9726 65.5258 24.0799 63.732 23.9434 61.9479C23.7289 59.1986 22.5395 56.9368 20.4045 55.2015C15.4812 51.1849 12.3615 46.0764 11.4158 39.7882C10.1679 31.4527 12.5564 24.2189 18.5034 18.2427C22.5005 14.2261 27.3946 11.8765 33.0295 11.2818C41.0043 10.4532 47.8677 12.9197 53.5319 18.6034C57.1878 22.2788 59.4788 26.7342 60.249 31.8622C61.4579 40.0417 59.1863 47.1975 53.4246 53.2127Z" fill="white"/>
<path d="M45.7335 82.0894C42.4384 82.0894 39.1432 82.0894 35.848 82.0894C32.5723 82.0894 29.2868 82.0894 26.0111 82.0894C25.3189 82.0894 24.9485 82.3136 24.7827 82.8206C24.6268 83.3081 24.812 83.7468 25.3579 84.1367C27.5515 85.6771 29.706 87.2662 31.9386 88.7383C34.3856 90.3469 36.9886 90.4444 39.4649 88.8748C41.8534 87.3734 44.1054 85.6673 46.4257 84.0392C46.7864 83.7858 46.9717 83.4348 46.9132 82.9961C46.8352 82.4306 46.3965 82.0992 45.7335 82.0894ZM42.0776 84.4974C40.9272 85.3164 39.7768 86.1353 38.607 86.9347C36.9496 88.0754 34.8243 88.1241 33.1475 87.0127C31.8996 86.184 30.7004 85.3066 29.4721 84.4487C29.4233 84.4097 29.3648 84.3902 29.3063 84.361C29.3258 84.322 29.3551 84.283 29.3746 84.244C33.6739 84.244 37.9733 84.244 42.2629 84.244C42.3019 84.4097 42.1654 84.4389 42.0776 84.4974Z" fill="white"/>
<path d="M46.6805 73.4809C39.7489 73.5004 32.8173 73.4906 25.8857 73.5004C25.3983 73.5004 24.7646 73.2957 24.4721 73.5881C24.1504 73.9001 24.4233 74.5435 24.3551 75.0407C24.2966 75.5185 24.4818 75.6354 24.9498 75.6354C28.5667 75.6159 32.1934 75.6257 35.8103 75.6257C38.3743 75.6257 40.9383 75.6257 43.5023 75.6257C44.5747 75.6257 45.6471 75.6062 46.7195 75.6354C47.1972 75.6549 47.3532 75.4892 47.2947 75.031C47.2557 74.7288 47.2557 74.4071 47.2947 74.1048C47.363 73.5979 47.168 73.4809 46.6805 73.4809Z" fill="white"/>
<path d="M46.6992 77.79C39.4556 77.7998 32.212 77.7998 24.9685 77.7998C24.8905 77.7998 24.8027 77.8095 24.7247 77.7998C24.4615 77.7705 24.3445 77.868 24.3543 78.1508C24.3738 78.5602 24.3933 78.9697 24.3543 79.3694C24.3055 79.8373 24.4908 79.9348 24.9295 79.9251C28.5464 79.9056 32.173 79.9153 35.79 79.9153C36.9599 79.9153 38.1297 79.9153 39.2996 79.9153C41.8052 79.9153 44.3009 79.9056 46.8064 79.9251C47.1867 79.9251 47.3426 79.8373 47.3036 79.4376C47.2744 79.0867 47.2646 78.7162 47.3036 78.3652C47.3524 77.8778 47.1477 77.79 46.6992 77.79Z" fill="white"/>
<path d="M35.1663 5.71504C35.605 5.69555 36.0437 5.69555 36.4824 5.71504C36.7944 5.72479 36.9114 5.6273 36.9016 5.29583C36.8821 4.48666 36.8919 3.67748 36.8919 2.86831C36.8919 2.03964 36.8821 1.21096 36.8919 0.392039C36.9016 0.099566 36.8139 -0.0174231 36.5117 0.00207509C36.0437 0.0215733 35.5758 0.0215733 35.0981 0.00207509C34.8446 -0.007674 34.7568 0.0800679 34.7568 0.333544C34.7666 2.00064 34.7666 3.66773 34.7568 5.33483C34.7568 5.65655 34.8836 5.72479 35.1663 5.71504Z" fill="white"/>
<path d="M50.2479 9.39054C50.6573 9.61477 51.0765 9.839 51.4665 10.0925C51.7492 10.2777 51.8662 10.1997 52.0222 9.92675C52.8411 8.49363 53.6698 7.06051 54.4887 5.63714C54.5375 5.5494 54.5862 5.47141 54.6252 5.40317C54.596 5.24718 54.4692 5.22768 54.3815 5.16919C53.9623 4.92546 53.5333 4.70123 53.1239 4.43801C52.8801 4.27227 52.7826 4.35026 52.6462 4.58424C51.8175 6.04661 50.9693 7.50897 50.1211 8.95184C49.9652 9.18581 50.0334 9.27356 50.2479 9.39054Z" fill="white"/>
<path d="M67.1443 52.6861C65.6722 51.8282 64.1904 50.9897 62.7182 50.1318C62.5233 50.0148 62.4063 50.0148 62.2893 50.2293C62.0358 50.6875 61.7823 51.136 61.5093 51.5844C61.4119 51.7599 61.4119 51.8574 61.6068 51.9646C63.0985 52.8128 64.5901 53.6805 66.0817 54.5384C66.1792 54.5871 66.2962 54.7041 66.3741 54.5676C66.7056 54.0314 67.0176 53.4758 67.3296 52.959C67.3686 52.7641 67.2321 52.7348 67.1443 52.6861Z" fill="white"/>
<path d="M62.288 21.4402C62.405 21.6547 62.5122 21.6547 62.7072 21.5475C64.1793 20.6896 65.6514 19.8414 67.1235 18.9932C67.2113 18.9445 67.338 18.8957 67.3185 18.7495C67.3088 18.7202 67.299 18.691 67.2795 18.6617C66.9968 18.1743 66.7141 17.6771 66.4313 17.1896C66.3241 16.9947 66.2071 17.0726 66.0706 17.1506C64.5888 18.0086 63.0972 18.8665 61.6055 19.7244C61.4203 19.8316 61.3911 19.9291 61.5081 20.1046C61.781 20.5336 62.0443 20.982 62.288 21.4402Z" fill="white"/>
<path d="M4.61042 19.0518C6.01429 19.8512 7.42791 20.6506 8.82203 21.4891C9.1535 21.684 9.28998 21.6158 9.44597 21.3038C9.6312 20.9236 9.84568 20.5629 10.0797 20.2119C10.2454 19.9585 10.2356 19.822 9.94317 19.6562C8.50031 18.8471 7.07694 18.0086 5.64382 17.18C5.55608 17.1312 5.46834 17.0922 5.4001 17.0532C5.23436 17.0532 5.21486 17.1897 5.15637 17.2775C4.91264 17.6772 4.69816 18.0964 4.44469 18.4961C4.25945 18.7788 4.35694 18.9056 4.61042 19.0518Z" fill="white"/>
<path d="M9.30225 50.1417C9.20476 49.976 9.09752 50.0247 8.98053 50.093C7.49867 50.9509 6.00705 51.8088 4.51544 52.6667C4.32046 52.7837 4.28147 52.891 4.4082 53.0957C4.67143 53.5247 4.92491 53.9634 5.15888 54.4021C5.26612 54.5971 5.35387 54.6458 5.56835 54.5288C7.04046 53.6709 8.51257 52.8227 9.98468 51.9745C10.0724 51.9258 10.2089 51.8966 10.2089 51.7601C10.1894 51.7211 10.1894 51.6918 10.1699 51.6626C9.88719 51.1556 9.59472 50.6487 9.30225 50.1417Z" fill="white"/>
<path d="M19.6441 9.93645C19.7319 10.0924 19.7904 10.3264 20.0731 10.1509C20.5118 9.87795 20.97 9.62448 21.4087 9.36125C21.4965 9.3125 21.6232 9.27351 21.6232 9.12727C21.5745 9.03953 21.5257 8.96154 21.477 8.87379C20.7555 7.60641 20.0244 6.33903 19.3029 5.0814C18.835 4.26247 18.835 4.26247 18.0355 4.73043C17.7041 4.92541 17.1971 5.07165 17.0899 5.35437C16.9826 5.65659 17.3921 6.02706 17.5871 6.35853C18.2598 7.55767 18.952 8.74706 19.6441 9.93645Z" fill="white"/>
<path d="M5.70374 36.5611C5.69399 36.1127 5.68424 35.6545 5.70374 35.1963C5.72324 34.8453 5.577 34.7478 5.25528 34.7575C4.46561 34.777 3.66618 34.7673 2.87651 34.7673C2.03808 34.7673 1.18991 34.777 0.351491 34.7673C0.117513 34.7673 -0.00922548 34.7965 0.000523613 35.0793C0.0200218 35.5765 0.0200218 36.0834 0.0102727 36.5904C0.000523613 36.8341 0.117513 36.8926 0.331993 36.8926C2.01859 36.8926 3.70518 36.9024 5.38202 36.9218C5.62575 36.9121 5.71349 36.8049 5.70374 36.5611Z" fill="white"/>
<path d="M71.6465 36.5125C71.627 36.064 71.627 35.6058 71.6465 35.1476C71.6562 34.8844 71.5685 34.7674 71.2857 34.7674C69.6284 34.7771 67.9808 34.7771 66.3235 34.7674C66.0212 34.7674 65.9335 34.8941 65.9432 35.1769C65.9627 35.6351 65.9627 36.0835 65.9432 36.5417C65.9237 36.8537 66.0602 36.9219 66.3429 36.9122C67.1521 36.8927 67.9613 36.9024 68.7705 36.9024C68.7705 36.8927 68.7705 36.8829 68.7705 36.8829C69.5991 36.8829 70.4278 36.8732 71.2467 36.8927C71.5392 36.8927 71.666 36.8147 71.6465 36.5125Z" fill="white"/>
</svg>
