<svg width="85" height="87" viewBox="0 0 85 87" fill="none" xmlns="http://www.w3.org/2000/svg">
<path d="M77.2121 34.2331C73.4909 16.4362 60.0289 4.04914 44.1591 3.83426C43.4258 3.82162 43.2178 3.58147 43.2069 2.74724C43.2069 2.02676 43.2069 1.30629 43.2069 0.434143C41.1602 2.38068 39.223 4.2261 37.2858 6.07152C37.0231 6.32431 37.2639 6.41279 37.3843 6.53919C38.3474 7.4619 39.3215 8.38461 40.2956 9.31996C41.2368 10.2174 42.1671 11.1022 43.1631 12.0502C43.1959 11.8985 43.2069 11.8858 43.2069 11.8606C43.2069 11.1654 43.2069 10.4702 43.2178 9.77499C43.2288 8.9534 43.4696 8.67533 44.181 8.68797C46.556 8.75117 48.9091 9.05452 51.2184 9.73707C66.8803 14.3633 76.5225 32.1096 73.3157 50.4248C70.5467 66.1234 58.2777 77.9038 44.3889 77.9923C31.3866 78.0807 18.3843 78.0175 5.37107 78.0175C3.89353 78.0175 2.416 78.0302 0.938466 78.0049C0.610126 78.0049 0.489734 78.106 0.500679 78.4979C0.522568 79.6734 0.511623 80.8615 0.511623 82.037C0.511623 82.846 0.511623 82.846 1.21208 82.846C15.4183 82.846 29.6245 82.846 43.8417 82.846C46.348 82.846 48.8215 82.5426 51.2731 81.9359C69.8353 77.3224 81.6665 55.5565 77.2121 34.2331Z" fill="white"/>
<path d="M43.8955 62.9634C53.308 62.976 61.0021 54.1028 61.013 43.2452C61.013 32.337 53.3408 23.4512 43.9065 23.4386C34.505 23.4259 26.8218 32.2864 26.7999 43.1694C26.7671 54.0649 34.4503 62.9634 43.8955 62.9634ZM43.9612 27.9889C51.1737 28.0015 57.0839 34.8776 57.0729 43.2578C57.062 51.6128 51.13 58.4257 43.8846 58.4257C36.6064 58.413 30.7181 51.5875 30.7291 43.1694C30.7291 34.7765 36.672 27.9763 43.9612 27.9889Z" fill="white"/>
<path d="M22.4126 76.0585C22.741 76.3239 23.0693 76.4503 23.4743 76.4503C26.7248 76.4377 29.9645 76.4377 33.215 76.4377C33.3354 76.4377 33.4668 76.5135 33.5653 76.3745C33.5324 76.2228 33.423 76.2607 33.3464 76.2355C27.2502 74.0235 21.8873 70.4085 17.991 64.5057C10.7784 53.5975 9.69489 41.6528 14.3136 29.0888C16.9403 21.9599 21.3948 16.6133 27.283 12.8845C27.6661 12.6444 27.6989 12.4548 27.5019 12.025C27.0203 10.9885 26.5607 9.9268 26.1557 8.85241C25.9478 8.29626 25.7617 8.29626 25.3349 8.56169C12.5733 16.5374 5.51402 32.9566 7.85618 49.5654C9.44316 60.7516 14.3683 69.5616 22.4126 76.0585Z" fill="white"/>
<path d="M84.2476 80.0913C82.4636 78.4226 80.6797 76.7539 78.8957 75.0852C78.8081 74.9967 78.7315 74.845 78.5783 74.9209C78.5673 74.9588 78.5564 75.0093 78.5564 75.0473C78.5564 75.5909 78.5564 76.1471 78.5564 76.6907C78.5564 77.7652 78.3813 77.9801 77.44 77.9801C72.8433 77.9801 68.2574 77.9801 63.6607 77.9801C63.2776 77.9801 62.9602 78.0813 62.6428 78.3215C60.2678 80.0407 57.7505 81.3808 55.091 82.4047C54.8283 82.5059 54.5547 82.607 54.292 82.7208C54.3029 82.7587 54.3029 82.7966 54.3139 82.8346C54.4343 82.8346 54.5547 82.8346 54.6751 82.8346C62.2926 82.8346 69.9101 82.8346 77.5276 82.8346C78.3594 82.8346 78.5564 83.0621 78.5564 84.0229C78.5564 84.6676 78.5564 85.3124 78.5564 86.0456C78.6987 85.9444 78.7534 85.9065 78.8081 85.8686C80.6468 84.1493 82.4855 82.4174 84.3352 80.7108C84.6635 80.3694 84.4227 80.2557 84.2476 80.0913Z" fill="white"/>
<path d="M39.7922 49.502C40.2847 50.0075 40.8758 50.2603 41.5434 50.2477C42.2329 50.2603 42.8567 50.0202 43.3383 49.464C45.965 46.4557 48.5808 43.4348 51.1857 40.4013C51.9737 39.4786 51.9518 37.9744 51.2076 37.0138C50.3648 35.9268 48.942 35.9015 48.0008 36.9885C45.9541 39.3269 43.9184 41.6779 41.8936 44.0542C41.5434 44.4587 41.3573 44.446 41.029 44.0668C40.6131 43.5739 40.1425 43.1315 39.6937 42.6764C38.7415 41.7284 37.4172 41.7916 36.5964 42.8028C35.7536 43.8519 35.8193 45.394 36.7715 46.4178C37.7784 47.429 38.7853 48.4655 39.7922 49.502Z" fill="white"/>
</svg>
