<svg width="99" height="76" viewBox="0 0 99 76" fill="none" xmlns="http://www.w3.org/2000/svg">
<path d="M63.9103 0.990195C55.4369 0.990195 46.9985 1.13025 38.5251 0.920167C32.5728 0.780111 28.4061 4.80672 28.6162 10.9342C28.8963 19.5476 28.6862 28.1961 28.6862 36.8445C28.6862 37.5448 28.8963 38.3151 28.4061 38.8754C27.9159 39.4356 27.4257 40.7311 26.6904 40.1709C25.745 39.5056 27.0405 38.9104 27.4257 38.4552C28.4761 37.1947 28.3011 36.1092 27.2506 35.0588C26.1302 33.9384 25.0798 33.9734 23.9243 35.1639C21.8935 37.1947 19.8627 39.1905 17.9019 41.2913C14.4705 44.9328 11.4593 48.8193 9.6736 53.5462C9.35847 54.3515 9.14839 54.4916 8.37808 53.9314C7.11758 52.986 5.85707 53.2311 4.73662 54.3165C3.61618 55.402 2.46071 56.5224 1.41029 57.6779C0.184803 59.0084 0.149789 60.409 1.44531 61.7045C5.71702 66.0112 9.98872 70.3179 14.3305 74.5896C15.661 75.8852 17.1316 75.8151 18.4971 74.5196C19.3725 73.6793 20.2478 72.8039 21.0882 71.9286C22.9439 70.0728 23.0489 69.2675 21.6834 66.8165C22.9789 66.7115 23.9943 66.2213 24.9397 65.6961C28.266 63.7703 31.8725 63.7003 35.584 63.7353C45.3879 63.8403 55.1918 63.8403 64.9957 63.7353C69.8277 63.7003 73.5742 59.9188 73.6092 55.3669C73.6092 51.5154 73.6092 47.6989 73.6092 43.8473C73.6092 32.8179 73.6092 21.7885 73.6092 10.7591C73.6092 4.38655 70.2478 0.990195 63.9103 0.990195ZM20.598 70.388C19.5826 71.4034 18.5321 72.4538 17.5167 73.4692C16.7464 74.2045 16.0111 74.2395 15.2408 73.4692C11.0041 69.2325 6.76744 64.9958 2.53074 60.7591C1.76043 59.9888 1.83046 59.2185 2.60077 58.4832C2.63578 58.4482 2.6708 58.4132 2.74083 58.3431C7.6778 53.5812 6.06715 53.5812 10.794 58.2031C13.9453 61.2843 17.0616 64.4356 20.1778 67.5868C20.633 68.042 21.1932 68.4272 21.1932 69.1625C21.1932 69.6877 20.9481 70.0378 20.598 70.388ZM22.7338 65.1008C22.3137 65.2759 21.8235 65.3109 21.8935 65.3109C20.4579 65.381 19.6876 65.0658 19.0223 64.4006C16.5363 61.8796 14.0153 59.3585 11.4943 56.8726C10.689 56.0672 10.4789 55.2969 10.9691 54.2115C12.5447 50.57 14.4005 47.0686 17.1666 44.1625C19.5826 41.6415 22.0335 39.1555 24.4845 36.6695C24.9747 36.1793 25.3949 35.2689 26.3053 36.1793C27.1806 37.0546 26.2352 37.4748 25.8501 38.07C25.675 38.3151 25.4999 38.5252 25.2898 38.7353C23.8543 39.9608 24.9397 40.626 25.78 41.5014C26.7254 42.4818 27.3557 42.3417 28.196 41.3613C29.3515 40.0308 30.577 38.8053 31.8025 37.5448C32.2576 37.0896 32.6428 36.4594 33.3781 37.1597C34.0433 37.7899 33.6932 38.2801 33.203 38.7703C32.1876 39.8207 31.2772 40.9762 30.2268 41.9566C28.8613 43.1821 29.9817 43.7773 30.717 44.5826C31.5574 45.528 32.2576 45.598 33.133 44.5826C34.6036 42.937 36.1792 41.3613 37.6848 39.7507C38.14 39.2605 38.4551 38.9104 39.0854 39.4706C39.7156 40.0308 39.6456 40.451 39.0854 41.0462C37.7198 42.4118 36.4943 43.9174 35.0938 45.2129C33.5532 46.6134 34.8837 47.2437 35.654 48.119C36.5644 49.1695 37.0546 48.6443 37.8249 47.8389C40.696 44.8627 43.6722 41.9916 46.5784 39.0504C47.0686 38.5602 47.4887 38.3852 48.0489 38.9454C48.5391 39.4356 48.3991 39.8207 47.9789 40.2759C45.668 42.7969 43.252 45.2479 41.0812 47.909C38.5602 50.9902 35.619 53.6162 33.063 56.6625C32.7478 57.0476 32.4327 57.4328 32.7828 57.888C33.168 58.3782 33.6232 58.098 34.0433 57.888C35.4439 57.2927 36.8445 56.6975 38.21 56.1022C38.8753 55.8221 39.6106 55.542 39.9957 56.4524C40.3459 57.2227 39.9257 57.7479 39.1554 58.098C33.6582 60.409 28.196 62.7549 22.7338 65.1008ZM35.724 32.3277C35.4789 25.2199 35.689 18.112 35.619 10.9692C35.619 9.28851 36.1792 8.7633 37.8599 8.7633C46.7184 8.83333 55.577 8.83333 64.4705 8.7633C66.1862 8.7633 66.6764 9.35854 66.6764 11.0042C66.6064 21.6835 66.6414 32.3627 66.6414 43.007C66.6414 46.5434 66.5714 50.0798 66.6764 53.6162C66.7114 55.2619 66.2212 55.8922 64.5055 55.8922C57.2576 55.8221 50.0447 55.8571 42.7968 55.8571C42.3417 55.8571 41.6764 55.9272 41.4663 55.6821C40.0658 53.8964 38.4201 54.3866 36.4593 55.2269C37.6848 53.021 39.3305 51.6905 40.766 50.1849C43.077 47.7339 45.3529 45.2479 47.5588 42.6919C48.4691 41.6064 49.4495 41.2213 50.8851 41.2563C53.5812 41.3613 56.2422 41.3263 58.9383 41.2913C61.8445 41.2563 63.0349 40.0308 63.0349 37.1246C63.0349 31.9426 63.0349 26.7605 63.0349 21.5434C63.0349 19.1625 61.9495 17.8669 59.6036 17.8319C53.9313 17.7619 48.294 17.7269 42.6218 17.8319C40.3459 17.8669 39.2954 19.1625 39.2604 21.4384C39.2604 26.2353 39.2604 30.9972 39.2604 35.7941C39.2604 36.7745 39.4355 37.6849 37.8949 37.7549C37.2646 37.7899 36.6344 38.7003 36.0742 39.2955C34.8837 40.486 33.7282 41.7465 32.5728 42.972C32.3277 43.2521 32.0475 43.7773 31.5924 43.3571C30.9971 42.8669 31.6274 42.5868 31.8725 42.2367C31.9075 42.2017 31.9425 42.1317 31.9775 42.0966C35.3739 39.6807 35.8641 36.2493 35.724 32.3277ZM40.9761 40.0658C40.2758 36.8445 40.8361 33.5882 40.626 30.3319C40.556 29.3165 40.9411 29.0364 41.9215 29.0364C45.0027 29.0714 48.084 29.0364 51.1652 29.0364C54.1764 29.0364 57.2226 29.0714 60.2338 29.0364C61.1092 29.0364 61.6344 29.1765 61.6344 30.2619C61.5644 32.6429 61.5994 35.0238 61.6344 37.4048C61.6694 38.9104 60.9691 39.7857 59.4985 39.7857C56.5223 39.8557 53.5812 39.7857 50.605 39.8207C49.8697 39.8207 49.8347 39.3305 49.6246 38.8403C48.5391 36.6695 46.9985 36.3894 45.3179 38.1751C42.8669 40.7311 40.2058 43.112 37.9649 45.8782C37.7898 46.0882 37.5447 46.2983 37.2996 46.4384C36.9845 46.6134 36.7394 47.1387 36.2842 46.6835C35.8291 46.2283 36.2842 45.9482 36.5644 45.6681C37.7898 44.3375 39.0153 43.042 40.2758 41.7115C40.731 41.2913 41.1512 40.8011 40.9761 40.0658ZM40.661 21.4384C40.626 20.0728 41.3263 19.2675 42.6218 19.2675C48.3291 19.2325 54.0363 19.2325 59.7436 19.2675C60.9691 19.2675 61.6694 20.0028 61.6694 21.2983C61.6694 22.944 61.6344 24.5546 61.7044 26.2003C61.7394 27.2507 61.2492 27.4608 60.3389 27.4258C57.2576 27.3908 54.1764 27.4258 51.0952 27.4258C48.084 27.4258 45.0377 27.3908 42.0265 27.4608C41.0812 27.4608 40.661 27.2157 40.696 26.2003C40.696 24.5896 40.661 23.014 40.661 21.4384ZM72.2086 54.5266C72.2086 59.2535 69.2324 62.2997 64.4705 62.3347C56.4173 62.3698 48.3641 62.3347 40.3459 62.3347C38.175 62.3347 36.0391 62.3347 33.8683 62.3347C33.8333 62.2297 33.7982 62.0896 33.7282 61.9846C35.619 61.1443 37.5097 60.3039 39.4005 59.4636C39.8907 59.2535 40.591 59.1134 40.731 58.7283C41.5013 56.9076 43.0419 57.3277 44.4425 57.3277C50.9901 57.3277 57.5027 57.3277 64.0503 57.3277C67.5518 57.3277 67.9719 56.8726 67.9719 53.4412C67.9719 39.3305 68.0069 25.2199 68.0419 11.1092C68.0419 8.02801 67.4467 7.43277 64.3655 7.43277C55.5069 7.43277 46.6484 7.43277 37.7548 7.43277C34.8837 7.43277 34.2534 8.09804 34.2534 10.9342C34.2534 18.7423 34.2534 26.5504 34.2534 34.3936C34.2534 35.2339 34.3935 35.9342 33.133 35.409C31.7674 34.8487 31.2772 36.2843 30.0167 36.9496C30.0167 34.8487 30.0167 32.958 30.0167 31.0672C30.0518 24.1695 30.0517 17.3067 30.0868 10.409C30.1218 5.2619 32.9579 2.42577 38.14 2.42577C46.8235 2.42577 55.5069 2.42577 64.2254 2.42577C69.3725 2.42577 72.2436 5.33193 72.2436 10.444C72.2436 21.4034 72.2436 32.3627 72.2436 43.3221C72.2086 47.0686 72.2086 50.7801 72.2086 54.5266Z" fill="white"/>
<path d="M93.9877 17.6219C94.0928 16.8166 94.1278 15.9762 93.2524 15.451C92.3421 14.9258 91.7118 15.521 91.0115 15.9412C89.4359 16.8866 88.0003 18.2171 86.1796 17.6919C85.6544 17.6919 85.4443 17.6919 85.1992 17.6919C84.2538 17.7269 83.1334 17.4118 82.5732 18.5323C82.048 19.5827 82.7482 20.353 83.3085 21.0533C84.744 22.804 85.0241 24.7647 84.8491 26.9356C84.779 27.7409 84.709 28.6163 85.5844 29.1065C86.4247 29.5617 87.195 29.1765 87.8253 28.6513C89.681 27.1107 91.7818 26.5505 94.1628 26.9006C94.8981 27.0056 95.7384 26.9706 96.1936 26.2003C96.6838 25.36 96.3337 24.5897 95.8085 23.9244C94.3729 22.0687 93.6726 20.0028 93.9877 17.6219ZM86.3547 28.0911C86.2846 27.3558 86.2146 27.1107 86.2496 26.9006C86.5297 24.4496 86.1446 22.1737 84.4639 20.2129C83.7987 19.4076 84.0438 18.9174 85.0942 19.0925C87.5452 19.4426 89.681 18.7774 91.5718 17.2717C92.237 16.7465 92.6922 16.8866 92.5522 17.797C92.097 20.6331 93.1824 23.014 95.3533 25.6051C91.7818 25.0098 88.9457 25.6401 86.3547 28.0911Z" fill="white"/>
<path d="M83.238 9.63867C84.1833 9.4636 85.2688 10.0238 85.829 8.90337C86.3892 7.85295 85.5489 7.08265 85.0237 6.41738C84.0083 5.15688 84.1483 3.7213 84.1133 2.28573C84.0783 0.535027 83.2029 -0.0251969 81.8024 0.955195C80.2968 2.00562 78.7562 2.42578 76.9354 2.32074C75.0797 2.2157 74.5195 3.26612 75.6049 4.87676C76.5853 6.27732 76.9704 7.74791 76.8654 9.42859C76.7604 11.4244 77.7408 11.9146 79.4564 10.8992C80.6819 10.2339 81.7674 9.2185 83.238 9.63867ZM78.476 9.81374C78.6511 7.57284 78.1609 5.7171 76.4452 3.82634C78.8962 4.03643 80.857 3.65127 82.8528 1.86556C82.5027 4.42158 82.9929 6.31234 84.6735 8.27312C82.1175 7.99301 80.1917 8.30814 78.476 9.81374Z" fill="white"/>
<path d="M98.0493 7.78293C97.2089 6.73251 96.9638 5.57705 96.9988 4.2115C97.0689 2.7059 96.1935 2.2157 94.863 3.05604C93.7425 3.75632 92.6221 4.10646 91.2565 4.03643C89.786 4.00142 89.2607 4.84176 90.0311 5.99722C90.8364 7.22271 91.1865 8.4482 91.1165 9.88377C91.0815 11.2143 91.9218 11.7045 93.0773 10.9692C94.3028 10.1639 95.5283 9.7087 96.9988 9.88377C97.8042 9.9538 98.3294 9.60366 98.4344 8.62327C98.3294 8.37817 98.2243 8.02803 98.0493 7.78293ZM92.6221 9.60366C92.482 8.27313 92.5871 7.11767 91.7818 6.13727C91.3966 5.68209 91.7117 5.40198 92.2369 5.40198C93.3574 5.43699 94.4078 5.15688 95.4932 4.24652C95.5983 5.82215 95.6333 7.15268 96.7537 8.37817C95.1781 8.4482 93.8476 8.65828 92.6221 9.60366Z" fill="white"/>
<path d="M46.7884 23.6793C47.2436 24.7647 47.9789 25.3599 49.1694 25.395C50.4299 25.43 51.0601 24.5196 51.7254 23.5392C52.4257 25.0448 53.4411 25.6751 54.9117 25.2899C55.9971 25.0098 56.5573 24.1695 56.5924 23.084C56.6274 21.9986 56.1022 21.1583 55.0517 20.7731C53.4411 20.2129 52.4607 21.0882 51.6904 22.3838C49.9047 20.0028 48.3291 19.9678 46.6484 22.3838C45.2478 20.458 43.7772 20.0728 42.5167 21.1933C41.5013 22.0686 41.4313 23.6443 42.3417 24.6247C43.4971 25.8852 45.0027 25.57 46.7884 23.6793ZM54.1064 22.0686C54.7016 22.0336 55.0517 22.3838 55.0868 23.014C55.0167 23.5742 54.7016 23.9944 54.1064 23.9594C53.5111 23.9244 53.196 23.5392 53.196 22.944C53.266 22.3838 53.6162 22.1036 54.1064 22.0686ZM48.224 22.8739C48.294 22.3487 48.6442 22.0686 49.2044 22.1036C49.8347 22.1387 50.0798 22.5588 50.1498 23.049C49.9747 23.6793 49.6596 24.0644 49.0293 23.9944C48.4341 23.8543 48.119 23.4692 48.224 22.8739ZM44.1274 22.0686C44.7576 22.1387 45.1078 22.4888 45.0727 23.084C45.0377 23.5742 44.7226 23.9244 44.1624 23.9594C43.5321 23.9944 43.147 23.6092 43.147 23.049C43.147 22.4538 43.5321 22.1036 44.1274 22.0686Z" fill="white"/>
</svg>
