<svg width="78" height="86" viewBox="0 0 78 86" fill="none" xmlns="http://www.w3.org/2000/svg">
<path d="M75.7767 55.5597C74.9136 54.9686 74.9136 54.279 74.9136 53.3431C74.9568 46.2993 74.9136 39.2062 74.9136 32.1623C74.9136 25.1678 74.9136 18.2224 74.9136 11.2279C74.9136 7.73056 73.8348 6.44986 70.7709 6.44986C66.5419 6.40061 62.2698 6.35135 58.0408 6.49912C56.1852 6.54838 55.4516 6.00655 55.581 3.78995C55.6242 2.60777 56.4009 0.391177 54.6748 0.341919C52.9487 0.341919 53.6823 2.55851 53.7686 3.7407C53.8549 5.95729 53.2076 6.54838 51.3089 6.49912C46.9073 6.35135 42.5488 6.44986 38.1472 6.44986C36.3348 6.44986 34.6518 7.28724 34.6087 9.30681C34.3929 18.321 34.4792 27.3351 34.436 36.3985C34.436 37.0389 34.7813 37.4822 35.3854 37.5314C35.9464 37.5314 36.3348 37.0881 36.3779 36.4478C36.4642 35.8074 36.4211 35.1178 36.4211 34.4775C36.4211 26.941 36.5074 19.3554 36.3779 11.8189C36.3348 9.40532 37.1115 8.66646 39.1397 8.66646C49.4101 8.71572 59.7237 8.71572 69.9941 8.71572C72.6696 8.71572 72.8854 8.962 72.8854 12.1145C72.8854 25.2663 72.8854 38.3688 72.8854 51.5206C72.8854 54.7716 72.7559 54.9194 69.9941 54.9194C60.4142 54.9194 50.8773 54.9194 41.2974 54.9194C40.0028 54.9194 38.6219 55.1657 37.4568 54.7223C35.7306 54.0327 36.68 52.0132 36.4211 50.5847C36.2916 49.8458 36.0327 49.3533 35.2991 49.4025C34.695 49.4518 34.436 49.9444 34.436 50.5847C34.3929 51.4221 34.436 52.2102 34.3929 53.0476C34.3497 53.885 34.7813 54.7716 33.7887 55.4119C32.0626 56.4956 31.4153 58.2689 32.0626 60.4362C32.7531 62.7513 34.436 63.2439 36.3779 63.1947C40.1754 63.0961 44.016 63.2439 47.8135 63.1454C49.7122 63.0961 49.6259 63.7365 48.7629 65.2635C47.1662 68.0712 45.6558 70.9774 44.1455 73.8836C43.7139 74.6717 42.8509 75.6076 44.0592 76.3464C45.0517 76.9868 45.4401 75.8539 45.8284 75.115C47.6409 71.7655 49.4533 68.416 51.2657 65.0664C52.7761 62.2095 56.4872 62.2588 58.0408 65.1157C59.8963 68.5145 61.7519 71.9625 63.5643 75.4105C63.9527 76.1494 64.3843 76.8883 65.2473 76.3464C66.1535 75.7553 65.6357 74.918 65.2905 74.2284C63.737 71.2729 62.1834 68.3174 60.5436 65.4112C59.6374 63.7857 59.508 63.0469 61.5793 63.1454C65.5494 63.2932 69.4763 63.1454 73.4464 63.1947C75.302 63.1947 76.6829 62.3573 77.2439 60.2885C77.848 58.2689 77.3302 56.5941 75.7767 55.5597ZM72.7559 60.8303C66.7145 60.8303 60.7162 60.8303 54.6748 60.8303C48.6334 60.8303 42.6351 60.8303 36.5937 60.8303C35.4286 60.8303 34.0477 60.9288 34.0045 59.1063C33.9614 57.136 35.3854 57.1852 36.6368 57.1852C48.6765 57.1852 60.7594 57.1852 72.7991 57.1852C74.0074 57.1852 75.3451 57.1852 75.3883 58.9585C75.4314 60.9781 74.0074 60.8303 72.7559 60.8303Z" fill="white"/>
<path d="M27.4449 48.0233C29.7752 50.5354 30.3362 50.6339 33.0548 48.7129C35.1262 47.2352 37.1975 45.8067 39.2689 44.2797C40.7361 43.196 41.3834 41.7183 40.3909 39.8958C39.3983 38.0732 37.9311 38.0732 36.4639 39.1077C35.0399 40.0928 33.6158 41.0287 32.2781 42.1124C31.1993 42.999 30.4225 42.999 29.6026 41.7676C28.9985 40.8809 28.1786 40.1421 27.4881 39.3047C26.0641 37.5807 24.6832 35.8074 23.1728 34.1819C22.0077 32.9504 20.972 32.7534 20.4542 35.0685C20.1089 36.694 19.7206 38.3688 18.6849 39.945C18.1239 38.1718 17.6061 36.6448 17.1745 35.1178C16.5272 32.9997 16.0094 32.7042 14.499 34.1819C13.2044 35.4626 12.0825 36.9896 10.8742 38.3688C7.55139 42.1124 4.27176 45.8067 1.03528 49.5503C0.172221 50.5354 -0.259309 51.7176 0.172221 53.0968C0.560599 54.279 1.38051 54.9194 2.45933 55.0179C3.58131 55.1164 4.35807 54.3775 5.04852 53.5401C6.9904 51.225 8.97544 48.8607 11.3489 46.053C11.6941 51.5206 12.0825 56.1015 11.0036 60.6825C10.529 62.6528 10.3132 64.7216 9.96796 66.7412C9.8385 67.6278 9.62274 68.7115 10.7447 68.8593C11.6941 69.007 11.7804 68.0219 11.9099 67.1845C12.4277 63.7857 13.075 60.4362 13.5065 57.0374C13.6791 55.6582 14.1107 55.0179 15.4484 55.1164C17.5197 55.2149 19.6342 55.2149 21.7056 55.1164C23.0002 55.0671 23.6043 55.5104 23.8201 57.0867C24.3379 60.8795 25.0284 64.6724 25.6325 68.4652C26.2798 72.5043 26.884 76.5434 27.5313 80.5826C27.747 81.814 28.0491 83.2425 26.5819 83.5873C24.9421 83.9814 24.8558 82.3559 24.5968 81.0751C24.5105 80.5333 24.4242 79.9422 24.3379 79.4004C23.2591 72.7014 22.1371 66.0023 21.1878 59.3033C20.8857 57.0867 19.85 56.9389 18.2533 56.8897C16.5704 56.8404 16.4409 57.9241 16.2252 59.3033C15.1032 66.6427 13.8949 73.9821 12.7298 81.3214C12.5571 82.4544 12.2982 83.7843 10.9605 83.5873C9.45013 83.341 9.70905 81.9618 9.7522 80.6811C9.79535 79.5974 10.9173 77.9227 9.36382 77.5286C7.55139 77.1345 8.32815 79.3511 7.81031 80.3363C7.76716 80.3855 7.76716 80.4841 7.76716 80.5826C7.37878 83.4395 8.3713 85.4098 10.4858 85.8531C12.6435 86.2472 14.1538 84.9665 14.6285 82.0603C15.4916 76.9868 16.2252 71.9132 17.1314 66.8397C17.5629 64.3276 17.6492 61.7169 18.5986 59.254C19.5911 59.7959 19.3753 60.781 19.5048 61.5199C20.6268 68.3667 21.7056 75.2135 22.8276 82.0603C23.2591 84.6217 24.4242 85.9024 26.3661 85.9024C28.7827 85.9024 30.1636 83.9321 29.6889 80.8289C28.6532 73.785 27.6176 66.7412 26.2798 59.7959C25.4599 55.4612 25.8483 51.2743 26.0209 46.6441C26.7113 47.2844 27.0997 47.6292 27.4449 48.0233ZM24.5537 42.5557C23.6906 42.9497 23.9927 43.9349 23.9496 44.723C23.9064 46.6933 23.9064 48.6636 23.9496 50.6339C23.9927 52.1609 23.518 52.8998 22.094 52.8013C19.8932 52.7028 17.6492 52.7028 15.4052 52.8013C13.938 52.8505 13.5497 52.1609 13.5928 50.6339C13.6791 48.5159 13.5928 46.3485 13.5928 44.2304C13.5928 43.4916 13.5928 42.7035 12.8161 42.4079C12.1688 42.1616 11.7372 42.7035 11.3489 43.1468C8.88914 45.9052 6.47257 48.7129 4.01284 51.4713C3.53816 51.9639 3.06348 53.1953 2.37303 52.4565C1.55312 51.6191 2.63195 51.0773 3.06348 50.5354C7.07671 45.9545 11.0899 41.4228 15.3189 36.6448C15.8799 38.418 16.3978 39.9943 16.9156 41.6198C17.2608 42.6049 17.8218 43.3438 18.8143 43.2946C19.7206 43.2453 20.1952 42.5064 20.4973 41.6198C21.0151 40.0435 21.533 38.418 22.0508 36.8418C24.2516 39.2554 26.4956 41.472 28.5238 43.9349C29.9047 45.6097 30.9835 46.053 32.6665 44.526C34.0474 43.2453 35.6872 42.3094 37.1975 41.2257C37.6291 40.9302 38.1469 40.4376 38.5353 41.0287C39.0531 41.8168 38.2764 42.1616 37.8448 42.5064C35.7303 44.0334 33.5727 45.5111 31.4582 47.0874C30.552 47.777 29.9478 47.6292 29.2574 46.7426C28.3512 45.6097 27.3155 44.526 26.3661 43.4423C25.8483 42.9005 25.3736 42.1616 24.5537 42.5557Z" fill="white"/>
<path d="M68.3976 11.0308C59.2491 11.1293 50.1438 11.1293 40.9954 11.0308C39.0535 11.0308 38.5357 11.8682 38.5788 13.937C38.6651 19.7494 38.622 25.6111 38.622 31.4235C38.622 32.4086 38.622 33.3938 38.6651 34.3789C38.7083 35.0193 38.9672 35.5118 39.5713 35.4626C40.1755 35.4626 40.4344 34.97 40.4776 34.3297C40.5207 33.6893 40.5207 32.9997 40.5207 32.3593C40.5207 26.8425 40.5639 21.3749 40.4776 15.858C40.4344 14.0355 40.7796 13.2966 42.592 13.2966C50.6617 13.3952 58.6881 13.3952 66.7578 13.2966C68.4407 13.2966 68.7859 13.9863 68.7859 15.7103C68.7428 26.3992 68.7428 37.0388 68.7859 47.7277C68.7859 49.5503 68.3976 50.1414 66.7578 50.0921C58.7744 49.9936 50.7911 50.0428 42.8078 50.0921C41.3406 50.0921 40.1755 50.0428 40.4344 47.8262C40.5207 47.1859 40.1755 46.6933 39.6145 46.5455C39.3987 46.4963 38.9672 46.6441 38.8809 46.8903C38.1904 48.3681 38.4062 49.9443 38.6651 51.4221C38.8377 52.6042 39.9166 52.3087 40.6502 52.3087C49.9281 52.3087 59.206 52.2594 68.4839 52.3579C70.21 52.3579 70.7278 51.7176 70.7278 49.7966C70.6415 43.7379 70.6847 37.6299 70.6847 31.5712C70.6847 25.6603 70.6415 19.7494 70.7278 13.8385C70.8573 11.8189 70.3395 10.9815 68.3976 11.0308Z" fill="white"/>
<path d="M18.8574 33.1475C22.1802 33.0982 24.8557 30.0935 24.8557 26.2514C24.8557 22.4586 22.2665 19.4046 18.9006 19.3061C15.4052 19.2568 12.7297 22.2615 12.6865 26.1529C12.6865 30.1428 15.362 33.1475 18.8574 33.1475ZM18.7711 21.6212C21.0151 21.6212 22.8706 23.7393 22.8275 26.3007C22.7843 28.8621 20.9288 30.8816 18.6416 30.8324C16.484 30.7831 14.7147 28.7143 14.6716 26.3007C14.6284 23.7393 16.5271 21.6212 18.7711 21.6212Z" fill="white"/>
<path d="M48.7192 28.9606C50.661 29.0099 52.6029 28.9606 54.5448 28.9606C56.573 28.9606 58.5581 28.9606 60.5862 28.9606C61.1904 28.9606 62.0535 29.0591 62.0103 27.9755C61.9671 27.0396 61.1904 27.2366 60.6294 27.2366C56.7025 27.2366 52.7324 27.1874 48.8055 27.2366C48.2876 27.2366 47.5109 27.0888 47.5109 28.0247C47.4246 28.9606 48.1582 28.9606 48.7192 28.9606Z" fill="white"/>
<path d="M48.7624 21.6704C50.7043 21.6704 52.6462 21.6704 54.5881 21.6704C56.6163 21.6704 58.6013 21.6704 60.6295 21.6704C61.1905 21.6704 61.9241 21.8182 61.9673 20.8823C62.0104 19.9464 61.3631 19.9464 60.759 19.9464C56.7457 19.9464 52.7325 19.9464 48.6761 19.9464C48.1151 19.9464 47.3815 19.8972 47.4247 20.8331C47.4678 21.7197 48.2014 21.6704 48.7624 21.6704Z" fill="white"/>
<path d="M48.5468 36.3C52.6463 36.3 56.7458 36.3 60.8454 36.3C61.3201 36.3 61.9674 36.3 61.9674 35.4626C61.9674 34.4775 61.2338 34.6252 60.7159 34.6252C58.774 34.6252 56.8321 34.6252 54.8903 34.6252C52.8189 34.6252 50.7044 34.6252 48.6331 34.6252C48.0721 34.6252 47.3816 34.5267 47.4248 35.5119C47.4679 36.2507 48.0721 36.3 48.5468 36.3Z" fill="white"/>
<path d="M48.2877 41.9646C47.8562 41.9646 47.4247 42.1616 47.4678 42.802C47.511 43.4423 47.9857 43.4916 48.4172 43.5409C49.4097 43.5901 50.4022 43.5409 51.3948 43.5409C52.4736 43.5409 53.5093 43.5409 54.5881 43.5409C55.0196 43.5409 55.4943 43.4423 55.5375 42.802C55.5806 42.1616 55.1491 41.9646 54.6744 41.9646C52.5167 41.9154 50.4022 41.9154 48.2877 41.9646Z" fill="white"/>
<path d="M10.2274 74.0313C10.8315 73.9821 11.0904 73.5388 11.0904 72.8984C11.0904 72.1103 10.6589 71.7655 9.96845 71.667C9.49376 71.9132 8.97593 72.2088 9.06223 72.9969C9.14854 73.785 9.62322 74.0806 10.2274 74.0313Z" fill="white"/>
<path d="M18.685 44.5753C18.0808 44.7723 17.6493 45.1663 17.7356 45.9545C17.8219 46.7426 18.2966 47.0381 18.9439 46.9889C19.548 46.9396 19.807 46.447 19.807 45.8067C19.7206 45.0186 19.3323 44.6245 18.685 44.5753Z" fill="white"/>
</svg>
