<svg width="70" height="70" viewBox="0 0 70 70" fill="none" xmlns="http://www.w3.org/2000/svg">
<path d="M21.2306 28.0857C21.0408 27.4215 20.4715 26.8996 20.0445 26.3066C18.9771 24.8359 18.9297 24.8359 20.0445 23.4127C21.1357 22.0132 22.4403 20.8034 23.8635 19.7123C24.504 19.2379 25.0259 19.143 25.6426 19.7123C25.9984 20.0206 26.4017 20.2816 26.7812 20.5662C28.5128 21.8471 30.1021 21.2067 30.4816 19.0955C30.9323 16.4151 30.9323 16.3914 33.6839 16.1305C35.1546 15.9881 36.6015 16.1542 38.0485 16.3677C38.7838 16.4625 39.1871 16.8421 39.2582 17.6011C39.3057 18.0755 39.4717 18.55 39.448 19.0007C39.4006 20.2578 40.0885 20.8271 41.2033 21.1592C41.7489 21.3253 42.1759 21.4202 42.6028 20.9932C42.7452 20.8509 42.9112 20.756 43.0773 20.6374C45.3782 18.9058 45.3782 18.9058 47.5367 20.8983C48.5804 21.8708 49.553 22.8908 50.4069 24.0531C50.8339 24.6224 50.8813 25.0969 50.4069 25.6424C50.0748 26.022 49.7902 26.4727 49.4818 26.8759C48.1535 28.6312 48.8177 30.2442 50.9525 30.5763C53.5381 30.9558 53.4906 30.9796 53.8464 33.5414C54.0599 35.0595 53.8464 36.5302 53.7041 38.0246C53.6329 38.8548 53.1823 39.3055 52.352 39.3767C51.9251 39.4004 51.4744 39.5427 51.0711 39.519C49.5767 39.4241 49.1735 40.4678 48.7702 41.5827C48.6516 41.9148 48.6991 42.1994 48.9125 42.4604C49.0786 42.6738 49.2446 42.911 49.4107 43.1245C51.0948 45.378 51.0948 45.378 49.2921 47.5129C48.2958 48.6989 47.1098 49.6714 45.8526 50.5965C45.4019 50.9286 45.0224 50.9523 44.5954 50.5965C44.1684 50.2407 43.7177 49.9324 43.267 49.6003C41.4405 48.2482 39.8987 48.8649 39.5192 51.0947C39.0685 53.87 39.0685 53.8937 36.1508 53.9411C34.7276 53.9649 33.3044 54.0123 31.9048 53.7751C31.1458 53.6565 30.8137 53.2532 30.7425 52.5416C30.6951 51.9961 30.529 51.4505 30.529 50.9049C30.5053 49.9324 30.0309 49.4579 29.1295 49.1021C28.323 48.7938 27.7774 48.8649 27.0896 49.3868C24.6226 51.2607 24.6226 51.237 22.2743 49.1021C21.278 48.2007 20.4241 47.157 19.5938 46.0896C19.1669 45.5203 19.1431 45.0459 19.6176 44.5003C19.9259 44.1445 20.1868 43.7413 20.4715 43.3617C21.4915 42.0097 21.4915 41.6301 20.6613 40.2069C20.3529 39.685 19.9022 39.7088 19.4515 39.6376C16.3678 39.1632 16.3678 39.1632 16.0832 36.0558C15.9646 34.7037 16.1781 33.3754 16.3441 32.047C16.439 31.2879 16.8185 30.8372 17.6487 30.7898C18.1943 30.7661 18.7399 30.6475 19.2855 30.5763C20.3055 30.3866 21.2306 29.2954 21.2306 28.0857ZM24.7887 21.4202C24.5277 21.5862 24.338 21.7048 24.1482 21.8471C23.3891 22.4401 22.7724 23.128 22.0845 23.8159C21.3492 24.575 21.278 25.1917 22.0371 25.9034C23.3654 27.1368 23.7212 28.4652 22.5826 30.007C22.3929 30.2442 22.298 30.5763 22.2505 30.8847C22.0845 31.7624 21.5626 32.1182 20.7087 32.2368C17.8622 32.6875 17.8622 32.7112 17.9097 35.5577C17.9097 35.9135 17.9334 36.2693 17.9571 36.6251C17.9808 37.1707 18.3129 37.6213 18.8111 37.5739C21.3492 37.3841 22.4403 38.8785 23.0096 41.0371C23.0333 41.1083 23.0808 41.1794 23.1282 41.2506C23.5315 41.8673 23.4603 42.3655 23.0096 42.9585C21.1594 45.4729 21.1594 45.4966 23.5315 47.6789C23.6975 47.8449 23.8873 47.9873 24.0533 48.1533C24.504 48.5566 25.0259 48.6277 25.4291 48.177C26.9709 46.4691 28.6551 46.3743 30.5053 47.6315C30.529 47.6552 30.5765 47.6789 30.6239 47.6789C31.7625 47.8449 32.1183 48.5566 32.2132 49.6477C32.4267 52.0435 32.5453 52.0909 34.9174 52.1147C35.0834 52.1147 35.2257 52.1147 35.3918 52.1147C37.2894 52.0909 37.5266 51.996 37.669 50.0984C37.7876 48.604 38.4992 48.0821 39.7801 47.418C41.654 46.4454 42.9824 46.7301 44.3582 48.0821C44.6665 48.3905 45.0698 48.7226 45.5205 48.4142C46.6591 47.6077 47.7977 46.7063 48.3907 45.4729C48.7939 44.5952 47.5842 44.0022 47.1572 43.2194C47.086 43.0771 46.9674 42.9585 46.8726 42.8399C46.327 42.0571 47.7265 38.2144 48.6516 37.9534C48.7702 37.9297 48.8888 37.906 49.0074 37.906C52.186 37.3604 52.0437 38.2144 52.0199 34.2767C52.0199 33.9921 51.9962 33.7312 51.9725 33.4465C51.9251 32.9009 51.6641 32.4977 51.0948 32.5214C48.699 32.64 47.5842 31.3354 46.8726 29.1768C46.5405 28.1805 46.5168 27.5401 47.1809 26.7336C48.8651 24.6699 48.8414 24.6462 46.8726 22.7722C46.8488 22.7485 46.8251 22.7248 46.7777 22.7011C45.2596 21.3016 45.2121 21.2304 43.6228 22.5587C42.6028 23.4127 41.7015 23.7922 40.4917 22.9146C40.0647 22.6062 39.4954 22.4401 38.9499 22.3215C38.1908 22.1318 37.8587 21.6811 37.7638 20.922C37.3606 18.0044 37.3369 18.0044 34.4192 18.0755C34.1109 18.0755 33.7788 18.123 33.4704 18.0993C32.7351 18.0755 32.3318 18.4076 32.3793 19.143C32.4504 21.2541 31.549 22.5587 29.4142 22.9146C29.3667 22.9146 29.343 22.9383 29.2956 22.962C28.2281 23.7922 27.303 23.555 26.4017 22.6536C25.9272 22.1555 25.3342 21.8234 24.7887 21.4202Z" fill="#4949FC"/>
<path d="M69.8809 58.7563C69.8809 65.066 64.8996 70.0236 58.5662 69.9999C52.3988 69.9762 47.37 64.9474 47.3226 58.7089C47.2751 52.6127 52.5886 47.3467 58.7322 47.3941C64.9233 47.4653 69.9046 52.5415 69.8809 58.7563ZM58.6848 49.3629C53.4425 49.3629 49.2202 53.5378 49.2202 58.7326C49.2202 63.9274 53.3951 68.1497 58.6136 68.1971C63.7373 68.2446 68.0781 63.9511 68.0781 58.78C68.1019 53.5852 63.9033 49.3629 58.6848 49.3629Z" fill="#4949FC"/>
<path d="M11.1725 22.5824C4.8391 22.5586 -0.0236342 17.601 8.64105e-05 11.1965C0.023807 5.05282 5.02886 0.0477637 11.1962 0.000322394C17.3162 -0.0471189 22.5347 5.1477 22.5821 11.3388C22.6059 17.4587 17.3873 22.6061 11.1725 22.5824ZM11.1962 1.92169C6.00141 1.92169 1.77913 6.16769 1.80285 11.3625C1.80285 16.5099 6.14373 20.8033 11.2674 20.7796C16.4385 20.7559 20.6608 16.4624 20.6608 11.2913C20.6608 6.12024 16.4148 1.92169 11.1962 1.92169Z" fill="#4949FC"/>
<path d="M13.5207 57.8786C15.4896 60.1558 17.8142 61.8163 20.3997 63.0972C28.4173 67.106 36.6958 67.7227 45.2115 64.9C45.5436 64.7814 45.8994 64.6865 46.2078 64.5441C46.9668 64.1883 47.2752 64.6627 47.5598 65.232C47.9157 65.9911 47.3226 66.1097 46.8482 66.2757C39.0679 69.1697 31.2638 69.2646 23.436 66.4655C19.4509 65.0423 15.8928 62.8837 12.738 60.0609C12.5008 59.8475 12.2873 59.4679 11.9789 59.5865C11.5757 59.7526 11.7654 60.2033 11.7417 60.5354C11.718 61.3181 11.718 62.1246 11.718 62.9074C11.718 63.5004 11.4096 63.7614 10.8403 63.7614C10.271 63.7614 9.93893 63.5479 9.93893 62.9311C9.91521 60.986 9.84404 59.0647 9.82032 57.1433C9.7966 56.3368 10.1999 55.9098 11.0538 55.9336C12.8803 55.9573 14.6831 55.9573 16.5095 55.9573C17.1974 55.9573 17.6481 56.1233 17.6481 56.9535C17.6481 57.7838 17.1263 57.9024 16.4621 57.9024C15.4896 57.8786 14.517 57.8786 13.5207 57.8786Z" fill="#4949FC"/>
<path d="M58.1389 10.5324C58.1389 9.48868 58.1389 8.44497 58.1389 7.37754C58.1389 6.73708 58.3287 6.33383 59.064 6.31011C59.7994 6.31011 60.0366 6.66592 60.0366 7.3301C60.0366 9.22775 60.0366 11.1254 60.0366 13.0231C60.0366 13.6872 59.7519 14.043 59.0403 14.0193C57.0952 13.9956 55.1739 13.9956 53.2288 14.0193C52.6357 14.0193 52.2325 13.8533 52.2325 13.1654C52.2088 12.4063 52.6357 12.2165 53.2762 12.2403C54.2962 12.264 55.3162 12.2403 56.4785 12.2403C56.2413 11.5286 55.7431 11.2203 55.3162 10.8645C49.9553 6.38127 43.8117 3.93805 36.8141 3.51107C32.3783 3.25015 28.0849 3.91433 23.9101 5.385C23.4831 5.52733 23.0561 5.85942 22.6054 5.36128C21.9175 4.60222 22.0361 4.10409 23.1747 3.67712C31.3583 0.712039 39.4945 0.783201 47.5832 4.00921C51.1413 5.43245 54.3199 7.47242 57.1901 9.98681C57.451 10.224 57.6171 10.5324 58.1389 10.5324Z" fill="#4949FC"/>
<path d="M68.4343 34.5376C68.4106 38.9971 67.6989 42.911 66.2994 46.6826C66.1334 47.1333 66.1808 48.0347 65.2083 47.7026C64.378 47.3942 64.2594 46.8486 64.5678 46.0184C67.4854 37.7399 67.1534 29.6037 63.5715 21.5862C63.2395 20.8746 62.8599 20.1629 62.4804 19.4988C62.1009 18.8583 62.3381 18.5025 62.9074 18.1704C63.5241 17.7909 63.8087 18.0755 64.1171 18.5974C66.3231 22.535 67.7227 26.7336 68.1971 31.2405C68.3394 32.4502 68.5292 33.7074 68.4343 34.5376Z" fill="#4949FC"/>
<path d="M4.33983 22.3215C5.28866 22.3453 5.69191 23.0569 5.3361 24.0057C3.1538 30.007 2.79799 36.1032 4.17379 42.318C4.79052 45.1171 5.85795 47.7501 7.21003 50.2644C7.54212 50.8812 7.89793 51.4268 6.99654 51.9249C6.09516 52.423 5.90539 51.7351 5.59702 51.1895C0.829177 42.1994 0.164999 32.9247 3.60449 23.3415C3.77054 22.9383 3.81798 22.3927 4.33983 22.3215Z" fill="#4949FC"/>
<path d="M44.7375 35.0357C44.7612 40.4914 40.4203 44.856 35.012 44.856C29.4851 44.8797 25.1205 40.5626 25.0968 35.0831C25.0731 29.6511 29.4851 25.1679 34.9171 25.1205C40.278 25.0967 44.7375 29.5799 44.7375 35.0357ZM34.9883 27.0655C30.5288 27.0418 26.947 30.5762 26.9233 34.9882C26.9233 39.3766 30.4814 43.0058 34.8697 43.077C39.1631 43.1481 42.9347 39.424 42.9347 35.1068C42.9584 30.6474 39.4003 27.0655 34.9883 27.0655Z" fill="#4949FC"/>
<path d="M58.5666 66.9873C58.2583 66.9873 57.7839 67.0111 57.7839 66.6315C57.7839 65.5641 56.9536 65.4455 56.2657 65.1134C55.4592 64.7339 54.8188 64.1409 54.3918 63.3581C54.1546 62.9311 53.7276 62.3618 54.3681 62.006C54.9137 61.6976 55.5304 61.7214 56.0048 62.4093C56.8825 63.7139 58.5192 64.1409 59.9899 63.5478C60.8438 63.192 61.5554 62.6702 61.4368 61.6265C61.3182 60.6065 60.6303 60.0372 59.6341 59.8474C58.8987 59.7051 58.1397 59.7051 57.4043 59.5628C55.6253 59.2307 54.3918 57.8786 54.1783 56.0758C54.0123 54.6052 54.8899 53.1819 56.5267 52.4466C57.1197 52.1857 57.689 52.0196 57.7601 51.2131C57.8076 50.715 58.3294 50.7387 58.709 50.7387C59.0885 50.7387 59.4918 50.8099 59.5392 51.2606C59.6104 51.9959 60.1085 52.2094 60.7015 52.4229C61.4843 52.7312 62.1722 53.2294 62.5517 54.0122C62.7652 54.4391 63.2396 54.9847 62.6703 55.3642C62.1485 55.72 61.4843 55.7438 61.0099 55.0559C60.2745 53.9647 59.1834 53.7512 57.9736 53.941C56.8113 54.107 56.0523 54.9135 56.076 55.8624C56.0997 56.8586 56.8588 57.6177 57.9974 57.7837C58.7327 57.9023 59.4918 57.9023 60.2271 58.0684C61.9587 58.4954 63.2396 59.8949 63.3819 61.5079C63.5243 62.9548 62.528 64.4492 60.8913 65.1846C60.2508 65.4692 59.5629 65.6115 59.5155 66.5604C59.5155 67.0822 58.9462 66.9399 58.5666 66.9873Z" fill="#4949FC"/>
<path d="M15.9869 14.5649C15.8208 16.1779 14.7771 17.2216 13.2353 17.8384C12.666 18.0756 12.1441 18.2416 12.1441 19.0244C12.1204 19.5225 11.6934 19.6174 11.2665 19.6174C10.7921 19.6174 10.3414 19.5225 10.3177 18.9769C10.2939 18.289 9.84324 18.0756 9.29766 17.8621C8.3014 17.5063 7.4949 16.8658 6.99676 15.917C6.75956 15.49 6.38003 14.9207 7.02048 14.5649C7.54234 14.2803 8.15907 14.2328 8.56232 14.9207C9.36883 16.2965 10.6972 16.4388 12.073 16.2491C13.2827 16.083 14.113 15.2054 14.0418 14.2565C13.9943 13.2603 13.1641 12.5249 11.9544 12.3589C11.2428 12.264 10.5311 12.2403 9.84324 12.098C8.08791 11.6947 6.99676 10.3664 6.807 8.58731C6.66467 7.14035 7.51862 5.81199 9.08418 5.05293C9.65347 4.79201 10.2702 4.62596 10.3414 3.81946C10.3888 3.32133 10.8632 3.29761 11.2665 3.29761C11.6934 3.29761 12.1204 3.36877 12.1679 3.8669C12.239 4.5548 12.7134 4.74457 13.2353 4.95805C14.0655 5.29014 14.7771 5.78827 15.1804 6.59478C15.3939 7.02175 15.8683 7.59104 15.2278 7.94685C14.706 8.2315 14.0655 8.37382 13.5911 7.61476C12.8795 6.42873 11.6934 6.26269 10.46 6.52361C9.48743 6.7371 8.68093 7.25895 8.70465 8.44498C8.70465 9.41753 9.48743 10.2003 10.6497 10.3426C11.48 10.4375 12.3102 10.4375 13.093 10.6984C14.8009 11.244 16.058 12.857 15.9869 14.5649Z" fill="#4949FC"/>
<path d="M34.9879 40.1355C32.1177 40.1593 29.8168 37.9532 29.7457 35.1305C29.6745 32.3552 32.094 29.8882 34.8931 29.8408C37.6209 29.7933 40.0641 32.1654 40.1353 34.917C40.1827 37.7872 37.8818 40.1355 34.9879 40.1355ZM38.2139 35.0356C38.2377 33.2328 36.8619 31.8333 35.0354 31.7859C33.1377 31.7622 31.6908 33.1142 31.6908 34.9882C31.6908 36.8384 33.114 38.3328 34.9405 38.3565C36.7195 38.3565 38.1902 36.8621 38.2139 35.0356Z" fill="#4949FC"/>
</svg>
