<svg width="68" height="80" viewBox="0 0 68 80" fill="none" xmlns="http://www.w3.org/2000/svg">
<path d="M42.4473 79.9994C41.8839 79.9994 41.3205 79.9994 40.7572 79.9994C39.9523 80.0155 39.4534 79.6453 39.1958 78.8726C38.7773 77.6493 38.3105 76.4582 37.892 75.2348C37.7471 74.8163 37.5379 74.5588 37.0872 74.4461C35.6224 74.0759 34.2542 73.4803 32.9504 72.7238C32.4353 72.418 31.9846 72.434 31.4534 72.6916C30.3266 73.255 29.1677 73.7379 28.0249 74.269C27.4132 74.5588 26.8981 74.4622 26.4152 73.9954C25.5299 73.1423 24.6446 72.2892 23.7432 71.4522C23.1798 70.921 23.0671 70.3415 23.4052 69.6333C23.9524 68.4743 24.4514 67.2832 25.0148 66.1242C25.2241 65.7057 25.2402 65.3355 24.9987 64.917C24.2261 63.5488 23.6627 62.1162 23.2442 60.6031C23.1315 60.2007 22.9062 59.9754 22.5038 59.8466C21.2965 59.4281 20.0893 58.9613 18.8821 58.5428C18.0611 58.2691 17.6748 57.7219 17.6909 56.8527C17.707 55.7742 17.707 54.7118 17.6909 53.6334C17.6748 52.7642 18.0611 52.233 18.8821 51.9432C20.0571 51.5086 21.216 51.0257 22.4072 50.5911C22.874 50.4141 23.1476 50.1404 23.2764 49.6575C23.6788 48.2089 24.2422 46.8085 24.9987 45.5046C25.2563 45.0539 25.2402 44.6676 25.0309 44.2169C24.4836 43.0741 24.0168 41.9151 23.4535 40.7884C23.0832 40.0479 23.2281 39.4524 23.7754 38.9051C24.6124 38.0681 25.4494 37.2472 26.2703 36.394C26.8498 35.7985 27.4615 35.6697 28.218 36.056C29.3448 36.6194 30.5037 37.1023 31.6466 37.6335C32.0651 37.8427 32.4192 37.8588 32.8538 37.6174C34.1737 36.8447 35.5902 36.2814 37.0711 35.879C37.5379 35.7502 37.7793 35.4926 37.9403 35.0419C38.3588 33.8186 38.8095 32.6275 39.2441 31.4041C39.5016 30.6476 40.0167 30.2935 40.8216 30.2935C41.9483 30.3096 43.0751 30.3096 44.2018 30.2935C45.0066 30.2774 45.5056 30.6476 45.7793 31.388C46.23 32.5953 46.729 33.7864 47.1636 34.9936C47.3406 35.4604 47.5821 35.7502 48.0811 35.879C49.5136 36.2814 50.8336 36.9252 52.1213 37.6335C52.6364 37.9232 53.0871 37.9554 53.6183 37.6818C54.6967 37.1506 55.8074 36.6838 56.8858 36.1526C57.6424 35.7824 58.2701 35.895 58.8496 36.4906C59.6705 37.3437 60.5075 38.1646 61.3446 39.0017C61.9079 39.565 62.0206 40.1606 61.6665 40.9011C61.1031 42.06 60.6041 43.2511 60.0568 44.4101C59.8798 44.7803 59.8476 45.1022 60.0729 45.4725C60.8617 46.8246 61.425 48.2732 61.8275 49.7702C61.9562 50.2692 62.246 50.5106 62.7289 50.6716C63.8878 51.0579 65.0467 51.5247 66.2057 51.911C66.8496 52.1364 67.1554 52.5066 67.1393 53.2149C67.1071 54.4543 67.1071 55.6776 67.1393 56.917C67.1554 57.7219 66.8013 58.2209 66.0447 58.4945C64.8536 58.913 63.6786 59.3637 62.4874 59.7661C61.9723 59.9432 61.6987 60.2329 61.5538 60.748C61.1514 62.2289 60.5397 63.6293 59.8154 64.9814C59.6061 65.3677 59.6383 65.6735 59.8154 66.0438C60.3466 67.1866 60.8456 68.3455 61.4089 69.4723C61.7953 70.261 61.6987 70.8888 61.0548 71.4844C60.2339 72.257 59.4452 73.0618 58.6725 73.8666C58.1414 74.4139 57.5619 74.5266 56.8697 74.1725C55.743 73.6252 54.584 73.1423 53.4412 72.595C52.9905 72.3858 52.6042 72.3697 52.1696 72.6272C50.8658 73.3837 49.4815 73.9471 48.0167 74.3173C47.5177 74.4461 47.244 74.7036 47.0831 75.1865C46.6807 76.3777 46.2139 77.5527 45.8115 78.7439C45.5378 79.5809 44.9744 79.9511 44.1213 79.9189C43.5097 79.9994 42.9785 79.9994 42.4473 79.9994ZM32.2421 69.6333C32.6123 69.6172 32.9182 69.762 33.224 69.9391C34.9302 71.0337 36.7974 71.7741 38.7612 72.2409C39.4212 72.4019 39.8397 72.7882 40.0489 73.432C40.403 74.5266 40.8216 75.6051 41.1435 76.7157C41.3205 77.3113 41.6908 77.4562 42.2219 77.3918C42.7853 77.3274 43.4775 77.6332 43.7511 76.764C44.0891 75.6694 44.5237 74.591 44.894 73.4964C45.0871 72.9008 45.4895 72.5467 46.069 72.4019C48.065 71.9029 49.9161 71.0819 51.6867 70.0679C52.3305 69.6977 52.9583 69.6977 53.6022 70.0196C54.3748 70.3898 55.1313 70.7922 55.9039 71.1463C57.5297 71.8868 57.0468 71.9351 58.3184 70.7439C58.6725 70.422 58.7369 70.1162 58.5116 69.6816C57.9965 68.6836 57.5458 67.6534 57.0307 66.6554C56.6605 65.9311 56.6766 65.2872 57.1112 64.6112C58.1896 62.9532 58.8818 61.1182 59.3486 59.2188C59.5096 58.5106 59.8959 58.0921 60.5558 57.8506C61.747 57.4321 62.9059 56.9492 64.0971 56.5468C64.9985 56.241 64.6282 55.5006 64.7087 54.9211C64.7731 54.4221 64.6282 54.068 64.081 53.8748C62.9703 53.5046 61.8757 53.0539 60.7651 52.6676C60.1051 52.4422 59.6866 52.0237 59.5096 51.3316C59.0267 49.3356 58.254 47.4523 57.1595 45.73C56.7893 45.1505 56.8054 44.571 57.0951 43.9755C57.4975 43.1868 57.8838 42.3819 58.2701 41.5932C58.9462 40.2089 58.9301 40.2411 57.8516 39.1465C57.4814 38.7602 57.1756 38.7602 56.7249 38.9856C55.7269 39.5007 54.6967 39.9675 53.6987 40.4825C53.0388 40.8206 52.4271 40.8045 51.7993 40.4021C50.1253 39.3075 48.2903 38.5671 46.3426 38.1164C45.6022 37.9393 45.1837 37.5369 44.9422 36.8447C44.5559 35.7341 44.0891 34.6395 43.735 33.5128C43.5258 32.8367 43.0751 32.8528 42.5439 32.8689C42.0127 32.885 41.4976 32.7723 41.2723 33.5128C40.9503 34.559 40.4835 35.557 40.1455 36.6194C39.8719 37.5208 39.3085 37.9715 38.4071 38.1968C36.5721 38.6475 34.8337 39.3236 33.2562 40.386C32.6123 40.8206 31.9846 40.8528 31.2924 40.4986C30.3105 39.9996 29.3126 39.5489 28.3468 39.0339C27.8478 38.7602 27.4615 38.7602 27.1074 39.2431C26.9625 39.4363 26.7854 39.6133 26.5923 39.7582C26.1416 40.0962 26.1577 40.4664 26.4152 40.9493C26.9464 41.9473 27.4132 42.9775 27.9122 43.9755C28.2341 44.6032 28.2341 45.1988 27.8317 45.7944C26.6888 47.5167 25.9806 49.4161 25.4977 51.4121C25.3528 52.0237 25.0309 52.3939 24.4514 52.6193C23.373 53.0217 22.3106 53.4724 21.216 53.8104C20.4917 54.0358 20.2824 54.406 20.2824 55.1464C20.2824 55.903 20.4112 56.3859 21.2321 56.6273C22.2301 56.917 23.1798 57.3838 24.1778 57.7058C24.9504 57.9633 25.385 58.4462 25.5621 59.2188C26.0128 61.086 26.7693 62.8245 27.7512 64.4663C28.1858 65.1906 28.2341 65.8506 27.8478 66.591C27.381 67.4924 26.9947 68.4421 26.4796 69.3274C26.1255 69.9552 26.1899 70.3576 26.721 70.8405C27.6546 71.6775 27.6224 71.7097 28.7653 71.1624C29.6023 70.76 30.4554 70.3576 31.2924 69.9391C31.6144 69.7459 31.9041 69.6172 32.2421 69.6333Z" fill="#4949FC"/>
<path d="M32.1783 31.694C31.8564 31.694 31.5345 31.7101 31.2125 31.694C30.5043 31.6618 29.9087 31.3398 29.78 30.6316C29.4419 28.9093 28.4922 27.9113 26.786 27.4445C26.1421 27.2674 25.6271 27.1387 24.9832 27.4284C22.3273 28.6678 22.7619 28.6678 20.7176 26.6397C19.607 25.5451 19.5265 25.352 20.2669 23.9999C20.8947 22.857 20.9269 21.8912 20.3796 20.6357C19.8967 19.5089 19.3011 18.8812 18.1583 18.5431C16.5808 18.0763 16.4038 17.7222 16.4199 16.0321C16.4199 15.7102 16.4199 15.3882 16.4199 15.0663C16.436 14.02 16.6774 13.5854 17.7076 13.3118C19.108 12.9255 20.0255 12.2655 20.5245 10.7525C20.8464 9.73837 20.9591 8.94965 20.4279 8.06434C20.2508 7.75851 20.1382 7.43658 19.9933 7.11465C19.7036 6.50298 19.8162 5.9718 20.283 5.505C20.8303 4.95772 21.3776 4.41044 21.9249 3.86316C22.3917 3.39636 22.955 3.23539 23.5345 3.60561C25.0315 4.55531 26.4802 4.63579 28.0737 3.73439C28.6854 3.38026 29.0717 3.09053 29.2971 2.43057C30.1019 -0.0160938 30.118 2.71484e-06 32.6773 2.71484e-06C34.2226 2.71484e-06 34.5928 0.257546 35.0918 1.70623C35.124 1.78671 35.1401 1.8511 35.1562 1.93158C35.3493 2.96175 35.9771 3.42855 36.9429 3.91145C38.3755 4.6036 39.5344 4.47482 40.8221 3.73439C41.7718 3.18711 42.2225 3.31588 42.9469 4.1368C45.0233 6.48688 45.1199 5.84303 43.7839 8.72429C43.5263 9.28767 43.4942 9.77057 43.8161 10.3017C43.961 10.5271 44.0897 10.7846 44.138 11.0422C44.3473 12.3299 45.2004 12.845 46.3754 13.183C47.969 13.6498 48.0817 13.9235 48.0817 15.6297C48.0817 17.9959 48.0977 18.0442 45.8603 18.7524C45.0072 19.026 44.6531 19.525 44.2507 20.2977C43.5263 21.7302 43.5424 22.9536 44.3473 24.3379C44.9267 25.3198 44.7658 25.6578 43.9771 26.4626C41.5787 28.8771 42.1421 28.6517 39.3252 27.3962C38.8101 27.1709 38.3755 27.1387 37.8926 27.4284C37.5707 27.6216 37.2165 27.8147 36.8624 27.8791C35.8 28.0562 35.3493 28.7483 35.0435 29.7141C34.3835 31.7101 34.3192 31.694 32.1783 31.694ZM25.9329 24.1608C26.3353 24.1769 26.6572 24.2896 26.9631 24.4827C27.9128 25.1105 28.9268 25.5773 30.0375 25.8027C30.6653 25.9314 31.0355 26.2695 31.2447 26.8489C31.4862 27.5089 31.7437 28.1527 32.0013 28.7966C32.0657 28.9737 32.13 29.1668 32.3554 29.1829C32.629 29.2151 32.7256 29.0059 32.8061 28.8127C32.9671 28.3942 33.1441 27.9596 33.2729 27.525C33.5143 26.6719 34.0455 26.189 34.9308 25.9636C35.9127 25.7061 36.8463 25.2876 37.7155 24.7564C38.3111 24.3862 38.9067 24.3379 39.5344 24.6437C39.9851 24.8691 40.468 25.0622 40.9348 25.2554C41.1602 25.352 41.3855 25.4485 41.6109 25.2393C41.8201 25.03 41.7074 24.7886 41.6109 24.5632C41.4499 24.193 41.305 23.8228 41.1119 23.4687C40.6773 22.6638 40.7256 21.9073 41.2246 21.1186C41.7879 20.2333 42.2225 19.2836 42.4157 18.2373C42.5284 17.6256 42.9147 17.2554 43.4942 17.0462C44.0575 16.853 44.6048 16.6438 45.1521 16.4345C45.3613 16.354 45.5384 16.2414 45.5545 15.9838C45.5706 15.678 45.3613 15.5653 45.1199 15.4848C44.7175 15.3399 44.3312 15.1468 43.9127 15.0341C43.0113 14.8088 42.5284 14.2293 42.2869 13.344C42.0133 12.3299 41.6431 11.3641 41.0475 10.4788C40.7095 9.96372 40.6773 9.43254 40.9187 8.86916C41.1441 8.35408 41.3694 7.83899 41.5948 7.3239C41.6913 7.08245 41.7557 6.8571 41.5465 6.66394C41.3533 6.47079 41.1441 6.56737 40.9509 6.64785C40.4036 6.8732 39.8724 7.13074 39.3252 7.35609C38.794 7.56535 38.2789 7.56535 37.796 7.22732C36.798 6.51908 35.6874 6.08447 34.4962 5.82693C33.965 5.71425 33.6592 5.39232 33.466 4.90943C33.3212 4.55531 33.2407 4.18509 33.0636 3.86316C32.8544 3.47684 32.9671 2.7525 32.3232 2.78469C31.7276 2.81689 31.7437 3.50904 31.6311 3.92754C31.3574 5.0543 30.7618 5.73035 29.5868 5.87522C29.2488 5.92351 28.8786 6.03618 28.6049 6.22934C27.0275 7.35609 25.4339 7.69412 23.7438 6.50298C23.5667 6.37421 23.3414 6.34202 23.1643 6.55127C22.9872 6.74443 23.0516 6.93758 23.1482 7.14684C23.3736 7.66193 23.5989 8.17701 23.8243 8.6921C24.0818 9.30377 24.0657 9.89934 23.6794 10.4466C23.0194 11.3802 22.617 12.4265 22.3917 13.5371C22.2629 14.1649 21.9088 14.519 21.3293 14.7283C20.7176 14.9536 20.1221 15.179 19.5265 15.4043C19.3172 15.4848 19.1563 15.5975 19.1724 15.8711C19.1885 16.0965 19.3333 16.2092 19.5104 16.2735C19.9611 16.4506 20.3957 16.6438 20.8625 16.7725C21.6673 16.9979 22.1341 17.513 22.3434 18.3017C22.5526 19.0743 22.778 19.8953 23.2287 20.5391C24.0335 21.682 24.0013 22.7604 23.2931 23.9033C23.2287 24.0159 23.1804 24.1447 23.1321 24.2735C23.0355 24.5632 22.7297 24.853 23.0838 25.1427C23.3736 25.3841 23.6311 25.0944 23.8886 24.9978C24.613 24.7242 25.2086 24.2413 25.9329 24.1608Z" fill="#4949FC"/>
<path d="M6.93758 30.0682C8.64381 30.0682 10.3661 30.0682 12.0724 30.0682C12.7162 30.0682 13.3118 30.1809 13.6176 30.8569C13.9878 31.6618 13.5693 32.531 12.7001 32.7241C12.3943 32.7885 12.0563 32.8046 11.7504 32.8046C8.54723 32.8046 5.32793 32.8046 2.12473 32.8046C1.88329 32.8046 1.64184 32.8046 1.40039 32.7724C0.482894 32.6598 0 32.193 0 31.4203C0 30.6316 0.531184 30.1004 1.48088 30.0682C3.02614 30.036 4.5875 30.0521 6.13276 30.0521C6.4064 30.0682 6.68004 30.0682 6.93758 30.0682Z" fill="#4949FC"/>
<path d="M6.8571 41.8186C8.51504 41.8186 10.173 41.8186 11.8309 41.8186C12.1528 41.8186 12.4748 41.8508 12.7806 41.9152C13.4567 42.0761 13.7464 42.559 13.7303 43.219C13.7142 43.8629 13.4084 44.2975 12.7806 44.4423C12.3943 44.5228 11.9919 44.555 11.5895 44.555C8.40236 44.5711 5.23136 44.555 2.04425 44.555C0.643859 44.555 0 44.1043 0 43.1707C0 42.221 0.627763 41.8186 2.04425 41.8186C3.6539 41.8186 5.24745 41.8186 6.8571 41.8186Z" fill="#4949FC"/>
<path d="M11.912 35.9918C13.6505 35.9918 15.3889 35.9918 17.1273 35.9918C18.1575 35.9918 18.7209 36.4586 18.7209 37.2795C18.7209 38.1165 18.0931 38.6638 17.0951 38.6638C13.5861 38.6799 10.0931 38.6799 6.58411 38.6638C5.57003 38.6638 5.00666 38.1648 4.99056 37.3439C4.97446 36.4908 5.55394 36.0079 6.6163 35.9918C8.37082 35.9757 10.1414 35.9918 11.912 35.9918Z" fill="#4949FC"/>
<path d="M42.6236 63.4844C37.8429 63.4522 34.189 59.8466 34.2051 55.1947C34.2373 50.7199 38.0522 46.9211 42.4787 46.9533C47.1789 47.0016 50.6879 50.5267 50.6718 55.1625C50.6396 59.9432 47.195 63.5005 42.6236 63.4844ZM42.5753 60.8124C45.6336 60.8124 47.9998 58.3174 48.0159 55.082C48.032 52.0076 45.7141 49.7541 42.5109 49.738C39.3238 49.7219 36.9898 52.0398 36.9737 55.243C36.9576 58.3818 39.4043 60.8124 42.5753 60.8124Z" fill="#4949FC"/>
<path d="M26.8155 15.6941C26.8316 12.6519 29.3748 10.0764 32.3205 10.1408C35.5237 10.2052 38.0026 12.7485 37.9704 15.9356C37.9382 18.9778 35.3949 21.4406 32.3044 21.4245C29.1978 21.3923 26.7994 18.8973 26.8155 15.6941ZM32.4171 18.6398C34.0106 18.6398 35.1857 17.4003 35.1696 15.7424C35.1535 14.1649 33.9945 12.9416 32.4815 12.9255C30.7913 12.8933 29.4553 14.1006 29.4392 15.6619C29.4392 17.4003 30.6787 18.6398 32.4171 18.6398Z" fill="#4949FC"/>
</svg>
