<svg width="66" height="80" viewBox="0 0 66 80" fill="none" xmlns="http://www.w3.org/2000/svg">
<path d="M65.9266 32.5687C64.7906 23.985 60.8774 16.8845 54.3134 11.2988C49.1695 6.94379 43.2366 4.41917 36.5464 3.7249C34.4004 3.50399 34.3689 3.56711 34.1795 1.38962C34.1164 0.663795 33.8955 0.0326404 33.0434 0.0010826C32.1283 -0.0304752 31.8758 0.632238 31.8127 1.42118C31.6549 3.56711 31.6234 3.56711 29.4459 3.7249C29.225 3.75646 28.9725 3.75646 28.7516 3.78801C13.6985 5.80771 2.08529 17.4525 0.0655916 32.4425C-0.0290817 33.1367 -0.123755 33.7994 0.570516 34.2412C1.23323 34.6515 1.76971 34.2412 2.27463 33.8626C7.89192 29.8863 15.4658 29.8547 21.0831 33.7994C21.9982 34.4622 22.7241 34.4937 23.6077 33.7994C25.438 32.3478 27.5524 31.5588 29.8561 31.1486C31.6549 30.833 31.7811 30.8961 31.7811 32.6634C31.7811 35.1564 31.7811 37.6179 31.8127 40.111C31.8127 40.8684 32.0336 41.5626 32.9803 41.5942C33.9271 41.5942 34.148 40.8999 34.1795 40.1425C34.2111 38.8171 34.1795 37.4601 34.1795 36.1347C34.1795 34.8408 34.2111 33.5154 34.1795 32.2216C34.1164 31.0855 34.6529 30.8646 35.6312 31.0224C38.1242 31.4326 40.4595 32.2216 42.4477 33.7994C43.2366 34.4306 43.9624 34.4937 44.7829 33.831C49.6113 29.8547 59.0155 29.8863 63.8123 33.831C64.2856 34.2097 64.7906 34.5568 65.4217 34.1781C66.0529 33.831 65.9897 33.2314 65.9266 32.5687ZM21.3671 28.3715C21.2408 30.8961 21.2724 30.8646 18.9371 29.9494C13.951 28.0244 8.96488 28.0875 4.01031 30.1703C3.66318 30.3281 3.31604 30.6752 2.93735 30.3912C2.68489 30.2019 2.87423 29.8863 2.93735 29.6023C5.46197 17.2632 17.2015 6.97535 30.0455 6.02861C27.3946 9.18439 25.3434 12.4664 23.9548 16.1587C22.4716 20.1034 21.588 24.1743 21.3671 28.3715ZM41.0276 30.3281C35.6627 27.9613 30.2979 27.9613 24.9331 30.3596C23.6077 30.9592 23.5446 30.9592 23.6077 29.5391C24.0495 21.3341 26.2901 13.7918 31.8443 7.51183C32.9803 6.24952 33.1066 6.24952 34.2426 7.54339C39.1657 13.1922 41.5956 19.8509 42.2268 27.2354C42.2899 27.9928 42.3845 28.7186 42.4792 29.476C42.4477 30.9592 42.4161 30.9592 41.0276 30.3281ZM63.0233 30.4543C62.7393 30.6752 62.4237 30.3912 62.1713 30.265C56.7433 27.9297 51.3154 27.9613 45.9506 30.4859C45.0038 30.9277 44.7829 30.6752 44.7198 29.76C44.562 27.0461 44.278 24.3637 43.6784 21.6813C42.4477 16.1587 40.2071 11.1725 36.5779 6.786C36.4201 6.59665 36.2939 6.40731 36.1361 6.21796C36.1046 6.1864 36.1361 6.15485 36.1046 5.90238C46.6448 7.32248 54.629 12.4664 59.9622 21.6497C61.3823 24.0797 62.3922 26.6989 62.9918 29.4445C63.0864 29.7916 63.3389 30.1703 63.0233 30.4543Z" fill="#4949FC"/>
<path d="M50.9677 66.1146C49.2636 63.4322 48.2853 60.308 45.7607 58.162C45.5398 57.9727 45.5398 57.6571 45.5713 57.3731C45.7291 56.1739 45.0664 55.5427 44.0565 55.164C43.5832 55.0062 43.1098 54.7853 42.6364 54.5644C41.3741 53.9648 40.2696 51.2193 40.7745 49.9254C41.9737 46.6434 42.3524 47.4639 39.67 44.5922C38.3761 43.2036 37.2401 42.825 35.4728 43.677C33.1376 44.75 30.8338 43.6455 29.7924 41.2471C29.6662 40.9315 29.5084 40.5844 29.3822 40.2688C29.0666 39.4798 28.4986 39.0696 27.6465 39.0696C26.5104 39.0696 25.3743 39.0696 24.2383 39.0696C23.3547 39.1011 22.7235 39.4798 22.471 40.3634C21.9661 42.2885 20.7985 43.4561 18.8734 43.961C18.2739 44.1188 17.8005 44.2451 17.2009 44.0241C13.6664 42.6987 14.7078 42.4147 11.7098 45.1918C10.3529 46.4541 10.0057 47.5586 10.8262 49.2943C11.8676 51.4718 10.8262 54.028 8.61718 54.8169C6.78683 55.4481 6.15567 56.4579 6.25035 58.3829C6.40813 62.233 5.96633 61.5703 9.27989 63.0535C10.5422 63.6215 11.6467 66.3986 11.1418 67.6925C9.87949 71.0376 9.53235 70.2171 12.2779 72.9942C12.3094 73.0257 12.341 73.0573 12.3726 73.0888C13.4771 74.6667 14.8341 74.8561 16.4751 73.9409C17.0431 73.6253 17.6743 73.2466 18.3685 73.4675C20.1358 74.0671 21.903 74.6352 22.3132 76.8442C22.3448 77.002 22.4395 77.1282 22.5026 77.286C22.8182 78.1696 23.4493 78.6115 24.3961 78.5483C24.8694 78.5168 25.3428 78.4852 25.8162 78.5483C28.183 78.9901 29.5715 78.0119 30.1396 75.7081C30.3605 74.7614 31.0547 74.288 32.033 74.2565C31.4334 78.3274 32.8851 80 37.0192 80C41.8475 80 46.7074 79.9684 51.5357 80C53.303 80 54.7231 79.4635 55.6382 77.9487C56.585 76.3708 56.1432 74.8561 55.2595 73.3729C53.7763 70.9745 52.4825 68.4814 50.9677 66.1146ZM31.6228 71.7634C29.6031 72.2052 28.2777 73.3413 27.7412 75.3926C27.4887 76.3393 26.6682 76.1499 25.7846 76.1815C24.7432 76.434 24.1436 75.7713 23.828 74.6983C23.4493 73.3413 22.6919 72.3946 21.2087 72.1737C21.0825 72.1421 20.9563 72.1106 20.8616 72.0474C19.0628 70.7851 17.2324 70.7851 15.3705 71.8581C14.55 72.3315 14.1713 71.6056 13.7295 71.1323C13.2562 70.6589 12.4357 70.2486 12.9406 69.365C14.0451 67.4716 13.6664 65.7674 12.8459 63.8109C12.1832 62.233 11.3627 61.2231 9.78481 60.7498C8.83808 60.4657 8.64874 59.8346 8.64874 58.951C8.64874 58.0042 8.61718 57.0891 9.78481 56.805C11.4889 56.3948 12.4988 55.3218 12.7828 53.5861C12.8144 53.4284 12.8775 53.2706 12.9721 53.1443C14.1398 51.6296 13.9189 50.0517 13.0668 48.5369C12.4672 47.4955 13.1931 46.9906 13.7927 46.3279C14.3607 45.7283 14.8972 45.3496 15.7177 45.8229C17.2324 46.7066 18.7788 46.959 20.3251 45.7914C20.4829 45.6652 20.6722 45.602 20.8616 45.5705C22.6288 45.2865 23.6071 44.1504 24.0489 42.5094C24.3329 41.4995 24.9957 41.3417 25.9108 41.3417C26.8576 41.3417 27.6465 41.468 27.9305 42.5094C28.3723 44.2451 29.4453 45.2865 31.2125 45.602C31.4019 45.6336 31.5912 45.6967 31.749 45.8229C33.1691 46.8959 34.5892 46.7381 36.0409 45.8861C36.9245 45.3811 37.5241 45.6336 38.1868 46.3594C38.8495 47.0852 39.4175 47.6848 38.7864 48.6947C37.9343 50.1464 37.8397 51.5665 38.8811 52.9865C38.9126 53.0497 38.9442 53.1443 38.9757 53.2075C39.3544 55.2272 40.5536 56.4579 42.5102 56.9944C42.7942 57.0575 43.2045 57.1522 43.2045 57.5309C43.2045 57.9411 42.7627 57.9096 42.4787 58.0042C41.4688 58.3829 40.8376 59.1719 40.3012 60.0555C38.5655 63.085 36.7983 66.1146 35.0626 69.1757C34.5577 70.0909 34.0843 70.9429 32.9167 71.1323C32.4433 71.2585 32.0646 71.6687 31.6228 71.7634ZM51.8197 77.6016C49.232 77.6332 46.6127 77.6016 44.025 77.6016C41.3741 77.6016 38.7548 77.6332 36.104 77.6016C34.179 77.57 33.5162 76.4655 34.463 74.8245C37.0192 70.3118 39.6069 65.799 42.2262 61.3178C43.2045 59.6452 44.593 59.6452 45.5713 61.3494C48.1906 65.8306 50.7783 70.3433 53.3661 74.8561C54.2813 76.3708 53.587 77.57 51.8197 77.6016Z" fill="#4949FC"/>
<path d="M26.0068 49.1365C20.5158 49.1365 16.2239 53.3968 16.1924 58.8247C16.1924 64.158 20.6736 68.6076 26.0068 68.5761C31.2139 68.5445 35.6004 64.1264 35.6004 58.8563C35.6635 53.4283 31.4032 49.1365 26.0068 49.1365ZM26.0068 66.2092C21.8097 66.2092 18.5908 63.0219 18.5908 58.8247C18.5908 54.6591 21.9043 51.3455 25.9753 51.3455C29.9831 51.3771 33.3598 54.7222 33.3914 58.73C33.4545 62.8325 30.1094 66.2092 26.0068 66.2092Z" fill="#4949FC"/>
<path d="M45.067 65.4519C45.067 64.6945 44.7829 64.1264 43.9309 64.0949C43.0473 64.0633 42.7632 64.6945 42.7317 65.3888C42.7001 67.44 42.7001 69.4597 42.7317 71.511C42.7317 72.2683 43.0157 72.9311 43.9624 72.8679C44.8145 72.8048 45.0354 72.1737 45.0354 71.4478C45.0354 70.4695 45.0354 69.4913 45.0354 68.513C45.067 67.5031 45.067 66.4617 45.067 65.4519Z" fill="#4949FC"/>
</svg>
