<svg width="40" height="40" viewBox="0 0 40 40" fill="none" xmlns="http://www.w3.org/2000/svg">
<path d="M34.662 12.3702C34.2113 11.9195 33.7606 11.4688 33.3098 11.0181C32.5372 10.3099 31.829 10.3099 31.0563 11.0181C29.9618 12.1127 28.8028 13.2716 27.7082 14.3662C27.5795 14.495 27.4507 14.5594 27.1931 14.7525C27.1931 14.3662 27.1931 14.173 27.1931 13.9155C27.1931 11.2113 27.1931 8.50704 27.1931 5.80282C27.1931 4.4507 26.7424 4 25.3259 4C20.3682 4 15.4748 4 10.5171 4C9.80884 4 9.10059 4 8.39234 4C7.36216 4 6.84707 4.51509 6.84707 5.54527C6.84707 5.80282 6.84707 6.06036 6.84707 6.31791C6.58953 6.38229 6.46075 6.38229 6.33198 6.38229C4.78671 6.44668 4.40039 6.833 4.40039 8.37827C4.40039 16.9416 4.40039 25.505 4.40039 34.0684C4.40039 35.6137 4.85109 36 6.39637 36C8.71427 36 10.9678 36 13.2857 36C16.505 36 19.7887 36 23.008 36C24.2958 36 24.7465 35.4849 24.8109 34.1972C24.8109 34.004 24.8109 33.8109 24.8109 33.6177C25.004 33.6177 25.0684 33.6177 25.1328 33.6177C26.8712 33.7465 27.1931 32.8451 27.1931 31.5573C27.1288 28.66 27.1931 25.827 27.1931 22.9296C27.1931 22.4145 27.3863 22.0282 27.7082 21.6418C30.0261 19.3883 32.3441 17.0704 34.5976 14.7525C35.4346 13.9155 35.4346 13.1429 34.662 12.3702ZM22.5573 35.0986C17.1489 35.0986 11.7404 35.0986 6.33198 35.0986C5.36619 35.0986 5.3018 35.0342 5.3018 34.0684C5.3018 25.5694 5.3018 17.1348 5.3018 8.63581C5.3018 7.34809 5.36619 7.2837 6.78268 7.41247C6.78268 7.67002 6.78268 7.92757 6.78268 8.12072C6.78268 15.9759 6.78268 23.7666 6.78268 31.6217C6.78268 33.167 7.169 33.5533 8.71427 33.5533C13.4145 33.5533 18.1791 33.5533 22.8793 33.5533C23.1368 33.5533 23.3944 33.5533 23.6519 33.5533C23.6519 33.6821 23.7163 33.7465 23.7163 33.8109C23.8451 35.0342 23.8451 35.0986 22.5573 35.0986ZM25.2616 32.6519C19.7243 32.6519 14.2515 32.6519 8.71427 32.6519C7.81287 32.6519 7.74848 32.5875 7.74848 31.6861C7.74848 23.1227 7.74848 14.5594 7.74848 5.93159C7.74848 5.03018 7.81287 4.96579 8.71427 4.96579C14.2515 4.96579 19.7243 4.96579 25.2616 4.96579C26.163 4.96579 26.2274 5.03018 26.2274 5.93159C26.2274 8.95775 26.2274 11.9195 26.2274 14.9457C26.2274 15.5895 26.0986 16.1046 25.5835 16.4909C25.2616 16.7485 25.004 17.006 24.6821 17.2636C23.7163 18.2938 22.7505 19.3239 21.7203 20.2897C21.5915 20.4185 21.334 20.4185 21.1408 20.4185C19.6599 20.4185 18.1791 20.4185 16.6982 20.4185C16.3119 20.4185 15.8612 20.3541 15.8612 20.8692C15.8612 21.3843 16.3119 21.3199 16.6338 21.3199C17.9215 21.3199 19.2092 21.3199 20.5614 21.3199C19.8531 22.1569 19.338 22.994 18.1791 22.8008C17.664 22.7364 17.1489 22.8008 16.6338 22.8008C16.3119 22.8008 15.9255 22.8008 15.8612 23.2515C15.8612 23.7666 16.2475 23.7666 16.5694 23.7666C17.2777 23.7666 18.0503 23.7666 18.8229 23.7666C18.501 24.7324 18.2434 25.6982 17.9215 26.664C17.8571 26.7928 17.664 26.8571 17.4708 26.9215C17.0845 26.9859 16.6338 26.9215 16.2475 26.9859C16.0543 26.9859 15.7968 27.3078 15.7968 27.4366C15.8612 27.6298 16.0543 27.9517 16.2475 27.8873C17.1489 27.8873 18.1147 27.8873 18.9517 27.6942C20.0463 27.4366 21.1408 27.0503 22.2354 26.664C22.6217 26.5352 22.9437 26.3421 23.2656 26.0845C24.2314 25.1831 25.1328 24.2817 26.0986 23.2515C26.0986 23.5091 26.163 23.6378 26.163 23.831C26.163 26.4708 26.163 29.1107 26.163 31.7505C26.3561 32.5231 26.163 32.6519 25.2616 32.6519ZM21.5915 25.827C20.7545 26.0845 19.9819 26.3421 19.0161 26.5996C19.338 25.6338 19.5312 24.8612 19.8531 24.0241C20.4326 24.6036 20.9477 25.1831 21.5915 25.827ZM22.5573 25.1187C21.9135 24.4748 21.2052 23.7666 20.497 23.0583C23.3944 20.161 26.3561 17.2636 29.2535 14.3662C29.9618 15.0744 30.67 15.7827 31.3139 16.4266C28.4165 19.1952 25.5191 22.1569 22.5573 25.1187ZM33.9537 13.9799C33.3742 14.495 32.8591 15.0744 32.3441 15.5895C31.5714 14.8169 30.8632 14.1087 30.0261 13.2716C30.6056 12.7565 31.1851 12.1771 31.7646 11.662C32.0221 11.4044 32.3441 11.4044 32.6016 11.662C33.0523 12.1127 33.503 12.6278 34.0181 13.0785C34.34 13.4004 34.2756 13.6579 33.9537 13.9799Z" fill="#4949FC"/>
<path d="M13.6721 25.8914C12.4488 25.8914 11.1611 25.8914 9.93774 25.8914C9.42265 25.8914 9.22949 26.1489 9.22949 26.5996C9.22949 27.8873 9.22949 29.1751 9.22949 30.4628C9.22949 30.9779 9.42265 31.2354 9.93774 31.2354C11.2255 31.2354 12.4488 31.2354 13.7365 31.2354C14.2516 31.2354 14.4448 30.9779 14.4448 30.5272C14.4448 29.8833 14.4448 29.2394 14.4448 28.5956C14.4448 27.9517 14.4448 27.3079 14.4448 26.664C14.4448 26.1489 14.1872 25.8914 13.6721 25.8914ZM13.3502 30.2052C12.32 30.2052 11.2899 30.2052 10.1953 30.2052C10.1953 29.1107 10.1953 28.0805 10.1953 26.9215C11.2255 26.9215 12.2556 26.9215 13.3502 26.9215C13.3502 28.0161 13.3502 29.1107 13.3502 30.2052Z" fill="#4949FC"/>
<path d="M9.93804 24.7324C11.2258 24.7324 12.4491 24.7324 13.7368 24.7324C14.2519 24.7324 14.4451 24.5393 14.4451 24.0242C14.4451 22.7364 14.4451 21.4487 14.4451 20.0966C14.4451 19.6459 14.2519 19.3884 13.8012 19.3884C12.5135 19.3884 11.2258 19.3884 9.93804 19.3884C9.48734 19.3884 9.29418 19.5815 9.29418 20.0322C9.29418 20.6761 9.29418 21.3199 9.29418 22.0282C9.29418 22.6721 9.29418 23.3803 9.29418 24.0242C9.22979 24.5393 9.42295 24.7324 9.93804 24.7324ZM10.26 20.4185C11.2902 20.4185 12.3203 20.4185 13.4149 20.4185C13.4149 21.4487 13.4149 22.5433 13.4149 23.7022C12.3847 23.7022 11.3545 23.7022 10.26 23.7022C10.26 22.6077 10.26 21.5775 10.26 20.4185Z" fill="#4949FC"/>
<path d="M24.0386 13.9155C22.7508 13.9155 21.5275 13.9155 20.2398 13.9155C19.0164 13.9155 17.7931 13.9155 16.5054 13.9155C16.2478 13.9155 15.8615 14.1731 15.7971 14.3662C15.7327 14.8169 16.119 14.8813 16.5054 14.8813C19.0164 14.8813 21.4631 14.8813 23.9742 14.8813C24.2317 14.8813 24.618 14.6238 24.6824 14.4306C24.8112 13.9799 24.4249 13.9155 24.0386 13.9155Z" fill="#4949FC"/>
<path d="M16.5685 8.31385C19.0796 8.31385 21.5263 8.31385 24.0373 8.31385C24.4237 8.31385 24.81 8.24946 24.7456 7.79876C24.7456 7.34805 24.3593 7.34805 23.973 7.34805C22.7496 7.34805 21.5263 7.34805 20.3029 7.34805C19.0796 7.34805 17.7919 7.34805 16.5685 7.34805C16.1822 7.34805 15.7959 7.34805 15.7959 7.79876C15.8603 8.31385 16.2466 8.31385 16.5685 8.31385Z" fill="#4949FC"/>
<path d="M23.9741 16.2978C21.5274 16.2978 19.0807 16.2978 16.6984 16.2978C16.5696 16.2978 16.4409 16.2334 16.3121 16.2978C16.1189 16.4266 15.9258 16.5553 15.9258 16.6841C15.9258 16.8773 16.1189 17.0704 16.3121 17.1992C16.4409 17.2636 16.6984 17.2636 16.8916 17.2636C18.5656 17.2636 20.1753 17.2636 21.8493 17.2636C22.8151 17.2636 23.7809 17.1992 24.7467 17.1992C24.8755 16.4909 24.7467 16.2978 23.9741 16.2978Z" fill="#4949FC"/>
<path d="M23.9743 9.79475C22.751 9.79475 21.5277 9.79475 20.3043 9.79475C19.081 9.79475 17.8576 9.79475 16.6343 9.79475C16.248 9.79475 15.7973 9.73036 15.8617 10.2455C15.8617 10.7605 16.3124 10.6962 16.6987 10.6962C19.1454 10.6962 21.592 10.6962 23.9743 10.6962C24.2963 10.6962 24.747 10.6962 24.747 10.2455C24.747 9.73036 24.3606 9.79475 23.9743 9.79475Z" fill="#4949FC"/>
<path d="M13.2855 7.54124C13.028 7.79878 12.7704 7.99194 12.5773 8.24948C12.0622 8.76458 11.5471 9.34405 10.9032 10.0523C10.5813 9.6016 10.3881 9.21528 10.0662 8.95773C9.93744 8.82896 9.61551 8.95773 9.42235 8.89335C9.42235 9.15089 9.35796 9.34405 9.48673 9.6016C9.48673 9.79476 9.67989 9.92353 9.87305 10.1167C11.032 11.2756 10.9032 11.34 12.1266 10.1167C12.7704 9.47282 13.4143 8.82896 14.0582 8.24948C14.2513 7.92755 14.702 7.60562 14.2513 7.2193C13.865 6.83299 13.5431 7.28369 13.2855 7.54124Z" fill="#4949FC"/>
<path d="M10.5822 17.328C10.711 17.4567 11.1617 17.4567 11.2905 17.328C12.3206 16.3622 13.2864 15.3964 14.2522 14.3662C14.381 14.2374 14.2522 13.9799 14.3166 13.7223C14.0591 13.7223 13.8659 13.6579 13.6084 13.7223C13.4796 13.7223 13.4152 13.9155 13.2864 14.0443C12.5138 14.8169 11.8056 15.5895 10.9041 16.4909C10.5822 16.1046 10.3891 15.7827 10.0671 15.5895C9.87396 15.4608 9.61642 15.5251 9.35887 15.5251C9.35887 15.7827 9.29448 16.0402 9.42326 16.2334C9.74519 16.5553 10.1959 16.9416 10.5822 17.328Z" fill="#4949FC"/>
</svg>
