<svg width="40" height="40" viewBox="0 0 40 40" fill="none" xmlns="http://www.w3.org/2000/svg">
<path d="M36.2601 14.5009C36.2373 13.977 36.4879 13.2938 36.169 12.9636C35.8274 12.5992 35.1214 12.8269 34.5862 12.8383C31.933 12.9294 29.4733 12.3487 27.2528 10.8569C26.9909 10.6861 26.7859 10.7089 26.5354 10.8797C25.5675 11.5288 24.5312 12.0184 23.4153 12.3373C22.7548 12.5309 22.7548 12.5309 22.7434 11.859C22.732 11.6199 22.8004 11.3124 22.436 11.301C21.5819 11.2669 21.172 10.7886 21.0012 10.0143C20.9898 9.94595 20.9215 9.88901 20.8873 9.82069C20.6368 9.50184 20.5799 9.19439 20.9101 8.89832C20.9784 8.84138 21.0012 8.72751 21.0695 8.65919C21.377 8.29479 21.377 8.0215 20.9898 7.66849C20.2952 7.05358 19.6461 6.38173 19.0198 5.6985C18.7237 5.36827 18.4846 5.29994 18.1202 5.59601C17.9038 5.76682 17.6533 6.0515 17.3914 5.98318C16.8334 5.83514 16.2755 5.59601 15.763 5.32272C15.4784 5.17468 15.5353 4.77613 15.4784 4.49145C15.3987 4.11567 15.2392 4.00179 14.8293 4.01318C13.8614 4.04734 12.8935 4.05873 11.9369 4.00179C11.4359 3.97902 11.2765 4.1726 11.2081 4.60532C11.174 4.85584 11.1854 5.20884 10.9576 5.3341C10.4452 5.6074 9.8986 5.86931 9.34063 5.99457C9.04456 6.06289 8.74849 5.70988 8.46381 5.52769C8.21329 5.35688 8.04248 5.36827 7.82612 5.59601C7.33647 6.11983 6.81265 6.62087 6.30023 7.1219C5.30954 8.1126 5.30954 8.1126 6.04971 9.33103C5.93583 9.57017 5.76503 9.78652 5.70809 10.037C5.50312 10.7772 5.15011 11.2896 4.31884 11.301C4.03416 11.301 4 11.4946 4 11.7337C4.01139 12.8839 4.02277 14.034 4.03416 15.1841C4.01139 15.3207 4.0911 15.4118 4.21636 15.4118C5.13873 15.4346 5.57144 15.9698 5.74225 16.8011C5.75364 16.8352 5.76503 16.8808 5.7878 16.9036C6.07248 17.2566 6.02693 17.5982 5.73086 17.9056C5.28676 18.3953 5.33231 18.8166 5.8789 19.1924C5.97 19.2493 6.04971 19.3404 6.12942 19.4088C6.65323 19.9553 7.21121 20.4792 7.71225 21.0371C8.00832 21.3674 8.23606 21.356 8.57768 21.1282C8.81681 20.9688 9.05594 20.65 9.3634 20.7297C9.90999 20.8891 10.4452 21.0941 10.9348 21.3788C11.2309 21.5496 11.1854 21.9937 11.2537 22.3125C11.322 22.6769 11.4928 22.768 11.8344 22.7566C12.8593 22.7452 13.8841 22.7452 14.909 22.7566C15.1937 22.7566 15.3987 22.6997 15.41 22.3694C15.4442 21.6065 15.8541 21.1852 16.5943 21.0371C16.7537 21.003 16.9132 20.9119 17.0612 20.8322C17.4825 20.5816 17.6306 20.7638 17.6875 21.1852C17.8469 22.3011 18.143 23.3715 18.6326 24.385C18.9287 25.1707 19.35 25.8881 19.8397 26.56C20.0333 26.8219 20.0902 27.061 19.9877 27.3912C19.7372 28.2339 19.5322 29.0993 19.3045 29.9648C18.9856 31.0807 18.6782 32.1967 18.348 33.3809C19.0881 33.1987 19.7258 33.0963 20.3293 32.8913C20.819 32.7319 21.0353 32.8799 21.2631 33.2898C21.7641 34.178 22.2993 35.0435 22.8801 36C23.4153 34.4058 23.9049 32.9254 24.3946 31.4337C24.6109 30.7619 24.6109 30.7732 25.2486 31.0352C26.0457 31.354 26.7973 31.8437 27.7311 31.3995C28.1979 31.1832 28.8128 30.6822 29.1545 30.9099C29.5189 31.149 29.5644 31.8778 29.7466 32.3902C30.1338 33.5517 30.5209 34.7019 30.9537 35.9886C31.523 35.0321 32.0468 34.2122 32.5251 33.3468C32.787 32.8799 33.0489 32.6977 33.5955 32.8913C34.1762 33.0963 34.7912 33.1987 35.4972 33.3695C35.2011 32.3219 34.9278 31.3654 34.6545 30.4089C34.6431 30.1583 34.5748 29.9192 34.4495 29.7142C34.4495 29.7142 34.4495 29.7142 34.4609 29.7142C34.3812 29.3612 34.3471 28.9968 34.2104 28.678C33.7663 27.6076 33.6866 26.5941 34.5065 25.6604C34.5179 25.649 34.5293 25.6376 34.552 25.6262C35.6224 23.9637 36.169 22.1531 36.2487 20.1831C36.3057 18.5092 36.2943 16.8466 36.2601 15.1727C36.2487 14.9563 36.2715 14.7286 36.2601 14.5009ZM15.0456 20.4564C14.6926 20.5247 14.6699 20.8322 14.6585 21.0713C14.6129 21.6179 14.3396 21.7773 13.8386 21.709C13.6564 21.6862 13.4628 21.6976 13.2692 21.6976C12.3013 21.6976 12.2899 21.6976 12.0052 20.7752C11.9255 20.5247 11.7547 20.4678 11.5498 20.4222C10.9576 20.2742 10.3769 20.0806 9.86444 19.7504C9.46589 19.4885 9.11288 19.4429 8.74849 19.7732C8.40687 20.0806 8.14496 20.0123 7.84889 19.6707C7.50728 19.2835 7.12011 18.9533 6.75572 18.6003C6.78988 18.5661 6.82404 18.5319 6.84682 18.4978C6.83543 18.4978 6.81265 18.4978 6.80127 18.4978C6.77849 18.5092 6.74433 18.5206 6.72156 18.5433C6.61907 18.27 6.8582 18.0992 6.98346 17.9056C7.21121 17.5754 7.25676 17.3021 7.00624 16.9377C6.69878 16.4822 6.45965 15.9812 6.36855 15.446C6.28884 14.9336 6.03832 14.6944 5.61699 14.6375C5.6056 14.6033 5.59422 14.5692 5.57144 14.535C5.50312 14.5578 5.44618 14.5919 5.37786 14.6261C5.09318 14.5692 4.9793 14.4098 4.99069 14.1137C5.01347 13.6468 5.01347 13.1685 4.99069 12.7017C4.96792 12.3259 5.09318 12.1323 5.48034 12.1095C5.98138 12.0754 6.24329 11.8248 6.36855 11.2896C6.47104 10.8342 6.68739 10.4014 6.88098 9.95733C6.91514 9.87762 6.9493 9.79791 6.98346 9.7182C7.33647 9.41074 7.18843 9.10329 6.96069 8.82999C6.60768 8.43144 6.66462 8.1126 7.08595 7.80514C7.25676 7.69127 7.38202 7.52046 7.53005 7.37242C8.19051 6.71196 8.19051 6.71196 9.03317 7.14468C9.22675 7.24716 9.37479 7.24716 9.55698 7.13329C10.1833 6.74612 10.8665 6.45006 11.5953 6.29063C11.9028 6.22231 11.9825 6.02873 12.0052 5.76682C12.0394 5.14052 12.3696 4.92416 12.9618 5.02665C13.1098 5.04942 13.2692 5.02665 13.4173 5.02665C14.3852 5.02665 14.3966 5.02665 14.6926 5.93763C14.761 6.15399 14.8748 6.24509 15.0798 6.29063C15.7858 6.45006 16.4577 6.71196 17.0612 7.11052C17.4597 7.37242 17.7217 7.09913 17.9722 6.91693C18.3024 6.6778 18.5301 6.68919 18.7807 7.00803C18.9401 7.213 19.1564 7.38381 19.3386 7.57739C19.9877 8.22647 19.9991 8.22647 19.5436 9.02358C19.3842 9.30826 19.5208 9.49046 19.6575 9.69543C19.6461 9.70681 19.6461 9.7182 19.6347 9.7182C19.6461 9.7182 19.6575 9.72959 19.6803 9.72959C19.9536 10.3673 20.2724 10.9936 20.4204 11.6768C20.5001 12.0981 20.8873 11.9843 21.1378 12.0981C21.3428 12.1892 21.673 12.0981 21.6616 12.4853C21.6389 12.8725 21.32 12.7814 21.1037 12.7928C20.6596 12.8269 20.1471 12.9408 19.76 12.7928C19.2931 12.6106 19.5322 11.9957 19.3386 11.5971C19.1564 11.2099 19.0995 10.7658 18.8034 10.4356C18.7807 10.4014 18.7579 10.3673 18.7351 10.3331C18.4049 9.85485 18.1088 9.35381 17.7217 8.93248C14.9659 5.88069 9.38618 6.82584 7.76918 10.6064C6.91514 12.2462 6.88098 13.9315 7.53005 15.651C8.1108 17.1427 9.11288 18.27 10.5591 18.9647C13.0073 20.1489 15.3189 19.7504 17.5508 18.0878C17.4711 18.6003 17.6761 19.0216 17.4597 19.386C17.437 19.4315 17.4028 19.4771 17.3573 19.5226C16.5943 19.887 15.8769 20.297 15.0456 20.4564ZM18.4504 12.2803C18.5301 12.622 18.5188 12.8952 18.0519 12.8269C17.6192 12.77 17.4939 12.9636 17.5167 13.3735C17.5508 14.0112 17.5395 14.6489 17.5508 15.2866C17.5395 15.3207 17.5281 15.3549 17.5281 15.4004C17.4597 15.8559 17.6647 16.3456 17.2889 16.7555C15.8541 18.2928 14.1233 18.9077 12.0508 18.4067C10.3313 17.9854 9.20398 16.8466 8.45242 15.2866C7.90583 13.7265 8.05387 12.212 8.79404 10.7431C8.87375 10.6406 8.95346 10.5267 9.03317 10.4242C10.3541 8.6478 12.0963 7.90763 14.2827 8.24924C15.5581 8.44283 16.5488 9.14884 17.4028 10.0826C17.5281 10.2648 17.6533 10.447 17.79 10.6292C17.8014 10.652 17.8128 10.6633 17.8241 10.6861C17.8355 10.7089 17.8583 10.7431 17.8697 10.7658C18.1202 11.2441 18.3252 11.7451 18.4504 12.2803ZM23.5975 30.5113C23.2786 31.4565 22.9598 32.4016 22.6296 33.4037C22.2652 33.0507 22.0488 32.6521 21.878 32.2536C21.5933 31.6273 21.2175 31.4679 20.6026 31.7412C20.3977 31.8323 20.1699 31.8437 19.8966 31.912C19.9649 31.5476 20.0333 31.2174 20.1016 30.8985C20.113 30.8643 20.1244 30.8302 20.1358 30.7846C20.1927 30.5911 20.2496 30.3975 20.3066 30.2039C20.3179 30.1356 20.3293 30.0786 20.3407 30.0103C20.409 29.9989 20.466 29.9761 20.5115 29.9534C20.5001 29.9192 20.4888 29.885 20.4774 29.8623C20.4546 29.8395 20.4318 29.8053 20.409 29.7826C20.5799 29.2132 20.7621 28.6324 20.9556 27.9948C21.7527 28.7008 22.4815 29.4637 23.3811 29.9875C23.3697 30.0672 23.3697 30.1356 23.3583 30.2039C23.4381 30.2039 23.5292 30.1811 23.6203 30.1128C23.6658 30.2608 23.643 30.3861 23.5975 30.5113ZM32.7756 31.6273C32.5023 31.5476 32.3657 31.6045 32.229 31.8437C31.9443 32.3561 31.6255 32.8457 31.2497 33.4606C30.8967 32.4586 30.5779 31.5476 30.2476 30.648C30.1793 30.4658 30.1907 30.295 30.2818 30.1583C30.316 30.1014 30.3729 30.0445 30.4526 29.9875C31.3864 29.4979 32.0924 28.7235 32.9009 28.0061C33.0945 28.6211 33.2653 29.2018 33.4475 29.7712C33.4702 29.8395 33.493 29.9078 33.5158 29.9875C33.6638 30.6024 33.8119 31.2174 33.9713 31.912C33.5272 31.8209 33.14 31.7526 32.7756 31.6273ZM34.8936 22.1417C34.5862 23.2918 34.1079 24.3508 33.5499 25.3757C33.5272 25.4212 33.493 25.4668 33.4702 25.5237C32.4112 27.1293 31.0675 28.4389 29.4505 29.4523C29.3594 29.4296 29.2683 29.4068 29.1659 29.3954C29.1431 29.4637 29.1431 29.532 29.1659 29.6231C29.1431 29.6231 29.1203 29.6231 29.1089 29.6345C27.7197 30.5683 26.3076 30.6935 24.8729 29.737C24.8956 29.6345 24.8842 29.5548 24.8615 29.4979C24.8387 29.4979 24.8159 29.4979 24.8045 29.4979C24.7134 29.5206 24.6337 29.532 24.5426 29.5434C23.0964 28.6552 21.8325 27.562 20.8304 26.1728C20.4432 25.6376 20.1358 25.0682 19.8169 24.4989C19.76 24.3964 19.703 24.2939 19.6347 24.18C18.6326 22.0051 18.5301 19.7048 18.5643 17.3704V17.3477C18.5643 16.653 18.5757 15.9698 18.5757 15.2752C18.5757 14.8311 18.5757 14.387 18.5871 13.9543C19.9422 13.8859 21.3086 13.9429 22.6523 13.6468C24.0302 13.3393 25.3397 12.8611 26.5582 12.1437C26.7631 12.0184 26.9339 11.9273 27.1845 12.0754C29.5758 13.5329 32.2063 14.0112 34.9734 13.9201C35.0645 13.9201 35.1669 13.9315 35.258 13.9429C35.258 14.3984 35.2694 14.8539 35.2694 15.3093C35.2808 16.2431 35.2808 17.1882 35.2922 18.122C35.2808 18.122 35.258 18.122 35.2353 18.1334C35.2466 18.1448 35.2694 18.1448 35.2922 18.1562C35.2239 19.4885 35.2466 20.8322 34.8936 22.1417Z" fill="#4949FC"/>
<path d="M33.8008 14.9336C31.4664 14.9108 29.2573 14.3756 27.2076 13.271C27.0026 13.1572 26.8432 13.1572 26.6269 13.271C24.5658 14.3756 22.3566 14.9222 20.0336 14.9336C19.7148 14.9336 19.6123 15.0475 19.6123 15.3663C19.6351 16.5961 19.6351 17.8259 19.6351 19.0558C19.5668 21.2991 20.1703 23.3488 21.4457 25.2049C22.6983 27.1749 24.4633 28.5072 26.6155 29.3612C26.8888 29.4751 27.1279 29.3954 27.3784 29.3043C29.7811 28.3364 31.6145 26.7308 32.8557 24.4419C33.9261 22.6314 34.3246 20.6728 34.1994 18.6003C34.2108 17.5185 34.2108 16.4367 34.2335 15.3663C34.2222 15.0475 34.1197 14.9336 33.8008 14.9336ZM32.9126 21.5154C32.6507 22.5403 32.218 23.474 31.717 24.3964C31.7056 24.4192 31.6828 24.4533 31.6714 24.4761C30.5896 26.0476 29.2232 27.3001 27.4695 28.1086C27.071 28.2908 26.7407 28.2908 26.3422 28.0973C24.8618 27.3912 23.6206 26.4006 22.6185 25.091C22.4933 24.9316 22.3566 24.7722 22.22 24.6128C22.2428 24.59 22.2655 24.5558 22.2769 24.5217C22.2655 24.5217 22.2428 24.5103 22.2314 24.5103C22.2086 24.5103 22.1858 24.5103 22.1744 24.5217C21.5823 23.4057 21.0357 22.267 20.8194 20.9916C20.7055 20.3311 20.6713 19.6593 20.6372 18.9874C20.6713 18.9647 20.7169 18.9305 20.751 18.8964C20.7624 18.885 20.7624 18.885 20.7624 18.8736C20.7283 18.8394 20.6827 18.8166 20.6258 18.7939C20.6372 17.9968 20.6485 17.211 20.6485 16.4139C20.6485 16.1065 20.6827 15.9357 21.0585 15.9129C23.0057 15.7762 24.8618 15.2866 26.6155 14.4325C26.8546 14.3187 27.0368 14.3528 27.2532 14.4553C28.9612 15.2752 30.7604 15.7649 32.6393 15.8901C33.1176 15.9243 33.1973 16.1179 33.1745 16.5164C33.1518 16.9719 33.1745 17.4274 33.1859 17.8715C33.1745 18.0537 33.1745 18.2245 33.1745 18.3953C33.1631 19.4771 33.1631 20.502 32.9126 21.5154Z" fill="#4949FC"/>
<path d="M16.1842 12.0526C15.6035 10.743 14.1459 10.0029 12.7111 10.2989C11.4016 10.5609 10.3198 11.7679 10.2742 12.9977C10.0692 14.1706 10.65 15.3891 11.709 16.0381C12.8022 16.6986 14.237 16.6303 15.2277 15.8673C16.2753 15.0702 16.6966 13.7834 16.3322 12.5308C16.2867 12.3828 16.2525 12.212 16.1842 12.0526ZM14.9999 14.6261C14.4761 15.298 13.5879 15.6054 12.768 15.3549C11.914 15.1044 11.3218 14.3642 11.2877 13.476C11.2763 13.2824 11.2877 13.1002 11.2991 12.9066C11.3218 12.9066 11.3446 12.8952 11.3788 12.8839C11.356 12.8725 11.3332 12.8611 11.3105 12.8611C11.3902 12.2006 12.3467 11.4263 12.9388 11.3238C13.8612 11.1758 14.738 11.5629 15.1821 12.3942C15.2618 12.5536 15.3302 12.713 15.3985 12.8725C15.3757 12.8725 15.3529 12.8839 15.3302 12.8952C15.3529 12.8952 15.3871 12.8952 15.4099 12.8952C15.444 13.5215 15.4099 14.1137 14.9999 14.6261Z" fill="#4949FC"/>
<path d="M30.2938 17.0402C30.1343 16.8808 30.0091 16.8352 29.8269 17.0174C28.5971 18.27 27.3445 19.5112 26.1146 20.7524C25.9438 20.9118 25.7958 20.9118 25.6364 20.7296C25.4656 20.5247 25.2492 20.3653 25.0784 20.1603C24.9304 20.0009 24.8051 19.9439 24.6229 20.1375C24.0194 20.7638 23.3931 21.3787 22.7782 21.9936C22.6187 22.1531 22.5504 22.2669 22.744 22.4605C23.7347 23.4284 24.714 24.4077 25.6819 25.3984C25.8413 25.5578 25.9438 25.5351 26.1032 25.387C27.4697 23.9978 28.8476 22.6085 30.214 21.2193C30.8517 20.593 31.4894 19.9781 32.1271 19.3632C32.3321 19.1696 32.2979 19.0216 32.1157 18.8394C31.4894 18.2472 30.8859 17.6437 30.2938 17.0402ZM30.4873 19.4998C30.2368 19.7162 30.0205 19.9781 29.7927 20.2172C29.7699 20.2172 29.7472 20.2058 29.7244 20.2058C29.7244 20.2286 29.7358 20.2514 29.7472 20.2742C28.5743 21.4357 27.4014 22.5744 26.2399 23.7473C25.9666 24.0206 25.8072 24.0661 25.5339 23.7587C25.1353 23.3032 24.6912 22.8932 24.2585 22.4719C23.8827 22.1075 24.3041 21.9822 24.4635 21.8114C24.6115 21.652 24.7368 21.299 25.0784 21.6292C25.3517 21.8911 25.5567 22.4036 25.9438 22.3125C26.2627 22.2442 26.5018 21.8228 26.7637 21.5609C27.1395 21.1851 27.5039 20.798 27.8683 20.4222H27.8797V20.4108C28.4832 19.8187 29.1209 19.2493 29.6902 18.623C30.0888 18.1789 30.2482 18.4977 30.5329 18.7255C30.8745 19.0443 30.7948 19.2379 30.4873 19.4998Z" fill="#4949FC"/>
<path d="M22.7434 19.2152C22.7206 18.976 22.7662 18.7255 22.732 18.475C22.6751 18.0081 22.8459 17.769 23.3242 17.7462C23.8024 17.7348 23.8935 17.5071 23.791 17.0516C23.6544 16.4481 23.3014 16.6986 22.9712 16.7555C21.673 16.9947 21.673 16.9947 21.673 18.2587C21.673 18.5206 21.6958 18.7939 21.673 19.0558C21.6047 19.5796 21.8324 19.7162 22.3221 19.6593C22.6295 19.6137 22.7776 19.534 22.7434 19.2152Z" fill="#4949FC"/>
<path d="M25.1231 17.2562C25.4191 17.2676 25.7833 17.1765 26.011 16.8578C25.7947 16.6073 25.9313 16.0951 25.5329 16.0951C25.2711 16.0951 24.7588 16.0723 24.7588 16.539C24.7702 16.7781 24.736 17.2334 25.1231 17.2562Z" fill="#4949FC"/>
</svg>
