<svg width="40" height="40" viewBox="0 0 40 40" fill="none" xmlns="http://www.w3.org/2000/svg">
<path d="M30.2111 19.3587C30.4613 18.5141 30.6178 17.6694 30.649 16.7622C30.3988 16.8561 30.1485 16.9499 29.8983 16.9812C29.7106 17.0125 29.6793 17.1064 29.648 17.2628C29.648 17.4817 29.5854 17.732 29.5541 17.951C29.2726 19.4838 28.6469 20.8916 27.8962 22.2367C27.2705 23.3629 26.6449 24.4578 26.0505 25.5839C25.2684 27.0542 24.6115 28.5871 24.2361 30.2138C24.2048 30.245 24.2048 30.245 24.1735 30.245C21.9525 30.245 19.7001 30.245 17.4791 30.245C17.4165 30.245 17.2914 30.1512 17.2914 30.0573C16.8847 28.3368 16.1652 26.7101 15.3206 25.1773C14.4134 23.488 13.4749 21.8613 12.7241 20.1095C12.0985 18.6079 11.7856 17.0751 11.9108 15.4797C12.2549 11.9447 14.8826 8.87904 18.355 8.09697C19.0119 7.94056 19.7001 7.878 20.3883 7.75287C20.5448 7.5026 20.6386 7.18978 20.7637 6.87695C20.6699 6.87695 20.576 6.87695 20.4822 6.87695C19.4186 6.90824 18.3863 7.09593 17.3852 7.44004C13.0369 8.84776 10.2841 13.4463 11.1287 17.951C11.379 19.2961 11.8795 20.5474 12.4739 21.7675C13.2872 23.3629 14.1631 24.9583 14.9765 26.5537C15.7898 28.1178 16.3842 29.7758 16.6032 31.5276C16.6657 32.0907 16.6657 32.6851 16.697 33.2795C16.7283 34.0928 17.1662 34.6872 17.9483 34.9374C17.9796 34.9374 18.0422 34.9687 18.0734 35C19.9191 35 21.7335 35 23.5792 35C24.7053 34.5308 24.9556 34.1554 24.9556 32.8728C24.9556 32.4661 24.9243 32.0594 24.9869 31.684C25.112 30.4327 25.4248 29.2127 25.9566 28.0865C26.7074 26.5224 27.5208 25.0209 28.3341 23.488C29.0536 22.1429 29.7731 20.829 30.2111 19.3587ZM23.1725 34.0302C21.6084 34.0302 20.013 34.0302 18.4488 34.0302C17.8857 34.0302 17.6042 33.6548 17.6668 33.123C19.7627 33.123 21.8586 33.123 23.9858 33.123C24.0171 33.7174 23.7356 34.0302 23.1725 34.0302ZM23.9858 32.1533C21.8586 32.1533 19.7627 32.1533 17.6355 32.1533C17.6042 31.8405 17.5729 31.5589 17.5416 31.2461C19.7314 31.2461 21.8899 31.2461 24.0797 31.2461C24.0484 31.5589 24.0171 31.8405 23.9858 32.1533Z" fill="#4949FC"/>
<path d="M21.8277 9.16058C21.7964 9.22315 21.6713 9.28571 21.5462 9.317C20.8579 9.37956 20.3574 9.88008 20.3574 10.5996C20.3574 10.8811 20.3574 11.194 20.3574 11.4755C20.3574 12.3201 20.7954 12.7894 21.6087 12.8832C21.7026 12.8832 21.7964 12.9458 21.8277 13.0083C21.859 13.0709 21.8277 13.196 21.7651 13.2586C21.5462 13.5089 21.421 13.8217 21.421 14.1658C21.3897 14.1658 21.3585 14.1971 21.3585 14.1971C21.4836 14.4786 21.6087 14.7602 21.7651 15.0104C21.9841 15.292 22.2657 15.5422 22.5159 15.7925C23.0164 16.2617 23.7047 16.2617 24.2365 15.8238C24.299 15.7612 24.4554 15.6986 24.518 15.7299C24.5806 15.7612 24.6431 15.9176 24.6431 16.0115C24.7057 16.6997 25.2375 17.2002 25.9257 17.2002C26.2385 17.2002 26.5827 17.2002 26.8955 17.2002C27.615 17.2002 28.1155 16.6997 28.2094 15.9802C28.2094 15.8863 28.2719 15.7612 28.3658 15.7299C28.4283 15.6986 28.5535 15.7612 28.616 15.8238C29.1791 16.2617 29.8673 16.2617 30.3678 15.7925C30.6181 15.5422 30.8684 15.292 31.1186 15.0417C31.5879 14.5412 31.5879 13.853 31.1499 13.3212C31.0873 13.2586 31.0248 13.1022 31.0561 13.0396C31.1186 12.9458 31.2438 12.8832 31.3376 12.8832C31.9945 12.8206 32.4951 12.3201 32.4951 11.6319C32.4951 11.2878 32.4951 10.9437 32.4951 10.5683C32.4638 9.88008 31.9945 9.37956 31.3063 9.317C31.2125 9.317 31.0561 9.25443 31.0248 9.19187C30.9935 9.1293 31.0561 8.97289 31.1186 8.91032C31.5566 8.37852 31.5253 7.6903 31.0561 7.18978C30.8058 6.93952 30.5555 6.68926 30.3053 6.439C29.8673 5.93848 29.1791 5.93848 28.6473 6.37643C28.5847 6.439 28.4283 6.50156 28.3658 6.47028C28.3032 6.439 28.2406 6.28259 28.2406 6.18874C28.1468 5.50052 27.6463 5 26.9268 5C26.6139 5 26.2698 5 25.957 5C25.2375 5 24.737 5.50052 24.6431 6.22002C24.6431 6.31387 24.5806 6.439 24.4867 6.50156C24.4242 6.53285 24.299 6.47028 24.2365 6.40772C23.6734 5.96976 22.9852 5.96976 22.4846 6.47028C22.2344 6.68926 22.0154 6.93952 21.7651 7.1585C21.2646 7.6903 21.2646 8.37852 21.7026 8.94161C21.7964 8.97289 21.859 9.1293 21.8277 9.16058ZM22.6098 9.75495C22.6723 9.56726 22.7349 9.41085 22.8287 9.25443C22.9539 9.00417 22.9226 8.78519 22.7036 8.56622C22.2031 8.03441 22.2031 8.03441 22.7349 7.50261C22.86 7.37748 22.9852 7.25235 23.1103 7.12722C23.298 6.93952 23.517 6.90824 23.6734 7.12722C24.0488 7.62774 24.4554 7.62774 24.9247 7.34619C25.0185 7.28363 25.1124 7.28363 25.2375 7.22106C25.4878 7.12722 25.6129 6.9708 25.6129 6.72054C25.6129 6.65798 25.6129 6.56413 25.6129 6.50156C25.6129 6.03233 25.6755 5.96976 26.1447 5.96976C26.395 5.96976 26.6452 5.96976 26.8642 5.96976C27.1457 5.96976 27.2709 6.09489 27.2709 6.37643C27.2709 6.439 27.2709 6.50156 27.2709 6.59541C27.2709 7.06465 27.3334 7.1585 27.7714 7.31491C27.9591 7.31491 28.1155 7.40876 28.2719 7.47132C28.5222 7.59645 28.7412 7.56517 28.9601 7.34619C29.4919 6.84567 29.4919 6.84567 30.0237 7.37748C30.1489 7.50261 30.274 7.62774 30.4304 7.78415C30.5868 7.94056 30.5868 8.12826 30.4304 8.31595C30.3678 8.4098 30.274 8.47237 30.2114 8.53493C29.9299 8.81648 29.9299 8.94161 30.0863 9.28571C30.1802 9.47341 30.2427 9.62982 30.3053 9.81752C30.3991 10.1303 30.5868 10.2555 30.8997 10.2555C30.9935 10.2555 31.1186 10.2555 31.2125 10.2555C31.4627 10.2555 31.6192 10.3806 31.6192 10.6309C31.6192 10.9437 31.6192 11.2252 31.6192 11.5381C31.6192 11.7883 31.494 11.9135 31.2438 11.9135C31.1812 11.9135 31.0873 11.9135 31.0248 11.9135C30.5555 11.9135 30.4617 11.976 30.3053 12.414C30.2427 12.6017 30.1802 12.7581 30.0863 12.9145C29.9612 13.1648 29.9925 13.3837 30.2114 13.6027C30.712 14.1345 30.712 14.1345 30.2114 14.6663C30.0863 14.7915 29.9612 14.9166 29.836 15.0417C29.6483 15.2294 29.4294 15.2607 29.273 15.0417C28.9288 14.5725 28.5222 14.5099 28.0529 14.8227C27.9591 14.8853 27.8652 14.9166 27.7714 14.9166C27.4586 15.0104 27.3334 15.1981 27.3334 15.5109C27.3334 15.6048 27.3334 15.7299 27.3334 15.8238C27.3334 16.074 27.177 16.1992 26.958 16.1992C26.6452 16.1992 26.3637 16.1992 26.0509 16.1992C25.8006 16.1992 25.6755 16.074 25.6755 15.8238C25.6755 15.7299 25.6755 15.6361 25.6755 15.5735C25.6755 15.1356 25.6129 15.0417 25.1749 14.8853C24.9872 14.8227 24.8308 14.7602 24.6744 14.6663C24.4242 14.5412 24.2052 14.5725 23.9862 14.7915C23.4544 15.292 23.4544 15.292 22.9226 14.7602C22.7975 14.635 22.6723 14.5099 22.5472 14.3848C22.4846 14.3222 22.4221 14.1971 22.3595 14.1032C22.4534 13.9781 22.5159 13.8843 22.6098 13.7904C23.079 13.3212 23.079 13.3212 22.7975 12.7268C22.7975 12.6955 22.7662 12.6955 22.7662 12.6642C22.6411 12.0699 22.3282 11.8196 21.7026 11.9135C21.4523 11.9447 21.3272 11.7883 21.3272 11.5381C21.3272 11.2252 21.3272 10.9437 21.3272 10.6309C21.3272 10.3806 21.4523 10.2555 21.7026 10.2555C21.7651 10.2555 21.859 10.2555 21.9216 10.2555C22.3595 10.2555 22.4534 10.1929 22.6098 9.75495Z" fill="#4949FC"/>
<path d="M24.2677 21.83C24.5493 20.5787 23.517 19.5464 22.2031 19.828C21.9528 19.2023 21.421 19.0772 20.7954 19.0459C20.1384 19.0459 19.6379 19.2023 19.3877 19.828C18.7307 19.5777 18.2615 19.828 17.8235 20.2659C17.3543 20.7039 17.1353 21.2044 17.3856 21.83C16.7286 22.1116 16.6035 22.6434 16.6035 23.269C16.6035 23.926 16.7599 24.4265 17.3856 24.6768C17.1353 25.3337 17.3856 25.8029 17.8235 26.2409C18.2615 26.7101 18.762 26.9291 19.3877 26.6788C20.0446 27.7737 21.4523 27.7737 22.2657 26.6788C23.4857 26.9917 24.4867 25.9593 24.2677 24.6455C25.3626 24.0198 25.3626 22.5808 24.2677 21.83ZM24.1113 23.3942C24.1113 23.7696 24.0801 23.8009 23.7047 23.8009C23.4544 23.8009 23.3293 23.8947 23.2354 24.1137C23.2041 24.2075 23.1729 24.3014 23.1103 24.3952C23.0164 24.5829 23.0477 24.7393 23.2041 24.8957C23.4857 25.1773 23.4857 25.2086 23.1729 25.4901C23.0477 25.6152 22.8913 25.7404 22.7349 25.8968C22.6098 25.8029 22.5159 25.7404 22.4534 25.6778C22.2969 25.4901 22.1093 25.4588 21.8903 25.584C21.8277 25.6152 21.7339 25.6465 21.64 25.6778C21.421 25.7404 21.3272 25.8968 21.3272 26.1158C21.3272 26.4912 21.2959 26.5224 20.9205 26.5224C20.8579 26.5224 20.7641 26.5224 20.7015 26.5224C20.2949 26.5224 20.2949 26.5224 20.2949 26.1158C20.2949 25.8968 20.201 25.7404 19.982 25.6778C19.8882 25.6465 19.8256 25.6152 19.7318 25.584C19.5128 25.4588 19.3251 25.4588 19.1374 25.6778C18.9497 25.8968 18.7933 25.8968 18.6056 25.6778C18.543 25.6152 18.5118 25.5527 18.4492 25.5214C18.1364 25.2086 18.1364 25.2086 18.4179 24.8957C18.5743 24.7393 18.6056 24.5829 18.5118 24.3952C18.4805 24.3014 18.4179 24.2075 18.3866 24.1137C18.3241 23.8634 18.1676 23.7696 17.9174 23.7696C17.5733 23.7696 17.542 23.7383 17.542 23.3942C17.542 23.3003 17.542 23.2065 17.542 23.1439C17.542 22.7685 17.5733 22.7372 17.9487 22.7372C18.1989 22.7372 18.3241 22.6434 18.4179 22.4244C18.4492 22.3306 18.4805 22.2367 18.543 22.1429C18.6682 21.9552 18.6369 21.7675 18.4492 21.6111C18.1676 21.3295 18.1676 21.2982 18.4805 20.9854C18.543 20.9229 18.5743 20.8916 18.6369 20.829C18.9184 20.5475 18.9497 20.5475 19.2313 20.829C19.3877 20.9854 19.5441 21.0167 19.7631 20.9229C19.8569 20.8603 19.9508 20.829 20.0446 20.7977C20.2636 20.7352 20.3574 20.5787 20.3574 20.3285C20.3574 19.9531 20.3887 19.9218 20.7641 19.9218C20.8267 19.9218 20.9205 19.9218 20.9831 19.9218C21.3898 19.9218 21.3898 19.9218 21.3898 20.3285C21.3898 20.5475 21.4836 20.7039 21.7026 20.7664C21.7964 20.7977 21.859 20.829 21.9528 20.8603C22.1718 20.9854 22.3908 20.9854 22.5472 20.7664C22.7349 20.5475 22.8913 20.5475 23.079 20.7664C23.1103 20.829 23.1729 20.8603 23.2354 20.9229C23.5795 21.267 23.5795 21.267 23.2667 21.6111C23.1416 21.7675 23.1103 21.8926 23.2041 22.049C23.2667 22.1429 23.298 22.268 23.3293 22.3619C23.3918 22.5808 23.5482 22.6747 23.7672 22.6747C24.1739 22.6747 24.1739 22.706 24.1739 23.0814C24.1113 23.2378 24.1113 23.3003 24.1113 23.3942Z" fill="#4949FC"/>
<path d="M13.6006 25.8967C13.2878 26.0532 13.3504 26.3347 13.3504 26.585C13.3191 26.9291 13.2565 26.9916 12.9437 26.9916C12.6934 26.9916 12.4432 26.9916 12.1929 26.9916C11.9739 26.9916 11.8175 26.8665 11.8488 26.6475C11.9426 26.0844 11.6924 25.8029 11.1606 25.6778C11.098 25.6465 11.0042 25.6152 10.9416 25.5839C10.6913 25.4588 10.5036 25.4901 10.316 25.7091C10.2534 25.8029 10.1595 25.8655 10.097 25.928C9.94056 26.0532 9.78415 26.0532 9.65902 25.928C9.44004 25.7091 9.18978 25.4901 9.00209 25.2398C8.93952 25.146 8.93952 24.8957 9.00209 24.8644C9.56517 24.489 9.47132 24.0198 9.18978 23.5506C9.18978 23.5193 9.1585 23.5193 9.1585 23.488C9.03337 23.1126 8.93952 23.05 8.53285 23.05C8.47028 23.05 8.40772 23.05 8.31387 23.05C8.06361 23.05 7.93848 22.9249 7.93848 22.6746C7.93848 22.4557 7.93848 22.2367 7.93848 22.0177C7.93848 21.5798 8.03233 21.5172 8.439 21.5172C8.9708 21.5172 8.9708 21.5172 9.1585 21.0167C9.22106 20.8915 9.25235 20.7664 9.31491 20.6413C9.47132 20.391 9.40876 20.172 9.22106 19.9531C8.78311 19.5151 8.78311 19.5151 9.25235 19.0459C9.28363 19.0146 9.31491 18.9833 9.34619 18.952C9.81543 18.4828 9.81543 18.4828 10.316 18.8582C10.2534 18.4828 10.1908 18.1387 10.1283 17.7946C10.1283 17.732 10.0031 17.6694 9.90928 17.6694C9.56517 17.6381 9.25235 17.7633 9.00209 18.0135C8.78311 18.2325 8.53285 18.4515 8.31387 18.7018C7.87591 19.171 7.84463 19.8279 8.22002 20.3284C8.28259 20.391 8.31387 20.4849 8.40772 20.5787C8.2513 20.61 8.15746 20.61 8.03233 20.6413C7.43796 20.7664 7.03128 21.2044 7 21.7987C7 22.1428 7 22.4869 7 22.8311C7.03128 23.4254 7.46924 23.8947 8.06361 23.9885C8.15746 23.9885 8.2513 24.0198 8.37643 24.0511C8.31387 24.1449 8.28259 24.2075 8.2513 24.2388C7.78206 24.8331 7.78206 25.4588 8.34515 26.0219C8.53285 26.2096 8.75182 26.4286 8.93952 26.6162C9.40876 27.0542 10.0657 27.1168 10.5662 26.7101C10.6288 26.6475 10.7226 26.6162 10.8165 26.5224C10.8478 26.6475 10.8478 26.7101 10.8478 26.7727C10.9416 27.4922 11.4421 27.9301 12.1616 27.9301C12.4432 27.9301 12.756 27.9301 13.0375 27.9301C13.5381 27.8988 13.8822 27.6799 14.1324 27.2419C14.1637 27.1793 14.195 27.0542 14.1637 26.9916C14.0073 26.6475 13.7883 26.2721 13.6006 25.8967Z" fill="#4949FC"/>
<path d="M33.089 22.6121C32.9013 22.2993 32.7448 21.9865 32.5571 21.6736C32.3382 21.2982 31.9315 21.2982 31.6812 21.6736C31.4935 21.9865 31.3058 22.2993 31.1494 22.6121C30.8679 23.1126 31.0243 23.4255 31.65 23.4567C31.4935 25.2398 30.774 26.7414 29.4289 27.8989C28.9597 28.3055 28.4278 28.5871 27.896 28.9312C27.6771 29.0563 27.5519 29.244 27.6458 29.463C27.7083 29.6194 27.896 29.7445 28.0525 29.8071C28.1463 29.8384 28.3027 29.7758 28.4278 29.7133C30.5238 28.6184 31.8689 26.8978 32.4007 24.6142C32.4946 24.2388 32.5259 23.8634 32.5884 23.488C33.2141 23.4567 33.3705 23.1126 33.089 22.6121Z" fill="#4949FC"/>
<path d="M8.2205 14.1971C8.31435 14.3535 8.47076 14.5099 8.65846 14.5725C8.87744 14.635 9.03385 14.4786 9.15898 14.2909C9.31539 14.0407 9.50309 13.7591 9.6595 13.5089C9.97233 13.0083 9.87848 12.7268 9.28411 12.5704C9.56565 10.756 10.379 9.25443 11.9118 8.19083C12.256 7.94057 12.6626 7.75287 13.038 7.53389C13.2883 7.40876 13.3821 7.1585 13.2883 6.93952C13.1944 6.68926 12.9442 6.59541 12.6626 6.68926C12.6001 6.72054 12.5375 6.75183 12.4749 6.78311C10.8482 7.56517 9.62822 8.75391 8.94 10.4432C8.65846 11.1001 8.50205 11.8196 8.28307 12.5391C7.81383 12.5391 7.59485 12.8206 7.81383 13.2899C7.93896 13.6027 8.06409 13.9155 8.2205 14.1971Z" fill="#4949FC"/>
<path d="M16.2284 13.5714C16.291 13.415 16.3222 13.196 16.2597 13.0709C16.2284 12.9458 16.0407 12.8832 15.853 12.7581C15.6966 12.9145 15.5089 13.0083 15.415 13.1335C14.7581 14.1032 14.5078 15.1981 14.6643 16.3243C14.7581 16.95 15.0084 17.5443 15.2273 18.1387C15.3212 18.4202 15.634 18.4828 15.853 18.3577C16.072 18.2325 16.1658 18.0136 16.0407 17.732C16.0094 17.6695 15.9781 17.5756 15.9468 17.513C15.5715 16.6684 15.415 15.7925 15.634 14.9166C15.7904 14.4473 16.072 14.0407 16.2284 13.5714Z" fill="#4949FC"/>
<path d="M11.2234 21.3295C11.1295 21.048 11.0044 20.7664 10.8793 20.4849C10.0972 21.0792 9.81566 22.3931 10.2849 23.3941C10.7541 24.4265 11.9742 25.0834 13.0378 24.8331C12.9126 24.6142 12.7875 24.3952 12.6937 24.1762C12.6311 24.0198 12.506 23.9572 12.3496 23.9259C11.2234 23.707 10.7229 22.5808 11.1921 21.5485C11.2234 21.4859 11.2547 21.3921 11.2234 21.3295Z" fill="#4949FC"/>
<path d="M26.4572 13.4463C27.7398 13.4463 28.8034 12.3827 28.8034 11.1001C28.8034 9.81751 27.7398 8.75391 26.4572 8.75391C25.1746 8.75391 24.1423 9.81751 24.1423 11.1001C24.111 12.3827 25.1433 13.415 26.4572 13.4463ZM26.4259 9.69238C27.208 9.69238 27.8336 10.318 27.8336 11.1001C27.8336 11.8509 27.208 12.4765 26.4259 12.4765C25.6439 12.4765 25.0182 11.8509 25.0182 11.0688C25.0495 10.318 25.6751 9.69238 26.4259 9.69238Z" fill="#4949FC"/>
<path d="M20.8269 21.6423C19.9197 21.6423 19.1689 22.3931 19.1689 23.269C19.1689 24.1762 19.8884 24.8957 20.7956 24.927C21.7028 24.927 22.4223 24.2075 22.4223 23.3003C22.4536 22.3618 21.7341 21.6423 20.8269 21.6423ZM20.7956 23.9572C20.4202 23.9572 20.1074 23.6131 20.1387 23.2377C20.1387 22.8624 20.4828 22.5495 20.8582 22.5495C21.2336 22.5495 21.5464 22.8936 21.5464 23.269C21.5151 23.6757 21.171 23.9885 20.7956 23.9572Z" fill="#4949FC"/>
</svg>
