<svg width="40" height="40" viewBox="0 0 40 40" fill="none" xmlns="http://www.w3.org/2000/svg">
<path d="M35.0602 22.1469C34.7059 22.0086 34.3431 21.8963 34.0234 21.784C34.0234 20.5659 34.0234 19.4168 34.0234 18.2246C34.3085 18.1296 34.6109 18.0259 34.9133 17.9222C35.8031 17.6199 36.0364 17.1793 35.7599 16.3067C35.5008 15.4687 35.2329 14.6307 34.9478 13.7927C34.6714 12.9633 34.2135 12.7387 33.3496 12.9978C33.0213 13.0929 32.7016 13.1879 32.4252 13.2657C31.7167 12.2808 31.0342 11.3391 30.3345 10.3715C30.5159 10.121 30.7232 9.84449 30.9133 9.56803C31.4144 8.85097 31.328 8.34125 30.6109 7.81425C30.1098 7.4514 29.6001 7.08855 29.0904 6.7257C27.5267 5.61987 27.5094 5.61987 26.3172 7.07991C26.2221 7.20086 25.9889 7.33909 25.8766 7.2959C24.8226 6.95032 23.7859 6.57883 22.7146 6.1987C22.7146 5.83585 22.7319 5.44708 22.7146 5.06695C22.68 4.41901 22.2999 4.0216 21.6519 4.01296C20.6412 3.99568 19.6304 3.99568 18.6196 4.01296C17.9716 4.03024 17.5915 4.41901 17.5656 5.06695C17.5483 5.473 17.5656 5.87905 17.5656 6.25054C16.7275 6.50972 15.9414 6.7257 15.1725 6.99352C14.1789 7.33909 14.1876 7.35637 13.531 6.51836C13.0558 5.90497 12.5634 5.77538 11.9759 6.18143C11.1379 6.75162 10.3258 7.34773 9.52236 7.96112C8.96944 8.38445 8.90897 8.88553 9.30638 9.49028C9.51372 9.80994 9.74698 10.1123 9.94569 10.3974C9.23726 11.365 8.5634 12.2981 7.85497 13.2829C7.5526 13.1879 7.21566 13.0756 6.87009 12.9719C6.09255 12.7387 5.63467 12.9719 5.36685 13.7408C5.06448 14.6307 4.77074 15.5378 4.49428 16.4363C4.2783 17.1447 4.51156 17.5853 5.20271 17.8531C5.55692 17.9914 5.92841 18.1037 6.24806 18.2246C6.24806 19.4773 6.24806 20.6264 6.24806 21.7927C5.91113 21.905 5.58284 22.0086 5.26318 22.121C4.46836 22.406 4.24374 22.8467 4.50292 23.676C4.77074 24.54 5.03856 25.3953 5.3323 26.2505C5.60011 27.0454 6.06664 27.27 6.88737 27.0281C7.21566 26.933 7.54396 26.838 7.83769 26.743C8.54612 27.7279 9.22862 28.6782 9.91977 29.6371C9.72106 29.9136 9.52236 30.1901 9.32366 30.4665C8.84849 31.1577 8.93489 31.6587 9.61739 32.1685C10.1185 32.54 10.6282 32.9028 11.1293 33.2657C12.7189 34.4147 12.7103 34.4147 13.9457 32.9114C14.0494 32.7905 14.3085 32.6782 14.4468 32.73C15.4662 33.0583 16.4684 33.4212 17.5483 33.7927C17.5483 34.1037 17.5396 34.4924 17.5483 34.8726C17.5742 35.5896 17.9543 35.9784 18.68 35.987C19.6476 36.0043 20.6152 36.0043 21.5828 35.987C22.2999 35.9784 22.68 35.581 22.7059 34.8553C22.7146 34.4752 22.7059 34.0864 22.7059 33.7667C23.8723 33.3866 24.9694 33.0238 26.1271 32.6436C26.3345 32.9201 26.5504 33.2397 26.7837 33.5335C27.2329 34.095 27.7254 34.1987 28.3042 33.8013C29.1336 33.2311 29.9543 32.635 30.7578 32.0216C31.2934 31.6069 31.3539 31.1145 30.991 30.5443C30.7751 30.2073 30.5332 29.879 30.3258 29.5853C31.0342 28.6004 31.7081 27.6587 32.3993 26.6911C32.693 26.7862 33.0213 26.8812 33.3496 26.9849C34.1789 27.2354 34.6282 27.0281 34.9046 26.2246C35.207 25.3348 35.5008 24.4276 35.7772 23.5292C35.9932 22.8553 35.7513 22.406 35.0602 22.1469ZM33.8938 26.0864C33.5051 25.9654 33.1595 25.8704 32.8226 25.7581C32.2351 25.568 31.7945 25.7235 31.4403 26.2419C30.8355 27.1231 30.1962 27.9957 29.5483 28.851C29.1854 29.3261 29.1595 29.784 29.4964 30.2678C29.7038 30.5702 29.9198 30.8639 30.1703 31.2095C29.3323 31.8143 28.5202 32.4017 27.6735 33.0151C27.423 32.6782 27.1984 32.3672 26.9651 32.0562C26.6023 31.5724 26.153 31.486 25.5915 31.676C24.5807 32.0302 23.5612 32.3585 22.5418 32.6868C21.9802 32.8683 21.6779 33.2225 21.6779 33.8186C21.6779 34.1814 21.6779 34.5356 21.6779 34.933C20.6412 34.933 19.6563 34.933 18.5764 34.933C18.5764 34.5702 18.5764 34.1901 18.5764 33.8099C18.585 33.1879 18.2826 32.8251 17.6865 32.635C16.6843 32.324 15.6822 32.0043 14.6973 31.6501C14.0839 31.4255 13.6088 31.5378 13.2373 32.0734C13.0386 32.3499 12.8312 32.6264 12.572 32.9633C11.734 32.3672 10.9219 31.7883 10.0753 31.1922C10.2913 30.8898 10.4813 30.6393 10.6627 30.3801C11.1293 29.7149 11.0947 29.3348 10.6109 28.7041C10.0062 27.9179 9.43597 27.1231 8.87441 26.3024C8.44245 25.6631 8.09687 25.5162 7.34525 25.7495C7.03424 25.8445 6.73186 25.9395 6.36037 26.0605C6.04072 25.0929 5.7297 24.1512 5.40141 23.1577C5.78154 23.0281 6.12711 22.9244 6.47268 22.8035C7.13791 22.5616 7.34525 22.1814 7.31934 21.4644C7.28478 20.4795 7.29342 19.4946 7.31934 18.5097C7.34525 17.8013 7.12927 17.4212 6.45541 17.1879C6.13575 17.0756 5.80746 16.9719 5.41005 16.8423C5.72106 15.8747 6.03208 14.9244 6.35173 13.9222C6.70595 14.0346 7.0256 14.1382 7.34525 14.2419C8.08823 14.4752 8.43381 14.3283 8.87441 13.6976C9.44461 12.8769 10.0148 12.0734 10.6196 11.2959C11.112 10.6566 11.1552 10.2851 10.6887 9.61987C10.5072 9.36069 10.3172 9.10151 10.1012 8.79914C10.9478 8.18575 11.7599 7.59827 12.598 6.99352C12.8399 7.33045 13.0645 7.61555 13.2718 7.90929C13.6347 8.41901 14.1012 8.52268 14.6887 8.31533C15.6822 7.96976 16.6757 7.64147 17.6779 7.33045C18.2653 7.14903 18.5936 6.79482 18.585 6.16415C18.585 5.81857 18.585 5.473 18.585 5.08423C19.6044 5.08423 20.6066 5.08423 21.6865 5.08423C21.6865 5.45572 21.6865 5.83585 21.6865 6.21598C21.6779 6.84665 22.0062 7.19222 22.6023 7.36501C23.544 7.64147 24.4856 7.94384 25.41 8.28942C26.2221 8.59179 26.5418 8.53132 27.0688 7.83153C27.2589 7.58099 27.4489 7.32181 27.6563 7.03672C28.5029 7.65011 29.2977 8.22894 30.153 8.85097C29.9198 9.17063 29.7124 9.46436 29.5051 9.7581C29.1422 10.2678 29.1941 10.7343 29.5742 11.2268C30.2049 12.0389 30.8096 12.8769 31.3971 13.7235C31.8204 14.3283 32.166 14.4924 32.8744 14.2765C33.2027 14.1814 33.5224 14.0691 33.9025 13.9482C34.2221 14.9244 34.5332 15.8834 34.8615 16.8683C34.464 17.0065 34.1098 17.1361 33.747 17.257C33.1509 17.4557 32.9349 17.879 32.9522 18.4924C32.9781 19.5205 32.9781 20.5486 32.9522 21.5767C32.9349 22.1987 33.1681 22.6134 33.747 22.8207C34.0926 22.9417 34.4381 23.0454 34.8615 23.1922C34.5332 24.1512 34.2221 25.0929 33.8938 26.0864Z" fill="#4949FC"/>
<path d="M25.9974 19.0799C26.7836 17.9568 26.7663 17.0151 25.9628 16.3067C25.289 15.7192 24.2695 15.7192 23.6043 16.3067C22.8095 17.0065 22.7922 17.9309 23.5611 19.0626C23.3019 19.2182 23.0514 19.365 22.8527 19.486C22.3689 19.1318 21.9283 18.8121 21.479 18.4924C22.3948 17.4125 22.4466 16.2981 21.6173 15.4428C20.8829 14.6825 19.6475 14.5702 18.8786 15.2873C18.5244 15.6156 18.2479 16.1166 18.127 16.5832C17.9283 17.3348 18.3084 17.9827 18.8095 18.4838C18.3257 18.838 17.8851 19.1577 17.4358 19.486C17.2026 19.3391 16.9693 19.2009 16.7015 19.0367C17.4877 18.0259 17.4877 17.0583 16.7274 16.3413C16.0536 15.7106 15.0082 15.6933 14.3171 16.2981C13.5136 17.0065 13.4963 17.9482 14.2825 19.0713C13.1853 19.5637 12.8397 20.4536 12.9088 21.594C12.9434 22.1901 12.9261 22.7948 12.9088 23.3996C12.8916 23.9266 13.1421 24.1339 13.6518 24.1253C14.4726 24.108 15.2847 24.1166 16.1054 24.1253C16.5374 24.1253 16.9952 24.0043 17.2803 24.514C17.3408 24.6264 17.6345 24.635 17.816 24.635C19.3624 24.6436 20.9088 24.6436 22.4639 24.635C22.6453 24.635 22.9391 24.6264 22.9996 24.514C23.2933 24.0043 23.7512 24.1253 24.1831 24.1253C25.0039 24.1253 25.816 24.1166 26.6367 24.1253C27.1464 24.1339 27.397 23.9179 27.3797 23.3996C27.3624 22.7948 27.3451 22.1901 27.3797 21.594C27.4315 20.4622 27.0946 19.5637 25.9974 19.0799ZM15.4747 16.9201C15.924 16.9115 16.2091 17.1879 16.235 17.6285C16.2695 18.1037 15.9844 18.4147 15.5179 18.4406C15.0341 18.4665 14.7836 18.1642 14.7058 17.6976C14.7577 17.2311 14.9996 16.9287 15.4747 16.9201ZM17.0298 23.0713C15.9585 23.0713 14.9823 23.0713 13.9369 23.0713C13.9369 22.3456 13.9369 21.6458 13.9369 20.946C13.9369 20.8596 13.9628 20.7732 13.9888 20.6955C14.2134 20.0648 14.8527 19.8488 16.0622 20.0043C16.6497 20.0821 16.9952 20.4622 17.0125 21.1015C17.0471 21.7408 17.0298 22.3801 17.0298 23.0713ZM19.1032 16.851C19.1291 16.2981 19.6129 15.8575 20.1659 15.8747C20.7447 15.892 21.2026 16.4104 21.1594 16.9806C21.1162 17.5335 20.6151 17.9655 20.0708 17.9223C19.5093 17.8963 19.0773 17.4039 19.1032 16.851ZM22.1875 23.581C20.8052 23.581 19.4661 23.581 18.0665 23.581C18.0665 22.6998 18.0492 21.8791 18.0752 21.067C18.1011 20.1512 18.7058 19.5378 19.6129 19.4946C19.9758 19.4773 20.3473 19.4773 20.7101 19.4946C21.5222 19.5464 22.1529 20.1166 22.1875 20.9201C22.222 21.7927 22.1875 22.6652 22.1875 23.581ZM24.7533 16.9201C25.2285 16.9115 25.5309 17.1879 25.5395 17.6717C25.5482 18.1555 25.2371 18.3888 24.8052 18.4579C24.3041 18.3888 24.0104 18.1382 24.019 17.6544C24.0276 17.2052 24.3041 16.9287 24.7533 16.9201ZM26.3257 23.0454C25.2631 23.0454 24.2523 23.0454 23.2242 23.0454C23.2242 22.3715 23.2155 21.7495 23.2242 21.1274C23.2415 20.4104 23.6216 20.0302 24.3473 20.0043C24.451 19.9957 24.5633 20.0043 24.6669 20.0043C26.0752 20.0043 26.317 20.2462 26.317 21.6285C26.3257 22.095 26.3257 22.5616 26.3257 23.0454Z" fill="#4949FC"/>
<path d="M28.5721 14.8985C31.5872 20.4449 29.0127 25.8013 25.6001 28.0821C21.9025 30.5616 17.1509 30 14.68 28.013C15.0947 27.9871 15.4662 27.9698 15.8291 27.9439C15.8291 27.5896 15.8291 27.2786 15.8291 26.9503C14.7924 26.9503 13.7988 26.9417 12.814 26.9503C12.3215 26.9503 12.1401 27.2441 12.2783 27.676C12.598 28.6436 12.9695 29.6026 13.3237 30.5789C13.6606 30.4579 13.9371 30.3542 14.274 30.2333C14.1099 29.7668 13.9716 29.3521 13.7816 28.8078C19.1379 32.3585 25.1854 30.8035 28.4165 26.9849C31.734 23.054 31.5613 17.6112 29.3582 14.4147C29.1077 14.5789 28.8399 14.743 28.5721 14.8985Z" fill="#4949FC"/>
<path d="M15.4317 11.3823C19.3021 9.33476 23.8551 10.3369 25.6434 12.0561C25.1941 12.0561 24.8227 12.0561 24.4512 12.0561C24.4512 12.419 24.4512 12.7041 24.4512 13.041C25.5224 13.041 26.5505 13.0497 27.5786 13.0324C27.9501 13.0237 28.1574 12.7559 28.0451 12.419C27.7168 11.4082 27.3453 10.406 26.9825 9.39523C26.6196 9.53346 26.3432 9.62849 26.0235 9.74944C26.179 10.2246 26.3086 10.6393 26.4641 11.1231C20.3993 7.14901 14.1445 9.8272 11.4576 13.4125C8.43389 17.4384 8.85722 22.7516 10.9134 25.5767C11.1639 25.4211 11.4145 25.2743 11.665 25.1188C8.3043 18.9849 11.7687 13.3175 15.4317 11.3823Z" fill="#4949FC"/>
</svg>
