<svg width="40" height="40" viewBox="0 0 40 40" fill="none" xmlns="http://www.w3.org/2000/svg">
<path d="M31.34 20.9191C31.2882 19.2868 31.1846 17.6545 31.1068 16.0222C31.0809 15.4435 30.7959 15.2794 30.2604 15.3744C28.6368 15.6681 27.0044 15.9358 25.3808 16.2467C25.1648 16.2899 24.8626 16.4713 24.8107 16.644C24.7589 16.8167 24.9317 17.1277 25.0871 17.2831C25.4844 17.6631 25.9335 17.9913 26.3567 18.3368C24.7503 20.5996 24.7503 20.5996 22.1161 20.6255C21.857 20.6255 21.5979 20.6082 21.3388 20.6341C20.4924 20.7291 19.7497 20.6168 19.1538 19.9C18.7133 19.3732 18.1865 19.3041 17.6855 19.8827C17.4178 20.185 17.1414 20.1764 16.9514 19.9518C16.9514 19.5027 17.0723 19.0882 16.9255 18.8032C16.6405 18.2418 16.8823 17.9222 17.2451 17.5768C17.461 17.3695 17.6683 17.1449 17.8669 16.9204C19.9915 14.5971 19.8965 11.0129 17.6424 8.82787C15.3968 6.65144 11.8558 6.63417 9.59303 8.78469C7.31296 10.9438 7.18341 14.528 9.28211 16.8686C9.60166 17.2227 9.94713 17.5422 10.2408 17.9136C10.3444 18.0345 10.3876 18.2504 10.3703 18.4145C10.3358 18.9068 10.2667 19.3991 10.1803 20.0641C9.9644 20.3232 9.7053 20.0037 9.46348 19.7705C9.06619 19.3905 8.68618 19.3559 8.2889 19.7446C7.73615 20.28 7.19205 20.8241 6.6393 21.3682C6.14702 21.8519 6.12111 22.3183 6.6393 22.7933C6.87249 23.0092 6.94158 23.2337 6.74294 23.5188C6.61339 23.7174 6.50975 23.9419 6.46657 24.1665C6.37157 24.607 6.12974 24.797 5.672 24.7883C5.30926 24.7883 4.88607 24.8488 4.87743 25.3497C4.86016 26.3516 4.85152 27.362 4.89471 28.3639C4.90334 28.5366 5.17972 28.8475 5.30926 28.8303C6.17293 28.7525 6.39748 29.3139 6.67385 29.9617C6.88113 30.4367 6.85522 30.7476 6.49248 31.0844C6.21611 31.3435 6.08656 31.6804 6.38884 31.9913C7.07113 32.6995 7.76206 33.4077 8.48754 34.0641C8.62572 34.1936 9.07483 34.2195 9.16983 34.1072C9.73985 33.4509 10.284 33.7272 10.9317 33.9691C11.4413 34.1591 11.5967 34.4268 11.5881 34.9018C11.5794 35.3423 11.7954 35.6014 12.2445 35.61C13.1599 35.6187 14.0841 35.6187 14.9995 35.61C15.4141 35.61 15.6732 35.3855 15.6559 34.9795C15.6214 34.3145 15.9755 34.0468 16.5541 33.9C16.8219 33.8309 17.0637 33.684 17.3314 33.5631C17.4523 33.6581 17.5905 33.7272 17.6942 33.8395C18.1519 34.3232 18.601 34.3491 19.076 33.8654C19.6288 33.2954 20.1902 32.734 20.7429 32.1726C21.1056 31.8013 21.1402 31.404 20.7343 31.0499C20.0001 30.4108 20.7861 29.9012 20.8638 29.3312C20.9329 28.8389 21.3388 28.8994 21.667 28.8907C22.1852 28.8735 22.4184 28.6057 22.427 28.1307C22.4443 27.3361 22.4357 26.5416 22.4529 25.7556C22.4702 25.082 22.142 24.7538 21.477 24.7797C20.9502 24.797 20.8293 24.512 20.8293 23.9592C22.2975 23.9592 23.7398 23.9333 25.1821 23.9679C25.7953 23.9851 26.2271 23.7951 26.6158 23.3115C27.3931 22.3442 28.2308 21.4201 29.0513 20.4787C29.4918 20.8241 29.8545 21.161 30.2691 21.4287C30.4936 21.5755 30.8564 21.7482 31.0377 21.6619C31.2277 21.5755 31.3487 21.1782 31.34 20.9191ZM16.9255 21.4028C17.366 21.2128 17.7374 21.04 18.1174 20.8846C18.2901 20.8155 18.4887 20.7896 18.6701 20.7464C18.7047 20.8414 18.7392 20.9364 18.7651 21.0314C18.0655 21.6619 17.366 22.2924 16.6232 22.9574C16.4591 22.8451 16.2087 22.6724 15.9668 22.5083C16.3555 22.0678 16.675 21.6878 16.9255 21.4028ZM13.54 28.528C13.6954 28.6748 13.8422 28.8303 14.0063 28.9771C14.6023 29.4953 15.2068 29.4867 15.7768 28.9253C16.3123 28.4071 16.8305 27.8716 17.3833 27.3189C17.4351 28.8216 16.0446 30.333 14.3777 30.6699C12.5295 31.0412 10.6553 29.9703 10.0076 28.1739C9.37711 26.4379 10.0767 24.5033 11.6399 23.6138C12.8922 24.417 14.1359 24.5638 15.4141 23.6828C15.5264 23.6051 15.7509 23.6915 16.0964 23.7174C15.1464 24.702 14.3345 25.5484 13.514 26.3947C12.7454 27.198 12.7454 27.7507 13.54 28.528ZM11.8213 20.5996C13.0131 20.565 14.2136 20.5737 15.4141 20.5996C15.5696 20.5996 15.725 20.8155 15.8805 20.9278C15.7337 21.0746 15.5868 21.3337 15.4314 21.3423C14.8182 21.3941 14.1963 21.3596 13.5745 21.3596C12.9959 21.3596 12.4172 21.3855 11.8472 21.3423C11.6744 21.3251 11.519 21.1005 11.3549 20.971C11.5017 20.8414 11.6572 20.5996 11.8213 20.5996ZM11.2426 19.1314C11.4326 19.0018 11.614 18.76 11.8126 18.7513C13.0131 18.7168 14.2136 18.7168 15.4141 18.7513C15.6041 18.76 15.7855 19.0018 15.9755 19.14C15.7855 19.2695 15.6041 19.5027 15.4055 19.52C14.8095 19.5718 14.205 19.5373 13.6091 19.5373C13.0131 19.5373 12.4086 19.5718 11.8126 19.52C11.6054 19.5027 11.4326 19.2695 11.2426 19.1314ZM14.9477 22.4392C14.6368 23.3028 13.9632 23.1733 13.3672 23.1819C12.8577 23.1906 12.4604 23.0178 12.279 22.4392C13.1686 22.4392 14.015 22.4392 14.9477 22.4392ZM10.1026 16.2294C8.33208 14.3121 8.41845 11.3498 10.3012 9.55334C12.1667 7.76557 15.0945 7.78284 16.9341 9.57925C18.791 11.4016 18.8601 14.3639 17.081 16.264C16.7182 16.6526 16.3641 17.0586 15.9928 17.4472C15.8978 17.5509 15.7682 17.6718 15.6473 17.6804C15.1636 17.7063 14.6714 17.689 14.1186 17.689C14.1186 16.7995 14.1013 15.9876 14.1359 15.1758C14.1445 14.9944 14.3173 14.7958 14.4554 14.6489C14.9736 14.1048 15.5091 13.578 16.0446 13.0512C16.3209 12.7834 16.5023 12.4812 16.1655 12.1702C15.8632 11.8852 15.5782 12.0493 15.3277 12.3084C14.7836 12.8871 14.2309 13.4571 13.6004 14.1048C13.0131 13.4916 12.4777 12.9303 11.9508 12.3775C11.6831 12.1011 11.3722 11.8507 11.0267 12.2048C10.664 12.5675 10.9662 12.8612 11.234 13.1289C11.3722 13.2671 11.4844 13.4312 11.6485 13.5348C13.1859 14.528 13.2895 15.9963 12.9959 17.6545C12.2013 17.7236 11.3549 17.9481 10.8108 16.9808C10.6467 16.6958 10.3358 16.4885 10.1026 16.2294ZM21.4425 25.7988C21.4425 26.5157 21.4425 27.172 21.4425 27.7939C21.3561 27.8457 21.3215 27.8889 21.287 27.8889C20.432 27.8457 19.9742 28.2603 19.8706 29.0894C19.8533 29.2362 19.7842 29.383 19.7065 29.5039C19.2315 30.2553 18.9206 30.9894 19.9915 31.6285C19.4474 32.1813 18.9897 32.6477 18.5146 33.1313C18.2728 32.9499 18.1174 32.8636 18.0051 32.7513C17.651 32.3972 17.3055 32.354 16.8564 32.6217C16.4332 32.8636 15.9668 33.0709 15.5005 33.1918C14.9823 33.33 14.6973 33.589 14.7318 34.1245C14.7577 34.5823 14.5418 34.7204 14.1186 34.7032C13.6522 34.6773 13.1772 34.6945 12.754 34.6945C12.6849 34.5995 12.6331 34.565 12.6331 34.5304C12.6677 33.6236 12.1926 33.1745 11.329 33.0449C11.1822 33.019 11.0353 32.9586 10.9144 32.8808C10.1976 32.3713 9.50666 32.259 8.84164 33.2177C8.34935 32.6477 7.92616 32.1467 7.48569 31.6285C7.48569 31.6285 7.47705 31.5681 7.50296 31.5508C8.1248 30.9894 8.21117 30.3849 7.68433 29.7026C7.53751 29.5039 7.44251 29.2448 7.39069 28.9944C7.2525 28.338 7.01068 27.8716 6.21611 27.9148C6.08656 27.9234 5.88792 27.6557 5.82746 27.4743C5.75837 27.2584 5.81882 27.0079 5.79291 26.7748C5.73246 26.1443 5.82746 25.6865 6.6393 25.7297C6.82931 25.7384 7.09704 25.4534 7.20932 25.2374C7.39933 24.8833 7.43387 24.4342 7.64979 24.106C8.11616 23.3806 8.24571 22.7328 7.29569 22.0764C7.8657 21.5755 8.36663 21.135 8.84164 20.7205C9.28211 20.945 9.73985 21.1782 10.353 21.4891C10.5344 21.6964 10.8712 22.0764 11.2513 22.5169C11.0958 22.6378 10.9403 22.7674 10.7762 22.8796C8.86755 24.2874 8.21117 26.792 9.20438 28.9253C10.2062 31.0758 12.5899 32.1986 14.8959 31.594C17.1414 31.0153 18.6701 28.8821 18.5492 26.5243C18.5406 26.317 18.601 26.0493 18.7306 25.8938C19.076 25.5138 19.4733 25.1856 19.9138 24.7797C19.9742 25.6779 20.6047 25.8765 21.4425 25.7988ZM29.8891 19.8223C28.9045 19.0623 28.9045 19.0623 28.1099 19.9864C27.3931 20.8155 26.6676 21.636 25.968 22.4824C25.7003 22.8019 25.4153 22.9487 24.9835 22.9487C23.6275 22.9401 22.2716 23.0092 20.9243 22.9919C20.2938 22.9833 19.8447 23.1819 19.4129 23.6483C17.9533 25.2202 16.4419 26.7488 14.8441 28.3984C14.5418 28.0443 14.3 27.7507 14.015 27.4139C14.0841 27.3189 14.1791 27.1893 14.2913 27.0684C15.8891 25.4102 17.4783 23.7519 19.1019 22.1196C19.3438 21.8778 19.7583 21.7137 20.0951 21.7051C21.5116 21.636 22.9366 21.6792 24.3444 21.6014C24.6985 21.5842 25.113 21.3596 25.3721 21.1005C26.0458 20.4096 26.659 19.6582 27.2808 18.9241C27.8163 18.2936 27.799 18.1554 27.1513 17.6286C26.9699 17.4818 26.7972 17.3263 26.5122 17.0845C27.7472 16.8686 28.87 16.6699 30.0877 16.454C30.1482 17.6631 30.2086 18.8032 30.2691 20.0468C30.0963 19.9432 29.9841 19.8914 29.8891 19.8223Z" fill="#4949FC"/>
<path d="M35.2443 24.6761C35.2443 23.942 34.9074 23.6224 34.182 23.6051C33.5169 23.5965 32.8519 23.5879 32.1869 23.6051C31.496 23.6224 31.1419 23.9506 31.1419 24.6415C31.1246 28.0789 31.1246 31.5163 31.1419 34.9536C31.1419 35.6446 31.5046 35.9728 32.1869 35.99C32.8346 36.0073 33.4737 35.9987 34.1215 35.99C34.9333 35.9814 35.2529 35.6705 35.2529 34.8586C35.2615 33.1831 35.2529 31.5076 35.2529 29.8321C35.2529 28.1048 35.2529 26.3861 35.2443 24.6761ZM34.1733 34.9191C33.5342 34.9191 32.8951 34.9191 32.2128 34.9191C32.2128 31.5163 32.2128 28.1221 32.2128 24.6588C32.8865 24.6588 33.5083 24.6588 34.1733 24.6588C34.1733 28.0789 34.1733 31.4731 34.1733 34.9191Z" fill="#4949FC"/>
<path d="M30.338 27.8025C30.3294 27.0425 30.0012 26.7143 29.2412 26.697C28.5761 26.6884 27.9111 26.6797 27.2461 26.697C26.5983 26.7143 26.2356 27.0511 26.2356 27.6989C26.2183 30.1258 26.2183 32.5526 26.2356 34.9709C26.2356 35.6186 26.5983 35.9555 27.2461 35.9727C27.9111 35.99 28.5761 35.9814 29.2412 35.9727C30.0098 35.9641 30.338 35.6446 30.3466 34.8759C30.3553 33.6927 30.3466 32.5181 30.3466 31.3349C30.338 30.1689 30.3466 28.9857 30.338 27.8025ZM29.2584 34.9191C28.6193 34.9191 27.9802 34.9191 27.2979 34.9191C27.2979 32.5526 27.2979 30.1862 27.2979 27.7507C27.9716 27.7507 28.5934 27.7507 29.2584 27.7507C29.2584 30.143 29.2584 32.5095 29.2584 34.9191Z" fill="#4949FC"/>
<path d="M25.6222 32.7513C25.6222 31.9999 25.6395 31.2485 25.6135 30.4971C25.5876 29.8235 25.2681 29.5298 24.6031 29.5126C23.8949 29.4953 23.1867 29.4953 22.4785 29.5126C21.848 29.5298 21.5284 29.8408 21.5198 30.4799C21.5025 31.9826 21.5025 33.4854 21.5198 34.9882C21.5284 35.6446 21.8653 35.9641 22.5216 35.9814C23.1867 35.9987 23.8517 35.99 24.5167 35.9814C25.2767 35.9727 25.6049 35.6532 25.6222 34.8759C25.6395 34.1677 25.6308 33.4595 25.6222 32.7513C25.6308 32.7513 25.6308 32.7513 25.6222 32.7513ZM24.5426 34.9104C23.9121 34.9104 23.2817 34.9104 22.5994 34.9104C22.5994 33.494 22.5994 32.069 22.5994 30.5749C23.2558 30.5749 23.869 30.5749 24.5426 30.5749C24.5426 32.0085 24.5426 33.4336 24.5426 34.9104Z" fill="#4949FC"/>
<path d="M18.6269 8.68105C18.7651 8.65514 18.8515 8.67241 18.8947 8.62923C19.361 8.17149 19.8447 7.72238 20.2679 7.2301C20.337 7.14373 20.242 6.76372 20.1211 6.69462C19.9656 6.59962 19.6374 6.59962 19.4992 6.7119C19.0847 7.04873 18.7046 7.42874 18.3678 7.83466C18.2642 7.96421 18.2555 8.23194 18.3074 8.41331C18.3333 8.54286 18.5406 8.62059 18.6269 8.68105Z" fill="#4949FC"/>
<path d="M13.6266 6.53053C13.7907 6.52189 14.0152 6.25416 14.0843 6.05551C14.1621 5.83096 14.1016 5.54595 14.1016 5.29549C14.1016 5.03639 14.1621 4.76002 14.0843 4.53547C14.0152 4.32819 13.7907 4.18137 13.6439 4C13.4625 4.17273 13.1429 4.31955 13.117 4.50956C13.0479 5.03639 13.0566 5.5805 13.1257 6.10733C13.1429 6.27143 13.4539 6.53053 13.6266 6.53053Z" fill="#4949FC"/>
<path d="M20.0525 13.2757C20.0784 13.4657 20.303 13.6989 20.5016 13.7766C20.7262 13.863 21.0112 13.7939 21.2617 13.7939C21.5208 13.7939 21.7971 13.8544 22.0303 13.7766C22.229 13.7075 22.4621 13.483 22.4967 13.3016C22.5226 13.1634 22.2721 12.8352 22.1167 12.818C21.5639 12.7575 21.0026 12.7575 20.4498 12.8093C20.2944 12.8266 20.0266 13.1375 20.0525 13.2757Z" fill="#4949FC"/>
<path d="M8.12513 8.49967C8.28923 8.62058 8.60878 8.52558 8.85924 8.52558C8.84197 8.27511 8.92834 7.9642 8.79879 7.79146C8.50514 7.40282 8.13377 7.07462 7.77103 6.74643C7.66739 6.65143 7.52057 6.60825 7.34784 6.52188C7.20965 6.63416 7.01965 6.71189 6.9851 6.84144C6.93328 7.0228 6.94192 7.29054 7.04555 7.42009C7.36511 7.80874 7.71921 8.19738 8.12513 8.49967Z" fill="#4949FC"/>
<path d="M5.26618 13.7767C5.49073 13.863 5.77574 13.7939 6.0262 13.7939C6.0262 13.7939 6.0262 13.7939 6.0262 13.8026C6.24212 13.8026 6.48394 13.8717 6.65668 13.7853C6.88123 13.6817 7.0626 13.4571 7.2526 13.2844C7.07123 13.1116 6.90714 12.8266 6.69986 12.8007C6.21621 12.7316 5.71529 12.7403 5.23164 12.8094C5.05027 12.8353 4.7998 13.1289 4.7998 13.3016C4.80844 13.4657 5.06754 13.6989 5.26618 13.7767Z" fill="#4949FC"/>
</svg>
