<svg width="58" height="58" viewBox="0 0 58 58" fill="none" xmlns="http://www.w3.org/2000/svg">
<g clip-path="url(#clip0_632_12158)">
<path d="M57.9997 36.5068C57.6674 37.1714 57.1237 37.3979 56.3836 37.3979C54.269 37.3677 52.1695 37.3828 50.0549 37.3828C48.8617 37.3828 48.6049 37.2016 48.2575 36.0235C48.1971 35.8422 48.1367 35.6761 48.0461 35.4042C47.4419 35.812 46.868 36.1896 46.3091 36.5974C46.2185 36.6578 46.2185 36.8693 46.2185 37.0052C46.3242 39.286 44.8591 41.038 42.5633 41.3099C42.2008 41.3552 42.0195 41.4912 41.8383 41.7933C40.8414 43.3792 39.3461 44.0287 37.5185 43.938C37.1409 43.9229 36.9596 44.0136 36.7784 44.3156C35.7362 46.0073 33.682 46.8683 32.0206 46.3094C31.9148 46.2792 31.7487 46.2641 31.6581 46.3245C30.0117 47.3667 28.3201 47.0948 26.6133 46.5057C25.3294 46.0677 24.2419 45.2823 23.1846 44.4667C20.2091 42.1557 17.2185 39.8599 14.3185 37.4735C12.8534 36.2651 11.5846 34.8302 10.2253 33.5011C10.1648 33.4406 10.0893 33.3802 10.0138 33.3198C9.96849 33.3651 9.93828 33.3953 9.93828 33.4255C9.31901 34.9511 9.31901 34.9511 7.64245 34.9511C5.6487 34.9511 3.65495 34.9511 1.64609 34.9511C0.513281 34.9511 0.105469 34.5584 0.105469 33.4255C0.105469 26.4021 0.105469 19.3636 0.105469 12.3401C0.105469 11.2375 0.573698 10.7693 1.6612 10.8448C5.12005 11.1167 8.57891 11.3886 11.9018 12.4307C12.5211 12.6271 13.1253 12.9141 13.6992 13.2162C14.394 13.5787 14.681 14.1677 14.5148 14.9531C14.4695 15.1495 14.4695 15.361 14.4393 15.6328C14.681 15.6479 14.8773 15.663 15.0737 15.663C17.8982 15.663 20.7227 15.6781 23.5471 15.6479C23.8643 15.6479 24.2117 15.5271 24.4685 15.3459C26.281 14.0318 28.2143 13.2011 30.5102 13.4276C31.9299 13.5787 33.244 14.0771 34.5581 14.6209C36.5669 15.4667 38.5909 16.2974 40.6148 17.113C40.781 17.1886 40.9622 17.2339 41.068 17.2792C41.1888 16.8714 41.2039 16.4334 41.4305 16.1313C41.657 15.8443 42.0648 15.663 42.4122 15.5271C45.5841 14.2886 48.8919 13.7146 52.2602 13.4276C53.6346 13.3068 55.0091 13.3068 56.3836 13.2162C57.1237 13.1709 57.6674 13.4276 57.9997 14.0922C57.9997 21.5839 57.9997 29.0453 57.9997 36.5068ZM14.0466 18.0948C13.8956 18.8198 13.7747 19.4995 13.5935 20.1641C12.7174 23.487 11.8112 26.8099 10.9352 30.1479C10.8747 30.3594 10.8747 30.7068 11.0107 30.8427C12.4305 32.3229 13.7747 33.9089 15.3607 35.1927C18.7742 38.0021 22.2935 40.6906 25.8279 43.3641C26.5378 43.9078 27.4742 44.1646 28.3201 44.4969C28.6674 44.6328 29.0753 44.5875 29.468 44.6177C29.4982 44.5422 29.5435 44.4667 29.5737 44.3761C28.3352 43.1828 27.1117 42.0047 25.8883 40.7964C25.42 40.3281 24.9669 39.8599 24.5289 39.3615C24.0758 38.8328 24.1513 38.1229 24.6346 37.6849C25.0878 37.262 25.7826 37.2771 26.2659 37.7302C26.432 37.8813 26.5831 38.0625 26.7341 38.2136C28.5617 40.0261 30.3893 41.8537 32.232 43.6662C32.7154 44.1495 33.3044 44.1797 33.8331 43.8323C34.2711 43.5453 34.6185 43.1375 34.9961 42.7901C33.1383 40.887 31.4013 39.0896 29.6643 37.2922C29.5133 37.1412 29.3773 36.9901 29.2565 36.824C28.9242 36.3104 29.0148 35.6761 29.4529 35.2834C29.8909 34.8906 30.5404 34.8604 31.0086 35.238C31.2049 35.3891 31.356 35.5854 31.5221 35.7516C33.2591 37.5037 34.981 39.2709 36.7482 40.9927C37.5336 41.763 38.606 41.7026 39.4367 40.9776C39.9049 40.5547 39.9049 40.3735 39.482 39.9505C37.3674 37.8057 35.2378 35.661 33.1232 33.5162C32.5341 32.9271 32.519 32.2172 33.0174 31.7188C33.5461 31.1901 34.2409 31.2354 34.8602 31.8547C35.4341 32.4287 35.9779 33.0177 36.5518 33.5917C38.1982 35.238 39.8596 36.8844 41.506 38.5459C41.8232 38.863 42.1857 38.999 42.6388 38.863C43.6055 38.5761 44.0586 37.6245 43.6357 36.7183C43.4695 36.3709 43.2581 36.0084 42.9862 35.7214C42.1706 34.8453 41.37 33.924 40.4638 33.1386C37.0503 30.2235 33.6065 27.3537 30.1628 24.4839C30.0419 24.3933 29.7852 24.3781 29.619 24.4386C29.0904 24.6198 28.5919 24.9219 28.0482 25.0427C27.5044 25.1636 27.1268 25.4505 26.7643 25.8584C25.0727 27.7313 23.0034 28.4261 20.5414 27.7464C18.6534 27.2177 17.7622 25.7526 18.1398 23.8193C18.5326 21.7953 19.6352 20.149 20.9341 18.6084C21.0701 18.4422 21.206 18.2912 21.3872 18.0797C18.8799 18.0948 16.4935 18.0948 14.0466 18.0948ZM45.131 34.4677C45.7654 34.0448 46.3695 33.6219 46.9888 33.2292C47.2456 33.063 47.2758 32.8969 47.17 32.625C45.7351 28.713 44.3003 24.786 42.8654 20.8589C42.8049 20.6776 42.6086 20.4662 42.4273 20.4058C39.1497 19.0766 35.8721 17.7625 32.5945 16.4334C30.631 15.6479 28.6674 15.4818 26.8096 16.7052C24.7555 18.0495 22.943 19.6656 21.6289 21.75C21.1305 22.5354 20.8284 23.4417 20.5112 24.3177C20.3753 24.7104 20.4055 25.2089 20.9341 25.3297C21.493 25.4656 22.082 25.6016 22.6409 25.5714C23.8945 25.4959 24.695 24.6651 25.4352 23.7438C25.6768 23.4417 25.9638 23.1094 26.2961 22.9886C27.3987 22.5656 28.5315 22.2485 29.6492 21.8406C30.2685 21.6141 30.7518 21.7198 31.2503 22.1729C32.4133 23.2151 33.5914 24.2573 34.7846 25.2542C38.3039 28.2146 42.0799 30.9031 45.131 34.4677ZM44.0737 17.5511C44.2398 17.9136 44.3909 18.261 44.5419 18.6084C46.7018 23.7891 48.5596 29.0755 50.2664 34.4073C50.4174 34.8604 50.6138 34.9813 51.0518 34.9662C52.3508 34.936 53.6497 34.9511 54.9487 34.9511C55.145 34.9511 55.3414 34.936 55.5529 34.9209C55.5529 28.4865 55.5529 22.0974 55.5529 15.7235C53.0758 15.512 46.4299 16.5542 44.0737 17.5511ZM2.53724 32.5193C4.28932 32.5193 5.96589 32.5193 7.68776 32.5193C8.12578 31.0693 8.5638 29.6646 8.98672 28.2297C10.1951 24.061 11.3732 19.8771 12.0378 15.5724C12.1133 15.0891 11.9622 14.9078 11.5544 14.8172C9.62109 14.4245 7.68776 14.0167 5.75443 13.6693C4.71224 13.488 3.63984 13.4276 2.53724 13.3219C2.53724 19.7563 2.53724 26.1302 2.53724 32.5193Z" fill="black"/>
</g>
<defs>
<clipPath id="clip0_632_12158">
<rect width="58" height="58" fill="white"/>
</clipPath>
</defs>
</svg>
