<svg width="58" height="58" viewBox="0 0 58 58" fill="none" xmlns="http://www.w3.org/2000/svg">
<g clip-path="url(#clip0_632_12219)">
<path d="M48.213 15.8594C48.2734 15.8896 48.3792 15.95 48.4698 15.9953C50.524 17.0375 51.5964 18.699 51.6568 21.0099C51.6568 21.2365 51.7172 21.5083 51.8531 21.6745C54.4208 24.801 53.6958 29.1661 51.1583 31.7036C50.8109 32.051 50.6146 32.5344 50.3276 32.9422C49.8141 33.6521 49.3458 34.4073 48.7568 35.0417C48.4245 35.3891 48.6208 35.6458 48.6661 35.9479C48.7115 36.2349 48.787 36.4766 49.1646 36.5219C49.9651 36.6578 50.7656 36.8089 51.551 36.9901C54.6927 37.6849 57.0792 40.5094 57.1094 43.7115C57.1547 48.0917 57.1245 52.4568 57.1245 56.837C57.1245 56.9125 57.1094 56.988 57.0943 57.0938C38.3802 57.0938 19.6812 57.0938 0.921875 57.0938C0.921875 56.8823 0.921875 56.6859 0.921875 56.4745C0.921875 52.3813 0.921875 48.288 0.921875 44.2099C0.921875 40.449 3.24792 37.6245 6.94844 36.8995C7.58281 36.7787 8.20208 36.6276 8.83646 36.537C9.22917 36.4766 9.31979 36.2349 9.3651 35.9328C9.41042 35.6307 9.62187 35.3438 9.22917 35.0417C8.39844 34.4073 7.86979 33.5464 7.5224 32.5646C7.44688 32.3531 7.29583 32.1417 7.11458 31.9755C5.3625 30.3141 4.50156 28.275 4.53177 25.8734C4.54688 24.5745 4.53177 23.2755 4.53177 21.9766C4.53177 20.6927 5.15104 19.8016 6.32917 19.3031C6.4651 19.2427 6.63125 19.137 6.70677 19.0161C7.79427 17.0828 7.86979 16.9922 9.83333 15.8443C8.57969 14.5 7.96042 12.9594 8.21719 11.1469C8.41354 9.71198 9.07813 8.54896 10.1958 7.64271C12.3406 5.90573 15.4521 6.08698 17.4156 8.02032C19.1828 9.75729 19.9229 13.0953 17.3401 15.8292C18.5031 16.3276 19.4396 17.0828 20.1042 18.2005C20.6328 17.6417 21.1464 17.113 21.6448 16.5391C21.7505 16.4182 21.7505 16.1917 21.7505 16.0104C21.675 13.4276 22.7776 11.5547 25.149 10.4521C25.1792 10.437 25.1943 10.3917 25.2245 10.3615C22.4755 7.37084 23.6083 3.88177 25.5115 2.28073C27.6714 0.468232 30.8734 0.60417 32.8672 2.59792C34.7401 4.45573 35.2385 7.79375 32.7766 10.3615C32.9276 10.437 33.0635 10.5276 33.1995 10.588C35.1781 11.6302 36.2354 13.2615 36.2505 15.4969C36.2505 16.1464 36.3714 16.6448 36.8849 17.0677C37.2625 17.3698 37.5344 17.7927 37.8818 18.1854C38.5615 17.0979 39.4526 16.2974 40.6911 15.8141C40.5703 15.6781 40.4948 15.5875 40.4193 15.4969C38.9089 13.8354 38.5615 11.5094 39.5281 9.50052C40.4948 7.50677 42.5339 6.28334 44.7693 6.43438C45.162 6.46459 45.3734 6.35886 45.6302 6.07188C46.9292 4.63698 48.9833 4.19896 50.7505 4.96927C52.4875 5.72448 53.575 7.50677 53.4693 9.4099C53.3635 11.2828 52.0495 12.9292 50.1917 13.4276C49.7234 13.5484 49.4969 13.775 49.2854 14.1979C48.9833 14.8021 48.5906 15.3005 48.213 15.8594ZM38.0328 35.5703C38.0328 35.5703 38.0479 35.5401 38.0479 35.4948C38.0479 31.6885 38.1234 27.8823 38.0328 24.076C37.9271 19.4391 33.8943 15.5724 29.2422 15.4969C24.0615 15.4214 19.9531 19.4391 19.938 24.6047C19.9229 28.1089 19.938 31.613 19.938 35.1172C19.938 35.2833 19.938 35.4495 19.938 35.5552C21.3125 35.2984 22.6417 35.1021 23.9557 34.7849C24.3635 34.6943 24.726 34.3469 25.0432 34.0448C25.3604 33.7276 25.3302 33.4557 24.8922 33.1536C23.1703 31.9755 22.0677 30.3443 21.8562 28.275C21.7052 26.7646 21.7807 25.224 21.7505 23.6984C21.7505 23.4266 21.7505 23.1396 21.7505 22.8828C22.4604 22.7469 23.0797 22.6109 23.7141 22.4901C25.3755 22.1427 26.7802 21.3422 27.8375 20.013C27.9885 19.8318 28.0641 19.5448 28.0792 19.3031C28.1094 18.6537 28.0943 17.9891 28.0943 17.3245C28.7286 17.3245 29.3026 17.3245 29.8615 17.3245C29.8766 17.4 29.8917 17.4302 29.9068 17.4604C29.9068 17.687 29.9521 17.9135 29.9068 18.1401C29.5896 19.6656 30.4203 20.6172 31.5984 21.3271C32.2932 21.75 33.0635 22.0974 33.849 22.3542C34.6042 22.6109 35.4198 22.7167 36.2656 22.8828C36.2656 24.4385 36.2807 25.9792 36.2656 27.5198C36.2505 29.1208 35.7521 30.5708 34.725 31.7943C34.151 32.4589 33.4562 33.0177 32.7766 33.6521C32.9729 34.2563 33.4411 34.6792 34.151 34.8151C35.4047 35.087 36.7036 35.3287 38.0328 35.5703ZM28.0943 55.2813C28.0943 52.6984 28.0943 50.1609 28.0943 47.6385C28.0943 47.4573 28.0339 47.2609 27.9432 47.1099C26.176 43.8323 24.4089 40.5547 22.6417 37.262C22.4906 36.975 22.3245 36.8995 22.0224 36.975C20.8594 37.2167 19.787 37.6547 18.8203 38.3344C17.476 39.2859 16.5245 40.5396 15.9203 42.0802C15.1651 44.0287 15.4521 46.0375 15.3917 48.0313C16.6453 48.0313 17.8234 48.0313 19.0469 48.0313C18.8958 46.0526 19.2281 44.1948 19.9984 42.3672C20.5573 42.5635 21.101 42.7297 21.5995 42.9109C21.6146 43.0016 21.6146 43.0318 21.6146 43.0771C21.5995 43.1526 21.5844 43.2281 21.5542 43.2885C20.4818 46.0375 20.6026 48.7411 21.8562 51.3995C22.4151 52.5776 22.8078 53.7708 22.6417 55.0849C22.6266 55.1453 22.6719 55.2208 22.687 55.2813C24.4995 55.2813 26.2667 55.2813 28.0943 55.2813ZM42.5792 48.0464C42.5792 46.838 42.6094 45.6901 42.5792 44.5573C42.4432 40.9021 39.6641 37.6849 36.0844 36.9901C35.6917 36.9146 35.4953 37.0052 35.299 37.3677C33.5922 40.5698 31.8552 43.7568 30.1484 46.974C30.0125 47.2307 29.9219 47.5328 29.9219 47.8198C29.9068 49.7531 29.9068 51.7016 29.9068 53.6349C29.9068 54.1786 29.9068 54.7224 29.9068 55.2662C31.7495 55.2662 33.5318 55.2662 35.4198 55.2662C34.9818 53.499 35.888 52.0641 36.462 50.5385C36.4771 50.4932 36.4922 50.4328 36.5224 50.3724C37.2927 48.3938 37.3682 46.3849 36.7641 44.3458C36.6281 43.8776 36.4771 43.4245 36.326 42.9109C36.9151 42.7146 37.4589 42.5333 38.0026 42.3521C38.7729 44.2099 39.0901 46.0828 38.9542 48.0313C40.1927 48.0464 41.3557 48.0464 42.5792 48.0464ZM11.7818 55.2813C11.7818 53.2724 11.7818 51.324 11.7818 49.3604C11.7818 49.2094 11.7063 49.0281 11.6156 48.8922C9.90885 45.7052 8.18698 42.5333 6.48021 39.3464C6.28385 38.9839 6.1026 38.9537 5.78542 39.1349C3.82188 40.1318 2.76458 41.7328 2.73438 43.9229C2.68906 47.5781 2.71927 51.2333 2.71927 54.8734C2.71927 54.9943 2.71927 55.1302 2.71927 55.2662C3.35365 55.2662 3.9276 55.2662 4.54688 55.2662C4.54688 51.9432 4.54688 48.6656 4.54688 45.3729C5.16615 45.3729 5.725 45.3729 6.34427 45.3729C6.34427 48.6807 6.34427 51.9734 6.34427 55.2813C8.17188 55.2813 9.93906 55.2813 11.7818 55.2813ZM55.2667 55.2813C55.2667 51.324 55.3422 47.4271 55.2365 43.5302C55.176 41.5516 54.0583 40.0865 52.276 39.1651C51.9135 38.9688 51.7172 38.999 51.4906 39.4068C49.8141 42.5635 48.1073 45.7052 46.4156 48.862C46.3099 49.0583 46.2344 49.2849 46.2344 49.4964C46.2193 51.3391 46.2193 53.1969 46.2344 55.0396C46.2344 55.1302 46.2646 55.2057 46.2797 55.2813C48.0771 55.2813 49.8443 55.2813 51.6719 55.2813C51.6719 51.9583 51.6719 48.6807 51.6719 45.4031C52.3063 45.4031 52.8802 45.4031 53.4995 45.4031C53.4995 48.726 53.4995 51.9885 53.4995 55.2964C54.0885 55.2813 54.6474 55.2813 55.2667 55.2813ZM23.5026 24.3781C23.563 25.7375 23.4875 27.0818 23.699 28.3807C24.1219 30.9333 26.5234 32.7156 29.2422 32.6703C31.8099 32.625 33.9547 30.8276 34.3323 28.2599C34.4984 27.1271 34.3927 25.9641 34.438 24.8313C34.4531 24.4839 34.3474 24.3479 33.9849 24.2875C32.3234 23.9703 30.8432 23.2604 29.5896 22.1125C29.3932 21.9313 29.1818 21.7349 28.9703 21.5234C27.5052 23.1245 25.6927 24.0307 23.5026 24.3781ZM7.20521 29.2115C7.37135 27.1875 8.09635 26.387 9.96927 26.1C10.5281 26.0094 11.087 25.9339 11.6458 25.8432C12.4464 25.7073 13.0354 25.2844 13.3677 24.5443C13.4885 24.2573 13.549 23.9552 13.6396 23.6682C14.2286 23.6682 14.7875 23.6682 15.4068 23.6682C15.3464 24.1214 15.2708 24.5443 15.2104 24.9521C16.7359 25.6016 17.6422 26.7344 18.0651 28.2901C18.0953 28.1844 18.0953 28.0786 18.0953 27.988C18.1255 26.387 18.1708 24.7859 18.1859 23.1849C18.1859 22.9885 18.0802 22.7469 17.9594 22.5807C17.0833 21.5385 15.9505 20.9344 14.5609 20.9193C12.1594 20.8891 9.77292 20.9042 7.37135 20.9193C6.66146 20.9193 6.31406 21.2516 6.31406 21.9464C6.29896 23.4115 6.29896 24.8917 6.32917 26.3568C6.37448 27.3385 6.63125 28.2448 7.20521 29.2115ZM50.7807 29.0755C50.826 29.0604 50.8563 29.0755 50.8714 29.0604C52.8047 25.7526 51.0677 21.7198 47.4729 21.0552C46.3854 20.8589 45.2526 20.9344 44.15 20.9344C42.851 20.9344 41.7182 21.4026 40.7516 22.2484C40.1474 22.7771 39.7849 23.3359 39.8604 24.2271C39.9813 25.5714 39.8906 26.9307 39.8906 28.2901C40.3286 26.6891 41.3104 25.5865 42.7755 24.937C42.7151 24.4839 42.6547 24.076 42.5943 23.6682C43.2438 23.6682 43.8328 23.6682 44.3917 23.6682C44.6484 25.088 45.313 25.7224 46.7177 25.8885C47.2917 25.9641 47.8807 26.0396 48.4547 26.1302C49.6328 26.3266 50.5391 27.2479 50.7354 28.426C50.7505 28.6526 50.7656 28.8641 50.7807 29.0755ZM16.3583 30.0875C16.3432 30.0875 16.3281 30.0875 16.313 30.0875C16.313 29.7552 16.3281 29.4078 16.313 29.0755C16.2677 27.988 15.5578 26.9911 14.5609 26.674C14.3797 26.6135 14.1078 26.6438 13.9568 26.7646C13.3073 27.263 12.5974 27.5651 11.7969 27.6708C11.1625 27.7615 10.5281 27.8521 9.89375 27.9427C9.3651 28.0182 9.07812 28.3354 9.07812 28.8641C9.06302 29.6344 9.04792 30.4047 9.09323 31.175C9.19896 32.912 10.649 34.3469 12.401 34.4979C14.1833 34.649 15.8448 33.4557 16.2224 31.7188C16.313 31.1901 16.2979 30.6313 16.3583 30.0875ZM48.9833 30.0573C48.9682 30.0573 48.9531 30.0573 48.938 30.0573C48.938 29.9063 48.938 29.7552 48.938 29.6042C48.938 28.0938 48.8474 28.0031 47.3521 27.8219C47.337 27.8219 47.3219 27.8219 47.2917 27.8219C46.1135 27.6557 44.9203 27.5349 43.9688 26.6891C43.863 26.5984 43.576 26.6135 43.4099 26.674C42.3526 27.112 41.7635 27.9125 41.688 29.0453C41.6427 29.6948 41.6578 30.3594 41.688 31.024C41.7484 32.8214 43.1682 34.3167 44.9656 34.4828C46.763 34.649 48.4396 33.4557 48.8172 31.6885C48.938 31.1599 48.938 30.601 48.9833 30.0573ZM24.3333 36.6125C24.9073 37.6849 25.451 38.712 26.025 39.7089C26.0854 39.8297 26.3271 39.9052 26.4781 39.9203C28.1547 39.9354 29.8313 39.9354 31.5078 39.9203C31.6589 39.9203 31.9005 39.8297 31.9609 39.7089C32.5349 38.6969 33.0786 37.6698 33.5922 36.7031C33.0333 36.3708 32.4594 36.1443 32.0214 35.7516C31.5682 35.3438 31.2661 34.8 30.9339 34.3771C29.5896 34.3771 28.2755 34.3771 26.9161 34.3771C26.5083 35.4948 25.6172 36.25 24.3333 36.6125ZM32.5953 6.47969C30.1635 6.47969 27.7771 6.47969 25.3906 6.47969C25.3906 8.47344 27.037 10.0745 29.0307 10.0594C30.9943 10.0443 32.6104 8.42813 32.5953 6.47969ZM10.0146 11.9021C9.89375 13.8203 11.6307 15.5271 13.6547 15.4969C15.6182 15.4667 17.3099 13.7448 17.174 11.9021C14.7875 11.9021 12.401 11.9021 10.0146 11.9021ZM40.8271 11.9021C40.6911 13.7448 42.3828 15.4667 44.3464 15.4969C46.3703 15.5271 48.1073 13.8203 47.9865 11.9021C45.6 11.9021 43.2135 11.9021 40.8271 11.9021ZM37.187 55.2662C38.3953 55.2662 39.5734 55.2662 40.7365 55.2662C40.7365 53.4537 40.7365 51.6714 40.7365 49.874C40.1021 49.874 39.5281 49.8438 38.9391 49.8891C38.7729 49.9042 38.5615 50.0703 38.501 50.2365C38.1688 51.037 37.9271 51.8677 37.5495 52.6531C37.1568 53.4839 37.0964 54.3448 37.187 55.2662ZM17.2495 49.874C17.2495 51.7167 17.2495 53.499 17.2495 55.2964C17.8687 55.2964 18.4578 55.2964 19.0318 55.2964C19.6208 55.2964 20.225 55.2964 20.799 55.2964C20.9198 54.2693 20.799 53.3932 20.3911 52.5172C20.0437 51.7771 19.8021 50.9766 19.4849 50.2063C19.4245 50.0552 19.2281 49.8891 19.0922 49.874C18.5031 49.8589 17.899 49.874 17.2495 49.874ZM47.2615 7.06875C47.8656 7.74844 48.5755 8.35261 49.0286 9.10782C49.4818 9.86302 49.6781 10.7542 49.9953 11.6C50.9318 11.2828 51.6266 10.3313 51.6568 9.24375C51.687 8.12605 51.0224 7.09896 49.9802 6.66094C48.9682 6.23802 47.8505 6.44948 47.2615 7.06875ZM42.6094 55.2813C43.2286 55.2813 43.7875 55.2813 44.3464 55.2813C44.5427 53.7859 44.437 49.3151 44.2557 49.0734C43.712 49.3906 43.1833 49.7078 42.6094 50.0552C42.6094 51.7167 42.6094 53.4839 42.6094 55.2813ZM13.6245 55.2662C14.2286 55.2662 14.8026 55.2662 15.4068 55.2662C15.4068 53.5443 15.4068 51.8677 15.4068 50.1911C15.4068 50.1005 15.3917 50.0099 15.3917 50.0703C14.7724 49.6927 14.2438 49.3755 13.7151 49.0583C13.549 49.3453 13.4583 53.3932 13.6245 55.2662ZM16.6755 10.0443C15.8901 8.83594 14.8479 8.24688 13.5036 8.27709C12.2198 8.30729 11.238 8.91146 10.4979 10.0443C12.5974 10.0443 14.5911 10.0443 16.6755 10.0443ZM32.0516 4.62188C31.4021 3.41354 30.0276 2.68854 28.6531 2.83959C27.475 2.97552 26.5536 3.53438 25.9042 4.62188C28.0036 4.62188 29.9974 4.62188 32.0516 4.62188ZM41.3104 10.0292C43.4099 10.0292 45.4188 10.0292 47.488 10.0292C46.7026 8.85105 45.6755 8.24688 44.3312 8.27709C43.0474 8.27709 42.0656 8.88125 41.3104 10.0292ZM27.1125 41.7479C27.762 42.9412 28.351 44.0589 29.0005 45.2521C29.6651 44.0287 30.2542 42.9109 30.8885 41.7479C29.5896 41.7479 28.4115 41.7479 27.1125 41.7479ZM40.0266 32.187C39.9813 32.2021 39.9208 32.2172 39.8755 32.2323C39.8755 33.6219 39.8604 35.0115 39.8906 36.401C39.8906 36.5219 40.1776 36.7484 40.3135 36.7333C40.7365 36.7031 41.1745 36.5974 41.5823 36.4917C41.8995 36.4161 42.2469 35.4042 42.0052 35.2078C41.0385 34.4073 40.374 33.4104 40.0266 32.187ZM18.1255 32.1719C18.0047 32.2474 17.9594 32.2625 17.9443 32.2776C17.5818 33.4255 16.9625 34.3771 16.026 35.1474C15.724 35.3891 16.0411 36.401 16.4339 36.4917C16.8417 36.5823 17.2495 36.6578 17.6573 36.7333C17.9594 36.7938 18.1255 36.688 18.1255 36.3557C18.1255 34.9813 18.1255 33.6068 18.1255 32.1719ZM27.2182 11.9021C27.2333 12.9141 27.9885 13.6693 28.9552 13.6844C29.9521 13.6995 30.7375 12.9443 30.7677 11.9021C29.5896 11.9021 28.4115 11.9021 27.2182 11.9021ZM15.3766 17.3396C14.1531 17.3396 12.975 17.3396 11.7969 17.3396C11.8724 18.3818 12.6125 19.1068 13.5792 19.1219C14.5609 19.1068 15.2859 18.3969 15.3766 17.3396ZM42.6094 17.3245C42.7 18.4422 43.5005 19.1823 44.5125 19.1068C45.4641 19.0464 46.2042 18.2307 46.1437 17.3245C44.9807 17.3245 43.8177 17.3245 42.6094 17.3245ZM44.3464 43.5453C44.3161 44.8141 44.4521 45.9771 45.3583 46.9589C45.5245 46.6568 45.6453 46.3245 45.8568 46.0677C46.5214 45.2672 46.2948 44.5271 45.7812 43.787C45.7057 43.6813 45.5698 43.5604 45.449 43.5453C45.0714 43.5302 44.7089 43.5453 44.3464 43.5453ZM12.6427 46.974C13.549 45.9469 13.7 44.799 13.6396 43.5755C12.3708 43.4698 12.3708 43.4698 11.8271 44.5422C11.7818 44.6479 11.7063 44.7385 11.676 44.8443C11.6458 44.9651 11.6307 45.1161 11.6911 45.2219C11.9932 45.8109 12.3104 46.3698 12.6427 46.974ZM40.7516 17.8682C39.4677 18.4875 38.7578 20.0432 39.3167 20.9495C40.0568 20.4813 40.7818 20.013 41.5068 19.5599C41.2651 19.0313 41.0234 18.4724 40.7516 17.8682ZM43.7875 36.2198C43.7573 36.3557 43.6969 36.5672 43.6516 36.7938C43.8026 36.8995 43.9385 37.0052 44.0745 37.0958C45.313 37.9266 45.2979 37.9115 46.5667 37.126C47.05 36.824 47.0349 36.537 46.8385 36.2198C45.7812 36.2198 44.8146 36.2198 43.7875 36.2198ZM14.2135 36.2198C13.1562 36.2198 12.1745 36.2198 11.1474 36.2198C11.1172 36.3859 11.0719 36.6125 11.0266 36.824C11.5099 37.1412 11.9479 37.4734 12.4161 37.7453C12.537 37.8208 12.7786 37.851 12.8995 37.7755C13.3979 37.4885 13.8661 37.1412 14.3495 36.824C14.3042 36.5672 14.2589 36.3708 14.2135 36.2198ZM16.5698 19.3787C17.325 19.8167 18.0651 20.2547 18.8052 20.6776C19.1828 19.8469 18.2615 18.2156 17.1891 17.8833C17.1135 18.125 17.0531 18.3818 16.9474 18.6234C16.8417 18.8802 16.6906 19.1219 16.5698 19.3787ZM25.3604 12.4609C24.4089 12.8839 23.6385 14.0771 23.699 15.0135C24.4844 14.6964 25.2698 14.3641 26.025 14.0469C25.8135 13.5182 25.6021 13.0047 25.3604 12.4609ZM31.9458 14.0771C32.3385 14.213 32.7313 14.349 33.124 14.5C33.5167 14.6661 33.8943 14.8474 34.3021 15.0286C34.3625 14.0016 33.4411 12.6724 32.6255 12.476C32.399 13.0047 32.1875 13.5182 31.9458 14.0771ZM14.4552 40.8568C13.5943 40.751 13.0203 39.6182 12.0083 40.4036C12.3708 41.763 12.3708 41.7328 13.7 41.7479C14.3495 41.763 14.2286 41.2646 14.4552 40.8568ZM43.576 40.9021C43.6365 41.0682 43.6667 41.2193 43.7271 41.3552C43.7875 41.4911 43.8479 41.612 43.9083 41.7177C45.6906 41.7932 45.7208 41.763 45.9776 40.2828C45.6906 40.2375 45.3583 40.0714 45.1167 40.162C44.588 40.3432 44.1047 40.6453 43.576 40.9021ZM49.8896 38.5609C48.4396 38.0474 47.8807 38.138 47.2313 38.9536C47.8656 39.2708 48.5 39.588 49.1646 39.9203C49.4214 39.4521 49.6479 39.0141 49.8896 38.5609ZM8.83646 39.9354C9.51615 39.588 10.1505 39.2708 10.7849 38.9536C9.99948 37.8964 9.07812 38.3042 8.09635 38.5458C8.35313 39.0292 8.59479 39.4672 8.83646 39.9354ZM48.0469 17.8229C47.8807 18.3063 47.7146 18.7443 47.5635 19.1672C48.2583 19.3786 48.9229 19.5901 49.6479 19.8167C49.3458 18.9255 48.8172 18.3063 48.0469 17.8229ZM9.93906 17.7172C9.47083 18.1854 9.06302 18.5781 8.56458 19.0917C9.30469 19.0917 9.83333 19.0917 10.3922 19.0917C10.2563 18.6688 10.1354 18.2911 9.93906 17.7172ZM10.5432 43.0771C10.9661 42.3068 10.4526 41.8234 10.362 41.2042C10.1052 41.325 9.92396 41.4156 9.7125 41.5214C9.96927 42.0349 10.226 42.5031 10.5432 43.0771ZM47.6089 41.1891C47.5635 41.8385 46.9896 42.3219 47.4729 43.0469C47.775 42.5031 48.0318 42.0198 48.2885 41.5214C48.062 41.4156 47.9109 41.3401 47.6089 41.1891ZM14.5307 38.863C15.3313 39.4219 15.6484 39.2708 16.026 38.274C15.3766 38.0323 15.0745 38.6365 14.5307 38.863ZM41.8693 38.3042C42.1563 38.6667 42.3979 38.9839 42.6698 39.3161C42.9266 39.1953 43.1682 39.0745 43.5156 38.8932C42.9417 38.6214 42.6245 38.0323 41.8693 38.3042Z" fill="#DBDBDB"/>
<path d="M25.5117 28.5469C26.0404 28.275 26.5388 28.0333 27.0372 27.7917C28.4117 29.4984 29.7711 29.4984 30.9492 27.7766C31.4477 28.0182 31.9612 28.275 32.4747 28.5318C32.0518 29.8156 30.6773 30.7974 29.2273 30.8729C27.5961 30.9484 26.1461 30.0573 25.5117 28.5469Z" fill="#DBDBDB"/>
</g>
<defs>
<clipPath id="clip0_632_12219">
<rect width="58" height="58" fill="white"/>
</clipPath>
</defs>
</svg>
