<svg width="58" height="58" viewBox="0 0 58 58" fill="none" xmlns="http://www.w3.org/2000/svg">
<g clip-path="url(#clip0_632_12168)">
<path d="M0 27.2479C0.151042 26.1755 0.271875 25.088 0.453125 24.0156C2.35625 12.4458 11.7812 2.8396 23.351 0.649494C27.9729 -0.226548 32.5495 -0.0452978 37.0807 1.23856C38.0474 1.51043 38.576 2.20522 38.5307 3.12658C38.4854 3.95731 37.8812 4.6672 37.0354 4.78804C36.7031 4.83335 36.3255 4.75783 35.9781 4.6672C28.5469 2.71876 21.5385 3.67033 15.1042 7.89949C8.63958 12.1589 4.81823 18.2005 3.85156 25.8886C2.43177 37.1865 8.51875 47.7292 18.9708 52.3209C28.9245 56.686 40.9776 53.9521 48.0766 45.7354C51.5656 41.6875 53.6349 37.0354 54.224 31.7339C54.5865 28.4563 54.2844 25.224 53.3781 22.0521C52.9703 20.6474 53.8312 19.4693 55.1604 19.5448C55.9307 19.5901 56.6255 20.0583 56.7917 20.874C57.1844 22.7469 57.5167 24.6349 57.8641 26.5229C57.9094 26.7646 57.9396 27.0063 57.9849 27.2479C57.9849 28.4563 57.9849 29.6646 57.9849 30.8729C57.9547 31.024 57.9094 31.1599 57.8943 31.311C57.6979 32.6552 57.5771 33.9995 57.3052 35.3287C54.9641 46.5662 45.3729 55.7344 34.0448 57.562C32.9724 57.7432 31.8849 57.8641 30.7974 58.0151C29.5891 58.0151 28.3807 58.0151 27.1724 58.0151C27.0516 57.9849 26.9156 57.9396 26.7948 57.9245C25.4656 57.7281 24.1365 57.6073 22.8224 57.3354C11.6 55.0849 2.28073 45.4333 0.453125 34.1505C0.271875 33.063 0.151042 31.9604 0 30.8578C0 29.6495 0 28.4563 0 27.2479Z" fill="#DBDBDB"/>
<path d="M57.9996 11.0713C57.6522 11.5094 57.3652 11.9927 56.9725 12.3854C55.0996 14.2885 53.1814 16.1614 51.3084 18.0797C50.7496 18.6385 50.1303 18.9104 49.36 18.9708C46.611 19.2276 43.8772 19.4995 41.1433 19.7864C40.9017 19.8167 40.6298 19.9979 40.4485 20.1943C37.1105 23.5172 33.7725 26.8401 30.4345 30.1781C29.8605 30.7521 29.2261 31.0088 28.4407 30.7521C27.2475 30.3594 26.8095 28.9245 27.5798 27.9427C27.7006 27.7766 27.8668 27.6406 28.0027 27.4896C31.2954 24.1969 34.6032 20.9193 37.8808 17.6114C38.0923 17.4 38.2584 17.0526 38.2886 16.7505C38.5907 14.0318 38.8475 11.313 39.1043 8.59426C39.1647 7.88437 39.4517 7.32551 39.9652 6.81197C41.9741 4.84843 43.9527 2.85468 45.9314 0.860927C46.5506 0.226552 47.2454 -0.120844 48.1064 0.226552C48.9522 0.558844 49.2241 1.25364 49.2845 2.11457C49.4053 4.04791 49.5866 5.98124 49.7225 7.91457C49.7527 8.23176 49.8735 8.32239 50.1756 8.33749C52.0334 8.47343 53.8913 8.66978 55.7642 8.76041C56.8215 8.80572 57.5616 9.18332 57.9845 10.15C57.9996 10.4672 57.9996 10.7693 57.9996 11.0713ZM45.9616 5.96614C44.859 7.06874 43.847 8.08072 42.8501 9.0927C42.7444 9.19843 42.7142 9.39478 42.684 9.54582C42.5782 10.4068 42.4876 11.2677 42.4121 12.1286C42.2912 13.4125 42.1553 14.6963 42.0345 16.0255C42.1855 16.0255 42.261 16.0406 42.3517 16.0255C44.3152 15.8292 46.2939 15.6328 48.2574 15.4364C48.6954 15.3911 49.0277 15.2401 49.3298 14.9229C50.1152 14.0922 50.9459 13.2917 51.7616 12.476C51.8522 12.3854 51.9277 12.2646 52.0485 12.0984C50.81 12.0078 49.647 11.9172 48.4689 11.8266C46.898 11.7208 46.3392 11.162 46.2183 9.59114C46.1428 8.44322 46.0522 7.2802 45.9616 5.96614Z" fill="#DBDBDB"/>
<path d="M8.89453 29.0604C9.04557 19.6203 15.5857 11.5245 24.8596 9.53073C27.956 8.86615 31.0523 8.95677 34.1034 9.75729C35.0701 10.0141 35.6138 10.6635 35.6138 11.5547C35.6138 12.3552 35.1154 13.0953 34.3148 13.2615C33.8919 13.3521 33.4086 13.3068 32.9857 13.201C25.5242 11.3734 17.8815 14.8474 14.3924 21.6745C9.42318 31.3714 15.3742 43.2583 26.1284 45.1312C35.1909 46.7021 43.6643 40.7057 45.1596 31.613C45.5372 29.3625 45.3862 27.112 44.8424 24.8917C44.7518 24.499 44.7518 24.0156 44.8576 23.6229C45.0841 22.8526 45.8091 22.4146 46.6096 22.4599C47.3951 22.4901 48.0294 22.9885 48.2711 23.774C48.9508 26.1151 49.1622 28.5167 48.9055 30.9333C48.1956 37.3979 45.0992 42.4578 39.6164 45.962C28.1221 53.2875 12.4893 46.8229 9.54401 33.5312C9.21172 32.051 9.09089 30.5406 8.89453 29.0604Z" fill="#DBDBDB"/>
<path d="M29.258 21.8557C25.4065 21.7349 22.295 24.4385 21.7966 28.275C21.3283 31.8245 23.8205 35.2682 27.4455 36.114C31.7653 37.1109 36.0851 33.8182 36.2513 29.3927C36.2664 29.151 36.2513 28.8943 36.3117 28.6677C36.5231 27.7463 37.369 27.1573 38.2903 27.263C39.1966 27.3687 39.8914 28.1391 39.8763 29.0906C39.8309 32.4739 38.5471 35.3135 35.8888 37.413C32.2486 40.2979 28.2158 40.7963 24.0773 38.6818C19.9388 36.5672 17.9601 33.0026 18.1716 28.3807C18.4434 22.4146 23.8054 17.7776 29.7565 18.2156C30.3455 18.2609 30.9195 18.3516 31.3424 18.85C31.8257 19.4088 31.9768 20.0432 31.6898 20.738C31.4028 21.4177 30.8742 21.8104 30.119 21.8557C29.8169 21.8708 29.5299 21.8557 29.258 21.8557Z" fill="#DBDBDB"/>
</g>
<defs>
<clipPath id="clip0_632_12168">
<rect width="58" height="58" fill="white"/>
</clipPath>
</defs>
</svg>
