<svg width="58" height="58" viewBox="0 0 58 58" fill="none" xmlns="http://www.w3.org/2000/svg">
<g clip-path="url(#clip0_632_12193)">
<path d="M58 35.8422C57.5469 37.6698 56.3083 38.8177 54.7526 39.7693C48.6807 43.4698 42.624 47.1703 36.5974 50.9312C34.2411 52.3963 31.8094 52.7739 29.1359 52.0338C24.7255 50.8104 20.3 49.6474 15.8745 48.4995C15.6026 48.4239 15.2401 48.4844 14.9833 48.6203C12.763 49.8739 10.5729 51.1427 8.36771 52.4114C7.25 53.0609 6.99323 52.9854 6.35885 51.8979C4.22917 48.2276 2.11458 44.5724 0 40.9323C0 40.751 0 40.5547 0 40.3734C0.226562 40.1771 0.407813 39.9354 0.664583 39.7844C5.4224 37.0203 10.1953 34.2713 14.9682 31.5224C16.4031 30.7068 17.9286 30.0724 19.6203 30.0875C20.3302 30.1026 21.0401 30.2687 21.7349 30.3594C21.9312 30.3896 22.1729 30.4349 22.324 30.3594C24.0005 29.5135 25.7828 29 27.7464 28.6979C27.4896 27.4745 27.2479 26.2812 26.976 25.1031C26.5531 23.3359 25.9339 21.6443 25.088 20.0432C24.9068 19.6807 24.6802 19.6052 24.3026 19.575C22.6109 19.439 20.9042 19.3786 19.2427 19.0765C16.4938 18.5932 14.349 17.113 12.7932 14.787C12.2495 13.9713 11.6906 13.1708 11.1167 12.3703C9.75729 10.4521 8.05052 8.89634 6.02656 7.70311C5.87552 7.61248 5.67917 7.56717 5.60365 7.43123C5.4375 7.14426 5.21094 6.79686 5.25625 6.50988C5.30156 6.25311 5.63385 5.89061 5.89062 5.8453C10.1651 5.07498 14.4547 4.62186 18.7292 5.89061C22.9281 7.12915 25.6016 10.3614 26.0698 14.7114C26.1 15.0135 26.1906 15.3156 26.1604 15.6026C25.949 17.4604 26.5833 19.0463 27.399 20.6776C28.5469 22.9734 29.0302 25.5109 29.4682 28.0484C29.4984 28.2297 29.6344 28.3807 29.725 28.5469C29.876 28.4109 30.0724 28.3052 30.163 28.139C31.0693 26.6286 31.9755 25.1031 32.8516 23.5776C32.9875 23.351 33.0932 23.064 33.0781 22.8073C33.0328 21.0854 33.1385 19.3786 33.6823 17.7323C34.8453 14.2734 37.3375 12.3099 40.7964 11.4489C43.9078 10.6786 47.0495 10.8448 50.1911 11.2677C50.7953 11.3432 51.3844 11.464 51.9734 11.5547C52.4115 11.6302 52.7135 11.8417 52.8042 12.2948C52.8797 12.7328 52.7135 13.0651 52.3208 13.2917C49.7531 14.6963 47.85 16.7807 46.2943 19.2125C46.1432 19.4542 45.962 19.6656 45.8109 19.9073C44.0891 22.5958 41.5667 23.9552 38.4703 24.3328C37.262 24.4687 36.0234 24.4989 34.8 24.5896C34.6036 24.6047 34.3167 24.6651 34.226 24.8161C33.4104 26.0396 32.6401 27.2781 31.8094 28.5771C36.8391 29.2719 41.0833 30.9484 43.4849 35.6911C43.6359 35.6156 43.8172 35.525 43.9833 35.4193C45.8714 34.362 47.7292 33.2292 49.6625 32.2474C51.2484 31.4318 52.9703 31.039 54.7677 31.4318C56.399 31.7792 57.5016 32.7307 57.9245 34.3771C57.9396 34.4224 57.9849 34.4677 58.0151 34.513C58 34.9359 58 35.389 58 35.8422ZM7.73333 50.6594C10.0443 49.3302 12.2948 48.0312 14.5453 46.7323C14.9531 46.5057 15.3156 46.4302 15.7839 46.5661C20.3906 47.8047 24.9974 49.013 29.5891 50.2818C31.7641 50.8859 33.7427 50.6292 35.6458 49.3906C37.4432 48.2276 39.301 47.125 41.1286 46.0073C45.4635 43.3338 49.7984 40.6755 54.1333 38.0021C54.8734 37.5489 55.538 37.0354 55.9156 36.2349C56.55 34.9208 56.0214 33.637 54.6167 33.2443C54.1484 33.1083 53.65 33.0781 53.1667 33.0932C51.5958 33.1687 50.2214 33.8484 48.8922 34.6187C45.3578 36.6729 41.8083 38.712 38.2891 40.7963C36.2349 42.0198 34.075 42.3521 31.7641 41.763C29.1964 41.0984 26.6286 40.4187 24.0609 39.739C22.6714 39.3765 21.2969 38.9989 19.9224 38.6062C19.3484 38.4401 19.0766 37.987 19.2125 37.5036C19.3484 36.9901 19.7714 36.7484 20.3604 36.8542C20.451 36.8693 20.5417 36.8995 20.6323 36.9297C24.2573 37.8963 27.8823 38.863 31.5073 39.8146C32.7005 40.1318 33.8937 39.4068 34.1958 38.2588C34.513 37.0354 33.8031 35.9328 32.5797 35.5703C29.438 34.6489 26.3115 33.6823 23.1698 32.7458C22.1427 32.4437 21.1307 32.0359 20.0734 31.9C18.4875 31.6885 17.0828 32.3833 15.7385 33.1385C11.313 35.676 6.8875 38.2437 2.46198 40.7963C2.37135 40.8568 2.28073 40.9172 2.1599 40.9927C4.01771 44.225 5.86042 47.412 7.73333 50.6594ZM24.1818 15.7989C24.2271 15.7536 24.2875 15.7083 24.3328 15.6781C24.3026 15.3911 24.2875 15.1193 24.2422 14.8323C23.7438 11.2677 21.8859 8.79061 18.3969 7.64269C16.0406 6.88748 13.6089 6.79686 11.1771 6.9479C10.3615 6.99321 9.53073 7.09894 8.60938 7.17446C9.27396 7.74842 9.84792 8.23176 10.3917 8.7453C11.887 10.15 13.0198 11.8568 14.1375 13.5484C15.512 15.6177 17.3849 16.9318 19.8469 17.3547C21.0401 17.5661 22.2484 17.6719 23.4417 17.8078C23.4719 17.7474 23.487 17.6719 23.5172 17.6114C23.0339 17.0979 22.5505 16.5693 22.037 16.0708C20.5115 14.6208 18.7292 13.5182 16.8563 12.5515C16.2672 12.2344 16.0708 11.751 16.3276 11.2526C16.5693 10.7844 17.0979 10.6484 17.6568 10.9354C19.862 12.0531 21.901 13.3823 23.6531 15.1344C23.8495 15.3458 24.0005 15.5875 24.1818 15.7989ZM49.3302 13.0802C49.3151 13.0349 49.3 12.9745 49.2849 12.9292C48.4089 12.8536 47.5328 12.763 46.6568 12.7177C44.1797 12.5969 41.7479 12.763 39.4521 13.7901C36.6276 15.0437 34.7094 18.2005 34.9661 21.1156C35.1172 20.9797 35.2531 20.8437 35.3891 20.7229C37.0656 19.3484 38.7271 17.9588 40.4339 16.6297C40.6604 16.4484 41.1287 16.4182 41.4156 16.5088C41.6422 16.5844 41.9141 17.0073 41.8839 17.2338C41.8536 17.551 41.612 17.9286 41.3552 18.1401C40.0109 19.2729 38.6214 20.3302 37.2771 21.463C36.8542 21.8104 36.5068 22.2635 36.0688 22.7318C36.6125 22.6864 37.0958 22.6562 37.5641 22.6109C40.2979 22.3542 42.6391 21.3875 44.225 19.001C45.675 16.8109 47.1401 14.6359 49.3302 13.0802ZM24.7708 31.175C24.7708 31.2807 24.7708 31.3864 24.7708 31.4922C27.5047 32.2625 30.2234 33.063 32.9724 33.788C34.8453 34.2864 36.1141 35.7818 36.0234 37.7302C35.9932 38.5005 35.6911 39.2708 35.5099 40.0864C37.7453 39.2406 39.7089 37.7755 41.8536 36.6427C41.1438 34.7396 39.8448 33.4557 38.2286 32.4739C35.1474 30.601 31.7641 30.0573 28.2297 30.4802C27.0667 30.6161 25.9188 30.9333 24.7708 31.175Z" fill="#E0E1E1"/>
</g>
<defs>
<clipPath id="clip0_632_12193">
<rect width="58" height="58" fill="white"/>
</clipPath>
</defs>
</svg>
