<svg width="23" height="23" viewBox="0 0 23 23" fill="none" xmlns="http://www.w3.org/2000/svg">
<path d="M0.944669 7.25886C0.81149 7.30323 0.693438 7.38409 0.603941 7.49224C0.514445 7.60039 0.457097 7.73149 0.438421 7.87062C0.419746 8.00975 0.440491 8.15133 0.498299 8.27925C0.556107 8.40717 0.648655 8.5163 0.765418 8.59423L7.39773 12.2503C7.52134 12.3184 7.66166 12.3503 7.80257 12.3422C7.94348 12.3342 8.07925 12.2865 8.19428 12.2047L15.2402 7.18037C15.5807 6.95233 15.988 7.35962 15.76 7.70009L10.7356 14.7461C10.6538 14.8611 10.6062 14.9969 10.5981 15.1378C10.59 15.2787 10.6219 15.419 10.69 15.5426L14.3461 22.1749C14.424 22.2917 14.5332 22.3842 14.6611 22.442C14.789 22.4998 14.9306 22.5206 15.0697 22.5019C15.2088 22.4832 15.3399 22.4259 15.4481 22.3364C15.5562 22.2469 15.6371 22.1288 15.6815 21.9957L22.5758 1.3128C22.6197 1.18073 22.6259 1.03907 22.5939 0.903644C22.5618 0.768218 22.4928 0.644378 22.3944 0.545975C22.296 0.447572 22.1721 0.378489 22.0367 0.346452C21.9013 0.314414 21.7596 0.320686 21.6275 0.364566L0.944669 7.25886Z" fill="#D8D8D8"/>
</svg>
