<svg width="58" height="58" viewBox="0 0 58 58" fill="none" xmlns="http://www.w3.org/2000/svg">
<g clip-path="url(#clip0_632_12204)">
<path d="M20.5123 58C19.6363 57.713 18.73 57.5016 17.8993 57.124C16.4644 56.4745 15.392 55.4021 14.6217 54.0276C14.4102 53.65 14.1837 53.5594 13.7759 53.5896C9.03316 53.8312 5.1816 50.9312 4.13941 46.3396C3.67118 44.2854 3.95816 42.2917 4.87952 40.4036C4.95504 40.2526 5.03056 40.1016 5.12118 39.9052C2.93108 39.1198 1.52639 37.6245 1.11858 35.3437C0.710766 33.0328 1.52639 31.175 3.354 29.6646C3.24827 29.5437 3.14254 29.4229 3.03681 29.3021C2.20608 28.4109 1.58681 27.3687 1.23941 26.2057C1.04306 25.5714 1.23941 25.1333 1.75295 24.9672C2.25139 24.8161 2.6441 25.0578 2.84045 25.6771C3.18785 26.7797 3.79202 27.7161 4.63785 28.5016C4.89462 28.7432 5.13629 28.8187 5.49879 28.7281C5.87639 28.6224 6.2842 28.5771 6.67691 28.562C7.26597 28.5318 7.67379 28.8792 7.68889 29.3927C7.704 29.876 7.3566 30.1932 6.76754 30.2536C4.51702 30.4651 3.12743 31.7036 2.78004 33.8031C2.44775 35.812 3.82222 37.8964 5.83108 38.3193C6.04254 38.3646 6.32952 38.2437 6.51077 38.1078C6.96389 37.7755 7.3566 37.3677 7.80972 37.0203C8.32327 36.6276 8.83681 36.688 9.154 37.126C9.44097 37.5339 9.32014 38.0172 8.8217 38.3797C7.14514 39.6031 6.07275 41.2193 5.75556 43.2734C5.30243 46.3849 6.37483 48.9073 8.97275 50.6594C11.5707 52.4115 14.3196 52.3813 17.0384 50.8406C17.1894 50.75 17.3253 50.6594 17.4764 50.5687C17.9446 50.312 18.4128 50.4328 18.6696 50.8255C18.9113 51.2182 18.8358 51.6865 18.3977 51.9583C17.8238 52.3208 17.2196 52.6229 16.6155 52.9401C16.4493 53.0307 16.2832 53.0911 16.1019 53.1667C17.9446 56.7464 23.4576 57.6375 26.1311 53.8917C26.705 53.076 27.0826 52.2 27.0826 51.1729C27.0977 48.4089 27.1884 45.6297 27.1884 42.8656C27.2035 30.6161 27.1884 18.3667 27.1884 6.11718C27.1884 3.85156 25.6931 2.09948 23.5634 1.8427C21.2524 1.57083 18.6696 3.18698 17.854 5.4677C18.2316 5.54323 18.6243 5.60364 18.9868 5.70937C19.5155 5.86041 20.029 6.02656 20.5425 6.20781C21.0863 6.41927 21.2977 6.84218 21.1165 7.31041C20.9352 7.77864 20.5274 7.91458 19.9384 7.77864C18.8962 7.53698 17.854 7.17448 16.7967 7.14427C10.2717 6.8875 5.66493 13.3068 7.93056 19.4391C8.02118 19.6656 8.11181 19.9073 8.0967 20.149C8.0665 20.5719 7.79462 20.8437 7.3717 20.8891C6.94879 20.9495 6.6316 20.738 6.48056 20.3453C6.254 19.7562 6.05764 19.1521 5.84618 18.5026C4.4415 19.2729 3.50504 20.4057 2.97639 21.8708C2.6592 22.7469 2.31181 23.0338 1.73785 22.8375C1.179 22.6411 1.05816 22.1578 1.37535 21.2969C2.08525 19.3031 3.39931 17.8229 5.28733 16.8865C5.57431 16.7354 5.68004 16.5844 5.69514 16.2521C5.74045 10.4672 9.92431 5.93593 15.679 5.4375C16.0717 5.40729 16.117 5.16562 16.2227 4.90885C17.3556 2.26562 19.304 0.634371 22.1738 0.166142C24.9227 -0.286983 27.6264 1.29895 28.5629 3.91198C28.7139 4.35 28.8951 4.50104 29.3785 4.53125C32.6863 4.7276 35.7826 5.66406 38.6524 7.34062C39.2566 7.68802 39.4379 8.17135 39.1509 8.63958C38.879 9.0927 38.4108 9.15312 37.8217 8.82083C35.2238 7.34062 32.4748 6.49479 29.5295 6.25312C29.3483 6.23802 29.1519 6.23802 28.9254 6.22291C28.9254 8.06562 28.9254 9.87812 28.9254 11.7964C29.5446 11.7964 30.1337 11.7964 30.7379 11.7964C31.3873 11.7964 31.7649 12.1135 31.9613 12.7479C32.1425 13.3823 32.3691 14.0016 32.6259 14.6057C32.7165 14.8323 32.9582 15.0286 33.1545 15.1646C33.8795 15.663 34.6045 15.5875 35.3295 15.1042C35.7222 14.8474 36.1754 14.6964 36.5983 14.4849C37.0212 14.2734 37.4139 14.3036 37.7462 14.6359C38.441 15.3005 39.1056 15.9802 39.7852 16.675C40.1024 16.9922 40.1175 17.3698 39.9363 17.7776C39.604 18.4573 39.2717 19.1219 38.9696 19.8167C38.879 20.0281 38.9092 20.3151 38.9394 20.5417C39.1056 21.4328 39.6795 21.901 40.5707 22.0672C40.8274 22.1125 41.054 22.2786 41.3108 22.324C42.2623 22.5052 42.6852 23.0641 42.6399 24.0307C42.6097 24.8161 42.655 25.6167 42.5342 26.4021C42.4889 26.7042 42.1566 27.0516 41.8545 27.1875C41.1899 27.5047 40.4649 27.6708 39.7852 27.9578C39.5587 28.0484 39.3623 28.275 39.2113 28.4865C38.728 29.2115 38.8035 29.9365 39.2717 30.6766C39.5285 31.0844 39.7097 31.5526 39.9212 31.9906C40.1024 32.3682 40.0722 32.7307 39.7852 33.0328C39.1056 33.7427 38.4108 34.4375 37.716 35.1172C37.3837 35.4495 36.991 35.4495 36.5681 35.238C35.9035 34.9057 35.254 34.5734 34.5743 34.3016C34.3629 34.2109 34.0759 34.2411 33.8493 34.2714C32.9431 34.4375 32.4899 35.0266 32.3087 35.8875C32.2483 36.2047 32.067 36.4917 32.0066 36.7937C31.8253 37.6396 31.2967 37.987 30.466 37.9568C29.9524 37.9417 29.454 37.9568 28.9102 37.9568C28.9102 40.5698 28.9102 43.1073 28.9102 45.6901C31.1457 45.6901 33.366 45.6901 35.6316 45.6901C35.6316 45.1917 35.6467 44.7234 35.6316 44.2552C35.5863 43.3943 35.979 42.8505 36.7342 42.4578C41.5826 39.9203 44.9509 36.0687 46.416 30.7974C48.4701 23.3964 46.6576 16.9318 41.2504 11.4641C41.1748 11.3885 41.0842 11.313 41.0087 11.2375C40.5253 10.7693 40.4649 10.2859 40.8123 9.90833C41.1748 9.51562 41.6884 9.50052 42.1415 9.99895C43.0931 11.0109 44.105 11.9927 44.9207 13.1104C52.3972 23.3661 49.0894 37.7453 37.8972 43.7568C37.4441 43.9984 37.2629 44.2703 37.3233 44.7536C37.3535 45.0708 37.3233 45.388 37.3233 45.6901C39.453 46.1885 40.3441 48.2578 39.03 50.1307C39.8004 51.3391 39.8457 52.4266 39.1509 53.3932C38.3655 54.4958 37.1873 54.5411 35.979 54.4807C35.9488 54.6469 35.9186 54.7677 35.9186 54.9036C36.0394 56.4292 35.3748 57.4562 33.9399 58C29.4842 58 24.9983 58 20.5123 58ZM28.9254 36.25C30.3602 36.4161 30.3602 36.4161 30.8134 35.1323C30.8587 35.0115 30.9191 34.8906 30.9342 34.7547C31.1457 33.7729 31.7498 33.3047 32.6712 32.8516C33.8946 32.2776 34.8462 32.4135 35.9337 33.0026C37.0363 33.6068 37.0665 33.5464 37.9274 32.6401C38.1691 32.3833 38.1842 32.2021 38.0332 31.9C37.716 31.2807 37.3837 30.6615 37.142 30.012C37.0363 29.7099 37.0514 29.3172 37.1571 29C37.3233 28.426 37.5649 27.8672 37.8519 27.3385C38.0181 27.0365 38.2899 26.7344 38.592 26.5833C39.2264 26.2812 39.9061 26.1151 40.5556 25.8583C40.7066 25.7979 40.9181 25.6922 40.9332 25.5865C40.9785 25.1031 41.0389 24.5896 40.9181 24.1365C40.8576 23.925 40.3743 23.8193 40.0722 23.6833C39.8457 23.5776 39.6191 23.487 39.3774 23.4417C38.3957 23.2453 37.9425 22.6411 37.5498 21.7198C36.8248 19.9677 36.7946 20.451 37.716 18.4875C38.2446 17.3547 38.2446 17.3698 37.3233 16.4937C37.0665 16.2521 36.8701 16.237 36.5832 16.388C35.979 16.7052 35.3748 17.0224 34.7405 17.249C34.4082 17.3698 33.9701 17.3396 33.6227 17.2339C33.079 17.0828 32.5806 16.7958 32.0519 16.6146C31.629 16.4635 31.3571 16.2219 31.2212 15.7839C31.0097 15.1193 30.7681 14.4698 30.5113 13.8203C30.4509 13.6844 30.2847 13.5031 30.1488 13.488C29.741 13.4427 29.3332 13.4729 28.9254 13.4729C28.9254 15.0589 28.9254 16.5693 28.9254 18.0797C33.1394 17.8078 36.1149 20.9646 36.3415 24.3479C36.4623 26.1604 35.979 27.7766 34.816 29.1812C33.2905 31.024 31.2967 31.8094 28.8951 31.6885C28.9254 33.2141 28.9254 34.7094 28.9254 36.25ZM28.9254 29.9062C30.9493 30.2234 33.0035 29.1964 34.0155 27.399C35.0576 25.5562 34.8613 23.2604 33.517 21.6443C32.3389 20.2396 30.2696 19.4391 28.9102 19.9073C28.9254 23.2151 28.9254 26.538 28.9254 29.9062ZM28.6082 52.7891C31.4477 52.7891 34.2118 52.7891 36.991 52.7891C37.6102 52.7891 37.9879 52.4115 37.9727 51.8677C37.9727 51.324 37.5951 50.9917 36.9608 50.9766C36.3264 50.9615 35.6769 50.9766 35.0425 50.9766C34.5894 50.9615 34.2269 50.7953 34.1061 50.312C33.9701 49.7682 34.3326 49.3151 34.9368 49.2849C35.6316 49.2698 36.3264 49.3 37.0363 49.2698C37.6254 49.2396 37.9879 48.8771 37.9879 48.3635C37.9879 47.8349 37.6405 47.5026 37.0514 47.4573C36.9457 47.4422 36.8248 47.4573 36.7191 47.4573C34.3175 47.4573 31.9311 47.4573 29.5295 47.4573C29.3483 47.4573 29.167 47.4724 28.9556 47.4875C28.9556 48.1068 28.9556 48.6656 28.9556 49.3C29.6806 49.3 30.3754 49.2849 31.0701 49.3151C31.2967 49.3302 31.629 49.3604 31.7347 49.5115C31.916 49.7531 32.0368 50.1156 32.0066 50.4026C31.9462 50.8255 31.5686 50.9917 31.1457 50.9917C30.4207 51.0068 29.6806 50.9917 28.9556 50.9917C28.8196 51.5958 28.7139 52.1547 28.6082 52.7891ZM26.3123 56.3083C28.7139 56.3083 31.0701 56.3234 33.4113 56.3083C33.8795 56.3083 34.1967 56.0214 34.2269 55.538C34.2571 55.2057 34.2269 54.8734 34.2269 54.4958C32.0972 54.4958 30.028 54.4958 27.9587 54.5109C27.853 54.5109 27.717 54.6016 27.6415 54.6922C27.2186 55.1906 26.7957 55.7193 26.3123 56.3083Z" fill="#DBDBDB"/>
<path d="M17.7024 36.8542C18.2008 36.5672 18.6388 36.2802 19.107 36.0385C19.6206 35.7818 20.0888 35.9479 20.3003 36.4161C20.4966 36.8391 20.3607 37.3073 19.8471 37.5339C17.8534 38.425 16.8112 40.8266 17.7024 43.0167C17.9138 43.5453 17.7175 44.0286 17.2643 44.1948C16.7961 44.376 16.3581 44.1646 16.1315 43.6359C15.4518 41.9745 15.5122 40.3281 16.3279 38.7271C16.5091 38.3646 16.5393 38.138 16.2372 37.8208C15.5425 37.0656 15.331 36.1443 15.5727 35.1474C15.7086 34.5734 16.1013 34.3016 16.5846 34.3922C17.068 34.4828 17.3096 34.8755 17.2341 35.4646C17.1435 36.1745 17.219 36.401 17.7024 36.8542Z" fill="#DBDBDB"/>
<path d="M50.0388 16.1312C49.782 15.9198 49.4044 15.7687 49.344 15.5271C49.2684 15.2401 49.3289 14.787 49.5252 14.5604C50.1898 13.8052 50.945 13.1104 51.67 12.3854C52.3648 11.6906 53.0596 10.9958 53.7544 10.3161C54.2226 9.86302 54.721 9.8177 55.0987 10.1802C55.4612 10.5427 55.4158 11.0562 54.9476 11.5245C53.558 12.9141 52.1684 14.2885 50.7789 15.663C50.5825 15.8443 50.3408 15.95 50.0388 16.1312Z" fill="#DBDBDB"/>
<path d="M21.7364 18.9557C21.1775 19.0162 20.6035 19.001 20.0749 19.1672C19.0478 19.4844 18.4134 20.2245 18.1265 21.2667C17.9452 21.8859 17.5223 22.1729 17.0239 22.0219C16.5405 21.8708 16.3442 21.4177 16.4952 20.8287C17.0692 18.563 19.2442 17.0677 21.5551 17.3094C21.7061 17.3245 21.8572 17.3547 21.9931 17.4C22.4614 17.5359 22.7332 17.9287 22.6426 18.3667C22.5671 18.7896 22.2046 19.0615 21.7364 18.9557Z" fill="#DBDBDB"/>
<path d="M55.3141 38.7875C55.3292 39.6484 54.6193 39.9958 53.9396 39.6031C52.686 38.8781 51.4474 38.1229 50.2089 37.3677C50.0125 37.2469 49.8162 37.1412 49.6349 37.0203C49.2422 36.7333 49.1214 36.2651 49.348 35.8875C49.5594 35.4948 50.0579 35.3287 50.4808 35.5703C51.9912 36.4464 53.4865 37.3526 54.9818 38.274C55.1631 38.3948 55.2537 38.6818 55.3141 38.7875Z" fill="#DBDBDB"/>
<path d="M53.9832 26.5833C53.3036 26.5833 52.6239 26.5833 51.9442 26.5833C51.3702 26.5682 50.9926 26.251 50.9926 25.7677C50.9775 25.2693 51.3551 24.9068 51.9593 24.8917C53.3036 24.8766 54.6327 24.8766 55.977 24.8917C56.5812 24.8917 56.9739 25.2542 56.9739 25.7526C56.9739 26.251 56.5812 26.5833 55.977 26.5833C55.2973 26.5833 54.6478 26.5833 53.9832 26.5833Z" fill="#DBDBDB"/>
</g>
<defs>
<clipPath id="clip0_632_12204">
<rect width="58" height="58" fill="white"/>
</clipPath>
</defs>
</svg>
