<svg width="20" height="20" viewBox="0 0 20 20" fill="none" xmlns="http://www.w3.org/2000/svg">
<path d="M10.9192 4.04372C10.8314 4.13161 10.7821 4.25075 10.7821 4.37497C10.7821 4.49919 10.8314 4.61833 10.9192 4.70622L15.7434 9.53122L3.12541 9.53122C3.00109 9.53122 2.88186 9.58061 2.79396 9.66852C2.70605 9.75642 2.65666 9.87565 2.65666 9.99997C2.65666 10.1243 2.70605 10.2435 2.79396 10.3314C2.88186 10.4193 3.00109 10.4687 3.12541 10.4687L15.7434 10.4687L10.9192 15.2937C10.8364 15.3826 10.7913 15.5001 10.7934 15.6216C10.7956 15.743 10.8448 15.8589 10.9306 15.9447C11.0165 16.0306 11.1324 16.0798 11.2538 16.082C11.3753 16.0841 11.4928 16.039 11.5817 15.9562L17.2067 10.3312C17.2944 10.2433 17.3438 10.1242 17.3438 9.99997C17.3438 9.87575 17.2944 9.75661 17.2067 9.66872L11.5817 4.04372C11.4938 3.95594 11.3746 3.90664 11.2504 3.90664C11.1262 3.90664 11.0071 3.95594 10.9192 4.04372Z" fill="#434343"/>
</svg>
