<svg width="35" height="30" viewBox="0 0 35 30" fill="none" xmlns="http://www.w3.org/2000/svg">
<path d="M35 19.6748C35 15.0135 34.2113 10.9214 32.634 7.39837C31.0023 3.87534 28.5276 1.40921 25.2098 0C23.9588 1.24661 22.871 2.27642 21.9464 3.08943C20.9674 3.84824 19.9068 4.52574 18.7646 5.12195C21.5385 6.15176 23.5781 7.37127 24.8835 8.78049C26.1344 10.1897 26.9503 11.8428 27.331 13.7398H19.0909V30H34.9184L35 19.6748ZM16.2354 19.6748C16.2354 15.0135 15.4468 10.9214 13.8695 7.39837C12.2378 3.87534 9.76301 1.40921 6.44522 0C5.19425 1.24661 4.10645 2.27642 3.18182 3.08943C2.2028 3.84824 1.14219 4.52574 0 5.12195C2.7739 6.15176 4.81352 7.37127 6.11888 8.78049C7.36985 10.1897 8.18571 11.8428 8.56643 13.7398H1.14219V30H16.1538L16.2354 19.6748Z" fill="#4949FC"/>
</svg>
