<svg width="35" height="30" viewBox="0 0 35 30" fill="none" xmlns="http://www.w3.org/2000/svg">
<path d="M0 19.6748C0 15.0135 0.788656 10.9214 2.36597 7.39837C3.99767 3.87534 6.47242 1.40921 9.79021 0C11.0412 1.24661 12.129 2.27642 13.0536 3.08943C14.0326 3.84824 15.0932 4.52574 16.2354 5.12195C13.4615 6.15176 11.4219 7.37127 10.1165 8.78049C8.86558 10.1897 8.04973 11.8428 7.669 13.7398H15.9091V30H0.0815849L0 19.6748ZM18.7646 19.6748C18.7646 15.0135 19.5532 10.9214 21.1305 7.39837C22.7622 3.87534 25.237 1.40921 28.5548 0C29.8057 1.24661 30.8936 2.27642 31.8182 3.08943C32.7972 3.84824 33.8578 4.52574 35 5.12195C32.2261 6.15176 30.1865 7.37127 28.8811 8.78049C27.6301 10.1897 26.8143 11.8428 26.4336 13.7398H33.8578V30H18.8462L18.7646 19.6748Z" fill="white"/>
</svg>
