<svg width="120" height="94" viewBox="0 0 120 94" fill="none" xmlns="http://www.w3.org/2000/svg">
<path d="M83.1735 87.5816C83.1735 86.2001 83.1735 85.0201 83.1735 83.6962C82.5768 83.6962 82.0937 83.6962 81.5822 83.6962C75.8991 83.6962 70.2159 83.6962 64.5327 83.6962C60.2704 83.6962 58.0539 81.4512 58.0539 77.134C58.0539 76.5872 58.0539 76.0115 58.0539 75.3208C57.3151 75.3208 56.7752 75.3208 56.2069 75.3208C40.6635 75.3208 25.1484 75.3208 9.60497 75.3208C7.04754 75.3208 6.84863 75.1193 6.84863 72.5865C6.84863 70.3704 6.87705 68.183 6.84863 65.9668C6.84863 64.9595 7.04754 64.0385 8.21259 64.0097C9.46289 63.9809 9.69021 64.9595 9.69021 66.0244C9.6618 68.1254 9.69021 70.2265 9.69021 72.4139C25.8872 72.4139 41.9137 72.4139 57.9971 72.4139C57.9971 71.8958 57.9971 71.4353 57.9971 70.8309C55.0134 70.8309 52.0866 70.8309 49.1598 70.8309C47.2275 70.8309 46.9433 70.5431 46.9433 68.5859C46.9433 64.4126 46.9433 60.2393 46.9433 56.066C46.9433 54.9723 47.0002 53.8787 48.3926 53.9074C49.7565 53.9362 49.7849 55.0587 49.7849 56.1236C49.7849 60.0091 49.7849 63.8946 49.7849 67.8664C52.5413 67.8664 55.2124 67.8664 57.9971 67.8664C57.9971 65.161 57.9971 62.4843 57.9971 59.6925C56.8036 59.5774 55.6102 59.6061 54.502 59.2896C53.8484 59.1169 53.2801 58.4549 52.797 57.908C52.5413 57.6202 52.5413 57.1022 52.3992 56.6992C51.2341 52.8713 51.2626 52.8425 47.4832 51.5186C47.1138 51.3747 46.5739 51.5186 46.2045 51.6913C44.9542 52.2957 43.7608 52.9289 42.5673 53.6196C41.7717 54.0801 41.0044 54.1089 40.3509 53.4469C38.5323 51.6337 36.6852 49.8493 35.0087 47.9209C34.6109 47.4604 34.753 46.4818 34.7814 45.7335C34.7814 45.3881 35.0655 45.014 35.2929 44.7262C37.0546 42.4524 37.1399 40.0924 35.577 37.6747C35.2929 37.243 34.895 36.7825 34.4404 36.6098C33.1617 36.1205 31.8261 35.7464 30.519 35.3722C29.6381 35.1132 29.0982 34.5951 29.0982 33.6453C29.0982 31.0262 29.0414 28.3783 29.155 25.7592C29.1835 25.2124 29.8654 24.6656 30.3485 24.2338C30.6043 24.0036 31.0589 23.946 31.4283 23.8885C34.2983 23.5431 36.1453 22.0177 36.7137 19.082C36.8273 18.5639 36.8557 17.9595 36.6568 17.499C36.1169 16.2326 35.4349 15.0238 34.7814 13.7862C34.2983 12.9227 34.3267 12.1456 35.0371 11.4261C36.7705 9.64167 38.4754 7.886 40.2372 6.13034C40.976 5.41081 41.8001 5.2669 42.681 5.87131C42.9083 6.01522 43.2209 6.10156 43.4198 6.27425C45.6931 8.08747 48.0516 8.34651 50.4953 6.67719C50.9216 6.38937 51.3762 5.98643 51.5467 5.52593C52.0298 4.28833 52.3992 2.99317 52.7402 1.69801C53.0243 0.604316 53.6779 0.0574695 54.7577 0.0574695C57.173 0.0574695 59.5884 0.0286881 61.9753 0.0574695C62.9699 0.0862508 63.6803 0.575534 63.8792 1.64045C63.936 1.95704 64.1065 2.27364 64.1633 2.59023C64.5327 5.43959 66.0104 7.25281 68.8519 7.79966C69.3634 7.88601 69.9602 7.94357 70.4148 7.7421C71.6651 7.19525 72.887 6.5045 74.0805 5.81375C74.8761 5.35324 75.6149 5.32446 76.2969 5.98643C78.1439 7.82844 80.0194 9.64167 81.7527 11.5988C82.1221 12.0017 82.0085 12.894 81.98 13.5559C81.9516 13.9589 81.6675 14.3618 81.4117 14.7072C79.7636 16.9521 79.3942 19.2547 81.0423 21.6435C81.3833 22.1328 81.838 22.7084 82.3495 22.9099C83.5713 23.4279 84.8501 23.8021 86.1288 24.1187C87.1233 24.3777 87.6064 25.0109 87.6064 25.9607C87.6632 28.4359 87.6348 30.9399 87.6064 33.4151C87.6064 34.4512 87.0381 35.1132 86.0435 35.3434C85.6173 35.4586 85.2195 35.5737 84.8216 35.6888C81.0423 36.8401 81.0423 36.8401 79.792 40.9846C84.5659 40.9846 89.3113 40.9846 94.1136 40.9846C94.1136 34.0195 94.1136 27.1408 94.1136 20.0893C91.272 20.0893 88.4873 20.0893 85.7025 20.0893C85.2763 20.0893 84.7648 20.2332 84.4522 20.0317C83.9123 19.7152 83.1735 19.1683 83.1735 18.7078C83.1451 18.2473 83.9123 17.3263 84.3386 17.3263C88.1179 17.2112 91.9256 17.2112 95.7049 17.2975C96.8415 17.3263 97.012 18.3049 97.012 19.3122C97.012 25.9319 97.012 32.5517 97.012 39.1714C97.012 39.747 97.012 40.3226 97.012 41.0709C97.6372 41.0709 98.1202 41.0709 98.6317 41.0709C103.747 41.0709 108.861 41.0709 113.976 41.0709C117.841 41.0709 120.086 43.3159 120.086 47.2014C120.086 57.3324 120.086 67.4347 120.086 77.5657C120.086 81.3361 117.812 83.6386 114.062 83.6674C108.293 83.6962 102.496 83.6674 96.7279 83.6674C96.2164 83.6674 95.7049 83.6674 95.0797 83.6674C95.0797 84.9913 95.0797 86.2001 95.0797 87.5529C97.6656 87.5529 100.223 87.668 102.752 87.5241C105.878 87.3514 107.242 89.7402 107.412 92.1867C107.469 93.2804 106.958 93.9136 105.849 93.9711C105.196 93.9999 104.514 93.9711 103.86 93.9711C93.6305 93.9711 83.4008 93.9711 73.1712 93.9711C71.0968 93.9711 70.5285 93.3091 70.9263 91.2369C71.4094 88.7617 72.8586 87.5529 75.3876 87.5529C77.8882 87.5529 80.4456 87.5816 83.1735 87.5816ZM41.5728 8.57676C41.0897 8.9797 40.6066 9.38264 40.1804 9.78558C37.1967 12.6062 37.1399 12.6349 39.129 16.2038C39.8962 17.5853 40.2088 18.7654 39.2427 20.1757C38.7596 20.8664 38.3902 21.7011 38.2481 22.5357C37.9355 24.4353 36.7705 25.1836 35.0655 25.6441C31.4567 26.6515 31.5704 26.7378 31.5136 30.537C31.4851 32.2063 31.9966 33.0985 33.6732 33.3575C36.3158 33.7317 37.7082 35.1995 38.788 37.8474C39.8394 40.4665 39.9815 42.51 38.3334 44.6686C37.2251 46.1077 37.6514 47.115 38.8164 48.2951C41.3739 50.8854 41.3454 51.0293 44.528 49.1873C46.1477 48.2375 47.5685 47.9209 49.2166 49.1009C49.8986 49.5902 50.7511 49.878 51.5751 50.0507C52.9959 50.3673 53.6779 51.202 54.0757 52.6123C55.2976 56.8431 55.326 56.7856 59.6452 56.6992C60.8671 56.6704 61.4638 56.2675 61.6627 55.0587C62.1458 52.1518 63.4814 50.3098 66.5503 49.2449C68.9088 48.439 70.6706 48.1224 72.6597 49.619C72.7449 49.6766 72.8302 49.7054 72.9154 49.7629C74.9329 50.8566 74.9329 50.8566 76.6095 49.3024C79.2237 46.8272 79.3374 46.7984 77.5756 43.69C76.581 41.9344 76.2116 40.409 77.4904 38.6821C77.8313 38.2504 78.0587 37.646 78.1439 37.0991C78.4565 34.9981 79.7352 34.1346 81.6959 33.6166C85.0774 32.7243 85.049 32.6092 84.9637 29.0979C84.9069 26.6802 84.9353 26.5363 82.6336 26.0183C80.1046 25.4714 78.286 24.3777 77.8882 21.5572C77.8313 21.2406 77.6893 20.8952 77.4904 20.6362C76.2116 18.9381 76.5526 17.3839 77.5756 15.657C79.309 12.7213 79.1953 12.6349 76.8084 10.2461C75.0182 8.46163 74.9329 8.34651 72.8302 9.67045C70.7558 10.9656 68.7951 11.6851 66.6355 9.95826C66.3229 9.69923 65.8683 9.52654 65.4705 9.46898C63.5098 9.18117 62.7141 7.94357 62.2026 6.07278C61.2081 2.47511 61.0944 2.59023 57.4004 2.61901C55.7807 2.61901 54.8714 3.16586 54.6156 4.83518C54.2462 7.51185 53.0243 9.46898 50.1259 9.81436C50.0407 9.81436 49.9554 9.87192 49.8702 9.92948C47.739 11.6564 45.6931 11.1095 43.6755 9.67045C43.0504 9.23873 42.34 8.95092 41.5728 8.57676ZM76.2401 80.7317C77.263 80.7317 78.0303 80.7317 78.8827 80.7317C78.9111 80.2712 78.968 79.897 78.968 79.5229C78.968 75.6374 78.968 71.7519 78.968 67.8664C78.968 66.082 79.2805 65.7941 81.0707 65.7654C82.5768 65.7654 84.1112 65.7654 85.6173 65.7654C87.3791 65.7941 87.6916 66.1107 87.6916 67.8664C87.6916 71.6656 87.6916 75.4359 87.6916 79.235C87.6916 79.7243 87.7485 80.2424 87.7769 80.7029C88.7146 80.7029 89.5102 80.7029 90.3911 80.7029C90.3911 80.0697 90.3911 79.5517 90.3911 79.0336C90.3911 74.4286 90.3911 69.8235 90.3911 65.2185C90.3911 63.6931 90.8174 63.2614 92.3234 63.2614C93.8863 63.2326 95.4492 63.2614 97.012 63.2614C98.7454 63.2614 99.1432 63.6643 99.1432 65.4776C99.1432 70.025 99.1432 74.6012 99.1432 79.1487C99.1432 79.6668 99.1716 80.1561 99.2 80.7029C100.109 80.7029 100.877 80.7029 101.786 80.7029C101.786 80.0409 101.786 79.4941 101.786 78.9185C101.786 73.7378 101.786 68.5572 101.786 63.3765C101.786 61.6496 102.155 61.3042 103.86 61.2179C105.366 61.1316 106.872 61.0164 108.407 60.9589C110.197 60.8725 110.566 61.2467 110.566 63.0887C110.566 68.4708 110.566 73.8242 110.566 79.2063C110.566 79.7243 110.566 80.2136 110.566 80.7893C111.731 80.7893 112.669 80.7893 113.607 80.7893C116.25 80.7893 117.159 79.8682 117.159 77.134C117.159 67.2908 117.159 57.4763 117.159 47.6331C117.159 44.7262 116.306 43.8627 113.436 43.8627C103.121 43.8627 92.8065 43.8627 82.4915 43.8627C82.0369 43.8627 81.5822 43.8915 80.9855 43.9203C81.1844 44.3808 81.2981 44.6974 81.4686 44.9564C82.4347 46.2804 82.2074 47.4316 81.0992 48.5253C79.5079 50.0795 77.9166 51.6625 76.3253 53.2167C75.5581 53.965 74.7624 53.965 73.8531 53.4469C72.6881 52.785 71.523 52.1806 70.3296 51.5761C69.9886 51.4035 69.4771 51.202 69.1645 51.3459C66.9765 52.2669 64.4759 52.785 64.2202 56.0085C64.0781 57.8217 63.4529 59.6925 60.8671 59.3759C60.8671 65.7654 60.8387 72.0109 60.8955 78.2277C60.9239 79.6092 61.8901 80.5302 63.254 80.7029C64.5896 80.8468 65.9535 80.7317 67.4596 80.7317C67.4596 80.0697 67.4596 79.5517 67.4596 79.0336C67.4596 76.0691 67.4596 73.0758 67.4596 70.1114C67.4596 68.1542 67.8006 67.8088 69.7897 67.7801C71.1252 67.7801 72.4323 67.7801 73.7679 67.7801C76.0127 67.7801 76.2116 67.9815 76.2116 70.2265C76.2401 73.7378 76.2401 77.1916 76.2401 80.7317ZM104.741 64.0385C104.741 69.363 104.741 74.5725 104.741 79.8107C105.764 79.8107 106.673 79.8107 107.668 79.8107C107.668 74.4573 107.668 69.1903 107.668 63.8082C106.588 63.8946 105.65 63.9809 104.741 64.0385ZM96.2448 79.8107C96.2448 75.1769 96.2448 70.7158 96.2448 66.1971C95.2218 66.1971 94.2841 66.1971 93.2895 66.1971C93.2895 70.7445 93.2895 75.2344 93.2895 79.8107C94.2841 79.8107 95.2218 79.8107 96.2448 79.8107ZM84.9353 79.8107C84.9353 76.875 84.9353 74.0256 84.9353 71.1763C84.9353 68.3557 84.9353 68.3269 82.1506 68.6435C82.0653 68.6435 82.0085 68.7586 81.8948 68.8162C81.8948 72.4426 81.8948 76.0979 81.8948 79.8107C82.8894 79.8107 83.8271 79.8107 84.9353 79.8107ZM70.3011 70.7733C70.3011 73.0183 70.3011 75.2057 70.3011 77.393C70.3011 80.1561 70.3012 80.1561 73.0291 79.8682C73.1143 79.8682 73.1996 79.7819 73.3416 79.6955C73.3416 76.7598 73.3416 73.7954 73.3416 70.7733C72.3187 70.7733 71.4094 70.7733 70.3011 70.7733ZM103.917 91.093C103.945 90.9491 103.974 90.8339 104.002 90.69C103.604 90.5749 103.178 90.4022 102.78 90.4022C93.6305 90.3735 84.5091 90.3735 75.3592 90.4022C74.9329 90.4022 74.5067 90.6325 74.0805 90.7476C74.1089 90.8627 74.1373 90.9779 74.1657 91.0642C84.0828 91.093 93.9999 91.093 103.917 91.093ZM86.1288 87.4953C88.1747 87.4953 90.0501 87.4953 91.9824 87.4953C91.9824 86.2001 91.9824 84.9913 91.9824 83.7825C89.9649 83.7825 88.061 83.7825 86.1288 83.7825C86.1288 85.0777 86.1288 86.2577 86.1288 87.4953Z" fill="#7D7DFF" fill-opacity="0.26"/>
<path d="M24.8639 66.7152C24.1251 66.1684 23.4715 65.7366 22.8748 65.2474C21.3119 63.981 19.9479 64.24 18.9818 65.9669C17.7315 68.2406 17.7315 68.2694 15.2309 67.924C14.6626 67.8377 14.1227 67.7226 13.5544 67.6074C11.1106 67.0318 11.0538 66.9455 10.798 64.3839C10.5991 62.398 9.37725 61.5633 7.5018 62.1102C5.00121 62.8585 5.00121 62.8585 3.40993 60.6711C3.12577 60.297 2.87002 59.894 2.61428 59.4911C1.22191 57.131 1.22191 57.131 2.92686 55.0012C4.09191 53.5621 3.77933 52.0943 2.1028 51.202C-0.198884 49.9357 -0.255716 49.8205 0.227353 47.1151C0.284185 46.7409 0.341017 46.3668 0.426264 45.9926C1.07983 43.172 1.13666 43.1433 3.94983 42.8554C5.45586 42.7115 6.422 41.33 5.99577 39.8622C5.14329 36.8977 5.17171 36.8401 7.75755 35.1133C8.24061 34.7967 8.7521 34.5376 9.20675 34.1923C10.3434 33.3864 11.3379 33.4727 12.3893 34.4513C13.0997 35.142 13.8669 36.1206 15.0888 35.4298C15.6571 35.1133 16.3107 34.7679 16.6233 34.221C18.0157 31.8322 17.9588 31.8034 20.7152 32.1776C21.0846 32.2351 21.454 32.3215 21.8234 32.4078C24.5229 33.041 24.5229 33.041 24.9207 35.804C25.2049 37.7611 26.3699 38.5095 28.2738 37.9338C30.6607 37.2431 30.6607 37.2431 32.1383 39.229C32.4509 39.6607 32.7635 40.0924 33.0192 40.5242C34.4684 42.8842 34.44 42.8842 32.7919 45.014C31.6268 46.5107 31.911 47.9498 33.5307 48.8708C35.8324 50.1659 35.8892 50.3098 35.463 52.9577C35.4061 53.3319 35.3209 53.706 35.2356 54.0802C34.6389 56.8432 34.4968 56.9583 31.7121 57.2174C30.206 57.3613 29.1831 58.6852 29.6377 60.0667C30.6039 63.0024 30.6607 63.0312 27.6486 65.1322C26.8246 65.7079 25.8868 66.1396 24.8639 66.7152ZM25.1764 63.2902C27.3076 62.1102 27.3076 62.1102 26.6541 59.7789C26.5404 59.376 26.3415 58.8291 26.512 58.5413C27.2224 57.3037 27.9044 56.0085 28.8705 55.0012C29.3252 54.5119 30.3765 54.4543 31.1438 54.4543C32.2236 54.4543 32.4793 53.8787 32.6498 52.9865C32.8203 52.1231 32.7066 51.5762 31.8257 51.1445C31.0869 50.7991 30.0071 50.281 29.8935 49.6479C29.4388 47.5756 28.1601 45.3019 30.4618 43.4599C31.229 42.8267 30.8312 42.251 30.3765 41.6178C29.9219 40.9559 29.5809 40.3515 28.5863 40.7832C27.8759 41.0998 26.9098 41.4739 26.2847 41.2149C25.006 40.6681 23.7557 39.8622 22.7327 38.9124C22.2496 38.4519 22.2496 37.4158 22.1928 36.6099C22.136 35.6889 21.795 35.2284 20.8857 35.1133C20.0616 34.9981 19.3512 34.8254 18.925 35.8904C18.6408 36.6099 18.1862 37.5597 17.5894 37.8187C16.3391 38.3368 14.9467 38.6534 13.6112 38.6821C12.9008 38.6821 12.1052 37.9626 11.5084 37.387C10.7128 36.6099 10.1161 36.984 9.40566 37.4445C8.61002 37.9338 8.49636 38.4519 8.7521 39.3441C9.66141 42.3374 7.75755 45.3594 4.68864 45.6472C3.52359 45.7624 3.26785 46.2804 3.0121 47.2878C2.72795 48.439 3.35309 48.7844 4.12032 49.0722C5.45586 49.5903 6.16626 50.4825 6.16626 52.0079C6.16626 52.4684 6.47883 52.9577 6.45042 53.4182C6.36517 54.2241 6.33675 55.1451 5.93893 55.7495C4.60339 57.7066 4.51814 57.6779 6.16626 59.4911C7.27448 59.2608 8.49636 58.6276 9.43408 58.9155C10.7412 59.2896 11.9347 60.2682 12.9576 61.218C13.4123 61.6497 13.4123 62.6283 13.4691 63.3766C13.5544 64.3839 13.9238 64.8732 14.9467 65.0747C16.0266 65.3049 16.4244 64.7869 16.9074 63.981C17.3621 63.2327 18.0441 62.3404 18.7829 62.0814C20.9709 61.3331 23.2158 60.9877 24.9207 63.2327C24.9491 63.2327 25.006 63.2327 25.1764 63.2902Z" fill="#7D7DFF" fill-opacity="0.26"/>
<path d="M57.6561 30.7385C59.4179 32.5805 61.0376 34.3074 62.6858 36.0055C63.3677 36.725 63.9076 37.4733 63.112 38.3655C62.2311 39.3153 61.4355 38.7397 60.6966 38.0202C58.9917 36.3221 57.2583 34.624 55.2408 32.638C55.2408 34.3937 55.2408 35.7464 55.2408 37.1279C55.2408 38.1065 54.9282 38.8548 53.82 38.8548C52.797 38.826 52.4561 38.1065 52.4561 37.1855C52.4561 32.2063 52.4561 27.2271 52.4561 22.248C52.4561 21.0391 53.1096 20.4923 54.2462 20.4923C55.6102 20.4635 57.0026 20.4635 58.3665 20.5211C61.407 20.6362 63.4814 22.6509 63.5382 25.5003C63.5951 28.3784 61.6628 30.4219 58.5939 30.7097C58.2813 30.7097 57.9971 30.7097 57.6561 30.7385ZM55.326 27.8028C56.5479 27.8028 57.6846 27.8891 58.7928 27.774C59.9578 27.6589 60.6682 26.853 60.6966 25.6442C60.7251 24.3778 60.0147 23.5431 58.7644 23.3992C57.6561 23.2841 56.5195 23.3704 55.326 23.3704C55.326 24.8383 55.326 26.2198 55.326 27.8028Z" fill="#7D7DFF" fill-opacity="0.26"/>
<path d="M43.1637 23.3129C43.1637 25.011 43.1637 26.5076 43.1637 28.2345C44.556 28.2345 45.92 28.2345 47.2556 28.2345C48.3638 28.2345 49.6709 28.1482 49.6709 29.7024C49.6709 31.199 48.3922 31.0839 47.3408 31.0839C45.9768 31.0839 44.6129 31.0839 43.1637 31.0839C43.1637 32.7532 43.1637 34.2498 43.1637 36.0343C44.8686 36.0343 46.5452 36.0343 48.2217 36.0343C48.7332 36.0343 49.3583 35.8616 49.7561 36.0918C50.296 36.4084 51.0064 37.0128 50.978 37.5021C50.978 37.9626 50.1824 38.7685 49.6993 38.7973C47.0566 38.9124 44.414 38.8548 41.7429 38.8548C40.8336 38.8548 40.3221 38.308 40.3221 37.4158C40.2937 32.2927 40.2937 27.1696 40.3221 22.0465C40.3221 21.0679 40.8904 20.5211 41.8281 20.5211C44.3856 20.4923 46.943 20.4923 49.5004 20.5211C50.4097 20.5211 51.0917 20.9528 51.0633 21.9602C51.0349 22.9675 50.4097 23.3417 49.4436 23.3417C47.3976 23.3129 45.3517 23.3129 43.1637 23.3129Z" fill="#7D7DFF" fill-opacity="0.26"/>
<path d="M67.9421 30.7672C67.9421 32.9258 67.9421 34.9117 67.9421 36.9264C67.9421 37.905 67.7432 38.826 66.5497 38.826C65.3278 38.826 65.1289 37.9338 65.1289 36.9552C65.1289 32.1775 65.1289 27.371 65.1289 22.5933C65.1289 20.9528 65.5551 20.521 67.118 20.521C68.7377 20.521 70.3574 20.4635 71.9203 20.6649C74.4493 20.9815 76.1542 23.1114 76.1542 25.6153C76.1542 28.1481 74.4493 30.2204 71.9203 30.5945C70.6984 30.7384 69.4197 30.6809 67.9421 30.7672ZM67.9989 27.8603C68.6241 27.8603 69.0787 27.8603 69.5334 27.8603C70.1017 27.8603 70.67 27.8891 71.2383 27.8315C72.4886 27.7164 73.3979 26.7666 73.3695 25.5866C73.3411 24.2914 72.6023 23.5143 71.3804 23.3704C70.2722 23.2265 69.164 23.3416 67.9989 23.3416C67.9989 24.8958 67.9989 26.2773 67.9989 27.8603Z" fill="#7D7DFF" fill-opacity="0.26"/>
<path d="M105.963 53.1015C105.224 53.4469 104.428 53.7347 103.803 54.1952C102.354 55.2601 100.962 56.4114 99.5409 57.5339C98.5463 58.3109 97.6654 59.0017 97.2676 60.4408C96.7561 62.3979 94.1419 62.9448 92.7779 61.4193C92.0107 60.5847 91.1866 60.3544 90.2205 60.153C89.2544 59.9803 88.2598 59.8076 87.2937 59.6349C86.1855 59.4334 85.1056 59.0305 84.1111 60.0091C83.8838 60.2393 83.3439 60.3832 83.0313 60.2681C81.3832 59.6637 80.275 60.7574 79.0247 61.4769C78.1438 62.0238 77.2629 62.5994 76.3536 63.1174C75.5295 63.6067 74.876 64.0672 74.6202 65.1609C74.2508 66.6288 72.5743 67.3195 71.1819 66.859C69.8179 66.3985 68.937 64.9594 69.2496 63.6067C69.5906 62.0237 70.9546 61.1315 72.489 61.2179C73.1994 61.2754 74.0235 61.1027 74.677 60.7861C75.8705 60.2105 76.9503 59.4046 78.0869 58.7139C79.1383 58.0807 80.0192 57.4763 80.4739 56.1236C81.0706 54.2528 83.7701 53.9074 85.0204 55.4904C85.6456 56.2963 86.3275 56.6129 87.2653 56.728C88.2598 56.8431 89.2259 57.0446 90.1921 57.246C91.3571 57.5051 92.4938 57.7929 93.4883 56.7855C93.7156 56.5553 94.2555 56.4114 94.5397 56.4977C95.9605 56.9582 96.8414 56.0084 97.7791 55.2601C99.001 54.2816 100.251 53.3318 101.473 52.3532C102.468 51.5473 103.519 50.8566 103.86 49.3599C104.144 47.9784 105.934 47.374 107.242 47.8345C108.606 48.3238 109.43 49.7053 109.145 51.1156C108.861 52.5259 107.554 53.5332 106.162 53.4469C106.077 53.3606 106.02 53.2454 105.963 53.1015Z" fill="#7D7DFF" fill-opacity="0.26"/>
<path d="M17.7596 61.0739C11.6787 61.0164 6.84796 56.066 6.90479 49.9355C6.96162 43.8339 11.8776 38.9123 17.9301 38.941C24.0111 38.9698 28.8418 43.9778 28.7566 50.2233C28.6997 56.2674 23.7554 61.1315 17.7596 61.0739ZM25.9434 49.9931C25.9434 45.4744 22.2778 41.7616 17.8165 41.7904C13.3552 41.7904 9.71796 45.532 9.71796 50.0507C9.71796 54.5693 13.412 58.2533 17.8733 58.2533C22.3914 58.2246 25.9434 54.5981 25.9434 49.9931Z" fill="#7D7DFF" fill-opacity="0.26"/>
</svg>
