<svg width="85" height="94" viewBox="0 0 85 94" fill="none" xmlns="http://www.w3.org/2000/svg">
<g clip-path="url(#clip0_317_12014)">
<path d="M84.4446 86.1303C84.2375 85.4126 84.1339 84.7205 84.1339 84.0027C84.1339 64.1364 84.1339 44.2956 84.1339 24.4292C84.1339 19.2512 80.405 15.5599 75.2 15.483C73.6981 15.4573 72.1702 15.4317 70.6683 15.5086C69.7361 15.5599 69.4253 15.3548 69.4253 14.3294C69.4253 11.6635 67.535 9.84347 64.8678 9.7922C63.3658 9.76657 61.838 9.74093 60.3361 9.7922C59.5851 9.81783 59.0931 9.61276 58.6011 8.99755C56.8661 6.81865 54.5614 5.74202 51.7647 5.71639C50.1333 5.71639 48.476 5.69075 46.8446 5.71639C46.1714 5.74202 45.8865 5.61385 45.8606 4.84483C45.757 1.61494 44.0479 0 40.811 0C33.8193 0 26.8275 0 19.8358 0C16.4953 0 14.838 1.56368 14.6826 4.87047C14.6568 5.56258 14.4496 5.74202 13.8022 5.71639C12.3262 5.66512 10.876 5.69075 9.4 5.71639C3.65124 5.71639 0 9.33079 0 14.9703V44.8339C0 54.9081 0 64.9823 0 75.0821C0 80.5678 3.65124 84.2078 9.24463 84.2591C13.595 84.2847 17.9713 84.2847 22.3218 84.2334C23.3058 84.2334 23.6165 84.4385 23.6424 85.4895C23.746 90.3856 27.4749 94 32.4468 94C47.1036 94 61.7862 93.8975 76.443 94.0256C79.3174 94.0513 81.2854 92.8208 83.1758 91.1033C84.6259 89.7447 84.9625 88.0016 84.4446 86.1303ZM69.4512 18.8154C69.4771 18.0976 69.6325 17.8413 70.3835 17.8669C71.989 17.9182 73.5686 17.8413 75.1741 17.8926C79.0843 17.9951 81.6738 20.661 81.6738 24.5318C81.6738 43.3728 81.6738 62.2138 81.6738 81.0292V82.3109C80.0165 80.4652 78.5405 78.8759 77.0904 77.261C71.989 71.6215 66.9135 65.982 61.8121 60.3681C61.2683 59.7786 61.2683 59.471 61.7862 58.8301C64.6606 55.549 66.3179 51.7038 66.8099 47.3973C66.9135 46.4745 67.2501 46.3207 68.0788 46.3463C69.8397 46.3976 71.6264 46.372 73.3873 46.372C74.2678 46.372 75.1482 46.2438 75.1482 45.1672C75.1741 43.988 74.2937 43.8855 73.3355 43.8855C71.4711 43.9111 69.6325 43.8598 67.7681 43.9111C67.1207 43.9367 66.8876 43.7573 66.8358 43.0652C66.7581 41.6553 66.4992 40.2454 66.0331 38.9125C65.7482 38.1178 65.9813 37.9896 66.7322 38.0153C69.762 38.0409 72.7658 38.0153 75.7956 38.0409C76.7537 38.0409 77.6601 37.9127 77.6342 36.7848C77.6083 35.6569 76.676 35.5544 75.7438 35.5544C72.4292 35.58 69.0887 35.5544 65.7741 35.5544C65.2303 35.5544 64.7383 35.6057 64.3758 34.9648C60.854 28.6332 55.4419 24.9932 48.2689 23.6602H49.6931C54.5614 23.6602 59.4557 23.6602 64.324 23.6602C67.5868 23.6346 69.3736 21.9684 69.4512 18.8154ZM40.9923 40.1942C42.1835 39.3482 41.5102 38.1434 41.6138 37.1181C41.6915 36.2465 41.8727 35.7595 42.9344 36.1696C44.4623 36.7592 45.9901 36.8361 47.5956 36.2722C49.1234 35.7338 49.2011 35.862 49.2011 37.5282C49.2011 37.7077 49.2011 37.8615 49.2011 37.8615C49.1234 38.7587 48.9939 39.4764 49.6931 40.0404C50.1074 40.3736 49.9003 40.835 49.5636 40.9888C48.7091 41.399 48.6573 42.1423 48.5019 42.9114C48.4242 43.3215 48.3466 43.7829 48.1135 44.1162C47.3884 45.0903 46.6893 46.3207 45.2132 46.1156C43.8149 45.9105 43.038 44.8339 42.546 43.6035C42.1835 42.655 42.3388 41.4502 41.1477 40.8863C40.9664 40.7837 40.7851 40.348 40.9923 40.1942ZM41.0182 32.3758C41.8468 30.7865 45.3686 29.6073 47.0518 30.2738C47.7251 30.5558 48.243 30.9915 48.4501 31.6837C48.6055 32.2732 48.8904 32.7859 49.2788 33.3499C47.1813 33.8113 45.1873 34.6828 43.038 33.7088C42.6237 33.5037 42.0799 33.4011 41.6397 33.478C40.1636 33.7344 40.7333 32.9141 41.0182 32.3758ZM42.9344 48.6534C43.2193 48.1407 43.5041 48.1663 43.9444 48.3202C44.9025 48.6534 45.8865 48.679 46.8446 48.3202C47.259 48.1663 47.5179 48.1407 47.7769 48.6021C48.3983 49.7557 49.4601 50.3965 50.6253 50.8836C52.5934 51.7038 54.5873 52.5241 56.5554 53.3701C57.151 53.6264 57.7466 53.8571 58.1091 54.6005H32.6281C32.9388 53.8315 33.6121 53.6008 34.2077 53.3444C36.1758 52.4985 38.1697 51.6782 40.1377 50.8579C41.3289 50.3965 42.3647 49.7557 42.9344 48.6534ZM59.9736 52.8317C59.378 52.0115 58.5234 51.5244 57.5912 51.1143C55.4937 50.2171 53.3703 49.3711 51.2986 48.474C50.3923 48.0894 49.4601 47.423 49.8485 46.372C50.3146 45.1415 50.5736 43.7829 51.4281 42.6807C52.3862 41.399 52.8782 39.9122 52.3862 38.3485C52.1791 37.682 52.1273 37.195 52.3344 36.5541C52.9041 34.7854 52.93 33.0935 51.2986 31.7862C51.1174 31.6324 50.9879 31.3761 50.8843 31.1453C49.3306 27.531 45.3686 26.4031 42.054 28.6076C41.7433 28.8127 41.4066 29.0434 41.07 29.1972C39.4386 29.8636 38.7135 31.171 38.2733 32.7859C37.5482 35.4006 38.4545 37.9384 38.5063 40.5274C38.5322 42.2193 40.0083 43.3984 40.5262 44.9877C41.2253 47.2435 41.2253 47.7562 39.0242 48.7047C36.9008 49.6275 34.7256 50.4478 32.6022 51.4219C30.5047 52.396 29.6501 54.2672 30.2198 56.2154L30.1939 56.1898C30.8931 57.2664 31.8771 57.7278 33.146 57.6509C34.1041 57.5997 35.0364 57.6509 35.9945 57.6509C43.1416 57.6509 50.3146 57.6509 57.4617 57.6509C58.4975 57.6509 59.5592 57.6253 60.2843 56.7025C58.2904 59.6248 55.416 61.4448 52.1791 62.7008C44.6694 65.5719 36.0722 63.3417 30.8672 57.2408C30.6083 56.9332 30.2198 56.6512 30.1939 56.1898C28.0964 53.934 27.0865 51.1655 26.5945 48.2176C24.73 36.7079 33.0424 26.48 44.7989 26.1211C52.5157 25.8904 58.5234 29.2997 62.2006 36.0415C65.8259 42.6807 65.2821 49.3199 61.2165 55.7028C61.0612 55.9335 60.8022 56.1129 60.595 56.318C61.1906 55.0106 60.7504 53.9084 59.9736 52.8317ZM45.8865 8.97191C45.9124 8.56177 45.8088 8.07472 46.4821 8.10035C48.6832 8.17726 50.8843 7.92092 53.0595 8.27979C54.0694 8.4336 54.9499 8.92064 56.0116 9.76657C52.6193 9.76657 49.5636 9.76657 46.5339 9.76657C45.9124 9.7922 45.8606 9.45896 45.8865 8.97191ZM64.7124 12.1762C66.1884 12.1762 66.9394 12.9708 66.9653 14.4063C66.9912 15.8931 66.9912 17.4055 66.9653 18.8923C66.9394 20.4303 66.2402 21.1481 64.6606 21.1481C61.0353 21.1737 57.4099 21.1481 53.8105 21.1481C50.2628 21.1481 46.741 21.1481 43.2193 21.1481C41.4843 21.1481 40.7851 20.456 40.7592 18.7641C40.7592 17.303 40.7333 15.8675 40.7592 14.4063C40.7851 12.9708 41.5361 12.1505 43.0121 12.1505C50.2369 12.1505 57.4617 12.1762 64.7124 12.1762ZM17.1686 5.12681C17.1686 3.07608 17.816 2.43523 19.8617 2.43523C23.3576 2.43523 26.8534 2.43523 30.3493 2.43523C33.8452 2.43523 37.341 2.43523 40.8369 2.43523C42.7014 2.43523 43.4006 3.15299 43.4264 4.973C43.4264 6.2547 43.4006 7.53641 43.4523 8.81811C43.4782 9.51023 43.3229 9.84347 42.546 9.81783C41.6915 9.76657 40.8628 10.0229 40.2672 10.6125C39.4904 11.3815 38.6099 11.4584 37.5741 11.4584C31.67 11.4328 25.7658 11.4584 19.8617 11.4328C17.8678 11.4328 17.2204 10.7919 17.2204 8.84374C17.1686 7.58767 17.1686 6.35724 17.1686 5.12681ZM23.6165 39.8609C23.5388 41.2964 23.5906 42.7576 23.5906 44.2187C23.5906 44.6288 23.6165 44.9877 23.0209 44.9877C18.3857 44.9877 13.7504 44.9877 9.03747 44.9877C9.32232 44.1674 9.91791 43.9111 10.4876 43.6804C12.4556 42.8345 14.4496 42.0142 16.4176 41.1939C17.6347 40.6812 18.7482 40.0404 19.3697 38.8356C19.6287 38.3485 19.8617 38.3741 20.276 38.5536C20.9234 38.8356 21.6485 38.9637 22.2959 38.7587C23.5129 38.3741 23.6683 38.8099 23.6165 39.8609ZM17.9972 27.3259C18.0749 26.3774 18.3339 26.0185 19.3179 26.3774C20.4573 26.7876 21.6226 27.0695 22.8656 26.7619C23.4871 26.6081 23.5906 26.8901 23.5906 27.4284C23.5647 28.6588 23.5906 29.8893 23.5906 31.1453C23.5906 32.2476 23.5647 33.3499 23.5906 34.4778C23.6165 35.2212 23.4612 35.8364 22.7102 36.144C21.9851 36.426 21.2342 36.4772 20.6386 35.9902C19.784 35.2724 18.9554 34.529 18.7741 33.3242C18.6446 32.504 18.5669 31.6324 17.6347 31.1966C17.4017 31.0941 17.1945 30.5814 17.4017 30.4276C18.5669 29.556 17.9196 28.3769 17.9972 27.3259ZM23.9791 21.6351C23.7978 21.994 23.746 22.4554 23.6942 22.8656C23.5129 24.1216 23.1245 24.4549 21.6226 24.4549C20.3019 24.3267 18.9554 23.4295 17.4017 23.7884C17.2204 23.8397 17.1427 23.6089 17.1686 23.4295C17.2463 23.1475 17.2981 22.8399 17.4275 22.5836C18.2562 21.0968 21.7262 19.8664 23.3317 20.456C23.9273 20.661 24.3416 20.8917 23.9791 21.6351ZM24.73 18.4052C22.4771 17.4055 20.3278 17.5849 18.2562 18.9948C17.065 19.8151 15.5372 20.2765 15.097 21.8146C14.5273 23.7115 13.8281 25.6597 14.7862 27.6591C14.8121 27.6848 14.838 27.736 14.838 27.7617C14.2942 30.1713 15.2006 32.1963 16.4694 34.1702C16.7284 34.5803 16.7802 35.1443 17.0132 35.6057C17.7901 37.1437 17.5829 37.964 16.0033 38.6818C13.8281 39.6815 11.5752 40.5787 9.37411 41.5015C8.18292 42.0142 7.25069 42.8088 6.70689 43.988C5.80055 45.9362 6.75868 47.423 8.93388 47.4486C13.4138 47.4742 17.8937 47.4999 22.3995 47.423C23.4353 47.3973 23.6942 47.7049 23.6683 48.7047C23.6165 51.8576 23.6165 55.0363 23.6683 58.1893C23.6942 59.0608 23.4612 59.3428 22.5289 59.3428C17.8678 59.2915 13.2066 59.3172 8.54545 59.3172C8.23471 59.3172 7.94986 59.3172 7.63912 59.3172C6.88815 59.3428 6.42204 59.7273 6.37025 60.4963C6.31846 61.291 6.81047 61.7011 7.53554 61.7524C8.44187 61.8036 9.34821 61.778 10.2545 61.778C14.346 61.778 18.4375 61.8036 22.5548 61.7524C23.4094 61.7524 23.6942 61.9831 23.6424 62.829C23.5647 64.2902 23.5906 65.7257 23.6424 67.1868C23.6683 68.0071 23.4353 68.2634 22.5548 68.2634C17.9455 68.2122 13.3361 68.2378 8.70083 68.2378C8.44187 68.2378 8.18292 68.2378 7.92397 68.2378C7.01763 68.2122 6.34435 68.4941 6.37025 69.4939C6.39614 70.4167 7.04353 70.673 7.89807 70.673C9.63306 70.6474 11.3421 70.673 13.0771 70.673C16.2364 70.673 19.3697 70.7243 22.5289 70.6474C23.4612 70.6218 23.6683 70.9294 23.6683 71.8009C23.6165 74.8001 23.6165 77.7737 23.6683 80.7728C23.6683 81.5675 23.5129 81.8751 22.6066 81.8751C18.0749 81.8238 13.5433 81.8751 9.01157 81.8495C5.17906 81.7726 2.46006 79.0554 2.46006 75.2872C2.43416 65.1617 2.46006 55.0363 2.46006 44.9365C2.46006 34.9392 2.46006 24.9675 2.46006 14.9703C2.46006 10.715 5.07548 8.12599 9.4 8.12599C10.876 8.12599 12.3262 8.15162 13.8022 8.10035C14.4755 8.07472 14.6568 8.27979 14.6826 8.97191C14.838 12.33 16.4953 13.8936 19.9135 13.8936C25.6623 13.8936 31.3851 13.8936 37.1339 13.8936C37.7295 13.8936 38.2992 13.7655 38.2733 14.7396C38.2474 15.7137 37.6259 15.4317 37.1339 15.4573C35.632 15.483 34.1041 15.483 32.6022 15.4573C30.0127 15.4317 27.7857 16.3289 25.9989 18.1745C25.5587 18.6616 25.2997 18.6359 24.73 18.4052ZM26.1284 23.4295C26.3096 20.2765 29.0287 18.0207 32.3691 17.8926C34.0523 17.8157 35.7355 17.8926 37.4187 17.8669C37.9884 17.8669 38.2992 17.9438 38.2733 18.6103C38.1956 21.4044 39.6198 23.0706 42.7014 23.7627C35.1658 24.9932 29.8055 28.787 26.0766 35.3237C26.0766 31.1453 25.8953 27.2746 26.1284 23.4295ZM72.0149 91.5648C59.0154 91.5648 46.0419 91.5648 33.0424 91.5648C28.6143 91.5648 26.0248 89.0014 26.0248 84.6692C26.0248 75.0564 26.0248 65.4437 26.0248 55.8309V54.6005C29.7019 61.0603 34.8551 64.8541 41.8468 66.0589C46.4562 66.8536 50.8584 66.1614 55.0534 64.1107C55.7785 63.7518 56.1152 63.7775 56.5036 64.4952C57.3322 65.982 58.2645 67.3919 59.2744 69.0324H57.8501C49.2529 69.0324 40.6815 69.0324 32.0843 69.0324C31.7477 69.0324 31.3851 69.0068 31.0485 69.0324C30.3493 69.1094 29.9091 69.4939 29.8832 70.186C29.8573 70.955 30.2975 71.3651 31.0485 71.4677C31.4369 71.5189 31.8253 71.4933 32.2138 71.4933C41.303 71.4933 50.4182 71.5189 59.5333 71.4677C60.4656 71.4677 61.0094 71.6728 61.4755 72.5187C62.4854 74.3131 63.6248 76.0049 64.7383 77.7993C64.2981 78.1325 63.8579 77.9787 63.4694 77.9787C53.0336 77.9787 42.5978 77.9787 32.1361 77.9787C31.7477 77.9787 31.3592 77.9531 30.9708 78.0044C30.2716 78.1069 29.8832 78.517 29.8832 79.2092C29.8832 79.85 30.2457 80.2602 30.8672 80.3627C31.2815 80.4396 31.7218 80.414 32.162 80.414C43.1157 80.414 54.0694 80.4396 65.049 80.3883C66.0331 80.3883 66.6028 80.6959 67.0948 81.5162C69.0628 84.7974 71.1085 88.0529 73.1543 91.3597C72.7658 91.6673 72.3774 91.5648 72.0149 91.5648ZM80.897 89.796C79.9388 90.565 79.0325 91.4622 77.8413 91.5648C76.443 91.5648 75.7179 90.8214 75.1223 89.8729C70.9791 83.1824 66.8358 76.492 62.6926 69.8271C61.2942 67.5713 59.9218 65.3155 58.4716 63.0854C58.0832 62.4701 58.2127 62.2138 58.7306 61.778C59.3262 61.2653 59.5592 61.5729 59.9218 61.9831C67.0171 69.8527 74.1124 77.6968 81.2077 85.5408C82.6579 87.0788 82.5543 88.4887 80.897 89.796Z" fill="#7D7DFF" fill-opacity="0.26"/>
</g>
<defs>
<clipPath id="clip0_317_12014">
<rect width="84.6777" height="94" fill="white"/>
</clipPath>
</defs>
</svg>
