<svg width="93" height="94" viewBox="0 0 93 94" fill="none" xmlns="http://www.w3.org/2000/svg">
<g clip-path="url(#clip0_317_12021)">
<path d="M70.2377 80.8215C71.5812 80.8215 72.7506 80.8215 73.92 80.8215C75.0645 80.8215 76.209 80.8215 77.4282 80.8215C77.4282 74.8449 77.4282 68.8933 77.4282 62.8417C76.01 62.8417 74.5918 62.8167 73.1736 62.8667C72.9248 62.8667 72.6262 63.2168 72.4521 63.4669C68.2721 69.7686 62.5993 74.1197 55.4337 76.3953C50.0595 78.0958 44.5857 78.2708 39.0871 76.9705C38.9129 76.9205 38.7139 76.8955 38.5646 76.8704C37.9177 78.7459 37.2957 80.5714 36.599 82.572C50.781 85.8478 63.0223 82.2719 73.4722 71.9691C74.1688 72.6193 74.8655 73.2695 75.587 73.9447C72.1286 77.6457 68.2223 80.5714 63.7438 82.697C54.6126 87.0732 45.158 87.9484 35.4047 85.2727C34.9071 85.1226 34.6583 85.2477 34.31 85.6228C29.0851 91.6744 22.5166 94.075 14.7787 92.1745C7.19007 90.299 2.2637 85.2727 0.546937 77.5706C-1.16983 69.9936 1.21872 63.5419 7.01591 58.4155C7.51352 57.9654 7.63793 57.6403 7.46376 57.0152C5.52307 50.0133 5.52307 42.9864 7.38912 35.9596C7.56328 35.2844 7.43888 34.8843 6.96615 34.4092C5.49819 32.9838 4.05511 31.5084 2.53739 29.983C3.43309 29.1077 4.25416 28.2825 5.1001 27.4573C5.77188 26.8071 6.04556 26.0819 5.67235 25.1817C5.29914 24.2565 4.62737 23.8563 3.63214 23.8814C2.48763 23.9064 1.34312 23.8814 0.123966 23.8814C0.123966 20.8806 0.123966 17.9548 0.123966 14.904C1.29336 14.904 2.46275 14.879 3.63214 14.904C4.57761 14.929 5.24938 14.5539 5.62259 13.6786C6.02068 12.7534 5.79676 11.9782 5.07522 11.303C4.25416 10.5028 3.43309 9.70258 2.71156 8.97739C4.82641 6.85182 6.91639 4.77627 9.08101 2.57569C9.7279 3.25086 10.5241 4.07608 11.3203 4.9013C11.9672 5.60149 12.7136 5.95158 13.659 5.55148C14.6294 5.15137 15.0026 4.45118 14.9777 3.42591C14.928 2.30061 14.9777 1.17531 14.9777 0C17.9385 0 20.8744 0 23.9099 0C23.9099 1.15031 23.9348 2.32562 23.9099 3.50093C23.885 4.45118 24.2333 5.12636 25.1042 5.52647C25.9999 5.92658 26.796 5.72652 27.4678 5.00133C28.264 4.1511 29.0851 3.30088 29.931 2.40064C31.5234 4.00106 32.9913 5.45145 34.4344 6.95185C34.8823 7.42698 35.3052 7.502 35.9024 7.32695C54.7121 2.2506 74.2435 11.353 82.6034 29.0827C82.8771 29.6579 83.1756 29.908 83.8474 29.908C85.6388 29.8579 87.4551 29.8829 89.2465 29.8829C91.237 29.8829 92.4561 31.1083 92.4561 33.0838C92.4561 41.9362 92.4561 50.8135 92.4561 59.6659C92.4561 61.5914 91.2121 62.8167 89.2963 62.8417C86.4101 62.8667 83.5239 62.8417 80.588 62.8417C80.588 68.8433 80.588 74.7949 80.588 80.7965C82.9268 80.7965 85.2656 80.7965 87.8034 80.7965C84.8426 85.2477 81.9814 89.5738 79.0454 94C76.0598 89.5738 73.1985 85.2727 70.2377 80.8215ZM17.8888 89.6989C17.8888 88.7236 17.8888 87.8234 17.8888 86.8731C18.9337 86.8731 19.8792 86.8731 20.9242 86.8731C20.9242 87.8484 20.9242 88.7486 20.9242 89.6739C24.0094 89.5238 27.7166 87.9484 29.9061 85.8728C29.2095 85.2727 28.4879 84.6725 27.8161 84.0974C28.6123 83.2471 29.2592 82.572 30.0554 81.7467C30.7023 82.4719 31.3243 83.1721 31.9712 83.8973C34.1358 81.1966 35.4047 78.2708 35.6784 74.8199C34.6832 74.8199 33.7875 74.8199 32.8669 74.8199C32.8669 73.7946 32.8669 72.8444 32.8669 71.7941C33.8373 71.7941 34.733 71.7941 35.6784 71.7941C35.355 68.3682 34.111 65.4424 31.8717 62.6667C31.2497 63.4419 30.6525 64.1671 30.1052 64.8673C29.2592 64.067 28.5874 63.4169 27.7415 62.6167C28.463 61.9665 29.1597 61.3413 29.8315 60.7412C27.4927 58.5906 23.2381 56.8651 20.8496 57.1152C20.8496 57.9904 20.8496 58.8907 20.8496 59.8159C19.8295 59.8159 18.884 59.8159 17.8639 59.8159C17.8639 58.8407 17.8639 57.9404 17.8639 57.0152C14.7787 57.1652 11.0217 58.7406 8.88196 60.8162C9.57862 61.4163 10.3002 62.0165 10.9222 62.5416C10.1509 63.3919 9.52886 64.092 8.75756 64.9423C8.08578 64.1921 7.48864 63.5169 6.81686 62.7917C4.67713 65.4924 3.38333 68.4182 3.10965 71.8691C4.10487 71.8691 5.00058 71.8691 5.92116 71.8691C5.92116 72.8944 5.92116 73.8446 5.92116 74.8699C4.95081 74.8699 4.05511 74.8699 3.10965 74.8699C3.43309 78.2958 4.67713 81.2216 6.91639 83.9973C7.5384 83.2221 8.11066 82.4969 8.68291 81.7968C9.52886 82.597 10.2006 83.2722 11.0217 84.0724C10.3002 84.7225 9.6035 85.3227 8.88196 85.9729C11.5691 88.1234 14.4801 89.3738 17.8888 89.6989ZM69.1678 62.9668C66.1821 62.4666 65.5601 61.7164 65.5601 58.7406C65.5601 50.3384 65.6099 41.9612 65.5352 33.5589C65.5103 31.2083 66.9534 29.7579 68.9688 29.8579C68.9936 29.8579 69.0434 29.7829 69.0683 29.7329C62.251 19.8303 49.2384 15.7542 38.7139 19.0051C38.7139 20.6055 38.7139 22.2309 38.7139 23.8814C37.3952 23.8814 36.176 23.8814 34.9569 23.8814C34.0363 23.8814 33.4392 24.3565 33.1157 25.1817C32.7176 26.232 33.0162 26.9572 34.31 27.9324C34.4344 27.7824 34.5837 27.6073 34.7081 27.4573C36.2507 25.5068 38.2163 24.1564 40.6794 24.0314C44.3618 23.8563 48.0441 24.0064 51.7513 24.0064C52.025 24.0064 52.2987 24.0814 52.5724 24.1564C57.7973 25.4568 60.7581 30.7832 59.116 36.0096C58.8423 36.9098 58.6682 37.635 59.1658 38.6353C60.3849 41.0109 58.9419 43.9367 56.3791 44.6619C55.7074 44.8619 54.9858 44.8619 54.2145 44.962C54.0404 46.7374 53.3935 48.2878 51.9753 49.4882C51.3035 50.0633 51.4528 50.9886 52.2738 51.3637C59.2404 54.3645 62.5744 59.7159 62.5495 67.2679C62.5495 67.9681 62.5495 68.6683 62.5495 69.5435C65.2367 67.618 67.3764 65.4924 69.1678 62.9668ZM68.5956 59.7659C75.5621 59.7659 82.479 59.7659 89.346 59.7659C89.346 50.7635 89.346 41.8361 89.346 32.9338C82.4043 32.9338 75.5124 32.9338 68.5956 32.9338C68.5956 41.8861 68.5956 50.8135 68.5956 59.7659ZM18.9337 53.8393C23.7855 53.7893 28.0898 55.3397 31.6975 58.2905C32.8669 56.9401 33.8124 55.4898 35.0813 54.4645C36.5741 53.2392 38.3407 52.3639 40.0325 51.3887C40.7043 50.9886 41.1771 50.0883 40.7043 49.7132C39.1368 48.4879 38.3655 46.8625 38.1914 44.9119C37.9923 44.8869 37.8928 44.8619 37.7684 44.8619C33.7626 45.162 31.4985 40.7608 33.5885 37.8601C33.688 37.71 33.7377 37.435 33.688 37.2599C33.3894 36.0596 33.0411 34.8843 32.6679 33.5839C31.8219 34.5342 30.9511 35.4594 30.0305 36.4847C29.0353 35.4594 28.2142 34.6342 27.3932 33.759C26.7463 33.0838 26.0247 32.8337 25.129 33.2088C24.2084 33.5839 23.8104 34.2591 23.8601 35.2594C23.885 36.4347 23.8601 37.61 23.8601 38.8603C22.1434 38.8603 20.5261 38.8603 18.9586 38.8603C17.5653 43.1365 17.5404 49.013 18.9337 53.8393ZM79.8167 29.8829C78.4981 27.8074 77.4531 25.8819 76.1344 24.1314C69.0932 14.7789 59.7132 9.72759 48.0939 8.97739C43.5407 8.67731 39.0622 9.32748 34.7081 10.7529C33.5636 11.128 32.842 12.1032 32.9913 13.1035C33.1406 14.2538 33.9617 14.904 35.3052 14.904C36.4249 14.904 37.5445 14.904 38.689 14.904C38.7388 15.204 38.7636 15.4791 38.8134 15.7542C38.9378 15.7542 39.0124 15.7542 39.112 15.7292C39.3857 15.6792 39.6593 15.6292 39.933 15.5541C43.8144 14.7289 47.6958 14.6539 51.5772 15.3791C60.5093 17.0545 67.4759 21.7308 72.5267 29.3328C72.676 29.5579 72.9745 29.8329 73.1985 29.8329C75.2885 29.908 77.4033 29.8829 79.8167 29.8829ZM17.8888 35.8095C18.884 35.8095 19.8543 35.8095 20.8496 35.8095C20.7252 33.3089 21.6457 31.4334 23.9845 30.4831C26.2984 29.5329 28.264 30.2831 29.7568 31.9335C30.5281 31.2583 31.2497 30.6332 31.9961 29.958C30.1052 28.2825 29.4583 26.282 30.4286 23.9564C31.399 21.6308 33.3148 20.7555 35.7033 20.8806C35.7033 19.8303 35.7033 18.88 35.7033 17.9548C32.8172 17.8047 31.3492 16.9795 30.5033 15.004C29.4583 12.6034 30.1052 10.5778 31.9961 8.87736C31.2746 8.15217 30.6028 7.47699 29.9061 6.7518C28.2889 8.55227 26.3731 9.30247 24.0592 8.35222C21.6955 7.40197 20.75 5.50146 20.8744 3.0008C19.8543 3.0008 18.9089 3.0008 17.9136 3.0008C18.038 5.50146 17.1175 7.40197 14.7787 8.35222C12.4648 9.30247 10.4992 8.57728 8.98148 6.87683C8.21018 7.57702 7.51352 8.20218 6.79198 8.87736C8.68291 10.5528 9.32981 12.5533 8.35946 14.879C7.38912 17.2046 5.47331 18.0798 3.05988 17.9548C3.05988 18.98 3.05988 19.9053 3.05988 20.9056C5.57283 20.7805 7.46376 21.7058 8.40923 24.1064C9.32981 26.432 8.60827 28.3826 6.81686 29.958C7.5384 30.6832 8.21018 31.3583 8.90684 32.0835C10.5738 30.183 12.5892 29.5078 14.928 30.5331C17.1175 31.5084 18.038 33.3339 17.8888 35.8095ZM41.401 34.5592C41.0029 33.5839 40.6546 32.7087 40.2565 31.7584C41.3263 31.4834 42.222 31.2583 43.068 31.0583C43.1426 31.1083 43.1675 31.1333 43.1924 31.1583C43.2919 31.4084 43.3914 31.6834 43.491 31.9335C44.5359 34.2591 46.3274 35.6595 48.8652 35.8345C51.2288 35.9846 53.6174 35.8595 56.0059 35.8595C57.9217 31.8085 55.2098 27.0822 50.8308 26.9322C47.7704 26.8071 44.6852 26.8321 41.6249 26.9322C37.1962 27.0822 34.31 32.2086 36.4746 35.8595C38.3158 36.1346 39.8833 35.5094 41.401 34.5592ZM10.0514 56.0649C12.1911 55.3147 14.0074 54.6895 15.8734 54.0394C14.6294 49.038 14.6045 44.0117 15.7988 38.9604C15.5002 38.9104 15.2265 38.8853 14.9031 38.8353C14.9031 37.685 14.9031 36.5597 14.9031 35.4594C14.9031 34.0841 14.3059 33.3089 13.1366 33.1338C12.1413 32.9838 11.171 33.684 10.7729 34.8343C9.32981 39.2104 8.68291 43.6866 9.00636 48.2628C9.20541 50.8385 9.70302 53.4392 10.0514 56.0649ZM49.736 60.8162C49.2384 61.6414 51.2288 72.8694 52.0748 74.4198C54.3389 73.5446 56.6528 72.6443 58.9419 71.7191C59.2155 71.619 59.5888 71.294 59.5888 71.0689C59.539 68.1431 59.962 65.1923 59.0165 62.3416C58.295 60.141 57.1256 58.2655 55.3093 56.6151C54.8614 57.9404 54.4633 59.1407 54.0652 60.3411C53.6672 61.5414 53.2691 62.7417 52.7963 64.1421C51.7265 62.9918 50.7561 61.9165 49.736 60.8162ZM51.9753 38.8603C51.0049 38.8603 50.1341 38.9604 49.2882 38.8353C48.069 38.6603 46.6508 38.6603 45.7302 38.0101C43.9886 36.7598 42.5704 37.1849 40.978 38.1101C40.555 38.3602 40.4058 38.5603 40.4555 39.0354C40.7292 41.0609 40.9531 43.1115 41.2268 45.137C41.4756 46.8375 42.645 47.8127 44.3618 47.8377C45.6058 47.8627 46.8498 47.8627 48.069 47.8377C49.7858 47.8127 50.9303 46.8125 51.1791 45.112C51.4777 43.0865 51.7016 41.0359 51.9753 38.8603ZM40.6297 74.2448C41.4507 70.0436 42.2718 65.9675 43.068 61.8665C43.1178 61.5914 42.9436 61.2663 42.8938 60.9662C42.7694 60.9162 42.645 60.8412 42.5455 60.7912C41.5503 61.8164 40.555 62.8417 39.5349 63.892C38.7388 61.5164 37.9426 59.1157 37.022 56.39C36.0516 57.7154 35.2803 58.8156 34.4842 59.9159C34.1358 60.3911 34.1358 60.7912 34.5588 61.2913C36.1263 63.1918 37.2957 65.3174 37.8928 67.693C38.3904 69.6685 38.6392 71.7191 39.0124 73.8697C39.3857 73.9447 39.933 74.0947 40.6297 74.2448ZM43.5905 74.6949C45.4068 74.6949 47.0738 74.6949 48.8403 74.6949C48.069 70.7938 47.3226 67.0678 46.5762 63.3168C46.5513 63.1418 46.3522 63.0168 46.2278 62.8667C46.1034 63.0168 45.9044 63.1418 45.8795 63.3168C45.1082 67.0428 44.3618 70.7938 43.5905 74.6949ZM82.1306 83.8723C79.9909 83.8723 78.0004 83.8723 75.8607 83.8723C76.9306 85.4727 77.9258 86.9981 78.9957 88.5986C80.0655 86.9731 81.0608 85.4727 82.1306 83.8723ZM48.7408 55.5398C49.6614 56.465 50.6068 57.4153 51.5772 58.3905C51.9504 57.2402 52.3485 56.0649 52.7466 54.8896C50.98 53.7643 50.5322 53.8643 48.7408 55.5398ZM40.8536 58.4155C41.8488 57.4153 42.7694 56.49 43.7149 55.5648C41.824 53.8893 41.3015 53.8143 39.6842 54.9146C40.0823 56.0649 40.4555 57.2402 40.8536 58.4155ZM48.8652 50.8885C46.9991 50.8885 45.4317 50.8885 43.5656 50.8885C43.7398 51.3637 43.7895 51.8388 44.0383 52.0638C46.1532 53.7393 46.3274 53.7393 48.4422 52.0638C48.6661 51.8388 48.691 51.3387 48.8652 50.8885ZM37.4201 38.9104C36.2507 38.7603 35.6287 39.9356 35.8028 40.6358C36.0019 41.536 36.7483 41.9612 37.7933 41.7111C37.6689 40.7859 37.5445 39.8356 37.4201 38.9104ZM54.6126 41.7861C55.8815 41.9112 56.628 41.361 56.628 40.3857C56.628 39.4855 56.0059 38.9354 54.9609 38.9854C54.8614 39.8856 54.737 40.8109 54.6126 41.7861ZM46.203 57.5653C45.0336 58.5906 44.8594 59.0407 45.6058 59.6159C45.8795 59.8409 46.6259 59.8159 46.8747 59.5909C47.5963 58.9407 47.447 58.5656 46.203 57.5653Z" fill="#7D7DFF" fill-opacity="0.26"/>
<path d="M10.9727 66.8428C11.6196 66.1926 12.2665 65.5424 13.0129 64.7922C14.3067 66.0926 15.6005 67.3929 16.8694 68.6933C17.2675 69.0934 17.5909 69.1684 18.1632 69.0434C18.9593 68.8933 19.8302 68.8933 20.6264 69.0434C21.1986 69.1684 21.5221 69.0684 21.8953 68.6683C22.6417 67.843 23.4379 67.0678 24.234 66.2426C24.9805 67.0178 25.6274 67.668 26.4235 68.4932C25.6025 69.2684 24.7814 70.0686 23.9604 70.8438C23.5872 71.1939 23.4627 71.494 23.6369 72.0442C24.234 73.9447 23.5125 75.8702 21.945 76.9955C20.4024 78.0958 18.3373 78.0708 16.7947 76.9705C15.2272 75.8452 14.5555 73.9197 15.1526 71.9941C15.3019 71.494 15.2272 71.2189 14.8789 70.8688C13.5851 69.5935 12.3411 68.3182 11.0722 67.0178C11.0224 66.9928 11.0224 66.9178 10.9727 66.8428ZM19.3326 74.8199C20.1287 74.8449 20.8254 74.1947 20.8503 73.3695C20.8752 72.5693 20.2283 71.8691 19.4072 71.8441C18.611 71.8191 17.9144 72.4693 17.8895 73.2945C17.8895 74.0947 18.5364 74.7949 19.3326 74.8199Z" fill="#7D7DFF" fill-opacity="0.26"/>
<path d="M86.4109 35.9346C86.4109 36.9098 86.4109 37.8351 86.4109 38.8103C81.4846 38.8103 76.5831 38.8103 71.6318 38.8103C71.6318 37.8851 71.6318 36.9348 71.6318 35.9346C76.5084 35.9346 81.4099 35.9346 86.4109 35.9346Z" fill="#7D7DFF" fill-opacity="0.26"/>
<path d="M86.4109 41.936C86.4109 42.9113 86.4109 43.8365 86.4109 44.8118C81.4846 44.8118 76.5831 44.8118 71.6318 44.8118C71.6318 43.8866 71.6318 42.9363 71.6318 41.936C76.5084 41.936 81.4099 41.936 86.4109 41.936Z" fill="#7D7DFF" fill-opacity="0.26"/>
<path d="M71.582 50.7884C71.582 49.7881 71.582 48.8879 71.582 47.9126C76.5084 47.9126 81.4099 47.9126 86.3611 47.9126C86.3611 48.8378 86.3611 49.7881 86.3611 50.7884C81.4845 50.7884 76.583 50.7884 71.582 50.7884Z" fill="#7D7DFF" fill-opacity="0.26"/>
<path d="M71.582 56.7901C71.582 55.8148 71.582 54.8896 71.582 53.9143C76.5333 53.9143 81.4348 53.9143 86.386 53.9143C86.386 54.8646 86.386 55.7898 86.386 56.7901C81.4845 56.7901 76.583 56.7901 71.582 56.7901Z" fill="#7D7DFF" fill-opacity="0.26"/>
<path d="M8.95743 19.255C9.03207 13.5035 13.7843 8.85224 19.5317 8.90226C25.2543 8.97728 29.8821 13.7535 29.8323 19.5301C29.7577 25.2816 25.0055 29.9328 19.258 29.8828C13.5355 29.8078 8.90767 25.0315 8.95743 19.255ZM19.4322 11.9031C15.302 11.9031 11.9431 15.2539 11.9431 19.38C11.9431 23.4811 15.2522 26.857 19.3078 26.882C23.4131 26.907 26.8217 23.5812 26.8466 19.4551C26.8715 15.329 23.5375 11.9281 19.4322 11.9031Z" fill="#7D7DFF" fill-opacity="0.26"/>
<path d="M19.357 14.9041C21.8201 14.9041 23.8604 16.9296 23.8604 19.4053C23.8604 21.8559 21.845 23.8564 19.4067 23.8814C16.9435 23.8814 14.9033 21.8559 14.9033 19.3552C14.9282 16.9296 16.9187 14.9291 19.357 14.9041ZM19.4067 20.8806C20.2029 20.8806 20.8747 20.1805 20.8747 19.3802C20.8747 18.58 20.178 17.9049 19.3818 17.9049C18.5857 17.9049 17.9139 18.605 17.9139 19.4053C17.9139 20.2305 18.5857 20.9056 19.4067 20.8806Z" fill="#7D7DFF" fill-opacity="0.26"/>
</g>
<defs>
<clipPath id="clip0_317_12021">
<rect width="92.4068" height="94" fill="white"/>
</clipPath>
</defs>
</svg>
