<svg width="424" height="112" viewBox="0 0 424 112" fill="none" xmlns="http://www.w3.org/2000/svg">
<path d="M0.833333 3C0.833333 4.47276 2.02724 5.66667 3.5 5.66667C4.97276 5.66667 6.16667 4.47276 6.16667 3C6.16667 1.52724 4.97276 0.333333 3.5 0.333333C2.02724 0.333333 0.833333 1.52724 0.833333 3ZM3.5 69.5H3V70H3.5V69.5ZM420.5 69.5H421V69H420.5V69.5ZM417.833 109C417.833 110.473 419.027 111.667 420.5 111.667C421.973 111.667 423.167 110.473 423.167 109C423.167 107.527 421.973 106.333 420.5 106.333C419.027 106.333 417.833 107.527 417.833 109ZM3 3V69.5H4V3H3ZM3.5 70H420.5V69H3.5V70ZM420 69.5V109H421V69.5H420Z" fill="black"/>
</svg>
