<svg width="121" height="113" viewBox="0 0 121 113" fill="none" xmlns="http://www.w3.org/2000/svg">
<path d="M0.833333 3.49976C0.833333 4.97252 2.02724 6.16642 3.5 6.16642C4.97276 6.16642 6.16667 4.97252 6.16667 3.49976C6.16667 2.027 4.97276 0.833089 3.5 0.833089C2.02724 0.833089 0.833333 2.027 0.833333 3.49976ZM3.5 47.4998H3V47.9998H3.5V47.4998ZM117.5 47.4998H118V46.9998H117.5V47.4998ZM114.833 109.5C114.833 110.973 116.027 112.167 117.5 112.167C118.973 112.167 120.167 110.973 120.167 109.5C120.167 108.027 118.973 106.833 117.5 106.833C116.027 106.833 114.833 108.027 114.833 109.5ZM3 3.49976V47.4998H4V3.49976H3ZM3.5 47.9998H117.5V46.9998H3.5V47.9998ZM117 47.4998V109.5H118V47.4998H117Z" fill="black"/>
</svg>
