<svg width="60" height="60" viewBox="0 0 60 60" fill="none" xmlns="http://www.w3.org/2000/svg">
<g clip-path="url(#clip0_586_30310)">
<path d="M9.48265 22.5657C9.48733 13.7298 15.7139 6.08137 24.3905 4.25324C34.5764 2.10637 44.717 8.91574 46.5655 19.1486C47.4655 24.1314 46.4858 28.7282 43.7264 32.9611C43.6264 33.1142 43.3467 33.2829 43.6311 33.4923C43.8795 33.6751 43.9639 34.122 44.4592 33.9314C45.2092 33.6439 45.8717 33.8736 46.428 34.4298C49.2655 37.2673 52.1186 40.0892 54.9342 42.9486C56.7092 44.7501 56.6811 47.5501 54.9311 49.3064C53.1795 51.0642 50.3842 51.1048 48.5764 49.3282C45.6998 46.5017 42.8639 43.6361 40.0155 40.7829C39.4764 40.2423 39.2592 39.5876 39.5405 38.8626C39.7295 38.3736 39.3076 38.2736 39.1186 38.0282C38.8795 37.7189 38.6998 38.0298 38.5389 38.1376C27.5326 45.4814 12.4983 39.3032 9.85921 26.3392C9.60452 25.0954 9.46702 23.8361 9.48265 22.5657Z" fill="white"/>
<path d="M18.7732 56.2452C14.4685 56.2452 10.1638 56.2499 5.8591 56.2421C4.43254 56.2405 3.50598 54.9718 3.99348 53.7093C4.22629 53.1061 4.66535 52.6796 5.29817 52.5733C5.71848 52.503 5.7466 52.3171 5.7466 51.9671C5.73566 46.6889 5.73879 41.4108 5.73879 36.1327C5.73879 34.4499 6.38723 33.7983 8.06067 33.7983C9.11223 33.7983 10.1638 33.7936 11.2154 33.7999C12.4435 33.8077 13.2169 34.578 13.2185 35.8093C13.2232 41.1843 13.2247 46.5593 13.2107 51.9358C13.2091 52.3655 13.281 52.5296 13.7638 52.5171C15.0888 52.4811 15.0904 52.5077 15.0904 51.1999C15.0904 48.5905 15.0888 45.9796 15.0919 43.3702C15.0935 42.0202 15.8341 41.2843 17.1904 41.2811C18.281 41.278 19.3716 41.278 20.4622 41.2811C21.8404 41.2843 22.5716 42.0233 22.5732 43.4202C22.5747 46.2827 22.5825 49.1468 22.5638 52.0093C22.5607 52.4233 22.6669 52.5218 23.0747 52.5155C24.445 52.4968 24.445 52.5139 24.445 51.128C24.445 50.3483 24.4357 49.5702 24.4482 48.7905C24.4669 47.6983 25.2404 46.9108 26.3279 46.8968C27.5747 46.8811 28.8216 46.8796 30.0669 46.8968C31.1169 46.9124 31.9044 47.703 31.9232 48.7546C31.9419 49.8452 31.9341 50.9358 31.9247 52.0264C31.9216 52.3202 31.9325 52.4827 32.3154 52.5593C33.2919 52.7561 33.8919 53.6327 33.7919 54.5733C33.6888 55.5311 32.8904 56.2389 31.8638 56.2405C27.4997 56.2483 23.1357 56.2452 18.7732 56.2452Z" fill="white"/>
<path d="M28.1623 7.61245C36.4155 7.59839 43.1467 14.314 43.1514 22.5656C43.1576 30.8156 36.4311 37.5437 28.1811 37.5406C19.9545 37.5374 13.2389 30.8374 13.2217 22.614C13.2061 14.3609 19.9123 7.62495 28.1623 7.61245Z" fill="#4949FC"/>
<path d="M28.161 9.48269C35.3985 9.47019 41.2766 15.3311 41.2813 22.5639C41.286 29.7967 35.4157 35.6702 28.1844 35.6686C20.9766 35.6671 15.1094 29.8155 15.0938 22.6139C15.0782 15.3749 20.9297 9.49519 28.161 9.48269Z" fill="white"/>
<path d="M20.7045 22.5452C20.7045 20.1515 20.703 17.7562 20.7045 15.3624C20.7061 13.9608 21.4295 13.2265 22.8108 13.2249C25.0686 13.2218 27.328 13.2327 29.5858 13.2155C29.9608 13.2124 30.1264 13.303 30.0592 13.689C30.0467 13.764 30.0576 13.8437 30.0576 13.9218C29.9873 18.9968 29.8623 18.9108 35.0014 18.8343C35.0983 18.8327 35.1983 18.8468 35.2936 18.8312C35.6076 18.7827 35.678 18.9187 35.6764 19.2171C35.667 22.8187 35.6764 26.4202 35.6655 30.0218C35.6623 31.1374 34.8623 31.9202 33.7358 31.9233C30.0373 31.9312 26.3373 31.9327 22.6389 31.9233C21.4905 31.9202 20.7123 31.1233 20.7076 29.9608C20.6998 27.4905 20.7045 25.0171 20.7045 22.5452Z" fill="#4949FC"/>
<path d="M31.9303 13.3391C33.1522 14.561 34.3318 15.7422 35.5537 16.9641C34.4037 16.9641 33.2678 16.9625 32.1334 16.9657C31.985 16.9657 31.9287 16.9047 31.9287 16.7594C31.9318 15.6235 31.9303 14.4891 31.9303 13.3391Z" fill="#4949FC"/>
<path d="M28.2439 24.4468C29.7033 24.4468 31.1611 24.4453 32.6205 24.4484C33.3642 24.4499 33.7845 24.7828 33.7955 25.3671C33.8064 25.9546 33.3798 26.3171 32.6517 26.3171C29.6752 26.3203 26.7002 26.3203 23.7236 26.3171C22.9923 26.3171 22.5689 25.9578 22.5783 25.3687C22.5877 24.7843 23.008 24.4499 23.7502 24.4484C25.2486 24.4437 26.747 24.4468 28.2439 24.4468Z" fill="white"/>
<path d="M28.1245 30.0577C26.6651 30.0577 25.2073 30.0593 23.7479 30.0562C23.0073 30.0546 22.5854 29.7171 22.5792 29.1312C22.5729 28.5421 22.9948 28.1874 23.7276 28.1874C26.7042 28.1843 29.6792 28.1843 32.6557 28.1874C33.3807 28.1874 33.8089 28.553 33.7964 29.1405C33.7839 29.7077 33.3698 30.053 32.676 30.0562C31.1589 30.0608 29.6417 30.0577 28.1245 30.0577Z" fill="white"/>
</g>
<defs>
<clipPath id="clip0_586_30310">
<rect width="60" height="60" fill="white"/>
</clipPath>
</defs>
</svg>
