<svg width="60" height="60" viewBox="0 0 60 60" fill="none" xmlns="http://www.w3.org/2000/svg">
<g clip-path="url(#clip0_586_30328)">
<path d="M0.66182 27.2578C1.66026 27.5016 2.54619 27.7172 3.43213 27.9328C5.01963 28.3203 6.60557 28.7219 8.19932 29.0828C8.59151 29.1719 8.66963 29.3437 8.67588 29.7156C8.78682 37.5516 12.0696 43.7031 18.6634 47.9438C23.5603 51.0938 28.9493 51.9156 34.6399 50.6844C35.0728 50.5906 35.2853 50.6469 35.5009 51.0609C36.6696 53.3031 37.8728 55.525 39.1228 57.8656C29.4743 60.6797 20.4978 59.475 12.4759 53.4672C3.81963 46.9797 0.0899445 38.1 0.66182 27.2578Z" fill="white"/>
<path d="M45.4967 54.7968C44.2201 52.4062 42.967 50.0609 41.7217 47.7312C42.5248 47.0875 43.3092 46.5109 44.0373 45.8671C50.5561 40.1109 52.9014 31.0421 50.0061 22.8593C49.9201 22.6156 49.7764 22.4 50.0514 22.1296C51.992 20.214 53.9123 18.2765 55.8467 16.3406C62.2529 27.2937 60.2451 45.5593 45.4967 54.7968Z" fill="white"/>
<path d="M26.3959 0.862427C26.3959 3.54836 26.3959 6.23118 26.3959 8.85305C24.974 9.28743 23.5459 9.61868 22.2021 10.1531C16.6459 12.364 12.6959 16.2609 10.3271 21.7468C10.1381 22.1843 9.96621 22.2609 9.51309 22.1452C7.21309 21.5593 4.90215 21.0171 2.5959 20.4562C2.48652 20.4296 2.38027 20.3843 2.27246 20.3484C5.55059 10.0796 15.4693 1.96711 26.3959 0.862427Z" fill="white"/>
<path d="M33.5108 0.8125C40.8077 1.79531 46.8546 4.97969 51.7421 10.2797C49.8327 12.1859 47.9483 14.0672 46.0187 15.9937C44.4499 14.2219 42.5827 12.6547 40.4327 11.4344C38.278 10.2125 35.978 9.40625 33.5093 8.96406C33.5108 6.25625 33.5108 3.55937 33.5108 0.8125Z" fill="white"/>
<path d="M33.2416 36.5828C31.0307 36.5828 28.8697 36.5828 26.6572 36.5828C26.6572 30.3875 26.6572 24.2063 26.6572 17.986C28.8416 17.986 31.015 17.986 33.2416 17.986C33.2416 24.1672 33.2416 30.3485 33.2416 36.5828Z" fill="white"/>
<path d="M34.5435 21.2358C36.7513 21.2358 38.9231 21.2358 41.1341 21.2358C41.1341 26.3562 41.1341 31.4452 41.1341 36.5671C38.9372 36.5671 36.7653 36.5671 34.5435 36.5671C34.5435 31.4765 34.5435 26.3874 34.5435 21.2358Z" fill="white"/>
<path d="M25.3629 36.5829C23.1473 36.5829 20.9863 36.5829 18.7754 36.5829C18.7754 33.2172 18.7754 29.861 18.7754 26.4563C20.9473 26.4563 23.1348 26.4563 25.3629 26.4563C25.3629 29.811 25.3629 33.1688 25.3629 36.5829Z" fill="white"/>
</g>
<defs>
<clipPath id="clip0_586_30328">
<rect width="60" height="60" fill="white"/>
</clipPath>
</defs>
</svg>
