<svg width="60" height="60" viewBox="0 0 60 60" fill="none" xmlns="http://www.w3.org/2000/svg">
<g clip-path="url(#clip0_586_30303)">
<path d="M37.5518 60C28.9341 60 20.3149 60 11.6973 60C11.2886 59.8858 10.874 59.7862 10.4697 59.6543C8.47168 58.9981 6.92627 56.7701 7.08301 54.7823C11.7397 54.4908 13.9736 50.8799 14.0308 47.9341C14.063 46.2349 13.5767 44.7027 12.5146 43.3741C11.1216 41.6294 9.26562 40.7754 7.05518 40.6817C7.05518 39.4922 7.05518 38.3526 7.05518 37.2159C11.1655 37.0298 13.7231 34.0166 14.0088 30.7779C14.1538 29.1299 13.7598 27.5962 12.8149 26.2369C11.4233 24.233 9.45312 23.2442 7.04346 23.1329C7.04346 21.8716 7.04346 20.669 7.04346 19.4693C11.9067 19.1499 14.0146 15.3443 14.0454 12.4556C14.0762 9.60209 12.0063 5.64848 6.92334 5.31303C7.13281 4.56889 7.23535 3.80278 7.55469 3.14213C8.56982 1.05473 10.3232 0.115763 12.6099 0.114299C22.5327 0.112834 32.457 0.114299 42.3799 0.114299C45.1675 0.114299 47.9551 0.112834 50.7441 0.114299C53.9932 0.117228 56.4351 2.70121 56.4116 5.82279C56.3413 15.1788 56.3867 24.5347 56.3867 33.8907C56.3867 34.0928 56.3867 34.295 56.3867 34.5059C56.271 34.4912 56.2285 34.4971 56.1978 34.481C56.0791 34.4151 55.9648 34.3389 55.8477 34.2701C52.2544 32.168 48.3916 31.3872 44.3208 32.2588C38.3281 33.5435 34.272 37.1734 32.3472 42.9786C30.9365 47.231 31.4375 51.3941 33.6172 55.336C34.6206 57.1539 35.9932 58.6539 37.5518 60ZM22.8052 13.4414C21.894 12.523 21.0679 11.6441 20.186 10.8238C19.874 10.5337 19.4521 10.2876 19.042 10.1954C18.3008 10.0298 17.5874 10.4488 17.2505 11.1094C16.9048 11.7876 17.0073 12.5552 17.5903 13.1543C18.8149 14.4082 20.063 15.6402 21.3037 16.878C22.3569 17.9283 23.2651 17.9283 24.3198 16.875C26.4834 14.7144 28.6455 12.5508 30.8076 10.3872C30.9585 10.2364 31.1108 10.0826 31.2368 9.91117C31.7524 9.20951 31.6836 8.2852 31.0815 7.66703C30.4648 7.03276 29.5112 6.95219 28.7949 7.48832C28.5781 7.65092 28.3877 7.85014 28.1943 8.04203C26.4204 9.81889 24.6479 11.5957 22.8052 13.4414ZM22.8154 27.7149C21.9043 26.7979 21.0767 25.9219 20.1963 25.1016C19.8843 24.8116 19.4653 24.5611 19.0552 24.4659C18.3169 24.2945 17.5991 24.7105 17.2578 25.3682C16.896 26.064 17.0088 26.8345 17.6211 27.4585C18.8354 28.6963 20.0674 29.9151 21.2949 31.1397C22.3555 32.1973 23.2607 32.2032 24.311 31.1558C26.4746 28.9952 28.6367 26.8316 30.7988 24.6695C30.9497 24.5186 31.1035 24.3663 31.2295 24.1949C31.9531 23.2149 31.5137 21.8716 30.3521 21.4981C29.5654 21.2447 28.9546 21.5464 28.4082 22.0957C26.5713 23.9473 24.7285 25.793 22.8154 27.7149ZM22.8154 41.7496C21.9043 40.8326 21.0767 39.9566 20.1948 39.1363C19.8828 38.8462 19.4639 38.5957 19.0537 38.5005C18.3154 38.3291 17.5977 38.7466 17.2563 39.4043C16.896 40.1001 17.0088 40.8707 17.6211 41.4932C18.8354 42.731 20.0688 43.9498 21.2949 45.1744C22.354 46.2305 23.2607 46.2364 24.311 45.189C26.4746 43.0284 28.6367 40.8648 30.7988 38.7027C30.9497 38.5518 31.1035 38.3995 31.2295 38.2281C31.9517 37.2466 31.5107 35.9063 30.3506 35.5328C29.564 35.2808 28.9531 35.5826 28.4082 36.1319C26.5713 37.9834 24.727 39.8291 22.8154 41.7496ZM42.1147 14.1504C43.792 14.1504 45.4678 14.1548 47.145 14.149C48.3345 14.146 49.1299 13.4371 49.1299 12.3955C49.1299 11.354 48.3345 10.6436 47.1436 10.6436C43.7905 10.6392 40.4375 10.6392 37.0845 10.6436C35.895 10.6451 35.0996 11.3555 35.0996 12.397C35.0996 13.4385 35.895 14.146 37.0859 14.1504C38.7617 14.1534 40.439 14.1504 42.1147 14.1504ZM42.0928 28.4195C43.7891 28.4195 45.4854 28.4239 47.1802 28.418C48.3286 28.4136 49.1152 27.7076 49.1284 26.6866C49.1416 25.6451 48.3433 24.9141 47.1655 24.9112C43.7935 24.9068 40.4199 24.9068 37.0479 24.9112C35.8994 24.9126 35.1128 25.6216 35.0996 26.6412C35.0864 27.6827 35.8848 28.4122 37.0625 28.4165C38.7397 28.4239 40.4155 28.4195 42.0928 28.4195Z" fill="white"/>
<path d="M46.209 59.9998C45.2671 59.7728 44.2959 59.6278 43.3877 59.304C36.6407 56.9017 33.4004 49.7313 36.0196 43.0663C38.0513 37.8954 43.7964 34.6024 49.2793 35.6087C54.6201 36.5887 58.2017 39.7 59.5318 45.0057C60.6582 49.5028 59.2652 53.4007 55.9517 56.5853C53.9859 58.4749 51.5982 59.5604 48.8794 59.8973C48.7666 59.9105 48.6597 59.9647 48.5498 59.9998C47.7691 59.9998 46.9898 59.9998 46.209 59.9998ZM49.1314 45.9652C49.1314 45.3353 49.1475 44.7728 49.1284 44.2132C49.0948 43.2083 48.3418 42.4627 47.3853 42.4598C46.4287 42.4569 45.6553 43.201 45.6333 44.203C45.6084 45.3705 45.6099 46.5394 45.6319 47.7069C45.6509 48.7147 46.3657 49.4427 47.3662 49.4647C48.5337 49.4911 49.7027 49.4881 50.8716 49.4662C51.8794 49.4471 52.628 48.6942 52.6397 47.7376C52.6514 46.7591 51.8897 45.9974 50.8526 45.9681C50.3076 45.9535 49.7642 45.9652 49.1314 45.9652Z" fill="white"/>
<path d="M0 11.811C0.171387 11.4023 0.297363 10.9673 0.524414 10.5923C1.18652 9.49069 2.2002 8.93258 3.47314 8.89743C4.65967 8.8652 5.84766 8.86227 7.03418 8.89596C9.02051 8.95163 10.5249 10.4795 10.5249 12.3955C10.5249 14.3115 9.02051 15.8379 7.03418 15.8965C5.88721 15.9301 4.73877 15.9199 3.59033 15.9008C1.85303 15.873 0.622559 14.9194 0.115723 13.2407C0.0878906 13.1499 0.0380859 13.0664 0 12.9799C0 12.5903 0 12.2006 0 11.811Z" fill="white"/>
<path d="M0 29.5898C0.171387 29.1811 0.297363 28.7461 0.524414 28.3711C1.18652 27.2695 2.2002 26.7114 3.47314 26.6762C4.65967 26.644 5.84766 26.6411 7.03418 26.6748C9.02051 26.7304 10.5249 28.2583 10.5249 30.1743C10.5249 32.0903 9.02051 33.6167 7.03418 33.6753C5.88721 33.709 4.73877 33.6987 3.59033 33.6797C1.85303 33.6518 0.622559 32.6982 0.115723 31.0195C0.0878906 30.9301 0.0395508 30.8466 0.00146484 30.7602C0 30.3691 0 29.9795 0 29.5898Z" fill="white"/>
<path d="M0 47.1342C0.171387 46.7256 0.297363 46.2905 0.524414 45.9155C1.18652 44.8139 2.2002 44.2558 3.47314 44.2207C4.65967 44.1884 5.84766 44.1855 7.03418 44.2192C9.02051 44.2749 10.5249 45.8027 10.5249 47.7187C10.5249 49.6347 9.02051 51.1611 7.03418 51.2197C5.88721 51.2534 4.73877 51.2431 3.59033 51.2241C1.85303 51.1963 0.622559 50.2426 0.115723 48.5639C0.0878906 48.4746 0.0395508 48.3911 0.00146484 48.3047C0 47.9135 0 47.5239 0 47.1342Z" fill="white"/>
</g>
<defs>
<clipPath id="clip0_586_30303">
<rect width="60" height="60" fill="white"/>
</clipPath>
</defs>
</svg>
