<svg width="60" height="60" viewBox="0 0 60 60" fill="none" xmlns="http://www.w3.org/2000/svg">
<g clip-path="url(#clip0_586_30321)">
<path d="M15.3646 51.5093C13.7255 47.5656 12.1114 43.6828 10.5005 39.8078C10.5583 39.739 10.588 39.6781 10.6349 39.6546C13.4099 38.3296 16.1786 36.9906 18.9661 35.6937C21.4505 34.5375 23.9927 34.4937 26.2755 36.025C28.5864 37.575 31.2146 38.0375 33.7771 38.7812C34.5989 39.0203 35.4302 39.225 36.2552 39.4546C38.0036 39.9421 38.938 41.425 38.5146 43.0297C38.0927 44.6312 36.5208 45.475 34.7833 45.014C31.4927 44.1406 28.2052 43.2546 24.9161 42.3765C24.7474 42.3312 24.5771 42.2765 24.4036 42.264C23.9536 42.2328 23.638 42.4453 23.5364 42.8812C23.4349 43.3172 23.6239 43.6672 24.0458 43.814C24.5224 43.9812 25.0177 44.0921 25.5067 44.2218C28.5505 45.039 31.5927 45.8625 34.6396 46.6687C37.3771 47.3921 40.1724 45.2656 40.2427 42.4234C40.2489 42.1609 40.1802 41.9156 40.5771 41.8015C44.5239 40.675 48.4505 39.475 52.413 38.4125C53.4552 38.1328 54.6192 38.1203 55.7036 38.225C57.4833 38.3984 58.3286 39.7468 57.8958 41.4953C57.5458 42.9078 56.7192 43.9578 55.3474 44.489C49.1802 46.8781 43.013 49.2687 36.8286 51.614C34.9864 52.3125 33.0864 52.9078 31.0755 52.3937C29.6255 52.0234 28.1942 51.575 26.7552 51.1593C25.2786 50.7328 23.8005 50.314 22.3286 49.8734C20.8208 49.4218 19.3708 49.5468 17.9614 50.2437C17.1271 50.6625 16.2849 51.064 15.3646 51.5093Z" fill="white"/>
<path d="M24.8656 12.2296C25.0937 12.3765 25.3156 12.4906 25.5047 12.6453C26.3234 13.3125 27.225 13.4531 28.1844 13.039C29.1234 12.6343 29.6265 11.889 29.7109 10.8609C29.7672 10.1828 30 9.96401 30.6687 9.95776C31.3312 9.95151 31.9937 9.96401 32.6562 9.95464C33.2 9.94682 33.5453 10.2093 33.5453 10.7406C33.55 12.9749 36.3359 14.1046 37.8984 12.5374C38.2609 12.1734 38.6765 12.2234 39.039 12.5796C39.4984 13.0312 39.9515 13.4875 40.4047 13.9453C40.9656 14.514 40.975 14.764 40.4687 15.3968C39.2781 16.8843 39.9609 19.0328 41.775 19.5125C43.1687 19.8796 43.1687 19.8796 43.1687 21.3375C43.1687 21.7078 43.1719 22.0796 43.1672 22.4499C43.1578 23.1624 42.9594 23.3734 42.239 23.4406C40.5234 23.6015 39.4203 25.2984 40.0281 26.8734C40.1515 27.1921 40.3703 27.4828 40.5828 27.7578C40.914 28.1843 40.9109 28.5718 40.5297 28.9546C40.075 29.4109 39.6234 29.8687 39.164 30.3218C38.6297 30.85 38.3469 30.8609 37.7578 30.3859C36.6953 29.5296 35.3187 29.5578 34.35 30.4609C33.8578 30.9203 33.6047 31.4921 33.5562 32.1671C33.5078 32.8453 33.2734 33.0593 32.5984 33.0671C31.9156 33.075 31.2344 33.0671 30.5515 33.0687C30.0297 33.0687 29.7234 32.7921 29.7203 32.2875C29.7062 30.0421 26.9297 28.9218 25.3703 30.4906C25.014 30.85 24.5937 30.8093 24.2281 30.4484C23.7562 29.9828 23.2859 29.514 22.8219 29.0406C22.3109 28.5203 22.2906 28.2421 22.7594 27.6781C23.3859 26.9234 23.5734 26.0796 23.2484 25.1624C22.8828 24.1281 22.1265 23.5515 21.0281 23.4437C20.3015 23.3718 20.1047 23.1703 20.0984 22.4562C20.0922 21.7921 20.1015 21.1281 20.0969 20.464C20.0922 19.9109 20.3812 19.6218 20.9078 19.5921C21.9875 19.5328 22.7625 19.0234 23.1828 18.0343C23.6125 17.0203 23.4156 16.0906 22.6859 15.2671C22.3515 14.889 22.3359 14.4906 22.6969 14.1187C23.2125 13.5875 23.7344 13.0593 24.2719 12.5499C24.4219 12.4109 24.6375 12.3499 24.8656 12.2296ZM31.5937 27.0687C34.6406 27.0906 37.1672 24.6062 37.1844 21.5703C37.2015 18.4875 34.7234 15.9734 31.6469 15.9531C28.6219 15.9328 26.1 18.4437 26.0875 21.4875C26.0765 24.5437 28.5453 27.0468 31.5937 27.0687Z" fill="white"/>
<path d="M6.92946 37.2344C7.59509 37.2469 7.8279 37.6313 8.01696 38.0891C9.50915 41.6891 11.006 45.2859 12.5013 48.8844C13.2795 50.7562 14.0592 52.6266 14.8342 54.4984C15.2154 55.4172 15.056 55.8234 14.1592 56.2016C12.9404 56.7156 11.717 57.2219 10.4935 57.725C9.68884 58.0547 9.25134 57.8797 8.91696 57.075C6.61853 51.5531 4.32321 46.0281 2.03103 40.5047C1.70603 39.7203 1.87946 39.2797 2.63884 38.9594C3.91228 38.4234 5.18884 37.8953 6.46696 37.3703C6.64509 37.2969 6.83728 37.2609 6.92946 37.2344Z" fill="white"/>
<path d="M11.5152 13.6454C11.3839 13.6908 11.1261 13.7689 10.8746 13.8658C10.7871 13.9001 10.7136 13.9751 10.6386 14.0361C10.1886 14.4064 9.89174 14.072 9.67612 13.7626C9.40424 13.372 8.52612 13.1517 9.06518 12.4814C9.92143 11.4158 9.18862 9.98138 8.03081 9.9595C7.97299 9.95794 7.90424 9.96106 7.86049 9.93138C7.22143 9.5095 7.61518 8.86263 7.52924 8.322C7.47768 7.99856 7.64643 7.79231 8.01206 7.72044C9.41674 7.44544 9.84331 6.41419 9.06049 5.22981C9.01831 5.16419 8.94018 5.10169 8.93706 5.0345C8.89799 4.30169 9.58393 4.08138 9.96362 3.65638C10.0667 3.54075 10.4839 3.57356 10.6636 3.68606C11.7902 4.39231 12.8839 3.95638 13.1074 2.66106C13.1777 2.25481 13.3746 2.07981 13.7761 2.10638C13.9121 2.11575 14.048 2.10794 14.1855 2.10794C15.148 2.10794 15.148 2.10794 15.4386 3.00794C15.7402 3.94075 16.8667 4.35481 17.6699 3.76106C18.1449 3.41106 18.4605 3.45794 18.8027 3.88138C18.9246 4.03294 19.0652 4.172 19.2152 4.29544C19.6167 4.62513 19.6605 4.92669 19.3308 5.38294C18.6621 6.30638 19.1824 7.51731 20.3199 7.69544C20.8246 7.77513 20.9996 7.98606 20.9589 8.45794C20.9464 8.61263 20.9433 8.77044 20.9589 8.92513C21.0199 9.53606 20.9261 9.91575 20.1558 10.0361C19.1308 10.1954 18.7042 11.4361 19.3277 12.2939C19.6574 12.7454 19.6246 13.0533 19.2183 13.3845C19.0839 13.4954 18.9558 13.6204 18.848 13.7564C18.4824 14.2204 18.1464 14.2751 17.6261 13.8939C16.8042 13.2923 15.6121 13.772 15.4371 14.7814C15.3167 15.4767 14.9917 15.6626 14.3714 15.5829C14.2183 15.5642 14.0589 15.5689 13.9042 15.5814C13.4136 15.6236 13.1558 15.4501 13.0933 14.9142C13.0042 14.1533 12.3871 13.6517 11.5152 13.6454ZM17.4542 8.84388C17.4574 7.05794 16.0589 5.62981 14.2917 5.61575C12.473 5.60169 10.9996 7.06263 11.0105 8.86575C11.0214 10.6158 12.4792 12.0689 14.2246 12.0689C16.0324 12.0704 17.4511 10.6533 17.4542 8.84388Z" fill="white"/>
</g>
<defs>
<clipPath id="clip0_586_30321">
<rect width="60" height="60" fill="white"/>
</clipPath>
</defs>
</svg>
