<svg width="80" height="80" viewBox="0 0 80 80" fill="none" xmlns="http://www.w3.org/2000/svg">
<path d="M50.3869 58.5618C48.4013 58.6682 47.4794 59.5546 47.4794 61.5048C47.4794 61.8593 47.444 62.2139 47.4794 62.5685C47.7276 64.0931 47.1603 64.5541 45.5647 64.5541C34.573 64.4832 23.5814 64.4832 12.5897 64.5541C10.9941 64.5541 10.6395 64.1286 10.6395 62.5685C10.7459 48.7048 10.7104 34.841 10.7104 20.9419C10.7104 17.7153 10.7104 17.6444 14.008 17.7507C15.5681 17.7862 16.3481 17.6089 16.0999 15.7297C15.9581 14.4887 15.6035 14.0987 14.4334 14.205C13.2634 14.3114 12.0578 14.205 10.8877 14.2405C8.01571 14.2405 7.2002 15.0205 7.2002 17.8926C7.2002 25.6222 7.2002 33.3519 7.2002 41.1169C7.2002 48.8466 7.2002 56.5762 7.2002 64.3413C7.2002 67.2488 7.98025 68.0289 10.8523 68.0643C21.383 68.0643 31.8783 68.0643 42.4091 68.0643C44.3592 68.0643 46.3093 68.0998 48.2595 68.0643C49.855 68.0289 50.8833 67.2133 50.9542 65.6178C51.0606 63.5613 50.9897 61.4693 50.9897 59.4128C50.9897 58.9873 51.096 58.5264 50.3869 58.5618Z" fill="white"/>
<path d="M71.9807 66.8587C68.5059 63.4549 65.1374 60.0155 61.6981 56.6116C61.379 56.2925 60.8826 55.7607 60.5989 55.8316C58.6488 56.328 58.046 54.5906 56.9114 53.7396C55.7768 52.9241 55.8477 52.1795 56.5568 50.974C59.1452 46.4709 59.2516 41.8261 56.6987 37.323C54.1458 32.7845 50.0682 30.5862 45.8843 30.4443C39.112 30.4443 34.0416 33.9546 32.056 39.3441C30.0704 44.7335 31.666 50.7612 36.0627 54.4488C40.4593 58.1363 46.6289 58.7391 51.6283 55.867C52.7275 55.2288 53.6139 54.6615 54.5358 56.0798C55.174 57.0726 56.7341 57.4981 56.6632 58.9164C56.5923 59.9092 56.9823 60.4765 57.5851 61.0792C60.5635 64.0222 63.5064 67.0006 66.4848 69.979C69.2859 72.7801 69.2505 72.7446 72.087 69.8726C73.0798 68.738 73.0798 67.9225 71.9807 66.8587ZM44.7142 55.2288C38.5446 55.1579 33.4743 49.9812 33.5807 43.8116C33.687 37.6067 38.7928 32.7136 45.0687 32.82C51.2028 32.9263 56.0604 37.9612 55.9541 44.1662C55.8832 50.3357 50.8482 55.2997 44.7142 55.2288Z" fill="white"/>
<path d="M21.8436 19.4172C24.2546 19.4527 26.6657 19.4172 29.1123 19.4172C31.2397 19.4172 33.3671 19.4172 35.4945 19.4172C39.1821 19.4172 40.6003 17.8216 40.2812 14.1341C40.1749 13.1413 39.7494 12.6094 38.7566 12.574C37.6219 12.5385 36.5228 12.5031 35.3882 12.574C34.289 12.6449 33.7217 12.3967 33.438 11.1557C33.0125 9.27648 31.3106 8.07094 29.4314 7.96457C27.4812 7.89365 25.6729 8.63825 25.1765 10.4466C24.5737 12.5031 23.4037 12.6804 21.7017 12.5385C20.9571 12.4676 20.1771 12.5385 19.397 12.5385C18.8297 12.574 18.3688 12.7867 18.1206 13.354C16.8796 16.1551 18.8297 19.3463 21.8436 19.4172ZM29.1477 10.5529C30.4242 10.5529 31.0269 11.3684 31.1333 12.574C30.9915 13.815 30.3178 14.5596 29.0413 14.5241C27.8003 14.4887 27.0557 13.7441 27.0912 12.5031C27.1267 11.2621 27.8713 10.5175 29.1477 10.5529Z" fill="white"/>
<path d="M44.1815 17.7507C44.7489 17.6444 45.3516 17.7862 45.9544 17.7153C47.2308 17.538 47.55 18.1762 47.5145 19.3463C47.4436 21.5801 47.479 23.8493 47.479 26.0831C47.479 28.7424 47.479 28.707 49.961 29.3452C50.7411 29.5579 51.0248 29.4161 50.9893 28.5651C50.9538 26.6859 50.9893 24.7712 50.9893 22.892C50.9893 20.9419 51.0248 18.9917 50.9893 17.0416C50.9538 15.2687 49.961 14.3114 48.2236 14.2405C46.6281 14.1696 45.0325 14.2759 43.4369 14.205C42.4087 14.1696 42.2669 14.6305 42.125 15.5524C41.8414 17.3252 42.3378 18.0698 44.1815 17.7507Z" fill="white"/>
<path d="M42.3025 28.1397C43.0826 28.1397 43.6499 28.1397 43.6499 27.0759C43.6499 26.0832 43.3308 25.764 42.338 25.764C39.7496 25.835 37.1612 25.7995 34.5729 25.7995C31.9136 25.7995 29.2543 25.7995 26.6305 25.7995C25.7795 25.7995 25.1768 25.7995 25.1768 26.9696C25.1768 28.1042 25.7441 28.1751 26.595 28.1751C31.8072 28.1397 37.0549 28.1397 42.3025 28.1397Z" fill="white"/>
<path d="M15.0716 24.2039C14.6815 24.4521 14.5042 24.913 14.717 25.2676C15.3552 26.4731 16.2771 27.5014 17.5536 28.0332C18.2982 28.3524 22.9076 23.8848 22.8367 22.9983C22.8012 22.6083 22.5885 22.3601 22.2693 22.1474C21.7729 21.8637 21.3475 22.041 20.9929 22.3601C20.3192 22.9983 19.6101 23.6366 18.9718 24.3457C18.2272 25.1967 17.5536 25.764 16.6671 24.4875C16.2771 23.9911 15.6743 23.8493 15.0716 24.2039Z" fill="white"/>
<path d="M16.9505 46.5064C17.5179 47.0028 18.1561 46.9319 18.6879 46.4C19.9644 45.159 21.2054 43.918 22.4464 42.6416C22.9073 42.1452 23.0137 41.6133 22.4818 41.0815C21.95 40.5851 21.4181 40.6915 20.9217 41.1524C20.2835 41.7552 19.6098 42.3579 19.0425 43.0316C18.2624 43.918 17.5533 44.5563 16.6314 43.2089C16.4541 42.9607 16.0641 42.8543 15.745 42.6771C15.3904 42.8189 15.0004 42.8543 14.8231 43.2089C14.5749 43.6698 14.6104 44.1662 14.9649 44.5208C15.5677 45.23 16.2414 45.9036 16.9505 46.5064Z" fill="white"/>
<path d="M17.8017 56.2216C17.9081 56.1862 18.1917 56.1507 18.3335 56.0089C19.7873 54.6261 21.2056 53.2078 22.5884 51.754C22.9784 51.364 22.9075 50.8676 22.5175 50.4776C22.092 50.0166 21.5601 49.9457 21.0992 50.3357C20.3546 51.0094 19.61 51.6831 18.9363 52.4277C18.1917 53.2787 17.518 53.846 16.6316 52.5695C16.3125 52.1086 15.7806 51.8959 15.2133 52.1441C14.7878 52.3213 14.6106 52.7114 14.646 53.1369C14.6815 53.846 16.9862 56.1862 17.8017 56.2216Z" fill="white"/>
<path d="M26.2407 56.2571C29.0064 56.2217 31.772 56.2571 34.8213 56.2571C32.8357 53.8815 32.8357 53.8815 30.2474 53.8815C28.9355 53.8815 27.659 53.9169 26.3471 53.8815C25.567 53.846 25.1061 54.0233 25.1416 54.9452C25.177 55.6543 25.177 56.2926 26.2407 56.2571Z" fill="white"/>
<path d="M16.8094 37.0394C17.3767 37.6776 18.0858 37.6067 18.6886 37.0394C19.9296 35.7984 21.206 34.5574 22.447 33.2809C22.908 32.7845 23.0498 32.2172 22.518 31.7208C21.9861 31.2599 21.4188 31.3308 20.9224 31.7917C20.2842 32.3945 19.6105 32.9972 19.0432 33.6709C18.2276 34.6283 17.5185 35.0892 16.5966 33.8128C16.2775 33.3518 15.7457 33.1745 15.1783 33.4936C14.8238 33.6709 14.6819 33.99 14.6465 34.4864C14.9656 35.5856 16.0648 36.1884 16.8094 37.0394Z" fill="white"/>
<path d="M26.3117 35.1247C25.3189 35.0892 25.1416 35.5856 25.1416 36.4012C25.1416 37.2167 25.4253 37.5712 26.2762 37.5358C27.0208 37.4649 27.8009 37.4294 28.5455 37.5358C30.3183 37.8194 31.2757 37.0394 31.6657 35.1602C29.8219 35.1247 28.0491 35.1602 26.3117 35.1247Z" fill="white"/>
<path d="M27.3399 46.8964C27.9073 46.4355 29.2901 47.6765 29.3255 45.8327C29.361 44.1662 28.2264 44.4144 27.3045 44.5208C26.489 44.5917 25.1771 43.8471 25.1416 45.6554C25.1416 47.5347 26.5244 46.5773 27.3399 46.8964Z" fill="white"/>
<path d="M42.0186 35.6211C48.6136 36.5075 52.2656 40.3014 53.1521 47.3574C54.2867 43.528 53.7548 40.5142 51.4147 37.9967C48.8618 35.2311 45.6706 34.4865 42.0186 35.6211Z" fill="white"/>
</svg>
