<svg width="80" height="80" viewBox="0 0 80 80" fill="none" xmlns="http://www.w3.org/2000/svg">
<path d="M72.5202 29.0017C72.4747 27.9541 72.9757 26.5876 72.338 25.9271C71.6548 25.1984 70.2428 25.6538 69.1724 25.6766C63.8659 25.8588 58.9466 24.6973 54.5056 21.7139C53.9818 21.3722 53.5718 21.4178 53.0708 21.7594C51.135 23.0576 49.0625 24.0369 46.8306 24.6745C45.5096 25.0617 45.5096 25.0617 45.4869 23.718C45.4641 23.2397 45.6007 22.6248 44.872 22.6021C43.1639 22.5337 42.344 21.5772 42.0024 20.0285C41.9796 19.8919 41.8429 19.778 41.7746 19.6414C41.2736 19.0037 41.1597 18.3888 41.8202 17.7966C41.9568 17.6828 42.0024 17.455 42.139 17.3184C42.7539 16.5896 42.7539 16.043 41.9796 15.337C40.5903 14.1072 39.2922 12.7635 38.0396 11.397C37.4475 10.7365 36.9692 10.5999 36.2404 11.192C35.8077 11.5336 35.3067 12.103 34.7828 11.9664C33.6669 11.6703 32.5509 11.192 31.5261 10.6454C30.9567 10.3494 31.0706 9.55226 30.9567 8.98289C30.7973 8.23133 30.4785 8.00359 29.6586 8.02636C27.7227 8.09469 25.7869 8.11746 23.8738 8.00359C22.8718 7.95804 22.5529 8.34521 22.4163 9.21064C22.348 9.71168 22.3707 10.4177 21.9152 10.6682C20.8904 11.2148 19.7972 11.7386 18.6813 11.9891C18.0891 12.1258 17.497 11.4198 16.9276 11.0554C16.4266 10.7138 16.085 10.7365 15.6522 11.192C14.6729 12.2397 13.6253 13.2417 12.6005 14.2438C10.6191 16.2252 10.6191 16.2252 12.0994 18.6621C11.8717 19.1403 11.5301 19.573 11.4162 20.0741C11.0062 21.5544 10.3002 22.5793 8.63769 22.6021C8.06832 22.6021 8 22.9892 8 23.4675C8.02277 25.7677 8.04555 28.0679 8.06832 30.3682C8.02277 30.6415 8.1822 30.8237 8.43272 30.8237C10.2775 30.8692 11.1429 31.9396 11.4845 33.6022C11.5073 33.6705 11.5301 33.7616 11.5756 33.8071C12.145 34.5131 12.0539 35.1964 11.4617 35.8113C10.5735 36.7906 10.6646 37.6332 11.7578 38.3848C11.94 38.4987 12.0994 38.6809 12.2588 38.8175C13.3065 39.9107 14.4224 40.9583 15.4245 42.0743C16.0166 42.7347 16.4721 42.712 17.1554 42.2565C17.6336 41.9376 18.1119 41.2999 18.7268 41.4594C19.82 41.7782 20.8904 42.1882 21.8697 42.7575C22.4618 43.0991 22.3707 43.9873 22.5074 44.625C22.644 45.3538 22.9856 45.536 23.6689 45.5132C25.7186 45.4905 27.7683 45.4905 29.818 45.5132C30.3874 45.5132 30.7973 45.3994 30.8201 44.7389C30.8884 43.213 31.7083 42.3703 33.1886 42.0743C33.5075 42.006 33.8263 41.8238 34.1224 41.6643C34.965 41.1633 35.2611 41.5277 35.375 42.3703C35.6938 44.6022 36.286 46.7431 37.2653 48.77C37.8574 50.3414 38.7001 51.7762 39.6794 53.1199C40.0665 53.6437 40.1804 54.122 39.9754 54.7825C39.4744 56.4678 39.0645 58.1986 38.609 59.9295C37.9713 62.1614 37.3564 64.3933 36.6959 66.7619C38.1762 66.3975 39.4516 66.1925 40.6587 65.7826C41.638 65.4637 42.0707 65.7598 42.5262 66.5797C43.5283 68.3561 44.5987 70.0869 45.7602 72C46.8306 68.8116 47.8099 65.8509 48.7892 62.8674C49.2219 61.5237 49.2219 61.5465 50.4973 62.0703C52.0915 62.708 53.5946 63.6873 55.4621 62.7991C56.3959 62.3664 57.6257 61.3643 58.3089 61.8198C59.0377 62.2981 59.1288 63.7556 59.4932 64.7805C60.2675 67.1035 61.0419 69.4037 61.9073 71.9772C63.046 70.0642 64.0937 68.4244 65.0502 66.6935C65.574 65.7598 66.0978 65.3954 67.191 65.7826C68.3525 66.1925 69.5823 66.3975 70.9943 66.7391C70.4022 64.6438 69.8556 62.7308 69.309 60.8177C69.2863 60.3167 69.1496 59.8384 68.8991 59.4285C68.8991 59.4285 68.8991 59.4285 68.9219 59.4285C68.7624 58.7225 68.6941 57.9937 68.4208 57.356C67.5326 55.2152 67.3732 53.1882 69.013 51.3207C69.0357 51.298 69.0585 51.2752 69.1041 51.2524C71.2449 47.9273 72.338 44.3062 72.4975 40.3662C72.6113 37.0183 72.5886 33.6933 72.5202 30.3454C72.4975 29.9127 72.543 29.4572 72.5202 29.0017ZM30.0913 40.9128C29.3853 41.0494 29.3397 41.6643 29.317 42.1426C29.2259 43.2358 28.6793 43.5546 27.6772 43.418C27.3128 43.3724 26.9256 43.3952 26.5385 43.3952C24.6026 43.3952 24.5799 43.3952 24.0105 41.5505C23.8511 41.0494 23.5095 40.9356 23.0995 40.8445C21.9152 40.5484 20.7537 40.1612 19.7289 39.5008C18.9318 38.9769 18.2258 38.8858 17.497 39.5463C16.8137 40.1612 16.2899 40.0246 15.6978 39.3413C15.0146 38.567 14.2402 37.9065 13.5114 37.2005C13.5798 37.1322 13.6481 37.0639 13.6936 36.9956C13.6709 36.9956 13.6253 36.9956 13.6025 36.9956C13.557 37.0183 13.4887 37.0411 13.4431 37.0867C13.2381 36.5401 13.7164 36.1985 13.9669 35.8113C14.4224 35.1508 14.5135 34.6042 14.0125 33.8755C13.3976 32.9645 12.9193 31.9624 12.7371 30.892C12.5777 29.8671 12.0766 29.3889 11.234 29.275C11.2112 29.2067 11.1884 29.1383 11.1429 29.07C11.0062 29.1156 10.8924 29.1839 10.7557 29.2522C10.1864 29.1383 9.95861 28.8195 9.98138 28.2274C10.0269 27.2936 10.0269 26.3371 9.98138 25.4033C9.93583 24.6518 10.1864 24.2646 10.9607 24.2191C11.9628 24.1507 12.4866 23.6497 12.7371 22.5793C12.9421 21.6683 13.3748 20.8029 13.762 19.9147C13.8303 19.7552 13.8986 19.5958 13.9669 19.4364C14.6729 18.8215 14.3769 18.2066 13.9214 17.66C13.2154 16.8629 13.3292 16.2252 14.1719 15.6103C14.5135 15.3825 14.764 15.0409 15.0601 14.7448C16.381 13.4239 16.381 13.4239 18.0663 14.2894C18.4535 14.4943 18.7496 14.4943 19.114 14.2666C20.3666 13.4922 21.733 12.9001 23.1906 12.5813C23.8055 12.4446 23.9649 12.0575 24.0105 11.5336C24.0788 10.281 24.7393 9.84833 25.9236 10.0533C26.2196 10.0988 26.5385 10.0533 26.8345 10.0533C28.7704 10.0533 28.7931 10.0533 29.3853 11.8753C29.5219 12.308 29.7497 12.4902 30.1596 12.5813C31.5716 12.9001 32.9153 13.4239 34.1224 14.221C34.9195 14.7448 35.4433 14.1983 35.9443 13.8339C36.6048 13.3556 37.0603 13.3784 37.5613 14.0161C37.8802 14.426 38.3129 14.7676 38.6773 15.1548C39.9754 16.4529 39.9982 16.4529 39.0872 18.0472C38.7684 18.6165 39.0417 18.9809 39.315 19.3909C39.2922 19.4136 39.2922 19.4364 39.2694 19.4364C39.2922 19.4364 39.315 19.4592 39.3605 19.4592C39.9071 20.7345 40.5448 21.9871 40.8409 23.3536C41.0003 24.1963 41.7746 23.9685 42.2757 24.1963C42.6856 24.3785 43.3461 24.1963 43.3233 24.9706C43.2777 25.7449 42.6401 25.5627 42.2073 25.5855C41.3191 25.6538 40.2943 25.8816 39.5199 25.5855C38.5862 25.2211 39.0645 23.9913 38.6773 23.1942C38.3129 22.4199 38.199 21.5317 37.6069 20.8712C37.5613 20.8029 37.5158 20.7345 37.4702 20.6662C36.8098 19.7097 36.2176 18.7076 35.4433 17.865C29.9319 11.7614 18.7724 13.6517 15.5384 21.2128C13.8303 24.4923 13.762 27.863 15.0601 31.3019C16.2216 34.2854 18.2258 36.5401 21.1181 37.9293C26.0147 40.2979 30.6379 39.5008 35.1017 36.1757C34.9423 37.2005 35.3522 38.0432 34.9195 38.772C34.8739 38.8631 34.8056 38.9542 34.7145 39.0453C33.1886 39.7741 31.7538 40.5939 30.0913 40.9128ZM36.9009 24.5607C37.0603 25.2439 37.0375 25.7905 36.1038 25.6538C35.2383 25.54 34.9878 25.9271 35.0334 26.747C35.1017 28.0224 35.0789 29.2978 35.1017 30.5731C35.0789 30.6415 35.0561 30.7098 35.0561 30.8009C34.9195 31.7119 35.3294 32.6912 34.5779 33.5111C31.7083 36.5856 28.2466 37.8154 24.1016 36.8134C20.6626 35.9707 18.408 33.6933 16.9048 30.5731C15.8117 27.453 16.1077 24.424 17.5881 21.4861C17.7475 21.2811 17.9069 21.0534 18.0663 20.8484C20.7082 17.2956 24.1927 15.8153 28.5654 16.4985C31.1161 16.8857 33.0975 18.2977 34.8056 20.1652C35.0561 20.5296 35.3067 20.894 35.58 21.2584C35.6027 21.3039 35.6255 21.3267 35.6483 21.3722C35.671 21.4178 35.7166 21.4861 35.7394 21.5317C36.2404 22.4882 36.6504 23.4903 36.9009 24.5607ZM47.195 61.0227C46.5573 62.913 45.9196 64.8033 45.2591 66.8074C44.5303 66.1014 44.0976 65.3043 43.756 64.5072C43.1866 63.2546 42.4351 62.9357 41.2053 63.4823C40.7953 63.6645 40.3398 63.6873 39.7932 63.824C39.9299 63.0952 40.0665 62.4347 40.2032 61.797C40.226 61.7287 40.2487 61.6604 40.2715 61.5693C40.3854 61.1821 40.4992 60.7949 40.6131 60.4078C40.6359 60.2711 40.6587 60.1572 40.6814 60.0206C40.8181 59.9978 40.932 59.9523 41.0231 59.9067C41.0003 59.8384 40.9775 59.7701 40.9547 59.7245C40.9092 59.679 40.8636 59.6107 40.8181 59.5651C41.1597 58.4264 41.5241 57.2649 41.9113 55.9895C43.5055 57.4015 44.9631 58.9274 46.7622 59.9751C46.7395 60.1345 46.7395 60.2711 46.7167 60.4078C46.8761 60.4078 47.0583 60.3622 47.2405 60.2256C47.3316 60.5216 47.2861 60.7722 47.195 61.0227ZM65.5512 63.2546C65.0046 63.0952 64.7313 63.209 64.458 63.6873C63.8887 64.7122 63.251 65.6915 62.4994 66.9213C61.7934 64.9171 61.1557 63.0952 60.4953 61.296C60.3586 60.9316 60.3814 60.59 60.5636 60.3167C60.6319 60.2028 60.7458 60.0889 60.9052 59.9751C62.7727 58.9958 64.1848 57.4471 65.8018 56.0123C66.1889 57.2421 66.5305 58.4036 66.8949 59.5423C66.9405 59.679 66.986 59.8156 67.0316 59.9751C67.3276 61.2049 67.6237 62.4347 67.9426 63.824C67.0544 63.6418 66.28 63.5051 65.5512 63.2546ZM69.7873 44.2834C69.1724 46.5836 68.2158 48.7017 67.0999 50.7514C67.0543 50.8425 66.986 50.9336 66.9405 51.0474C64.8224 54.2587 62.135 56.8777 58.9011 58.9047C58.7189 58.8591 58.5367 58.8136 58.3317 58.7908C58.2862 58.9274 58.2862 59.0641 58.3317 59.2463C58.2862 59.2463 58.2406 59.2463 58.2178 59.269C55.4393 61.1366 52.6153 61.3871 49.7457 59.474C49.7913 59.269 49.7685 59.1096 49.7229 58.9958C49.6774 58.9958 49.6318 58.9958 49.6091 58.9958C49.4269 59.0413 49.2674 59.0641 49.0852 59.0868C46.1929 57.3104 43.6649 55.1241 41.6608 52.3456C40.8864 51.2752 40.2715 50.1365 39.6338 48.9977C39.5199 48.7928 39.4061 48.5878 39.2694 48.36C37.2653 44.0101 37.0603 39.4097 37.1286 34.7409V34.6953C37.1286 33.3061 37.1514 31.9396 37.1514 30.5504C37.1514 29.6622 37.1514 28.774 37.1742 27.9085C39.8843 27.7719 42.6173 27.8857 45.3047 27.2936C48.0604 26.6787 50.6795 25.7222 53.1163 24.2874C53.5263 24.0369 53.8679 23.8547 54.3689 24.1507C59.1516 27.0659 64.4125 28.0224 69.9467 27.8402C70.1289 27.8402 70.3339 27.863 70.5161 27.8858C70.5161 28.7967 70.5389 29.7077 70.5389 30.6187C70.5616 32.4862 70.5616 34.3765 70.5844 36.244C70.5616 36.244 70.5161 36.244 70.4705 36.2668C70.4933 36.2895 70.5388 36.2896 70.5844 36.3123C70.4478 38.9769 70.4933 41.6643 69.7873 44.2834Z" fill="white"/>
<path d="M67.6007 29.8672C62.9319 29.8216 58.5137 28.7512 54.4142 26.5421C54.0043 26.3143 53.6855 26.3143 53.2527 26.5421C49.1305 28.7512 44.7123 29.8444 40.0663 29.8672C39.4286 29.8672 39.2236 30.0949 39.2236 30.7326C39.2692 33.1922 39.2692 35.6519 39.2692 38.1115C39.1325 42.5981 40.3396 46.6975 42.8903 50.4098C45.3955 54.3498 48.9256 57.0144 53.23 58.7225C53.7766 58.9502 54.2548 58.7908 54.7559 58.6086C59.5613 56.6728 63.228 53.4616 65.7104 48.8839C67.8512 45.2627 68.6483 41.3455 68.3978 37.2006C68.4206 35.037 68.4206 32.8734 68.4661 30.7326C68.4433 30.0949 68.2384 29.8672 67.6007 29.8672ZM65.8243 43.0308C65.3005 45.0805 64.435 46.9481 63.433 48.7928C63.4102 48.8383 63.3646 48.9067 63.3419 48.9522C61.1783 52.0951 58.4453 54.6003 54.9381 56.2173C54.1409 56.5817 53.4805 56.5817 52.6834 56.1945C49.7227 54.7825 47.2403 52.8011 45.2361 50.182C44.9856 49.8632 44.7123 49.5444 44.439 49.2255C44.4845 49.18 44.5301 49.1116 44.5529 49.0433C44.5301 49.0433 44.4845 49.0205 44.4618 49.0205C44.4162 49.0205 44.3707 49.0205 44.3479 49.0433C43.1636 46.8114 42.0704 44.534 41.6377 41.9832C41.41 40.6623 41.3417 39.3186 41.2733 37.9749C41.3417 37.9293 41.4328 37.861 41.5011 37.7927C41.5239 37.7699 41.5239 37.7699 41.5239 37.7472C41.4555 37.6788 41.3644 37.6333 41.2506 37.5877C41.2733 35.9935 41.2961 34.4221 41.2961 32.8279C41.2961 32.2129 41.3644 31.8713 42.116 31.8258C46.0104 31.5525 49.7227 30.5732 53.23 28.8651C53.7082 28.6373 54.0726 28.7057 54.5053 28.9106C57.9215 30.5504 61.5199 31.5297 65.2777 31.7802C66.2342 31.8485 66.3936 32.2357 66.3481 33.0328C66.3025 33.9438 66.3481 34.8548 66.3709 35.743C66.3481 36.1074 66.3481 36.449 66.3481 36.7906C66.3253 38.9542 66.3253 41.0039 65.8243 43.0308Z" fill="white"/>
<path d="M32.3674 24.1052C31.2059 21.4861 28.2908 20.0058 25.4212 20.5979C22.8021 21.1217 20.6385 23.5358 20.5474 25.9955C20.1375 28.3412 21.299 30.7781 23.417 32.0762C25.6034 33.3972 28.473 33.2605 30.4544 31.7346C32.5496 30.1404 33.3923 27.5669 32.6635 25.0617C32.5724 24.7656 32.5041 24.424 32.3674 24.1052ZM29.9989 29.2522C28.9512 30.5959 27.1748 31.2108 25.5351 30.7098C23.827 30.2087 22.6427 28.7284 22.5744 26.952C22.5516 26.5648 22.5744 26.2004 22.5972 25.8133C22.6427 25.8133 22.6883 25.7905 22.7566 25.7677C22.711 25.7449 22.6655 25.7222 22.6199 25.7222C22.7793 24.4012 24.6924 22.8526 25.8767 22.6476C27.7214 22.3515 29.4751 23.1259 30.3633 24.7884C30.5227 25.1072 30.6593 25.4261 30.796 25.7449C30.7504 25.7449 30.7049 25.7677 30.6593 25.7905C30.7049 25.7905 30.7732 25.7905 30.8188 25.7905C30.8871 27.0431 30.8188 28.2274 29.9989 29.2522Z" fill="white"/>
<path d="M60.5875 34.0804C60.2687 33.7615 60.0181 33.6704 59.6538 34.0348C57.1941 36.54 54.6889 39.0224 52.2293 41.5048C51.8876 41.8237 51.5916 41.8237 51.2727 41.4593C50.9311 41.0494 50.4984 40.7305 50.1568 40.3206C49.8607 40.0017 49.6102 39.8879 49.2458 40.275C48.0387 41.5276 46.7861 42.7574 45.5563 43.9873C45.2375 44.3061 45.1008 44.5339 45.488 44.921C47.4694 46.8569 49.428 48.8155 51.3638 50.7969C51.6827 51.1157 51.8876 51.0701 52.2065 50.7741C54.9394 47.9956 57.6951 45.2171 60.4281 42.4386C61.7035 41.186 62.9788 39.9562 64.2542 38.7264C64.6642 38.3392 64.5958 38.0431 64.2314 37.6787C62.9788 36.4945 61.7718 35.2874 60.5875 34.0804ZM60.9747 38.9996C60.4736 39.4324 60.0409 39.9562 59.5854 40.4344C59.5399 40.4344 59.4943 40.4117 59.4488 40.4117C59.4488 40.4572 59.4716 40.5028 59.4943 40.5483C57.1486 42.8713 54.8028 45.1488 52.4798 47.4945C51.9332 48.0411 51.6143 48.1322 51.0678 47.5173C50.2707 46.6063 49.3824 45.7865 48.517 44.9438C47.7655 44.215 48.6081 43.9645 48.927 43.6229C49.223 43.304 49.4735 42.598 50.1568 43.2585C50.7034 43.7823 51.1133 44.8072 51.8876 44.625C52.5253 44.4883 53.0036 43.6456 53.5274 43.1218C54.279 42.3703 55.0078 41.5959 55.7365 40.8444H55.7593V40.8216C56.9664 39.6373 58.2417 38.4986 59.3805 37.246C60.1776 36.3578 60.4964 36.9955 61.0658 37.451C61.749 38.0887 61.5896 38.4758 60.9747 38.9996Z" fill="white"/>
<path d="M45.4878 38.4303C45.4423 37.9521 45.5334 37.451 45.465 36.95C45.3512 36.0162 45.6928 35.538 46.6493 35.4924C47.6058 35.4696 47.788 35.0142 47.5831 34.1032C47.3098 32.8961 46.6038 33.3972 45.9433 33.511C43.347 33.9893 43.347 33.9893 43.347 36.5173C43.347 37.0411 43.3925 37.5877 43.347 38.1115C43.2104 39.1591 43.6658 39.4324 44.6451 39.3185C45.2601 39.2274 45.5561 39.068 45.4878 38.4303Z" fill="white"/>
<path d="M50.2471 34.5124C50.8391 34.5352 51.5676 34.3531 52.023 33.7156C51.5904 33.2147 51.8636 32.1901 51.0668 32.1901C50.5431 32.1901 49.5186 32.1446 49.5186 33.0781C49.5413 33.5562 49.473 34.4669 50.2471 34.5124Z" fill="white"/>
</svg>
