<svg width="80" height="80" viewBox="0 0 80 80" fill="none" xmlns="http://www.w3.org/2000/svg">
<path d="M17.9116 28.958C19.4735 29.9751 21.0353 30.9921 22.6335 32.0454C25.6846 34.0432 28.6994 36.0409 31.7504 38.0023C33.2033 38.9467 33.7845 38.6198 33.8208 36.84C33.8208 36.5494 33.8571 36.2225 33.8208 35.9319C33.6029 34.588 34.1477 34.1521 35.528 34.1885C39.6324 34.2611 43.7731 34.2611 47.8776 34.1885C48.713 34.1885 50.1659 34.7696 50.1659 33.2441C50.1659 31.9365 48.7856 32.4087 47.9502 32.3723C43.8458 32.336 39.705 32.2997 35.6006 32.3723C34.3293 32.4087 33.6029 32.1544 33.8208 30.7015C33.9298 30.0114 33.7845 29.2123 32.9128 29.2123C31.8594 29.176 31.9684 30.1204 31.9684 30.8105C31.9321 32.3723 31.9684 33.9342 31.9684 35.823C27.9366 33.1714 24.1954 30.7378 20.4905 28.3042C19.8367 27.8684 20.1636 27.5415 20.6358 27.2509C24.268 24.8536 27.9003 22.4927 32.0047 19.8048C32.0047 21.3667 32.0047 22.4927 32.0047 23.6186C32.0047 24.0545 32.1863 24.4541 32.6585 24.6357C33.1307 24.781 33.5666 24.6357 33.7119 24.1635C34.0024 23.2191 34.7289 23.2917 35.4553 23.2917C37.9979 23.2917 40.5405 23.2917 43.083 23.2917C43.7731 23.2917 44.5359 23.2917 44.4633 22.311C44.4269 21.512 43.7368 21.4756 43.1193 21.4756C41.049 21.4756 39.0149 21.4756 36.9445 21.4756C34.1114 21.4756 34.1114 21.4756 33.8935 18.6062C33.7845 17.1896 33.2033 16.8264 32.0773 17.5528C27.3554 20.6039 22.6699 23.6913 17.9479 26.815C16.7856 27.5778 16.8946 28.2679 17.9116 28.958Z" fill="white"/>
<path d="M60.7358 51.0057C59.1739 49.9887 57.6121 48.9353 56.0502 47.9183C53.0718 45.9569 50.0933 43.9955 47.1149 42.0704C46.6064 41.7435 46.1342 41.2713 45.4804 41.5982C44.8266 41.9251 44.9355 42.6152 44.9355 43.1964C44.9355 43.487 44.8992 43.8139 44.9355 44.1044C45.1535 45.521 44.4997 45.8116 43.1921 45.8116C38.906 45.739 34.62 45.7753 30.2976 45.8116C29.5712 45.8116 28.5178 45.5937 28.5905 46.7923C28.6631 47.8093 29.6075 47.6277 30.2976 47.6277C34.5837 47.6277 38.8697 47.664 43.1921 47.5914C44.4997 47.5551 45.1535 47.8456 44.9355 49.2622C44.8266 49.9523 44.9719 50.7151 45.8436 50.7514C46.7517 50.7878 46.7517 49.9523 46.788 49.2985C46.8969 47.7004 46.57 46.0659 47.0059 44.2497C51.0014 46.8649 54.8879 49.4075 58.9923 52.1317C54.8879 54.8195 51.0377 57.3621 46.7517 60.1589C46.7517 58.5971 46.7517 57.5074 46.7517 56.454C46.7517 55.9455 46.6064 55.4733 46.0252 55.3281C45.553 55.2191 45.1535 55.4007 45.0082 55.8729C44.7539 56.7809 44.1001 56.672 43.41 56.672C40.9764 56.672 38.5791 56.6357 36.1455 56.672C35.4191 56.672 34.3294 56.3451 34.2931 57.5437C34.2568 58.8513 35.4554 58.4881 36.2182 58.5244C38.1433 58.5607 40.1047 58.5244 42.0298 58.5244C44.7176 58.5244 44.7176 58.5244 44.8629 61.2486C44.9355 62.8831 45.5167 63.21 46.897 62.3019C51.5099 59.3235 56.0865 56.2724 60.6994 53.2577C61.8618 52.4586 61.8618 51.7685 60.7358 51.0057Z" fill="white"/>
<path d="M74.6115 52.168C74.6115 46.2475 74.5752 40.3269 74.6479 34.4064C74.6479 32.9898 74.321 32.336 72.7228 32.3723C69.1632 32.4813 65.6036 32.4087 62.0077 32.4087C61.2812 32.4087 60.3369 32.2634 60.3369 33.2804C60.3005 34.479 61.3539 34.2248 62.1167 34.2248C65.1314 34.2611 68.1462 34.2611 71.1972 34.2248C72.2869 34.1885 72.8317 34.4064 72.8317 35.6777C72.7954 46.6834 72.7954 57.689 72.8317 68.6947C72.8317 69.7844 72.5048 70.1839 71.3789 70.1476C68.3641 70.075 65.3493 70.1113 62.2983 70.1476C61.5355 70.1476 60.3369 69.8207 60.3732 71.092C60.4095 72.218 61.4992 71.9274 62.2256 71.9637C65.6036 72 69.0179 71.8911 72.3959 72C74.103 72.0727 74.7205 71.5642 74.6842 69.7844C74.5389 63.9002 74.6115 58.0159 74.6115 52.168Z" fill="white"/>
<path d="M16.4953 45.7753C13.6985 45.7753 10.938 45.739 8.1412 45.7753C7.12417 45.7753 6.61566 45.5573 6.61566 44.395C6.65198 33.3894 6.65198 22.3837 6.61566 11.3417C6.61566 10.0704 7.08785 9.81614 8.21384 9.85247C10.8654 9.92511 13.5532 9.88879 16.2048 9.85247C16.9675 9.85247 18.1662 10.1794 18.1298 8.90809C18.1298 7.78209 17.0039 8.03635 16.2774 8.03635C13.19 8.03635 10.03 8.10899 6.86992 8.00003C5.30805 7.9637 4.76322 8.47222 4.79954 10.0704C4.87219 15.9909 4.83586 21.9478 4.83586 27.8684C4.83586 33.7889 4.87219 39.7458 4.79954 45.6663C4.79954 47.1919 5.30805 47.7004 6.79727 47.664C10.0663 47.5914 13.3353 47.6277 16.6043 47.6277C17.3308 47.6277 18.2388 47.7367 18.2025 46.6833C18.1662 45.5937 17.2218 45.7753 16.4953 45.7753Z" fill="white"/>
<path d="M50.2385 23.3281C50.965 23.3281 52.0183 23.6187 52.0546 22.4564C52.091 21.294 51.0376 21.5483 50.3112 21.4756C49.5847 21.5483 48.5314 21.2577 48.4951 22.3837C48.4587 23.5823 49.5121 23.3644 50.2385 23.3281Z" fill="white"/>
<path d="M28.4458 56.6357C27.7194 56.6357 26.666 56.3088 26.666 57.5074C26.666 58.6697 27.7194 58.3792 28.3732 58.4518C29.1723 58.4155 30.2256 58.6697 30.2256 57.5437C30.2256 56.4178 29.1723 56.6357 28.4458 56.6357Z" fill="white"/>
<path d="M55.1419 34.2247C55.7594 34.1521 56.7401 34.4427 56.7764 33.3893C56.8127 32.1907 55.7957 32.445 55.0329 32.4086C54.3065 32.3723 53.3984 32.336 53.3984 33.353C53.3984 34.37 54.3428 34.1884 55.1419 34.2247Z" fill="white"/>
<path d="M23.6505 45.7753C22.924 45.8116 21.907 45.5573 21.9433 46.756C21.9797 47.8093 22.924 47.5551 23.6142 47.6277C24.3769 47.5914 25.3576 47.7367 25.3213 46.6107C25.285 45.63 24.3406 45.7389 23.6505 45.7753Z" fill="white"/>
</svg>
