<svg width="80" height="80" viewBox="0 0 80 80" fill="none" xmlns="http://www.w3.org/2000/svg">
<path d="M15.575 47.5378C14.7916 47.5378 14.0155 47.5451 13.232 47.5378C12.0679 47.5305 11.343 46.791 11.3357 45.6268C11.3357 44.2357 11.3357 42.8445 11.3357 41.4534C11.3357 37.8071 11.3357 34.1608 11.3357 30.5146C11.3357 27.8567 11.3357 25.1989 11.3284 22.5484C11.3284 21.743 11.3284 20.9376 11.3137 20.1322C11.3064 19.8247 11.3723 19.6856 11.7311 19.7002C12.5218 19.7295 13.3199 19.7002 14.1107 19.7002C19.2725 19.7002 24.4344 19.7002 29.5963 19.7002C29.5963 19.7076 29.5963 19.7076 29.5963 19.7149C34.1212 19.7149 38.6461 19.7149 43.171 19.7149C44.6134 19.7149 46.0484 19.7222 47.4908 19.7076C47.7764 19.7076 47.8423 19.8027 47.8276 20.0663C47.8057 20.5056 47.813 20.945 47.8276 21.3843C47.8423 21.9261 48.2669 22.2922 48.8014 22.2336C49.2627 22.1823 49.5556 21.8089 49.5556 21.2744C49.5556 18.9827 49.5263 16.691 49.5556 14.3919C49.5775 12.6713 48.5818 11.6462 46.8538 11.6682C45.6311 11.6829 44.4157 11.6682 43.1929 11.6755C42.9513 11.6755 42.8854 11.595 42.8854 11.3607C42.9 10.5699 42.8927 9.77186 42.8854 8.9811C42.8781 8.38071 42.5486 8.01462 42.0288 8.0073C41.4943 7.99998 41.1575 8.38072 41.1501 8.99575C41.1501 9.72793 41.1501 10.4601 41.1501 11.1923C41.1501 11.6755 41.1501 11.6755 40.6815 11.6755C38.0091 11.6755 35.3366 11.6755 32.6641 11.6755C27.905 11.6755 23.1458 11.6755 18.3939 11.6829C18.0498 11.6829 17.9619 11.5803 17.9693 11.2509C17.9912 10.4967 17.9839 9.73525 17.9766 8.9811C17.9912 8.36607 17.6325 7.98534 17.098 7.99998C16.5854 8.01462 16.2633 8.38804 16.2633 8.98843C16.2633 9.73525 16.2486 10.4748 16.2706 11.2216C16.2852 11.5657 16.1974 11.6829 15.8313 11.6755C14.5793 11.6536 13.3199 11.6609 12.0679 11.6682C10.6255 11.6755 9.60775 12.6933 9.60775 14.1357C9.60775 17.8185 9.60775 21.5014 9.60775 25.1843C9.60775 28.6402 9.60775 32.0888 9.60775 35.5447C9.60775 38.9347 9.60042 42.3247 9.60775 45.722C9.60775 47.5524 10.8891 49.0241 12.6829 49.2365C13.6421 49.3536 14.6085 49.2657 15.575 49.2731C16.1974 49.2804 16.5708 48.9436 16.5781 48.4091C16.5708 47.8746 16.1974 47.5451 15.575 47.5378ZM11.3284 17.5403C11.3503 16.4274 11.3357 15.3218 11.3357 14.2089C11.3357 13.6378 11.57 13.4035 12.1265 13.4035C13.3858 13.4035 14.6378 13.4108 15.8972 13.3962C16.1827 13.3962 16.2779 13.4767 16.2706 13.7696C16.2486 14.3553 16.2633 14.9411 16.2633 15.5268C16.2706 16.0686 16.6074 16.4274 17.1053 16.4347C17.5958 16.442 17.9693 16.0906 17.9912 15.5561C18.0132 14.9557 18.0132 14.3626 17.9912 13.7622C17.9766 13.4694 18.0718 13.3962 18.35 13.3962C20.8614 13.4035 23.3728 13.4035 25.8915 13.4035C30.8337 13.4035 35.7759 13.4035 40.7108 13.3962C41.0769 13.3962 41.2014 13.484 41.1721 13.8574C41.1355 14.3773 41.1648 14.9045 41.1648 15.4316C41.1648 16.054 41.4943 16.4347 42.0214 16.442C42.5632 16.4494 42.9 16.0613 42.9 15.4097C42.9 14.8386 42.9074 14.2601 42.9 13.689C42.8927 13.4621 42.9733 13.3962 43.1929 13.3962C44.4962 13.4035 45.8068 13.3962 47.1101 13.4035C47.5714 13.4035 47.8276 13.6671 47.8276 14.143C47.8349 15.2925 47.813 16.4347 47.835 17.5842C47.8423 17.921 47.7324 17.9796 47.4176 17.9796C42.2411 17.9723 37.0719 17.9723 31.8954 17.9723C31.1266 17.9723 30.3578 17.9723 29.589 17.9723C23.651 17.9723 17.7057 17.9723 11.7677 17.9796C11.4236 17.9796 11.3211 17.8991 11.3284 17.5403Z" fill="white"/>
<path d="M37.3574 50.7521C35.7319 46.3444 31.4194 43.7524 26.7407 44.3382C22.9114 44.8214 20.1218 46.9008 18.6648 50.4592C17.0393 54.4423 17.7788 58.1178 20.6783 61.3175C21.6813 62.4231 22.3476 63.6751 22.5966 65.1541C22.7576 66.1133 22.6625 67.0797 22.6991 67.8632C22.6991 68.6686 22.6844 69.3056 22.6991 69.9426C22.721 70.9017 23.3946 71.7364 24.3099 71.9121C25.0054 72.0439 25.723 72 26.4259 71.9414C26.7041 71.9195 26.9823 71.8829 27.2606 71.9414C27.4949 71.9927 27.7218 71.9854 27.9488 71.9634C28.864 71.8755 29.7866 71.978 30.7018 71.9561C31.1192 71.9488 31.5585 71.9854 31.9539 71.7877C32.7666 71.3923 33.1986 70.7553 33.1986 69.8401C33.2059 68.6539 33.1912 67.4751 33.2059 66.289C33.2352 64.4073 33.8795 62.7745 35.1608 61.376C38.0163 58.2936 38.8144 54.7059 37.3574 50.7521ZM31.4853 67.5337C31.4706 68.2512 31.4853 68.9761 31.4779 69.6936C31.4706 70.2062 31.3754 70.2647 30.8702 70.2574C30.0575 70.2428 29.2448 70.2721 28.4247 70.2721C27.2459 70.2721 26.0598 70.2501 24.881 70.2428C24.5735 70.2428 24.427 70.0963 24.4197 69.8035C24.4124 69.0127 24.4197 68.2146 24.4124 67.4239C24.4124 67.1896 24.5369 67.1822 24.7199 67.1822C25.8035 67.1896 26.8945 67.1822 27.9781 67.1822C29.0251 67.1822 30.0795 67.1896 31.1265 67.1749C31.4047 67.1749 31.4926 67.2628 31.4853 67.5337ZM36.2151 55.5625C35.9442 57.3271 35.1901 58.85 33.96 60.146C32.6275 61.5371 31.8221 63.1845 31.5731 65.0955C31.5365 65.3884 31.4267 65.4689 31.1411 65.4689C30.0795 65.4543 29.0178 65.4616 27.9561 65.4616C26.8798 65.4616 25.8108 65.4543 24.7345 65.4689C24.4783 65.4689 24.3758 65.4031 24.3392 65.1395C24.0829 63.1919 23.2336 61.5371 21.901 60.0947C19.6825 57.6859 19.0162 54.8523 20.0339 51.7552C21.059 48.6581 23.2848 46.7544 26.4918 46.1394C32.049 45.0484 37.0791 49.9687 36.2151 55.5625Z" fill="white"/>
<path d="M69.0246 40.3478C68.4681 39.9524 67.9116 39.557 67.3552 39.1616C65.9055 38.1439 64.3313 38.4075 63.3062 39.8499C59.1401 45.6854 54.9813 51.5208 50.8152 57.349C50.6761 57.5394 50.5956 57.7517 50.5516 57.986C50.2514 59.8238 49.9586 61.6689 49.651 63.5067C49.5485 64.0997 49.651 64.6123 50.1562 64.9637C50.6541 65.3225 51.1813 65.2566 51.7085 64.971C53.3339 64.0851 54.9667 63.2138 56.5994 62.3352C56.8411 62.2034 57.0314 62.0277 57.1925 61.808C61.3513 55.9725 65.5174 50.137 69.6835 44.3089C70.0423 43.811 70.2546 43.2618 70.2546 42.6395C70.2327 41.6657 69.8153 40.9115 69.0246 40.3478ZM68.2485 43.3058C65.1879 47.5964 62.1274 51.8796 59.0742 56.1702C58.0126 57.6565 56.9509 59.1429 55.8892 60.6365C55.8087 60.7463 55.7208 60.8415 55.6037 60.9074C54.2857 61.6176 52.9605 62.3279 51.6426 63.0381C51.6133 63.0527 51.5767 63.0527 51.4815 63.0747C51.6938 61.7641 51.9281 60.512 52.0892 59.2454C52.1697 58.5864 52.4407 58.0592 52.8141 57.5321C56.3432 52.6045 59.8577 47.6696 63.3794 42.742C63.848 42.0903 64.3166 41.4314 64.7852 40.7797C65.1879 40.2306 65.7224 40.1427 66.2789 40.5308C66.8573 40.9335 67.4357 41.3435 68.0068 41.7609C68.5926 42.1855 68.6731 42.7127 68.2485 43.3058Z" fill="white"/>
<path d="M41.5968 24.8328C40.5864 24.8328 39.5686 24.8255 38.5582 24.8328C35.6075 24.8475 32.6568 24.7962 29.6988 24.8694C28.2345 24.906 27.0337 25.9531 27.0483 27.2563C27.0557 28.0617 27.0337 28.8671 27.0337 29.6725C27.0337 33.3115 27.0337 36.9431 27.0264 40.5821C27.0264 40.9042 27.0703 41.1898 27.3339 41.4021C27.6121 41.6291 27.927 41.6803 28.2564 41.5266C28.6445 41.3435 28.7616 40.9994 28.7616 40.5894C28.7616 36.5697 28.7616 32.55 28.7616 28.5303C28.7616 28.4718 28.7763 28.3986 28.7543 28.3473C28.5713 27.9592 28.7909 27.5785 28.8129 27.2051C28.8349 26.9049 29.0984 26.7072 29.3986 26.612C29.6549 26.5315 29.9258 26.4802 30.1894 26.5242C30.7678 26.634 31.3536 26.5535 31.932 26.5535C38.6681 26.5754 45.3968 26.5681 52.1329 26.5681C53.8169 26.5681 55.5009 26.5681 57.1849 26.5681C58.0269 26.5681 58.3198 26.861 58.3198 27.7176C58.3198 31.9789 58.3198 36.2329 58.3198 40.4942C58.3198 40.6187 58.3125 40.7358 58.3271 40.8603C58.3711 41.3508 58.7518 41.7023 59.2277 41.6876C59.689 41.673 60.0331 41.3216 60.0551 40.831C60.0551 40.7578 60.0551 40.6846 60.0551 40.6113C60.0551 36.2915 60.0551 31.9716 60.0551 27.6517C60.0551 25.9238 58.9715 24.8401 57.2435 24.8401C55.2446 24.8401 53.2458 24.8401 51.2469 24.8401C48.04 24.8328 44.8184 24.8328 41.5968 24.8328Z" fill="white"/>
<path d="M59.3527 62.8989C58.9719 62.833 58.5765 63.0307 58.4155 63.3822C58.3349 63.5652 58.3203 63.7556 58.3203 63.9533C58.3203 65.6885 58.3203 67.4165 58.3203 69.1518C58.3203 69.9206 57.9981 70.2427 57.2366 70.2427C55.1499 70.2427 53.0705 70.2427 50.9838 70.2427C48.7141 70.2427 46.4443 70.2427 44.1745 70.2427C41.7217 70.2427 39.2689 70.2427 36.8161 70.2427C36.267 70.2427 35.8936 70.6161 35.8936 71.1213C35.9009 71.6046 36.2743 71.9633 36.8015 71.978C37.0211 71.9853 37.2408 71.978 37.4604 71.978C41.8974 71.978 46.3271 71.978 50.7642 71.978C52.9607 71.978 55.1573 71.978 57.3538 71.978C58.928 71.9707 60.0482 70.8431 60.0555 69.2762C60.0555 68.7271 60.0555 68.178 60.0555 67.6288C60.0555 66.3329 60.0629 65.0442 60.0555 63.7483C60.0555 63.3016 59.7627 62.9721 59.3527 62.8989Z" fill="white"/>
<path d="M54.2197 37.7851C54.022 37.4557 53.7218 37.3605 53.3484 37.3605C50.0902 37.3678 46.8393 37.3678 43.5811 37.3605C40.3522 37.3605 37.116 37.3605 33.887 37.3605C33.7626 37.3605 33.6454 37.3532 33.521 37.3678C33.0963 37.4117 32.7814 37.7412 32.7522 38.1659C32.7229 38.5832 32.9938 38.964 33.4111 39.0518C33.5868 39.0884 33.7772 39.0884 33.9529 39.0884C35.5125 39.0884 37.072 39.0738 38.6389 39.0738C43.0173 39.0738 47.3958 39.0811 51.7742 39.0884C52.36 39.0884 52.9457 39.1104 53.5315 39.0665C54.1904 39.0298 54.5492 38.3343 54.2197 37.7851Z" fill="white"/>
<path d="M50.0605 48.9363C51.2394 48.9729 52.4109 48.8923 53.5897 48.9216C53.7288 48.929 53.8459 48.8411 53.9411 48.7459C54.212 48.4896 54.3145 48.1821 54.1901 47.816C54.0729 47.4719 53.824 47.2815 53.4652 47.2303C53.1137 47.1864 52.7623 47.2742 52.4109 47.2596C51.0856 47.2083 49.753 47.2742 48.4278 47.2303C47.0732 47.179 45.7187 47.223 44.3715 47.223V47.2303C42.9584 47.2303 41.5453 47.2303 40.1322 47.2303C39.9491 47.2303 39.7661 47.2449 39.605 47.3401C39.2609 47.5378 39.0998 47.9185 39.195 48.3066C39.2975 48.7093 39.6196 48.9509 40.0956 48.9509C42.6948 48.9509 45.2867 48.9729 47.886 48.9436C48.6035 48.9363 49.3357 48.9143 50.0605 48.9363Z" fill="white"/>
<path d="M46.8759 57.1147C45.9241 57.1074 44.9723 57.1147 44.0204 57.1147C43.1052 57.1147 42.19 57.1147 41.2747 57.1147C41.0112 57.1147 40.7622 57.1586 40.5719 57.3563C40.3083 57.6272 40.2277 57.9421 40.3742 58.2935C40.5352 58.6962 40.8647 58.8353 41.2821 58.8353C43.1491 58.8353 45.0162 58.8353 46.8833 58.8353C47.0297 58.8353 47.1761 58.8134 47.3079 58.7475C47.674 58.5571 47.8497 58.1617 47.7546 57.759C47.652 57.371 47.3226 57.1147 46.8759 57.1147Z" fill="white"/>
<path d="M16.3074 31.0564C16.981 31.0637 17.6473 31.0564 18.3209 31.0564C19.0018 31.0564 19.6828 31.0564 20.371 31.0564C20.9421 31.0564 21.3229 30.6903 21.3155 30.1704C21.3082 29.6726 20.9275 29.3284 20.371 29.3211C19.0165 29.3211 17.6693 29.3211 16.3147 29.3211C15.7363 29.3211 15.3629 29.6726 15.3702 30.207C15.3702 30.7122 15.7436 31.0564 16.3074 31.0564Z" fill="white"/>
<path d="M16.2702 41.1239C17.6467 41.1312 19.0232 41.1312 20.3997 41.1239C20.9342 41.1239 21.3003 40.7725 21.315 40.2819C21.3296 39.784 20.9489 39.4179 20.3997 39.4106C19.7188 39.4033 19.0379 39.4106 18.357 39.4106C18.357 39.4106 18.357 39.4106 18.357 39.4179C17.676 39.4179 16.9951 39.4179 16.3142 39.4179C15.765 39.4179 15.3843 39.7401 15.3697 40.216C15.333 40.7359 15.7065 41.1166 16.2702 41.1239Z" fill="white"/>
</svg>
