<svg width="80" height="80" viewBox="0 0 80 80" fill="none" xmlns="http://www.w3.org/2000/svg">
<path d="M68.2395 28.2972C68.2395 28.0435 68.2287 27.7898 68.1855 27.547C67.8617 25.5661 66.2155 24.1844 64.1645 24.179C61.8275 24.1736 59.485 24.1736 57.148 24.1844C56.9051 24.1844 56.8295 24.125 56.8295 23.8714C56.8403 21.6585 56.8349 19.4456 56.8349 17.2327C56.8349 14.2965 54.5896 12.008 51.6535 12.008C42.9098 11.9972 34.1661 11.9972 25.4225 12.008C22.5079 12.0134 20.2464 14.2749 20.2302 17.1733C20.214 19.424 20.2248 21.6693 20.2302 23.9199C20.2302 24.4327 20.5433 24.7781 20.9967 24.7835C21.45 24.7889 21.7685 24.4435 21.7739 23.9307C21.7793 23.3478 21.7739 22.7595 21.7739 22.1766C21.7739 21.7178 21.7307 21.7772 22.1787 21.7772C33.0975 21.7772 44.0163 21.7772 54.9405 21.7772C54.9836 21.7772 55.0322 21.7826 55.0754 21.7772C55.2697 21.7502 55.3183 21.842 55.3129 22.0255C55.3021 22.63 55.3075 23.2291 55.3075 23.8336C55.3075 24.179 55.3075 24.179 54.9567 24.179C50.4391 24.179 45.9269 24.179 41.4094 24.179C39.0237 24.179 37.2858 25.917 37.2858 28.2972C37.2858 32.0213 37.2858 35.7455 37.2858 39.4697C37.2858 43.3557 37.2858 47.2418 37.2858 51.1279C37.2858 53.1789 38.7809 54.8628 40.8156 55.1111C41.0531 55.1381 41.3014 55.1435 41.5443 55.1435C46.0079 55.1435 50.4661 55.1435 54.9297 55.1435C55.3021 55.1435 55.3021 55.1435 55.3021 55.5267C55.3021 56.0233 55.2859 56.5144 55.3075 57.011C55.3183 57.2754 55.2535 57.3618 54.9674 57.3618C44.0109 57.3564 33.0543 57.3564 22.0977 57.3618C21.844 57.3618 21.7631 57.297 21.7631 57.0326C21.7739 55.0086 21.7685 52.9846 21.7685 50.9606C21.7685 50.8418 21.7739 50.7231 21.7523 50.6097C21.6929 50.2049 21.3637 49.9405 20.9589 49.9567C20.5055 49.9783 20.2248 50.3129 20.2248 50.8472C20.2248 54.8305 20.2248 58.8191 20.2248 62.8023C20.2248 63.1262 20.2518 63.45 20.3112 63.7684C20.7916 66.2782 22.8857 67.9999 25.4656 67.9999C34.1715 67.9999 42.8828 67.9999 51.5887 67.9999C51.7398 67.9999 51.8964 67.9945 52.0475 67.9891C52.4955 67.9676 52.4955 67.9676 52.5171 67.5682C52.7384 67.9082 52.7383 67.9082 53.1809 67.7786C55.3345 67.1418 56.8241 65.1663 56.8295 62.8995C56.8349 60.4167 56.8349 57.9339 56.8241 55.4511C56.8241 55.1975 56.8997 55.1381 57.1426 55.1381C59.4742 55.1489 61.8005 55.1435 64.1321 55.1435C64.429 55.1435 64.7258 55.1219 65.0173 55.0625C66.9441 54.6631 68.2287 53.0547 68.2287 51.0199C68.2449 43.4475 68.2449 35.875 68.2395 28.2972ZM54.9459 20.2282C50.3203 20.2282 45.7002 20.2282 41.0747 20.2282C40.2273 20.2282 39.3854 20.2282 38.538 20.2282C33.0705 20.2282 27.603 20.2282 22.1301 20.2282C21.7739 20.2282 21.7739 20.2282 21.7739 19.8612C21.7739 18.9868 21.7739 18.1178 21.7739 17.2434C21.7793 15.1331 23.3769 13.5409 25.4872 13.5409C34.1769 13.5409 42.8666 13.5409 51.5509 13.5409C53.7099 13.5409 55.3075 15.1277 55.3075 17.2866C55.3075 18.1394 55.3075 18.9976 55.3075 19.8504C55.3129 20.2767 55.3669 20.2282 54.9459 20.2282ZM55.3075 62.7483C55.3021 64.8803 53.7477 66.4563 51.6157 66.4563C42.899 66.4617 34.1877 66.4617 25.471 66.4563C23.3661 66.4563 21.7847 64.8641 21.7793 62.7645C21.7793 61.5771 21.7847 60.3897 21.7739 59.2023C21.7685 58.9432 21.8494 58.8731 22.1031 58.8731C27.5868 58.8785 33.0759 58.8785 38.5596 58.8785C44.0163 58.8785 49.4784 58.8785 54.9351 58.8785C55.3021 58.8785 55.3021 58.8785 55.3021 59.2401C55.3075 60.4113 55.3075 61.5825 55.3075 62.7483ZM66.7012 51.0253C66.7012 52.5474 65.6434 53.5999 64.1159 53.5999C60.327 53.5999 56.5435 53.5999 52.7545 53.5999C48.9656 53.5999 45.1821 53.5999 41.3932 53.5999C39.8819 53.5999 38.8348 52.5474 38.8348 51.0361C38.8348 43.4529 38.8348 35.8696 38.8348 28.2918C38.8348 26.7859 39.8873 25.728 41.3986 25.728C48.971 25.728 56.5435 25.728 64.1159 25.728C65.638 25.728 66.6958 26.7859 66.6958 28.308C66.7066 35.875 66.7066 43.4475 66.7012 51.0253Z" fill="white"/>
<path d="M22.6318 47.9597C23.4846 47.9489 24.17 47.4307 24.4075 46.6103C24.4939 46.3081 24.5748 46.0058 24.6612 45.7036C24.7205 45.4985 25.5949 45.0721 25.7946 45.1477C25.8432 45.1692 25.8918 45.1962 25.9403 45.2232C26.2048 45.3636 26.4585 45.5093 26.7284 45.6388C27.484 46.0166 28.3206 45.8763 28.9089 45.2826C29.1949 44.9965 29.4756 44.7051 29.7563 44.4136C30.5335 43.6148 30.6684 42.8268 30.0693 41.8823C29.7131 41.3264 29.6051 40.8352 29.956 40.2631C30.0261 40.1497 30.0855 40.0634 30.2204 40.0256C30.5497 39.9338 30.8789 39.8367 31.1973 39.7233C31.9368 39.4643 32.4171 38.8058 32.4225 38.0232C32.4279 37.5104 32.4225 36.9977 32.4063 36.4849C32.3794 35.6915 31.8774 35.0331 31.1218 34.801C30.8573 34.72 30.5874 34.6337 30.3176 34.5743C30.0639 34.5203 29.956 34.3692 29.8264 34.1533C29.535 33.6567 29.5835 33.2304 29.9074 32.777C30.1449 32.4369 30.3014 32.0483 30.2852 31.6759C30.2906 31.1146 30.1179 30.6774 29.7671 30.3212C29.4054 29.9542 29.0384 29.5979 28.6714 29.2417C28.4447 29.0258 28.1748 28.8909 27.8726 28.8099C27.2465 28.648 26.6852 28.8207 26.194 29.1824C25.7029 29.5494 25.2333 29.5872 24.7206 29.2633C24.7152 29.2579 24.7044 29.2579 24.6936 29.2525C24.5748 29.2255 24.5208 29.1446 24.4885 29.0312C24.4021 28.7182 24.305 28.4105 24.2078 28.1029C23.9433 27.2555 23.2579 26.7536 22.3673 26.759C21.9193 26.7644 21.466 26.7644 21.018 26.7697C20.1544 26.7751 19.4797 27.2717 19.2261 28.0975C19.1289 28.4159 19.0426 28.7398 18.9454 29.0582C18.886 29.2471 18.0009 29.6573 17.8174 29.5872C17.7688 29.5656 17.7202 29.5386 17.6716 29.5116C17.4342 29.3821 17.1967 29.2579 16.9592 29.1284C16.1658 28.7074 15.3184 28.8315 14.6869 29.4738C14.3631 29.803 14.05 30.1323 13.7316 30.4615C13.1379 31.0822 13.0299 31.9242 13.4455 32.6744C13.5967 32.9497 13.7586 33.2196 13.9097 33.4948C13.9475 33.565 13.9961 33.6298 13.9583 33.7215C13.8395 34.0022 13.7262 34.2882 13.6128 34.5689C13.5751 34.6606 13.4941 34.6714 13.4185 34.6984C13.1109 34.7956 12.7978 34.8873 12.4902 34.9845C11.6968 35.2436 11.1948 35.9344 11.2002 36.7764C11.2056 37.2514 11.211 37.7317 11.2218 38.2067C11.238 39.0379 11.7454 39.7125 12.5388 39.95C12.8464 40.0418 13.1595 40.1335 13.4725 40.2145C13.6074 40.2523 13.6668 40.3332 13.737 40.452C14.0824 41.0133 14.0932 41.5476 13.6614 42.0658C13.6128 42.1252 13.5805 42.2061 13.5481 42.2763C13.1757 42.9995 13.2998 43.8415 13.8665 44.419C14.2119 44.7698 14.5682 45.1153 14.9244 45.4553C15.5127 46.0166 16.3439 46.1354 17.0725 45.7522C17.3586 45.601 17.6393 45.4391 17.9199 45.2826C17.9955 45.2394 18.071 45.1746 18.1682 45.2178C18.4543 45.3312 18.7349 45.4445 19.021 45.5579C19.1181 45.5956 19.1289 45.6928 19.1559 45.7791C19.2531 46.0868 19.3448 46.3998 19.442 46.7075C19.6956 47.4739 20.3649 47.9651 21.1691 47.9705C21.6603 47.9705 22.146 47.9651 22.6318 47.9597ZM20.8884 46.1516C20.7643 45.7198 20.6186 45.2934 20.4944 44.8616C20.3973 44.5108 20.1868 44.2895 19.8306 44.1923C19.3718 44.0682 18.9292 43.8793 18.5082 43.658C18.2222 43.5069 17.9415 43.5069 17.6608 43.6634C17.256 43.8955 16.8404 44.1168 16.4356 44.3489C16.2467 44.4568 16.0902 44.4514 15.9283 44.2841C15.6422 43.9872 15.34 43.7012 15.0431 43.4151C14.9514 43.3234 14.8596 43.237 14.8866 43.0481C14.9028 43.0103 14.9406 42.9402 14.973 42.87C15.1835 42.4706 15.394 42.0766 15.6045 41.6772C15.761 41.3911 15.761 41.1105 15.6045 40.8298C15.3616 40.3872 15.1619 39.9284 15.0054 39.4427C14.9082 39.1404 14.7139 38.9569 14.4116 38.8706C13.9691 38.7518 13.5319 38.6169 13.0893 38.4981C12.8518 38.4388 12.7439 38.3092 12.7493 38.061C12.7547 37.6562 12.7385 37.2514 12.7277 36.8466C12.7169 36.6145 12.8194 36.4795 13.0461 36.4148C13.4779 36.2906 13.9043 36.1449 14.3361 36.0208C14.6707 35.9236 14.8812 35.7239 14.973 35.3893C15.0971 34.9305 15.2806 34.4879 15.5073 34.0669C15.6854 33.7431 15.6692 33.4355 15.4803 33.1224C15.2482 32.7338 15.0377 32.3398 14.8111 31.9512C14.7085 31.7785 14.7139 31.6381 14.8596 31.4924C15.1727 31.1794 15.4803 30.8663 15.7826 30.5479C15.9229 30.4022 16.0632 30.3806 16.2413 30.4777C16.6407 30.699 17.0509 30.9041 17.4557 31.1308C17.7688 31.3035 18.0656 31.3089 18.3787 31.1308C18.7943 30.8987 19.2315 30.7044 19.6902 30.5641C20.0195 30.4615 20.2192 30.251 20.3055 29.9164C20.4189 29.4792 20.5592 29.0528 20.6726 28.621C20.7319 28.3943 20.8561 28.2972 21.0935 28.2972C21.4983 28.3026 21.9031 28.2918 22.3079 28.2756C22.54 28.2648 22.6804 28.3512 22.7451 28.5833C22.8693 29.0258 23.015 29.4576 23.1445 29.9002C23.2309 30.2025 23.4144 30.3968 23.7059 30.5101C24.2024 30.699 24.6936 30.8987 25.1847 31.0984C25.46 31.2118 25.7245 31.1956 25.9889 31.0444C26.3937 30.8123 26.8039 30.5911 27.2087 30.3536C27.3922 30.2456 27.538 30.2672 27.6891 30.4183C27.9859 30.7206 28.2882 31.0121 28.5958 31.3035C28.7578 31.4546 28.7847 31.6058 28.6714 31.8055C28.4501 32.1941 28.2504 32.5989 28.0345 32.9929C27.8618 33.3059 27.8564 33.6028 28.0345 33.9158C28.272 34.3314 28.4609 34.7686 28.5958 35.2274C28.693 35.562 28.9035 35.7617 29.2381 35.8481C29.6753 35.9614 30.1017 36.0963 30.5389 36.2097C30.7764 36.2691 30.8843 36.3986 30.8789 36.6523C30.8681 37.0679 30.8789 37.4781 30.8897 37.8936C30.8951 38.1095 30.7979 38.2283 30.5982 38.2877C30.1503 38.4226 29.7077 38.5629 29.2543 38.6979C28.9413 38.7896 28.7416 38.9839 28.6552 39.297C28.5203 39.7719 28.326 40.2307 28.1047 40.6733C27.9536 40.9701 27.9697 41.2616 28.1317 41.5476C28.353 41.9362 28.5688 42.3357 28.7955 42.7189C28.9143 42.924 28.8981 43.0805 28.7308 43.2478C28.4339 43.5393 28.1479 43.8307 27.8672 44.1384C27.7053 44.3165 27.5488 44.3273 27.3437 44.2139C26.9496 43.9926 26.5502 43.7929 26.1562 43.577C25.854 43.4097 25.5625 43.4097 25.2603 43.577C24.8339 43.8145 24.3913 44.0088 23.9217 44.1438C23.5979 44.2409 23.409 44.4514 23.3172 44.7752C23.1985 45.2178 23.0636 45.655 22.9502 46.103C22.8909 46.3351 22.7559 46.416 22.5238 46.416C22.1082 46.4106 21.698 46.4214 21.2825 46.4322C21.0666 46.443 20.9478 46.3567 20.8884 46.1516Z" fill="white"/>
<path d="M64.4397 34.1641C64.4397 32.4369 64.4397 30.7098 64.4397 28.9826C64.4397 28.2486 64.1806 27.9841 63.4574 27.9841C59.8951 27.9841 56.3329 27.9841 52.7706 27.9841C49.1814 27.9841 45.5922 27.9841 42.003 27.9841C41.3823 27.9841 41.0908 28.2756 41.0908 28.8909C41.0908 30.6558 41.0908 32.4153 41.0908 34.1803C41.0908 34.8279 41.3769 35.114 42.0354 35.114C49.1868 35.114 56.3383 35.114 63.4897 35.114C64.159 35.114 64.4397 34.8333 64.4397 34.1641ZM62.896 33.3005C62.896 33.511 62.8367 33.5704 62.6262 33.5704C56.0522 33.565 49.4783 33.565 42.9043 33.5704C42.6938 33.5704 42.6291 33.5164 42.6291 33.3005C42.6399 32.1401 42.6399 30.9796 42.6291 29.8192C42.6291 29.5817 42.6938 29.517 42.9313 29.517C46.2021 29.5224 49.4783 29.5224 52.7491 29.5224C56.0198 29.5224 59.296 29.5278 62.5668 29.517C62.8259 29.517 62.896 29.5871 62.896 29.8462C62.8852 30.9958 62.8906 32.1509 62.896 33.3005Z" fill="white"/>
<path d="M56.1824 43.8739C57.4076 43.8739 58.6274 43.8739 59.8526 43.8739C61.094 43.8739 62.3354 43.8739 63.5768 43.8739C64.1435 43.8739 64.4404 43.577 64.4404 43.0103C64.4404 41.213 64.4404 39.4103 64.4404 37.613C64.4404 37.0678 64.1327 36.7602 63.5876 36.7602C61.121 36.7602 58.6598 36.7602 56.1932 36.7602C55.6103 36.7602 55.3135 37.057 55.3135 37.64C55.3135 39.4319 55.3135 41.2184 55.3135 43.0103C55.3189 43.5824 55.6157 43.8739 56.1824 43.8739ZM57.1054 38.293C58.0283 38.2984 58.9567 38.2984 59.8796 38.2984C60.8026 38.2984 61.7309 38.3038 62.6538 38.293C62.8428 38.293 62.8967 38.347 62.8967 38.5359C62.8913 39.7233 62.8859 40.9107 62.8967 42.0928C62.8967 42.2979 62.832 42.3518 62.6377 42.3518C60.7972 42.3464 58.9513 42.3464 57.1108 42.3518C56.9057 42.3518 56.8517 42.2817 56.8517 42.0874C56.8571 40.8999 56.8571 39.7125 56.8517 38.5305C56.8517 38.3308 56.9273 38.293 57.1054 38.293Z" fill="white"/>
<path d="M41.9652 43.8739C43.1904 43.8739 44.4102 43.8739 45.6354 43.8739C46.8606 43.8739 48.0804 43.8739 49.3056 43.8739C49.937 43.8739 50.2123 43.604 50.2123 42.9725C50.2123 41.1914 50.2123 39.4103 50.2123 37.6292C50.2123 37.0409 49.9263 36.7548 49.3325 36.7548C46.8768 36.7548 44.421 36.7548 41.9652 36.7548C41.3985 36.7548 41.0908 37.0517 41.0908 37.613C41.0908 39.4103 41.0908 41.2076 41.0908 43.0103C41.0908 43.5824 41.3931 43.8739 41.9652 43.8739ZM42.9043 38.2931C43.8219 38.3039 44.7394 38.2985 45.657 38.2985C46.5745 38.2985 47.4921 38.3039 48.4096 38.2931C48.6093 38.2931 48.6903 38.3308 48.6849 38.5575C48.6741 39.7341 48.6741 40.9108 48.6849 42.0928C48.6849 42.2925 48.6363 42.3573 48.4312 42.3573C46.5853 42.3519 44.7448 42.3519 42.8989 42.3573C42.6776 42.3573 42.6291 42.2763 42.6345 42.0766C42.6399 40.9054 42.6453 39.7395 42.6345 38.5683C42.6291 38.3524 42.6938 38.2877 42.9043 38.2931Z" fill="white"/>
<path d="M63.6403 45.6603C62.3881 45.6603 61.1414 45.6603 59.8892 45.6603C58.6316 45.6603 57.3686 45.6603 56.111 45.6603C55.6577 45.6603 55.3284 45.9788 55.3176 46.4052C55.3068 46.8424 55.6361 47.177 56.1003 47.1932C56.2784 47.1986 56.4619 47.1932 56.64 47.1932C58.9446 47.1932 61.2439 47.1932 63.5486 47.1932C63.8454 47.1932 64.1045 47.1284 64.2826 46.8801C64.4607 46.6319 64.4931 46.362 64.3582 46.0921C64.2124 45.8007 63.9642 45.6603 63.6403 45.6603Z" fill="white"/>
<path d="M49.4074 45.6604C48.1552 45.655 46.9084 45.6604 45.6562 45.6604C44.3987 45.6604 43.1357 45.655 41.8781 45.6604C41.4247 45.6604 41.1009 45.9842 41.0901 46.4106C41.0793 46.8316 41.4085 47.1878 41.8511 47.1878C44.3771 47.1932 46.903 47.1932 49.4344 47.1878C49.7474 47.1878 49.9903 47.0421 50.1306 46.7614C50.3951 46.2433 50.0173 45.6658 49.4074 45.6604Z" fill="white"/>
<path d="M47.0171 48.9959C45.2899 48.9851 43.5628 48.9851 41.8356 48.9959C41.4848 48.9959 41.2149 49.228 41.1232 49.5518C40.9775 50.0592 41.3391 50.5179 41.9004 50.5233C42.737 50.5341 43.5736 50.5233 44.4102 50.5233C45.2737 50.5233 46.1373 50.5287 47.0009 50.5179C47.4381 50.5125 47.7565 50.1779 47.7565 49.7623C47.7619 49.3521 47.4489 49.0013 47.0171 48.9959Z" fill="white"/>
<path d="M61.2383 48.9959C59.5111 48.9851 57.784 48.9851 56.0568 48.9959C55.733 48.9959 55.4901 49.1686 55.3714 49.4763C55.1609 49.9998 55.5279 50.5179 56.1216 50.5233C56.9582 50.5341 57.7948 50.5233 58.6314 50.5233C59.4949 50.5233 60.3585 50.5287 61.2221 50.5179C61.6593 50.5125 61.9723 50.1833 61.9777 49.7623C61.9885 49.3521 61.6755 49.0013 61.2383 48.9959Z" fill="white"/>
<path d="M38.5536 60.136C37.1826 60.1198 36.0222 61.2641 36.006 62.6512C35.9898 64.0491 37.1287 65.1933 38.532 65.1987C39.9299 65.2041 41.0633 64.0869 41.0687 62.6944C41.0795 61.2857 39.9623 60.1522 38.5536 60.136ZM38.5266 63.6659C37.9868 63.6551 37.5389 63.1909 37.5551 62.6512C37.5659 62.1223 38.0192 61.6797 38.5482 61.6851C39.0933 61.6851 39.5359 62.1384 39.5305 62.689C39.5197 63.2287 39.0717 63.6713 38.5266 63.6659Z" fill="white"/>
<path d="M42.4081 16.1262C42.3109 16.1154 42.2084 16.1208 42.1112 16.1208C40.0009 16.1208 37.8851 16.1208 35.7748 16.1208C35.4347 16.1208 35.0893 16.1154 34.7493 16.1262C34.3553 16.137 34.0692 16.3745 33.9937 16.7361C33.8857 17.238 34.2473 17.6536 34.8086 17.659C36.05 17.6644 37.2914 17.659 38.5274 17.659C39.4719 17.659 40.4165 17.659 41.361 17.659C41.701 17.659 42.0465 17.6698 42.3865 17.6536C42.8075 17.632 43.1043 17.3028 43.1043 16.8926C43.1043 16.4932 42.8129 16.1694 42.4081 16.1262Z" fill="white"/>
<path d="M26.9276 37.4618C26.933 34.6822 24.6175 32.3829 21.8217 32.3829C18.9881 32.3829 16.7158 34.6606 16.7158 37.4996C16.7158 40.3116 18.9989 42.5893 21.8217 42.5893C24.6391 42.5893 26.9222 40.2954 26.9276 37.4618ZM18.2487 37.4672C18.2595 35.5188 19.8625 33.9266 21.8217 33.9212C23.7647 33.9158 25.3839 35.535 25.3785 37.478C25.3731 39.4534 23.7593 41.0564 21.7785 41.051C19.8463 41.051 18.2379 39.4157 18.2487 37.4672Z" fill="white"/>
</svg>
