<svg width="14" height="18" viewBox="0 0 14 18" fill="none" xmlns="http://www.w3.org/2000/svg">
<path d="M1.55429e-05 15.3148L1.6095e-05 2.6848C-0.000705815 2.18618 0.139794 1.69755 0.405254 1.27547C0.670714 0.853386 1.05028 0.515111 1.50002 0.299798C2.03363 0.0477491 2.62731 -0.0493295 3.21342 0.0196238C3.79952 0.0885772 4.35447 0.32079 4.81502 0.689799L12.465 7.0048C12.751 7.25262 12.9803 7.55902 13.1375 7.90323C13.2946 8.24743 13.376 8.62141 13.376 8.9998C13.376 9.37819 13.2946 9.75216 13.1375 10.0964C12.9803 10.4406 12.751 10.747 12.465 10.9948L4.81502 17.3098C4.35447 17.6788 3.79952 17.911 3.21342 17.98C2.62731 18.0489 2.03363 17.9518 1.50001 17.6998C1.05028 17.4845 0.670714 17.1462 0.405254 16.7241C0.139794 16.302 -0.00070641 15.8134 1.55429e-05 15.3148Z" fill="#4949FC"/>
</svg>
