<svg width="413" height="244" viewBox="0 0 413 244" fill="none" xmlns="http://www.w3.org/2000/svg">
<g filter="url(#filter0_d_2001_1899)">
<mask id="path-1-inside-1_2001_1899" fill="white">
<path fill-rule="evenodd" clip-rule="evenodd" d="M43.7999 80.7C64.6762 80.7 81.5999 63.7764 81.5999 42.9C81.5999 34.0641 78.5681 25.9363 73.4882 19.5H363.3C381.691 19.5 396.6 34.4089 396.6 52.8V192.3C396.6 210.691 381.691 225.6 363.3 225.6H51.8998C33.5088 225.6 18.5999 210.691 18.5999 192.3V71.0749C25.2874 77.0604 34.1186 80.7 43.7999 80.7Z"/>
</mask>
<g filter="url(#filter1_i_2001_1899)">
<path fill-rule="evenodd" clip-rule="evenodd" d="M43.7999 80.7C64.6762 80.7 81.5999 63.7764 81.5999 42.9C81.5999 34.0641 78.5681 25.9363 73.4882 19.5H363.3C381.691 19.5 396.6 34.4089 396.6 52.8V192.3C396.6 210.691 381.691 225.6 363.3 225.6H51.8998C33.5088 225.6 18.5999 210.691 18.5999 192.3V71.0749C25.2874 77.0604 34.1186 80.7 43.7999 80.7Z" fill="#F6F6F6"/>
</g>
<path d="M73.4882 19.5V18.5H71.425L72.7032 20.1195L73.4882 19.5ZM18.5999 71.0749L19.2668 70.3298L17.5999 68.8379V71.0749H18.5999ZM80.5999 42.9C80.5999 63.2241 64.1239 79.7 43.7999 79.7V81.7C65.2285 81.7 82.5999 64.3287 82.5999 42.9H80.5999ZM72.7032 20.1195C77.6489 26.3857 80.5999 34.2968 80.5999 42.9H82.5999C82.5999 33.8313 79.4874 25.4869 74.2732 18.8805L72.7032 20.1195ZM73.4882 20.5H363.3V18.5H73.4882V20.5ZM363.3 20.5C381.139 20.5 395.6 34.9612 395.6 52.8H397.6C397.6 33.8566 382.243 18.5 363.3 18.5V20.5ZM395.6 52.8V192.3H397.6V52.8H395.6ZM395.6 192.3C395.6 210.139 381.139 224.6 363.3 224.6V226.6C382.243 226.6 397.6 211.243 397.6 192.3H395.6ZM363.3 224.6H51.8998V226.6H363.3V224.6ZM51.8998 224.6C34.061 224.6 19.5999 210.139 19.5999 192.3H17.5999C17.5999 211.243 32.9565 226.6 51.8998 226.6V224.6ZM19.5999 192.3V71.0749H17.5999V192.3H19.5999ZM43.7999 79.7C34.3741 79.7 25.778 76.1576 19.2668 70.3298L17.9329 71.8201C24.7967 77.9633 33.8631 81.7 43.7999 81.7V79.7Z" fill="url(#paint0_linear_2001_1899)" mask="url(#path-1-inside-1_2001_1899)"/>
<g filter="url(#filter2_i_2001_1899)">
<circle cx="44.6998" cy="42.9" r="27.9" fill="#7D7DFF"/>
</g>
<circle cx="44.6998" cy="42.9" r="27.45" stroke="url(#paint1_linear_2001_1899)" stroke-width="0.9"/>
<path d="M38.7731 51.3V48.9069L44.3648 43.7293C44.8404 43.2691 45.2392 42.8549 45.5614 42.4867C45.8887 42.1185 46.1367 41.758 46.3054 41.4052C46.4742 41.0472 46.5586 40.6611 46.5586 40.2469C46.5586 39.7867 46.4537 39.3904 46.2441 39.058C46.0344 38.7205 45.7481 38.4623 45.385 38.2833C45.0219 38.0992 44.6103 38.0072 44.15 38.0072C43.6694 38.0072 43.25 38.1043 42.8921 38.2986C42.5341 38.4929 42.258 38.7716 42.0637 39.1347C41.8694 39.4978 41.7722 39.9299 41.7722 40.431H38.6196C38.6196 39.4032 38.8523 38.5108 39.3177 37.754C39.783 36.9972 40.435 36.4117 41.2736 35.9975C42.1123 35.5833 43.0787 35.3762 44.1731 35.3762C45.2981 35.3762 46.2773 35.5756 47.1108 35.9745C47.9495 36.3682 48.6015 36.9154 49.0668 37.616C49.5321 38.3165 49.7648 39.1194 49.7648 40.0245C49.7648 40.6177 49.6472 41.2032 49.412 41.781C49.1819 42.3589 48.7702 43.0006 48.177 43.7063C47.5838 44.4069 46.7478 45.2481 45.6688 46.2299L43.3753 48.4773V48.5847H49.9719V51.3H38.7731Z" fill="white"/>
</g>
<defs>
<filter id="filter0_d_2001_1899" x="0.499805" y="0.700001" width="412.4" height="243.2" filterUnits="userSpaceOnUse" color-interpolation-filters="sRGB">
<feFlood flood-opacity="0" result="BackgroundImageFix"/>
<feColorMatrix in="SourceAlpha" type="matrix" values="0 0 0 0 0 0 0 0 0 0 0 0 0 0 0 0 0 0 127 0" result="hardAlpha"/>
<feOffset dy="2"/>
<feGaussianBlur stdDeviation="8.15"/>
<feComposite in2="hardAlpha" operator="out"/>
<feColorMatrix type="matrix" values="0 0 0 0 0.286275 0 0 0 0 0.286275 0 0 0 0 0.988235 0 0 0 0.2 0"/>
<feBlend mode="normal" in2="BackgroundImageFix" result="effect1_dropShadow_2001_1899"/>
<feBlend mode="normal" in="SourceGraphic" in2="effect1_dropShadow_2001_1899" result="shape"/>
</filter>
<filter id="filter1_i_2001_1899" x="18.5999" y="19.5" width="378" height="207" filterUnits="userSpaceOnUse" color-interpolation-filters="sRGB">
<feFlood flood-opacity="0" result="BackgroundImageFix"/>
<feBlend mode="normal" in="SourceGraphic" in2="BackgroundImageFix" result="shape"/>
<feColorMatrix in="SourceAlpha" type="matrix" values="0 0 0 0 0 0 0 0 0 0 0 0 0 0 0 0 0 0 127 0" result="hardAlpha"/>
<feOffset dy="0.9"/>
<feGaussianBlur stdDeviation="9.495"/>
<feComposite in2="hardAlpha" operator="arithmetic" k2="-1" k3="1"/>
<feColorMatrix type="matrix" values="0 0 0 0 0.94902 0 0 0 0 0.972549 0 0 0 0 0.992157 0 0 0 1 0"/>
<feBlend mode="normal" in2="shape" result="effect1_innerShadow_2001_1899"/>
</filter>
<filter id="filter2_i_2001_1899" x="16.7998" y="15" width="55.8" height="56.7" filterUnits="userSpaceOnUse" color-interpolation-filters="sRGB">
<feFlood flood-opacity="0" result="BackgroundImageFix"/>
<feBlend mode="normal" in="SourceGraphic" in2="BackgroundImageFix" result="shape"/>
<feColorMatrix in="SourceAlpha" type="matrix" values="0 0 0 0 0 0 0 0 0 0 0 0 0 0 0 0 0 0 127 0" result="hardAlpha"/>
<feOffset dy="0.9"/>
<feGaussianBlur stdDeviation="4.45"/>
<feComposite in2="hardAlpha" operator="arithmetic" k2="-1" k3="1"/>
<feColorMatrix type="matrix" values="0 0 0 0 0.286275 0 0 0 0 0.286275 0 0 0 0 0.988235 0 0 0 1 0"/>
<feBlend mode="normal" in2="shape" result="effect1_innerShadow_2001_1899"/>
</filter>
<linearGradient id="paint0_linear_2001_1899" x1="68.5" y1="70" x2="377" y2="226" gradientUnits="userSpaceOnUse">
<stop stop-color="#4949FC"/>
<stop offset="1" stop-color="#9747FF"/>
</linearGradient>
<linearGradient id="paint1_linear_2001_1899" x1="26.6998" y1="18.15" x2="61.7998" y2="63.15" gradientUnits="userSpaceOnUse">
<stop stop-color="#4949FC"/>
<stop offset="1" stop-color="#9747FF"/>
</linearGradient>
</defs>
</svg>
