<svg width="80" height="80" viewBox="0 0 80 80" fill="none" xmlns="http://www.w3.org/2000/svg">
<path d="M12 38.5903C12 30.3921 12 22.1779 12 13.9797C12 11.0666 13.0506 10.0159 15.916 10.0159C24.2416 10.0159 32.5672 10.0318 40.8927 10C42.3732 10 43.583 10.4457 44.6178 11.4964C48.2791 15.1896 51.9245 18.8668 55.6336 22.4963C57.0345 23.8653 57.2733 25.5209 57.0822 27.3038C57.0504 27.6063 56.5569 27.861 56.2863 28.1316C56.0157 27.8451 55.6655 27.6063 55.5063 27.272C55.3789 27.0173 55.4744 26.6511 55.4744 26.3328C55.4585 24.136 54.3442 22.9739 52.1156 22.9261C50.651 22.8943 49.1865 22.9261 47.7219 22.9102C45.2227 22.8943 44.2198 21.8755 44.188 19.3444C44.172 17.9117 44.2039 16.4949 44.172 15.0622C44.1402 12.738 43.0418 11.6556 40.7336 11.6556C32.408 11.6556 24.0824 11.6556 15.7569 11.6556C14.0695 11.6556 13.6715 12.0535 13.6715 13.7728C13.6715 30.2966 13.6715 46.8363 13.6715 63.3601C13.6715 65.0475 14.0695 65.4295 15.7887 65.4295C28.3168 65.4295 40.845 65.4295 53.3731 65.4295C55.0924 65.4295 55.4426 65.0634 55.4744 63.3441C55.4744 63.1053 55.3948 62.8029 55.5063 62.6437C55.7291 62.3253 56.0157 61.9433 56.334 61.8796C56.541 61.8478 57.0504 62.2935 57.0822 62.58C57.512 65.6205 55.9998 67.1169 53.5482 67.1169C40.9087 67.0691 28.2532 67.101 15.6136 67.0851C13.1462 67.0851 12.0159 65.9389 12.0159 63.4237C12 55.1618 12 46.884 12 38.5903ZM51.5902 21.2706C49.6481 19.3444 47.7538 17.45 45.8594 15.5716C45.8594 16.9725 45.8276 18.5007 45.8754 20.013C45.8913 20.793 46.3688 21.2546 47.1648 21.2546C48.6452 21.2706 50.1416 21.2706 51.5902 21.2706Z" fill="white"/>
<path d="M41.4955 52.6785C40.9224 52.79 40.4289 52.9651 39.9514 52.9651C37.4521 52.9969 34.9529 52.981 32.4536 52.981C31.8009 52.981 31.005 52.981 31.1164 52.1055C31.1642 51.7871 31.976 51.3732 32.4377 51.3573C34.921 51.2777 37.4203 51.3254 40.1902 51.3254C38.0093 48.3168 36.9268 45.1648 37.1337 41.5194C35.4941 41.5194 33.9659 41.5194 32.4218 41.5194C31.8168 41.5194 31.0846 41.5672 31.0687 40.7394C31.0527 39.8479 31.8168 39.8638 32.4536 39.8479C34.0296 39.832 35.6215 39.8479 37.277 39.8479C37.5158 39.0201 37.7227 38.2401 37.9934 37.3327C36.29 37.3327 34.7141 37.3327 33.1381 37.3327C32.7879 37.3327 32.374 37.4442 32.0875 37.3009C31.6895 37.1099 31.387 36.7119 31.0527 36.4094C31.4029 36.1707 31.7372 35.7249 32.1034 35.709C33.9977 35.6294 35.908 35.6294 37.8023 35.6931C38.5664 35.709 38.9963 35.4543 39.4261 34.8016C43.947 27.9884 53.3551 26.4761 59.6749 31.5064C66.0902 36.6005 66.8224 45.913 61.3145 51.9781C60.8529 52.4875 60.5982 53.1561 60.0888 54.0157C61.9194 54.0635 62.5721 55.0504 63.1929 56.1648C64.6893 58.8232 66.2334 61.4498 67.7616 64.0924C68.9715 66.2096 68.5098 68.4064 66.6632 69.4889C64.7848 70.5713 62.6835 69.9027 61.4419 67.7855C59.7863 64.952 58.1148 62.1184 56.5388 59.2371C56.1886 58.6003 56.0613 57.7248 56.1886 57.0244C56.3319 56.1966 55.9976 55.9737 55.3768 55.9578C54.8355 55.9419 54.2784 56.1011 53.7371 56.1966C49.057 56.9925 44.9658 55.7509 41.4955 52.6785ZM57.8283 55.5598C58.2103 55.146 58.863 54.7161 58.7993 54.4614C58.4014 52.6785 59.4042 51.5801 60.439 50.3703C63.7819 46.502 64.2754 40.8827 61.7284 36.3935C59.2451 32.0158 54.151 29.5166 49.2798 30.2966C42.387 31.395 37.675 37.9058 38.9644 44.5281C40.3494 51.6916 46.9398 56.0374 53.9918 54.3978C55.4245 54.0635 56.6503 54.2067 57.8283 55.5598ZM67.0294 66.5598C66.6951 65.8116 66.5359 65.3181 66.2971 64.8724C64.9918 62.5642 63.7023 60.2559 62.3333 57.9954C60.6141 55.13 61.5374 55.2574 58.3218 57.0244C57.6054 57.4224 57.6213 57.8203 58.0034 58.4571C58.9267 59.9853 59.7863 61.5294 60.6777 63.0736C61.4896 64.4744 62.2856 65.8912 63.1133 67.2761C63.6387 68.1517 64.4983 68.6133 65.4216 68.1517C66.0583 67.8333 66.5041 67.0851 67.0294 66.5598Z" fill="white"/>
<path d="M17.6348 54.2227C17.6348 50.9115 20.2932 48.2849 23.6203 48.3009C26.9314 48.3168 29.558 50.9593 29.558 54.2704C29.5421 57.5656 26.8836 60.2241 23.5725 60.2082C20.2773 60.2082 17.6348 57.5338 17.6348 54.2227ZM27.8865 54.2068C27.8706 51.8189 25.9603 49.9405 23.5566 49.9564C21.1688 49.9723 19.2903 51.8826 19.3062 54.2863C19.3222 56.6742 21.2483 58.5685 23.6362 58.5367C26.024 58.5367 27.9024 56.6105 27.8865 54.2068Z" fill="white"/>
<path d="M29.558 38.5743C29.558 41.8854 26.8995 44.528 23.5884 44.528C20.2773 44.528 17.6348 41.8695 17.6348 38.5584C17.6348 35.2473 20.2932 32.6047 23.6043 32.6047C26.9155 32.6047 29.558 35.2632 29.558 38.5743ZM23.6362 42.8565C26.024 42.8406 27.9024 40.9144 27.8865 38.5266C27.8706 36.1387 25.9444 34.2603 23.5566 34.2762C21.1847 34.2921 19.2903 36.2183 19.3062 38.6061C19.3222 40.994 21.2483 42.8724 23.6362 42.8565Z" fill="white"/>
<path d="M23.6203 28.832C20.2932 28.832 17.6507 26.2054 17.6348 22.8943C17.6348 19.5831 20.2773 16.9088 23.5725 16.9088C26.8677 16.8928 29.5421 19.5672 29.558 22.8624C29.558 26.1895 26.9314 28.832 23.6203 28.832ZM23.5088 27.1764C25.9126 27.2083 27.8547 25.3617 27.9024 22.9898C27.9343 20.6019 26.0718 18.6439 23.6999 18.5962C21.3279 18.5484 19.354 20.4428 19.3062 22.7987C19.2585 25.2025 21.121 27.1446 23.5088 27.1764Z" fill="white"/>
<path d="M38.4243 57.1834C36.4026 57.1834 34.3809 57.1834 32.3751 57.1834C31.7543 57.1834 31.0061 57.1357 31.1334 56.3557C31.1812 56.0214 31.9612 55.5597 32.4229 55.5597C36.4185 55.496 40.4141 55.496 44.4098 55.5597C44.8714 55.5597 45.6515 56.0214 45.6992 56.3397C45.8266 57.279 44.9829 57.1675 44.362 57.1834C42.3722 57.1834 40.3982 57.1834 38.4243 57.1834Z" fill="white"/>
<path d="M38.5197 24.1837C40.4937 24.1837 42.4835 24.1837 44.4575 24.1837C45.0465 24.1837 45.7628 24.1519 45.7469 25.0115C45.731 25.8552 45.0306 25.8393 44.4416 25.8393C40.4459 25.8552 36.4503 25.8711 32.4547 25.8075C31.993 25.8075 31.1811 25.3617 31.1334 25.0434C31.022 24.1519 31.8338 24.1837 32.4706 24.1837C34.4764 24.1837 36.498 24.1837 38.5197 24.1837Z" fill="white"/>
<path d="M36.1336 21.6207C34.876 21.6207 33.6025 21.6207 32.3449 21.6207C31.7082 21.6207 31.0078 21.5252 31.1192 20.7452C31.1669 20.4427 31.8833 19.997 32.2972 19.997C34.892 19.9333 37.5027 19.9333 40.1134 19.997C40.5272 20.0129 41.2436 20.4586 41.2754 20.7611C41.3709 21.5411 40.6705 21.6207 40.0338 21.6207C38.7443 21.6207 37.439 21.6207 36.1336 21.6207Z" fill="white"/>
<path d="M40.957 42.4427C40.957 36.8551 45.5098 32.3501 51.1133 32.366C56.6371 32.3819 61.1581 36.9029 61.174 42.4267C61.1899 47.9824 56.6212 52.583 51.0655 52.583C45.4939 52.5989 40.957 48.0302 40.957 42.4427ZM47.8817 43.6047C46.258 41.3124 46.2899 39.0679 48.0568 37.3964C49.6328 35.9 52.0843 35.6931 53.6762 37.1417C54.4244 37.8103 54.9975 38.8132 55.3159 39.7842C55.8093 41.2806 55.0771 42.5859 54.2493 43.6206C55.6501 44.7191 56.9714 45.7379 58.2927 46.7726C60.5054 43.2227 59.6776 38.5266 56.3028 35.8682C52.9121 33.1938 48.0728 33.4962 45.0482 36.5686C42.2783 39.3862 41.7848 44.1619 43.902 46.7407C45.1915 45.706 46.4968 44.6872 47.8817 43.6047ZM57.0351 48.3486C55.5865 46.1358 53.6125 44.9419 50.9859 44.9738C48.4071 45.0056 46.4968 46.2154 45.1119 48.3167C48.1524 51.7393 53.6762 51.7711 57.0351 48.3486ZM51.0178 37.858C49.5373 37.8899 48.3115 39.1474 48.3593 40.6279C48.4071 42.0447 49.6328 43.2545 51.0496 43.2704C52.4982 43.2864 53.7876 41.9969 53.7717 40.5483C53.7717 39.0679 52.4982 37.8262 51.0178 37.858Z" fill="white"/>
<path d="M22.7314 54.7162C23.6069 53.777 24.3074 52.9173 25.1351 52.1851C25.4217 51.9304 25.9948 52.0259 26.4405 51.9463C26.3927 52.392 26.5201 52.9969 26.2813 53.2676C25.3262 54.366 24.2596 55.3688 23.209 56.3877C22.5722 57.0085 22.015 56.8811 21.5852 56.1329C21.2987 55.6235 20.9007 55.1301 20.7415 54.5888C20.6301 54.2227 20.8052 53.761 20.853 53.3312C21.2828 53.4745 21.7444 53.5541 22.1265 53.761C22.3334 53.8884 22.413 54.2068 22.7314 54.7162Z" fill="white"/>
<path d="M22.6989 39.0042C23.5745 38.0809 24.2749 37.2372 25.1027 36.5208C25.3892 36.2661 25.9782 36.3457 26.424 36.2661C26.3603 36.7437 26.4717 37.3645 26.2011 37.667C25.2778 38.7335 24.2272 39.7046 23.2243 40.7075C22.6034 41.3283 22.0463 41.2487 21.6005 40.4846C21.2981 39.9752 20.916 39.4817 20.7568 38.9405C20.6454 38.5425 20.8524 38.0649 20.9319 37.6192C21.3299 37.7625 21.7597 37.858 22.1099 38.0809C22.3169 38.1923 22.4124 38.5107 22.6989 39.0042Z" fill="white"/>
<path d="M22.715 23.3399C23.5587 22.4325 24.2273 21.6047 25.0232 20.9202C25.3416 20.6496 25.9465 20.6974 26.44 20.5859C26.3763 21.0635 26.4719 21.6843 26.2012 21.9868C25.2779 23.0534 24.2273 24.0244 23.2244 25.0114C22.6036 25.6322 22.0464 25.5526 21.6007 24.7885C21.2982 24.2791 20.9162 23.8015 20.757 23.2444C20.6455 22.8464 20.8525 22.3689 20.9162 21.9231C21.3141 22.0664 21.7439 22.1619 22.1101 22.3848C22.317 22.5121 22.4125 22.8305 22.715 23.3399Z" fill="white"/>
</svg>
