<svg width="80" height="80" viewBox="0 0 80 80" fill="none" xmlns="http://www.w3.org/2000/svg">
<path d="M38.5515 10.0312C38.6768 10.5011 38.9274 10.971 38.9274 11.4408C38.9588 13.8527 38.9431 16.2803 38.9431 18.6923C38.9431 20.2114 38.8648 20.2898 37.3769 20.2898C29.1858 20.2898 21.0103 20.2898 12.8191 20.2898C12.3493 20.2898 11.8951 20.2898 11.3469 20.2898C11.3469 22.8583 11.3469 25.3329 11.3469 27.8858C20.0862 27.8858 28.7942 27.8858 37.6275 27.8858C37.6275 26.5858 37.5805 25.3015 37.6588 24.0329C37.6901 23.6414 38.0817 23.2655 38.301 22.8896C38.5202 23.2812 38.9118 23.6727 38.9118 24.0643C38.9588 28.3556 38.9274 32.6313 38.9588 36.9226C38.9588 37.9093 38.5829 38.1912 37.6432 38.1912C28.8412 38.1599 20.0236 38.1756 11.2216 38.1599C10.8144 38.1599 10.4072 37.972 10 37.878C10 28.6219 10 19.35 10 10.0312C19.5224 10.0312 29.0291 10.0312 38.5515 10.0312ZM11.3469 36.8443C20.1332 36.8443 28.8412 36.8443 37.5492 36.8443C37.5492 34.2758 37.5492 31.8012 37.5492 29.3266C28.7629 29.3266 20.0706 29.3266 11.3469 29.3266C11.3469 31.8795 11.3469 34.3541 11.3469 36.8443ZM11.3469 11.3782C11.3469 13.978 11.3469 16.4213 11.3469 18.8959C20.1332 18.8959 28.8412 18.8959 37.5492 18.8959C37.5492 16.343 37.5492 13.8841 37.5492 11.3782C28.7786 11.3782 20.1019 11.3782 11.3469 11.3782Z" fill="white"/>
<path d="M63.3608 10.0313C66.0546 11.0337 66.9474 13.0227 66.8847 15.7949C66.7751 20.0079 66.8534 24.221 66.8534 28.4183C66.8534 28.8412 66.8534 29.2641 66.8534 29.8279C67.6521 29.8279 68.3413 29.7966 69.0304 29.8436C69.9231 29.8905 70.1424 30.3134 69.6255 31.0495C67.6052 33.9626 65.5691 36.8601 63.5174 39.7575C63.0476 40.4153 62.5934 40.3527 62.1392 39.7105C60.1345 36.8444 58.0984 33.9783 56.1094 31.0965C55.5612 30.2978 55.7805 29.8749 56.7515 29.8279C57.4093 29.7966 58.0671 29.8279 58.8032 29.8279C58.8032 25.8654 58.8032 21.9813 58.8032 17.9562C57.143 17.9562 55.4829 17.9562 53.8227 17.9562C53.4782 17.9562 53.0866 18.0345 52.7734 17.9249C52.4602 17.8153 52.2096 17.5177 51.9277 17.3141C52.2096 17.0948 52.4758 16.7033 52.7577 16.7033C54.2299 16.6406 55.7178 16.6719 57.2057 16.6719C60.1501 16.6719 60.1501 16.6719 60.1501 19.5537C60.1501 22.7957 60.1501 26.0221 60.1501 29.2641C60.1501 31.0495 60.1501 31.0495 58.3803 31.0808C58.2237 31.0808 58.0671 31.0965 57.7069 31.1278C59.4297 33.6024 61.0898 35.9673 62.8596 38.4889C64.5981 36.0143 66.2582 33.6494 67.9497 31.2218C65.5378 30.8303 65.5378 30.8303 65.5378 28.3713C65.5378 24.127 65.5378 19.867 65.5378 15.6226C65.5378 12.2396 64.5668 11.2686 61.1212 11.2686C57.19 11.2686 53.2432 11.2686 49.3121 11.2686C48.1062 11.2686 47.9965 11.0807 48.3881 10C53.3685 10.0313 58.3647 10.0313 63.3608 10.0313Z" fill="white"/>
<path d="M59.4609 50.5328C59.4609 49.687 59.4139 48.9823 59.4765 48.2931C59.5392 47.5884 59.9621 47.2908 60.6042 47.7293C63.58 49.7967 66.54 51.8797 69.5001 53.9784C70.0483 54.3699 70.0326 54.8241 69.4845 55.2157C66.5557 57.283 63.6269 59.3504 60.6668 61.3864C59.9621 61.872 59.5079 61.6057 59.4609 60.713C59.4139 60.0865 59.4452 59.4757 59.4452 58.6613C58.0826 58.6613 56.767 58.6143 55.4671 58.6769C54.7937 58.7239 54.3395 60.1491 54.7623 60.76C55.1539 61.3394 55.5767 61.9033 56.0153 62.4514C56.4381 62.9683 56.4068 63.4068 55.9213 63.8767C54.8563 64.9103 53.8226 65.9597 52.7889 67.0247C52.2878 67.5415 51.8179 67.5885 51.2697 67.1187C50.9722 66.8681 50.6433 66.6488 50.33 66.4139C48.6542 65.1609 47.2446 65.7561 46.9784 67.8078C46.9471 68.0427 46.9157 68.2776 46.9001 68.5126C46.8688 69.6089 46.3989 70.0944 45.2086 69.9848C43.893 69.8752 42.5618 69.9378 41.2305 69.9691C40.557 69.9848 40.2281 69.6872 40.1655 69.0294C40.1342 68.6065 40.0245 68.1837 39.9775 67.7608C39.6956 65.7874 38.3017 65.2079 36.7042 66.3982C34.6682 67.9174 35.0911 67.8391 33.3526 66.1476C32.6008 65.4115 31.8804 64.6284 31.1129 63.9237C30.5648 63.4225 30.5491 62.9526 31.019 62.4201C31.2696 62.1225 31.4418 61.731 31.7238 61.4961C32.8201 60.6033 32.3816 59.601 31.8491 58.7083C31.6454 58.3794 31.019 58.2384 30.5491 58.1758C27.8709 57.7529 28.2155 58.1914 28.1998 55.4036C28.1842 54.3856 28.2312 53.3676 28.1842 52.3652C28.1685 51.6761 28.4661 51.3629 29.1239 51.2845C29.5937 51.2376 30.0479 51.1436 30.5178 51.0809C32.3189 50.8147 32.8827 49.3738 31.8021 47.8859C30.2515 45.7403 30.1576 46.3197 32.0683 44.362C32.7731 43.6416 33.5249 42.9368 34.214 42.2007C34.7152 41.6682 35.1694 41.6212 35.7175 42.1067C36.0464 42.3886 36.4066 42.6235 36.7512 42.8741C38.3017 44.0488 39.6487 43.4536 39.9932 41.5272C40.4161 39.131 39.8053 39.2876 42.4991 39.2876C43.5485 39.2876 44.5978 39.3189 45.6628 39.2719C46.3676 39.2406 46.7748 39.4599 46.8218 40.2273C46.8531 40.6502 46.9471 41.073 46.9941 41.4959C47.2446 43.4223 48.6699 44.0174 50.2361 42.8741C52.3504 41.3393 51.7709 41.214 53.7443 43.1717C54.4021 43.8295 55.0442 44.5186 55.7334 45.1451C56.3755 45.7246 56.5165 46.2571 55.89 46.9149C55.5767 47.2595 55.3731 47.698 55.0442 48.0269C54.4021 48.669 54.3708 49.3738 54.9346 49.969C55.2635 50.3135 55.8587 50.4858 56.3598 50.5328C57.3309 50.5954 58.3019 50.5328 59.4609 50.5328ZM49.7505 58.6769C49.3277 58.6613 49.0144 58.6299 48.7012 58.6299C47.4169 58.6299 46.1327 58.6613 44.8484 58.5986C44.5665 58.583 44.3002 58.1914 44.0183 57.9878C44.2846 57.7686 44.5351 57.4866 44.8484 57.3613C45.0833 57.2674 45.3809 57.33 45.6628 57.33C49.9541 57.33 54.2455 57.3457 58.5212 57.33C61.1367 57.3144 60.6982 57.424 60.7921 59.4287C60.7921 59.4757 60.8861 59.5227 60.9957 59.601C63.3294 57.9565 65.6786 56.312 68.1375 54.5892C65.663 52.8507 63.298 51.1906 60.8235 49.4678C60.7765 49.828 60.7608 49.9846 60.7452 50.1256C60.6825 51.8484 60.6825 51.864 58.9597 51.864C54.5117 51.864 50.0638 51.864 45.6315 51.864C45.2869 51.864 44.911 51.911 44.5978 51.8014C44.3629 51.7074 44.0496 51.3942 44.0653 51.1906C44.081 50.9713 44.4099 50.6894 44.6448 50.6111C44.958 50.5015 45.3339 50.5641 45.6941 50.5641C47.0254 50.5641 48.3723 50.5641 49.7975 50.5641C48.0904 47.7136 44.6291 46.4294 41.4341 47.3064C38.1921 48.1992 35.9211 51.1906 35.9211 54.5892C35.9211 58.0348 38.2078 61.0419 41.5124 61.9346C44.6604 62.749 48.106 61.4334 49.7505 58.6769ZM35.138 65.897C36.438 65.2079 37.2524 63.7827 39.3824 64.6754C41.4967 65.5525 40.9486 67.2283 41.4967 68.6065C42.8593 68.6065 44.1749 68.6065 45.4905 68.6065C46.0074 67.1657 45.5532 65.5368 47.6832 64.6598C49.8445 63.767 50.5963 65.3332 51.7553 65.8657C52.8046 64.8634 53.7756 63.9237 54.7623 62.9683C54.0889 61.6683 52.1155 60.713 53.6973 58.7866C51.6769 58.4577 51.6613 58.4577 50.6433 59.8359C48.3566 62.9213 44.3785 64.2056 40.745 62.9996C37.1114 61.7936 34.6212 58.4107 34.6055 54.6049C34.5899 50.8304 37.0958 47.3691 40.698 46.1631C44.3159 44.9572 48.4349 46.1631 50.565 49.3268C51.4264 50.6111 52.3504 50.6581 53.3528 50.4858C53.3528 49.6557 53.1648 48.8256 53.3998 48.1678C53.6817 47.4161 54.3395 46.7896 54.8093 46.1631C53.7913 45.1138 52.8829 44.1741 51.9275 43.2187C50.5963 43.9391 49.7505 45.3644 47.6362 44.4873C45.5062 43.6102 46.0387 41.9344 45.5062 40.5718C44.1279 40.5718 42.781 40.5718 41.4341 40.5718C41.0739 42.138 41.3401 43.6416 39.2571 44.5343C37.1114 45.4427 36.3597 43.7042 35.2477 43.3283C34.1357 44.3307 33.1646 45.2234 32.1936 46.1161C32.3032 46.3041 32.3659 46.4607 32.4755 46.5547C33.9321 47.8859 34.1357 49.3425 33.1177 51.0809C32.7418 51.7231 32.4599 52.099 31.6924 52.1929C29.4685 52.4435 29.4685 52.4905 29.4685 54.7302C29.4685 56.6096 29.4685 56.6409 31.3009 56.8915C32.2563 57.0168 32.7418 57.424 33.243 58.348C34.214 60.1022 33.7128 61.3238 32.5068 62.5611C32.3816 62.6864 32.3032 62.8743 32.178 63.0779C33.1646 64.002 34.12 64.9104 35.138 65.897Z" fill="white"/>
<path d="M23.9232 54.4483C23.7352 54.7459 23.6412 54.9652 23.4846 55.1218C23.3123 55.2784 23.1087 55.4037 22.8895 55.482C20.9474 56.2024 19.6788 57.565 18.9114 59.4601C18.7704 59.8047 18.3632 60.0396 18.0656 60.3372C17.7837 60.0553 17.3765 59.8047 17.2355 59.4601C16.4524 57.518 15.1055 56.1868 13.1635 55.4037C12.8346 55.2784 12.4743 54.8555 12.4117 54.5266C12.3804 54.323 12.8346 53.9001 13.1478 53.7749C15.1369 52.9918 16.4368 51.5665 17.2825 49.6245C17.7524 48.5438 18.3945 48.5438 18.8487 49.6245C19.6945 51.5822 20.9944 52.9918 22.9834 53.7749C23.328 53.8845 23.5786 54.1821 23.9232 54.4483ZM18.05 50.9244C17.4078 52.8038 16.0296 53.7905 14.1188 54.6832C16.2802 55.2471 17.2982 56.6097 18.1283 58.5361C18.7547 56.4217 19.992 55.3254 21.9967 54.6049C20.039 53.8218 18.7547 52.7255 18.05 50.9244Z" fill="white"/>
<path d="M28.7152 24.7692C27.3526 24.7692 25.99 24.8162 24.6431 24.7379C24.2829 24.7222 23.954 24.3306 23.5938 24.1114C23.954 23.8921 24.2985 23.5162 24.6588 23.5006C27.3369 23.4536 30.0151 23.4536 32.6933 23.5006C33.0378 23.5006 33.3824 23.9078 33.727 24.127C33.3667 24.3463 33.0222 24.7222 32.662 24.7379C31.362 24.8162 30.0464 24.7692 28.7152 24.7692Z" fill="white"/>
<path d="M16.8756 25.0823C16.2178 24.7064 15.2155 24.3618 15.2468 24.1112C15.3408 23.0776 16.3118 23.5004 16.9226 23.5004C17.5334 23.5004 18.5045 23.0776 18.5671 24.1269C18.5828 24.3932 17.5648 24.722 16.8756 25.0823Z" fill="white"/>
<path d="M53.4937 13.3673C53.7287 13.3673 53.9636 13.3359 54.1828 13.3829C54.3708 13.4142 54.6214 13.4769 54.684 13.6022C54.7937 13.8058 54.778 14.072 54.8093 14.3226C54.0732 14.4323 53.3528 14.5732 52.6167 14.6045C52.4444 14.6045 52.0842 14.119 52.1311 13.9937C52.2408 13.7275 52.5383 13.5082 52.8046 13.3829C53.0082 13.289 53.2745 13.3673 53.4937 13.3673Z" fill="white"/>
<path d="M59.6475 14.6673C59.6006 14.6673 59.2717 14.7143 58.9897 14.6047C58.7705 14.5263 58.4729 14.2288 58.5042 14.0722C58.5356 13.8216 58.7861 13.477 59.0054 13.43C59.4439 13.3204 59.9451 13.2891 60.368 13.383C60.6969 13.4613 60.9788 13.7902 61.2764 14.0252C60.9788 14.2444 60.6812 14.4794 60.368 14.6673C60.2427 14.73 60.0548 14.6673 59.6475 14.6673Z" fill="white"/>
<path d="M62.2015 25.0198C62.2015 24.7848 62.1701 24.5499 62.2171 24.3306C62.2484 24.1427 62.2954 23.8921 62.4207 23.8295C62.6243 23.7198 62.9062 23.7198 63.1412 23.6729C63.2508 24.409 63.3918 25.1294 63.4231 25.8655C63.4231 26.0378 62.9532 26.4137 62.8279 26.3667C62.5773 26.2571 62.3424 25.9595 62.2171 25.6932C62.1388 25.5209 62.2015 25.2547 62.2015 25.0198Z" fill="white"/>
<path d="M62.2001 18.614C62.2001 18.379 62.1688 18.1441 62.2158 17.9248C62.2471 17.7369 62.3098 17.4863 62.4351 17.4237C62.6543 17.314 63.1399 17.314 63.1399 17.3297C63.2651 18.0501 63.4061 18.7862 63.4218 19.5223C63.4218 19.6946 63.0146 19.8826 62.7953 20.0548C62.5917 19.8043 62.3568 19.585 62.2315 19.3031C62.1375 19.0995 62.2001 18.8332 62.2001 18.614Z" fill="white"/>
<path d="M62.2015 31.1592C62.2015 31.1279 62.1545 30.799 62.2641 30.5171C62.3424 30.2978 62.64 30.0003 62.7966 30.0316C63.0315 30.0786 63.3761 30.3292 63.4231 30.5484C63.5327 31.0339 63.564 31.5508 63.4544 32.0363C63.3918 32.3339 63.0472 32.5688 62.8279 32.8351C62.6243 32.5688 62.3737 32.3182 62.2171 32.0206C62.1388 31.864 62.2015 31.6291 62.2015 31.1592Z" fill="white"/>
<path d="M49.624 17.3298C49.0915 17.7214 48.7783 18.1443 48.4963 18.1286C48.1988 18.1129 47.7446 17.6744 47.7289 17.3925C47.7132 17.1419 48.1674 16.672 48.4494 16.6251C48.7469 16.5937 49.0758 16.9853 49.624 17.3298Z" fill="white"/>
<path d="M28.6055 32.459C29.9994 32.459 31.409 32.4277 32.8029 32.4904C33.1318 32.506 33.445 32.8663 33.7583 33.0699C33.445 33.2891 33.1474 33.665 32.8342 33.6807C30.0777 33.7277 27.3212 33.7277 24.5647 33.6807C24.2358 33.6807 23.9226 33.3048 23.6094 33.1012C23.9226 32.8976 24.2202 32.506 24.5334 32.4904C25.8803 32.4121 27.2429 32.459 28.6055 32.459Z" fill="white"/>
<path d="M17.0317 34.0097C16.2956 33.6651 15.2306 33.3676 15.2463 33.1326C15.3246 31.9737 16.3583 32.5218 16.9847 32.4905C17.5486 32.4592 18.4726 32.0833 18.5822 33.0387C18.5979 33.2893 17.6112 33.6495 17.0317 34.0097Z" fill="white"/>
<path d="M28.8092 14.4949C30.0935 14.4949 31.3777 14.448 32.6463 14.5263C33.0222 14.5419 33.3668 14.9022 33.727 15.1058C33.3824 15.3407 33.0535 15.7636 32.709 15.7636C29.9838 15.8105 27.2743 15.8105 24.5492 15.7636C24.2203 15.7636 23.907 15.372 23.5781 15.1684C23.9227 14.9335 24.2516 14.5263 24.5961 14.5106C26.0057 14.448 27.4153 14.4949 28.8092 14.4949Z" fill="white"/>
<path d="M16.8595 16.1238C16.186 15.7479 15.2306 15.4503 15.2463 15.1841C15.2933 14.1034 16.28 14.5263 16.8751 14.5263C17.4859 14.5263 18.457 14.1034 18.5666 15.1214C18.5979 15.372 17.5329 15.7479 16.8595 16.1238Z" fill="white"/>
<path d="M59.4764 55.1843C59.2101 55.1843 58.8969 55.2626 58.6776 55.1687C58.4427 55.059 58.1295 54.7928 58.1138 54.5892C58.0982 54.4012 58.4271 54.0567 58.662 54.0097C59.1005 53.9157 59.6017 53.8844 60.0246 53.9784C60.3535 54.0567 60.6197 54.4012 60.9016 54.6205C60.6197 54.8085 60.3535 55.0434 60.0402 55.1843C59.8836 55.2626 59.6643 55.2 59.4764 55.1843C59.4764 55.2 59.4764 55.2 59.4764 55.1843Z" fill="white"/>
<path d="M47.6989 55.1844C47.4326 55.1844 47.1194 55.2627 46.9001 55.1688C46.6652 55.0591 46.3206 54.7146 46.3676 54.5579C46.6026 53.6182 47.4326 53.9471 48.0121 53.9941C48.4037 54.0254 48.7639 54.4013 49.1398 54.6206C48.7326 54.8242 48.341 55.0121 47.9338 55.2001C47.8712 55.2314 47.7772 55.2001 47.6989 55.2001V55.1844Z" fill="white"/>
<path d="M53.6347 55.1844C53.3215 55.1844 52.9926 55.2627 52.7263 55.153C52.507 55.0591 52.2721 54.7615 52.2408 54.5109C52.2251 54.37 52.5384 54.0567 52.742 54.0097C53.2275 53.9314 53.7443 53.8844 54.2299 53.9784C54.5274 54.0411 54.7624 54.3699 55.0443 54.5736C54.778 54.7772 54.5274 55.0121 54.2299 55.1844C54.0732 55.2627 53.854 55.2 53.666 55.2C53.6347 55.2 53.6347 55.1844 53.6347 55.1844Z" fill="white"/>
</svg>
