<svg width="80" height="80" viewBox="0 0 80 80" fill="none" xmlns="http://www.w3.org/2000/svg">
<path d="M58.1629 16.0006C57.827 19.6801 56.9631 21.0399 54.9634 21.0239C53.7156 21.0079 52.6437 20.432 52.1958 19.2802C51.8118 18.2723 51.7798 17.1365 51.5719 15.9526C50.628 15.9526 49.6201 15.9526 48.5163 15.9526C48.3883 17.5524 48.6283 19.3282 47.0285 20.368C46.4686 20.736 45.7007 21.0079 45.0288 20.9919C43.0291 20.9279 42.2612 19.6161 41.9572 15.9686C40.9174 15.9686 39.8775 15.9686 38.7097 15.9686C38.6297 17.5364 38.9177 19.2642 37.3979 20.304C36.838 20.688 36.0861 20.9919 35.4302 21.0079C33.4465 21.0399 32.6146 19.6801 32.1986 15.9526C31.2068 15.9526 30.1829 15.9526 29.0471 15.9526C29.0151 16.5606 28.9991 17.1845 28.9511 17.8084C28.8071 19.6801 27.4313 21.0719 25.7516 21.0399C24.0718 20.9919 22.728 19.5681 22.664 17.7284C22.648 17.1685 22.664 16.6245 22.664 16.0966C20.5843 15.5207 19.4805 16.3046 19.4805 18.3523C19.4645 25.0393 19.4805 31.7424 19.4645 38.4294C19.4645 39.0373 19.7684 40.0452 18.7926 40.0612C17.6727 40.0932 18.0727 39.0213 18.0567 38.3974C18.0247 32.1263 18.0407 25.8872 18.0407 19.6321C18.0407 15.4887 18.4886 14.9448 22.536 14.3209C23.0799 11.0573 23.9278 9.9535 25.8795 10.0015C27.7833 10.0495 28.6472 11.2333 29.0311 14.3529C30.0709 14.3529 31.1268 14.3529 32.3266 14.3529C32.3586 12.9451 32.3426 11.4253 33.7504 10.5774C34.2943 10.2415 35.0142 10.0335 35.6541 10.0335C37.5099 10.0335 38.2938 11.1693 38.7897 14.3689C39.8295 14.3689 40.8854 14.3689 41.9252 14.3689C42.3892 11.1693 43.2531 10.0175 45.1888 10.0015C47.1245 9.98549 47.9724 11.0893 48.4843 14.3529C49.5242 14.3529 50.58 14.3529 51.7798 14.3529C51.7638 12.9131 51.7958 11.4093 53.2036 10.5774C53.7795 10.2415 54.5474 10.0335 55.2193 10.0495C57.0751 10.1135 57.923 11.4093 58.1469 14.3689C58.5469 14.4009 58.9628 14.4169 59.3787 14.4489C61.3785 14.6248 62.5783 15.8407 62.6903 17.8404C62.7063 18.1603 62.7063 18.4803 62.7063 18.8002C62.7063 34.414 62.7223 50.0277 62.6743 65.6415C62.6743 66.6334 62.4663 67.7372 61.9864 68.5851C61.2825 69.8649 59.8747 69.9929 58.5149 69.9929C48.3243 69.9929 38.1178 69.9929 27.9273 69.9929C25.9755 69.9929 24.0238 70.0089 22.0721 69.9929C19.2725 69.9449 18.0567 68.7451 18.0407 65.9775C18.0247 59.2424 18.0407 52.5234 18.0407 45.7884C18.0407 45.5164 17.9927 45.1964 18.1047 44.9565C18.2166 44.7005 18.5366 44.3326 18.6806 44.3646C18.9685 44.4286 19.3045 44.7005 19.4005 44.9725C19.5285 45.3244 19.4645 45.7564 19.4645 46.1563C19.4645 52.6834 19.4645 59.2264 19.4645 65.7535C19.4645 68.0412 19.9924 68.5531 22.2961 68.5531C34.3263 68.5531 46.3566 68.5531 58.3869 68.5531C60.7386 68.5531 61.2505 68.0252 61.2505 65.6575C61.2505 49.9638 61.2505 34.27 61.2505 18.5763C61.2505 16.3526 60.4346 15.6647 58.1629 16.0006ZM27.4633 15.3607H27.4793C27.4793 14.6408 27.5113 13.9209 27.4793 13.217C27.4153 12.1132 26.7274 11.4093 25.7836 11.4573C24.7437 11.5053 24.1678 12.1452 24.1358 13.153C24.0718 14.6888 24.0558 16.2406 24.1358 17.7924C24.1838 18.7522 24.7277 19.4561 25.8156 19.4241C26.8874 19.3921 27.3673 18.7202 27.4473 17.7444C27.5113 16.9605 27.4633 16.1606 27.4633 15.3607ZM53.2516 15.3927H53.2676C53.2676 16.1446 53.2356 16.9125 53.2676 17.6644C53.3156 18.6403 53.7476 19.3442 54.8194 19.4401C55.7633 19.5201 56.5472 18.8322 56.5951 17.7604C56.6591 16.2086 56.6591 14.6568 56.5951 13.105C56.5472 12.1132 55.9552 11.4573 54.9154 11.4573C53.8755 11.4733 53.3156 12.1132 53.2516 13.121C53.2196 13.8729 53.2516 14.6408 53.2516 15.3927ZM33.8304 15.5207C33.8464 15.5207 33.8624 15.5207 33.8784 15.5207C33.8784 16.2406 33.8624 16.9605 33.8784 17.6644C33.8944 18.6722 34.3263 19.3601 35.3982 19.4241C36.486 19.5041 37.0619 18.8162 37.1259 17.8564C37.2379 16.2726 37.2539 14.6728 37.1739 13.089C37.1259 12.1132 36.534 11.4253 35.4782 11.4413C34.4223 11.4573 33.8944 12.1132 33.8304 13.121C33.7984 13.9209 33.8304 14.7208 33.8304 15.5207ZM46.8365 15.5367C46.8525 15.5367 46.8685 15.5367 46.8845 15.5367C46.8845 14.7048 46.9325 13.8569 46.8685 13.0411C46.7886 12.0812 46.2446 11.4733 45.2528 11.4413C44.2609 11.4093 43.605 12.0332 43.557 12.9451C43.477 14.6408 43.509 16.3686 43.637 18.0643C43.717 19.0082 44.4049 19.5361 45.3968 19.4241C46.3406 19.3122 46.7885 18.7202 46.8205 17.8084C46.8685 17.0565 46.8365 16.3046 46.8365 15.5367Z" fill="white"/>
<path d="M50.4845 52.8914C50.4845 52.0595 50.4845 51.3716 50.4845 50.6197C43.7335 50.6197 37.0624 50.6197 30.2794 50.6197C30.2794 51.3236 30.2794 52.0115 30.2794 52.8914C31.6232 52.8914 32.999 52.8914 34.3748 52.8914C36.5185 52.9074 37.3984 53.7873 37.4144 55.947C37.4304 57.0668 37.4464 58.1706 37.3984 59.2905C37.3184 60.8902 36.4385 61.8341 34.8387 61.8501C31.2553 61.8981 27.6718 61.8981 24.0883 61.8501C22.4405 61.8341 21.5446 60.8582 21.4967 59.1945C21.4647 57.9627 21.4647 56.7308 21.4967 55.499C21.5446 53.8672 22.5045 52.9234 24.1363 52.8914C25.6081 52.8594 27.0639 52.8914 28.7116 52.8914C28.7116 52.3475 28.7116 51.8835 28.7116 51.4196C28.7116 49.0999 28.7116 49.0999 31.0793 49.0999C33.8629 49.0999 36.6465 49.0999 39.5261 49.0999C39.5261 48.316 39.5261 47.5802 39.5261 46.6523C38.1503 46.6523 36.7425 46.6523 35.3187 46.6523C33.255 46.6363 32.4231 45.8044 32.4071 43.7567C32.3911 42.5569 32.3751 41.373 32.4231 40.1732C32.4711 38.6854 33.319 37.7576 34.8067 37.7416C38.5022 37.6936 42.2137 37.6936 45.9092 37.7416C47.3169 37.7576 48.1808 38.6854 48.2288 40.1092C48.2768 41.469 48.2608 42.8128 48.2288 44.1726C48.1968 45.6924 47.269 46.6043 45.7492 46.6363C44.2454 46.6683 42.7256 46.6363 41.1258 46.6363C41.1258 47.4202 41.1258 48.1561 41.1258 49.0839C41.6698 49.0839 42.2457 49.0839 42.8216 49.0839C45.4132 49.0839 48.0048 49.1159 50.5805 49.0679C51.5403 49.0519 51.9883 49.4039 51.9403 50.3797C51.8923 51.1636 51.9243 51.9475 51.9243 52.8594C53.4441 52.8594 54.8199 52.8594 56.2117 52.8594C58.2274 52.8754 59.1393 53.7713 59.1552 55.771C59.1712 56.9228 59.1872 58.0746 59.1552 59.2265C59.1073 60.8103 58.2114 61.7861 56.6276 61.8181C53.0121 61.8661 49.3807 61.8661 45.7652 61.8181C44.2294 61.8021 43.3495 60.8582 43.2695 59.3225C43.2055 58.0586 43.2215 56.7788 43.2695 55.499C43.3335 53.7873 44.2774 52.8914 46.0051 52.8594C47.5089 52.8754 48.9647 52.8914 50.4845 52.8914ZM29.6075 54.3312C27.8957 54.3312 26.184 54.3632 24.4722 54.3152C23.3364 54.2832 22.8885 54.7791 22.9204 55.899C22.9684 56.9388 22.9524 57.9627 22.9204 59.0025C22.8885 60.0104 23.3524 60.4583 24.3442 60.4583C27.7678 60.4423 31.1913 60.4423 34.5988 60.4583C35.5586 60.4583 35.9746 59.9944 35.9586 59.0665C35.9426 57.9947 35.9426 56.9228 35.9586 55.851C35.9746 54.8111 35.5426 54.3152 34.4708 54.3312C32.871 54.3632 31.2393 54.3312 29.6075 54.3312ZM51.2524 60.4423C52.9641 60.4423 54.6759 60.4263 56.3876 60.4423C57.2995 60.4423 57.8114 60.0584 57.7954 59.0985C57.7794 57.9467 57.7954 56.7948 57.7954 55.643C57.7954 54.7631 57.3795 54.3312 56.4836 54.3312C53.0281 54.3312 49.5566 54.3472 46.1011 54.3312C45.1253 54.3312 44.7413 54.8111 44.7413 55.739C44.7413 56.8108 44.7733 57.8827 44.7413 58.9545C44.7093 60.0104 45.1733 60.4743 46.2451 60.4583C47.9089 60.4263 49.5726 60.4423 51.2524 60.4423ZM40.326 45.2285C42.0377 45.2285 43.7495 45.1965 45.4452 45.2445C46.4691 45.2605 46.885 44.8125 46.853 43.8047C46.821 42.7009 46.821 41.581 46.853 40.4612C46.869 39.5653 46.4691 39.1494 45.5732 39.1494C42.0857 39.1654 38.5822 39.1494 35.0947 39.1494C34.2468 39.1494 33.8629 39.5493 33.8789 40.3972C33.8949 41.549 33.9109 42.7009 33.8789 43.8527C33.8469 44.8925 34.3428 45.2605 35.3347 45.2285C36.9984 45.2125 38.6622 45.2285 40.326 45.2285Z" fill="white"/>
<path d="M40.4053 24.9113C36.9818 24.9113 33.5583 24.9113 30.1348 24.9113C29.5909 24.9113 28.903 25.0392 28.887 24.2074C28.871 23.3755 29.5749 23.4875 30.1188 23.4875C36.9658 23.4875 43.8128 23.4875 50.6439 23.4875C51.2038 23.4875 51.9237 23.4235 51.7957 24.2394C51.7477 24.5113 51.0598 24.8793 50.6599 24.8793C47.2524 24.9273 43.8288 24.9113 40.4053 24.9113Z" fill="white"/>
<path d="M40.3406 30.8786C38.5009 30.8786 36.6771 30.9266 34.8374 30.8466C34.4374 30.8306 34.0695 30.3987 33.6855 30.1587C34.0695 29.9187 34.4534 29.4868 34.8374 29.4708C38.5489 29.4228 42.2443 29.4228 45.9558 29.4708C46.3237 29.4708 46.6757 29.8867 47.0436 30.0947C46.6757 30.3507 46.3237 30.8146 45.9558 30.8306C44.0841 30.9266 42.2123 30.8786 40.3406 30.8786Z" fill="white"/>
<path d="M19.8796 42.2048C19.3517 42.7488 19.0158 43.1007 18.6958 43.4367C18.4718 43.0367 18.0879 42.6208 18.0879 42.2208C18.0879 41.8049 18.4718 41.405 18.6798 40.989C19.0158 41.325 19.3517 41.6609 19.8796 42.2048Z" fill="white"/>
</svg>
