<svg width="63" height="63" viewBox="0 0 63 63" fill="none" xmlns="http://www.w3.org/2000/svg">
<g clip-path="url(#clip0_586_30758)">
<path d="M59.4456 46.7996C59.302 46.7996 59.1986 46.7996 59.0953 46.7996C56.6805 46.7996 54.2657 46.8028 51.8503 46.7939C51.621 46.7933 51.5076 46.8582 51.3992 47.0705C50.95 47.9462 50.4851 48.8144 49.9962 49.6674C49.8564 49.9106 49.8356 50.1021 49.9244 50.3642C50.5424 52.1861 51.1498 54.0125 51.7495 55.8407C52.1924 57.1921 51.2537 58.4269 49.8595 58.3324C49.6541 58.3185 49.4488 58.2549 49.2509 58.19C47.4328 57.5903 45.6152 56.9886 43.8014 56.3769C43.5923 56.3063 43.4341 56.3189 43.247 56.4386C41.4893 57.5613 39.6069 58.4124 37.6035 58.9933C35.2668 59.6711 32.8772 59.9572 30.453 59.8356C26.1734 59.6201 22.2649 58.2877 18.7753 55.7815C15.985 53.7775 13.7719 51.2625 12.1654 48.2222C12.0324 47.9701 11.8894 47.8662 11.5927 47.8712C10.4171 47.8914 9.2409 47.8794 8.06469 47.8794C7.95129 47.8794 7.83789 47.8794 7.70496 47.8794C7.70496 49.7896 7.70496 51.6739 7.70496 53.5822C8.3463 53.7151 8.86164 54.0446 9.1905 54.6255C9.43746 55.0614 9.51684 55.5346 9.41793 56.0234C9.21192 57.039 8.33622 57.7339 7.32192 57.7068C6.35361 57.681 5.49933 56.9162 5.34435 55.9957C5.18811 55.0703 5.66502 53.9098 7.06866 53.5709C7.06866 53.4562 7.06866 53.3321 7.06866 53.2086C7.06866 51.4131 7.06866 49.6176 7.06929 47.8227C7.06929 47.3351 7.14993 47.2551 7.63251 47.2551C8.86101 47.2545 10.0895 47.2551 11.318 47.2551C11.4201 47.2551 11.5228 47.2551 11.6746 47.2551C10.7894 45.3273 10.1884 43.3541 9.86964 41.2625C9.1653 41.2625 8.47545 41.2562 7.78623 41.2733C7.72512 41.2745 7.64007 41.4194 7.61298 41.5114C7.35468 42.389 6.52749 43.0234 5.6247 43.0265C4.71309 43.0291 3.8985 42.4154 3.6339 41.5271C3.3063 40.4259 3.93819 39.2774 5.04951 38.9567C6.13248 38.6436 7.30239 39.2825 7.59534 40.3749C7.65708 40.6048 7.74969 40.6458 7.95633 40.642C8.55168 40.6306 9.14703 40.6382 9.77892 40.6382C9.54771 38.5718 9.57228 36.5457 9.90051 34.4781C9.74805 34.4781 9.62709 34.4781 9.50613 34.4781C7.49013 34.4781 5.47413 34.4781 3.45813 34.4768C2.99004 34.4762 2.95098 34.4365 2.95098 33.9728C2.95035 31.7785 2.94783 29.5842 2.95413 27.3893C2.95476 27.1701 2.9094 27.0718 2.66874 27.0056C1.82895 26.7732 1.07862 25.9554 1.19328 24.7635C1.27707 23.8941 2.04315 23.1198 2.96736 22.985C4.08687 22.8218 5.06274 23.5816 5.2782 24.606C5.50311 25.6763 4.85358 26.731 3.80337 27.0176C3.63516 27.0636 3.55263 27.1127 3.55326 27.3017C3.5583 29.423 3.55641 31.5435 3.5583 33.6647C3.5583 33.7246 3.57531 33.7851 3.58602 33.8607C5.72739 33.8607 7.85427 33.8607 9.9528 33.8607C10.2268 32.888 10.4965 31.9329 10.7655 30.9778C10.7743 30.9476 10.7737 30.9129 10.7894 30.8871C11.2071 30.1897 11.0351 29.5515 10.746 28.8289C9.80097 26.467 9.41793 23.9942 9.49794 21.4459C9.58047 18.8232 10.1758 16.3259 11.2915 13.9571C11.6166 13.2672 12.0167 12.612 12.4003 11.9505C12.51 11.7615 12.5314 11.6028 12.4615 11.3961C11.9278 9.82176 11.4005 8.2455 10.8795 6.66735C10.6263 5.90064 10.8518 5.16606 11.4724 4.74396C11.9669 4.40754 12.5011 4.38738 13.0625 4.57575C14.6192 5.09802 16.181 5.60643 17.7364 6.13185C17.9349 6.19863 18.0811 6.18855 18.2593 6.07452C20.4877 4.65009 22.9138 3.72084 25.5289 3.36111C31.008 2.607 35.9617 3.9111 40.2854 7.38051C43.7195 10.1355 45.8672 13.7234 46.8424 18.0092C47.1738 19.4652 47.3206 20.9469 47.2639 22.4426C47.2545 22.6914 47.3143 22.8804 47.4857 23.0625C49.0084 24.6772 50.2438 26.4897 51.209 28.4874C51.8251 29.7632 52.3146 31.0862 52.6611 32.4596C52.7216 32.6989 52.8098 32.7985 53.0788 32.7897C53.8102 32.7664 54.5436 32.7815 55.2933 32.7815C55.3008 32.6586 55.3109 32.5673 55.3109 32.4753C55.3115 30.7743 55.3084 29.0733 55.3159 27.3723C55.3166 27.1638 55.2756 27.0693 55.0469 27.0107C54.0856 26.7631 53.4763 25.8439 53.5538 24.8101C53.6231 23.8865 54.3898 23.1154 55.3474 22.9825C56.431 22.8319 57.3981 23.5589 57.6325 24.5594C57.8775 25.607 57.2734 26.6888 56.2439 26.988C55.9592 27.0712 55.9239 27.1972 55.9252 27.4435C55.9327 29.2283 55.9296 31.0131 55.9296 32.7985C55.9296 33.3308 55.8659 33.3945 55.3386 33.3945C54.5423 33.3945 53.746 33.3945 52.8955 33.3945C53.3214 35.3815 53.4417 37.361 53.3396 39.3814C53.4568 39.3927 53.5456 39.4078 53.6351 39.4085C54.0339 39.411 54.4346 39.387 54.8315 39.416C55.1799 39.4412 55.3411 39.3511 55.464 38.9838C55.7872 38.0168 56.7927 37.4914 57.807 37.6829C58.7274 37.8568 59.4664 38.7633 59.4645 39.7172C59.4626 40.7081 58.6663 41.6374 57.7099 41.764C56.6566 41.9039 55.6782 41.2947 55.4073 40.2942C55.3424 40.0542 55.241 40.0051 55.0224 40.0101C54.4573 40.0221 53.8915 40.0139 53.2886 40.0139C53.0769 42.1338 52.5962 44.1731 51.7892 46.181C51.953 46.181 52.0639 46.181 52.1748 46.181C54.6211 46.181 57.0673 46.181 59.5143 46.181C60.0076 46.181 60.0485 46.2219 60.0485 46.724C60.0491 48.9082 60.051 51.0918 60.0441 53.276C60.0435 53.4971 60.0951 53.5986 60.3276 53.6647C61.3476 53.957 61.936 54.8945 61.7986 55.9617C61.6796 56.8872 60.8152 57.6602 59.8488 57.7062C58.8565 57.7534 57.9512 57.0655 57.7251 56.0921C57.4813 55.0425 58.1056 53.9696 59.1665 53.6647C59.4002 53.5973 59.4513 53.4959 59.4506 53.276C59.4437 51.2285 59.4469 49.1816 59.4475 47.1341C59.4456 47.0308 59.4456 46.9288 59.4456 46.7996ZM31.095 16.6913C30.6055 16.7316 29.726 16.7864 28.8509 16.8815C26.8809 17.0945 24.9865 17.6105 23.1702 18.3961C18.8749 20.2533 15.5132 23.1954 13.1507 27.2299C10.7497 31.33 9.84255 35.7652 10.3862 40.4927C10.6729 42.9837 11.3728 45.3519 12.5188 47.5789C14.8882 52.1823 18.4628 55.5119 23.2105 57.5726C25.1938 58.4332 27.2746 58.9454 29.4242 59.1457C30.8883 59.2824 32.3556 59.2717 33.8229 59.1079C35.2328 58.9504 36.6112 58.6657 37.962 58.2398C39.7801 57.6665 41.4862 56.8544 43.082 55.813C43.3239 55.6549 43.5381 55.6417 43.8134 55.7349C45.6958 56.3725 47.5821 57.0006 49.4752 57.606C49.7593 57.6967 50.109 57.7301 50.3912 57.6539C51.1277 57.4548 51.4118 56.7479 51.1397 55.9308C50.509 54.0358 49.879 52.1401 49.2409 50.2476C49.1653 50.0227 49.1615 49.8375 49.2969 49.6283C51.2329 46.649 52.3732 43.3938 52.6825 39.8482C52.886 37.5191 52.7279 35.219 52.1628 32.9516C51.0187 28.357 48.6209 24.5348 44.9707 21.5291C41.0641 18.3104 36.5382 16.7537 31.095 16.6913Z" fill="#4949FC"/>
<path d="M41.0687 33.0253C41.3995 33.0253 41.6848 32.9982 41.9633 33.0297C43.2655 33.1797 44.1425 34.1247 44.1532 35.4395C44.1702 37.5915 44.2105 39.7461 44.1381 41.8963C44.0184 45.459 42.6406 48.4849 39.9952 50.8902C37.3045 53.3378 34.1078 54.4377 30.4929 54.1568C27.1911 53.9004 24.4021 52.5005 22.1548 50.0511C20.4186 48.1579 19.3891 45.9246 18.9878 43.4001C18.8896 42.7815 18.8543 42.1471 18.8492 41.5196C18.8322 39.525 18.8373 37.5298 18.8455 35.5352C18.8499 34.5209 19.2499 33.7126 20.1968 33.271C20.5194 33.1204 20.8974 33.0801 21.2552 33.0203C21.4587 32.9862 21.6723 33.014 21.9268 33.014C21.9268 32.8773 21.9211 32.7557 21.9274 32.6347C21.9866 31.5889 21.9526 30.5274 22.1278 29.5011C22.5272 27.165 23.738 25.2757 25.5852 23.7996C26.9951 22.6731 28.6092 22.0028 30.399 21.8119C32.9335 21.5417 35.2525 22.1446 37.2837 23.707C39.3557 25.3009 40.6019 27.395 40.9503 29.9975C41.0252 30.557 41.041 31.1252 41.0643 31.6903C41.0826 32.1181 41.0687 32.5471 41.0687 33.0253ZM26.149 32.9907C29.7363 32.9907 33.2876 32.9907 36.8553 32.9907C36.8553 32.4539 36.8578 31.9411 36.8546 31.4276C36.8458 29.777 36.2454 28.3923 35.0119 27.2816C32.2997 24.8403 27.8122 25.9479 26.5157 29.365C26.069 30.5431 26.1604 31.754 26.149 32.9907ZM33.493 47.0976C33.4678 46.959 33.4558 46.8664 33.4337 46.7763C33.1987 45.8332 32.9669 44.8895 32.7237 43.9482C32.6519 43.671 32.696 43.4852 32.9606 43.3157C33.9566 42.6756 34.409 41.7678 34.2874 40.5696C34.1406 39.1206 32.7647 37.8423 30.9975 38.1403C29.8711 38.3305 28.9418 39.2604 28.7396 40.3257C28.5097 41.5372 28.9595 42.6215 29.9914 43.2786C30.2743 43.4587 30.3619 43.6521 30.2737 43.9823C30.0021 44.9991 29.7564 46.0235 29.4893 47.0919C30.84 47.5789 32.1536 47.5808 33.493 47.0976Z" fill="#4949FC"/>
</g>
<defs>
<clipPath id="clip0_586_30758">
<rect width="63" height="63" fill="white"/>
</clipPath>
</defs>
</svg>
