<svg width="20" height="20" viewBox="0 0 20 20" fill="none" xmlns="http://www.w3.org/2000/svg">
<g clip-path="url(#clip0_586_44523)">
<path d="M17.776 2.22217H2.22049C1.9258 2.22217 1.64319 2.33923 1.43481 2.5476C1.22644 2.75598 1.10938 3.03859 1.10938 3.33328V16.6666C1.10938 16.9613 1.22644 17.2439 1.43481 17.4523C1.64319 17.6607 1.9258 17.7777 2.22049 17.7777H17.776C18.0707 17.7777 18.3533 17.6607 18.5617 17.4523C18.7701 17.2439 18.8872 16.9613 18.8872 16.6666V3.33328C18.8872 3.03859 18.7701 2.75598 18.5617 2.5476C18.3533 2.33923 18.0707 2.22217 17.776 2.22217ZM17.776 5.66661H2.22049V3.33328H17.776V5.66661Z" fill="white"/>
<path d="M2.77734 3.88867H3.88845V4.99978H2.77734V3.88867Z" fill="white"/>
<path d="M5 3.88892H6.11111V5.00003H5V3.88892Z" fill="white"/>
<path d="M7.22266 3.88867H8.33377V4.99978H7.22266V3.88867Z" fill="white"/>
</g>
<defs>
<clipPath id="clip0_586_44523">
<rect width="20" height="20" fill="white"/>
</clipPath>
</defs>
</svg>
