<svg width="23" height="24" viewBox="0 0 23 24" fill="none" xmlns="http://www.w3.org/2000/svg">
<path d="M11 13V2L19 6L11 10" stroke="white" stroke-width="2" stroke-linecap="round" stroke-linejoin="round"/>
<path d="M19.5607 10.2219C20.0928 11.862 20.1426 13.6205 19.7041 15.2881C19.2656 16.9558 18.3573 18.4623 17.0872 19.6286C15.8172 20.7948 14.2388 21.5717 12.5399 21.8667C10.841 22.1617 9.09316 21.9625 7.50424 21.2928C5.91532 20.623 4.55224 19.5109 3.57717 18.0888C2.6021 16.6666 2.05609 14.9943 2.00409 13.2708C1.9521 11.5473 2.39631 9.8451 3.28388 8.36677C4.17145 6.88844 5.46502 5.6962 7.01068 4.93188" stroke="white" stroke-width="2" stroke-linecap="round" stroke-linejoin="round"/>
<path d="M7.00238 9.99707C6.50129 10.6641 6.17506 11.4459 6.05343 12.2713C5.93179 13.0966 6.01862 13.9393 6.30599 14.7225C6.59336 15.5057 7.07214 16.2046 7.69871 16.7554C8.32529 17.3063 9.07973 17.6916 9.89332 17.8762C10.7069 18.0609 11.5538 18.039 12.3567 17.8127C13.1597 17.5863 13.8933 17.1626 14.4906 16.5802C15.0879 15.9977 15.53 15.2751 15.7766 14.4781C16.0232 13.6811 16.0664 12.8351 15.9024 12.0171" stroke="white" stroke-width="2" stroke-linecap="round" stroke-linejoin="round"/>
</svg>
