<svg width="24" height="24" viewBox="0 0 24 24" fill="none" xmlns="http://www.w3.org/2000/svg">
<g clip-path="url(#clip0_586_44514)">
<path d="M5.33203 12.6668V7.3335H3.33203C2.8016 7.3335 2.29289 7.54421 1.91782 7.91928C1.54274 8.29436 1.33203 8.80306 1.33203 9.3335V21.3335C1.33302 21.4573 1.36848 21.5784 1.43442 21.6832C1.50036 21.788 1.59418 21.8724 1.70536 21.9268C1.81248 21.9755 1.93059 21.995 2.04768 21.9833C2.16477 21.9716 2.27668 21.9291 2.37203 21.8602L5.80536 19.3335H14.7654C15.018 19.341 15.2696 19.2965 15.5043 19.2028C15.7391 19.1091 15.9522 18.9682 16.1303 18.7889C16.3084 18.6095 16.4478 18.3955 16.5398 18.16C16.6319 17.9246 16.6746 17.6728 16.6654 17.4202V16.6668H9.33203C8.27117 16.6668 7.25375 16.2454 6.5036 15.4953C5.75346 14.7451 5.33203 13.7277 5.33203 12.6668Z" fill="white"/>
<path d="M20.6654 2.6665H9.33203C8.8016 2.6665 8.29289 2.87722 7.91782 3.25229C7.54274 3.62736 7.33203 4.13607 7.33203 4.6665V12.6665C7.33203 13.1969 7.54274 13.7056 7.91782 14.0807C8.29289 14.4558 8.8016 14.6665 9.33203 14.6665H18.3654L21.552 17.1398C21.6468 17.2099 21.7584 17.2536 21.8755 17.2664C21.9926 17.2793 22.111 17.2609 22.2187 17.2132C22.3321 17.1591 22.428 17.0741 22.4952 16.968C22.5625 16.8618 22.5983 16.7388 22.5987 16.6132V4.6665C22.599 4.14742 22.3974 3.64856 22.0367 3.27535C21.6759 2.90213 21.1842 2.68381 20.6654 2.6665Z" fill="white"/>
</g>
<defs>
<clipPath id="clip0_586_44514">
<rect width="24" height="24" fill="white"/>
</clipPath>
</defs>
</svg>
