<svg width="24" height="24" viewBox="0 0 24 24" fill="none" xmlns="http://www.w3.org/2000/svg">
<g clip-path="url(#clip0_586_44532)">
<path d="M8.46521 6.70677C8.27774 6.51924 8.17242 6.26493 8.17242 5.99977C8.17242 5.7346 8.27774 5.4803 8.46521 5.29277L11.2232 2.53477C11.3254 2.43257 11.4466 2.3515 11.5801 2.29618C11.7136 2.24087 11.8567 2.2124 12.0012 2.2124C12.1457 2.2124 12.2888 2.24087 12.4223 2.29618C12.5558 2.3515 12.6771 2.43257 12.7792 2.53477L15.5362 5.29277C15.6317 5.38501 15.7079 5.49536 15.7603 5.61736C15.8127 5.73937 15.8403 5.87059 15.8415 6.00337C15.8426 6.13615 15.8173 6.26783 15.767 6.39072C15.7168 6.51362 15.6425 6.62527 15.5486 6.71916C15.4547 6.81306 15.3431 6.88731 15.2202 6.93759C15.0973 6.98787 14.9656 7.01317 14.8328 7.01202C14.7 7.01086 14.5688 6.98328 14.4468 6.93087C14.3248 6.87846 14.2145 6.80228 14.1222 6.70677L13.0012 5.58577V10.9998H18.4152L17.2942 9.87877C17.1066 9.69126 17.0011 9.43689 17.001 9.17162C17.0009 8.90635 17.1062 8.65191 17.2937 8.46427C17.4812 8.27663 17.7356 8.17116 18.0009 8.17106C18.2661 8.17097 18.5206 8.27626 18.7082 8.46377L21.4662 11.2218C21.5684 11.3239 21.6495 11.4452 21.7048 11.5787C21.7601 11.7122 21.7886 11.8553 21.7886 11.9998C21.7886 12.1443 21.7601 12.2873 21.7048 12.4208C21.6495 12.5543 21.5684 12.6756 21.4662 12.7778L18.7082 15.5358C18.5206 15.7233 18.2661 15.8286 18.0009 15.8285C17.7356 15.8284 17.4812 15.7229 17.2937 15.5353C17.1062 15.3476 17.0009 15.0932 17.001 14.8279C17.0011 14.5626 17.1066 14.3083 17.2942 14.1208L18.4152 12.9998H13.0012V18.4138L14.1222 17.2928C14.3108 17.1106 14.5634 17.0098 14.8256 17.0121C15.0878 17.0144 15.3386 17.1195 15.524 17.3049C15.7094 17.4904 15.8146 17.7412 15.8169 18.0034C15.8192 18.2656 15.7184 18.5182 15.5362 18.7068L12.7792 21.4648C12.6771 21.567 12.5558 21.648 12.4223 21.7034C12.2888 21.7587 12.1457 21.7871 12.0012 21.7871C11.8567 21.7871 11.7136 21.7587 11.5801 21.7034C11.4466 21.648 11.3254 21.567 11.2232 21.4648L8.46521 18.7068C8.37236 18.6139 8.29873 18.5036 8.24851 18.3822C8.19829 18.2608 8.17246 18.1308 8.17251 17.9994C8.17255 17.8681 8.19847 17.738 8.24878 17.6167C8.29909 17.4953 8.3728 17.3851 8.46571 17.2923C8.55862 17.1994 8.66891 17.1258 8.79027 17.0756C8.91164 17.0253 9.04171 16.9995 9.17306 16.9996C9.30441 16.9996 9.43446 17.0255 9.5558 17.0758C9.67713 17.1261 9.78736 17.1999 9.88021 17.2928L11.0002 18.4138V12.9998H5.58821L6.70921 14.1208C6.80212 14.2136 6.87583 14.3238 6.92614 14.4452C6.97645 14.5665 7.00237 14.6966 7.00241 14.8279C7.00246 14.9593 6.97663 15.0893 6.92641 15.2107C6.87619 15.3321 6.80255 15.4424 6.70971 15.5353C6.61686 15.6282 6.50663 15.7019 6.3853 15.7522C6.26396 15.8025 6.13391 15.8284 6.00256 15.8285C5.87121 15.8285 5.74114 15.8027 5.61977 15.7525C5.49841 15.7022 5.38812 15.6286 5.29521 15.5358L2.53721 12.7778C2.43501 12.6756 2.35394 12.5543 2.29863 12.4208C2.24331 12.2873 2.21484 12.1443 2.21484 11.9998C2.21484 11.8553 2.24331 11.7122 2.29863 11.5787C2.35394 11.4452 2.43501 11.3239 2.53721 11.2218L5.29521 8.46377C5.48298 8.27639 5.7375 8.17128 6.00277 8.17157C6.26804 8.17185 6.52233 8.27749 6.70971 8.46527C6.89708 8.65304 7.00219 8.90756 7.00191 9.17283C7.00163 9.4381 6.89598 9.69239 6.70821 9.87977L5.58721 10.9998H11.0012V5.58677L9.88021 6.70677C9.78734 6.79974 9.67705 6.8735 9.55565 6.92383C9.43425 6.97415 9.30412 7.00005 9.17271 7.00005C9.04129 7.00005 8.91117 6.97415 8.78977 6.92383C8.66837 6.8735 8.55808 6.79974 8.46521 6.70677Z" fill="white"/>
</g>
<defs>
<clipPath id="clip0_586_44532">
<rect width="24" height="24" fill="white"/>
</clipPath>
</defs>
</svg>
