<svg width="61" height="63" viewBox="0 0 61 63" fill="none" xmlns="http://www.w3.org/2000/svg">
<g clip-path="url(#clip0_586_30773)">
<path d="M29.436 39.797C27.2002 39.7778 24.9813 39.9176 22.8818 40.7006C21.8714 41.0776 20.8976 41.6083 20.0024 42.2061C19.0918 42.8135 18.6646 43.7364 18.6913 44.8607C18.7292 46.428 18.7011 47.998 18.7011 49.6585C19.0061 49.6585 19.2309 49.6585 19.4572 49.6585C22.1216 49.6585 24.7846 49.6475 27.449 49.6694C27.9113 49.6735 28.153 49.5556 28.3287 49.1168C28.7868 47.9719 29.3292 46.8599 29.7817 45.7136C29.8745 45.4777 29.8182 45.087 29.6679 44.8772C28.9863 43.9311 28.2471 43.0233 27.4532 42.0059C29.7775 42.0059 31.9725 42.0059 34.3151 42.0059C33.5324 43.0041 32.8438 43.916 32.1173 44.7963C31.8489 45.1212 31.7941 45.3859 31.9739 45.7753C32.5023 46.9161 32.9717 48.083 33.5043 49.221C33.5942 49.4144 33.8879 49.6406 34.0903 49.642C36.9879 49.6667 39.8856 49.6571 42.7819 49.6516C42.8479 49.6516 42.9126 49.6187 43.0812 49.5734C43.0812 49.0071 43.0812 48.4217 43.0812 47.8362C43.0812 46.901 43.0475 45.9645 43.0896 45.0321C43.1486 43.7213 42.5725 42.7505 41.5256 41.9991C39.8392 40.7883 37.8929 40.2563 35.8595 40.0095C34.6833 39.8669 33.4916 39.8491 32.1327 39.7641C34.0551 39.2266 35.5208 38.2873 36.4567 36.6858C37.3842 35.0979 37.5711 33.4141 37.0217 31.6741C36.1518 28.9167 33.4818 27.1342 30.4942 27.2781C27.6204 27.4166 25.1373 29.531 24.5569 32.335C23.8936 35.5285 25.4844 37.9445 29.436 39.797Z" fill="white"/>
<path d="M46.0752 31.9484C47.4678 31.1339 48.8604 30.3194 50.291 29.483C48.6314 26.801 46.5277 24.6044 43.949 22.8438C34.247 16.2183 21.2778 17.7732 13.5657 26.5405C10.0272 30.5635 8.26639 35.2844 8.23407 40.5936C8.22985 41.2216 8.07386 41.511 7.40074 41.526C6.9637 41.5356 6.52806 41.6714 6.09243 41.7468C5.68069 41.8181 5.26754 41.8839 4.65906 41.9854C7.15482 44.1834 9.54519 46.2881 12.0157 48.4628C13.5797 45.6368 15.1129 42.8643 16.7205 39.9588C15.4895 40.159 14.4032 40.3359 13.3183 40.5114C12.3262 35.6547 17.1421 28.2627 23.0049 25.3955C30.398 21.7797 40.9319 23.7131 46.0752 31.9484Z" fill="white"/>
<path d="M15.6684 49.7999C14.2462 50.6349 12.8719 51.4425 11.4989 52.2502C15.4801 59.0951 24.1197 64.1821 34.0957 62.7616C39.7435 61.9567 44.4905 59.4461 48.192 55.1817C51.8738 50.9393 53.591 45.9866 53.5306 40.3758C54.6646 40.1742 55.779 39.9754 57.0508 39.7492C54.5677 37.5635 52.1731 35.4574 49.7096 33.2896C48.1357 36.1361 46.6124 38.8908 45.0174 41.7744C46.2499 41.581 47.339 41.4096 48.4266 41.2396C49.319 46.4528 44.3837 53.8243 38.2693 56.5598C30.7596 59.9178 20.792 57.9337 15.6684 49.7999Z" fill="white"/>
<path d="M17.8942 16.0044C17.8942 14.7237 17.9336 13.5184 17.8802 12.3159C17.8465 11.5494 17.2829 11.0462 16.6829 10.6308C15.4322 9.76417 13.9946 9.38299 12.4966 9.21022C11.6942 9.11698 10.8833 9.08681 10.0416 9.02648C13.0067 7.55247 14.0972 5.74937 13.4775 3.38684C12.9421 1.34516 11.0632 -0.034243 8.86959 0.00140756C6.73217 0.0370581 4.88564 1.50833 4.4486 3.52533C3.92584 5.93722 5.01914 7.67724 7.87044 8.99357C6.78276 9.10875 5.65152 9.11287 4.58632 9.37339C3.47194 9.64625 2.37724 10.0823 1.3556 10.6006C0.404236 11.0819 -0.0426426 11.9526 0.000921249 13.0468C0.0402679 14.0203 0.00935173 14.9952 0.00935173 16.0058C6.00705 16.0044 11.9078 16.0044 17.8942 16.0044Z" fill="white"/>
<path d="M43.122 16.0018C49.145 16.0018 55.0444 16.0018 60.9507 16.0018C60.9507 14.6937 61.0955 13.4021 60.8889 12.1666C60.7863 11.5578 60.13 10.9161 59.5567 10.5253C57.935 9.41743 56.0224 9.17611 54.093 9.08561C53.8133 9.0719 53.5323 9.07464 53.2526 9.0623C53.2203 9.06093 53.188 9.01842 53.1557 8.99511C55.9873 7.75557 57.1424 5.88529 56.5831 3.44871C56.1081 1.38646 54.1281 -0.0656125 51.8839 0.00568858C49.7198 0.0728761 47.8648 1.6223 47.5093 3.66261C47.0863 6.08685 48.3103 7.9681 51.111 9.01294C50.1709 9.08287 49.3811 9.11715 48.5984 9.2049C47.1706 9.36259 45.8033 9.72046 44.5751 10.4828C43.6026 11.0862 43.0307 11.8883 43.1094 13.084C43.1712 14.0314 43.122 14.9871 43.122 16.0018Z" fill="white"/>
<path d="M29.3337 8.93061C27.9593 9.14726 26.4838 9.33785 25.0307 9.62991C24.4279 9.75058 23.8461 10.044 23.2952 10.3333C22.1148 10.9531 21.4332 11.8622 21.5527 13.2622C21.6271 14.1424 21.5667 15.0351 21.5667 15.9812C27.5237 15.9812 33.4441 15.9812 39.3912 15.9812C39.3912 14.6937 39.4881 13.3787 39.3574 12.0843C39.2703 11.2191 38.4679 10.7269 37.7259 10.3169C36.1633 9.45303 34.4446 9.17331 32.6796 9.09104C32.3184 9.07459 31.9545 9.0883 31.3896 9.0883C34.4067 7.76511 35.6194 5.85095 35.0545 3.53367C34.5247 1.35899 32.6234 -0.0697792 30.3581 0.00289305C28.1645 0.072823 26.3011 1.61402 25.9484 3.70918C25.642 5.54107 26.3025 7.96805 29.3337 8.93061Z" fill="white"/>
<path d="M52.382 20.5773C53.3797 20.58 54.1765 19.8176 54.1835 18.8551C54.1906 17.9035 53.3783 17.126 52.3876 17.1329C51.4124 17.1397 50.6071 17.9419 50.6212 18.8921C50.6352 19.8162 51.4278 20.5745 52.382 20.5773Z" fill="white"/>
<path d="M9.40176 20.5787C10.3489 20.5677 11.1373 19.7917 11.1387 18.8702C11.1387 17.9186 10.3335 17.1412 9.34695 17.1384C8.36748 17.1371 7.5468 17.9406 7.56928 18.8812C7.58896 19.8287 8.40964 20.5897 9.40176 20.5787Z" fill="white"/>
<path d="M48.8084 20.9681C47.8247 20.9777 47.0574 21.7579 47.0686 22.7356C47.0799 23.6817 47.8471 24.4344 48.8055 24.4372C49.823 24.4413 50.6015 23.6446 50.5776 22.6245C50.5551 21.6798 49.785 20.9585 48.8084 20.9681Z" fill="white"/>
<path d="M11.1683 22.6917C11.1669 23.6446 11.9524 24.4234 12.9291 24.4385C13.9002 24.4536 14.6983 23.6775 14.7012 22.7136C14.7054 21.7593 13.9198 20.9845 12.9404 20.9749C11.9567 20.9653 11.1697 21.7277 11.1683 22.6917Z" fill="white"/>
</g>
<defs>
<clipPath id="clip0_586_30773">
<rect width="61" height="63" fill="white" transform="matrix(-1 0 0 1 61 0)"/>
</clipPath>
</defs>
</svg>
