<svg width="61" height="68" viewBox="0 0 61 68" fill="none" xmlns="http://www.w3.org/2000/svg">
<g clip-path="url(#clip0_586_30789)">
<path d="M35.5965 0C49.03 0.0453515 59.2938 9.05215 60.8094 21.0265C62.4772 34.198 53.0427 46.2887 39.8238 47.8957C33.2409 48.6954 27.3033 47.0642 22.0291 43.093C21.4037 42.6228 21.0735 42.6531 20.5485 43.2018C19.1531 44.6636 17.6786 46.0499 16.2726 47.5026C16.0215 47.7612 15.8465 48.1829 15.8176 48.5442C15.7354 49.5435 15.4098 50.4051 14.6946 51.1172C11.8795 53.9138 9.07802 56.7241 6.24311 59.5026C4.75034 60.966 2.47084 60.9433 1.05415 59.5117C-0.344282 58.0983 -0.367108 55.867 1.08002 54.4067C3.8921 51.5707 6.73919 48.7695 9.57562 45.9592C10.2497 45.291 11.0745 44.9796 12.0255 44.8844C12.4379 44.8435 12.9172 44.6636 13.2109 44.3855C14.7113 42.9569 16.1448 41.4573 17.6391 40.0212C18.0834 39.5933 18.0819 39.3091 17.7075 38.8375C14.8574 35.2441 13.1394 31.1565 12.721 26.6107C11.9479 18.195 14.795 11.1444 21.247 5.63265C25.7071 1.82011 30.9828 0.0498866 35.5965 0ZM36.7591 3.09297C25.1014 3.09297 15.6624 12.4686 15.6593 24.0514C15.6563 35.6024 25.1532 45.0506 36.7606 45.0431C48.4457 45.0355 57.8817 35.6402 57.8832 24.0106C57.8847 12.4384 48.4487 3.09297 36.7591 3.09297Z" fill="white"/>
<path d="M28.3051 47.0098C29.3338 47.2925 30.2255 47.5615 31.1294 47.7762C31.8917 47.9576 32.6647 48.1239 33.4438 48.201C34.0662 48.263 34.2412 48.523 34.2382 49.1156C34.2169 52.2373 34.2275 55.359 34.2275 58.4822C34.2275 60.5971 34.2366 62.712 34.2245 64.8268C34.2138 66.6651 32.9752 67.9697 31.2572 67.9788C29.5255 67.9878 28.2381 66.6469 28.2351 64.7891C28.2275 59.1745 28.2305 53.56 28.2351 47.9455C28.2351 47.6734 28.2747 47.4028 28.3051 47.0098Z" fill="white"/>
<path d="M41.6291 48.1194C41.6519 48.3159 41.6869 48.4867 41.6884 48.6576C41.6914 54.0982 41.6945 59.5389 41.6869 64.978C41.6854 66.1919 41.136 67.1201 40.0374 67.6628C39.0026 68.1738 37.9633 68.1012 37.0077 67.4452C36.1053 66.8254 35.7005 65.9259 35.7005 64.8511C35.696 59.6371 35.7021 54.4232 35.6914 49.2093C35.6899 48.6424 35.871 48.4202 36.4797 48.4006C38.1687 48.3492 39.8578 48.2222 41.6291 48.1194Z" fill="white"/>
<path d="M55.333 40.1543C55.3543 40.5247 55.3741 40.7227 55.3741 40.9207C55.3756 46.3372 55.3802 51.7537 55.368 57.1702C55.3665 57.5632 55.2996 57.982 55.1459 58.3417C54.7928 59.1717 53.8707 59.6252 52.9546 59.4967C52.0477 59.3697 51.3097 58.6728 51.1788 57.7733C51.1134 57.3259 51.086 56.8708 51.086 56.4188C51.0784 52.564 51.0921 48.7091 51.0723 44.8557C51.0693 44.1981 51.2595 43.7522 51.7981 43.3183C52.8588 42.4642 53.8266 41.4982 54.8339 40.5791C54.9572 40.4672 55.088 40.3629 55.333 40.1543Z" fill="white"/>
<path d="M19.845 51.1157C19.845 49.1519 19.8967 47.1852 19.8237 45.2245C19.7841 44.1648 20.5693 43.7566 21.1582 43.1746C21.2267 43.1066 21.5341 43.2018 21.6786 43.2986C22.3543 43.7445 23.0375 44.1844 23.6614 44.6954C23.8973 44.8889 24.1057 45.2668 24.1073 45.5616C24.1362 49.4891 24.1438 53.418 24.1149 57.3454C24.1057 58.638 23.1592 59.5314 21.9647 59.5163C20.7443 59.5012 19.8724 58.6244 19.8541 57.3092C19.8267 55.2442 19.8465 53.1792 19.8465 51.1157C19.8465 51.1157 19.8465 51.1157 19.845 51.1157Z" fill="white"/>
<path d="M49.9975 44.7288C50.0219 44.9192 50.063 45.084 50.063 45.2473C50.066 49.2957 50.0751 53.344 50.0599 57.3924C50.0538 58.8648 48.7619 59.8293 47.3817 59.4408C46.5068 59.1944 45.8661 58.4415 45.8585 57.4952C45.8357 54.0757 45.8418 50.6562 45.86 47.2367C45.8616 47.0266 45.9985 46.7121 46.1674 46.6245C47.4122 45.9759 48.6828 45.3712 49.9975 44.7288Z" fill="white"/>
<path d="M18.7801 45.7429C18.7969 45.9591 18.8273 46.1768 18.8273 46.3929C18.8304 49.9939 18.8334 53.5948 18.8258 57.1972C18.8228 58.5048 18.0573 59.4058 16.9039 59.5101C15.6592 59.622 14.6122 58.7648 14.5681 57.4648C14.5072 55.7036 14.5392 53.9394 14.5651 52.1768C14.5681 51.9288 14.7066 51.6265 14.8831 51.4466C15.7063 50.6091 16.0944 49.6099 16.1674 48.4595C16.1796 48.2705 16.2389 48.0407 16.3622 47.9107C17.0895 47.1458 17.8413 46.405 18.5854 45.6567C18.6493 45.6855 18.7147 45.7142 18.7801 45.7429Z" fill="white"/>
<path d="M12.3685 27.9304C12.9483 29.7838 13.5204 31.5737 14.0606 33.3726C14.1428 33.6477 14.12 33.9727 14.0728 34.263C13.7837 36.0755 13.4793 37.8866 13.1628 39.6961C13.1035 40.0378 13.0152 40.3945 12.8494 40.6938C12.5268 41.2789 11.8298 41.492 11.2029 41.2638C10.5334 41.0204 10.1621 40.4127 10.2792 39.6341C10.4512 38.4898 10.6673 37.3529 10.8651 36.2131C11.3201 33.5857 11.7735 30.9584 12.2331 28.3325C12.259 28.1965 12.3229 28.068 12.3685 27.9304Z" fill="white"/>
<path d="M58.9013 35.1564C59.1691 36.7619 59.475 38.3643 59.6835 39.9773C59.7702 40.6424 59.1646 41.2305 58.495 41.3378C57.8346 41.4437 57.1316 41.0703 56.946 40.3975C56.6751 39.4119 56.4058 38.4444 57.2336 37.4935C57.8346 36.8042 58.2242 35.9334 58.7081 35.1428C58.775 35.1458 58.8374 35.1519 58.9013 35.1564Z" fill="white"/>
<path d="M14.6191 34.8691C15.59 36.3219 16.5304 37.7157 17.448 39.1231C17.5332 39.2546 17.5621 39.5555 17.4754 39.6462C16.5973 40.5668 15.6904 41.4587 14.7926 42.3597C14.7348 42.3264 14.677 42.2917 14.6191 42.2584C14.6191 39.8109 14.6191 37.365 14.6191 34.8691Z" fill="white"/>
<path d="M28.225 28.7013C27.3378 32.922 26.8174 37.2078 25.9074 41.4209C25.8055 41.4648 25.7035 41.5086 25.6031 41.5524C24.582 40.7119 23.5442 39.8895 22.5567 39.0128C22.4121 38.8843 22.441 38.4882 22.4852 38.2312C23.3829 32.9931 24.2868 27.7565 25.209 22.523C25.6061 20.2705 26.8494 19.2834 29.1365 19.2274C30.3416 19.1987 31.4175 19.3514 32.5268 19.9727C34.3696 21.0052 36.1986 20.597 38.1038 19.7021C40.8291 18.4217 44.3031 19.3242 44.7825 22.5713C45.6194 28.2508 46.7074 33.8926 47.695 39.5494C47.9719 41.1337 47.2674 42.2312 45.9161 42.2977C44.8327 42.3521 44.0308 41.7142 43.8192 40.529C43.3551 37.9258 42.9321 35.3151 42.4923 32.7074C42.258 31.3181 42.0237 29.9273 41.6889 28.5381C41.6889 28.786 41.6889 29.0339 41.6889 29.2818C41.6889 33.8926 41.6691 38.5033 41.7087 43.114C41.7163 43.9183 41.453 44.2675 40.6754 44.3279C39.3135 44.4338 37.9516 44.5547 36.5912 44.6908C35.8669 44.7633 35.6341 44.4247 35.6919 43.7626C35.7132 43.5131 35.7634 43.2153 35.6554 43.0188C35.5047 42.7452 35.2187 42.3642 34.9889 42.3627C34.7454 42.3612 34.4837 42.7361 34.2615 42.975C34.1946 43.046 34.2341 43.2183 34.2311 43.3438C34.1885 44.5713 34.1778 44.6167 33.0076 44.331C31.6822 44.0059 30.3812 43.5796 29.0649 43.2153C28.4243 43.0385 28.2128 42.659 28.2158 41.9999C28.2402 37.7172 28.2265 33.4345 28.225 29.1503C28.225 29.0022 28.225 28.851 28.225 28.7013ZM34.9889 23.9107C34.8945 23.9455 34.7987 23.9818 34.7043 24.0165C34.6876 24.139 34.6617 24.2599 34.6541 24.3824C34.4609 27.1957 34.2691 30.0075 34.0804 32.8208C34.0256 33.625 33.9572 34.4277 33.9374 35.2319C33.9207 35.9001 34.8093 36.721 35.1989 36.4247C35.663 36.0725 36.0632 35.6764 35.9947 34.984C35.8912 33.9319 35.8623 32.8737 35.7939 31.8185C35.6432 29.4829 35.4986 27.1458 35.3221 24.8117C35.2993 24.5063 35.1045 24.2115 34.9889 23.9107ZM35.9384 22.1541C35.6006 21.8366 35.2856 21.5419 35.0132 21.2864C34.61 21.6341 34.2935 21.9047 33.9891 22.1662C34.8778 23.3604 35.0361 23.362 35.9384 22.1541Z" fill="white"/>
<path d="M55.7169 32.4717C55.5556 32.1482 55.4811 32.0016 55.408 31.8549C55.6302 33.0583 55.02 33.991 54.425 34.9343C52.9672 37.2487 51.1229 39.2019 48.8997 40.8043C48.6806 40.9615 48.4524 41.1051 48.2637 41.2306C47.6717 36.1905 46.5959 31.279 45.8031 26.3251C45.7666 26.1013 45.6616 25.8549 45.7209 25.6584C45.7909 25.4286 45.9948 25.0794 46.1622 25.0673C46.9824 25.0038 47.7904 24.9147 48.5817 25.409C49.9147 26.2419 51.3147 26.1966 52.6888 25.4075C53.9609 24.6773 55.2543 24.9101 56.4488 25.5329C56.8612 25.7491 57.3253 26.4067 57.2964 26.8285C57.161 28.7423 56.601 30.5715 55.7169 32.4717ZM50.6132 28.3024C50.5371 28.3326 50.4595 28.3629 50.3834 28.3931C50.2114 30.9419 50.038 33.4906 49.866 36.0394C49.8265 36.6289 50.0349 37.2276 50.6329 37.2109C51.2234 37.1958 51.3984 36.5881 51.3588 36.0016C51.199 33.6236 51.0514 31.2442 50.881 28.8663C50.8673 28.6743 50.706 28.4914 50.6132 28.3024ZM50.6345 26.2948C50.3453 26.6546 49.9877 26.9086 50.0106 27.1233C50.0334 27.3546 50.3925 27.6735 50.6451 27.7159C50.8156 27.7446 51.2203 27.3591 51.2218 27.158C51.2218 26.9131 50.9069 26.6682 50.6345 26.2948Z" fill="white"/>
<path d="M34.9615 10.0029C37.7295 9.99539 39.9968 12.2463 39.9937 14.9977C39.9907 17.7429 37.7142 19.9969 34.9509 19.9893C32.2483 19.9833 29.9293 17.684 29.9415 15.0218C29.9521 12.2584 32.2027 10.0105 34.9615 10.0029Z" fill="white"/>
<path d="M22.0394 38.508C20.7688 37.3229 19.8315 36.2858 19.941 34.5277C20.0521 32.7318 19.7828 30.9162 19.7462 29.1082C19.7341 28.5126 19.9775 27.917 20.0019 27.3168C20.0125 27.0568 19.8071 26.7439 19.6093 26.5413C19.5332 26.4642 19.0995 26.564 19.0189 26.697C18.8987 26.8966 18.8256 27.3108 18.9428 27.4332C19.311 27.8157 19.2502 28.1347 19.1695 28.6275C18.9656 29.8625 18.9382 31.1263 18.8606 32.3796C18.8302 32.8709 18.856 33.3667 18.856 33.861C18.7845 33.8792 18.7145 33.8973 18.643 33.9155C18.5365 33.7749 18.4071 33.6449 18.325 33.4907C17.0605 31.0976 16.3407 28.5428 16.0866 25.8595C16.0622 25.5965 16.2159 25.3183 16.2874 25.0462C16.5613 25.1339 16.8337 25.2291 17.1091 25.3077C18.2139 25.6237 19.3202 25.9396 20.4295 26.242C20.5025 26.2616 20.6395 26.1966 20.6882 26.1286C21.3425 25.2231 22.3468 25.1566 23.3237 25.0447C24.1302 24.9525 24.3402 25.1792 24.1957 25.9684C23.7513 28.3932 23.2781 30.8134 22.8566 33.2412C22.6024 34.7015 22.4214 36.174 22.2053 37.6388C22.1703 37.8731 22.117 38.109 22.0394 38.508Z" fill="white"/>
<path d="M50.6259 25.4723C48.6233 25.4738 47.1123 23.9818 47.1016 21.9908C47.091 20.0906 48.6659 18.5018 50.5619 18.4988C52.5356 18.4958 54.1105 20.0302 54.1227 21.9682C54.1349 23.947 52.6132 25.4708 50.6259 25.4723Z" fill="white"/>
<path d="M16.0475 22.7255C16.1251 19.8034 17.1994 18.3476 19.2857 18.523C20.8545 18.656 22.8921 19.9923 22.7643 22.0982C22.641 24.1344 21.0874 25.5222 18.8763 25.4406C17.4003 25.3861 16.0125 24.0528 16.0475 22.7255Z" fill="white"/>
<path d="M42.5273 35.3726C42.8286 37.1503 43.1436 38.9266 43.4099 40.7104C43.4357 40.8843 43.0766 41.2879 43.0355 41.2713C42.7084 41.1277 42.156 40.916 42.1514 40.7104C42.1027 38.9417 42.153 37.1715 42.1743 35.4013C42.2899 35.3907 42.4086 35.3816 42.5273 35.3726Z" fill="white"/>
<path d="M27.6938 35.3909C27.7304 37.1399 27.7791 38.889 27.7988 40.638C27.8049 41.2594 27.3286 41.3727 26.8463 41.3319C26.2422 41.282 26.4993 40.8361 26.5556 40.5277C26.8691 38.8164 27.1978 37.1082 27.5219 35.3984C27.5782 35.3954 27.636 35.3924 27.6938 35.3909Z" fill="white"/>
<path d="M36.7708 44.6924C48.281 44.6924 57.6118 35.4227 57.6118 23.9879C57.6118 12.5531 48.281 3.28345 36.7708 3.28345C25.2606 3.28345 15.9297 12.5531 15.9297 23.9879C15.9297 35.4227 25.2606 44.6924 36.7708 44.6924Z" fill="url(#paint0_linear_586_30789)"/>
</g>
<defs>
<linearGradient id="paint0_linear_586_30789" x1="22.0341" y1="38.6288" x2="51.3144" y2="9.15541" gradientUnits="userSpaceOnUse">
<stop stop-color="white"/>
<stop offset="0.6508" stop-color="white" stop-opacity="0"/>
</linearGradient>
<clipPath id="clip0_586_30789">
<rect width="61" height="68" fill="white"/>
</clipPath>
</defs>
</svg>
