<svg width="68" height="68" viewBox="0 0 68 68" fill="none" xmlns="http://www.w3.org/2000/svg">
<g clip-path="url(#clip0_586_30743)">
<path d="M34.1639 41.4834C34.5719 43.163 34.9765 44.8426 35.3913 46.5222C35.8095 48.2086 36.2379 49.8916 37.0131 51.6188C37.1899 51.1972 37.4008 50.7858 37.5401 50.3506C38.8628 46.2706 40.1717 42.1872 41.4909 38.1072C41.9873 36.5738 42.7693 34.9656 40.4199 34.0918C43.8539 34.7854 47.3219 35.3634 50.7049 36.2542C51.5414 36.4752 52.5103 37.6006 52.7381 38.4846C53.9519 43.1698 54.9482 47.9128 56.0396 52.717C51.8745 54.4476 47.9169 56.6508 43.6737 57.7286C36.3467 59.5952 28.8463 59.5238 21.6179 56.9772C18.3573 55.828 15.3041 54.0838 11.9688 52.5232C13.0771 47.7972 14.1447 42.9046 15.4333 38.0732C15.6407 37.2912 16.7185 36.3936 17.5549 36.1828C20.8733 35.3464 24.2563 34.7616 27.8399 34.1904C25.2389 35.0676 26.0413 36.686 26.5955 38.3486C27.8399 42.0954 28.9925 45.8762 30.1961 49.6366C30.4137 50.3132 30.6993 50.9728 31.3283 51.6324C32.1647 48.263 33.0011 44.897 33.8375 41.5276C33.9429 41.5174 34.0551 41.5004 34.1639 41.4834Z" fill="#4949FC"/>
<path d="M33.9564 9.22075C38.9952 9.20715 42.164 11.9306 43.0616 16.9932C43.354 18.6354 43.8198 20.247 44.0476 21.8926C44.1496 22.6338 44.0884 23.562 43.7212 24.174C42.2456 26.6322 40.8346 29.1788 39.0054 31.3582C35.4014 35.649 32.372 35.6116 28.87 31.2834C27.1122 29.1074 25.657 26.6594 24.3106 24.1978C23.8822 23.4124 24.1678 22.185 24.2732 21.1752C24.4228 19.7336 24.6744 18.3022 24.9328 16.8742C25.8338 11.9034 28.9924 9.23435 33.9564 9.22075Z" fill="#4949FC"/>
<path d="M11.9341 33.0718C10.8291 31.3174 9.89415 29.7228 8.84695 28.203C8.09555 27.1116 7.66375 26.1188 8.30295 24.769C8.64635 24.0414 8.49335 23.0928 8.67355 22.27C9.33315 19.2508 11.8763 17.2618 14.7561 17.4624C17.7923 17.6732 19.8867 19.754 20.2981 22.8956C20.4137 23.7728 20.8115 24.6296 20.8455 25.5034C20.8727 26.2412 20.7197 27.0878 20.3593 27.7202C19.3597 29.4712 18.2105 31.1406 17.0409 32.963C17.5339 33.1568 18.0847 33.371 18.6389 33.5886C18.6185 33.6498 18.5981 33.813 18.5573 33.8198C14.9941 34.3094 13.3791 36.5126 12.8113 39.9228C12.2877 43.0678 11.4377 46.1618 10.6353 49.7114C8.48995 48.9124 6.55875 48.212 4.64115 47.4776C3.59395 47.0764 2.59775 46.512 1.52675 46.2128C0.503347 45.9272 0.295947 45.3458 0.496547 44.455C1.06435 41.9288 1.62875 39.4026 2.22375 36.8798C2.51275 35.649 3.32195 35.02 4.57315 34.765C7.02795 34.2584 9.46575 33.6464 11.9341 33.0718Z" fill="#4949FC"/>
<path d="M57.2688 49.3035C56.5548 46.1517 55.7388 43.1019 55.1948 40.0079C54.593 36.5773 53.0902 34.1735 48.8776 33.8471C49.8534 33.4187 50.4212 33.1671 50.938 32.9427C49.8398 31.2291 48.6736 29.6277 47.7692 27.8937C47.351 27.0947 47.334 26.0305 47.3408 25.0853C47.3476 24.1367 47.5584 23.1779 47.759 22.2395C48.405 19.2373 50.9992 17.2313 53.879 17.4659C56.9866 17.7209 59.0538 19.8629 59.404 23.1235C59.4856 23.8953 59.8562 24.6467 59.8596 25.4083C59.863 26.1971 59.7644 27.0913 59.3904 27.7577C58.4078 29.5155 57.2518 31.1781 56.0414 33.0753C58.537 33.6533 60.9782 34.2687 63.4466 34.7651C64.793 35.0371 65.5342 35.7817 65.8232 37.0703C66.3672 39.4911 66.9554 41.9017 67.428 44.3361C67.5266 44.8427 67.3464 45.7947 67.037 45.9205C64.1878 47.0935 61.2808 48.1373 58.3874 49.1981C58.1324 49.2933 57.8298 49.2559 57.2688 49.3035Z" fill="#4949FC"/>
<path d="M31.9905 35.9175C33.3131 35.9175 34.6357 35.9175 36.4037 35.9175C35.4823 37.3081 34.8465 38.2669 34.0577 39.4569C33.2553 38.3587 32.5583 37.4033 31.8613 36.4479C31.9021 36.2745 31.9463 36.0943 31.9905 35.9175Z" fill="#4949FC"/>
</g>
<defs>
<clipPath id="clip0_586_30743">
<rect width="68" height="68" fill="white"/>
</clipPath>
</defs>
</svg>
