<svg width="42" height="43" viewBox="0 0 42 43" fill="none" xmlns="http://www.w3.org/2000/svg">
<path d="M5.25 21.5H21V24.125H5.25V21.5ZM2.625 14.9375H15.75V17.5625H2.625V14.9375Z" fill="#464646"/>
<path d="M39.2688 22.2954L35.3313 13.1079C35.2301 12.8718 35.0619 12.6707 34.8475 12.5293C34.6331 12.3879 34.382 12.3125 34.1251 12.3125H30.1876V9.6875C30.1876 9.3394 30.0494 9.00556 29.8032 8.75942C29.5571 8.51328 29.2232 8.375 28.8751 8.375H7.87513V11H27.5626V27.4797C26.9649 27.8275 26.4418 28.2899 26.0233 28.8403C25.6048 29.3908 25.2992 30.0186 25.124 30.6875H16.8763C16.5568 29.4503 15.7971 28.372 14.7395 27.6548C13.6819 26.9377 12.3991 26.6308 11.1314 26.7918C9.86382 26.9529 8.69842 27.5707 7.85371 28.5294C7.009 29.4882 6.54297 30.7222 6.54297 32C6.54297 33.2778 7.009 34.5118 7.85371 35.4706C8.69842 36.4293 9.86382 37.0471 11.1314 37.2082C12.3991 37.3692 13.6819 37.0623 14.7395 36.3452C15.7971 35.628 16.5568 34.5497 16.8763 33.3125H25.124C25.4095 34.4389 26.0625 35.438 26.9796 36.1517C27.8967 36.8653 29.0256 37.2528 30.1876 37.2528C31.3497 37.2528 32.4786 36.8653 33.3957 36.1517C34.3128 35.438 34.9657 34.4389 35.2513 33.3125H38.0626C38.4107 33.3125 38.7446 33.1742 38.9907 32.9281C39.2369 32.6819 39.3751 32.3481 39.3751 32V22.8125C39.3751 22.6347 39.3389 22.4588 39.2688 22.2954ZM11.8126 34.625C11.2935 34.625 10.7859 34.471 10.3543 34.1826C9.92258 33.8942 9.58613 33.4842 9.38745 33.0045C9.18877 32.5249 9.13679 31.9971 9.23807 31.4879C9.33936 30.9787 9.58937 30.511 9.95648 30.1438C10.3236 29.7767 10.7913 29.5267 11.3005 29.4254C11.8097 29.3242 12.3375 29.3761 12.8172 29.5748C13.2968 29.7735 13.7068 30.1099 13.9952 30.5416C14.2837 30.9733 14.4376 31.4808 14.4376 32C14.4376 32.6962 14.1611 33.3639 13.6688 33.8562C13.1765 34.3484 12.5088 34.625 11.8126 34.625ZM30.1876 14.9375H33.2589L36.0729 21.5H30.1876V14.9375ZM30.1876 34.625C29.6685 34.625 29.1609 34.471 28.7293 34.1826C28.2976 33.8942 27.9611 33.4842 27.7624 33.0045C27.5638 32.5249 27.5118 31.9971 27.6131 31.4879C27.7144 30.9787 27.9644 30.511 28.3315 30.1438C28.6986 29.7767 29.1663 29.5267 29.6755 29.4254C30.1847 29.3242 30.7125 29.3761 31.1922 29.5748C31.6718 29.7735 32.0818 30.1099 32.3702 30.5416C32.6587 30.9733 32.8126 31.4808 32.8126 32C32.8126 32.6962 32.5361 33.3639 32.0438 33.8562C31.5515 34.3484 30.8838 34.625 30.1876 34.625ZM36.7501 30.6875H35.2513C34.9621 29.5633 34.3081 28.5667 33.3918 27.8542C32.4754 27.1416 31.3485 26.7532 30.1876 26.75V24.125H36.7501V30.6875Z" fill="#464646"/>
</svg>
