<svg width="42" height="42" viewBox="0 0 42 42" fill="none" xmlns="http://www.w3.org/2000/svg">
<g clip-path="url(#clip0_586_51643)">
<path d="M31.7149 38.5057C31.9277 38.5057 32.0845 38.5057 32.2301 38.5057C33.7869 38.5057 35.3437 38.5057 36.9005 38.5057C37.3709 38.5057 37.6397 38.7409 37.6285 39.0993C37.6173 39.4353 37.3485 39.6369 36.9005 39.6369C25.6669 39.6369 14.4445 39.6369 3.21089 39.6369C2.75169 39.6369 2.49409 39.4353 2.48289 39.0993C2.47169 38.7409 2.74049 38.5169 3.21089 38.5169C4.76769 38.5169 6.32449 38.5169 7.88129 38.5169C8.02689 38.5169 8.17249 38.5169 8.27329 38.5169C8.16129 37.9793 7.98209 37.4753 7.94849 36.9601C7.89249 36.1649 8.25089 35.5153 8.81089 34.9665C8.95649 34.8209 9.07969 34.6305 9.13569 34.4401C9.28129 33.8465 9.40449 33.2417 9.50529 32.6369C9.52769 32.5025 9.47169 32.3233 9.38209 32.2225C9.10209 31.9089 8.77729 31.6289 8.49729 31.3153C8.32929 31.1249 8.16129 31.0801 7.92609 31.1361C7.29889 31.2817 6.67169 31.3937 6.04449 31.5393C5.66369 31.6289 5.41729 31.5057 5.23809 31.1697C4.65569 30.1505 4.07329 29.1313 3.47969 28.1233C3.28929 27.7985 3.30049 27.5185 3.56929 27.2385C4.00609 26.7681 4.42049 26.2753 4.86849 25.8161C5.04769 25.6257 5.05889 25.4689 4.99169 25.2337C4.86849 24.8417 4.80129 24.4385 4.65569 24.0577C4.59969 23.9121 4.45409 23.7329 4.30849 23.6881C3.70369 23.4641 3.09889 23.2737 2.48289 23.0945C2.10209 22.9825 1.92289 22.7585 1.93409 22.3553C1.94529 21.1793 1.94529 20.0033 1.93409 18.8385C1.93409 18.4353 2.10209 18.2113 2.49409 18.0993C3.11009 17.9201 3.71489 17.7185 4.31969 17.4945C4.46529 17.4385 4.59969 17.2593 4.65569 17.1137C4.79009 16.7217 4.90209 16.3073 4.98049 15.8929C5.01409 15.7361 4.96929 15.5233 4.86849 15.4001C4.45409 14.8961 4.00609 14.4145 3.55809 13.9329C3.31169 13.6641 3.27809 13.3953 3.45729 13.0817C4.03969 12.0177 4.64449 10.9761 5.23809 9.94572C5.41729 9.63212 5.66369 9.53132 6.03329 9.60972C6.67169 9.76652 7.31009 9.90092 7.94849 10.0129C8.09409 10.0353 8.30689 9.95692 8.43009 9.85612C8.75489 9.57612 9.06849 9.26252 9.35969 8.93772C9.44929 8.83692 9.50529 8.65772 9.48289 8.52332C9.37089 7.90732 9.23649 7.29132 9.10209 6.68652C8.97889 6.12652 9.03489 5.99212 9.51649 5.71212C10.4909 5.14092 11.4765 4.59212 12.4509 4.00972C12.8093 3.79692 13.1005 3.80812 13.4029 4.09932C13.8621 4.53612 14.3437 4.97292 14.8365 5.37612C14.9485 5.47692 15.1725 5.51052 15.3293 5.47692C15.7437 5.39852 16.1581 5.28652 16.5501 5.15212C16.6957 5.09612 16.8749 4.96172 16.9197 4.81612C17.1549 4.20012 17.3453 3.58412 17.5357 2.95692C17.6477 2.58732 17.8717 2.43052 18.2525 2.44172C19.4285 2.45292 20.6045 2.45292 21.7693 2.44172C22.1501 2.44172 22.3853 2.58732 22.4973 2.95692C22.6877 3.58412 22.8893 4.21132 23.1133 4.81612C23.1693 4.96172 23.3373 5.07372 23.4829 5.15212C23.6397 5.23052 23.8301 5.21932 23.9869 5.29772C24.7149 5.65612 25.2861 5.48812 25.7901 4.87212C26.0477 4.55852 26.3949 4.32332 26.6973 4.04332C26.9325 3.81932 27.1901 3.77452 27.4813 3.94252C28.5453 4.55852 29.5981 5.17452 30.6733 5.77932C31.0093 5.96972 31.0429 6.26092 30.9645 6.58572C30.8301 7.21292 30.6845 7.84012 30.5725 8.46732C30.5501 8.61292 30.6173 8.82572 30.7181 8.94892C30.9981 9.27372 31.2893 9.56492 31.6141 9.84492C31.7373 9.94572 31.9501 10.0241 32.0957 10.0017C32.7453 9.88972 33.3837 9.75532 34.0109 9.59852C34.3693 9.50892 34.6269 9.60972 34.8061 9.92332C35.3997 10.9649 36.0045 12.0065 36.6093 13.0369C36.7885 13.3505 36.7549 13.6193 36.5085 13.8881C36.0605 14.3697 35.6237 14.8513 35.1981 15.3553C35.0973 15.4673 35.0749 15.6801 35.0861 15.8481C35.0973 16.0385 35.2205 16.2177 35.2317 16.3969C35.2765 17.1697 35.6797 17.5729 36.4413 17.6961C36.8445 17.7633 37.2141 17.9537 37.6061 18.0657C37.9533 18.1665 38.1325 18.3793 38.1213 18.7489C38.1101 19.9473 38.1101 21.1457 38.1213 22.3553C38.1213 22.7249 37.9533 22.9377 37.6061 23.0497C36.9789 23.2401 36.3517 23.4417 35.7469 23.6657C35.6013 23.7217 35.4781 23.8897 35.3997 24.0353C35.3213 24.1697 35.3549 24.3713 35.2765 24.5057C34.8621 25.2785 35.0973 25.8721 35.7357 26.3985C36.0269 26.6449 36.2509 26.9585 36.5085 27.2385C36.7325 27.4737 36.7773 27.7425 36.6093 28.0225C35.9933 29.0865 35.3885 30.1505 34.7725 31.2145C34.6045 31.5057 34.3693 31.5953 34.0445 31.5169C33.4061 31.3713 32.7677 31.2481 32.1293 31.1025C31.8941 31.0465 31.7149 31.0801 31.5581 31.2817C31.4237 31.4497 31.2781 31.6289 31.0989 31.7521C30.5165 32.1329 30.4045 32.6257 30.6509 33.2417C30.7181 33.4209 30.7517 33.6113 30.7741 33.8017C30.8525 34.3393 31.0429 34.7649 31.4349 35.1905C32.2077 36.0193 32.3085 37.0385 31.8493 38.0801C31.8717 38.2145 31.8045 38.3153 31.7149 38.5057ZM17.5581 32.7377C11.3981 31.5729 6.79489 25.5025 7.79169 18.7825C8.66529 12.8801 13.5933 8.43372 19.4845 8.18732C25.4989 7.92972 30.7741 11.9505 32.1293 17.8753C32.7789 20.7313 32.4429 23.4977 31.1101 26.1073C29.2957 29.6465 26.3949 31.8081 22.4077 32.7489C22.8333 33.4209 23.2141 34.0369 23.6509 34.7313C23.7741 34.4625 23.8301 34.3281 23.8861 34.1937C24.7373 32.3681 27.2909 32.0545 28.4333 33.7121C28.7917 34.2385 29.1277 34.3617 29.6765 34.2609C29.6989 34.2609 29.7213 34.2273 29.7661 34.1937C29.6429 33.6337 29.5309 33.0625 29.3965 32.4913C29.3069 32.1217 29.3853 31.8417 29.6877 31.5841C30.1693 31.1473 30.6285 30.6769 31.0765 30.1953C31.3229 29.9265 31.5805 29.8257 31.9389 29.9153C32.6221 30.0833 33.3165 30.2065 34.0221 30.3633C34.5261 29.4897 35.0189 28.6385 35.5117 27.7761C35.0413 27.2497 34.5821 26.7233 34.1117 26.2193C33.8653 25.9505 33.7869 25.6817 33.8989 25.3345C34.1005 24.6849 34.2797 24.0241 34.4365 23.3633C34.5149 23.0273 34.6717 22.8369 34.9965 22.7361C35.6013 22.5569 36.1949 22.3665 36.7773 22.1425C36.9005 22.0977 37.0461 21.9073 37.0461 21.7841C37.0685 20.9777 37.0461 20.1713 37.0685 19.3649C37.0685 19.1297 36.9789 19.0401 36.7661 18.9729C36.1949 18.8049 35.6237 18.5921 35.0525 18.4241C34.6941 18.3233 34.5149 18.1217 34.4365 17.7521C34.2909 17.1025 34.1117 16.4529 33.9213 15.8257C33.8093 15.4673 33.8653 15.2097 34.1229 14.9297C34.6045 14.4145 35.0637 13.8881 35.5341 13.3617C35.0637 12.5441 34.6269 11.7601 34.1565 10.9985C34.1005 10.8977 33.8877 10.8305 33.7757 10.8417C33.1821 10.9425 32.5997 11.0657 32.0173 11.2113C31.6253 11.3121 31.3453 11.2113 31.0765 10.9089C30.6621 10.4385 30.2141 9.99052 29.7437 9.57612C29.4189 9.29612 29.3293 9.00492 29.4301 8.60172C29.5645 8.04172 29.6765 7.48172 29.7997 6.92172C29.8557 6.69772 29.8333 6.55212 29.5981 6.42892C28.9037 6.04812 28.2205 5.64492 27.5485 5.24172C27.3469 5.12972 27.2237 5.12972 27.0557 5.29772C26.5965 5.73452 26.1261 6.13772 25.6557 6.56332C25.4317 6.76492 25.2077 6.82092 24.9053 6.73132C24.2221 6.52972 23.5389 6.35052 22.8557 6.18252C22.5309 6.10412 22.3293 5.93612 22.2285 5.61132C22.0493 5.00652 21.8589 4.41292 21.6349 3.83052C21.5901 3.71852 21.4221 3.58412 21.3101 3.58412C20.4925 3.56172 19.6749 3.58412 18.8573 3.57292C18.6445 3.57292 18.5437 3.64012 18.4877 3.85292C18.3085 4.43532 18.1069 5.01772 17.9277 5.60012C17.8269 5.93612 17.6141 6.11532 17.2781 6.19372C16.6173 6.35052 15.9565 6.51852 15.3069 6.72012C14.9597 6.83212 14.7021 6.76492 14.4557 6.52972C14.0077 6.10412 13.5373 5.71212 13.0893 5.28652C12.9325 5.14092 12.8093 5.12972 12.6301 5.24172C11.9469 5.64492 11.2749 6.04812 10.5805 6.42892C10.3341 6.56332 10.3005 6.72012 10.3565 6.95532C10.4909 7.52652 10.6141 8.09772 10.7373 8.66892C10.8045 8.98252 10.7709 9.24012 10.5133 9.48652C9.98689 9.97932 9.50529 10.5281 8.96769 11.0097C8.79969 11.1553 8.50849 11.2561 8.28449 11.2225C7.64609 11.1329 7.03009 10.9649 6.40289 10.8529C6.29089 10.8305 6.08929 10.8529 6.05569 10.9201C5.56289 11.7377 5.09249 12.5553 4.62209 13.3729C5.12609 13.9329 5.59649 14.4705 6.07809 14.9857C6.29089 15.2209 6.34689 15.4673 6.24609 15.7697C6.04449 16.4305 5.85409 17.1025 5.70849 17.7857C5.63009 18.1441 5.45089 18.3345 5.11489 18.4353C4.54369 18.6145 3.98369 18.8161 3.40129 18.9841C3.16609 19.0513 3.06529 19.1409 3.07649 19.4097C3.09889 20.1825 3.09889 20.9665 3.07649 21.7393C3.06529 22.0081 3.17729 22.1201 3.42369 22.1985C3.95009 22.3553 4.45409 22.5569 4.98049 22.6913C5.42849 22.8145 5.66369 23.0609 5.75329 23.5201C5.86529 24.1249 6.03329 24.7185 6.22369 25.2897C6.34689 25.6705 6.30209 25.9617 6.02209 26.2529C5.54049 26.7569 5.09249 27.2833 4.63329 27.7873C5.14849 28.6721 5.63009 29.5121 6.13409 30.3745C6.83969 30.2289 7.52289 30.1057 8.19489 29.9377C8.57569 29.8369 8.83329 29.9489 9.09089 30.2401C9.51649 30.6993 9.95329 31.1585 10.4237 31.5729C10.7597 31.8641 10.8493 32.1665 10.7373 32.5809C10.6029 33.1297 10.5021 33.6897 10.3789 34.2721C10.7149 34.2945 11.0173 34.3169 11.3197 34.3393C11.8685 33.2417 12.7197 32.6257 13.9629 32.6817C15.2285 32.7489 16.0013 33.4769 16.4493 34.6529C16.9533 34.0929 17.3453 33.4769 17.5581 32.7377ZM15.5309 25.8385C15.3965 25.8273 15.3629 25.8161 15.3405 25.8273C14.5117 26.1633 13.6717 26.5105 12.8429 26.8353C12.2829 27.0593 11.9357 26.8241 11.9357 26.2081C11.9245 25.2561 11.9469 24.2929 11.9245 23.3409C11.9133 22.9601 12.0477 22.7025 12.3389 22.4673C13.2909 21.6945 14.2429 20.9105 15.1725 20.1153C15.3181 19.9921 15.4301 19.7681 15.4525 19.5777C15.7549 16.1729 17.0205 13.2161 19.4957 10.8193C19.9213 10.4049 20.1677 10.4049 20.6045 10.8305C23.0685 13.2161 24.3341 16.1617 24.6141 19.5553C24.6365 19.8353 24.7373 20.0033 24.9389 20.1713C25.9021 20.9553 26.8541 21.7505 27.8061 22.5569C27.9629 22.6913 28.1309 22.9265 28.1309 23.1281C28.1645 24.2033 28.1533 25.2897 28.1421 26.3649C28.1309 26.8129 27.7725 27.0369 27.3469 26.8913C27.1901 26.8353 27.0445 26.7681 26.8877 26.7121C26.1485 26.4097 25.4093 26.1185 24.5469 25.7713C24.5469 26.8017 24.5469 27.7425 24.5469 28.6833C24.5469 29.2545 24.3677 29.4225 23.7853 29.4337C23.2141 29.4337 22.6541 29.4337 22.0269 29.4337C22.0941 30.2065 22.1501 30.9121 22.2173 31.6289C27.5261 30.6433 32.1069 25.4017 31.1885 18.9505C30.3597 13.3057 25.3197 8.88172 19.1709 9.35212C13.0333 9.81132 8.34049 15.1761 8.82209 21.4369C9.28129 27.3953 14.1309 31.0689 17.8941 31.5729C17.9501 30.8561 18.0061 30.1505 18.0509 29.4113C17.4013 29.4113 16.8525 29.4113 16.2925 29.4113C15.7101 29.4113 15.5421 29.2433 15.5421 28.6497C15.5309 27.7089 15.5309 26.7681 15.5309 25.8385ZM19.1821 29.4113C19.1373 30.0273 19.1037 30.5649 19.0477 31.1137C18.8573 33.0625 18.2077 34.7761 16.5389 35.9633C16.2589 36.1649 16.0013 36.4785 15.5981 36.2769C15.1725 36.0753 15.2957 35.6945 15.3069 35.3473C15.3181 34.5297 14.7357 33.8801 13.9293 33.7905C13.1453 33.7009 12.4397 34.1937 12.2605 34.9777C12.0813 35.7057 11.8909 35.8065 11.2077 35.5265C10.1437 35.1009 9.02369 35.8625 9.04609 36.9937C9.06849 37.9009 9.75169 38.5057 10.7709 38.5057C16.9533 38.5057 23.1357 38.5057 29.3181 38.5057C29.5309 38.5057 29.7549 38.4945 29.9677 38.4385C30.8301 38.1809 31.2781 37.2513 30.9533 36.4113C30.6397 35.5825 29.6989 35.1905 28.8589 35.5489C28.2653 35.7953 27.9965 35.6833 27.8621 35.1121C27.6381 34.1825 26.9549 33.6785 26.0813 33.8129C25.2413 33.9361 24.7261 34.6305 24.7933 35.5601C24.8157 35.8513 24.8045 36.1089 24.5245 36.2769C24.2445 36.4449 24.0093 36.3105 23.7741 36.1537C22.1725 35.0897 21.3661 33.5665 21.1085 31.7073C21.0077 30.9681 20.9517 30.2177 20.8733 29.4561C20.7501 29.4449 20.6269 29.4337 20.5149 29.4337C20.0781 29.4001 19.6413 29.4113 19.1821 29.4113ZM16.7741 18.1889C16.2365 21.5489 16.6173 24.8977 16.6621 28.2577C18.9357 28.2577 21.1533 28.2577 23.4157 28.2577C23.4493 24.8865 23.8413 21.5377 23.2925 18.1889C21.1085 18.1889 18.9581 18.1889 16.7741 18.1889ZM17.0653 17.0017C19.0589 17.0017 21.0189 17.0017 23.0125 17.0017C22.4637 15.0193 21.4669 13.3281 20.0333 11.8721C18.5997 13.3617 17.6029 15.0305 17.0653 17.0017ZM13.0669 25.5249C13.8397 25.2113 14.5453 24.9313 15.2397 24.6289C15.3181 24.5953 15.3853 24.4161 15.3853 24.3041C15.3853 23.7553 15.3629 23.2177 15.3629 22.6689C15.3629 22.2881 15.3629 21.8961 15.3629 21.4257C14.5901 22.0641 13.8957 22.6353 13.2125 23.2177C13.1341 23.2849 13.0669 23.4193 13.0669 23.5313C13.0669 24.1697 13.0669 24.8081 13.0669 25.5249ZM27.0109 25.5249C27.0109 25.2113 26.9773 24.9761 27.0221 24.7521C27.2125 23.7105 26.8317 22.9601 25.9357 22.4225C25.5213 22.1761 25.1629 21.8065 24.6813 21.4033C24.6813 22.4785 24.6813 23.4193 24.6925 24.3489C24.6925 24.4497 24.7709 24.5953 24.8493 24.6289C25.5325 24.9313 26.2381 25.2113 27.0109 25.5249Z" fill="#464646"/>
<path d="M22.7421 23.3073C22.7533 24.7968 21.5325 26.0288 20.0541 26.0288C18.5645 26.0288 17.3438 24.808 17.3438 23.3296C17.3438 21.8512 18.5422 20.6416 20.0094 20.6304C21.499 20.6192 22.7309 21.8177 22.7421 23.3073ZM20.0541 21.7616C19.1805 21.7504 18.4861 22.4224 18.4749 23.296C18.4637 24.192 19.1469 24.8976 20.0205 24.8976C20.8941 24.8976 21.5886 24.2256 21.5998 23.3633C21.6109 22.4672 20.9389 21.7616 20.0541 21.7616Z" fill="#464646"/>
</g>
<defs>
<clipPath id="clip0_586_51643">
<rect width="42" height="42" fill="white"/>
</clipPath>
</defs>
</svg>
