<svg width="42" height="42" viewBox="0 0 42 42" fill="none" xmlns="http://www.w3.org/2000/svg">
<path d="M40.9982 21.5001C40.9669 21.5939 40.9253 21.6876 40.894 21.7814C40.5503 22.9689 39.4982 23.7918 38.2899 23.8335C37.0711 23.8751 35.9774 23.1251 35.5503 21.9689C35.519 21.8751 35.4774 21.771 35.4461 21.6668C33.9253 21.6668 32.4044 21.6668 30.8419 21.6668C30.6649 23.8751 29.8732 25.823 28.4461 27.4689C29.5503 28.5626 30.6336 29.646 31.7274 30.7397C33.2794 30.073 34.644 30.3751 35.4669 31.5939C36.2274 32.7085 36.0711 34.2293 35.1232 35.1668C34.1753 36.1043 32.6753 36.2397 31.5815 35.4897C30.3628 34.6564 30.0607 33.2918 30.7482 31.698C29.6649 30.6251 28.5919 29.5522 27.5711 28.5314C26.6544 29.0522 25.7586 29.6772 24.7794 30.0835C23.8107 30.4897 22.7482 30.6772 21.6753 30.9793C21.6753 32.396 21.6753 33.9168 21.6753 35.396C22.0503 35.6043 22.4461 35.7605 22.769 36.021C23.6128 36.698 23.9774 37.6043 23.7794 38.6772C23.5815 39.7814 22.9149 40.5105 21.8524 40.8751C21.7274 40.9168 21.6128 40.9585 21.4982 41.0001C21.1857 41.0001 20.8732 41.0001 20.5607 41.0001C20.4878 40.9689 20.4253 40.9376 20.3524 40.9168C19.1336 40.5835 18.2794 39.5522 18.2274 38.323C18.1753 37.073 18.9253 35.9689 20.1336 35.5418C20.2169 35.5105 20.3003 35.4793 20.3836 35.448C20.3836 33.9168 20.3836 32.4064 20.3836 30.8543C18.1753 30.6772 16.2274 29.8751 14.5711 28.448C13.4774 29.5418 12.4044 30.6147 11.3003 31.7189C11.7169 32.4689 11.8211 33.3022 11.4982 34.1772C11.269 34.7918 10.8524 35.271 10.2794 35.6043C9.13361 36.271 7.67527 36.0314 6.80027 35.0418C5.91486 34.0418 5.85236 32.5522 6.64402 31.4897C7.40444 30.4793 8.88361 29.9689 10.3315 30.7605C11.4149 29.6772 12.4982 28.5939 13.6024 27.4793C12.1961 25.8335 11.3732 23.8855 11.2169 21.6772C9.66486 21.6772 8.14402 21.6772 6.63361 21.6772C6.17527 23.2605 4.70652 24.1147 3.20652 23.7605C1.93569 23.4585 1.03986 22.2814 1.07111 20.948C1.10236 19.6251 2.07111 18.521 3.41486 18.271C4.81069 18.0105 5.96694 18.771 6.63361 20.396C8.14402 20.396 9.66486 20.396 11.2274 20.396C11.4044 18.198 12.1961 16.2501 13.6232 14.6043C12.519 13.5105 11.4357 12.4376 10.3315 11.3439C8.75861 12.0001 7.39402 11.698 6.57111 10.4585C5.83152 9.34387 5.98777 7.85429 6.93569 6.91679C7.88361 5.97929 9.37319 5.84387 10.4774 6.59387C11.6961 7.41679 11.9982 8.79179 11.3107 10.3751C12.394 11.4585 13.4669 12.5314 14.4878 13.5522C15.4149 13.0314 16.3003 12.4064 17.2794 12.0001C18.2482 11.5939 19.3107 11.4064 20.3836 11.1043C20.3836 9.69804 20.3836 8.18762 20.3836 6.63554C19.519 6.37512 18.8315 5.86471 18.4565 5.00012C18.1961 4.40637 18.1544 3.79179 18.3211 3.16679C18.644 1.91679 19.8211 1.04179 21.1336 1.08346C22.4149 1.12512 23.519 2.06262 23.769 3.33346C24.0607 4.79179 23.3836 5.85429 21.6649 6.64596C21.6649 8.16679 21.6649 9.67721 21.6649 11.198C25.1857 11.823 25.5815 12.2293 27.4982 13.6043C28.5711 12.5314 29.644 11.4585 30.7482 10.3543C30.3524 9.62512 30.2274 8.81262 30.519 7.96887C30.7378 7.34387 31.1336 6.86471 31.6961 6.51054C32.8315 5.81262 34.3211 6.02096 35.2169 7.00012C36.1232 7.98971 36.1961 9.47929 35.4149 10.5522C34.6961 11.5314 33.2274 12.1251 31.7065 11.3126C30.6232 12.4064 29.5399 13.4793 28.4357 14.5835C29.8524 16.2293 30.6544 18.1772 30.8315 20.3855C32.3836 20.3855 33.9044 20.3855 35.3732 20.3855C35.6024 19.9897 35.7586 19.5835 36.0294 19.2605C36.7378 18.396 37.6753 18.0522 38.7794 18.3022C39.8419 18.5314 40.5294 19.2085 40.8732 20.2397C40.9044 20.3439 40.9461 20.4585 40.9878 20.5626C40.9982 20.8751 40.9982 21.1876 40.9982 21.5001ZM21.0294 12.4585C16.3003 12.4585 12.4565 16.323 12.4669 21.0522C12.4774 25.7605 16.3211 29.6043 21.0294 29.6147C25.7586 29.6147 29.6128 25.7605 29.6128 21.0418C29.6128 16.3022 25.7586 12.448 21.0294 12.4585ZM22.5919 3.88554C22.6024 3.02096 21.894 2.32304 21.0399 2.31262C20.1961 2.31262 19.4982 2.98971 19.4774 3.83346C19.4565 4.68762 20.1544 5.41679 21.0086 5.42721C21.8732 5.44804 22.5815 4.73971 22.5919 3.88554ZM3.88361 22.5939C4.73777 22.5939 5.44611 21.8751 5.43569 21.021C5.42527 20.1772 4.72736 19.4897 3.88361 19.4793C3.01902 19.4689 2.32111 20.1772 2.32111 21.0314C2.32111 21.896 3.02944 22.5939 3.88361 22.5939ZM39.7482 21.021C39.7378 20.1668 39.0294 19.4689 38.1649 19.4793C37.3211 19.4897 36.6336 20.1876 36.6336 21.0314C36.6336 21.8855 37.3315 22.5939 38.1961 22.5939C39.0503 22.5939 39.7586 21.8855 39.7482 21.021ZM21.0294 39.7501C21.8836 39.7501 22.5919 39.0522 22.5919 38.1876C22.5919 37.3335 21.8836 36.6251 21.019 36.6355C20.1753 36.646 19.4878 37.3335 19.4774 38.1772C19.4669 39.0314 20.1753 39.7501 21.0294 39.7501ZM8.90444 10.448C9.77944 10.448 10.4565 9.77096 10.4565 8.89596C10.4565 8.02096 9.75861 7.33346 8.89402 7.34387C8.03986 7.35429 7.36277 8.03137 7.35236 8.88554C7.34194 9.75012 8.02944 10.448 8.90444 10.448ZM33.1544 10.448C34.0294 10.4585 34.7169 9.77096 34.7274 8.90637C34.7378 8.04179 34.0399 7.34387 33.1753 7.34387C32.3211 7.34387 31.644 8.01054 31.6336 8.86471C31.6128 9.75012 32.2794 10.4376 33.1544 10.448ZM10.4565 33.1564C10.4565 32.2814 9.76902 31.6147 8.8836 31.6251C8.02944 31.6355 7.35236 32.3126 7.35236 33.1668C7.35236 34.0314 8.03986 34.7293 8.90444 34.7293C9.77944 34.7189 10.4565 34.0314 10.4565 33.1564ZM31.6232 33.1772C31.6232 34.0522 32.3211 34.7397 33.1857 34.7293C34.0399 34.7189 34.7169 34.0418 34.7274 33.1876C34.7378 32.323 34.0503 31.6251 33.1753 31.6251C32.2899 31.6251 31.6128 32.3022 31.6232 33.1772Z" fill="#464646"/>
<path d="M19.4162 22.6563C18.5516 22.6563 17.7496 22.6563 16.9475 22.6563C16.6246 22.6563 16.3121 22.6354 16.1454 22.3125C15.9579 21.9583 16.1558 21.6979 16.3641 21.4375C18.0516 19.2813 19.7391 17.125 21.4266 14.9688C21.7287 14.5833 22.1141 14.4688 22.385 14.75C22.5308 14.9063 22.635 15.1771 22.635 15.4063C22.6558 16.5833 22.6454 17.7708 22.6454 18.9479C22.6454 19.0938 22.6454 19.2292 22.6454 19.4271C22.8121 19.4271 22.9475 19.4271 23.0829 19.4271C23.8225 19.4271 24.5621 19.3958 25.3016 19.4479C25.5204 19.4583 25.8121 19.6354 25.9058 19.8229C25.9891 19.9896 25.9266 20.3333 25.8016 20.4896C24.0725 22.7292 22.3225 24.9583 20.5829 27.1875C20.385 27.4375 20.1454 27.5521 19.8329 27.4479C19.5204 27.3333 19.4162 27.0833 19.4162 26.7708C19.4162 25.5729 19.4162 24.3854 19.4162 23.1875C19.4162 23.0208 19.4162 22.8646 19.4162 22.6563ZM24.0725 20.6979C23.9579 20.6771 23.9371 20.6667 23.9058 20.6667C23.3746 20.6667 22.8433 20.6667 22.3121 20.6667C21.5621 20.6667 21.4058 20.5104 21.4058 19.75C21.4058 18.8854 21.4058 18.0208 21.4058 17.1563C21.3746 17.1458 21.3537 17.1354 21.3225 17.125C20.2183 18.5313 19.1246 19.9375 17.9683 21.4063C18.6662 21.4063 19.2496 21.4063 19.8329 21.4063C20.4787 21.4063 20.6558 21.5938 20.6558 22.25C20.6558 22.4063 20.6558 22.5625 20.6558 22.7188C20.6558 23.4583 20.6558 24.1875 20.6558 24.9271C20.6871 24.9375 20.7079 24.9479 20.7391 24.9583C21.8433 23.5417 22.9475 22.1458 24.0725 20.6979Z" fill="#464646"/>
</svg>
