<svg width="42" height="42" viewBox="0 0 42 42" fill="none" xmlns="http://www.w3.org/2000/svg">
<path d="M21.6556 18.375H26.2494V15.75H23.6244V14.4375H20.9994V15.8156C20.202 15.9776 19.4931 16.43 19.0105 17.0852C18.5279 17.7403 18.3059 18.5514 18.3877 19.361C18.4695 20.1706 18.8492 20.9209 19.4531 21.4664C20.0569 22.0118 20.8419 22.3133 21.6556 22.3125H22.9681C23.1422 22.3125 23.3091 22.3816 23.4322 22.5047C23.5553 22.6278 23.6244 22.7947 23.6244 22.9688C23.6244 23.1428 23.5553 23.3097 23.4322 23.4328C23.3091 23.5559 23.1422 23.625 22.9681 23.625H18.3744V26.25H20.9994V27.5625H23.6244V26.1844C24.4218 26.0225 25.1307 25.57 25.6133 24.9148C26.0959 24.2597 26.3179 23.4486 26.2361 22.639C26.1543 21.8294 25.7746 21.0791 25.1707 20.5337C24.5669 19.9882 23.7819 19.6867 22.9681 19.6875H21.6556C21.4816 19.6875 21.3147 19.6184 21.1916 19.4953C21.0685 19.3722 20.9994 19.2053 20.9994 19.0312C20.9994 18.8572 21.0685 18.6903 21.1916 18.5672C21.3147 18.4441 21.4816 18.375 21.6556 18.375Z" fill="#464646"/>
<path d="M38.0625 17.0625H35.4113C35.3734 16.0255 35.1233 15.0074 34.6763 14.0709C34.2293 13.1345 33.595 12.2997 32.8125 11.6183V6.5625C32.8125 6.31875 32.7446 6.07982 32.6165 5.87248C32.4883 5.66514 32.305 5.49757 32.087 5.38856C31.869 5.27956 31.6249 5.23341 31.3821 5.2553C31.1394 5.27719 30.9075 5.36625 30.7125 5.5125L25.8129 9.1875H19.6875C12.4556 9.1875 7.26731 13.4413 6.63075 19.6875H6.5625C6.2144 19.6875 5.88056 19.5492 5.63442 19.3031C5.38828 19.0569 5.25 18.7231 5.25 18.375V15.75H2.625V18.375C2.62604 19.419 3.04122 20.4199 3.77942 21.1581C4.51762 21.8963 5.51853 22.3115 6.5625 22.3125H6.65438C6.84446 24.0336 7.40369 25.6934 8.29388 27.1787C9.18407 28.6639 10.3843 29.9396 11.8125 30.9186V35.4375C11.8125 35.7856 11.9508 36.1194 12.1969 36.3656C12.4431 36.6117 12.7769 36.75 13.125 36.75H18.375C18.7231 36.75 19.0569 36.6117 19.3031 36.3656C19.5492 36.1194 19.6875 35.7856 19.6875 35.4375V32.8125H23.625V35.4375C23.625 35.7856 23.7633 36.1194 24.0094 36.3656C24.2556 36.6117 24.5894 36.75 24.9375 36.75H30.1875C30.5356 36.75 30.8694 36.6117 31.1156 36.3656C31.3617 36.1194 31.5 35.7856 31.5 35.4375V31.0236C32.4477 30.5735 33.2763 29.907 33.9189 29.0778C34.5616 28.2486 35.0004 27.28 35.1999 26.25H38.0625C38.4106 26.25 38.7444 26.1117 38.9906 25.8656C39.2367 25.6194 39.375 25.2856 39.375 24.9375V18.375C39.375 18.0269 39.2367 17.6931 38.9906 17.4469C38.7444 17.2008 38.4106 17.0625 38.0625 17.0625ZM36.75 23.625H32.9753C32.5749 27.2383 31.8951 28.1991 28.875 29.2884V34.125H26.25V30.1875H17.0625V34.125H14.4375V29.3711C12.8568 28.6196 11.5233 27.4329 10.5934 25.9502C9.66345 24.4674 9.17575 22.7502 9.1875 21C9.1875 14.6541 14.4611 11.8125 19.6875 11.8125H26.6884L30.1875 9.1875V12.831C33.3611 15.2723 32.6983 17.0126 32.8361 19.6875H36.75V23.625Z" fill="#464646"/>
</svg>
