<svg width="34" height="34" viewBox="0 0 34 34" fill="none" xmlns="http://www.w3.org/2000/svg">
<g clip-path="url(#clip0_686_7570)">
<path d="M33.9995 15.8401C33.9553 16.4333 33.9198 17.0266 33.8667 17.6109C33.7959 18.4255 33.7516 19.2401 33.6365 20.0458C33.4506 21.3297 32.7954 22.401 32.0339 23.4193C30.8297 25.013 29.3334 26.3323 27.9167 27.7224C27.0667 28.5547 26.2433 29.4224 25.4199 30.2812C25.1542 30.5557 24.9417 30.8833 24.7204 31.2021C24.2688 31.8573 23.9855 32.5568 24.0652 33.3713C24.0829 33.5307 24.0652 33.6989 24.0652 33.8937C19.3813 33.8937 14.7152 33.8937 10.0136 33.8937C10.0136 33.7078 9.99589 33.5219 10.0136 33.3359C10.0844 32.5568 9.85423 31.8484 9.38495 31.2552C8.67662 30.3609 7.93287 29.4755 7.136 28.6609C5.82558 27.3151 4.45318 26.0401 3.13391 24.6943C2.30162 23.8531 1.60214 22.8969 1.04433 21.8521C0.51308 20.8604 0.353705 19.7802 0.291725 18.6911C0.203184 17.0531 0.123496 15.4062 0.0880796 13.7594C0.0703713 12.75 0.158913 11.7495 0.486517 10.7844C0.61933 10.3948 0.814121 10.0052 1.07089 9.68645C1.64641 8.96041 2.66464 8.86301 3.3287 9.50936C3.70943 9.88124 4.02818 10.3682 4.24954 10.8552C4.9136 12.3073 5.21464 13.8745 5.51568 15.4328C5.67506 16.2651 5.7636 17.1151 5.94068 17.9474C6.03808 18.4255 6.24173 18.8771 6.41881 19.4083C7.30422 18.1953 8.44641 18.1864 9.64173 18.4521C10.961 18.7443 12.1475 19.3552 13.2985 20.037C13.998 20.4531 14.7152 20.8604 15.3615 21.3562C15.9902 21.8432 16.5391 22.4364 17.1324 22.9943C17.2829 22.8172 17.4777 22.5693 17.6813 22.3302C18.3808 21.5245 19.2928 20.9932 20.187 20.4443C21.5417 19.612 22.9318 18.8328 24.499 18.4698C24.8266 18.3901 25.1719 18.3458 25.5172 18.337C26.3938 18.3016 27.1464 18.5672 27.6777 19.3286C28.1204 18.6026 28.2001 17.8057 28.324 17.0266C28.6251 15.1583 28.9615 13.3078 29.5813 11.5193C29.8204 10.8286 30.1126 10.1557 30.6438 9.63332C31.4141 8.86301 32.512 8.93384 33.1318 9.82811C33.3797 10.1911 33.5657 10.625 33.6808 11.05C33.8313 11.5989 33.8756 12.1745 33.9641 12.7411C33.9818 12.8651 34.0084 12.9979 34.0261 13.1219C33.9995 14.0338 33.9995 14.937 33.9995 15.8401ZM2.39902 11.537C2.3636 11.5458 2.31933 11.5458 2.28391 11.5547C2.23079 11.9974 2.1511 12.4401 2.11568 12.8828C1.95631 14.7953 2.11568 16.6989 2.25735 18.6026C2.32818 19.4969 2.41673 20.3911 2.91256 21.1703C3.19589 21.613 3.46152 22.0911 3.81568 22.4719C5.11725 23.8443 6.44537 25.1812 7.7735 26.5182C9.38495 28.1385 11.1292 29.6526 11.8641 31.9193C13.2719 31.9193 14.6709 31.9193 16.0876 31.9193C16.0876 31.7776 16.0876 31.6536 16.0876 31.5385C16.0876 29.8739 16.061 28.2005 16.0964 26.5359C16.1141 25.4646 15.76 24.5526 15.0605 23.7911C14.6266 23.3219 14.0865 22.9234 13.5553 22.5604C12.3777 21.7635 11.1469 21.0375 9.78339 20.5771C9.34954 20.4354 8.88027 20.3823 8.4287 20.3203C8.15423 20.2849 8.08339 20.4531 8.13652 20.6922C8.22506 21.0818 8.41985 21.4094 8.7386 21.6484C9.42922 22.162 10.1199 22.6844 10.8105 23.1979C11.386 23.6229 11.9527 24.0568 12.537 24.4995C12.1297 25.0396 11.749 25.5531 11.3594 26.0755C11.2886 26.0312 11.2443 26.0047 11.2089 25.9781C9.65943 24.8271 8.09225 23.676 6.55162 22.4896C5.08183 21.3562 4.20527 19.851 3.87766 18.0271C3.59433 16.4333 3.29329 14.8396 2.95683 13.2547C2.84173 12.6703 2.59381 12.1125 2.39902 11.537ZM21.5683 24.5172C21.6922 24.4198 21.7808 24.3489 21.8693 24.287C23.0115 23.437 24.1449 22.5781 25.287 21.7281C25.6501 21.4625 25.8891 21.1172 25.9777 20.6745C26.0219 20.462 25.9511 20.3203 25.712 20.338C25.473 20.3469 25.2251 20.3469 24.986 20.4C23.711 20.6833 22.5688 21.312 21.4797 21.9937C20.736 22.4542 19.9745 22.9323 19.3193 23.5167C18.487 24.2604 18.0443 25.2167 18.0709 26.3943C18.1152 28.112 18.0797 29.8385 18.0797 31.5651C18.0797 31.6891 18.0797 31.813 18.0797 31.9458C19.4876 31.9458 20.8334 31.9458 22.1881 31.9458C22.6219 30.476 23.5605 29.3338 24.5699 28.2448C24.9417 27.8375 25.3402 27.4568 25.7297 27.0672C27.0136 25.801 28.324 24.5703 29.5636 23.2687C30.7678 22.0026 31.7063 20.6125 31.7949 18.7443C31.8834 16.7521 32.0959 14.7599 31.9277 12.7588C31.8922 12.3604 31.8126 11.962 31.7594 11.5724C31.6089 11.7318 31.5381 11.8823 31.4761 12.0505C30.8032 13.8833 30.4933 15.8047 30.2188 17.726C29.9355 19.7359 29.0501 21.3917 27.4209 22.6135C25.9422 23.7292 24.4547 24.8359 22.9672 25.9516C22.8964 26.0047 22.8256 26.0401 22.737 26.1021C22.3475 25.562 21.9667 25.0484 21.5683 24.5172Z" fill="#464646"/>
<path d="M21.6675 6.5105e-05C22.1899 0.115169 22.73 0.194857 23.2347 0.363086C28.0336 1.95684 29.7956 8.24329 25.8732 11.9975C24.7222 13.1042 23.4029 13.9985 22.1368 14.9459C20.4722 16.2032 18.8342 17.4959 17.1873 18.7709C17.1342 18.8063 17.081 18.8506 17.0279 18.8949C16.3993 18.3725 15.7972 17.8324 15.1508 17.3542C13.4685 16.1058 11.7508 14.8928 10.0685 13.6532C9.0326 12.8917 8.07635 12.0417 7.31489 10.9969C4.41073 7.02142 6.65083 1.11569 11.7154 0.132878C11.9368 0.0886068 12.167 0.0443359 12.3883 6.5105e-05C12.7602 6.5105e-05 13.1409 6.5105e-05 13.5128 6.5105e-05C13.5482 0.0177734 13.5925 0.0443359 13.6279 0.0531901C14.9029 0.212565 15.9654 0.788086 16.8774 1.66465C16.9217 1.70892 16.9748 1.74434 17.0279 1.78861C17.8159 0.991732 18.7191 0.425065 19.7993 0.15944C20.0383 0.0974609 20.2862 0.0531901 20.5342 -0.00878906C20.9237 6.5105e-05 21.2956 6.5105e-05 21.6675 6.5105e-05ZM17.0279 16.2298C18.5774 15.0964 20.1357 13.9719 21.6764 12.8209C22.6149 12.1214 23.5534 11.4131 24.4123 10.6339C26.9446 8.33184 26.2451 4.9584 24.4211 3.32038C23.217 2.24017 21.818 1.73548 20.2066 2.11621C19.1795 2.36413 18.4446 3.0459 17.8868 3.92246C17.6034 4.36517 17.329 4.80788 17.0279 5.29486C16.7003 4.77246 16.417 4.28548 16.0982 3.82507C15.3633 2.74486 14.3894 2.02767 13.0435 1.99225C9.91802 1.92142 7.45656 4.94954 8.12062 8.01309C8.38625 9.24382 9.08573 10.2178 10.0154 11.0146C10.9008 11.7761 11.8482 12.4667 12.7868 13.1662C14.1857 14.2021 15.6201 15.2204 17.0279 16.2298Z" fill="#464646"/>
<path d="M18.0164 5.98542C18.0164 6.66719 18.0164 7.3224 18.0164 8.01302C18.6805 8.01302 19.3268 8.01302 19.9909 8.01302C19.9909 8.68594 19.9909 9.32344 19.9909 9.99635C19.3534 9.99635 18.707 9.99635 18.0253 9.99635C18.0253 10.6781 18.0253 11.3156 18.0253 11.9797C17.3523 11.9797 16.7148 11.9797 16.0419 11.9797C16.0419 11.3422 16.0419 10.6958 16.0419 10.0141C15.3602 10.0141 14.7227 10.0141 14.0586 10.0141C14.0586 9.34115 14.0586 8.70365 14.0586 8.03073C14.6961 8.03073 15.3424 8.03073 16.0242 8.03073C16.0242 7.33125 16.0242 6.65833 16.0242 5.97656C16.6971 5.98542 17.3346 5.98542 18.0164 5.98542Z" fill="#464646"/>
</g>
<defs>
<clipPath id="clip0_686_7570">
<rect width="34" height="34" fill="white"/>
</clipPath>
</defs>
</svg>
