<svg width="42" height="42" viewBox="0 0 42 42" fill="none" xmlns="http://www.w3.org/2000/svg">
<g clip-path="url(#clip0_586_51596)">
<g clip-path="url(#clip1_586_51596)">
<g clip-path="url(#clip2_586_51596)">
<path d="M16.8438 40C16.8066 39.9703 16.7695 39.9406 16.7324 39.9109C16.4281 39.7031 16.2648 39.4359 16.3762 39.0574C16.4727 38.7086 16.7473 38.5156 17.1629 38.5156C18.6992 38.5082 20.2281 38.5156 21.7645 38.5156C22.4102 38.5156 23.0484 38.5156 23.7461 38.5156C23.7461 38.3301 23.7461 38.1668 23.7461 37.9961C23.7461 37.3652 23.7387 36.7344 23.7461 36.1035C23.7609 34.8121 24.7109 33.8547 25.9949 33.8398C26.7816 33.8324 27.5758 33.8398 28.4145 33.8398C28.4145 33.3203 28.4145 32.8156 28.4145 32.3184C28.4145 31.8879 28.4293 31.45 28.407 31.0195C28.3996 30.9008 28.3031 30.7375 28.2066 30.6855C24.6516 28.9043 22.5809 26.0469 21.9723 22.1207C21.9648 22.0762 21.95 22.0316 21.9352 21.95C21.7941 21.95 21.6605 21.95 21.527 21.95C19.7605 21.95 17.9867 21.95 16.2203 21.95C16.109 21.95 15.9977 21.9574 15.8863 21.9426C15.4559 21.898 15.1738 21.5863 15.1887 21.1781C15.2035 20.7699 15.493 20.473 15.9383 20.473C17.4375 20.4656 18.9293 20.4656 20.4285 20.4656C20.8961 20.4656 21.3637 20.4656 21.8609 20.4656C21.8609 18.2613 21.8609 16.0793 21.8609 13.8602C21.7199 13.8602 21.5863 13.8602 21.4602 13.8602C19.6641 13.8602 17.8754 13.8602 16.0793 13.8602C15.5375 13.8602 15.2184 13.6078 15.1961 13.1699C15.1738 12.7543 15.4484 12.4277 15.8641 12.3906C15.9977 12.3758 16.1387 12.3832 16.2723 12.3832C18.9664 12.3832 21.668 12.3832 24.3621 12.3832C24.5551 12.3832 24.7629 12.3684 24.9484 12.309C26.0098 11.9824 27.0711 11.641 28.1324 11.3219C28.3625 11.2551 28.4367 11.1512 28.4367 10.9137C28.4293 9.33281 28.4293 7.74453 28.4293 6.16367C28.4293 5.54766 28.1621 5.28047 27.5461 5.28047C25.8984 5.28047 24.2582 5.28047 22.6105 5.28047C22.5141 5.28047 22.4176 5.28789 22.2766 5.29531C22.2766 5.5625 22.284 5.81484 22.2766 6.07461C22.2543 6.96523 21.5863 7.64805 20.6883 7.64805C17.534 7.65547 14.3797 7.65547 11.2254 7.64805C10.3348 7.64805 9.6668 6.95781 9.64453 6.05977C9.63711 5.81484 9.64453 5.56992 9.64453 5.29531C9.51094 5.28789 9.40703 5.27305 9.2957 5.27305C7.66289 5.27305 6.03008 5.27305 4.39727 5.27305C3.75156 5.26562 3.48438 5.52539 3.48438 6.15625C3.48438 16.6434 3.48438 27.1305 3.48438 37.625C3.48438 38.2484 3.75898 38.5156 4.40469 38.5156C6.37148 38.5156 8.33828 38.5156 10.3051 38.5156C10.884 38.5156 11.2773 38.9535 11.1066 39.4359C11.025 39.6512 10.7801 39.8145 10.6168 39.9926C8.36797 39.9926 6.11172 39.9926 3.86289 39.9926C2.8832 39.7328 2.26719 39.1168 2.00742 38.1371C2 27.3086 2 16.4727 2 5.63672C2.31172 4.41211 3.20234 3.70703 4.72383 3.76641C6.21563 3.82578 7.71484 3.78125 9.20664 3.78125C9.34023 3.78125 9.46641 3.78125 9.63711 3.78125C9.63711 3.47695 9.65195 3.22461 9.62969 2.96484C9.59258 2.51953 9.75586 2.20039 10.1641 2C14.0234 2 17.8828 2 21.7422 2C22.143 2.20039 22.3063 2.51953 22.2766 2.96484C22.2543 3.23203 22.2691 3.49922 22.2691 3.78125C24.0727 3.78125 25.8168 3.78125 27.5535 3.78125C28.9637 3.78125 29.8988 4.72383 29.9062 6.12656C29.9062 7.52187 29.9062 8.91719 29.9062 10.3199C29.9062 10.4461 29.9062 10.5797 29.9062 10.7355C30.0473 10.6984 30.1512 10.691 30.2402 10.6465C30.7301 10.409 31.2051 10.4906 31.7098 10.6539C34.2035 11.448 36.6973 12.2199 39.1984 12.9918C39.5398 13.0957 39.8367 13.2367 40.0074 13.5781C40.0074 16.25 40.0074 18.9219 40.0074 21.5938C39.9852 21.6977 39.9555 21.8016 39.9406 21.9129C39.3395 26.2621 37.009 29.2902 32.9641 30.9824C32.0289 31.3758 31.0492 31.7543 29.9953 31.3387C29.9805 31.3312 29.9582 31.3535 29.9137 31.3684C29.9137 32.348 29.8988 33.3352 29.9211 34.3223C29.9285 34.7082 29.8098 35.0051 29.5352 35.2797C28.1176 36.6824 26.7223 38.0926 25.3047 39.4953C25.1266 39.6734 24.9188 39.8293 24.7184 40C22.091 40 19.4637 40 16.8438 40ZM23.375 14.3426C23.375 16.4949 23.3676 18.6102 23.375 20.7254C23.3898 25.0969 26.2918 28.8375 30.5297 29.9285C30.7895 29.9953 31.0938 29.9953 31.3535 29.9285C35.5914 28.8375 38.4934 25.1043 38.5082 20.7254C38.5156 18.959 38.5082 17.1926 38.5082 15.4187C38.5082 15.0625 38.5082 14.7063 38.5082 14.3426C38.382 14.298 38.2781 14.2609 38.1742 14.2312C36.0516 13.5707 33.9289 12.925 31.8211 12.2273C31.2125 12.027 30.6781 12.0344 30.0695 12.2273C27.8578 12.9621 25.6238 13.6449 23.375 14.3426ZM11.1215 3.49922C11.1215 4.32305 11.1289 5.11719 11.1215 5.90391C11.1215 6.13398 11.2328 6.16367 11.4184 6.16367C14.4465 6.16367 17.4746 6.15625 20.4953 6.16367C20.7328 6.16367 20.7848 6.06719 20.7848 5.85195C20.7773 5.12461 20.7848 4.39727 20.7773 3.6625C20.7773 3.60312 20.7551 3.55117 20.7402 3.4918C17.5414 3.49922 14.3574 3.49922 11.1215 3.49922ZM27.3234 35.3316C26.8113 35.3316 26.3438 35.3094 25.8836 35.3391C25.557 35.3613 25.3047 35.5766 25.2676 35.8883C25.223 36.3781 25.2527 36.8754 25.2527 37.3949C25.943 36.7047 26.6109 36.0441 27.3234 35.3316Z" fill="#464646"/>
<path d="M13.5024 40.0001C13.2129 39.7997 12.9606 39.577 13.0051 39.1762C13.0422 38.8422 13.3243 38.5602 13.6583 38.5231C13.9774 38.486 14.2965 38.679 14.4227 38.9833C14.5563 39.3024 14.4524 39.6512 14.1629 39.8665C14.0961 39.9184 14.0219 39.9555 13.9477 40.0075C13.7993 40.0001 13.6508 40.0001 13.5024 40.0001Z" fill="#464646"/>
<path d="M19.2848 28.5628C20.3461 28.5628 21.4074 28.5628 22.4762 28.5628C23.0105 28.5628 23.3445 28.8597 23.3371 29.3125C23.3297 29.7503 23.0031 30.0398 22.4836 30.0398C20.3312 30.0472 18.1789 30.0472 16.034 30.0398C15.5145 30.0398 15.2027 29.7503 15.1953 29.2976C15.1953 28.8449 15.507 28.5554 16.0266 28.5554C17.1102 28.5554 18.1937 28.5628 19.2848 28.5628Z" fill="#464646"/>
<path d="M9.03606 31.5539C9.3181 31.2645 9.54817 31.027 9.77825 30.7895C10.3794 30.1883 10.9806 29.5797 11.5892 28.986C11.938 28.6446 12.3759 28.6446 12.6802 28.9563C12.9771 29.2606 12.9845 29.6836 12.6505 30.0176C11.6486 31.0418 10.6318 32.0512 9.60755 33.0606C9.24388 33.4168 8.85794 33.4094 8.49427 33.0606C8.0638 32.6524 7.64817 32.2293 7.23255 31.8063C6.89114 31.4575 6.89114 31.027 7.20286 30.7227C7.49974 30.4332 7.9302 30.4332 8.26419 30.7524C8.52395 30.9824 8.76145 31.2571 9.03606 31.5539Z" fill="#464646"/>
<path d="M9.03783 15.352C9.86166 14.5281 10.6335 13.7563 11.4128 12.977C11.9101 12.4797 12.3331 12.4129 12.682 12.7766C13.0234 13.1328 12.9566 13.5262 12.4593 14.0234C11.5538 14.9289 10.641 15.8418 9.73549 16.7473C9.2308 17.252 8.88197 17.252 8.37729 16.7547C7.99877 16.3836 7.62026 16.0051 7.24916 15.6266C6.90033 15.2703 6.88549 14.8547 7.18237 14.543C7.48666 14.2238 7.9394 14.2387 8.29565 14.5875C8.54799 14.8176 8.77065 15.0625 9.03783 15.352Z" fill="#464646"/>
<path d="M9.03623 23.4343C9.83779 22.6327 10.5948 21.8757 11.3519 21.1186C11.4483 21.0221 11.5374 20.9182 11.6413 20.8366C11.9753 20.5546 12.3909 20.5694 12.6729 20.8663C12.9476 21.1557 12.9624 21.5491 12.6878 21.8682C12.4874 22.0983 12.2573 22.3136 12.0421 22.5288C11.2776 23.3007 10.5058 24.0725 9.73388 24.837C9.22919 25.3417 8.87295 25.3417 8.37568 24.8444C7.99716 24.4733 7.61865 24.0948 7.24755 23.7163C6.8913 23.3452 6.87646 22.9147 7.20302 22.603C7.50732 22.3136 7.94521 22.3358 8.29404 22.6698C8.54638 22.9073 8.76904 23.1522 9.03623 23.4343Z" fill="#464646"/>
<path d="M18.4754 31.8211C19.277 31.8211 20.0785 31.8137 20.8801 31.8211C21.4293 31.8211 21.7484 32.1106 21.741 32.5633C21.7336 33.0012 21.4145 33.2981 20.8949 33.2981C19.2695 33.3055 17.6367 33.3055 16.0113 33.2981C15.4992 33.2981 15.1875 32.9938 15.1875 32.5411C15.1949 32.0958 15.5066 31.8211 16.0336 31.8137C16.85 31.8137 17.659 31.8211 18.4754 31.8211Z" fill="#464646"/>
<path d="M17.6887 23.7238C18.2305 23.7238 18.7723 23.7163 19.3215 23.7238C19.8336 23.7312 20.1676 24.0281 20.1602 24.4585C20.1602 24.8816 19.841 25.1933 19.3512 25.2007C18.2305 25.2156 17.1023 25.2156 15.9816 25.2007C15.4918 25.1933 15.1875 24.8964 15.1875 24.4585C15.1875 24.0206 15.4918 23.7312 15.9891 23.7238C16.5531 23.7163 17.1246 23.7238 17.6887 23.7238Z" fill="#464646"/>
<path d="M17.615 15.6339C18.1494 15.6339 18.6763 15.6265 19.2107 15.6339C19.6857 15.6413 19.99 15.9308 19.9974 16.3464C20.0123 16.7769 19.7005 17.1034 19.2181 17.1109C18.1345 17.1257 17.0435 17.1257 15.9525 17.1109C15.4701 17.1034 15.1732 16.7843 15.188 16.339C15.2029 15.9159 15.4998 15.6413 15.9748 15.6339C16.524 15.6265 17.0658 15.6339 17.615 15.6339Z" fill="#464646"/>
<path d="M24.8594 18.6324C24.8594 17.7937 24.8594 16.9476 24.8594 16.1089C24.8594 15.6117 25.0227 15.3816 25.4977 15.2332C27.2047 14.6988 28.9117 14.1644 30.6262 13.6449C30.8266 13.5855 31.0715 13.5855 31.2719 13.6449C32.9715 14.157 34.6711 14.6914 36.3707 15.2183C36.8754 15.3742 37.0313 15.5968 37.0313 16.1089C37.0313 17.6898 37.0461 19.2781 37.0313 20.8589C36.9941 24.2878 34.6785 27.3902 31.3906 28.3773C31.116 28.4589 30.7672 28.4589 30.5 28.3699C27.1453 27.3308 24.8816 24.2507 24.8668 20.7402C24.8594 20.0425 24.8594 19.3375 24.8594 18.6324ZM35.6137 18.9664C35.5914 18.9664 35.5691 18.9664 35.5469 18.9589C35.5469 18.2687 35.532 17.571 35.5543 16.8808C35.5617 16.6136 35.4875 16.4949 35.2203 16.4132C33.8695 16.005 32.5336 15.5746 31.1902 15.1664C31.0492 15.1218 30.8637 15.1218 30.7227 15.1664C29.3422 15.5894 27.9691 16.0273 26.5887 16.4503C26.3957 16.5097 26.3363 16.5914 26.3438 16.7843C26.3512 18.2093 26.3215 19.6269 26.3586 21.0519C26.4254 23.6273 28.2512 26.0617 30.693 26.8781C30.8414 26.93 31.0418 26.9449 31.1828 26.8929C33.4316 26.0468 34.8863 24.4511 35.3762 22.0984C35.584 21.0816 35.5395 20.0054 35.6137 18.9664Z" fill="#464646"/>
<path d="M30.2634 21.5047C31.1244 20.6364 31.9259 19.8274 32.7275 19.0258C33.0912 18.6621 33.5662 18.6473 33.8705 18.9813C34.1302 19.2707 34.1451 19.6864 33.8482 19.9832C32.8388 21.0149 31.8146 22.0317 30.783 23.0485C30.4861 23.3379 30.0556 23.3231 29.7513 23.0262C29.1724 22.4696 28.6084 21.8981 28.0517 21.3266C27.7474 21.0149 27.7623 20.5844 28.0443 20.295C28.3337 19.9981 28.7791 19.9832 29.1056 20.295C29.4916 20.6809 29.8552 21.0817 30.2634 21.5047Z" fill="#464646"/>
</g>
</g>
</g>
<defs>
<clipPath id="clip0_586_51596">
<rect width="42" height="42" fill="white"/>
</clipPath>
<clipPath id="clip1_586_51596">
<rect width="42" height="42" fill="white"/>
</clipPath>
<clipPath id="clip2_586_51596">
<rect width="38" height="38" fill="white" transform="translate(2 2)"/>
</clipPath>
</defs>
</svg>
