<svg width="42" height="42" viewBox="0 0 42 42" fill="none" xmlns="http://www.w3.org/2000/svg">
<g clip-path="url(#clip0_586_51547)">
<g clip-path="url(#clip1_586_51547)">
<path d="M-0.0015625 37.2531C0.29375 36.5422 0.829688 36.2578 1.59531 36.3235C1.89063 36.3563 2.19688 36.3235 2.54688 36.3235C2.54688 36.1156 2.54688 35.9516 2.54688 35.7766C2.54688 28.8422 2.54688 21.9188 2.54688 14.9844C2.54688 13.6063 3.30156 12.5672 4.55938 12.25C4.84375 12.1735 5.15 12.1625 5.45625 12.1625C6.86719 12.1516 8.26719 12.1625 9.67813 12.1625C9.83125 12.1625 9.97344 12.1625 10.1156 12.1625C10.1484 12.0969 10.1813 12.0641 10.1813 12.0313C10.0828 11.0906 10.5531 10.5547 11.3953 10.2266C11.7234 10.0953 12.0297 9.9094 12.3469 9.74533C12.3359 9.70158 12.3141 9.65783 12.3031 9.61408C12.2047 9.60315 12.1063 9.58127 12.0078 9.58127C10.6188 9.58127 9.21875 9.58127 7.82969 9.57033C7.58906 9.57033 7.47969 9.6469 7.37031 9.85471C6.95469 10.6313 6.07969 10.9922 5.24844 10.7844C4.40625 10.5766 3.82656 9.81096 3.82656 8.9469C3.8375 8.09377 4.41719 7.33908 5.22656 7.14221C6.06875 6.9344 6.93281 7.2844 7.34844 8.0719C7.46875 8.30158 7.6 8.36721 7.85156 8.36721C9.40469 8.35627 10.9688 8.36721 12.5875 8.36721C12.2266 7.3719 11.7234 6.38752 12.9375 5.6219C12.1391 4.82346 11.3953 4.06877 10.6297 3.33596C10.5531 3.2594 10.4109 3.23752 10.2906 3.23752C10.0828 3.22658 9.875 3.24846 9.67813 3.22658C9.15312 3.18283 8.7375 3.22658 8.40938 3.79533C8.00469 4.49533 7.05313 4.67033 6.2875 4.37502C5.52188 4.07971 5.02969 3.30315 5.08438 2.50471C5.13906 1.6844 5.70781 1.00627 6.50625 0.798458C7.28281 0.590645 8.15781 0.91877 8.55156 1.62971C8.72656 1.93596 8.9125 2.00158 9.21875 2.00158C11.275 1.99065 10.925 1.90315 12.3141 3.28127C12.7844 3.75158 13.2547 4.23283 13.7031 4.69221C13.7797 4.67033 13.8234 4.67033 13.8344 4.6594C14.4141 3.93752 15.125 3.79533 15.9453 4.20002C16.0438 4.24377 16.1641 4.25471 16.2516 4.3094C16.875 4.69221 17.3891 4.27658 17.9359 4.07971C18.0234 4.0469 18.0672 3.91565 18.1219 3.81721C18.3078 3.46721 18.4828 3.11721 18.6578 2.75627C18.8984 2.26408 19.2922 2.01252 19.8281 2.00158C20.5938 1.99065 21.3594 1.99065 22.125 2.00158C22.6609 2.01252 23.0656 2.25315 23.2953 2.75627C23.3719 2.92033 23.4813 3.06252 23.525 3.23752C23.7328 3.94846 24.2688 4.26565 24.9141 4.45158C25.0234 4.4844 25.1547 4.47346 25.2641 4.45158C25.5922 4.35315 25.9203 4.25471 26.2375 4.12346C26.9156 3.85002 27.4953 3.9594 27.9766 4.51721C28.0313 4.58283 28.0969 4.62658 28.2828 4.81252C28.4906 4.55002 28.6656 4.28752 28.8844 4.0469C29.3875 3.5219 29.9125 3.02971 30.4156 2.50471C30.7547 2.15471 31.1484 2.00158 31.6297 2.00158C32.0563 2.00158 32.4828 1.99065 32.8984 2.00158C33.1172 2.01252 33.2266 1.93596 33.3359 1.73908C33.7844 0.91877 34.6703 0.557833 35.5344 0.820333C36.3766 1.0719 36.9453 1.89221 36.8797 2.74533C36.8141 3.64221 36.1578 4.34221 35.25 4.49533C34.5063 4.61565 33.7188 4.23283 33.3359 3.51096C33.2266 3.29221 33.0844 3.2594 32.8656 3.22658C31.8375 3.06252 31.0609 3.41252 30.4156 4.2219C30.0219 4.71408 29.5188 5.12971 29.0156 5.6219C30.2406 6.39846 29.7484 7.38283 29.3766 8.36721C30.1531 8.36721 30.8641 8.36721 31.5641 8.36721C32.3188 8.36721 33.0734 8.34533 33.8172 8.37815C34.2219 8.38908 34.4953 8.32346 34.725 7.91877C35.1406 7.1969 36.0594 6.9344 36.8469 7.1969C37.6453 7.47033 38.1484 8.19221 38.1266 9.04533C38.1047 9.87658 37.525 10.5985 36.7266 10.8063C35.9172 11.0141 35.0422 10.675 34.6484 9.94221C34.4953 9.6469 34.3094 9.58127 34.0141 9.59221C32.7016 9.60314 31.3891 9.60315 30.0766 9.60315C29.9453 9.60315 29.8141 9.60315 29.6828 9.60315C29.6719 9.63596 29.65 9.66877 29.6391 9.70158C29.7375 9.78908 29.8359 9.88752 29.9453 9.95315C30.2406 10.1172 30.5469 10.2813 30.8641 10.4125C31.5094 10.686 31.8047 11.1672 31.7719 11.8563C31.7719 11.9547 31.7828 12.0422 31.7938 12.1953C31.9469 12.1953 32.0891 12.1953 32.2422 12.1953C33.6641 12.1953 35.0859 12.1953 36.5078 12.1953C38.3234 12.2063 39.4172 13.2891 39.4172 15.1047C39.4172 22.0063 39.4172 28.9078 39.4172 35.8203C39.4172 35.9844 39.4172 36.1485 39.4172 36.3672C39.7563 36.3672 40.0625 36.3891 40.3688 36.3672C41.1344 36.2906 41.6594 36.586 41.9656 37.2969C41.9656 37.9203 41.9656 38.5547 41.9656 39.1781C41.8125 39.5391 41.6922 39.9328 41.4844 40.25C40.9047 41.1141 40.0406 41.4094 39.0125 41.4094C26.9813 41.3985 14.9609 41.3985 2.92969 41.3985C2.79844 41.3985 2.65625 41.3985 2.525 41.3875C1.5625 41.3328 0.829688 40.8844 0.348438 40.075C0.184375 39.8016 0.096875 39.4735 -0.0234375 39.1781C-0.0015625 38.511 -0.0015625 37.8766 -0.0015625 37.2531ZM40.7516 37.5813C40.6094 37.5703 40.4891 37.5594 40.3688 37.5594C35.8078 37.5594 31.2359 37.5594 26.675 37.5703C26.4781 37.5703 26.2266 37.6906 26.0844 37.8328C25.4172 38.5328 24.6297 38.8391 23.6672 38.8281C21.8953 38.7953 20.1125 38.7953 18.3406 38.8281C17.3781 38.8391 16.5906 38.5328 15.9234 37.8438C15.7813 37.6906 15.5078 37.5813 15.2891 37.5813C13.3641 37.5594 11.4391 37.5703 9.50313 37.5703C9.32812 37.5703 9.14219 37.5703 8.97813 37.5156C8.60625 37.4063 8.45312 36.9906 8.63906 36.6516C8.79219 36.3672 9.05469 36.3344 9.33906 36.3453C11.2969 36.3453 13.2547 36.3781 15.2016 36.3344C15.8906 36.3235 16.4156 36.4766 16.8422 37.0235C17.1922 37.4828 17.6844 37.625 18.2531 37.6141C19.9594 37.5922 21.6766 37.5703 23.3828 37.625C24.2141 37.6469 24.8813 37.4391 25.3953 36.7828C25.6578 36.4328 26.0078 36.3453 26.4344 36.3453C30.1969 36.3563 33.9484 36.3563 37.7109 36.3563C37.875 36.3563 38.0281 36.3563 38.2141 36.3563C38.2141 36.1594 38.2141 36.0281 38.2141 35.886C38.2141 28.9406 38.2141 21.9953 38.2141 15.05C38.2141 13.9672 37.6563 13.4094 36.5734 13.4094C26.1828 13.4094 15.7922 13.4094 5.40156 13.4094C4.31875 13.4094 3.77188 13.9672 3.77188 15.05C3.77188 21.9953 3.77188 28.9406 3.77188 35.886C3.77188 36.0281 3.78281 36.1703 3.79375 36.3453C4.65781 36.3453 5.47813 36.3453 6.29844 36.3453C6.64844 36.3453 6.86719 36.5313 6.9 36.8813C6.94375 37.2203 6.73594 37.4828 6.375 37.5485C6.24375 37.5703 6.10156 37.5703 5.97031 37.5703C4.54844 37.5703 3.12656 37.5703 1.70469 37.5703C1.5625 37.5703 1.40938 37.5703 1.24531 37.5703C1.24531 38.0516 1.2125 38.4891 1.25625 38.9156C1.31094 39.4953 1.78125 39.9875 2.35 40.1078C2.55781 40.1516 2.7875 40.1406 3.00625 40.1406C15.0047 40.1406 27.0141 40.1406 39.0125 40.1406C39.1438 40.1406 39.2859 40.1406 39.4172 40.1297C40.1063 40.086 40.675 39.5828 40.7516 38.9047C40.7953 38.4781 40.7516 38.0406 40.7516 37.5813ZM11.4609 12.1188C11.4938 12.1297 11.5375 12.1516 11.5703 12.1516C13.1672 12.1516 14.7641 12.1625 16.3719 12.1406C16.4703 12.1406 16.6016 11.9656 16.6563 11.8453C16.9516 11.2438 17.225 10.6203 17.5422 10.0188C17.6078 9.88752 17.8156 9.7344 17.9578 9.74533C18.1656 9.75627 18.4172 9.84377 18.5594 9.98596C18.7781 10.2047 18.7125 10.4891 18.5266 10.7297C18.2094 11.1453 17.9578 11.5828 17.8813 12.1188C19.9813 12.1188 22.0375 12.1188 24.1266 12.1188C24.1047 12.0094 24.1047 11.9328 24.0828 11.8563C23.6781 10.4563 22.4203 9.5594 20.8672 9.5594C20.3422 9.5594 20.0688 9.35158 20.0688 8.95783C20.0688 8.56408 20.3531 8.34533 20.8672 8.33439C23.0219 8.27971 24.8594 9.70158 25.3406 11.8016C25.4063 12.075 25.5047 12.1516 25.7672 12.1516C27.2547 12.1406 28.7422 12.1516 30.2406 12.1406C30.35 12.1406 30.4594 12.1297 30.5578 12.1188C30.6781 11.7469 30.5797 11.5172 30.2188 11.375C29.8906 11.2438 29.5625 11.1016 29.2672 10.8938C29.0266 10.7188 28.7422 10.5 28.6438 10.2266C27.9875 8.54221 27.8453 9.13283 28.4797 7.29533C28.5016 7.22971 28.5453 7.16408 28.5453 7.09846C28.5234 6.94533 28.5234 6.74846 28.4359 6.63908C28.0969 6.26721 27.7031 5.93908 27.375 5.55627C27.1016 5.22815 26.8172 5.12971 26.4234 5.32658C25.5594 5.76408 24.7281 5.75315 23.8531 5.30471C23.3719 5.05315 22.9234 4.81252 22.7594 4.27658C22.4859 3.36877 21.9281 3.12815 20.9875 3.13908C20.1125 3.15002 19.6531 3.36877 19.3141 4.18908C18.8328 5.34846 17.3344 5.96096 16.175 5.49065C15.3875 5.17346 14.9063 5.29377 14.2828 5.89533C13.5938 6.57346 13.3422 7.14221 13.7906 8.01721C13.9328 8.30158 13.9656 8.72815 13.8781 9.0344C13.5938 10.0625 13.1344 10.9703 11.975 11.2875C11.9203 11.2985 11.8766 11.3422 11.8328 11.3641C11.45 11.5172 11.3078 11.7469 11.4609 12.1188ZM6.9875 3.2594C7.3375 3.2594 7.63281 2.96408 7.63281 2.61408C7.63281 2.25315 7.35938 1.96877 6.99844 1.95783C6.61562 1.9469 6.32031 2.25315 6.32031 2.61408C6.33125 2.96408 6.64844 3.2594 6.9875 3.2594ZM35.6766 2.60315C35.6766 2.25315 35.3922 1.95783 35.0313 1.95783C34.6594 1.95783 34.3859 2.22033 34.375 2.58127C34.3641 2.95315 34.6703 3.27033 35.0313 3.2594C35.3703 3.2594 35.6766 2.94221 35.6766 2.60315ZM5.72969 9.60315C6.09063 9.59221 6.38594 9.2969 6.375 8.9469C6.36406 8.5969 6.05781 8.30158 5.70781 8.31252C5.34688 8.32346 5.07344 8.60783 5.07344 8.97971C5.07344 9.34064 5.35781 9.61408 5.72969 9.60315ZM36.9344 8.9469C36.9234 8.58596 36.6391 8.30158 36.2781 8.31252C35.9172 8.32346 35.6219 8.61877 35.6328 8.97971C35.6438 9.34064 35.9391 9.62502 36.3 9.61408C36.6609 9.60315 36.9344 9.31877 36.9344 8.9469Z" fill="#464646"/>
<path d="M21.0406 14.7109C26.0062 14.7109 30.9609 14.7109 35.9266 14.7109C36.7578 14.7109 36.9109 14.8531 36.9109 15.6844C36.9109 21.8094 36.9109 27.9344 36.9109 34.0594C36.9109 34.8469 36.7469 35.0109 35.9484 35.0109C25.9844 35.0109 16.0203 35.0109 6.05625 35.0109C5.26875 35.0109 5.09375 34.8469 5.09375 34.0484C5.09375 27.9234 5.09375 21.7984 5.09375 15.6734C5.09375 14.8531 5.23594 14.7109 6.07812 14.7109C11.0656 14.7109 16.0531 14.7109 21.0406 14.7109ZM6.34063 33.7422C16.1297 33.7422 25.8969 33.7422 35.6531 33.7422C35.6531 27.7922 35.6531 21.875 35.6531 15.9688C25.8641 15.9688 16.1188 15.9688 6.34063 15.9688C6.34063 21.9078 6.34063 27.8031 6.34063 33.7422Z" fill="#464646"/>
<path d="M26.0737 21.0219C26.0737 21.361 26.0846 21.6454 26.0737 21.9297C26.0518 22.3454 25.8112 22.5969 25.4503 22.5969C25.0893 22.5969 24.8487 22.3344 24.8487 21.9188C24.8378 21.4375 24.8378 20.9672 24.8487 20.486C24.8596 20.0266 25.0674 19.8079 25.5268 19.7969C26.0846 19.786 26.6424 19.7969 27.2112 19.7969C27.7143 19.7969 28.0315 19.5344 28.0315 19.1297C28.0315 18.725 27.7362 18.4844 27.2112 18.4844C25.1987 18.4844 23.1971 18.4844 21.1846 18.4844C20.6487 18.4844 20.3643 18.7141 20.3534 19.1188C20.3424 19.5344 20.6596 19.7969 21.1956 19.7969C21.6987 19.7969 22.2018 19.7969 22.7159 19.7969C23.3503 19.7969 23.5471 19.9938 23.5471 20.6282C23.5471 23.8219 23.5471 27.0157 23.5471 30.2094C23.5471 30.3407 23.5362 30.4829 23.5581 30.6141C23.5909 30.975 23.8096 31.1938 24.1706 31.2157C24.5315 31.2375 24.7612 31.0407 24.8487 30.6907C24.8815 30.5594 24.8706 30.4172 24.8706 30.286C24.8706 28.5141 24.8706 26.7422 24.8706 24.9594C24.8706 24.3907 25.3628 24.0407 25.7784 24.336C25.9424 24.4563 26.0846 24.7079 26.0846 24.9047C26.1065 26.8188 26.1174 28.7219 26.0846 30.636C26.0737 31.675 25.2096 32.4516 24.1815 32.4516C23.1424 32.4407 22.3221 31.6313 22.3221 30.5704C22.3112 27.5735 22.3221 24.5657 22.3221 21.5688C22.3221 21.4047 22.3221 21.2407 22.3221 21.0219C21.8737 21.0219 21.4471 21.0329 21.0315 21.0219C20.1893 21 19.5003 20.5079 19.2378 19.7641C18.9753 19.0204 19.1721 18.1672 19.8174 17.7079C20.1565 17.4672 20.6049 17.2813 21.0096 17.2813C23.1315 17.2375 25.2424 17.2485 27.3643 17.2704C28.4471 17.2813 29.2456 18.0797 29.2674 19.1188C29.2893 20.136 28.4799 20.9782 27.4081 21.0329C26.9815 21.0438 26.5659 21.0219 26.0737 21.0219Z" fill="#464646"/>
<path d="M14.0189 24.8499C14.0189 22.9905 14.0189 21.1421 14.0189 19.2827C14.0189 18.0905 14.7954 17.2593 15.9001 17.2593C17.0048 17.2593 17.7923 18.1015 17.7923 19.2827C17.7923 23.0233 17.7923 26.753 17.7923 30.4937C17.7923 31.4124 17.2673 32.1343 16.447 32.3858C15.6485 32.6265 14.7626 32.3312 14.336 31.6093C14.1501 31.2812 14.0298 30.8655 14.0298 30.4937C13.997 28.6124 14.0189 26.7312 14.0189 24.8499ZM15.2439 24.8499C15.2439 26.589 15.2439 28.339 15.2439 30.078C15.2439 30.253 15.2329 30.428 15.2548 30.614C15.2876 30.9749 15.4954 31.1827 15.8564 31.2265C16.2064 31.2593 16.4907 31.0296 16.5564 30.6687C16.5782 30.5593 16.5673 30.4499 16.5673 30.3405C16.5673 26.6874 16.5673 23.0343 16.5673 19.3812C16.5673 19.228 16.5673 19.0749 16.5235 18.9327C16.4142 18.6046 16.1735 18.4515 15.8345 18.4843C15.5064 18.5171 15.3204 18.714 15.2657 19.0312C15.2439 19.1515 15.2548 19.2718 15.2548 19.403C15.2439 21.2187 15.2439 23.0343 15.2439 24.8499Z" fill="#464646"/>
</g>
</g>
<defs>
<clipPath id="clip0_586_51547">
<rect width="42" height="42" fill="white"/>
</clipPath>
<clipPath id="clip1_586_51547">
<rect width="42" height="42" fill="white"/>
</clipPath>
</defs>
</svg>
