<svg width="42" height="42" viewBox="0 0 42 42" fill="none" xmlns="http://www.w3.org/2000/svg">
<g clip-path="url(#clip0_586_51618)">
<g clip-path="url(#clip1_586_51618)">
<g clip-path="url(#clip2_586_51618)">
<path d="M14.8091 37.4172C14.8747 38.7078 14.2403 39.5719 13.1247 39.7469C12.4684 39.8453 11.9106 39.6375 11.4403 39.1781C10.9263 38.675 10.4231 38.1391 9.89813 37.6469C9.76688 37.5266 9.54813 37.4391 9.37313 37.4281C8.67313 37.4062 7.97313 37.4172 7.28406 37.4172C5.73094 37.4062 4.495 36.4766 4.06844 34.9891C4.00281 34.7703 3.93719 34.6063 3.67469 34.6281C3.66375 34.6281 3.65281 34.6281 3.63094 34.6281C2.76688 34.4531 1.31219 32.9984 1.17 32.1234C1.03875 31.3797 1.30125 30.7563 1.85906 30.2531C2.11063 30.0234 2.26375 29.8047 2.23094 29.4109C2.20906 29.1266 2.35125 28.7984 2.50438 28.5469C2.87625 27.9562 3.32469 27.4203 3.69656 26.8406C3.82781 26.6437 3.92625 26.3703 3.92625 26.1406C3.93719 19.0312 3.93719 11.9219 3.93719 4.8125C3.93719 3.21562 4.82313 1.96875 6.27781 1.53125C6.61688 1.43281 6.97781 1.38906 7.32781 1.38906C17.3247 1.37813 27.3216 1.37813 37.3184 1.38906C39.2653 1.38906 40.6872 2.81094 40.6872 4.74688C40.6872 14.5141 40.6872 24.2922 40.6872 34.0594C40.6872 36.0172 39.2544 37.4172 37.2747 37.4172C29.9575 37.4172 22.6403 37.4172 15.3231 37.4172C15.17 37.4172 15.0059 37.4172 14.8091 37.4172ZM39.3856 7.9625C27.9778 7.9625 16.6247 7.9625 5.2825 7.9625C5.2825 13.5188 5.2825 19.0422 5.2825 24.6422C5.65438 24.1172 5.97156 23.6578 6.31063 23.2203C6.47469 23.0125 6.5075 22.8156 6.44188 22.5531C6.07 21.0219 7.39344 19.6 8.9575 19.7969C9.71219 19.8844 10.2372 20.3219 10.6966 20.8578C10.9263 21.1203 11.1122 21.1641 11.4622 21.0328C12.4028 20.6609 13.2997 20.8141 14.0763 21.4594C14.8528 22.1266 15.2466 23.0125 14.9184 23.9859C14.6669 24.7078 14.8419 25.1234 15.3778 25.5172C15.3997 25.5281 15.4106 25.5609 15.4325 25.5719C16.1544 26.3594 16.2747 27.3984 15.7716 28.2953C15.2575 29.1922 14.2513 29.6078 13.2013 29.3891C13.0372 29.3563 12.8184 29.4 12.6872 29.4875C11.9763 29.9688 11.2763 30.4828 10.5763 30.975C10.2372 31.2156 9.89813 31.4562 9.52625 31.7188C10.9263 33.1078 12.2825 34.4531 13.6278 35.8094C13.8466 36.0281 14.0653 36.1156 14.3825 36.1156C21.9622 36.1047 29.5309 36.1047 37.1106 36.1047C38.6419 36.1047 39.3966 35.35 39.3966 33.8188C39.3966 25.375 39.3966 16.9312 39.3966 8.4875C39.3856 8.3125 39.3856 8.14844 39.3856 7.9625ZM5.26063 6.59531C16.6575 6.59531 28.0106 6.59531 39.3856 6.59531C39.3856 6.02656 39.3856 5.47969 39.3856 4.93281C39.3856 3.45625 38.62 2.69063 37.1434 2.69063C27.2559 2.69063 17.3794 2.69063 7.49188 2.69063C7.37156 2.69063 7.24031 2.69063 7.12 2.69063C6.1575 2.73438 5.32625 3.48906 5.26063 4.44062C5.21688 5.15156 5.26063 5.8625 5.26063 6.59531ZM5.35906 29.4547C5.72 29.8047 6.02625 30.0891 6.39813 30.45C6.05906 30.7344 5.74188 30.9969 5.43563 31.2484C5.8075 31.6313 6.11375 31.9484 6.44188 32.2984C8.23563 31.0187 10.0294 29.75 11.7684 28.5031C10.2809 27.0156 8.81531 25.5391 7.31688 24.0516C6.05906 25.8016 4.79031 27.5844 3.51063 29.3672C3.84969 29.7062 4.16688 30.0234 4.52781 30.3844C4.81219 30.0672 5.08563 29.7609 5.35906 29.4547ZM13.595 28.1203C14.1419 28.1203 14.47 27.9563 14.6559 27.5734C14.8638 27.1797 14.7763 26.7531 14.4044 26.3813C12.7528 24.7188 11.0903 23.0562 9.42781 21.4047C8.96844 20.9453 8.37781 20.9453 7.97313 21.3609C7.57938 21.7547 7.59031 22.3453 8.02781 22.7828C9.69031 24.4563 11.3638 26.1187 13.0372 27.7812C13.2231 27.9562 13.4747 28.0438 13.595 28.1203ZM7.34969 33.2609C9.03406 34.9344 10.6856 36.575 12.3372 38.2047C12.4247 38.2922 12.545 38.4016 12.6434 38.3906C12.8731 38.3797 13.1684 38.3688 13.2997 38.2266C13.4309 38.0844 13.4528 37.7891 13.4419 37.5703C13.4309 37.4391 13.2778 37.2969 13.1575 37.1875C11.6591 35.6891 10.1606 34.1906 8.66219 32.7031C8.58563 32.6266 8.49813 32.5719 8.42156 32.4953C8.0825 32.7469 7.74344 32.9766 7.34969 33.2609ZM5.79656 33.6766C5.74188 33.7531 5.66531 33.8844 5.55594 33.95C5.20594 34.1797 5.23875 34.475 5.35906 34.8031C5.61063 35.4375 6.04813 35.8969 6.72625 36.0281C7.22938 36.1266 7.74344 36.1047 8.26844 36.1375C7.44813 35.3062 6.64969 34.5187 5.79656 33.6766ZM4.92156 32.7797C4.27625 32.1234 3.67469 31.5219 3.01844 30.8547C2.94188 30.9531 2.86531 31.0844 2.75594 31.1938C2.34031 31.6313 2.34031 31.9266 2.745 32.3531C3.0075 32.6266 3.28094 32.9 3.55438 33.1625C3.83875 33.425 4.17781 33.425 4.47313 33.1734C4.64813 33.0422 4.79031 32.9 4.92156 32.7797ZM13.6716 23.6359C13.7591 23.1875 13.6169 22.7937 13.2669 22.4656C12.9497 22.1812 12.5778 22.0609 12.2059 22.1484C12.6872 22.6516 13.1794 23.1438 13.6716 23.6359Z" fill="#464646"/>
<path d="M19.0312 24.336C19.4906 24.336 19.8953 24.336 20.3328 24.336C20.3328 25.2 20.3328 26.0313 20.3328 26.9063C25.5937 26.9063 30.8219 26.9063 36.0719 26.9063C36.0719 21.6891 36.0719 16.4719 36.0719 11.2329C30.8328 11.2329 25.6156 11.2329 20.3547 11.2329C20.3547 14.2735 20.3547 17.3032 20.3547 20.3657C19.9063 20.3657 19.5016 20.3657 19.0312 20.3657C19.0312 20.2344 19.0312 20.0922 19.0312 19.95C19.0312 17.1063 19.0312 14.2735 19.0312 11.4297C19.0312 10.4016 19.5344 9.90942 20.5734 9.90942C25.6703 9.90942 30.7781 9.90942 35.875 9.90942C36.9031 9.90942 37.4172 10.4125 37.4172 11.4407C37.4172 16.5485 37.4172 21.6454 37.4172 26.7532C37.4172 27.7485 36.9031 28.2516 35.8969 28.2516C30.7781 28.2516 25.6703 28.2516 20.5516 28.2516C19.5453 28.2516 19.0422 27.7375 19.0422 26.7422C19.0313 25.9438 19.0312 25.1563 19.0312 24.336Z" fill="#464646"/>
<path d="M26.3168 16.4609C26.3824 16.4828 26.5137 16.5156 26.634 16.5703C27.8809 17.1828 29.1277 17.8062 30.3746 18.4297C30.648 18.5609 30.8559 18.7578 30.8449 19.0859C30.8449 19.4141 30.6371 19.6 30.3637 19.7312C29.1277 20.3437 27.9027 20.9672 26.6668 21.5687C26.0762 21.8641 25.6168 21.5797 25.6059 20.9234C25.5949 19.6766 25.5949 18.4406 25.6059 17.1937C25.6059 16.7562 25.8684 16.4609 26.3168 16.4609ZM26.9402 19.9719C27.5309 19.6766 28.0996 19.3922 28.723 19.075C28.0777 18.7578 27.5309 18.4734 26.9402 18.1781C26.9402 18.7906 26.9402 19.3484 26.9402 19.9719Z" fill="#464646"/>
<path d="M28.2422 34.114C28.2422 33.6765 28.2422 33.2828 28.2422 32.8562C31.2938 32.8562 34.3234 32.8562 37.3859 32.8562C37.3859 33.2609 37.3859 33.6765 37.3859 34.114C34.3562 34.114 31.3156 34.114 28.2422 34.114Z" fill="#464646"/>
<path d="M29.5625 31.489C29.5625 31.0515 29.5625 30.6468 29.5625 30.2312C32.1766 30.2312 34.7688 30.2312 37.3938 30.2312C37.3938 30.6359 37.3938 31.0515 37.3938 31.489C34.7906 31.489 32.1875 31.489 29.5625 31.489Z" fill="#464646"/>
<path d="M19.0547 34.114C19.0547 33.6875 19.0547 33.2828 19.0547 32.8562C21.6687 32.8562 24.25 32.8562 26.8859 32.8562C26.8859 33.2609 26.8859 33.6765 26.8859 34.114C24.2938 34.114 21.6906 34.114 19.0547 34.114Z" fill="#464646"/>
<path d="M28.207 30.2422C28.207 30.6688 28.207 31.0734 28.207 31.5C26.468 31.5 24.7617 31.5 23.0117 31.5C23.0117 31.0953 23.0117 30.6797 23.0117 30.2422C24.718 30.2422 26.4461 30.2422 28.207 30.2422Z" fill="#464646"/>
<path d="M17.7086 23.6141C17.5664 23.1875 17.4352 22.8047 17.293 22.3782C18.2227 22.0719 19.1305 21.7657 20.0711 21.4485C20.2133 21.8532 20.3336 22.236 20.4867 22.6844C19.568 22.9907 18.6602 23.2969 17.7086 23.6141Z" fill="#464646"/>
<path d="M12.2383 18.1233C12.5445 17.1937 12.8508 16.2968 13.168 15.3452C13.5836 15.4874 13.9773 15.6187 14.4148 15.7608C14.1086 16.6905 13.8023 17.5874 13.4961 18.528C13.0586 18.3858 12.6648 18.2655 12.2383 18.1233Z" fill="#464646"/>
<path d="M21.6547 30.2312C21.6547 30.6687 21.6547 31.0625 21.6547 31.489C20.8016 31.489 19.9484 31.489 19.0625 31.489C19.0625 31.0843 19.0625 30.6687 19.0625 30.2312C19.9156 30.2312 20.7687 30.2312 21.6547 30.2312Z" fill="#464646"/>
<path d="M17.8266 18.8234C17.2797 19.3703 16.6672 19.9719 16.0547 20.5844C15.8141 20.3328 15.5406 20.0375 15.2891 19.775C15.8578 19.2063 16.4594 18.6047 17.0719 17.9922C17.3016 18.2328 17.575 18.5391 17.8266 18.8234Z" fill="#464646"/>
<path d="M9.15625 5.2937C8.72969 5.2937 8.325 5.2937 7.89844 5.2937C7.89844 4.87808 7.89844 4.47339 7.89844 4.03589C8.30312 4.03589 8.71875 4.03589 9.15625 4.03589C9.15625 4.44058 9.15625 4.84526 9.15625 5.2937Z" fill="#464646"/>
<path d="M10.5117 5.28276C10.5117 4.8562 10.5117 4.46245 10.5117 4.03589C10.9273 4.03589 11.343 4.03589 11.7914 4.03589C11.7914 4.44058 11.7914 4.8562 11.7914 5.28276C11.3539 5.28276 10.9383 5.28276 10.5117 5.28276Z" fill="#464646"/>
<path d="M13.1562 4.0249C13.5828 4.0249 13.9875 4.0249 14.4141 4.0249C14.4141 4.45146 14.4141 4.86709 14.4141 5.29365C13.9984 5.29365 13.5938 5.29365 13.1562 5.29365C13.1562 4.88897 13.1562 4.47334 13.1562 4.0249Z" fill="#464646"/>
<path d="M6.375 28.536C6.68125 28.2297 6.96562 27.9454 7.28281 27.6282C7.55625 27.9454 7.82969 28.2625 8.10312 28.5907C7.87344 28.8094 7.55625 29.1047 7.25 29.411C6.97656 29.1375 6.68125 28.8422 6.375 28.536Z" fill="#464646"/>
</g>
</g>
</g>
<defs>
<clipPath id="clip0_586_51618">
<rect width="42" height="42" fill="white"/>
</clipPath>
<clipPath id="clip1_586_51618">
<rect width="42" height="42" fill="white"/>
</clipPath>
<clipPath id="clip2_586_51618">
<rect width="42" height="42" fill="white"/>
</clipPath>
</defs>
</svg>
