<svg width="42" height="42" viewBox="0 0 42 42" fill="none" xmlns="http://www.w3.org/2000/svg">
<path d="M38.7581 8.07188C38.5586 7.95668 38.3323 7.89603 38.1019 7.89603C37.8715 7.89603 37.6451 7.95668 37.4456 8.07188L26.25 13.6237V9.1875C26.2493 8.96377 26.1915 8.74392 26.0819 8.54884C25.9724 8.35375 25.8148 8.18992 25.6241 8.07288C25.4334 7.95584 25.216 7.88949 24.9924 7.88012C24.7689 7.87076 24.5467 7.91869 24.3469 8.01938L13.125 13.6237V3.9375C13.125 3.5894 12.9867 3.25556 12.7406 3.00942C12.4944 2.76328 12.1606 2.625 11.8125 2.625H3.9375C3.5894 2.625 3.25556 2.76328 3.00942 3.00942C2.76328 3.25556 2.625 3.5894 2.625 3.9375V36.75H39.375V9.1875C39.3754 8.96445 39.319 8.74496 39.2111 8.54976C39.1032 8.35456 38.9473 8.19009 38.7581 8.07188ZM28.875 34.125H23.625V24.9375H28.875V34.125ZM36.75 34.125H31.5V23.625C31.5 23.2769 31.3617 22.9431 31.1156 22.6969C30.8694 22.4508 30.5356 22.3125 30.1875 22.3125H22.3125C21.9644 22.3125 21.6306 22.4508 21.3844 22.6969C21.1383 22.9431 21 23.2769 21 23.625V34.125H5.25V5.25H10.5V17.8763L23.625 11.3138V17.8763L36.75 11.3138V34.125Z" fill="#464646"/>
</svg>
