<svg width="42" height="42" viewBox="0 0 42 42" fill="none" xmlns="http://www.w3.org/2000/svg">
<g clip-path="url(#clip0_586_51657)">
<g clip-path="url(#clip1_586_51657)">
<path d="M-0.000715522 31.936C0.103651 31.444 0.13347 30.9222 0.297474 30.46C0.640392 29.5654 0.9684 28.641 1.47532 27.821C6.33581 20.0084 11.2112 12.2108 16.1015 4.41312C17.9801 1.43123 20.7085 -0.0149919 24.2272 0.074465C27.7906 0.178831 31.339 2.9669 32.323 6.38117C33.0834 9.03506 32.7256 11.5249 31.2645 13.8657C26.3742 21.6783 21.4838 29.4909 16.5935 37.2885C15.0877 39.6889 12.9407 41.165 10.1228 41.5377C5.94817 42.1043 2.13134 39.6144 0.729849 36.1703C0.372021 35.2907 0.222927 34.3215 -0.015625 33.3822C-0.000715522 32.92 -0.000715522 32.428 -0.000715522 31.936ZM9.85445 17.8317C9.79481 17.9211 9.75008 17.9509 9.73517 17.9957C7.45402 21.6485 5.15796 25.2864 2.87681 28.9541C1.95243 30.4451 1.60951 32.0702 1.89279 33.8146C2.56371 38.1235 7.06638 40.8668 11.1963 39.4951C12.9258 38.9286 14.1931 37.8253 15.1473 36.3045C17.339 32.8008 19.5307 29.297 21.7224 25.8082C21.7969 25.6889 21.8715 25.5548 21.9609 25.4057C17.9056 22.8711 13.8949 20.3514 9.85445 17.8317ZM22.8853 23.87C22.945 23.7954 22.9897 23.7507 23.0195 23.6911C25.3007 20.0383 27.5967 16.4003 29.863 12.7475C30.9961 10.9286 31.2197 8.96051 30.6084 6.90301C29.6393 3.60801 26.0014 1.37159 22.6319 1.95306C20.4402 2.34071 18.8001 3.48874 17.6223 5.35242C15.4008 8.90088 13.1793 12.4493 10.9578 15.9829C10.8981 16.0872 10.8385 16.1916 10.7788 16.3109C14.8342 18.8455 18.8598 21.3503 22.8853 23.87Z" fill="#464646"/>
<path d="M32.7256 41.851C27.6713 41.8212 23.5563 37.6913 23.5861 32.6668C23.6159 27.6124 27.7906 23.4676 32.7852 23.5272C37.8545 23.5869 41.9546 27.7019 41.9248 32.7264C41.8949 37.7658 37.765 41.8659 32.7256 41.851ZM32.7554 40.0619C36.8406 40.0469 40.1356 36.737 40.1207 32.6668C40.1058 28.6114 36.7959 25.3015 32.7405 25.3164C28.6702 25.3164 25.3603 28.6561 25.3752 32.7264C25.3901 36.7669 28.7 40.0619 32.7554 40.0619Z" fill="#464646"/>
<path d="M5.33769 29.6101C5.94898 29.6101 6.35154 30.1916 6.1428 30.773C6.00862 31.1458 5.81479 31.4887 5.71043 31.8763C5.3526 33.1287 5.8297 34.4855 6.85846 35.2757C7.00755 35.395 7.17156 35.4993 7.32065 35.6186C7.7083 35.9466 7.78285 36.4386 7.51447 36.8263C7.2461 37.2139 6.72427 37.3183 6.27699 37.0499C5.05441 36.3045 4.2493 35.231 3.9362 33.8295C3.63801 32.5473 3.81692 31.3098 4.48785 30.1618C4.68167 29.8337 4.93513 29.6101 5.33769 29.6101Z" fill="#464646"/>
<path d="M28.9665 9.00531C28.9218 9.91479 28.6981 10.7646 28.2359 11.5399C27.9377 12.0618 27.4606 12.2407 27.0134 12.017C26.5512 11.7785 26.3872 11.2715 26.6704 10.7199C27.1475 9.81042 27.2817 8.87112 26.9388 7.8871C26.6854 7.17144 26.2082 6.6347 25.5821 6.20233C25.2242 5.96377 25.0006 5.66559 25.09 5.20339C25.2391 4.54737 25.925 4.30882 26.5363 4.69647C27.6097 5.38231 28.3552 6.3216 28.713 7.55909C28.8472 8.03619 28.892 8.52821 28.9665 9.00531Z" fill="#464646"/>
<path d="M30.4166 37.3334C29.8351 37.3185 29.4176 36.7519 29.5965 36.2003C29.6413 36.0512 29.7307 35.9021 29.8053 35.7679C31.2664 33.3973 32.7126 31.0416 34.1737 28.671C34.2483 28.5517 34.3377 28.4175 34.4421 28.3132C34.7254 28.015 35.1876 27.9702 35.5305 28.179C35.8585 28.3728 36.0225 28.7903 35.9032 29.1779C35.8585 29.327 35.7691 29.4761 35.6945 29.6103C34.2334 31.9809 32.7723 34.3664 31.3111 36.737C31.1024 37.0799 30.8638 37.3483 30.4166 37.3334Z" fill="#464646"/>
</g>
</g>
<defs>
<clipPath id="clip0_586_51657">
<rect width="42" height="42" fill="white"/>
</clipPath>
<clipPath id="clip1_586_51657">
<rect width="42" height="42" fill="white"/>
</clipPath>
</defs>
</svg>
