<svg width="42" height="42" viewBox="0 0 42 42" fill="none" xmlns="http://www.w3.org/2000/svg">
<path d="M39.3734 14.0173L36.7484 6.14233C36.6571 5.87067 36.4794 5.63637 36.2424 5.47521C36.0054 5.31405 35.7221 5.23489 35.4359 5.24983H6.56094C6.27473 5.23489 5.99149 5.31405 5.75449 5.47521C5.51749 5.63637 5.33976 5.87067 5.24844 6.14233L2.62344 14.0173C2.60469 14.1567 2.60469 14.298 2.62344 14.4373V22.3123C2.62344 22.6604 2.76172 22.9943 3.00786 23.2404C3.254 23.4865 3.58784 23.6248 3.93594 23.6248H5.24844V36.7498H7.87344V23.6248H15.7484V36.7498H36.7484V23.6248H38.0609C38.409 23.6248 38.7429 23.4865 38.989 23.2404C39.2352 22.9943 39.3734 22.6604 39.3734 22.3123V14.4373C39.3922 14.298 39.3922 14.1567 39.3734 14.0173ZM34.1234 34.1248H18.3734V23.6248H34.1234V34.1248ZM36.7484 20.9998H31.4984V15.7498H28.8734V20.9998H22.3109V15.7498H19.6859V20.9998H13.1234V15.7498H10.4984V20.9998H5.24844V14.6473L7.50594 7.87483H34.4909L36.7484 14.6473V20.9998Z" fill="#464646"/>
</svg>
