<svg width="42" height="42" viewBox="0 0 42 42" fill="none" xmlns="http://www.w3.org/2000/svg">
<g clip-path="url(#clip0_586_51572)">
<path d="M0 38.1312C0 37.7047 0 37.3 0 36.8625C0.83125 36.8625 1.65156 36.8625 2.50469 36.8625C2.50469 25.575 2.50469 14.3313 2.50469 3C7.59063 5.06719 12.6109 7.10156 17.6859 9.16875C17.6859 7.10156 17.6859 5.08906 17.6859 3.02188C18.1234 3.19688 18.5063 3.35 18.9 3.51406C23.8438 5.52656 28.7766 7.55 33.7203 9.55156C34.0266 9.67188 34.1141 9.83594 34.1141 10.1531C34.1031 18.8922 34.1031 27.6203 34.1031 36.3594C34.1031 36.5125 34.1031 36.6547 34.1031 36.8406C35.0328 36.8406 35.9516 36.8406 36.8922 36.8406C36.8922 35.9109 36.8922 34.9812 36.8922 34.0406C36.7828 34.0078 36.6625 33.9641 36.5531 33.9203C34.6281 33.2312 33.9062 30.9453 35.0547 29.2719C35.1422 29.1406 35.2078 28.9219 35.175 28.7688C34.9781 27.7078 35.3609 26.7234 36.2141 26.1547C37.0453 25.5969 38.1281 25.5969 38.9594 26.1656C39.8125 26.7344 40.1844 27.7187 39.9766 28.7906C39.9547 28.9328 39.9875 29.1187 40.0641 29.2281C41.2781 31.0547 40.5672 33.1984 38.5109 33.9641C38.4016 34.0078 38.2484 34.15 38.2484 34.2375C38.2266 35.0906 38.2375 35.9547 38.2375 36.8516C38.8391 36.8516 39.4078 36.8516 39.9875 36.8516C39.9875 37.3 39.9875 37.7047 39.9875 38.1422C26.6766 38.1312 13.3547 38.1312 0 38.1312ZM32.8016 34.2922C32.8125 34.1391 32.8234 34.0187 32.8234 33.8984C32.8234 26.2422 32.8234 18.5859 32.8344 10.9297C32.8344 10.6453 32.7359 10.525 32.4844 10.4266C28.7766 8.92813 25.0797 7.41875 21.3719 5.90937C20.6063 5.59219 19.8406 5.28594 19.0422 4.96875C19.0422 14.7688 19.0422 24.5141 19.0422 34.2812C23.625 34.2922 28.1859 34.2922 32.8016 34.2922ZM3.87187 31.6781C5.98281 31.6781 8.06094 31.6781 10.1719 31.6781C10.1828 31.5359 10.1938 31.4266 10.1938 31.3062C10.1938 23.4969 10.1938 15.6875 10.2047 7.87812C10.2047 7.60469 10.1281 7.47344 9.86563 7.36406C8.34531 6.77344 6.83594 6.16094 5.3375 5.55938C4.85625 5.3625 4.38594 5.17656 3.87187 4.96875C3.87187 13.9047 3.87187 22.7859 3.87187 31.6781ZM11.4844 31.6781C13.5625 31.6781 15.6188 31.6781 17.675 31.6781C17.675 30.475 17.675 29.3156 17.675 28.1016C16.975 28.1016 16.3078 28.1016 15.6297 28.1016C15.6297 27.6422 15.6297 27.2266 15.6297 26.7891C16.3297 26.7891 16.9969 26.7891 17.675 26.7891C17.675 25.5203 17.675 24.2844 17.675 23.0047C16.975 23.0047 16.3078 23.0047 15.6188 23.0047C15.6188 22.5562 15.6188 22.1516 15.6188 21.7031C16.3188 21.7031 16.9969 21.7031 17.675 21.7031C17.675 20.5984 17.675 19.5375 17.675 18.4328C16.975 18.4328 16.2969 18.4328 15.6188 18.4328C15.6188 17.9844 15.6188 17.5797 15.6188 17.1313C16.3188 17.1313 16.9969 17.1313 17.675 17.1313C17.675 16.0266 17.675 14.9766 17.675 13.8609C16.975 13.8609 16.3078 13.8609 15.6188 13.8609C15.6188 13.4125 15.6188 13.0078 15.6188 12.5484C16.3188 12.5484 16.9969 12.5484 17.6969 12.5484C17.6969 11.9906 17.6859 11.4875 17.7078 10.9844C17.7188 10.7 17.6422 10.5578 17.3578 10.4484C15.5094 9.71562 13.6609 8.95 11.8234 8.20625C11.7141 8.1625 11.6047 8.14063 11.4953 8.10781C11.4953 8.87344 11.4953 9.58437 11.4953 10.3391C12.1516 10.3391 12.775 10.3391 13.3984 10.3391C13.3984 10.7875 13.3984 11.2031 13.3984 11.6516C12.7422 11.6516 12.1188 11.6516 11.4953 11.6516C11.4953 12.8109 11.4953 13.9375 11.4953 15.0969C12.1516 15.0969 12.775 15.0969 13.3984 15.0969C13.3984 15.5453 13.3984 15.9609 13.3984 16.4094C12.7422 16.4094 12.1188 16.4094 11.4953 16.4094C11.4953 17.5687 11.4953 18.6953 11.4953 19.8656C12.1406 19.8656 12.7641 19.8656 13.4094 19.8656C13.4094 20.3141 13.4094 20.7078 13.4094 21.1672C12.7531 21.1672 12.1188 21.1672 11.4953 21.1672C11.4953 22.3484 11.4953 23.475 11.4953 24.6672C12.1516 24.6672 12.7859 24.6672 13.4094 24.6672C13.4094 25.1266 13.4094 25.5312 13.4094 25.9688C12.7641 25.9688 12.1406 25.9688 11.4953 25.9688C11.4953 27.1391 11.4953 28.2547 11.4953 29.4359C12.1516 29.4359 12.7859 29.4359 13.4094 29.4359C13.4094 29.8953 13.4094 30.3 13.4094 30.7375C12.7641 30.7375 12.1406 30.7375 11.4953 30.7375C11.4844 31.0547 11.4844 31.35 11.4844 31.6781ZM18.9766 36.8297C23.6031 36.8297 28.1859 36.8297 32.7687 36.8297C32.7687 36.425 32.7687 36.0422 32.7687 35.6594C28.1641 35.6594 23.5812 35.6594 18.9766 35.6594C18.9766 35.8234 18.9766 35.9656 18.9766 36.0969C18.9766 36.3266 18.9766 36.5562 18.9766 36.8297ZM38.2594 29.3484C38.3797 29.1516 38.4891 28.9766 38.5875 28.8016C38.8609 28.2984 38.7516 27.7078 38.325 27.3578C37.8984 27.0078 37.2641 27.0187 36.8594 27.3687C36.4437 27.7297 36.3563 28.3094 36.6297 28.8234C36.7281 28.9984 36.8266 29.1625 36.925 29.3266C35.7109 30.4859 35.5141 31.4375 36.3125 32.2797C36.9797 32.9797 38.0844 33.0125 38.7844 32.3562C39.1453 32.0281 39.3312 31.6016 39.3422 31.1203C39.375 30.3109 38.8719 29.7969 38.2594 29.3484ZM17.6641 36.8406C17.6641 35.55 17.6641 34.2922 17.6641 33.0453C16.9312 33.0453 16.2203 33.0453 15.5312 33.0453C15.5312 34.325 15.5312 35.5828 15.5312 36.8406C16.2531 36.8406 16.9531 36.8406 17.6641 36.8406ZM3.87187 33.0344C3.87187 34.325 3.87187 35.5719 3.87187 36.8297C4.59375 36.8297 5.28281 36.8297 5.97187 36.8297C5.97187 35.55 5.97187 34.3031 5.97187 33.0344C5.27187 33.0344 4.59375 33.0344 3.87187 33.0344ZM12.8188 33.0234C12.8188 34.325 12.8188 35.5828 12.8188 36.8297C13.3 36.8297 13.7594 36.8297 14.2188 36.8297C14.2188 35.5391 14.2188 34.2922 14.2188 33.0234C13.7375 33.0234 13.3109 33.0234 12.8188 33.0234ZM8.73906 36.8297C8.73906 35.5391 8.73906 34.2922 8.73906 33.0453C8.25781 33.0453 7.79844 33.0453 7.33906 33.0453C7.33906 34.325 7.33906 35.5719 7.33906 36.8297C7.80938 36.8297 8.25781 36.8297 8.73906 36.8297ZM10.0844 33.0234C10.0844 34.3141 10.0844 35.5609 10.0844 36.8297C10.5438 36.8297 10.9813 36.8297 11.4516 36.8297C11.4516 35.55 11.4516 34.3031 11.4516 33.0234C10.9922 33.0234 10.5656 33.0234 10.0844 33.0234Z" fill="#464646"/>
<g clip-path="url(#clip1_586_51572)">
<path d="M31.0391 20.0156C31.0391 20.4422 31.0391 20.8469 31.0391 21.2734C30.2625 21.2734 29.5078 21.2734 28.7422 21.2734C28.7422 20.8469 28.7422 20.4531 28.7422 20.0156C29.4969 20.0156 30.2516 20.0156 31.0391 20.0156Z" fill="#464646"/>
<path d="M28.7344 30.275C28.7344 29.8484 28.7344 29.4546 28.7344 29.0281C29.4891 29.0281 30.2437 29.0281 31.0312 29.0281C31.0312 29.4218 31.0312 29.8375 31.0312 30.275C30.2766 30.275 29.5219 30.275 28.7344 30.275Z" fill="#464646"/>
<path d="M28.7344 18.2546C28.7344 17.828 28.7344 17.4343 28.7344 16.9858C29.4563 16.9858 30.1781 16.9858 30.8891 16.9968C30.9437 16.9968 31.0531 17.139 31.0531 17.2155C31.075 17.5546 31.0641 17.8937 31.0641 18.2655C30.2766 18.2546 29.5219 18.2546 28.7344 18.2546Z" fill="#464646"/>
<path d="M28.7344 24.2812C28.7344 23.8438 28.7344 23.45 28.7344 23.0234C29.5 23.0234 30.2547 23.0234 31.0312 23.0234C31.0312 23.4281 31.0312 23.8438 31.0312 24.2812C30.2656 24.2812 29.5219 24.2812 28.7344 24.2812Z" fill="#464646"/>
<path d="M28.7422 25.9985C29.5188 25.9985 30.2625 25.9985 31.0391 25.9985C31.0391 26.4251 31.0391 26.8188 31.0391 27.2563C30.2734 27.2563 29.5188 27.2563 28.7422 27.2563C28.7422 26.8517 28.7422 26.447 28.7422 25.9985Z" fill="#464646"/>
<path d="M28.7422 32.0142C29.5297 32.0142 30.2734 32.0142 31.0391 32.0142C31.0391 32.4407 31.0391 32.8454 31.0391 33.272C30.2625 33.272 29.5078 33.272 28.7422 33.272C28.7422 32.8563 28.7422 32.4517 28.7422 32.0142Z" fill="#464646"/>
<path d="M24.357 16.9968C24.357 17.4234 24.357 17.8281 24.357 18.2546C23.6023 18.2546 22.8586 18.2546 22.082 18.2546C22.082 17.839 22.082 17.4343 22.082 16.9968C22.8477 16.9968 23.5914 16.9968 24.357 16.9968Z" fill="#464646"/>
<path d="M24.357 21.2734C23.5914 21.2734 22.8477 21.2734 22.082 21.2734C22.082 20.8469 22.082 20.4531 22.082 20.0156C22.8258 20.0156 23.5805 20.0156 24.357 20.0156C24.357 20.4203 24.357 20.825 24.357 21.2734Z" fill="#464646"/>
<path d="M22.0938 23.0125C22.8594 23.0125 23.5922 23.0125 24.3578 23.0125C24.3578 23.4281 24.3578 23.8328 24.3578 24.2703C23.6141 24.2703 22.8703 24.2703 22.0938 24.2703C22.0938 23.8546 22.0938 23.4281 22.0938 23.0125Z" fill="#464646"/>
<path d="M24.357 27.2671C23.5914 27.2671 22.8477 27.2671 22.082 27.2671C22.082 26.8405 22.082 26.4358 22.082 26.0093C22.8367 26.0093 23.5805 26.0093 24.357 26.0093C24.357 26.414 24.357 26.8187 24.357 27.2671Z" fill="#464646"/>
<path d="M24.3688 29.0171C24.3688 29.4546 24.3688 29.8593 24.3688 30.2858C23.6031 30.2858 22.8594 30.2858 22.0938 30.2858C22.0938 29.8702 22.0938 29.4546 22.0938 29.0171C22.8375 29.0171 23.5813 29.0171 24.3688 29.0171Z" fill="#464646"/>
<path d="M22.082 33.2827C22.082 32.8562 22.082 32.4515 22.082 32.0249C22.8367 32.0249 23.5805 32.0249 24.357 32.0249C24.357 32.4405 24.357 32.8562 24.357 33.2827C23.5914 33.2827 22.8477 33.2827 22.082 33.2827Z" fill="#464646"/>
<path d="M8.19141 17.0188C8.19141 17.4454 8.19141 17.8282 8.19141 18.2547C7.42578 18.2547 6.68203 18.2547 5.89453 18.2547C5.89453 17.85 5.89453 17.4563 5.89453 17.0188C6.66016 17.0188 7.40391 17.0188 8.19141 17.0188Z" fill="#464646"/>
<path d="M5.90625 19.9937C6.68281 19.9937 7.41563 19.9937 8.18125 19.9937C8.18125 20.4202 8.18125 20.8249 8.18125 21.2624C7.4375 21.2624 6.69375 21.2624 5.90625 21.2624C5.90625 20.8577 5.90625 20.4421 5.90625 19.9937Z" fill="#464646"/>
<path d="M8.18164 23.0234C8.18164 23.45 8.18164 23.8547 8.18164 24.2922C7.4707 24.2922 6.78164 24.3031 6.09258 24.2813C6.01602 24.2813 5.88477 24.1172 5.88477 24.0297C5.86289 23.7016 5.87383 23.3844 5.87383 23.0234C6.65039 23.0234 7.39414 23.0234 8.18164 23.0234Z" fill="#464646"/>
<path d="M8.19141 26.0312C8.19141 26.4359 8.19141 26.8406 8.19141 27.2672C7.42578 27.2672 6.67109 27.2672 5.89453 27.2672C5.89453 26.8516 5.89453 26.4688 5.89453 26.0312C6.63828 26.0312 7.39297 26.0312 8.19141 26.0312Z" fill="#464646"/>
<path d="M5.89453 30.2749C5.89453 29.8155 5.89453 29.4218 5.89453 29.0171C6.66016 29.0171 7.40391 29.0171 8.18047 29.0171C8.18047 29.4327 8.18047 29.8483 8.18047 30.2749C7.40391 30.2749 6.64922 30.2749 5.89453 30.2749Z" fill="#464646"/>
<path d="M5.89453 33.2718C5.89453 32.8562 5.89453 32.4515 5.89453 32.0249C6.66016 32.0249 7.40391 32.0249 8.18047 32.0249C8.18047 32.4405 8.18047 32.8452 8.18047 33.2718C7.42578 33.2718 6.67109 33.2718 5.89453 33.2718Z" fill="#464646"/>
</g>
</g>
<defs>
<clipPath id="clip0_586_51572">
<rect width="42" height="42" fill="white"/>
</clipPath>
<clipPath id="clip1_586_51572">
<rect width="42" height="42" fill="white"/>
</clipPath>
</defs>
</svg>
