<svg width="40" height="38" viewBox="0 0 40 38" fill="none" xmlns="http://www.w3.org/2000/svg">
<path d="M6.92839 -1C7.32214 -0.64375 7.33152 -0.446875 6.98464 -0.0343751C4.99714 2.30937 4.99714 5.74062 6.97527 8.1125C7.04089 8.19687 7.11589 8.27187 7.16277 8.36562C7.27527 8.58125 7.25652 8.79687 7.05964 8.96562C6.85339 9.14375 6.61902 9.15312 6.42214 8.96562C6.24402 8.79687 6.09402 8.6 5.94402 8.40312C3.93777 5.7125 4.04089 1.95312 6.20652 -0.634375C6.31902 -0.765625 6.45027 -0.878125 6.58152 -1C6.69402 -1 6.81589 -1 6.92839 -1Z" fill="#464646"/>
<path d="M17.0337 -1C17.8118 -0.30625 18.3275 0.565625 18.665 1.53125C19.5743 4.15625 19.1337 6.56563 17.4181 8.74063C17.3431 8.84375 17.2493 8.98438 17.1462 9.00313C16.9587 9.04063 16.6962 9.05938 16.5837 8.95625C16.4618 8.85313 16.4712 8.59063 16.4525 8.40313C16.4431 8.3375 16.5275 8.2625 16.5837 8.20625C18.6556 5.84375 18.665 2.27188 16.5837 -0.109375C16.2931 -0.446875 16.3212 -0.64375 16.6868 -1C16.7993 -1 16.9212 -1 17.0337 -1Z" fill="#464646"/>
<path d="M18.4307 33.9408C18.7964 33.9408 19.1245 33.9408 19.4807 33.9408C19.7339 33.0408 19.9776 32.1501 20.2307 31.2501C20.8495 29.0095 21.4682 26.7689 22.0964 24.5376C22.1714 24.2845 22.1339 24.1158 21.9557 23.9189C18.7964 20.2814 18.8995 14.8533 22.1714 11.347C22.6776 10.8033 23.2495 10.6814 23.9151 10.8314C24.8526 11.0376 25.6964 11.4783 26.4745 12.022C27.4026 12.6689 28.2932 13.372 29.1932 14.0658C29.3901 14.2158 29.5401 14.272 29.7839 14.1783C30.3182 13.972 30.862 13.7939 31.3964 13.6064C31.387 12.247 32.4276 11.422 33.5151 11.5064C34.5182 11.5814 35.2964 12.4251 35.2964 13.4564C35.2964 14.5626 34.4995 15.3126 33.1964 15.397C32.9901 15.997 32.7557 16.597 32.5682 17.2251C32.5401 17.3283 32.6526 17.5064 32.737 17.6095C33.6651 18.7064 34.5464 19.8501 35.2401 21.1158C35.5964 21.772 35.9245 22.447 36.0089 23.2064C36.0745 23.7689 35.9057 24.2283 35.4651 24.6126C32.7932 26.9751 29.7557 27.7064 26.3057 26.7595C26.2307 26.7408 26.1464 26.7126 25.9964 26.6751C26.6714 29.122 27.337 31.5314 28.012 33.9783C28.4339 33.9783 28.8464 33.9783 29.2682 33.9783C29.8495 33.9783 30.4401 33.9689 31.0214 33.9783C31.3401 33.9876 31.5651 34.2033 31.537 34.4751C31.5089 34.7751 31.3401 34.9345 31.0307 34.9533C30.937 34.9627 30.8432 34.9533 30.7495 34.9533C21.8151 34.9533 12.8807 34.9533 3.94635 34.9533C3.4026 34.9533 3.16823 34.8126 3.16823 34.4658C3.15885 34.1189 3.4026 33.9689 3.93698 33.9689C4.34948 33.9689 4.7526 33.9689 5.18385 33.9689C5.34323 33.1908 5.5026 32.422 5.66198 31.6626C6.93698 25.3626 8.22135 19.1001 9.49635 12.8283C9.90885 10.7939 10.312 8.75015 10.7432 6.71577C10.7995 6.46265 10.7526 6.35015 10.5276 6.22827C9.58073 5.67515 9.11198 4.59702 9.3276 3.52827C9.54323 2.5064 10.4057 1.69077 11.437 1.54077C12.637 1.37202 13.8089 2.07515 14.2026 3.2189C14.6057 4.37202 14.137 5.62827 13.0776 6.24702C12.9839 6.30327 12.8995 6.35015 12.7682 6.41577C14.6526 15.5751 16.537 24.7439 18.4307 33.9408ZM28.387 14.647C27.1401 13.6251 25.9307 12.6876 24.5151 12.0595C24.1964 11.9189 23.8589 11.8251 23.512 11.7689C23.0807 11.7033 22.9214 11.8626 23.0339 12.2845C23.1839 12.8095 23.3526 13.3345 23.6151 13.8126C24.6839 15.8095 26.1651 17.497 27.7495 19.0908C29.1745 20.5158 30.6932 21.8283 32.4276 22.8689C33.0839 23.2626 33.7495 23.6283 34.5089 23.7501C34.9026 23.8158 35.0339 23.6939 35.0057 23.3095C34.9964 23.1783 34.987 23.047 34.9401 22.9345C34.7339 22.4376 34.5464 21.9314 34.2932 21.4626C33.712 20.3658 32.9432 19.4001 32.1182 18.4064C31.9026 19.0158 31.7057 19.5783 31.4995 20.1314C31.3589 20.5158 31.1151 20.6564 30.8151 20.5439C30.5432 20.4408 30.4495 20.1689 30.5714 19.8033C30.8057 19.1283 31.0495 18.4626 31.2651 17.7876C31.3026 17.6658 31.2651 17.4595 31.1807 17.3658C30.5995 16.7564 30.0089 16.1564 29.3995 15.5845C29.3057 15.5001 29.0995 15.4626 28.9776 15.5001C28.3307 15.7064 27.6932 15.9408 27.0557 16.1658C26.9901 16.1845 26.9245 16.2126 26.8589 16.2314C26.5682 16.3251 26.3432 16.2314 26.2214 15.9595C26.0995 15.697 26.2307 15.4251 26.5307 15.3126C27.1307 15.0783 27.7307 14.8814 28.387 14.647ZM6.20573 33.922C9.95573 33.922 13.6776 33.922 17.4276 33.922C17.2495 33.0501 17.0807 32.197 16.8932 31.3626C16.8745 31.2595 16.7526 31.1564 16.6495 31.1095C15.1026 30.3689 13.5464 29.6376 11.9995 28.9158C11.8964 28.8689 11.7182 28.8689 11.6151 28.9158C10.0589 29.6376 8.51198 30.3689 6.9651 31.1095C6.88073 31.147 6.76823 31.2314 6.75885 31.3158C6.5526 32.1783 6.38385 33.0408 6.20573 33.922ZM20.5026 33.9314C22.6776 33.9314 24.8151 33.9314 26.962 33.9314C26.9432 33.8564 26.9432 33.8001 26.9245 33.7439C26.2401 31.2783 25.5651 28.8126 24.8807 26.3564C24.8526 26.2533 24.7776 26.1408 24.6839 26.0845C24.1307 25.7189 23.5589 25.372 22.9682 25.0064C22.162 27.9595 21.337 30.9314 20.5026 33.9314ZM11.7932 21.5283C10.612 22.4376 9.43073 23.3376 8.25885 24.247C8.2026 24.2939 8.14635 24.3689 8.13698 24.4439C8.03385 24.9126 7.94948 25.3814 7.84635 25.8689C9.1401 26.4783 10.4057 27.0783 11.6901 27.6689C11.7839 27.7064 11.9339 27.6595 12.0464 27.6126C12.8807 27.2283 13.7151 26.8345 14.5495 26.4408C14.962 26.2439 15.3651 26.047 15.7682 25.8595C15.6745 25.4001 15.5901 24.9783 15.4964 24.5564C15.4682 24.4533 15.412 24.3314 15.337 24.2658C14.1557 23.347 12.9839 22.447 11.7932 21.5283ZM24.4214 16.8408C24.0089 17.5626 23.6245 18.2189 23.2682 18.8939C23.2214 18.9783 23.2495 19.147 23.3057 19.2408C24.3745 21.0033 25.7901 22.4189 27.5526 23.4783C27.637 23.5251 27.787 23.5626 27.8714 23.5251C28.5464 23.1595 29.2214 22.7658 29.9432 22.3533C27.862 20.7033 26.062 18.9033 24.4214 16.8408ZM11.7932 20.2908C12.3651 19.8501 12.8714 19.3908 13.4432 19.0439C14.1089 18.6408 14.362 18.1626 14.0339 17.4314C13.987 17.3283 13.987 17.197 13.9589 17.0939C13.9401 17.0189 13.9026 16.9345 13.8464 16.8876C13.1714 16.372 12.4964 15.8564 11.8026 15.3314C11.1182 15.847 10.4432 16.3533 9.7776 16.8689C9.69323 16.9345 9.64635 17.0564 9.6276 17.1689C9.54323 17.5064 9.46823 17.8533 9.42135 18.2001C9.4026 18.3033 9.4401 18.472 9.5151 18.5283C10.2464 19.1095 11.0151 19.6908 11.7932 20.2908ZM11.8214 6.67827C11.7745 6.72515 11.7557 6.73452 11.7557 6.7439C11.3339 8.8064 10.9026 10.8783 10.4901 12.9408C10.4714 13.0064 10.5182 13.1283 10.5745 13.1751C10.9776 13.4939 11.3901 13.7939 11.7932 14.1033C12.1964 13.8033 12.5901 13.522 12.9557 13.2126C13.0401 13.1376 13.1057 12.9689 13.087 12.8658C12.6745 10.8033 12.2432 8.75015 11.8214 6.67827ZM11.8026 5.60015C12.6651 5.60015 13.3682 4.9064 13.3682 4.05327C13.3682 3.20015 12.6651 2.49702 11.8026 2.5064C10.9401 2.5064 10.2557 3.20015 10.2557 4.07202C10.2651 4.9064 10.9589 5.60015 11.8026 5.60015ZM22.7339 20.197C22.4807 21.0595 22.3307 21.8564 22.537 22.6814C22.687 23.3001 23.0245 23.797 23.6245 24.0689C24.5901 24.5095 25.5557 24.3314 26.587 24.0408C25.0401 22.9908 23.7839 21.7439 22.7339 20.197ZM16.6214 30.0033C16.3964 28.9158 16.1901 27.8939 15.9745 26.8533C14.9714 27.3314 13.9964 27.7908 12.9557 28.2783C14.1932 28.8595 15.3745 29.422 16.6214 30.0033ZM7.0026 29.9939C8.24948 29.4033 9.4026 28.8595 10.6401 28.2783C9.59948 27.7908 8.63385 27.3314 7.6401 26.8626C7.42448 27.9033 7.21823 28.9064 7.0026 29.9939ZM22.6307 17.8814C23.0432 17.2439 23.4276 16.6439 23.7932 16.0814C23.2495 15.1345 22.7245 14.2064 22.2089 13.3064C21.7307 14.3751 21.9182 16.5033 22.6307 17.8814ZM28.8557 24.1533C30.4026 24.7533 31.912 25.072 33.487 24.5751C32.5401 24.0314 31.612 23.5064 30.6839 22.972C30.112 23.347 29.5214 23.7314 28.8557 24.1533ZM31.2182 25.8595C30.4026 25.6345 29.6057 25.4283 28.8182 25.1845C28.4339 25.0626 28.0776 24.7533 27.6932 24.7345C27.2995 24.7158 26.8964 24.9595 26.5026 25.0814C26.3339 25.1283 26.1651 25.1564 25.987 25.1939C25.7995 25.2314 25.6214 25.2595 25.4339 25.297C27.3089 26.197 29.2307 26.3845 31.2182 25.8595ZM21.4307 21.3408C21.637 20.6095 21.8432 19.9158 22.0401 19.2126C22.0682 19.1189 22.0307 18.9876 21.9839 18.8939C21.5432 17.9845 21.2245 17.0376 21.0557 16.0439C21.0276 15.8845 21.0089 15.7251 20.9807 15.5564C20.3995 17.5533 20.5682 19.4751 21.4307 21.3408ZM12.5995 20.9095C13.4526 21.5658 14.2682 22.1939 15.1495 22.8689C14.9057 21.7064 14.6807 20.6189 14.4464 19.4845C13.8089 19.9814 13.2182 20.4314 12.5995 20.9095ZM10.987 20.9095C10.3589 20.422 9.76823 19.972 9.1401 19.4939C8.90573 20.6376 8.6901 21.697 8.45573 22.8501C9.3276 22.1751 10.1339 21.5658 10.987 20.9095ZM34.3026 13.4189C34.3026 12.8845 33.8807 12.4626 33.3464 12.4626C32.812 12.4626 32.3901 12.8845 32.3901 13.4189C32.3901 13.9533 32.812 14.3751 33.3464 14.3751C33.8901 14.3751 34.3026 13.9533 34.3026 13.4189ZM32.2401 15.0783C32.0807 14.9001 31.9589 14.7501 31.8089 14.6189C31.762 14.572 31.6682 14.5439 31.6026 14.5626C31.1714 14.7033 30.7401 14.8626 30.3464 14.9939C30.8245 15.4814 31.2932 15.9501 31.762 16.4189C31.9307 15.9783 32.0901 15.5095 32.2401 15.0783ZM10.9776 14.7033C10.7057 14.497 10.4901 14.3376 10.2276 14.1408C10.1432 14.5814 10.0589 14.9751 9.9651 15.4626C10.3401 15.1908 10.6401 14.9658 10.9776 14.7033ZM12.6089 14.7126C12.9464 14.9658 13.2464 15.1908 13.6307 15.4814C13.5276 14.9845 13.4432 14.5908 13.3495 14.1501C13.087 14.347 12.8714 14.5158 12.6089 14.7126Z" fill="#464646"/>
<path d="M33.554 8C35.6446 8.1125 37.3509 9.14375 38.3165 11.2719C39.2071 13.2406 38.7759 15.5844 37.2946 17.1312C37.0134 17.4219 36.7321 17.4688 36.5071 17.2531C36.2728 17.0281 36.3009 16.775 36.5821 16.4562C38.9446 13.8406 37.679 9.80938 34.2571 9.07812C32.8134 8.76875 31.529 9.15313 30.4134 10.1094C30.3478 10.1656 30.3009 10.2219 30.2353 10.2781C29.9821 10.4844 29.7103 10.4844 29.5228 10.2594C29.3259 10.025 29.3353 9.75313 29.5603 9.575C30.0571 9.19063 30.5634 8.80625 31.1071 8.50625C31.7821 8.13125 32.5603 8.01875 33.554 8Z" fill="#464646"/>
<path d="M33.461 9.73438C34.9047 9.82812 36.0766 10.5125 36.7047 11.9375C37.3328 13.3625 37.0797 14.6938 36.0766 15.8844C35.8047 16.2031 35.5328 16.25 35.2891 16.0344C35.0547 15.8375 35.0735 15.5469 35.336 15.2375C36.3203 14.0937 36.2828 12.5188 35.2516 11.4969C34.2297 10.4844 32.6735 10.4562 31.5391 11.4219C31.2297 11.6844 30.9485 11.7125 30.7422 11.4875C30.5266 11.2531 30.5735 10.9813 30.8828 10.7C31.586 10.0625 32.4203 9.7625 33.461 9.73438Z" fill="#464646"/>
<path d="M17.1572 4.05286C17.129 5.36536 16.6978 6.52786 15.8447 7.52161C15.5634 7.84973 15.1884 7.85911 14.9915 7.54973C14.8228 7.28723 14.9447 7.06223 15.1134 6.85598C15.7509 6.09661 16.0978 5.22473 16.1353 4.23098C16.1728 3.15286 15.854 2.18723 15.179 1.33411C15.1322 1.27786 15.0853 1.23098 15.0478 1.17473C14.8509 0.912233 14.8697 0.640358 15.0759 0.452858C15.2915 0.274733 15.5728 0.293483 15.7884 0.537233C16.4259 1.24973 16.8384 2.07473 17.0165 3.01223C17.1009 3.34973 17.1197 3.70598 17.1572 4.05286Z" fill="#464646"/>
<path d="M8.20295 0.246582C8.38107 0.377832 8.58732 0.462207 8.62482 0.584082C8.6717 0.762207 8.64357 0.996582 8.5592 1.16533C8.28732 1.69033 7.89357 2.16846 7.70607 2.71221C7.2092 4.17471 7.49045 5.54346 8.43732 6.76221C8.46545 6.79971 8.49357 6.83721 8.53107 6.87471C8.76545 7.16533 8.76545 7.46533 8.54045 7.65283C8.30607 7.84971 8.02482 7.80283 7.78107 7.52158C7.19982 6.84658 6.7967 6.06846 6.61857 5.19658C6.2717 3.50908 6.63732 1.98096 7.7342 0.640332C7.8467 0.490332 8.02482 0.396582 8.20295 0.246582Z" fill="#464646"/>
</svg>
