<svg width="42" height="42" viewBox="0 0 42 42" fill="none" xmlns="http://www.w3.org/2000/svg">
<g clip-path="url(#clip0_586_51668)">
<g clip-path="url(#clip1_586_51668)">
<g clip-path="url(#clip2_586_51668)">
<path d="M4.65508 42.0001C3.92227 41.7813 3.29883 41.4095 2.9707 40.6876C2.80664 40.3376 2.75195 39.9329 2.63164 39.5173C2.45664 39.5063 2.24883 39.4954 2.03008 39.4845C0.783203 39.4079 -0.146484 38.5329 -0.201172 37.297C-0.255859 36.0063 -0.255859 34.7048 -0.201172 33.4142C-0.146484 32.1345 0.859766 31.2267 2.13945 31.2048C2.31445 31.2048 2.48945 31.2048 2.7082 31.2048C2.7082 31.0079 2.69727 30.8438 2.7082 30.6907C2.73008 30.2423 2.9707 29.9798 3.33164 29.9798C3.69258 29.9798 3.9332 30.2532 3.9332 30.7017C3.9332 33.1298 3.9332 35.5579 3.9332 37.986C3.9332 38.5001 3.92227 39.0251 3.9332 39.5392C3.95508 40.3376 4.40352 40.7751 5.20195 40.7751C10.1676 40.7751 15.1332 40.7751 20.1098 40.7751C20.8973 40.7751 21.3676 40.3376 21.3676 39.5829C21.3676 35.022 21.3676 30.472 21.3676 25.911C21.3676 25.8563 21.3566 25.8017 21.3566 25.8017C20.7223 25.8782 20.0988 25.9438 19.4316 26.0204C19.4316 26.1845 19.4316 26.3813 19.4316 26.5782C20.5145 26.9501 20.5473 27.5954 20.3941 28.6454C20.3176 29.1813 19.8801 29.5204 19.3113 29.5313C18.2613 29.5532 17.2113 29.5642 16.1613 29.5313C15.4613 29.5095 15.0348 29.0282 15.0457 28.3282C15.0457 27.9673 15.0676 27.5845 15.1879 27.2454C15.2535 27.0376 15.4832 26.8079 15.691 26.7532C16.1504 26.622 16.1066 26.3376 16.041 25.9876C13.7879 25.9876 11.5348 25.9876 9.2707 25.9876C9.2707 26.1954 9.2707 26.3923 9.2707 26.5892C10.441 26.9173 10.4191 27.9454 10.1895 28.8095C10.0691 29.2688 9.66445 29.5204 9.19414 29.5313C8.1332 29.5532 7.06133 29.5642 6.00039 29.5313C5.32227 29.5095 4.91758 29.0392 4.88477 28.361C4.88477 28.2845 4.88477 28.197 4.88477 28.1204C4.88477 27.1907 5.02695 26.961 5.89102 26.5892C5.89102 26.4032 5.89102 26.2173 5.89102 26.0313C5.25664 25.9548 4.6332 25.8892 3.96602 25.8126C3.96602 25.8673 3.94414 25.9876 3.94414 26.1189C3.94414 26.6657 3.95508 27.2126 3.9332 27.7595C3.92227 28.1095 3.69258 28.3173 3.35352 28.3282C3.02539 28.3392 2.81758 28.1532 2.74102 27.836C2.7082 27.7048 2.71914 27.5626 2.71914 27.4314C2.71914 25.0251 2.71914 22.6298 2.71914 20.2235C2.71914 18.5938 3.69258 17.6313 5.32227 17.6313C6.68945 17.6313 8.05664 17.6313 9.41289 17.6313C9.55508 17.6313 9.7082 17.6313 9.89414 17.6313C9.89414 17.2813 9.89414 16.9751 9.89414 16.6579C9.91601 15.0829 11.0754 13.8688 12.5957 13.847C14.1488 13.8142 15.3629 14.9735 15.4504 16.5595C15.4723 16.8985 15.4504 17.2376 15.4504 17.6313C16.1285 17.6313 16.7848 17.6313 17.4301 17.6313C18.0645 17.6313 18.7098 17.6313 19.3988 17.6313C19.3988 17.4454 19.3988 17.3032 19.3988 17.161C19.3988 15.5532 19.3988 13.9454 19.3988 12.3267C19.3988 10.6095 20.4816 9.52666 22.2207 9.52666C23.3363 9.52666 24.452 9.52666 25.6223 9.52666C25.6223 8.88135 25.6223 8.25791 25.6223 7.63447C25.6223 7.44854 25.6113 7.25166 25.6223 7.06572C25.6441 6.57354 25.666 6.13604 25.1191 5.82979C24.8676 5.6876 24.6816 5.28291 24.6379 4.97666C24.4738 3.77354 24.4957 2.57041 25.2941 1.54229C25.9941 0.634473 26.9238 0.142285 28.0723 0.12041C29.2098 0.0985352 30.3363 0.0985352 31.4738 0.12041C33.4098 0.153223 34.9301 1.69541 34.9629 3.63135C34.9738 3.94854 34.9629 4.25479 34.9629 4.57197C34.9738 5.22822 34.7004 5.72041 34.1535 6.08135C34.0551 6.14697 33.9348 6.27822 33.9348 6.37666C33.9238 7.41572 33.9238 8.44385 33.9238 9.5376C34.0988 9.5376 34.252 9.5376 34.3941 9.5376C35.4332 9.5376 36.4723 9.52666 37.5113 9.5376C38.9879 9.55947 40.0926 10.5876 40.1473 12.0642C40.191 13.3548 40.1691 14.6563 40.1582 15.9579C40.1582 16.3735 39.9066 16.647 39.5566 16.647C39.1957 16.6579 38.9441 16.3735 38.9332 15.936C38.9223 14.7657 38.9332 13.5845 38.9332 12.4142C38.9332 11.2876 38.4082 10.7735 37.2816 10.7735C32.2723 10.7735 27.2629 10.7735 22.2535 10.7735C21.1379 10.7735 20.6238 11.2876 20.6238 12.4032C20.6238 14.0438 20.6238 15.6735 20.6238 17.3142C20.6238 17.5657 20.6785 17.686 20.952 17.7626C21.9801 18.0688 22.6145 18.9548 22.6145 20.0814C22.6145 23.6251 22.6145 27.1798 22.6145 30.7235C22.6145 30.8876 22.6145 31.0407 22.6145 31.2267C22.9426 31.2267 23.216 31.2267 23.5551 31.2267C23.5551 31.0517 23.5551 30.8767 23.5551 30.7017C23.5551 24.9376 23.5551 19.1845 23.5551 13.4204C23.5551 13.2563 23.5551 13.0923 23.566 12.9282C23.6098 12.6001 23.8066 12.4142 24.1348 12.3923C24.4848 12.3813 24.7035 12.5673 24.7582 12.9063C24.7801 13.0704 24.7801 13.2345 24.7801 13.3985C24.7801 19.3923 24.7801 25.3751 24.7801 31.3688C24.7801 31.6642 24.8895 31.8938 25.0316 32.1454C25.2723 32.572 25.502 33.0642 25.5348 33.5345C25.6004 34.7704 25.5566 36.0173 25.5566 37.2532C25.5566 37.472 25.502 37.6798 25.4691 37.9532C25.6332 37.9532 25.7754 37.9532 25.9176 37.9532C29.7129 37.9532 33.5082 37.9532 37.3035 37.9532C38.441 37.9532 38.9441 37.4501 38.9441 36.3017C38.9441 30.647 38.9441 25.0032 38.9441 19.3485C38.9441 19.1954 38.9441 19.0423 38.9551 18.9001C38.9879 18.5392 39.2394 18.2985 39.5566 18.2985C39.8738 18.2985 40.1254 18.5392 40.1582 18.9001C40.1691 18.9985 40.1691 19.086 40.1691 19.1845C40.1691 24.9048 40.1691 30.6251 40.1691 36.3345C40.1691 37.811 39.3488 38.9048 38.0363 39.1126C37.5332 39.1892 37.0082 39.1235 36.4504 39.1235C36.4504 39.5501 36.4613 39.9001 36.4504 40.2501C36.4285 41.2235 35.7066 41.9454 34.766 41.9454C33.8254 41.9454 33.1035 41.2235 33.0926 40.2501C33.0816 39.911 33.0926 39.572 33.0926 39.2001C30.9051 39.2001 28.7395 39.2001 26.4863 39.2001C26.4863 39.6048 26.5191 40.0204 26.4754 40.4251C26.366 41.7048 24.9332 42.3829 23.8723 41.661C23.3691 41.322 23.1395 40.8298 23.1176 40.2392C23.1066 40.0204 23.1176 39.8017 23.1176 39.5501C22.9535 39.5501 22.8113 39.5501 22.6363 39.5501C22.6145 39.7251 22.6145 39.922 22.5707 40.097C22.3738 40.961 21.8816 41.5626 21.0395 41.8688C20.9301 41.9126 20.8207 41.9673 20.7113 42.011C15.352 42.0001 10.0035 42.0001 4.65508 42.0001ZM9.24883 24.697C11.5457 24.697 13.7988 24.697 16.041 24.697C16.041 22.7282 16.041 20.8032 16.041 18.8673C13.7551 18.8673 11.502 18.8673 9.24883 18.8673C9.24883 20.8251 9.24883 22.7392 9.24883 24.697ZM32.6879 9.48291C32.6879 8.41104 32.6988 7.38291 32.677 6.34385C32.677 6.23447 32.5457 6.10322 32.4363 6.02666C31.9441 5.67666 31.6707 5.22822 31.6598 4.61572C31.6598 4.38604 31.6598 4.15635 31.6598 3.91572C31.6598 3.42354 31.616 3.36885 31.1238 3.36885C30.402 3.36885 29.6801 3.36885 28.9582 3.36885C27.8863 3.36885 27.8863 3.36885 27.8754 4.41885C27.8754 5.12979 27.6238 5.6876 27.0004 6.07041C26.902 6.1251 26.8363 6.31104 26.8363 6.43135C26.8254 7.36104 26.8254 8.27979 26.8254 9.20947C26.8254 9.29697 26.8473 9.38447 26.8582 9.48291C28.816 9.48291 30.7191 9.48291 32.6879 9.48291ZM19.4207 24.7188C19.7379 24.7188 20.0113 24.7298 20.2848 24.7188C20.8863 24.686 21.3457 24.2485 21.3566 23.647C21.3785 22.3892 21.3676 21.1423 21.3566 19.8845C21.3457 19.3704 20.9738 18.9329 20.4707 18.8563C20.1316 18.8017 19.7816 18.8454 19.4207 18.8454C19.4207 20.8142 19.4207 22.7501 19.4207 24.7188ZM5.86914 24.7079C5.86914 22.7282 5.86914 20.7923 5.86914 18.8345C5.6832 18.8345 5.54102 18.8345 5.38789 18.8345C4.32695 18.8345 3.9332 19.2282 3.9332 20.2892C3.9332 21.2079 3.9332 22.1157 3.9332 23.0345C3.9332 24.4454 4.26133 24.7626 5.6832 24.7298C5.73789 24.7189 5.79258 24.7188 5.86914 24.7079ZM29.7895 1.30166C29.2316 1.30166 28.6738 1.29072 28.116 1.30166C26.9566 1.32354 26.016 2.11104 25.841 3.25947C25.7754 3.6751 25.7973 4.10166 25.7973 4.52822C25.7973 4.8126 25.9176 5.03135 26.2129 5.03135C26.541 5.04229 26.6504 4.8126 26.6613 4.50635C26.6613 4.22197 26.6613 3.9376 26.6613 3.64229C26.6832 2.77822 27.252 2.16572 28.127 2.14385C29.2207 2.12197 30.3145 2.12197 31.3973 2.14385C32.2832 2.16572 32.8629 2.77822 32.8957 3.66416C32.9066 3.95947 32.8957 4.26572 32.8957 4.56104C32.8957 4.83447 33.0379 5.02041 33.3113 5.02041C33.5848 5.02041 33.727 4.84541 33.7379 4.57197C33.7379 4.24385 33.7488 3.91572 33.7379 3.5876C33.7051 2.30791 32.7207 1.32354 31.441 1.29072C30.8832 1.29072 30.3363 1.30166 29.7895 1.30166ZM22.6254 32.4298C22.6254 34.3985 22.6254 36.3126 22.6254 38.2267C23.6316 38.4126 24.2988 37.9751 24.3098 37.1329C24.3207 35.9407 24.3207 34.7595 24.3098 33.5673C24.2988 32.922 23.8504 32.4735 23.1941 32.4407C23.0191 32.4188 22.8441 32.4298 22.6254 32.4298ZM2.68633 32.4517C1.43945 32.3532 1.00195 32.747 1.00195 33.9392C1.00195 34.9345 1.00195 35.9298 1.00195 36.9251C1.01289 37.9642 1.63633 38.4454 2.68633 38.2157C2.68633 36.3017 2.68633 34.3876 2.68633 32.4517ZM7.98008 26.5892C7.98008 23.986 7.98008 21.4157 7.98008 18.8454C7.6957 18.8454 7.4332 18.8454 7.15976 18.8454C7.15976 21.4376 7.15976 24.0079 7.15976 26.5892C7.44414 26.5892 7.6957 26.5892 7.98008 26.5892ZM14.2363 17.5767C14.2145 17.1063 14.2363 16.6579 14.1488 16.2313C14.0176 15.4985 13.3613 15.0282 12.6066 15.0392C11.8848 15.061 11.2395 15.5751 11.141 16.2751C11.0863 16.7017 11.1301 17.1282 11.1301 17.5767C12.1691 17.5767 13.1645 17.5767 14.2363 17.5767ZM18.1629 18.8563C17.8676 18.8563 17.616 18.8563 17.3316 18.8563C17.3316 21.4376 17.3316 24.0079 17.3316 26.5892C17.616 26.5892 17.8895 26.5892 18.1629 26.5892C18.1629 23.997 18.1629 21.4376 18.1629 18.8563ZM19.202 27.8579C18.2066 27.8579 17.2551 27.8579 16.2926 27.8579C16.2926 28.011 16.2926 28.1423 16.2926 28.2845C17.277 28.2845 18.2285 28.2845 19.202 28.2845C19.202 28.1313 19.202 28.011 19.202 27.8579ZM9.03008 27.8579C8.05664 27.8579 7.09414 27.8579 6.10977 27.8579C6.1207 28.011 6.1207 28.1423 6.13164 28.2845C7.11601 28.2845 8.06758 28.2845 9.04101 28.2845C9.03008 28.1313 9.03008 28.0001 9.03008 27.8579ZM25.2285 39.1454C24.9551 39.1454 24.7582 39.1235 24.5504 39.1563C24.4738 39.1673 24.3426 39.2657 24.3426 39.3313C24.3316 39.6704 24.2988 40.0204 24.3754 40.3485C24.4082 40.4907 24.6598 40.6876 24.791 40.6767C24.9551 40.6548 25.1848 40.4579 25.2066 40.2938C25.2723 39.9438 25.2285 39.561 25.2285 39.1454ZM35.1926 39.1782C34.8645 39.1782 34.591 39.1782 34.2957 39.1782C34.2957 39.561 34.252 39.9329 34.3176 40.2938C34.3504 40.447 34.5582 40.6438 34.7332 40.6876C34.9957 40.7532 35.1707 40.5563 35.1926 40.2938C35.2145 39.922 35.1926 39.561 35.1926 39.1782Z" fill="#464646"/>
<path d="M12.6602 31.0952C14.3117 31.0952 15.9633 31.0952 17.6148 31.0952C18.6211 31.0952 19.2227 31.6968 19.2227 32.6921C19.2227 34.1249 19.2227 35.5577 19.2227 36.9905C19.2227 37.9312 18.5992 38.5546 17.6586 38.5546C14.3117 38.5546 10.9758 38.5546 7.62891 38.5546C6.72109 38.5546 6.09766 37.964 6.08672 37.0562C6.06484 35.5687 6.06484 34.0812 6.08672 32.5937C6.09766 31.6749 6.71016 31.0952 7.61797 31.0952C9.31328 31.0952 10.9867 31.0952 12.6602 31.0952ZM12.6602 32.3312C11.0523 32.3312 9.44453 32.3421 7.83672 32.3202C7.45391 32.3202 7.30078 32.4296 7.31172 32.8343C7.33359 34.1687 7.32266 35.503 7.31172 36.8374C7.31172 37.1983 7.42109 37.3405 7.80391 37.3405C11.0305 37.3296 14.268 37.3296 17.4945 37.3405C17.8664 37.3405 18.0086 37.2312 17.9977 36.8483C17.9867 35.514 17.9758 34.1796 17.9977 32.8452C18.0086 32.4515 17.8773 32.3202 17.4836 32.3312C15.8758 32.3421 14.268 32.3312 12.6602 32.3312Z" fill="#464646"/>
<path d="M28.4984 23.7453C28.4984 27.2124 28.4984 30.6796 28.4984 34.1359C28.4984 34.289 28.5094 34.4421 28.4875 34.5843C28.4547 34.8906 28.2687 35.0874 27.9625 35.1203C27.6344 35.1531 27.4047 35.0109 27.3172 34.6937C27.2734 34.5515 27.2734 34.3984 27.2734 34.2453C27.2734 27.2343 27.2734 20.2234 27.2734 13.2124C27.2734 13.0593 27.2734 12.9062 27.3172 12.764C27.4047 12.4687 27.6234 12.3265 27.9406 12.3484C28.2578 12.3703 28.4438 12.5562 28.4875 12.8624C28.5094 13.0046 28.4984 13.1578 28.4984 13.3109C28.4984 16.789 28.4984 20.2671 28.4984 23.7453Z" fill="#464646"/>
<path d="M31.0259 23.6905C31.0259 20.2124 31.0259 16.7343 31.0259 13.2561C31.0259 13.1249 31.015 12.9827 31.0368 12.8515C31.1134 12.5233 31.3212 12.3265 31.6821 12.3483C32.0212 12.3702 32.1962 12.5671 32.24 12.8952C32.2618 13.0155 32.2509 13.1358 32.2509 13.2671C32.2509 20.2561 32.2509 27.2343 32.2509 34.2233C32.2509 34.3436 32.2618 34.4749 32.24 34.5952C32.1962 34.9124 32.0103 35.1202 31.6712 35.1421C31.3212 35.164 31.1025 34.9671 31.0259 34.639C30.9931 34.5077 31.015 34.3655 31.015 34.2343C31.0259 30.7124 31.0259 27.2015 31.0259 23.6905Z" fill="#464646"/>
<path d="M34.7762 23.7453C34.7762 20.2672 34.7762 16.789 34.7762 13.3109C34.7762 13.1797 34.7652 13.0375 34.7871 12.9062C34.8199 12.5781 35.0059 12.3812 35.3449 12.3594C35.673 12.3375 35.8918 12.5015 35.9793 12.8187C36.023 12.9609 36.0121 13.114 36.0121 13.2672C36.0121 20.2562 36.0121 27.2344 36.0121 34.2234C36.0121 34.3547 36.023 34.4969 35.9902 34.6281C35.9137 34.9562 35.7059 35.164 35.3559 35.1422C35.0059 35.1203 34.8199 34.9125 34.7871 34.5625C34.7762 34.4422 34.7871 34.3219 34.7871 34.1906C34.7762 30.7015 34.7762 27.2234 34.7762 23.7453Z" fill="#464646"/>
</g>
</g>
</g>
<defs>
<clipPath id="clip0_586_51668">
<rect width="42" height="42" fill="white"/>
</clipPath>
<clipPath id="clip1_586_51668">
<rect width="42" height="42" fill="white"/>
</clipPath>
<clipPath id="clip2_586_51668">
<rect width="42" height="42" fill="white" transform="translate(-1)"/>
</clipPath>
</defs>
</svg>
