<svg width="80" height="80" viewBox="0 0 80 80" fill="none" xmlns="http://www.w3.org/2000/svg">
<path d="M69.73 39.3593C69.0337 39.2919 68.0902 39.6963 67.7084 39.1572C67.3265 38.618 67.4837 37.7195 67.3939 36.9783C67.3714 36.7986 67.349 36.5964 67.3265 36.4167C65.3048 23.1636 55.1965 13.8639 41.8311 12.9654C40.8652 12.898 40.5283 12.6285 40.5957 11.6626C40.6406 11.0786 41 10.0228 40.0341 10.0003C38.9559 9.97787 39.4051 11.101 39.4276 11.7075C39.4725 12.6734 39.1805 12.9654 38.1921 13.0553C31.1837 13.6393 25.276 16.582 20.5138 21.7484C16.2459 26.3982 13.8873 31.9241 13.5054 38.2586C13.4605 39.0898 13.2359 39.4941 12.3374 39.3818C11.7758 39.3144 11.2142 39.3593 10.6526 39.3818C10.2708 39.4042 9.97875 39.5839 10.0012 39.9883C10.0012 40.3926 10.2932 40.5723 10.6751 40.5948C11.1693 40.6172 11.6635 40.6397 12.1352 40.5948C13.1011 40.4825 13.4605 40.7745 13.5503 41.8302C14.3815 54.7689 24.3775 65.304 37.2262 66.8539C37.9001 66.9437 38.7088 66.7865 39.1805 67.1459C39.7645 67.5727 39.3153 68.4712 39.4276 69.1451C39.4276 69.2125 39.4276 69.3023 39.4276 69.3697C39.4725 69.7516 39.6747 70.0212 40.079 69.9987C40.416 69.9762 40.6181 69.7291 40.6406 69.3922C40.663 68.898 40.708 68.4263 40.6406 67.9321C40.5732 67.2358 40.8652 67.0336 41.5166 66.9887C42.6398 66.9437 43.7629 66.8314 44.8636 66.6742C56.6791 64.8996 66.428 54.5667 67.3939 42.8411C67.5736 40.7296 67.5736 40.7296 69.6177 40.5948C70.067 40.5723 70.4264 40.5049 70.5162 39.9209C70.4488 39.539 70.1568 39.4042 69.73 39.3593ZM14.7633 37.6072C16.156 24.9157 25.568 15.5711 38.282 14.2234C39.203 14.1335 39.4276 14.3806 39.4276 15.2791C39.4051 17.6826 39.4276 17.6826 37.1139 18.087C26.9607 19.7492 19.4581 27.746 18.4473 37.9666C18.3125 39.3818 18.3125 39.3818 16.4481 39.3818C14.5612 39.3593 14.5612 39.3593 14.7633 37.6072ZM39.4051 65.2815C39.4051 65.9554 38.9109 65.7981 38.5291 65.7757C33.9242 65.3938 29.6787 63.9562 25.8825 61.2831C19.4132 56.7007 15.6843 50.4784 14.7858 42.594C14.5612 40.6172 14.5612 40.6172 16.5379 40.6172C16.7176 40.6172 16.9198 40.6397 17.0995 40.6172C18.0879 40.4375 18.3349 40.9093 18.4248 41.8302C19.4806 52.2755 26.6237 60.0252 36.8893 61.8896C36.9567 61.9121 37.0465 61.9121 37.1139 61.9345C37.8552 62.1142 39.0008 61.7548 39.2704 62.4287C39.6298 63.2374 39.3827 64.3156 39.4051 65.2815ZM40.6406 59.9129C40.6855 59.6208 40.663 59.3064 40.6181 59.0143C40.5732 58.6325 40.371 58.3854 39.9667 58.4078C39.6073 58.4303 39.4501 58.6774 39.4276 59.0143C39.4276 59.0593 39.4276 59.0817 39.4276 59.1267C39.2704 59.6882 39.8319 60.5194 39.0906 60.8114C38.5965 61.0135 37.9226 60.7664 37.3385 60.6766C27.9491 59.3962 20.2218 51.0625 19.6153 41.6505C19.5704 40.7969 19.795 40.4825 20.6486 40.5948C20.8733 40.6172 21.0979 40.5948 21.3225 40.5948C21.7268 40.5948 22.0862 40.4825 22.1087 39.9883C22.1312 39.4941 21.7718 39.4267 21.3674 39.3369C20.7834 39.2021 19.9747 39.7637 19.6827 38.9999C19.503 38.4833 19.7052 37.8318 19.795 37.2253C21.1203 27.5888 28.6454 20.2209 38.3269 19.0978C39.1805 19.0079 39.6298 19.1652 39.4725 20.1086C39.4276 20.3557 39.4501 20.6253 39.4725 20.8948C39.495 21.2767 39.6747 21.5463 40.1015 21.5463C40.5058 21.5238 40.663 21.2542 40.708 20.8724C40.708 20.805 40.708 20.7151 40.708 20.6477C40.8203 18.9406 40.8203 18.9406 42.5275 19.0978C52.4561 20.0637 60.4079 27.9482 61.4188 37.8768C61.576 39.3593 61.576 39.3144 60.0934 39.3818C59.5319 39.4042 58.566 38.9999 58.566 39.9658C58.566 41.0216 59.5993 40.5499 60.1608 40.5723C60.947 40.6172 61.5535 40.5049 61.4637 41.7179C60.8123 51.7588 51.8046 60.5867 41.6739 60.9012C40.8877 61.0809 40.5058 60.7889 40.6406 59.9129ZM66.136 43.178C64.7882 55.3754 54.1183 65.304 41.8087 65.8431C40.0341 65.9329 40.8652 64.6975 40.663 64.0685C40.663 62.249 40.6631 62.249 42.2579 62.0693C53.5567 60.8338 61.3738 53.0168 62.5868 41.6505C62.6767 40.752 62.9687 40.5723 63.7998 40.5723C66.428 40.6172 66.428 40.5948 66.136 43.178ZM64.4512 39.3593C64.3839 39.3593 64.294 39.3369 64.2266 39.3593C63.0136 39.584 62.6542 39.1122 62.497 37.8543C61.2166 26.6229 52.9727 18.7159 41.6739 17.8399C40.7304 17.7725 40.6181 17.4355 40.6181 16.6493C40.6406 13.9987 40.6181 13.9987 43.2463 14.2907C55.7132 15.7059 65.215 25.4997 66.2707 38.0115C66.3831 39.3593 66.383 39.3593 64.4512 39.3593Z" fill="white"/>
<path d="M50.614 51.9161C50.5916 46.0757 50.5916 40.2354 50.614 34.395C50.614 33.8334 50.4568 33.4066 50.0749 32.9798C48.2105 30.9133 46.391 28.8467 44.5715 26.7576C44.1672 26.2859 43.7629 26.0837 43.1339 26.0837C39.3152 26.1062 35.4965 26.1287 31.6778 26.0837C30.8018 26.0837 30.5322 26.3084 30.5322 27.2069C30.5772 31.3176 30.5547 35.4508 30.5547 39.5615C30.5547 43.6722 30.5772 47.8053 30.5322 51.9161C30.5322 52.7472 30.7569 52.9943 31.588 52.9943C37.5856 52.9494 43.5607 52.9494 49.5583 52.9943C50.4568 53.0167 50.614 52.7247 50.614 51.9161ZM44.302 28.375C45.9642 30.2394 47.3794 31.8342 49.0192 33.6987C47.4019 33.6987 46.0541 33.6987 44.7288 33.6987C44.3918 33.6987 44.3244 33.4291 44.3244 33.1595C44.302 31.677 44.302 30.1944 44.302 28.375ZM49.401 50.9052C49.401 51.5117 49.2213 51.7813 48.5699 51.7588C43.2238 51.7364 37.8776 51.7364 32.5314 51.7588C31.7228 51.7588 31.7452 51.3096 31.7452 50.748C31.7452 46.9742 31.7452 43.2005 31.7452 39.4267C31.7452 35.7652 31.7677 32.1038 31.7228 28.4423C31.7228 27.6112 31.9474 27.3417 32.801 27.3641C35.9009 27.409 39.0007 27.409 42.1006 27.3641C42.9093 27.3641 43.1339 27.6337 43.1114 28.3974C43.0665 29.9698 43.089 31.5422 43.1114 33.1146C43.1339 35.2037 42.8419 34.8892 44.8635 34.9341C46.0541 34.9566 47.2671 34.9566 48.4576 34.9341C49.0866 34.9117 49.4235 35.0689 49.401 35.7877C49.3786 40.7969 49.3786 45.8511 49.401 50.9052Z" fill="white"/>
<path d="M45.0662 38.4383C43.6511 38.4383 42.2359 38.4383 40.7983 38.4383C39.3831 38.4383 37.968 38.4383 36.5303 38.4383C36.126 38.4383 35.6992 38.3709 35.6992 39.0223C35.6992 39.6288 36.0362 39.6737 36.4854 39.6737C39.3607 39.6737 42.2359 39.6737 45.1112 39.6737C45.5829 39.6737 45.8974 39.6064 45.8749 38.9999C45.9198 38.3484 45.4706 38.4383 45.0662 38.4383Z" fill="white"/>
<path d="M45.1328 41.8303C42.2576 41.8303 39.3823 41.8303 36.5071 41.8303C36.0353 41.8303 35.7209 41.8977 35.7433 42.4817C35.7433 43.1332 36.1701 43.0658 36.5744 43.0658C37.9896 43.0658 39.4048 43.0658 40.8424 43.0658C42.2576 43.0658 43.6727 43.0658 45.1103 43.0658C45.5371 43.0658 45.9415 43.1107 45.9415 42.4593C45.919 41.8752 45.6045 41.8303 45.1328 41.8303Z" fill="white"/>
<path d="M45.1561 45.2446C42.2808 45.2446 39.4056 45.2446 36.5303 45.2446C36.0811 45.2446 35.7441 45.2671 35.7441 45.8736C35.7441 46.5026 36.126 46.4801 36.5528 46.4801C37.968 46.4801 39.3831 46.4801 40.8208 46.4801C42.2808 46.4801 43.7409 46.4801 45.201 46.4801C45.6053 46.4801 45.9198 46.4801 45.9423 45.9185C45.9423 45.3345 45.6503 45.2446 45.1561 45.2446Z" fill="white"/>
</svg>
