<svg width="80" height="80" viewBox="0 0 80 80" fill="none" xmlns="http://www.w3.org/2000/svg">
<path d="M27.6836 28.1005C28.7693 28.4386 30.0508 28.8124 31.2966 29.2573C31.884 29.4709 32.3289 29.3641 32.8807 29.1327C34.7851 28.3496 35.6572 26.997 35.942 24.9324C36.3513 21.9601 36.4937 21.9779 39.5372 21.9779C40.5517 21.9779 41.5484 21.9601 42.5629 21.9779C43.6664 21.9957 44.1825 22.4228 44.4317 23.5085C44.6809 24.5764 44.93 25.6443 45.108 26.73C45.2148 27.4419 45.6242 27.8157 46.1759 28.225C47.7244 29.3997 49.255 29.6489 50.9992 28.7234C51.5154 28.4564 52.1205 28.3318 52.6901 28.1716C53.6334 27.9047 54.2919 28.1716 54.808 29.026C55.5912 30.3608 56.3565 31.6957 57.1218 33.0305C57.6202 33.9383 57.4778 34.6502 56.7302 35.3443C55.8225 36.163 54.9326 36.9817 54.0071 37.7649C53.669 38.0496 53.5088 38.37 53.5088 38.8328C53.4554 41.8228 53.4554 41.8228 55.7335 43.8518C57.8693 45.7384 57.8693 45.8096 56.4277 48.2836C55.9293 49.1379 55.4488 49.9744 54.9504 50.8287C54.2563 52.0034 53.6868 52.217 52.3697 51.7898C51.3018 51.4517 50.2161 51.1135 49.166 50.7397C48.7389 50.5974 48.4007 50.6329 47.9913 50.8465C45.3928 52.2526 45.3928 52.2526 44.7699 55.1893C44.1647 58.0904 44.1647 58.0904 41.1568 58.0904C40.0889 58.0904 39.0211 58.0904 37.9532 58.0904C37.0277 58.0904 36.4581 57.5742 36.2623 56.7021C36.0132 55.5808 35.764 54.4418 35.5504 53.3027C35.4436 52.6797 35.1232 52.306 34.6071 51.9144C32.9875 50.6863 31.439 50.5974 29.5346 51.3627C26.6513 52.5018 26.5979 52.3594 25.0495 49.6363C24.5689 48.8175 24.0884 47.9988 23.6256 47.1623C23.0561 46.1478 23.1629 45.4893 24.0172 44.7062C24.9071 43.8874 25.8148 43.0687 26.7225 42.2678C27.0429 42.0008 27.2387 41.6983 27.1675 41.2711C27.1675 41.2355 27.1675 41.2177 27.1675 41.1821C27.2209 38.2276 27.2209 38.2276 24.9783 36.2342C22.7891 34.2942 22.7891 34.2942 24.2842 31.7313C24.8003 30.8414 25.3165 29.9337 25.8326 29.026C26.1708 28.403 26.7047 28.0471 27.6836 28.1005ZM27.7014 29.9871C27.2921 29.8981 27.2209 30.2006 27.0963 30.4142C26.6335 31.2151 26.1708 31.9983 25.708 32.7992C25.0673 33.9205 25.0673 33.9205 26.0106 34.7926C29.499 37.9606 28.8405 36.7504 28.9117 41.4491C28.9295 42.2856 28.6269 42.9441 28.004 43.4781C27.1853 44.19 26.3843 44.9553 25.5478 45.6673C25.1563 46.0054 25.0851 46.2546 25.3698 46.7174C25.8682 47.4827 26.3665 48.2658 26.7403 49.1023C27.1497 50.01 27.6302 50.1524 28.5735 49.832C33.0943 48.3548 31.5992 48.2302 35.853 50.6152C36.5471 51.0067 36.9565 51.5585 37.1166 52.3416C37.3302 53.4451 37.5972 54.5485 37.8108 55.652C37.8998 56.1148 38.0955 56.3106 38.5761 56.2928C39.6974 56.2572 40.8365 56.2572 41.9578 56.2928C42.5451 56.3106 42.7231 56.0614 42.8121 55.5452C42.99 54.5485 43.2214 53.5697 43.435 52.5907C43.7732 51.0957 47.226 48.6218 48.7567 48.7997C49.0414 48.8353 49.3262 48.9421 49.611 49.0311C50.6255 49.3515 51.64 49.6718 52.6545 50.0278C53.0638 50.1702 53.2952 50.099 53.5088 49.7074C53.9537 48.8709 54.3809 48.0166 54.9504 47.2513C55.5556 46.4326 55.3776 45.952 54.6479 45.2935C51.1238 42.1076 51.7645 43.4959 51.7112 38.5836C51.6934 37.7827 51.9959 37.1597 52.5833 36.6258C53.4376 35.8783 54.2385 35.0951 55.0928 34.3654C55.4488 34.0628 55.5022 33.7959 55.253 33.3865C54.6657 32.4254 54.0961 31.4465 53.5622 30.4676C53.3308 30.0227 53.0816 29.8981 52.5833 30.0761C51.5332 30.4676 50.4475 30.788 49.3796 31.1439C48.8634 31.3219 48.3295 31.3931 47.8134 31.1617C46.5675 30.5922 45.4106 29.8803 44.2715 29.1327C43.8444 28.848 43.613 28.3852 43.5062 27.8691C43.2748 26.7122 43.0078 25.5553 42.7765 24.3984C42.6875 23.9713 42.5095 23.7933 42.0645 23.8111C41.1746 23.8289 40.2847 23.8111 39.3948 23.8111C37.9354 23.8111 37.9354 23.8111 37.6506 25.1994C36.7251 29.5777 37.348 28.5276 33.646 30.7524C32.7383 31.3041 31.8662 31.4109 30.8695 31.0372C29.8194 30.61 28.7337 30.3252 27.7014 29.9871Z" fill="white"/>
<path d="M61.1261 40.9328C62.9949 44.1899 64.7747 47.2512 66.6435 50.5082C68.5123 47.2868 70.2921 44.1899 72.1609 40.9328C71.2354 40.9328 70.5057 40.9328 69.776 40.9328C68.6547 40.9328 68.4589 40.7192 68.4055 39.5802C67.9072 28.5631 62.8703 20.2869 53.1703 15.0721C42.4558 9.32326 29.3385 11.4056 20.564 19.9666C20.0657 20.4471 19.5495 21.2124 18.802 20.4471C18.0901 19.6996 18.802 19.1479 19.3181 18.6851C28.1638 10.4979 38.4512 7.89941 49.8242 11.7438C61.1261 15.5704 67.747 23.811 69.865 35.5756C70.0429 36.5367 70.1141 37.5156 70.1675 38.4945C70.1853 38.9928 70.3455 39.1708 70.8439 39.153C71.7338 39.1174 72.6237 39.1352 73.5136 39.153C74.4925 39.1708 74.884 39.7937 74.4035 40.6303C72.1075 44.6348 69.7938 48.6394 67.4622 52.644C66.9995 53.4449 66.2519 53.4449 65.7892 52.644C63.4754 48.6216 61.1617 44.6171 58.8657 40.6125C58.4029 39.8115 58.7767 39.1886 59.6844 39.153C61.0549 39.1174 62.4075 39.153 63.778 39.1352C64.4009 39.1352 64.8459 39.4022 64.8281 40.0607C64.8103 40.6659 64.3831 40.915 63.7958 40.915C62.9771 40.9328 62.1584 40.9328 61.1261 40.9328Z" fill="white"/>
<path d="M19.4963 39.1529C17.6275 35.9136 15.8477 32.8346 13.9966 29.6131C13.7119 30.0936 13.4805 30.4496 13.2669 30.8234C11.8075 33.3329 10.3658 35.8602 8.88857 38.352C8.49701 39.0105 8.6038 39.2241 9.36912 39.1529C9.90306 39.1173 10.437 39.1351 10.971 39.1529C11.9143 39.1707 12.1812 39.4199 12.1812 40.381C12.2346 43.9228 12.8398 47.3579 14.2458 50.5971C18.6954 60.7421 26.402 66.7223 37.4368 68.0038C46.1046 69.0005 53.6154 66.1883 59.9515 60.226C60.0939 60.0836 60.2541 59.9412 60.3965 59.781C60.8237 59.336 61.322 59.1581 61.8026 59.6208C62.3187 60.1192 62.1051 60.6353 61.6602 61.0981C58.8659 63.9102 55.6622 66.1171 52.0136 67.6478C34.162 75.0518 14.3526 64.2661 10.8464 45.2399C10.6328 44.0474 10.526 42.8371 10.437 41.6269C10.4014 41.0929 10.259 40.8971 9.70728 40.9149C8.85297 40.9505 7.98086 40.9327 7.12655 40.9149C6.09425 40.8971 5.72049 40.292 6.21884 39.4021C8.49701 35.4509 10.7752 31.4997 13.0711 27.5485C13.6229 26.6052 14.3348 26.623 14.8866 27.5663C17.1647 31.4819 19.4251 35.4153 21.6855 39.3487C22.2372 40.292 21.8812 40.9149 20.7956 40.9149C19.4963 40.9327 18.1792 40.9149 16.8799 40.9149C16.2748 40.9149 15.7943 40.7014 15.7765 40.0428C15.7587 39.3665 16.2392 39.1351 16.8444 39.1351C17.6631 39.1351 18.4996 39.1529 19.4963 39.1529Z" fill="white"/>
<path d="M40.0352 45.0799C42.9363 45.0977 45.0543 43.1755 45.339 40.5236C45.3568 40.2922 45.3746 40.043 45.428 39.8116C45.5348 39.3845 45.8374 39.1531 46.2468 39.1353C46.7095 39.1175 47.0477 39.3845 47.1189 39.8472C47.2256 40.4702 47.1011 41.0931 46.9409 41.6982C46.0332 45.2045 42.7939 47.3047 39.1631 46.7885C35.8882 46.308 33.3075 43.2111 33.4321 39.8828C33.5744 36.2342 36.262 33.4221 39.875 33.1551C40.5335 33.1017 41.1387 33.2085 41.1565 34.0094C41.1921 34.8637 40.5157 34.9349 39.8572 34.9883C37.3833 35.2019 35.4611 37.1063 35.2653 39.5091C35.0517 42.0364 36.5467 44.2434 38.9673 44.8841C39.4122 45.0265 39.8572 45.0621 40.0352 45.0799Z" fill="white"/>
</svg>
