<svg width="80" height="80" viewBox="0 0 80 80" fill="none" xmlns="http://www.w3.org/2000/svg">
<path d="M67.5159 48.5268C66.1543 46.527 63.5377 46.059 61.4103 47.4418C59.7722 48.5055 58.1767 49.6117 56.5386 50.6754C55.9217 51.0796 55.4324 51.5689 55.9004 52.3347C56.411 53.1431 57.0917 52.8879 57.7299 52.4411C59.2617 51.3987 60.7934 50.3776 62.3251 49.3564C63.6866 48.4629 65.0268 48.6331 65.7714 49.7819C66.5373 50.9307 66.1756 52.1858 64.7928 53.1219C59.7084 56.5257 54.6027 59.9295 49.497 63.3545C48.6886 63.8864 47.9228 64.014 46.9867 63.7375C42.3278 62.3759 37.6476 61.0995 32.9886 59.7167C31.4144 59.2487 29.9677 59.3551 28.6488 60.3337C28.0957 60.7379 27.8404 60.6315 27.5 60.0997C25.8406 57.5468 24.1387 55.0152 22.4368 52.4837C22.0965 51.9944 22.139 51.7391 22.6496 51.42C24.8408 49.9734 27.0107 48.5055 29.2019 47.0589C30.3932 46.2717 31.6909 46.0377 33.0737 46.4632C38.4134 48.1651 43.7318 49.867 49.0503 51.5902C50.4756 52.0582 51.1351 53.2282 50.7522 54.4408C50.3692 55.6322 49.2205 56.1853 47.8377 55.8236C45.2635 55.1642 42.6894 54.4834 40.1366 53.8026C39.4133 53.6112 38.8176 53.7175 38.6049 54.4834C38.3709 55.2492 38.8814 55.6747 39.5835 55.8449C42.2852 56.5682 44.987 57.3341 47.71 57.9723C50.4756 58.6318 53.0072 56.5682 52.9859 53.7814C52.9646 51.7816 51.7946 50.2286 49.7098 49.5692C44.5615 47.9098 39.3707 46.293 34.2438 44.5911C31.8611 43.804 29.7337 44.1444 27.6915 45.5272C25.6917 46.8887 23.6707 48.1864 21.6923 49.5692C21.1179 49.9734 20.7562 50.0585 20.3946 49.3564C19.9904 48.5906 19.3309 48.4629 18.6076 48.9522C16.2675 50.4201 13.9699 51.9731 11.6511 53.5048C10.9065 53.9941 10.8214 54.611 11.2894 55.3131C13.1828 58.1425 15.0549 60.9719 16.9482 63.8013C17.161 64.1417 17.4162 64.4182 17.863 64.4395C18.2885 64.4608 18.6288 64.3331 18.8416 63.9502C19.1394 63.4396 18.948 63.0142 18.6714 62.5674C17.0971 60.206 15.5442 57.8446 13.9486 55.5045C13.587 54.994 13.5657 54.7174 14.1401 54.3558C15.5867 53.4623 16.9908 52.5049 18.3948 51.5263C18.8416 51.2285 19.0756 51.2072 19.3947 51.6965C21.9263 55.5471 24.4791 59.3763 27.0532 63.2056C27.3723 63.6736 27.3085 63.9076 26.8405 64.2055C25.4364 65.099 24.0536 66.035 22.6921 66.9711C22.2454 67.2689 21.9263 67.5029 21.4795 66.9072C21.1391 66.4605 20.6073 66.4605 20.1393 66.8222C19.6713 67.1838 19.6074 67.6518 19.8627 68.1624C20.0967 68.6091 20.3733 69.0133 20.6711 69.4175C21.1179 70.0345 21.671 70.1834 22.3305 69.7579C24.6919 68.2049 27.0532 66.6307 29.4146 65.0564C30.0103 64.6522 30.0954 64.1204 29.7763 63.4822C29.2232 62.4398 29.3083 62.2483 30.3932 61.7377C31.0527 61.4399 31.6909 61.5463 32.3504 61.7377C37.1157 63.1205 41.881 64.4608 46.6463 65.8436C47.9653 66.2265 49.1779 66.0776 50.3054 65.333C55.6451 61.7803 60.9848 58.2488 66.3033 54.6536C68.4094 53.1857 68.8774 50.5265 67.5159 48.5268Z" fill="white"/>
<path d="M49.4117 44.1231C58.7083 44.1656 66.452 36.5071 66.5158 27.2105C66.5583 17.7437 58.9211 10.0213 49.4968 10C40.0726 9.97877 32.3928 17.616 32.3928 26.9977C32.3502 36.4433 39.9449 44.0805 49.4117 44.1231ZM49.7308 12.0636C57.9425 12.17 64.5373 19.0201 64.4523 27.3807C64.3672 35.486 57.4745 42.1446 49.2628 42.0383C40.9873 41.9532 34.3499 35.1456 34.435 26.8914C34.5201 18.5734 41.349 11.9572 49.7308 12.0636Z" fill="white"/>
<path d="M46.7738 35.9328C47.4332 36.1668 48.1565 36.3157 48.0289 37.3156C47.9225 38.1665 48.2629 38.8473 49.2202 38.826C50.1776 38.8047 50.2839 38.0814 50.1988 37.2943C50.1563 36.8475 50.1137 36.2944 50.8158 36.2944C51.6029 36.2944 52.2198 35.8477 52.8793 35.5286C56.0704 33.9118 56.6873 29.8059 54.1132 27.3169C53.2197 26.4447 52.156 25.9341 50.9434 25.6788C50.3477 25.5512 50.1563 25.2534 50.1776 24.6577C50.2201 23.3387 50.2201 22.041 50.1776 20.7221C50.1563 19.9137 50.4967 19.9137 51.0498 20.1902C52.0284 20.6795 52.7091 21.3815 52.8368 22.5303C52.9219 23.2749 53.3048 23.7429 54.1132 23.6153C54.9216 23.4664 55.0705 22.8707 54.9641 22.1687C54.645 20.1051 53.4324 18.7436 51.4965 18.1054C50.5818 17.8076 50.1137 17.4672 50.1988 16.4673C50.2626 15.8078 49.8584 15.3611 49.1777 15.3611C48.4331 15.3611 48.114 15.8291 48.0927 16.5311C48.0927 16.6375 48.0715 16.7439 48.0927 16.8502C48.2204 17.531 47.9225 17.8714 47.2418 18.0416C46.327 18.2756 45.5612 18.7862 44.9017 19.4669C42.6467 21.7645 43.2423 25.7852 46.2419 26.7851C48.0927 27.402 48.2416 28.3593 48.0927 29.8485C48.0715 30.125 48.0927 30.4229 48.0927 30.6994C48.0927 31.5504 48.0502 32.4013 48.0927 33.2523C48.1566 34.2096 47.7311 34.1458 47.0929 33.7841C46.0079 33.1672 45.3484 32.2737 45.242 30.9973C45.1782 30.3803 44.774 30.0187 44.1571 30.0612C43.4976 30.1038 43.1572 30.5292 43.1572 31.1887C43.1572 31.4015 43.1572 31.6142 43.1998 31.8269C43.7103 33.7629 44.774 35.252 46.7738 35.9328ZM50.9221 27.87C52.39 28.2955 53.5601 29.6358 53.5601 30.9547C53.5601 32.3162 52.3049 33.7203 50.837 34.1032C50.369 34.2309 50.1776 34.1245 50.1776 33.6352C50.1776 32.763 50.1776 31.8695 50.1776 30.9973C50.1776 30.1463 50.1988 29.2954 50.1776 28.4657C50.1776 27.8913 50.3265 27.6998 50.9221 27.87ZM48.114 24.1897C48.0927 25.1683 47.8587 25.3172 47.0078 24.8066C46.1143 24.2748 45.6463 23.4664 45.7526 22.424C45.8377 21.5092 46.8376 20.3604 47.646 20.1689C48.0715 20.0626 48.1353 20.2753 48.1353 20.5944C48.1353 21.2752 48.1353 21.9347 48.1353 22.6154C48.114 23.126 48.1353 23.6578 48.114 24.1897Z" fill="white"/>
</svg>
