<svg width="80" height="80" viewBox="0 0 80 80" fill="none" xmlns="http://www.w3.org/2000/svg">
<path d="M70.3439 17.5681C70.3439 15.9119 69.8587 14.4239 68.8948 13.1106C67.4327 11.1115 65.4401 10.0376 62.9558 10.0182C58.246 9.98582 53.5297 10.0052 48.8199 10.0117C44.1749 10.0117 39.5233 10.0117 34.8782 10.0117C30.6407 10.0117 27.3154 13.3435 27.3154 17.5875C27.3154 25.2538 27.3154 32.9201 27.3154 40.5865C27.3154 40.9617 27.3089 41.3434 27.3154 41.7186C27.3413 42.5856 28.137 43.2002 28.9845 43.0255C29.6832 42.8767 30.0908 42.3332 30.0908 41.531C30.0908 33.5412 30.0908 25.5514 30.0908 17.5616C30.0908 14.8767 32.1869 12.7936 34.8782 12.7871C38.6952 12.7806 42.5122 12.7871 46.3292 12.7871C51.8088 12.7871 57.282 12.8065 62.7617 12.7806C65.2654 12.7677 67.562 14.8185 67.5556 17.5422C67.5426 26.8712 67.5556 36.1937 67.5491 45.5227C67.5491 46.5578 67.2386 47.5024 66.6175 48.324C65.6018 49.6632 64.2238 50.2584 62.5482 50.2584C54.1379 50.2519 45.7275 50.2519 37.3172 50.2584C37.1425 50.2584 36.9678 50.2584 36.8061 50.2972C36.1268 50.446 35.6545 51.1123 35.7386 51.7852C35.8292 52.5356 36.4115 53.0338 37.2137 53.0338C45.7663 53.0338 54.3125 53.0467 62.8652 53.0273C67.0057 53.0208 70.331 49.6567 70.331 45.5098C70.3439 36.1937 70.331 26.8841 70.3439 17.5681Z" fill="white"/>
<path d="M35.9778 55.7057C35.9778 55.1881 35.8096 54.7482 35.3761 54.4506C34.9168 54.1401 34.4251 54.1013 33.9399 54.3601C33.4417 54.6253 33.1959 55.0588 33.2023 55.6281C33.2023 58.6817 33.2023 61.7288 33.2023 64.7824C33.2023 66.2251 32.2384 67.2085 30.7957 67.2085C25.2449 67.2149 19.6876 67.2085 14.1368 67.2085C13.988 67.2085 13.8327 67.202 13.6839 67.1761C12.5259 66.9561 11.7819 66.0439 11.7819 64.8341C11.7819 59.3027 11.7819 53.7713 11.7819 48.2399C11.7819 46.7843 12.7523 45.8074 14.2144 45.8009C15.2301 45.7945 16.2394 45.8009 17.2551 45.8009C19.3382 45.8009 21.4149 45.7945 23.4981 45.8009C23.9704 45.8009 24.3715 45.6457 24.6626 45.2769C25.0249 44.8176 25.0767 44.3065 24.8179 43.7889C24.5591 43.2714 24.1127 43.019 23.5369 43.019C20.3475 43.019 17.1516 43.019 13.9621 43.0255C13.6839 43.0255 13.3993 43.0579 13.1275 43.1161C10.6821 43.5948 9.00647 45.6327 9 48.1235C9 50.9183 9 53.7066 9 56.5015C9 59.3027 9 62.1105 9 64.9118C9 64.9312 9 64.9571 9 64.9765C9.01941 67.7389 11.2384 69.9839 14.0009 69.9903C19.6617 70.0033 25.3225 70.0033 30.9833 69.9903C32.4778 69.9903 33.7264 69.3822 34.7097 68.2694C35.6219 67.2343 35.9842 66.0051 35.9778 64.6336C35.9583 61.6576 35.9713 58.6817 35.9778 55.7057Z" fill="white"/>
<path d="M38.4818 38.7815C33.979 43.2972 29.4374 47.7676 24.98 52.3221C24.0678 53.2537 23.1232 54.1465 22.1981 55.0587C21.5964 55.6539 21.5705 56.5273 22.1205 57.0837C22.6898 57.6595 23.5567 57.6465 24.1648 57.0384C31.4753 49.702 38.8247 42.4109 46.1222 35.0551C47.1121 34.0588 48.1213 33.0689 49.1112 32.0726C50.0492 31.1346 50.9873 30.1835 51.9383 29.2519C52.5659 28.6373 53.174 28.0033 53.8145 27.3564C53.8921 27.544 53.8598 27.6863 53.8533 27.8222C53.7951 30.0089 53.7368 32.1956 53.6786 34.3822C53.6657 34.8933 53.8274 35.3138 54.2479 35.6179C54.7008 35.9414 55.1925 35.9802 55.6841 35.7408C56.2082 35.4821 56.4475 35.0357 56.4605 34.4599C56.5575 30.9664 56.6546 27.4793 56.7387 23.9858C56.7646 23.0218 56.15 22.4525 55.1731 22.4784C51.7248 22.5754 48.2766 22.6725 44.8284 22.763C43.9162 22.7889 43.321 23.3518 43.3404 24.1928C43.3533 25.008 43.9744 25.5643 44.8672 25.5449C46.9762 25.4932 49.0917 25.4285 51.2008 25.3702C51.4013 25.3638 51.6019 25.3702 51.8607 25.3702C51.7507 25.4867 51.6795 25.5643 51.6084 25.642C47.2415 30.0153 42.8552 34.3952 38.4818 38.7815Z" fill="white"/>
</svg>
