<svg width="80" height="92" viewBox="0 0 80 92" fill="none" xmlns="http://www.w3.org/2000/svg">
<path d="M68.4495 71.8042C67.8074 71.0534 67.1496 70.3204 66.5074 69.5874C64.2522 67.0131 62.0125 64.4388 59.7572 61.8823C59.0995 61.1494 58.473 61.1494 57.8152 61.8823C57.4863 62.2399 57.1731 62.5974 56.8598 62.9728C56.6719 63.2231 56.5309 63.2052 56.343 62.9728C55.8418 62.3829 55.3406 61.7751 54.8081 61.2209C54.4636 60.8812 54.5106 60.6488 54.7612 60.2555C58.6922 54.1772 57.2984 45.5783 51.7228 41.5022C51.3312 41.2162 51.1903 40.9123 51.1903 40.3939C51.206 31.4552 51.206 22.5166 51.206 13.5601C51.206 12.1299 50.8614 11.7366 49.5928 11.7366C36.9225 11.7366 24.2678 11.7366 11.6132 11.7366C10.3446 11.7366 10 12.1299 10 13.5601C10 34.0832 10 54.5884 10 75.1115C10 76.5596 10.3446 76.9529 11.5818 76.9529C15.9358 76.9529 20.2897 76.9529 24.6594 76.9529C24.8473 76.9529 25.0509 76.9529 25.2388 76.935C25.8183 76.8456 26.2255 76.3093 26.2255 75.6478C26.2412 74.7897 25.7244 74.2713 24.816 74.2713C20.8849 74.2713 16.9695 74.2534 13.0384 74.2892C12.4745 74.2892 12.3336 74.1461 12.3336 73.4847C12.3493 54.0521 12.3493 34.6374 12.3336 15.2048C12.3336 14.5791 12.4432 14.4003 13.0227 14.4003C24.7533 14.4182 36.4683 14.4182 48.1989 14.4003C48.7471 14.4003 48.8724 14.5612 48.8724 15.169C48.841 23.1781 48.841 31.1692 48.841 39.1782C48.841 39.4106 48.888 39.6609 48.7784 39.9112C48.5904 39.8575 48.4025 39.8218 48.2146 39.7682C41.2764 37.8195 34.26 43.9157 34.072 52.0856C33.8684 60.7024 40.9789 67.2455 48.3242 65.1717C48.8097 65.0287 48.8724 65.2075 48.8567 65.6902C48.841 68.3181 48.8254 70.9461 48.8567 73.5919C48.8567 74.164 48.7001 74.2892 48.2302 74.2713C44.0955 74.2534 39.9452 74.2534 35.8105 74.2534C35.5442 74.2534 35.2623 74.2355 34.9961 74.3428C34.4949 74.5573 34.1817 75.0936 34.2287 75.7015C34.2756 76.3093 34.6672 76.792 35.184 76.8814C35.3563 76.9171 35.5286 76.9171 35.7165 76.9171C40.3837 76.9171 45.0509 76.9171 49.7181 76.9171C50.8144 76.9171 51.1903 76.4702 51.1903 75.2188C51.1903 71.6433 51.1903 68.0857 51.1903 64.5103C51.1903 64.0634 51.2529 63.7416 51.6445 63.5449C52.0673 63.3304 52.3962 62.6689 52.8034 62.7762C53.195 62.8835 53.4926 63.4555 53.8215 63.831C54.1817 64.2421 54.7768 64.6354 54.8081 65.0824C54.8395 65.6008 54.1817 65.9583 53.8215 66.3874C53.0697 67.2991 53.054 67.907 53.8215 68.783C56.437 71.7685 59.0525 74.7361 61.6523 77.7395C62.592 78.83 63.5317 79.8669 64.8943 80.2244C65.3641 80.2244 65.834 80.2244 66.3038 80.2244C66.3508 80.1887 66.3978 80.135 66.4605 80.1171C69.9374 79.0981 70.9867 74.7361 68.4495 71.8042ZM45.4268 62.8656C40.3994 62.8119 36.3587 58.1102 36.4056 52.3359C36.4526 46.7224 40.6813 42.0386 45.6617 42.0922C50.5951 42.1458 54.6359 46.776 54.5889 52.3359C54.5576 58.4141 50.6421 62.9192 45.4268 62.8656ZM66.4135 77.364C65.646 77.7752 64.91 77.6322 64.2991 76.9707C63.3594 75.9339 62.4354 74.8612 61.5114 73.8065C59.8199 71.8757 58.1284 69.9271 56.4056 67.9964C56.1394 67.6924 56.1394 67.5315 56.4056 67.2276C57.0948 66.4768 57.7682 65.7081 58.4417 64.9036C58.6766 64.6175 58.8175 64.5639 59.0838 64.8857C61.668 67.8533 64.2678 70.821 66.8677 73.7886C67.2592 74.2355 67.4941 74.754 67.4941 75.3975C67.4941 76.2914 67.1339 76.9886 66.4135 77.364Z" fill="white"/>
<path d="M19.4285 36.7469C23.297 36.7469 27.1654 36.7469 31.0339 36.7469C34.9023 36.7469 38.7708 36.7469 42.6392 36.7469C42.8271 36.7469 43.0307 36.7648 43.2187 36.729C43.8452 36.6218 44.2837 36.0318 44.2524 35.3346C44.221 34.6374 43.7668 34.1011 43.109 34.0832C42.6079 34.0653 42.091 34.0296 41.5899 34.0832C41.073 34.1368 40.9321 33.9581 40.9321 33.3502C40.9634 29.3815 40.9477 25.4127 40.9477 21.444C40.9477 19.9959 40.5875 19.5847 39.3033 19.5847C38.0347 19.5847 36.7661 19.5847 35.4975 19.5847C34.1192 19.5847 33.806 19.9423 33.806 21.4976C33.806 25.4664 33.7903 29.4351 33.8217 33.4039C33.8217 33.9402 33.6964 34.1011 33.2265 34.0653C32.5374 34.0296 31.8639 34.0296 31.1748 34.0653C30.7363 34.0832 30.5953 33.9581 30.611 33.4396C30.6423 31.777 30.6267 30.0966 30.611 28.4161C30.611 27.3077 30.1725 26.825 29.2171 26.8072C27.7762 26.8072 26.3197 26.8072 24.8788 26.8072C23.8608 26.8072 23.4693 27.2541 23.4693 28.434C23.4693 30.1323 23.4536 31.8307 23.4693 33.5111C23.4693 33.9223 23.3753 34.0653 22.9994 34.0474C22.2633 34.0117 21.5116 34.0117 20.7755 34.0474C20.2899 34.0832 20.149 33.9044 20.149 33.3502C20.1646 29.1848 20.1646 25.0194 20.1646 20.8361C20.1646 20.5322 20.1646 20.2104 20.0863 19.9065C19.8984 19.2987 19.4285 18.959 18.8491 19.0305C18.3166 19.0842 17.9094 19.5311 17.8467 20.1389C17.8311 20.3356 17.8311 20.5322 17.8311 20.7468C17.8311 25.4664 17.8311 30.2038 17.8311 34.9234C17.8467 36.3357 18.2226 36.7469 19.4285 36.7469ZM36.1553 28.1837C36.1553 26.396 36.1709 24.6082 36.1396 22.8384C36.1396 22.4093 36.2492 22.2484 36.6251 22.2663C37.1106 22.3021 37.5961 22.3021 38.0816 22.2663C38.5045 22.2306 38.5985 22.4451 38.5985 22.892C38.5828 26.4139 38.5828 29.9357 38.5985 33.4575C38.5985 33.9581 38.4732 34.1368 38.0347 34.0832C37.4239 34.0117 36.6094 34.3692 36.2336 33.9402C35.8733 33.529 36.1396 32.6173 36.1396 31.9379C36.1396 30.6865 36.1553 29.4351 36.1553 28.1837ZM25.8342 31.8485C25.8029 31.2228 25.8342 30.5971 25.8185 29.9893C25.8029 29.6675 25.8812 29.4709 26.2101 29.5245C26.2257 29.5245 26.2414 29.5245 26.2727 29.5245C26.9305 29.5781 27.7762 29.2027 28.1834 29.6854C28.5593 30.1323 28.2461 31.0798 28.2931 31.6698C28.2931 32.4027 28.2774 33.0106 28.2931 33.6005C28.3087 33.9223 28.2148 34.119 27.9015 34.0653C27.8859 34.0653 27.8702 34.0653 27.8389 34.0653C27.1968 34.0474 26.3667 34.2977 25.9751 33.9402C25.5523 33.5648 25.8655 32.5815 25.8342 31.8485Z" fill="white"/>
<path d="M19.1781 66.8879C21.6996 66.8879 24.2211 66.8879 26.7427 66.8879C29.2799 66.8879 31.8171 66.8879 34.3699 66.8879C35.1373 66.8879 35.6542 66.3516 35.6698 65.6008C35.6855 64.8142 35.153 64.2421 34.3699 64.2242C34.2133 64.2242 34.0567 64.2242 33.9001 64.2242C29.1702 64.2242 24.4404 64.2242 19.7106 64.2242C19.46 64.2242 19.1937 64.2063 18.9431 64.2421C18.207 64.3315 17.7528 65.0287 17.8781 65.8332C17.9721 66.4768 18.442 66.8879 19.1781 66.8879Z" fill="white"/>
<path d="M32.2078 43.3436C32.2235 42.4855 31.7066 41.9849 30.7982 41.9849C28.8875 41.9849 26.9768 41.9849 25.0504 41.9849C23.124 41.9849 21.182 41.9849 19.2556 41.9849C18.3785 41.9849 17.8773 42.4676 17.8617 43.3078C17.846 44.166 18.3628 44.6665 19.2712 44.6665C23.124 44.6665 26.9611 44.6665 30.8139 44.6665C31.691 44.6486 32.1921 44.166 32.2078 43.3436Z" fill="white"/>
<path d="M19.2406 59.4868C20.6815 59.4868 22.138 59.4868 23.5789 59.4868C25.7246 59.4868 27.8702 59.4868 30.0159 59.4868C30.611 59.4868 31.0965 59.2901 31.3314 58.6108C31.6447 57.6991 31.0809 56.8231 30.1568 56.8052C28.3244 56.7873 26.492 56.8052 24.6439 56.8052C22.8271 56.8052 21.0104 56.8052 19.1936 56.8052C18.3166 56.8052 17.8311 57.3058 17.8311 58.146C17.8624 58.9862 18.3792 59.4868 19.2406 59.4868Z" fill="white"/>
<path d="M19.178 52.0677C20.8381 52.0856 22.4983 52.0677 24.1584 52.0677C25.8342 52.0677 27.5257 52.0856 29.2015 52.0677C30.0785 52.0498 30.5797 51.3705 30.4388 50.4766C30.3291 49.7794 29.8593 49.404 29.0292 49.404C25.7872 49.404 22.5453 49.404 19.3033 49.404C19.1153 49.404 18.9117 49.404 18.7238 49.4755C18.1913 49.6364 17.8937 50.0476 17.8624 50.6733C17.8154 51.5135 18.3166 52.0677 19.178 52.0677Z" fill="white"/>
<path d="M30.3128 74.2891C29.655 74.2713 29.1382 74.7897 29.1069 75.5227C29.0755 76.2735 29.5767 76.8814 30.2345 76.9171C30.8766 76.935 31.3935 76.3808 31.4091 75.6478C31.4405 74.9149 30.9549 74.3249 30.3128 74.2891Z" fill="white"/>
<path d="M46.4603 44.5235C44.2676 44.1123 42.2003 45.471 41.4955 47.8129C41.3232 48.4029 41.198 49.0286 41.2919 49.6543C41.3859 50.3157 41.8714 50.7805 42.4196 50.7805C42.9834 50.7805 43.4532 50.3336 43.5629 49.6721C43.5942 49.4576 43.6099 49.2252 43.6412 49.0107C43.8291 47.8487 44.8001 46.9906 45.7868 47.0978C46.8675 47.223 47.6819 48.1883 47.6819 49.404C47.6819 50.4766 47.1964 51.1917 46.3663 51.6386C45.176 52.2643 44.5496 53.3549 44.4869 54.8387C44.4556 55.6074 44.9098 56.1973 45.5519 56.2689C46.1627 56.3404 46.7422 55.8398 46.8048 55.0711C46.8675 54.4811 47.1337 54.1951 47.5723 53.9448C49.1698 53.0152 49.9842 51.4956 50.0468 49.7973C50.0468 47.0442 48.4806 44.8989 46.4603 44.5235Z" fill="white"/>
<path d="M45.6769 58.0387C45.0505 58.0387 44.5023 58.6108 44.4867 59.3259C44.471 60.0589 45.0192 60.7024 45.6613 60.7024C46.2721 60.7024 46.8203 60.0767 46.8203 59.3795C46.8359 58.6466 46.3034 58.0387 45.6769 58.0387Z" fill="white"/>
</svg>
