<svg width="80" height="80" viewBox="0 0 80 80" fill="none" xmlns="http://www.w3.org/2000/svg">
<path d="M60.4231 38.7174C60.9236 37.0282 61.2365 35.3389 61.299 33.5245C60.7985 33.7122 60.298 33.8999 59.7975 33.9625C59.4221 34.025 59.3595 34.2127 59.297 34.5255C59.297 34.9635 59.1718 35.464 59.1093 35.902C58.5462 38.9677 57.2949 41.7831 55.7933 44.4734C54.542 46.7257 53.2907 48.9155 52.102 51.1679C50.5378 54.1084 49.224 57.1741 48.4732 60.4275C48.4106 60.4901 48.4106 60.4901 48.3481 60.4901C43.9059 60.4901 39.4012 60.4901 34.9591 60.4901C34.834 60.4901 34.5837 60.3024 34.5837 60.1147C33.7704 56.6736 32.3314 53.4202 30.6421 50.3545C28.8277 46.976 26.9508 43.7226 25.4492 40.219C24.1979 37.2158 23.5722 34.1502 23.8225 30.9593C24.5107 23.8895 29.7662 17.7581 36.7109 16.1939C38.0248 15.8811 39.4012 15.756 40.7777 15.5057C41.0905 15.0052 41.2782 14.3796 41.5284 13.7539C41.3408 13.7539 41.1531 13.7539 40.9654 13.7539C38.8381 13.8165 36.7735 14.1919 34.7714 14.8801C26.0749 17.6955 20.5691 26.8926 22.2584 35.902C22.7589 38.5923 23.7599 41.0949 24.9487 43.5349C26.5754 46.7257 28.3272 49.9166 29.9539 53.1074C31.5806 56.2357 32.7693 59.5516 33.2073 63.0553C33.3324 64.1814 33.3324 65.3702 33.395 66.5589C33.4575 68.1856 34.3335 69.3743 35.8976 69.8749C35.9601 69.8749 36.0853 69.9374 36.1478 70C39.8392 70 43.468 70 47.1593 70C49.4117 69.0615 49.9122 68.3107 49.9122 65.7456C49.9122 64.9322 49.8496 64.1189 49.9747 63.3681C50.225 60.8655 50.8507 58.4254 51.9143 56.1731C53.4158 53.0448 55.0425 50.0417 56.6692 46.976C58.1082 44.2857 59.5472 41.658 60.4231 38.7174ZM46.346 68.0605C43.2177 68.0605 40.0269 68.0605 36.8986 68.0605C35.7725 68.0605 35.2094 67.3097 35.3345 66.2461C39.5264 66.2461 43.7182 66.2461 47.9727 66.2461C48.0352 67.4348 47.4721 68.0605 46.346 68.0605ZM47.9727 64.3066C43.7182 64.3066 39.5264 64.3066 35.2719 64.3066C35.2094 63.6809 35.1468 63.1178 35.0842 62.4922C39.4638 62.4922 43.7808 62.4922 48.1604 62.4922C48.0978 63.1178 48.0352 63.6809 47.9727 64.3066Z" fill="white"/>
<path d="M43.6554 18.3212C43.5928 18.4463 43.3426 18.5714 43.0923 18.634C41.7159 18.7591 40.7148 19.7602 40.7148 21.1992C40.7148 21.7623 40.7148 22.3879 40.7148 22.951C40.7148 24.6403 41.5908 25.5787 43.2175 25.7664C43.4051 25.7664 43.5928 25.8916 43.6554 26.0167C43.718 26.1418 43.6554 26.3921 43.5303 26.5172C43.0923 27.0177 42.8421 27.6434 42.8421 28.3316C42.7795 28.3316 42.7169 28.3942 42.7169 28.3942C42.9672 28.9572 43.2175 29.5203 43.5303 30.0209C43.9682 30.5839 44.5313 31.0845 45.0318 31.585C46.0329 32.5235 47.4093 32.5235 48.4729 31.6475C48.5981 31.5224 48.9109 31.3973 49.036 31.4599C49.1611 31.5224 49.2863 31.8352 49.2863 32.0229C49.4114 33.3994 50.475 34.4004 51.8514 34.4004C52.4771 34.4004 53.1653 34.4004 53.791 34.4004C55.23 34.4004 56.231 33.3994 56.4187 31.9604C56.4187 31.7727 56.5438 31.5224 56.7315 31.4599C56.8567 31.3973 57.1069 31.5224 57.232 31.6475C58.3582 32.5235 59.7347 32.5235 60.7357 31.585C61.2362 31.0845 61.7367 30.5839 62.2373 30.0834C63.1757 29.0824 63.1757 27.7059 62.2998 26.6423C62.1747 26.5172 62.0496 26.2044 62.1121 26.0793C62.2373 25.8916 62.4875 25.7664 62.6752 25.7664C63.9891 25.6413 64.9901 24.6403 64.9901 23.2638C64.9901 22.5756 64.9901 21.8874 64.9901 21.1366C64.9276 19.7602 63.9891 18.7591 62.6127 18.634C62.425 18.634 62.1121 18.5089 62.0496 18.3837C61.987 18.2586 62.1121 17.9458 62.2373 17.8206C63.1132 16.757 63.0506 15.3806 62.1121 14.3796C61.6116 13.879 61.1111 13.3785 60.6106 12.878C59.7347 11.877 58.3582 11.877 57.2946 12.7529C57.1695 12.878 56.8567 13.0031 56.7315 12.9406C56.6064 12.878 56.4813 12.5652 56.4813 12.3775C56.2936 11.001 55.2925 10 53.8535 10C53.2279 10 52.5397 10 51.914 10C50.475 10 49.474 11.001 49.2863 12.44C49.2863 12.6277 49.1611 12.878 48.9734 13.0031C48.8483 13.0657 48.5981 12.9406 48.4729 12.8154C47.3468 11.9395 45.9703 11.9395 44.9693 12.9406C44.4688 13.3785 44.0308 13.879 43.5303 14.317C42.5292 15.3806 42.5292 16.757 43.4051 17.8832C43.5928 17.9458 43.718 18.2586 43.6554 18.3212ZM45.2195 19.5099C45.3447 19.1345 45.4698 18.8217 45.6575 18.5089C45.9078 18.0083 45.8452 17.5704 45.4072 17.1324C44.4062 16.0688 44.4062 16.0688 45.4698 15.0052C45.7201 14.755 45.9703 14.5047 46.2206 14.2544C46.596 13.879 47.0339 13.8165 47.3468 14.2544C48.0975 15.2555 48.9109 15.2555 49.8494 14.6924C50.0371 14.5673 50.2247 14.5673 50.475 14.4421C50.9755 14.2544 51.2258 13.9416 51.2258 13.4411C51.2258 13.316 51.2258 13.1283 51.2258 13.0031C51.2258 12.0647 51.3509 11.9395 52.2894 11.9395C52.7899 11.9395 53.2904 11.9395 53.7284 11.9395C54.2915 11.9395 54.5417 12.1898 54.5417 12.7529C54.5417 12.878 54.5417 13.0031 54.5417 13.1908C54.5417 14.1293 54.6669 14.317 55.5428 14.6298C55.9182 14.6298 56.231 14.8175 56.5438 14.9426C57.0444 15.1929 57.4823 15.1303 57.9203 14.6924C58.9839 13.6913 58.9839 13.6913 60.0475 14.755C60.2977 15.0052 60.548 15.2555 60.8608 15.5683C61.1737 15.8811 61.1737 16.2565 60.8608 16.6319C60.7357 16.8196 60.548 16.9447 60.4229 17.0699C59.8598 17.633 59.8598 17.8832 60.1726 18.5714C60.3603 18.9468 60.4854 19.2596 60.6106 19.635C60.7983 20.2607 61.1737 20.5109 61.7993 20.5109C61.987 20.5109 62.2373 20.5109 62.425 20.5109C62.9255 20.5109 63.2383 20.7612 63.2383 21.2617C63.2383 21.8874 63.2383 22.4505 63.2383 23.0761C63.2383 23.5766 62.988 23.8269 62.4875 23.8269C62.3624 23.8269 62.1747 23.8269 62.0496 23.8269C61.1111 23.8269 60.9234 23.952 60.6106 24.8279C60.4854 25.2033 60.3603 25.5162 60.1726 25.829C59.9224 26.3295 59.9849 26.7675 60.4229 27.2054C61.4239 28.269 61.4239 28.269 60.4229 29.3326C60.1726 29.5829 59.9224 29.8332 59.6721 30.0834C59.2967 30.4588 58.8587 30.5214 58.5459 30.0834C57.8577 29.1449 57.0444 29.0198 56.1059 29.6455C55.9182 29.7706 55.7305 29.8332 55.5428 29.8332C54.9171 30.0209 54.6669 30.3962 54.6669 31.0219C54.6669 31.2096 54.6669 31.4599 54.6669 31.6475C54.6669 32.1481 54.3541 32.3983 53.9161 32.3983C53.2904 32.3983 52.7274 32.3983 52.1017 32.3983C51.6012 32.3983 51.3509 32.1481 51.3509 31.6475C51.3509 31.4599 51.3509 31.2722 51.3509 31.147C51.3509 30.2711 51.2258 30.0834 50.3499 29.7706C49.9745 29.6455 49.6617 29.5203 49.3488 29.3326C48.8483 29.0824 48.4104 29.1449 47.9724 29.5829C46.9088 30.5839 46.9088 30.5839 45.8452 29.5203C45.5949 29.2701 45.3447 29.0198 45.0944 28.7696C44.9693 28.6444 44.8441 28.3942 44.719 28.2065C44.9067 27.9562 45.0318 27.7685 45.2195 27.5808C46.158 26.6423 46.158 26.6423 45.5949 25.4536C45.5949 25.391 45.5324 25.391 45.5324 25.3285C45.2821 24.1397 44.6564 23.6392 43.4051 23.8269C42.9046 23.8895 42.6544 23.5766 42.6544 23.0761C42.6544 22.4505 42.6544 21.8874 42.6544 21.2617C42.6544 20.7612 42.9046 20.5109 43.4051 20.5109C43.5303 20.5109 43.718 20.5109 43.8431 20.5109C44.719 20.5109 44.9067 20.3858 45.2195 19.5099Z" fill="white"/>
<path d="M48.5355 43.6601C49.0986 41.1575 47.0339 39.0928 44.4062 39.6559C43.9057 38.4046 42.8421 38.1543 41.5908 38.0918C40.2769 38.0918 39.2759 38.4046 38.7753 39.6559C37.4615 39.1554 36.523 39.6559 35.6471 40.5318C34.7086 41.4077 34.2706 42.4088 34.7712 43.6601C33.4573 44.2232 33.207 45.2868 33.207 46.5381C33.207 47.8519 33.5199 48.853 34.7712 49.3535C34.2706 50.6674 34.7712 51.6058 35.6471 52.4818C36.523 53.4202 37.524 53.8582 38.7753 53.3577C40.0892 55.5475 42.9046 55.5475 44.5313 53.3577C46.9714 53.9833 48.9735 51.9187 48.5355 49.2909C50.7253 48.0396 50.7253 45.1616 48.5355 43.6601ZM48.2227 46.7883C48.2227 47.5391 48.1601 47.6017 47.4093 47.6017C46.9088 47.6017 46.6585 47.7894 46.4708 48.2273C46.4083 48.415 46.3457 48.6027 46.2206 48.7904C46.0329 49.1658 46.0955 49.4786 46.4083 49.7915C46.9714 50.3545 46.9714 50.4171 46.3457 50.9802C46.0955 51.2305 45.7826 51.4807 45.4698 51.7935C45.2195 51.6058 45.0318 51.4807 44.9067 51.3556C44.5939 50.9802 44.2185 50.9176 43.7805 51.1679C43.6554 51.2305 43.4677 51.293 43.28 51.3556C42.8421 51.4807 42.6544 51.7935 42.6544 52.2315C42.6544 52.9823 42.5918 53.0448 41.841 53.0448C41.7159 53.0448 41.5282 53.0448 41.4031 53.0448C40.5897 53.0448 40.5897 53.0448 40.5897 52.2315C40.5897 51.7935 40.402 51.4807 39.9641 51.3556C39.7764 51.293 39.6512 51.2305 39.4635 51.1679C39.0256 50.9176 38.6502 50.9176 38.2748 51.3556C37.8994 51.7935 37.5866 51.7935 37.2112 51.3556C37.0861 51.2305 37.0235 51.1053 36.8984 51.0428C36.2727 50.4171 36.2727 50.4171 36.8358 49.7915C37.1486 49.4786 37.2112 49.1658 37.0235 48.7904C36.9609 48.6027 36.8358 48.415 36.7732 48.2273C36.6481 47.7268 36.3353 47.5391 35.8348 47.5391C35.1466 47.5391 35.084 47.4765 35.084 46.7883C35.084 46.6006 35.084 46.4129 35.084 46.2878C35.084 45.537 35.1466 45.4745 35.8973 45.4745C36.3979 45.4745 36.6481 45.2868 36.8358 44.8488C36.8984 44.6611 36.9609 44.4734 37.0861 44.2857C37.3363 43.9103 37.2738 43.5349 36.8984 43.2221C36.3353 42.659 36.3353 42.5965 36.9609 41.9708C37.0861 41.8457 37.1486 41.7831 37.2738 41.658C37.8369 41.0949 37.8994 41.0949 38.4625 41.658C38.7753 41.9708 39.0882 42.0334 39.5261 41.8457C39.7138 41.7205 39.9015 41.658 40.0892 41.5954C40.5272 41.4703 40.7149 41.1575 40.7149 40.6569C40.7149 39.9062 40.7774 39.8436 41.5282 39.8436C41.6533 39.8436 41.841 39.8436 41.9662 39.8436C42.7795 39.8436 42.7795 39.8436 42.7795 40.6569C42.7795 41.0949 42.9672 41.4077 43.4052 41.5329C43.5928 41.5954 43.718 41.658 43.9057 41.7205C44.3436 41.9708 44.7816 41.9708 45.0944 41.5329C45.4698 41.0949 45.7826 41.0949 46.158 41.5329C46.2206 41.658 46.3457 41.7205 46.4708 41.8457C47.1591 42.5339 47.1591 42.5339 46.5334 43.2221C46.2832 43.5349 46.2206 43.7852 46.4083 44.098C46.5334 44.2857 46.596 44.536 46.6585 44.7237C46.7837 45.1616 47.0965 45.3493 47.5345 45.3493C48.3478 45.3493 48.3478 45.4119 48.3478 46.1627C48.2227 46.4755 48.2227 46.6006 48.2227 46.7883Z" fill="white"/>
<path d="M27.2013 51.7935C26.5756 52.1064 26.7007 52.6694 26.7007 53.17C26.6382 53.8582 26.513 53.9833 25.8874 53.9833C25.3869 53.9833 24.8863 53.9833 24.3858 53.9833C23.9479 53.9833 23.635 53.733 23.6976 53.2951C23.8853 52.1689 23.3848 51.6058 22.3212 51.3556C22.196 51.293 22.0083 51.2304 21.8832 51.1679C21.3827 50.9176 21.0073 50.9802 20.6319 51.4181C20.5068 51.6058 20.3191 51.731 20.194 51.8561C19.8811 52.1064 19.5683 52.1064 19.318 51.8561C18.8801 51.4181 18.3796 50.9802 18.0042 50.4797C17.879 50.292 17.879 49.7914 18.0042 49.7289C19.1303 48.9781 18.9426 48.0396 18.3796 47.1011C18.3796 47.0386 18.317 47.0386 18.317 46.976C18.0667 46.2252 17.879 46.1001 17.0657 46.1001C16.9406 46.1001 16.8154 46.1001 16.6277 46.1001C16.1272 46.1001 15.877 45.8498 15.877 45.3493C15.877 44.9114 15.877 44.4734 15.877 44.0354C15.877 43.1595 16.0647 43.0344 16.878 43.0344C17.9416 43.0344 17.9416 43.0344 18.317 42.0334C18.4421 41.7831 18.5047 41.5328 18.6298 41.2826C18.9426 40.7821 18.8175 40.3441 18.4421 39.9061C17.5662 39.0302 17.5662 39.0302 18.5047 38.0918C18.5673 38.0292 18.6298 37.9666 18.6924 37.9041C19.6309 36.9656 19.6309 36.9656 20.6319 37.7164C20.5068 36.9656 20.3816 36.2774 20.2565 35.5891C20.2565 35.464 20.0063 35.3389 19.8186 35.3389C19.1303 35.2763 18.5047 35.5266 18.0042 36.0271C17.5662 36.4651 17.0657 36.903 16.6277 37.4035C15.7518 38.342 15.6893 39.6559 16.44 40.6569C16.5652 40.7821 16.6277 40.9698 16.8154 41.1574C16.5026 41.22 16.3149 41.22 16.0647 41.2826C14.8759 41.5328 14.0626 42.4088 14 43.5975C14 44.2857 14 44.9739 14 45.6621C14.0626 46.8509 14.9385 47.7894 16.1272 47.9771C16.3149 47.9771 16.5026 48.0396 16.7529 48.1022C16.6277 48.2899 16.5652 48.415 16.5026 48.4776C15.5641 49.6663 15.5641 50.9176 16.6903 52.0438C17.0657 52.4192 17.5036 52.8571 17.879 53.2325C18.8175 54.1084 20.1314 54.2336 21.1324 53.4202C21.2576 53.2951 21.4453 53.2325 21.633 53.0448C21.6955 53.2951 21.6955 53.4202 21.6955 53.5454C21.8832 54.9843 22.8843 55.8603 24.3233 55.8603C24.8863 55.8603 25.512 55.8603 26.0751 55.8603C27.0761 55.7977 27.7643 55.3597 28.2649 54.4838C28.3274 54.3587 28.39 54.1084 28.3274 53.9833C28.0146 53.2951 27.5766 52.5443 27.2013 51.7935Z" fill="white"/>
<path d="M66.1789 45.2242C65.8035 44.5986 65.4907 43.9729 65.1153 43.3473C64.6773 42.5965 63.864 42.5965 63.3635 43.3473C62.9881 43.9729 62.6127 44.5986 62.2998 45.2242C61.7368 46.2253 62.0496 46.8509 63.3009 46.9135C62.9881 50.4797 61.5491 53.4828 58.8588 55.7977C57.9203 56.6111 56.8567 57.1742 55.7931 57.8624C55.3551 58.1126 55.1048 58.488 55.2925 58.926C55.4177 59.2388 55.7931 59.4891 56.1059 59.6142C56.2936 59.6768 56.6064 59.5516 56.8567 59.4265C61.0485 57.2367 63.7388 53.7957 64.8024 49.2284C64.9901 48.4776 65.0527 47.7268 65.1778 46.976C66.4291 46.9135 66.742 46.2253 66.1789 45.2242Z" fill="white"/>
<path d="M16.441 28.3942C16.6287 28.707 16.9415 29.0198 17.3169 29.1449C17.7549 29.2701 18.0677 28.9573 18.318 28.5819C18.6308 28.0813 19.0062 27.5183 19.319 27.0177C19.9447 26.0167 19.757 25.4536 18.5682 25.1408C19.1313 21.512 20.758 18.5089 23.8237 16.3817C24.5119 15.8811 25.3253 15.5057 26.076 15.0678C26.5766 14.8175 26.7643 14.317 26.5766 13.879C26.3889 13.3785 25.8883 13.1908 25.3253 13.3785C25.2001 13.4411 25.075 13.5037 24.9499 13.5662C21.6965 15.1303 19.2564 17.5078 17.88 20.8863C17.3169 22.2002 17.0041 23.6392 16.5661 25.0782C15.6277 25.0782 15.1897 25.6413 15.6277 26.5798C15.8779 27.2054 16.1282 27.8311 16.441 28.3942Z" fill="white"/>
<path d="M32.4568 27.1429C32.5819 26.8301 32.6445 26.3921 32.5193 26.1419C32.4568 25.8916 32.0814 25.7665 31.706 25.5162C31.3932 25.829 31.0178 26.0167 30.8301 26.267C29.5162 28.2065 29.0157 30.3963 29.3285 32.6486C29.5162 33.8999 30.0167 35.0887 30.4547 36.2774C30.6424 36.8405 31.268 36.9656 31.706 36.7154C32.144 36.4651 32.3316 36.0272 32.0814 35.4641C32.0188 35.3389 31.9563 35.1512 31.8937 35.0261C31.1429 33.3369 30.8301 31.585 31.268 29.8332C31.5809 28.8947 32.144 28.0814 32.4568 27.1429Z" fill="white"/>
<path d="M22.4458 42.659C22.2581 42.0959 22.0078 41.5328 21.7576 40.9698C20.1934 42.1585 19.6303 44.7862 20.5688 46.7883C21.5073 48.853 23.9473 50.1668 26.0746 49.6663C25.8243 49.2284 25.574 48.7904 25.3863 48.3524C25.2612 48.0396 25.011 47.9145 24.6981 47.8519C22.4458 47.414 21.4447 45.1616 22.3832 43.097C22.4458 42.9718 22.5083 42.7841 22.4458 42.659Z" fill="white"/>
<path d="M52.9154 26.8926C55.4806 26.8926 57.6078 24.7654 57.6078 22.2002C57.6078 19.635 55.4806 17.5078 52.9154 17.5078C50.3502 17.5078 48.2856 19.635 48.2856 22.2002C48.223 24.7654 50.2877 26.83 52.9154 26.8926ZM52.8528 19.3848C54.417 19.3848 55.6683 20.6361 55.6683 22.2002C55.6683 23.7018 54.417 24.9531 52.8528 24.9531C51.2887 24.9531 50.0374 23.7018 50.0374 22.1376C50.1 20.6361 51.3513 19.3848 52.8528 19.3848Z" fill="white"/>
<path d="M41.6538 43.2846C39.8395 43.2846 38.3379 44.7862 38.3379 46.538C38.3379 48.3524 39.7769 49.7914 41.5913 49.854C43.4057 49.854 44.8447 48.415 44.8447 46.6006C44.9072 44.7236 43.4682 43.2846 41.6538 43.2846ZM41.5913 47.9145C40.8405 47.9145 40.2148 47.2262 40.2774 46.4755C40.2774 45.7247 40.9656 45.099 41.7164 45.099C42.4672 45.099 43.0928 45.7872 43.0928 46.538C43.0303 47.3514 42.3421 47.977 41.5913 47.9145Z" fill="white"/>
</svg>
