<svg width="80" height="80" viewBox="0 0 80 80" fill="none" xmlns="http://www.w3.org/2000/svg">
<path d="M68.8768 47.4928C68.8601 47.4761 68.8434 47.4594 68.8434 47.4427C68.159 46.5914 67.3744 45.9904 66.1892 46.1907C66.0056 46.2241 65.8053 46.2241 65.6383 46.174C65.5048 46.1407 65.3379 46.0238 65.3045 45.9069C64.8704 44.8386 64.4531 43.7535 63.9857 42.5683C64.0692 42.5015 64.2361 42.3513 64.403 42.2345C65.4714 41.5333 65.6383 40.4817 65.4881 39.3298C65.4547 39.1128 65.3879 38.8624 65.2544 38.7122C64.7202 38.1279 64.1526 37.5771 63.5851 37.0262C63.4515 36.9093 63.2679 36.8092 63.0843 36.7925C62.0159 36.7257 60.9476 36.6255 60.2297 37.6939C60.1797 37.7774 60.0628 37.8275 60.0127 37.9109C59.7456 38.2615 59.4786 38.3116 59.0612 38.0612C58.6105 37.7774 58.093 37.5938 57.5922 37.3767C57.1415 37.1931 56.4738 37.1597 56.2568 36.8259C56.0064 36.4586 56.1566 35.8243 56.1399 35.3068C56.1232 34.372 54.9046 33.1367 53.9531 33.1367C53.4356 33.1367 52.9181 33.1367 52.3172 33.1367C52.3172 32.8028 52.3172 32.5524 52.3172 32.302C52.3172 25.3076 52.3172 18.2964 52.3172 11.302C52.3172 10.1502 52.167 9.99994 51.0318 9.99994C37.9611 10.0333 24.9237 10.05 11.8863 10.05C11.5358 10.05 11.1852 10.05 10.818 10.0667C10.3005 10.0834 10.0167 10.3505 10 10.8847C10 11.0516 10 11.2185 10 11.3855C10 27.4109 10 43.4364 10 59.4451C10 59.779 10.0167 60.1128 10.0334 60.4467C10.217 62.4165 11.8529 64.1192 13.7893 64.403C16.8943 64.8537 19.9992 65.3044 23.1208 65.7718C32.3855 67.1574 41.6336 68.5429 50.8983 69.9451C52.0501 70.112 52.2838 69.9451 52.2838 68.7766C52.2838 67.6415 52.2838 66.5063 52.2838 65.3044C52.9181 65.3044 53.4857 65.3211 54.0366 65.2877C54.2703 65.271 54.5708 65.2376 54.7377 65.1041C55.539 64.403 56.3903 63.7186 56.1065 62.4499C56.0732 62.3163 56.1232 62.1494 56.1065 62.0159C56.0565 61.6653 56.2067 61.4984 56.5573 61.3982C57.1582 61.2146 57.7425 60.9976 58.31 60.7639C58.7441 60.5802 59.2282 60.1462 59.5954 60.2297C60.0127 60.3132 60.3299 60.864 60.6805 61.2146C61.1479 61.6653 62.9507 61.9658 63.4181 61.5318C64.5199 60.5469 65.9221 59.6621 65.4881 57.8092C65.4213 57.5254 65.3212 57.1915 65.1208 56.9912C64.7202 56.5739 64.2528 56.2233 63.9356 55.9562C64.403 54.7877 64.8371 53.8696 65.1542 52.9014C65.3212 52.4173 65.5048 52.2003 66.0056 52.2837C67.1407 52.4841 68.0088 52.0834 68.7099 51.182C69.1272 50.6478 69.3108 48.0437 68.8768 47.4928ZM39.0294 66.6733C31.8514 65.5882 24.69 64.5198 17.562 63.4515C18.0628 62.6001 18.5469 61.7988 19.0477 60.9475C25.6415 62.8004 32.3355 64.6701 39.0461 66.5564C39.0294 66.5898 39.0294 66.6232 39.0294 66.6733ZM50.7814 68.3259C49.279 67.9086 47.8267 67.4912 46.3744 67.0906C37.1932 64.5198 27.9952 61.9324 18.814 59.3616C17.9126 59.1112 17.6455 59.2782 17.5286 60.1963C17.3116 61.8656 15.9595 63.0675 14.407 63.0008C12.7377 62.9173 11.4857 61.6152 11.469 59.8791C11.4523 57.1081 11.469 54.337 11.469 51.5659C11.469 38.5119 11.469 25.4411 11.469 12.3871C11.469 12.12 11.469 11.8529 11.469 11.5524C24.6065 11.5524 37.6773 11.5524 50.7981 11.5524C50.7814 30.4825 50.7814 49.3624 50.7814 68.3259ZM52.2838 57.1248C52.3005 56.0898 52.2838 55.0548 52.2838 53.9531C55.5056 54.2702 57.6089 52 57.7759 49.496C57.9595 46.6414 55.9396 44.7885 52.3005 44.488C52.3005 43.3529 52.2838 42.2178 52.3005 41.0826C52.3172 40.5818 52.7011 40.5818 53.0684 40.5818C53.4523 40.5818 53.8029 40.6653 53.7194 41.116C53.5024 42.368 54.1201 42.8855 55.2719 43.0858C55.7059 43.1526 56.1065 43.4364 56.5072 43.6701C56.9746 43.9372 57.3585 43.9372 57.7425 43.5365C57.876 43.403 58.0262 43.2861 58.1431 43.1526C58.4937 42.7519 58.7774 42.7352 59.1781 43.1359C59.5787 43.5365 59.5453 43.837 59.1447 44.1709C58.9778 44.3044 58.8442 44.4713 58.694 44.6049C58.3601 44.9221 58.3434 45.2559 58.5437 45.6732C58.8776 46.4077 59.1948 47.1589 59.4619 47.9101C59.6121 48.3275 59.8458 48.5779 60.3299 48.5612C60.5135 48.5612 60.6972 48.5612 60.8975 48.5612C61.6654 48.5779 61.8156 48.7448 61.6821 49.5127C61.6487 49.6796 61.4317 49.8465 61.2647 49.93C61.1312 49.9968 60.9309 49.9467 60.7639 49.9467C59.729 49.9467 59.6956 50.0135 59.3784 50.9817C59.1948 51.5659 58.9444 52.1502 58.6272 52.6844C58.31 53.2352 58.3434 53.6526 58.8275 54.0532C58.9444 54.1534 59.0278 54.2702 59.1447 54.3537C59.562 54.6876 59.562 54.988 59.1614 55.3887C58.7607 55.806 58.4937 55.7058 58.1264 55.3386C57.2584 54.4539 57.2584 54.4705 56.1232 55.0381C55.6057 55.2885 55.0549 55.4888 54.4873 55.6391C53.9531 55.7893 53.7027 56.0731 53.7194 56.6073C53.7194 56.7742 53.7027 56.9411 53.7194 57.1081C53.7695 57.6256 53.6359 57.926 53.0016 57.9093C52.434 57.9093 52.2671 57.6589 52.2838 57.1248ZM52.3172 52.3839C52.3172 50.2973 52.3172 48.1939 52.3172 46.1073C53.6359 45.7567 54.9881 46.2742 55.756 47.4093C56.5406 48.5612 56.4905 50.0969 55.6558 51.2154C54.8545 52.267 53.4857 52.7511 52.3172 52.3839ZM67.6415 49.5961C67.6081 49.93 67.4412 50.2806 67.2242 50.5643C67.0906 50.748 66.7735 50.8314 66.5231 50.8648C65.9889 50.9149 65.438 50.8815 64.9038 50.8815C64.4197 50.8815 64.1193 51.0651 64.0191 51.5659C63.7186 52.9348 63.2011 54.2201 62.4333 55.4054C62.1662 55.806 62.2162 56.1899 62.5668 56.5238C62.934 56.8744 63.2679 57.2249 63.6352 57.5755C64.2194 58.1597 64.2528 58.7607 63.6185 59.3283C63.2011 59.7122 62.9174 60.3799 62.1662 60.2464C61.9158 60.1963 61.6487 60.1128 61.465 59.9459C61.0477 59.5787 60.6638 59.1613 60.2631 58.7607C59.946 58.4435 59.5954 58.3934 59.1948 58.6438C58.0096 59.4117 56.7409 59.9459 55.3553 60.2464C54.8379 60.3465 54.6208 60.6637 54.6542 61.1812C54.6709 61.6319 54.6542 62.0993 54.6542 62.55C54.6542 63.4515 54.2369 63.8688 53.3522 63.8855C53.0183 63.8855 52.7011 63.8855 52.3339 63.8855C52.3339 62.3497 52.3339 60.9141 52.3339 59.4117C52.6677 59.4117 52.9682 59.395 53.2854 59.4117C53.853 59.4618 54.2703 59.2782 54.6709 58.8609C55.0382 58.4769 55.3053 58.093 55.2218 57.5421C55.1717 57.1915 55.2719 56.9745 55.6725 56.8744C56.1232 56.7408 56.5573 56.5238 56.9913 56.3402C58.5104 57.8259 59.5286 57.3251 60.6304 56.0564C61.248 55.3386 61.0978 54.337 60.1296 53.2519C60.3299 52.7511 60.5135 52.217 60.7472 51.7162C60.814 51.5826 61.0477 51.4658 61.2146 51.4491C62.5501 51.3656 63.1844 50.6979 63.2011 49.3791C63.2178 48.6947 63.2345 48.0103 62.5668 47.6097C62.2329 47.4093 61.849 47.1756 61.4817 47.1589C60.9809 47.1422 60.7472 46.9753 60.6137 46.4912C60.4968 46.0906 60.2965 45.7233 60.163 45.4228C60.4468 44.9221 60.814 44.5047 60.9476 44.0206C61.1646 43.236 60.814 42.6184 60.2131 42.0508C59.6789 41.55 59.1614 41.2162 58.4603 41.3831C58.0596 41.4833 57.6757 41.7003 57.3418 41.9507C57.0914 42.1343 56.9078 42.2511 56.6407 42.0508C56.5406 41.9841 56.4237 41.9173 56.3069 41.9006C55.5557 41.717 55.0716 41.3998 55.2051 40.4817C55.2719 39.9976 54.2536 39.1796 53.7361 39.1796C53.3021 39.1629 52.8681 39.1796 52.384 39.1796C52.384 37.6772 52.384 36.2416 52.384 34.7058C53.0517 34.8227 53.8196 34.372 54.3871 35.0731C54.5541 35.2734 54.6709 35.5739 54.6876 35.8243C54.7377 36.3585 54.7043 36.9093 54.7043 37.4435C54.6876 37.9109 54.9046 38.2114 55.3553 38.2949C56.7409 38.5786 58.0262 39.0961 59.2115 39.864C59.5954 40.1144 59.946 40.0643 60.2798 39.7305C60.6304 39.3799 60.9976 39.0461 61.3649 38.6955C61.9825 38.1112 62.6169 38.1112 63.1844 38.7289C63.5517 39.1295 64.2194 39.3966 64.0692 40.1144C64.0191 40.3815 63.9189 40.6653 63.752 40.8656C63.4015 41.2829 63.0008 41.6502 62.6169 42.0174C62.2663 42.3513 62.2162 42.7352 62.4833 43.1359C63.2512 44.3211 63.7687 45.6065 64.0692 46.9753C64.1693 47.4594 64.4698 47.6764 64.9539 47.6764C65.221 47.6764 65.4881 47.6931 65.7719 47.6764C67.4078 47.5596 67.7918 47.9602 67.6415 49.5961Z" fill="white"/>
<path d="M15.7587 46.8084C18.7802 46.8084 21.8017 46.8084 24.8231 46.8084C25.7079 46.8084 25.9082 46.5914 25.9082 45.6899C25.9082 44.922 25.9082 44.1709 25.9082 43.3362C26.6594 43.3362 27.3104 43.3195 27.9781 43.3529C28.1117 43.3529 28.2953 43.4864 28.3454 43.5866C28.6959 44.4713 29.2969 45.089 30.1816 45.4395C30.2985 45.4896 30.432 45.6732 30.432 45.7901C30.4654 46.3577 30.4487 46.9419 30.4487 47.5596C29.13 47.5596 27.878 47.5596 26.6427 47.5596C25.8414 47.5596 25.591 47.81 25.591 48.5945C25.591 50.6979 25.591 52.8012 25.591 54.9046C25.591 55.7559 25.808 55.9729 26.6761 55.9729C29.6808 55.9729 32.6689 55.9729 35.6737 55.9729C36.5918 55.9729 36.7921 55.7726 36.7921 54.8211C36.7921 52.8346 36.7921 50.8648 36.7921 48.8783C36.7921 47.7098 36.6419 47.5596 35.4567 47.5596C34.3049 47.5596 33.1363 47.5596 31.9344 47.5596C31.9344 46.9252 31.9177 46.3577 31.9511 45.8068C31.9678 45.6565 32.1514 45.4729 32.3017 45.3895C33.0696 45.0389 33.6371 44.488 33.971 43.7034C34.0378 43.5532 34.188 43.3529 34.3215 43.3529C35.0227 43.3195 35.7238 43.3362 36.475 43.3362C36.475 44.2209 36.475 45.0389 36.475 45.8569C36.475 46.558 36.7087 46.8084 37.4098 46.8084C40.5147 46.8084 43.6196 46.8084 46.7246 46.8084C47.4257 46.8084 47.6761 46.5747 47.6761 45.8736C47.6928 43.7034 47.6928 41.5333 47.6761 39.3799C47.6761 38.6454 47.4257 38.4117 46.6912 38.4117C43.6363 38.4117 40.5648 38.4117 37.5099 38.4117C36.7087 38.4117 36.4917 38.6454 36.4917 39.4634C36.4917 40.248 36.4917 41.0325 36.4917 41.8839C35.8072 41.8839 35.1896 41.8672 34.5719 41.8839C34.2548 41.9006 34.1045 41.767 33.9877 41.4833C33.4702 40.2813 32.5354 39.6136 31.2166 39.6303C29.8979 39.6303 28.9797 40.298 28.4456 41.4999C28.3788 41.6502 28.2285 41.8505 28.095 41.8505C27.3939 41.8839 26.6928 41.8672 25.9583 41.8672C25.9583 40.9992 25.9583 40.2313 25.9583 39.4634C25.9583 38.612 25.7413 38.395 24.8899 38.3783C21.8684 38.3783 18.847 38.3783 15.8255 38.3783C14.9742 38.3783 14.7572 38.5953 14.7572 39.4467C14.7572 41.5333 14.7572 43.62 14.7572 45.6899C14.7071 46.5914 14.9074 46.7917 15.7587 46.8084ZM37.9607 39.9141C40.6816 39.9141 43.4026 39.9141 46.1403 39.9141C46.1403 41.7003 46.1403 43.4697 46.1403 45.306C43.4026 45.306 40.6983 45.306 37.9607 45.306C37.9607 43.5198 37.9607 41.7337 37.9607 39.9141ZM35.2898 49.0786C35.2898 50.8982 35.2898 52.6677 35.2898 54.4705C32.5688 54.4705 29.8645 54.4705 27.1101 54.4705C27.1101 52.7011 27.1101 50.8982 27.1101 49.0786C29.7977 49.0786 32.5187 49.0786 35.2898 49.0786ZM31.1332 41.0826C31.9845 41.0492 32.6856 41.7503 32.6856 42.6017C32.6856 43.4364 32.0012 44.1208 31.1832 44.1208C30.3653 44.1208 29.6808 43.453 29.6642 42.6184C29.6475 41.7837 30.2985 41.116 31.1332 41.0826ZM16.2262 39.9141C18.9471 39.9141 21.6514 39.9141 24.4058 39.9141C24.4058 41.717 24.4058 43.4864 24.4058 45.306C21.6681 45.306 18.9805 45.306 16.2262 45.306C16.2262 43.5198 16.2262 41.7337 16.2262 39.9141Z" fill="white"/>
<path d="M22.3025 34.6391C23.9218 34.9396 25.4742 34.1216 26.0752 32.5691C26.2254 32.1685 26.4258 32.0516 26.8431 32.0516C29.731 32.0683 32.6356 32.0016 35.5235 32.085C37.7103 32.1518 39.0959 30.616 39.0458 28.5628C38.979 25.2241 39.0291 21.9022 39.0291 18.5636C39.0291 18.3632 39.0458 18.1462 39.0625 17.779C39.8971 18.6303 40.5816 19.3481 41.2994 20.0492C41.7835 20.5333 42.2008 20.6001 42.5347 20.2162C42.9186 19.7655 42.7183 19.3815 42.351 19.031C41.2326 17.9125 40.1142 16.7941 38.9957 15.6756C38.4615 15.1415 38.1444 15.1415 37.6269 15.6589C36.4917 16.7941 35.3566 17.9292 34.2215 19.0643C33.7541 19.5318 33.704 19.899 34.0712 20.2496C34.5219 20.6502 34.9059 20.4666 35.2564 20.0993C35.9576 19.3648 36.6754 18.6303 37.3932 17.8958C37.4433 17.9125 37.51 17.9459 37.5601 17.9626C37.5601 18.1629 37.5601 18.3632 37.5601 18.5636C37.5601 21.9189 37.5601 25.2742 37.5601 28.6295C37.5601 30.0485 36.9758 30.6327 35.5402 30.6327C32.6523 30.6327 29.7477 30.6327 26.8598 30.6494C26.4591 30.6494 26.2421 30.5493 26.0919 30.1486C25.4909 28.5795 23.9051 27.7281 22.2692 28.0787C20.7501 28.3958 19.6149 29.7981 19.6149 31.3672C19.5816 32.9197 20.7668 34.3553 22.3025 34.6391ZM22.9703 29.4308C24.0052 29.4475 24.8566 30.3155 24.8399 31.3672C24.8232 32.4189 23.9385 33.2702 22.9035 33.2369C21.8852 33.2035 21.0506 32.3354 21.0506 31.3338C21.0506 30.3155 21.952 29.4308 22.9703 29.4308Z" fill="white"/>
<path d="M32.1357 28.5461C34.0053 28.5461 35.491 27.027 35.4743 25.1573C35.4576 23.3211 33.9719 21.8354 32.1357 21.8187C30.2828 21.802 28.7637 23.3211 28.7637 25.1907C28.7804 27.0604 30.2661 28.5461 32.1357 28.5461ZM32.119 23.2877C33.154 23.2877 34.0387 24.1558 34.0387 25.1907C34.0387 26.2257 33.1707 27.0938 32.119 27.0771C31.0673 27.0771 30.216 26.1923 30.2327 25.1573C30.2494 24.1391 31.1007 23.2877 32.119 23.2877Z" fill="white"/>
<path d="M22.4697 16.5437C22.9037 16.961 23.3544 17.3616 23.922 17.8958C23.3878 18.3799 22.9204 18.7639 22.4864 19.1812C22.1024 19.5318 22.019 19.9324 22.4029 20.3163C22.7702 20.6836 23.1541 20.5834 23.488 20.2329C23.9053 19.7988 24.3059 19.3481 24.7734 18.8473C25.3075 19.3982 25.7082 19.7988 26.1088 20.2329C26.4761 20.6001 26.86 20.7003 27.2439 20.2996C27.5945 19.9324 27.4943 19.5318 27.1438 19.1979C26.7098 18.7973 26.2423 18.3966 25.7416 17.9626C26.259 17.4451 26.6597 17.0612 27.0603 16.6772C27.4443 16.3267 27.6112 15.926 27.2272 15.492C26.9101 15.1248 26.4927 15.1915 26.042 15.6256C25.6414 16.0262 25.2408 16.4602 24.7734 16.9443C24.2892 16.4268 23.8886 15.9761 23.4713 15.5421C23.1374 15.1915 22.7368 15.1248 22.3862 15.492C22.0357 15.8259 22.1024 16.2098 22.4697 16.5437Z" fill="white"/>
</svg>
