<svg width="80" height="80" viewBox="0 0 80 80" fill="none" xmlns="http://www.w3.org/2000/svg">
<path d="M69.507 53.5912C69.507 49.9157 69.4571 46.2567 69.5237 42.5812C69.5403 41.2174 68.9748 40.3359 67.8938 39.6707C66.7462 38.9721 65.4988 38.5397 64.2016 38.2403C59.0458 37.0761 53.8734 37.0761 48.701 38.0408C47.0545 38.3568 45.4412 38.8224 43.9943 39.7538C43.013 40.4024 42.4808 41.2506 42.4974 42.498C42.5307 49.9157 42.5307 57.35 42.4974 64.7676C42.4974 65.8653 42.8966 66.6803 43.7781 67.3123C44.7427 68.0108 45.8404 68.4598 46.988 68.7592C52.5928 70.2228 58.2142 70.2228 63.869 69.0586C65.4323 68.7426 66.9624 68.2436 68.2763 67.2956C69.0913 66.6969 69.5237 65.9318 69.507 64.8674C69.4904 61.1087 69.507 57.35 69.507 53.5912ZM44.5431 41.234C45.7073 40.3359 47.0877 39.9534 48.4848 39.6374C50.9629 39.0553 53.4743 38.8557 56.0022 38.8723C59.1622 38.889 62.289 39.1551 65.3159 40.153C66.0976 40.4191 66.8626 40.7351 67.5113 41.2673C68.1433 41.7995 68.1433 42.1986 67.5113 42.7309C66.7296 43.3795 65.7982 43.7287 64.8336 43.9949C61.1248 45.0759 57.3328 45.2588 53.5075 45.0426C51.2124 44.9096 48.9338 44.5936 46.7385 43.8618C45.9568 43.5957 45.1751 43.2797 44.5265 42.7475C43.8779 42.182 43.8612 41.7662 44.5431 41.234ZM44.0109 44.7266C44.0109 44.4439 43.9943 44.2111 44.4101 44.4439C46.5056 45.5915 48.8008 46.0405 51.1292 46.3066C55.3204 46.8056 59.4949 46.7224 63.6361 45.841C65.133 45.525 66.5965 45.0593 68.0102 44.2277C68.0102 46.1071 68.0102 47.8367 68.0102 49.583C68.0102 50.1153 67.6443 50.398 67.2618 50.6475C66.0976 51.4125 64.8003 51.8117 63.4532 52.0944C58.0978 53.1755 52.7425 53.1755 47.437 51.795C46.5056 51.5622 45.6242 51.1963 44.8092 50.6807C44.2604 50.3315 43.9777 49.8824 43.9943 49.1839C44.0442 47.7203 44.0109 46.2235 44.0109 44.7266ZM67.1786 66.2478C66.214 66.8798 65.1329 67.2291 64.0186 67.4952C60.1102 68.4432 56.1519 68.5596 52.1604 68.1937C50.1147 67.9941 48.1023 67.6615 46.173 66.8965C45.9568 66.8133 45.7572 66.7135 45.541 66.6304C44.46 66.1813 43.8945 65.4828 43.9943 64.1855C44.1107 62.7552 44.0276 61.3083 44.0276 59.8114C47.8694 61.774 51.9442 62.1232 56.0521 62.1066C60.1435 62.1066 64.2016 61.7573 68.0102 59.7948C68.0102 61.6076 68.0102 63.3539 68.0102 65.1003C68.0102 65.6824 67.5778 65.9651 67.1786 66.2478ZM68.0102 57.4498C68.0102 57.9653 67.5778 58.2314 67.1953 58.4809C66.1142 59.1794 64.9167 59.562 63.6694 59.8281C58.2142 60.9756 52.7591 60.9756 47.3539 59.562C46.4059 59.3125 45.5078 58.9466 44.6928 58.3811C44.2438 58.0651 43.9943 57.666 44.0109 57.0839C44.0442 55.5538 44.0276 54.007 44.0276 52.4769C44.0276 52.2275 44.0109 51.9946 44.3934 52.2108C46.3892 53.3251 48.5846 53.7742 50.7966 54.0569C55.1374 54.6058 59.4782 54.5392 63.7858 53.6079C65.2327 53.2919 66.6298 52.8595 68.0102 52.0279C68.0102 53.8906 68.0268 55.6702 68.0102 57.4498Z" fill="white"/>
<path d="M35.8942 41.6831C35.8942 33.4671 35.8942 25.2511 35.9109 17.0352C35.9109 16.5362 35.7445 16.1703 35.3953 15.8377C33.6157 14.0748 31.8361 12.2952 30.0732 10.5156C29.7073 10.1497 29.3248 10 28.8092 10C22.772 10 16.7347 10 10.6975 10C9.68295 10 9.5 10.1663 9.5 11.1809C9.5 16.2369 9.5 21.3095 9.5 26.3654C9.5 31.4713 9.5 36.5772 9.5 41.6831C9.5 42.5812 9.69958 42.7808 10.5977 42.7808C18.664 42.7808 26.7303 42.7808 34.8132 42.7808C35.7113 42.7808 35.8942 42.5812 35.8942 41.6831ZM29.99 12.8607C30.9879 13.8585 32.0191 14.9063 33.017 15.9042C32.2187 15.9042 31.2873 15.9042 30.3559 15.9042C30.0898 15.9042 29.99 15.8044 29.99 15.5383C30.0067 14.6236 29.99 13.6922 29.99 12.8607ZM34.414 40.7683C34.414 41.1841 34.281 41.2839 33.8818 41.2839C26.4309 41.2673 18.9966 41.2673 11.5457 41.2839C11.0301 41.2839 10.9968 41.0843 10.9968 40.6686C11.0135 35.8953 10.9968 31.1221 10.9968 26.3488C10.9968 21.6088 10.9968 16.8688 10.9802 12.1122C10.9802 11.5967 11.1299 11.4802 11.6288 11.4802C17.0174 11.4969 22.4227 11.4969 27.8113 11.4802C28.41 11.4802 28.5265 11.6798 28.5098 12.212C28.4766 13.6091 28.4932 14.9895 28.4932 16.3865C28.4932 17.2015 28.7094 17.4177 29.541 17.4177C30.9713 17.4343 32.4016 17.4343 33.8319 17.4177C34.2477 17.4177 34.414 17.5008 34.414 17.9499C34.3974 25.5505 34.3974 33.1677 34.414 40.7683Z" fill="white"/>
<path d="M43.3456 14.3741C43.8778 14.4406 44.41 14.4905 44.9422 14.5903C53.3411 15.9541 59.4781 20.3615 63.2036 28.0619C63.4032 28.4776 63.5695 28.9101 63.7691 29.3591C63.6693 29.3591 63.636 29.3591 63.6194 29.3591C62.871 29.0099 62.1226 28.6606 61.3741 28.3113C60.7754 28.0286 60.343 28.1284 60.16 28.5941C59.9438 29.1595 60.2598 29.4423 60.7255 29.6585C62.0228 30.2739 63.3034 30.8892 64.6007 31.488C65.2659 31.804 65.5819 31.6875 65.8979 31.0223C66.5133 29.7416 67.1286 28.4444 67.744 27.1471C67.9602 26.6814 68.0101 26.249 67.5112 25.9663C67.0954 25.7168 66.6796 25.9497 66.3969 26.5151C66.0143 27.2968 65.6484 28.0785 65.2493 28.9267C64.7836 27.8457 64.3512 26.8644 63.819 25.933C59.3285 18.0663 52.4763 13.8752 43.5618 12.9105C43.0961 12.8606 42.7136 13.0103 42.647 13.5259C42.5306 14.0415 42.8134 14.3242 43.3456 14.3741Z" fill="white"/>
<path d="M35.5942 68.4931C34.9789 68.4266 34.3635 68.36 33.7481 68.2602C26.9126 67.096 21.4408 63.7697 17.549 57.982C16.6343 56.6016 15.8693 55.1546 15.2206 53.4582C16.152 53.8906 16.9337 54.2731 17.732 54.639C18.181 54.8552 18.5968 54.8053 18.8297 54.323C19.0459 53.8574 18.8297 53.5247 18.3972 53.3085C17.0335 52.6599 15.6697 52.0113 14.3059 51.3626C13.8069 51.1298 13.4078 51.2462 13.1749 51.7618C12.5097 53.1422 11.8611 54.5226 11.2124 55.9197C11.0461 56.2856 11.096 56.6182 11.412 56.8677C11.8112 57.1837 12.3101 57.0506 12.5762 56.5184C12.9754 55.7034 13.3579 54.8885 13.7737 54.0237C14.2061 54.9218 14.5886 55.7367 14.9878 56.5517C15.4036 57.3832 15.8859 58.1815 16.4181 58.9466C21.025 65.6158 27.4448 69.1417 35.4279 69.9899C36.0267 70.0565 36.3926 69.7903 36.4092 69.308C36.4258 68.7592 36.0932 68.543 35.5942 68.4931Z" fill="white"/>
<path d="M61.4067 56.3355C60.7414 56.4186 60.0928 56.4851 59.4275 56.5683C58.3298 56.7014 57.2321 56.6847 56.1345 56.718C55.6355 56.7346 55.2696 56.9508 55.3029 57.4997C55.3195 58.0152 55.6688 58.1982 56.1511 58.1982C56.5835 58.1982 57.0159 58.1982 57.2488 58.1982C58.8454 58.1317 60.2258 58.0319 61.6062 57.8157C62.2216 57.7159 62.5043 57.4331 62.4378 56.9508C62.3713 56.4851 62.0054 56.2689 61.4067 56.3355Z" fill="white"/>
<path d="M65.1822 55.5371C64.7332 55.6203 64.3008 55.7367 63.885 55.903C63.5357 56.0527 63.4359 56.3853 63.5357 56.7346C63.6355 57.1005 63.9016 57.2668 64.3506 57.2834C64.7165 57.167 65.1656 57.0672 65.5814 56.8843C65.914 56.7512 66.0803 56.4352 65.9805 56.0693C65.8641 55.7034 65.5814 55.4706 65.1822 55.5371Z" fill="white"/>
<path d="M61.4407 64.2853C59.6612 64.5182 57.8982 64.6512 56.102 64.6512C55.6197 64.6512 55.3037 64.8841 55.3037 65.3996C55.3037 65.9152 55.6363 66.1314 56.1187 66.1314C56.6841 66.1314 57.233 66.1314 57.7984 66.1314C59.0624 66.0316 60.3264 65.9318 61.5738 65.7655C62.0894 65.699 62.4719 65.5161 62.4386 64.9173C62.4054 64.4516 62.0561 64.2022 61.4407 64.2853Z" fill="white"/>
<path d="M64.3174 63.6866C63.9017 63.7697 63.5191 63.9361 63.5025 64.4683C63.4859 64.9173 63.8518 65.2832 64.3008 65.2167C64.7499 65.1335 65.1989 65.0171 65.5981 64.8342C66.0139 64.6512 66.1303 64.1356 65.8642 63.7864C65.3819 63.171 64.833 63.5702 64.3174 63.6866Z" fill="white"/>
<path d="M56.1187 50.265C56.6176 50.2816 57.1165 50.265 57.6155 50.265C59.0125 50.1818 60.393 50.0654 61.7567 49.8492C62.2557 49.766 62.5052 49.4666 62.422 48.9843C62.3388 48.502 61.9896 48.3191 61.5572 48.3856C59.7443 48.6517 57.9315 48.7349 56.102 48.7848C55.6197 48.8014 55.3037 49.0176 55.3037 49.5332C55.3037 50.0654 55.653 50.265 56.1187 50.265Z" fill="white"/>
<path d="M64.4005 49.3502C64.7165 49.2504 65.1656 49.1506 65.5814 48.9677C65.914 48.8346 66.0637 48.5186 65.9639 48.1527C65.8641 47.7702 65.5814 47.5374 65.1822 47.6039C64.7332 47.687 64.3008 47.8035 63.885 47.9864C63.5357 48.1361 63.4359 48.4687 63.5357 48.818C63.6189 49.1839 63.885 49.3502 64.4005 49.3502Z" fill="white"/>
<path d="M31.154 31.2884C30.9877 31.2551 30.8214 31.2717 30.6551 31.2717C28.0439 31.2717 25.4328 31.2717 22.8216 31.2717C20.2271 31.2717 17.6326 31.2717 15.0381 31.2717C14.8717 31.2717 14.7054 31.2551 14.5391 31.2884C14.14 31.3549 13.8905 31.6044 13.8905 32.0035C13.8739 32.4027 14.1067 32.6688 14.5058 32.7519C14.6888 32.7852 14.8717 32.7686 15.0713 32.7686C20.2604 32.7686 25.4494 32.7686 30.6218 32.7686C30.8047 32.7686 31.0043 32.7852 31.1873 32.7519C31.5698 32.6688 31.8193 32.4359 31.8026 32.0202C31.786 31.6044 31.5532 31.3715 31.154 31.2884Z" fill="white"/>
<path d="M31.2377 36.1947C31.0381 36.1448 30.8219 36.1614 30.6223 36.1614C25.4333 36.1614 20.2443 36.1614 15.0719 36.1614C14.8723 36.1614 14.6561 36.1614 14.4565 36.2113C14.0906 36.3111 13.8744 36.5772 13.9077 36.9431C13.9243 37.3256 14.1571 37.5917 14.5729 37.6416C14.7559 37.6583 14.9388 37.6582 15.1384 37.6582C17.683 37.6582 20.2443 37.6582 22.7889 37.6582C25.3834 37.6582 27.9779 37.6582 30.5724 37.6582C30.772 37.6582 30.9882 37.6749 31.1878 37.6416C31.5537 37.5917 31.7865 37.3755 31.8198 36.993C31.8364 36.5772 31.6202 36.2945 31.2377 36.1947Z" fill="white"/>
<path d="M14.3898 27.8124C14.606 27.8789 14.8389 27.8789 15.0717 27.8789C17.6662 27.8789 20.2608 27.8789 22.8553 27.8789C25.4498 27.8789 28.0443 27.8789 30.6388 27.8789C30.8384 27.8789 31.0546 27.8956 31.2542 27.8457C31.6533 27.7459 31.8529 27.4798 31.8197 27.064C31.7864 26.6814 31.5536 26.4652 31.1877 26.4153C31.0047 26.3987 30.8218 26.3987 30.6222 26.3987C25.4664 26.3987 20.294 26.3987 15.1382 26.3987C14.9387 26.3987 14.7225 26.3987 14.5229 26.432C14.1403 26.4985 13.9408 26.7646 13.9241 27.1305C13.8742 27.4465 14.0572 27.7292 14.3898 27.8124Z" fill="white"/>
<path d="M14.4235 21.5423C14.0576 21.6255 13.858 21.9082 13.8913 22.2741C13.9079 22.64 14.1241 22.8895 14.5067 22.9394C14.7062 22.9726 14.9224 22.956 15.122 22.956C17.6999 22.956 20.2612 22.956 22.839 22.956C24.602 22.956 26.3649 22.956 28.1279 22.956C29.0759 22.956 30.0405 22.956 30.9885 22.956C31.4375 22.956 31.7535 22.7564 31.7868 22.2741C31.8201 21.7585 31.5041 21.5257 31.0218 21.4758C30.8721 21.4592 30.739 21.4592 30.5893 21.4592C25.4336 21.4592 20.2612 21.4592 15.1054 21.4592C14.8725 21.4924 14.6397 21.4924 14.4235 21.5423Z" fill="white"/>
<path d="M14.8556 18.0996C16.5686 18.083 18.2983 18.0996 20.0113 18.0996C21.7577 18.0996 23.4873 18.0996 25.2336 18.0996C25.7492 18.0996 26.1484 17.9832 26.2149 17.4011C26.2648 16.9188 25.8989 16.6194 25.2503 16.6194C21.7909 16.6194 18.3316 16.6194 14.8556 16.6194C14.2236 16.6194 13.8244 16.9354 13.8743 17.4011C13.9408 17.9499 14.34 18.0996 14.8556 18.0996Z" fill="white"/>
</svg>
