<svg width="42" height="42" viewBox="0 0 42 42" fill="none" xmlns="http://www.w3.org/2000/svg">
<mask id="mask0_2007_942" style="mask-type:alpha" maskUnits="userSpaceOnUse" x="0" y="0" width="42" height="42">
<rect width="42" height="42" rx="11" fill="#D9D9D9"/>
</mask>
<g mask="url(#mask0_2007_942)">
<g filter="url(#filter0_f_2007_942)">
<circle cx="25.8461" cy="30.6922" r="24.2308" fill="white"/>
</g>
</g>
<rect x="0.25" y="0.25" width="41.5" height="41.5" rx="10.75" stroke="url(#paint0_linear_2007_942)" stroke-width="0.5"/>
<g clip-path="url(#clip0_2007_942)">
<path d="M27.5255 27.2047C24.7755 27.2047 22.0427 27.2047 19.2869 27.2047C20.5474 27.6172 21.1546 28.4994 20.9656 29.6166C20.7937 30.6192 19.9 31.3411 18.8744 31.3125C17.8546 31.2838 17.001 30.4989 16.8921 29.4619C16.789 28.5052 17.3849 27.4854 18.5651 27.1932C18.2213 27.1932 17.8833 27.1989 17.5395 27.1932C16.6 27.176 15.7979 26.5458 15.5687 25.6349C15.5343 25.5031 15.5 25.3656 15.5114 25.2338C15.6145 23.9906 15.2765 22.8104 15.013 21.6244C14.3713 18.7599 13.7354 15.8953 13.0937 13.0364C13.0536 12.8531 12.9849 12.664 12.8932 12.4979C12.7442 12.2229 12.5208 12.0625 12.177 12.0911C11.9135 12.114 11.65 12.1026 11.3807 12.0968C10.9911 12.0854 10.6932 11.7932 10.6875 11.4208C10.6817 11.0369 10.9796 10.7333 11.3807 10.7276C11.7932 10.7218 12.2229 10.6817 12.6239 10.7562C13.5921 10.9338 14.125 11.6041 14.3713 12.5036C14.5661 13.1968 14.6921 13.9073 14.8526 14.6119C14.8698 14.6864 14.8927 14.7609 14.9099 14.8468C15.0015 14.8468 15.0875 14.8468 15.1734 14.8468C20.2895 14.8468 25.4 14.8468 30.5161 14.8468C30.7854 14.8468 31.0145 14.9099 31.175 15.1276C31.3067 15.3109 31.3354 15.5172 31.2781 15.7406C30.7338 17.9062 30.1781 20.0718 29.6567 22.2432C29.4849 22.9593 29.1812 23.5724 28.5682 24.0021C28.127 24.3114 27.6401 24.4604 27.0958 24.4604C23.7786 24.4604 20.4614 24.4604 17.1442 24.4604C17.0583 24.4604 16.9724 24.4604 16.875 24.4604C16.875 24.7411 16.852 25.0047 16.8807 25.2625C16.9151 25.5776 17.2015 25.8125 17.5166 25.8297C17.5968 25.8354 17.6713 25.8297 17.7515 25.8297C21.9911 25.8297 26.2307 25.8297 30.476 25.8297C30.5677 25.8297 30.6651 25.8239 30.7567 25.8411C31.1005 25.9099 31.3411 26.2307 31.3067 26.5802C31.2724 26.9239 30.9859 27.1989 30.625 27.1989C29.9088 27.2047 29.1927 27.1989 28.4765 27.1989C28.3963 27.1989 28.3218 27.1989 28.2359 27.2104C28.7916 27.3422 29.2557 27.6229 29.5765 28.1041C29.8974 28.5739 30.0005 29.0953 29.8974 29.6567C29.7197 30.6021 28.8546 31.3125 27.875 31.3182C26.8895 31.3182 26.0187 30.5963 25.8468 29.6396C25.6578 28.5109 26.2307 27.6687 27.5255 27.2047ZM29.7427 16.2276C24.8901 16.2276 20.0604 16.2276 15.225 16.2276C15.2364 16.2963 15.2421 16.3536 15.2536 16.4109C15.7349 18.5593 16.2161 20.7021 16.6859 22.8505C16.726 23.0396 16.7948 23.0854 16.9781 23.0797C20.3354 23.0739 23.6984 23.0739 27.0557 23.0739C27.6802 23.0739 28.1156 22.7359 28.2645 22.1343C28.6312 20.6677 29.0036 19.201 29.3703 17.7286C29.4963 17.2359 29.6166 16.7375 29.7427 16.2276ZM18.9489 29.9432C19.3213 29.9375 19.6307 29.6281 19.625 29.2557C19.625 28.8776 19.2984 28.5625 18.9203 28.5739C18.5479 28.5854 18.2442 28.9005 18.2557 29.2729C18.2614 29.6396 18.5765 29.9432 18.9489 29.9432ZM28.5682 29.2442C28.5625 28.8718 28.2531 28.5682 27.8807 28.5682C27.5083 28.5682 27.1989 28.8776 27.1989 29.25C27.1989 29.6281 27.5198 29.9432 27.8979 29.9375C28.2645 29.9317 28.5739 29.6166 28.5682 29.2442Z" fill="#7D7DFF"/>
</g>
<defs>
<filter id="filter0_f_2007_942" x="-20.4846" y="-15.6386" width="92.6615" height="92.6614" filterUnits="userSpaceOnUse" color-interpolation-filters="sRGB">
<feFlood flood-opacity="0" result="BackgroundImageFix"/>
<feBlend mode="normal" in="SourceGraphic" in2="BackgroundImageFix" result="shape"/>
<feGaussianBlur stdDeviation="11.05" result="effect1_foregroundBlur_2007_942"/>
</filter>
<linearGradient id="paint0_linear_2007_942" x1="21" y1="0" x2="21" y2="8.07692" gradientUnits="userSpaceOnUse">
<stop stop-color="white"/>
<stop offset="1" stop-color="white" stop-opacity="0"/>
</linearGradient>
<clipPath id="clip0_2007_942">
<rect width="22" height="22" fill="white" transform="translate(10 10)"/>
</clipPath>
</defs>
</svg>
