<svg width="148" height="42" viewBox="0 0 148 42" fill="none" xmlns="http://www.w3.org/2000/svg">
<path d="M0.699219 0.370605C3.23984 0.379222 5.77923 0.375529 8.31985 0.398917C10.3386 0.41615 12.3203 0.658641 14.2024 1.46243C18.4097 3.26081 20.245 7.01511 19.9693 11.2199C19.6025 16.8059 15.442 20.0112 10.3447 20.5282C9.06456 20.6574 7.76716 20.6316 6.47716 20.6463C4.552 20.6685 2.62561 20.6623 0.699219 20.6673C0.699219 13.9021 0.699219 7.13575 0.699219 0.370605ZM6.37007 5.30167C6.37007 8.86026 6.37007 12.2305 6.37007 15.6316C7.40404 15.6316 8.40355 15.6783 9.3969 15.6229C12.0446 15.474 13.8085 13.9144 14.1753 11.3049C14.5237 8.82826 13.4626 6.26672 10.4383 5.61679C9.13841 5.33737 7.7647 5.39892 6.37007 5.30167Z" fill="#BCBCBC"/>
<path d="M139.297 0.0012207C140.449 0.163702 141.615 0.262176 142.751 0.502205C144.453 0.862865 145.993 1.60634 147.38 2.76094C146.443 4.07926 145.524 5.37173 144.666 6.58049C143.477 6.05981 142.393 5.45789 141.231 5.11693C140.291 4.8412 139.261 4.87567 138.27 4.78335C138.153 4.77227 138.026 4.81412 137.911 4.84982C137.347 5.02461 136.9 5.32372 136.847 5.97365C136.795 6.62234 137.161 7.05809 137.721 7.2378C138.888 7.61446 140.088 7.88527 141.259 8.25208C142.445 8.62382 143.646 8.98079 144.78 9.48054C149.267 11.4562 148.483 17.2735 145.615 19.3119C144.068 20.4111 142.341 20.8776 140.485 20.9576C136.979 21.1078 133.734 20.3286 130.882 18.1992C130.669 18.0404 130.466 17.8705 130.195 17.6563C131.245 16.4045 132.276 15.1748 133.268 13.9931C134.247 14.5347 135.153 15.0935 136.109 15.549C137.308 16.1201 138.605 16.3503 139.931 16.3306C140.414 16.3232 140.912 16.2334 141.376 16.0918C141.873 15.9404 142.203 15.5834 142.251 15.0209C142.299 14.4498 142.018 14.0349 141.533 13.8515C140.6 13.4983 139.639 13.2213 138.685 12.9234C137.34 12.5037 135.956 12.1824 134.651 11.6605C132.916 10.9663 131.633 9.77596 131.288 7.82126C130.652 4.21959 132.671 1.23583 136.336 0.382806C137.068 0.212939 137.818 0.128006 138.559 0.00245162C138.804 0.0012207 139.051 0.0012207 139.297 0.0012207Z" fill="#BCBCBC"/>
<path d="M55.1073 0.00123092C55.8187 0.162482 56.5388 0.292959 57.2392 0.492368C59.3896 1.1066 61.0612 2.39045 62.3857 4.22944C60.9738 5.31758 59.5841 6.38725 58.1759 7.47292C57.963 7.24889 57.7833 7.0581 57.6011 6.86977C55.9566 5.16864 53.7188 4.6578 51.7702 5.53791C49.8857 6.38848 48.6499 8.67307 48.864 10.9281C49.0425 12.7979 49.7528 14.3772 51.4453 15.3533C53.2953 16.4193 55.6883 16.0327 57.3968 14.451C57.7107 14.1605 58.0565 13.9032 58.448 13.582C59.7158 14.4805 61.0957 15.4604 62.526 16.4746C61.1966 18.3493 59.573 19.8166 57.3685 20.4591C53.0553 21.7159 49.0708 21.1497 45.8741 17.7843C43.0122 14.7735 42.3919 11.1066 43.6006 7.21443C44.7786 3.42073 47.4952 1.16691 51.3419 0.25357C51.7333 0.16002 52.1297 0.0837026 52.5236 0C53.384 0.00123092 54.2456 0.00123092 55.1073 0.00123092Z" fill="#BCBCBC"/>
<path d="M114.065 41.2112C113.12 40.8481 112.165 40.5059 111.234 40.1095C110.905 39.9692 110.636 39.6922 110.281 39.435C110.691 38.9475 111.067 38.5007 111.474 38.0157C112.365 38.7284 113.293 39.3549 114.428 39.4128C115.058 39.4448 115.758 39.3845 116.323 39.1346C117.295 38.705 117.3 37.415 116.345 36.9473C115.639 36.6014 114.844 36.4364 114.09 36.1902C113.565 36.0191 113.029 35.8764 112.522 35.6634C111.451 35.2141 110.82 34.414 110.749 33.2299C110.673 31.9583 111.14 30.933 112.248 30.2781C113.693 29.4239 115.231 29.4977 116.752 30.0221C117.416 30.2511 118.024 30.6413 118.725 30.9933C118.318 31.5743 117.984 32.0507 117.742 32.3953C116.725 32.0519 115.824 31.674 114.885 31.4623C114.444 31.3626 113.909 31.5128 113.458 31.6715C112.992 31.8353 112.723 32.2451 112.714 32.772C112.704 33.2767 112.942 33.6681 113.388 33.8503C114.066 34.1272 114.777 34.3254 115.47 34.563C116.106 34.7808 116.761 34.9618 117.369 35.2424C118.4 35.7188 118.975 36.5374 119.001 37.7055C119.028 38.9512 118.588 39.9618 117.478 40.5834C116.991 40.8567 116.433 41.0056 115.908 41.2112C115.296 41.2112 114.681 41.2112 114.065 41.2112Z" fill="#BCBCBC"/>
<path d="M0.699219 34.2C7.98011 34.2036 15.261 34.2073 22.5431 34.2123C22.7856 34.2123 23.0281 34.2123 23.3149 34.2123C23.3149 34.7834 23.3149 35.3041 23.3149 35.922C15.7768 35.922 8.23861 35.922 0.70045 35.922C0.699219 35.3472 0.699219 34.7736 0.699219 34.2Z" fill="#BCBCBC"/>
<path d="M123.442 13.6164C125.048 15.9601 126.616 18.2496 128.262 20.6511C127.584 20.6511 127.04 20.6511 126.496 20.6511C125.122 20.6511 123.747 20.6339 122.375 20.6609C121.94 20.6696 121.674 20.5502 121.428 20.1698C120.304 18.433 119.136 16.7245 118.001 14.995C117.778 14.6565 117.547 14.478 117.114 14.5088C116.506 14.5519 115.891 14.5199 115.211 14.5199C115.211 16.5694 115.211 18.5659 115.211 20.6068C113.327 20.6068 111.514 20.6068 109.645 20.6068C109.645 13.9007 109.645 7.19344 109.645 0.395067C109.861 0.395067 110.078 0.395067 110.294 0.395067C113.165 0.395067 116.038 0.350754 118.907 0.413531C120.147 0.440611 121.415 0.556317 122.612 0.857893C126.108 1.73923 127.962 4.57035 127.563 8.1511C127.298 10.528 126.096 12.2254 123.995 13.3185C123.832 13.4034 123.672 13.4921 123.442 13.6164ZM115.227 10.1107C116.417 10.1107 117.541 10.1243 118.665 10.1046C119.152 10.096 119.652 10.0726 120.122 9.95932C121.317 9.67005 121.971 8.78871 121.94 7.60211C121.911 6.44873 121.236 5.52554 120.021 5.42092C118.447 5.28551 116.852 5.38768 115.227 5.38768C115.227 6.90417 115.227 8.46744 115.227 10.1107Z" fill="#BCBCBC"/>
<path d="M88.5039 0.43335C93.9507 0.43335 99.3532 0.43335 104.791 0.43335C104.791 2.01631 104.791 3.56112 104.791 5.1687C101.223 5.1687 97.6866 5.1687 94.1058 5.1687C94.1058 6.20391 94.1058 7.17756 94.1058 8.23C96.9616 8.23 99.8173 8.23 102.707 8.23C102.707 9.73295 102.707 11.1571 102.707 12.6453C99.8542 12.6453 97.0145 12.6453 94.1194 12.6453C94.1194 13.7359 94.1194 14.765 94.1194 15.858C97.7075 15.858 101.287 15.858 104.915 15.858C104.915 17.4668 104.915 19.0116 104.915 20.6032C99.4591 20.6032 93.9987 20.6032 88.5039 20.6032C88.5039 13.8873 88.5039 7.19356 88.5039 0.43335Z" fill="#BCBCBC"/>
<path d="M40.1524 20.618C34.66 20.618 29.2169 20.618 23.7344 20.618C23.7344 13.8811 23.7344 7.17261 23.7344 0.39516C23.9879 0.39516 24.207 0.39516 24.4274 0.39516C29.3892 0.39516 34.3523 0.405008 39.3141 0.38162C39.8853 0.379158 40.0465 0.536716 40.0305 1.09925C39.9911 2.42741 40.0182 3.75804 40.0182 5.15021C36.4313 5.15021 32.8937 5.15021 29.3068 5.15021C29.3068 6.20018 29.3068 7.18738 29.3068 8.24474C32.176 8.24474 35.0342 8.24474 37.9269 8.24474C37.9269 9.73785 37.9269 11.162 37.9269 12.6551C35.0416 12.6551 32.1846 12.6551 29.292 12.6551C29.292 13.7408 29.292 14.7563 29.292 15.8641C32.8949 15.8641 36.5064 15.8641 40.1524 15.8641C40.1524 17.4828 40.1524 19.0116 40.1524 20.618Z" fill="#BCBCBC"/>
<path d="M71.7602 8.45642C72.6994 7.35598 73.6386 6.25553 74.5777 5.15509C75.8271 3.68907 77.0716 2.21811 78.3333 0.763167C78.4773 0.596992 78.7223 0.417278 78.9217 0.414816C80.9884 0.388967 83.0563 0.398814 85.3015 0.398814C83.7407 2.16519 82.2772 3.82693 80.8087 5.48375C79.3291 7.15411 77.8446 8.82077 76.3293 10.5244C79.3316 13.8762 82.3055 17.1972 85.3582 20.6044C85.0726 20.6253 84.9002 20.6499 84.7291 20.6499C82.9037 20.6524 81.0795 20.6364 79.254 20.6622C78.7986 20.6684 78.5032 20.5281 78.2102 20.1809C76.1779 17.7671 74.1248 15.3705 72.0777 12.969C71.9731 12.8459 71.8673 12.724 71.658 12.4815C71.658 15.2683 71.658 17.9111 71.658 20.6031C69.7464 20.6031 67.9135 20.6031 66.0352 20.6031C66.0352 13.8897 66.0352 7.18119 66.0352 0.43328C67.8828 0.43328 69.6984 0.43328 71.6137 0.43328C71.6137 3.09822 71.6137 5.75824 71.6137 8.41826C71.6629 8.4318 71.7122 8.44411 71.7602 8.45642Z" fill="#BCBCBC"/>
<path d="M29.8723 29.9224C31.96 29.9224 34.0144 29.7771 36.0392 29.9642C37.9164 30.1378 38.9504 31.7245 38.4518 33.4305C38.2561 34.1026 37.6751 34.6614 37.248 35.3052C37.312 35.336 37.5385 35.4406 37.7576 35.5575C39.6151 36.5447 39.7455 39.2392 37.9312 40.3064C37.2862 40.6856 36.4824 40.9391 35.7377 40.9748C33.8014 41.0671 31.8578 41.0056 29.8711 41.0056C29.8723 37.2981 29.8723 33.6016 29.8723 29.9224ZM31.7606 39.2466C33.1207 39.2466 34.4083 39.2946 35.6909 39.2306C36.6412 39.1838 37.2012 38.5758 37.216 37.7732C37.2308 36.9756 36.6941 36.381 35.7143 36.3035C34.5314 36.2112 33.3398 36.2198 32.152 36.2222C32.0215 36.2222 31.7827 36.4697 31.7778 36.61C31.7433 37.4679 31.7606 38.3283 31.7606 39.2466ZM31.8024 34.6171C33.0272 34.558 34.2101 34.558 35.3782 34.4239C36.1463 34.3352 36.5993 33.7124 36.603 33.028C36.6067 32.3448 36.1291 31.7146 35.3598 31.6617C34.1879 31.5817 33.0062 31.6408 31.8012 31.6408C31.8024 32.6095 31.8024 33.5585 31.8024 34.6171Z" fill="#BCBCBC"/>
<path d="M79.6982 33.3138C79.6982 34.4967 79.6982 35.6784 79.6982 36.8613C79.6982 38.0503 79.6724 39.2394 79.7105 40.426C79.7278 40.9553 79.5394 41.1104 79.0421 41.0661C78.6396 41.0304 78.2322 41.0587 77.7891 41.0587C77.7891 37.297 77.7891 33.5981 77.7891 29.8118C78.3171 29.8118 78.8464 29.7786 79.3671 29.8302C79.5468 29.8475 79.7388 30.0494 79.8681 30.2131C81.6 32.4226 83.3208 34.6395 85.0453 36.8539C85.1881 37.0385 85.3358 37.2195 85.6029 37.3549C85.6029 34.8684 85.6029 32.3832 85.6029 29.8118C86.1938 29.8118 86.7206 29.8081 87.2462 29.813C87.6906 29.8167 87.5675 30.1638 87.5675 30.3989C87.5749 32.9199 87.5712 35.4396 87.5712 37.9605C87.5712 38.9612 87.5712 39.962 87.5712 40.9467C86.3661 41.2741 85.9685 41.1424 85.2718 40.2463C83.4636 37.9186 81.6529 35.5946 79.8422 33.2694C79.7942 33.2842 79.7462 33.299 79.6982 33.3138Z" fill="#BCBCBC"/>
<path d="M94.6914 40.976C94.6914 37.2734 94.6914 33.5807 94.6914 29.803C96.7458 29.899 98.7805 29.5469 100.766 30.0824C103.522 30.8246 105.083 33.204 104.818 36.1435C104.594 38.6348 102.429 40.7779 99.7899 40.9551C98.122 41.0671 96.4405 40.976 94.6914 40.976ZM96.6658 39.2404C97.5816 39.2404 98.4396 39.2737 99.2938 39.2331C101.09 39.1481 102.537 37.7941 102.731 36.0634C102.963 33.982 101.986 32.2451 100.148 31.8254C99.0353 31.5718 97.8524 31.6297 96.6646 31.5447C96.6658 34.1826 96.6658 36.6727 96.6658 39.2404Z" fill="#BCBCBC"/>
<path d="M52.2885 36.8352C53.2794 38.2237 54.2494 39.5838 55.3006 41.056C54.5128 41.056 53.8469 41.0831 53.1859 41.0376C53.0099 41.0252 52.808 40.8221 52.6874 40.656C51.9303 39.6121 51.1992 38.5499 50.4397 37.5073C50.324 37.3473 50.1073 37.1725 49.9289 37.1626C49.2186 37.1232 48.5047 37.1466 47.7243 37.1466C47.7243 38.4563 47.7243 39.7155 47.7243 41.0154C47.0534 41.0154 46.4503 41.0154 45.793 41.0154C45.793 37.298 45.793 33.588 45.793 29.7992C46.0232 29.7992 46.241 29.7956 46.4601 29.7992C48.2203 29.8313 49.9904 29.766 51.7395 29.9199C54.1608 30.1328 55.484 32.2734 54.7565 34.5888C54.4685 35.507 53.842 36.12 52.9926 36.5275C52.7747 36.6321 52.5495 36.7219 52.2885 36.8352ZM47.7612 31.6493C47.7612 32.9307 47.7612 34.1432 47.7612 35.3199C48.9663 35.3199 50.1344 35.4098 51.2816 35.2941C52.4055 35.1808 52.9446 34.43 52.9089 33.3652C52.8769 32.4137 52.259 31.7416 51.1635 31.6653C50.0483 31.5902 48.9244 31.6493 47.7612 31.6493Z" fill="#BCBCBC"/>
<path d="M60.2578 41.0597C60.9976 39.3549 61.6918 37.7449 62.3947 36.1397C63.2477 34.1912 64.1217 32.2513 64.9562 30.2941C65.1372 29.8682 65.3784 29.7771 65.8203 29.7242C66.7682 29.6085 67.2014 29.9679 67.567 30.8492C68.873 34.0053 70.2861 37.1183 71.6574 40.2473C71.7608 40.4849 71.8543 40.7261 71.9897 41.0573C71.3152 41.0573 70.7268 41.0831 70.1433 41.0388C70.0018 41.0277 69.8307 40.8086 69.7544 40.6474C69.4602 40.0184 69.2251 39.3598 68.91 38.7419C68.8164 38.5597 68.5358 38.3652 68.3376 38.3615C66.8617 38.3295 65.3846 38.3566 63.9075 38.3345C63.5284 38.3283 63.3597 38.4859 63.2342 38.8096C62.9966 39.4189 62.7123 40.011 62.4796 40.6215C62.3504 40.9625 62.1534 41.0893 61.7903 41.0659C61.3226 41.0363 60.8499 41.0597 60.2578 41.0597ZM66.0936 32.1122C65.4228 33.6754 64.8184 35.0861 64.1968 36.5349C65.5015 36.5349 66.7165 36.5349 68.0175 36.5349C67.3787 35.0651 66.7694 33.6668 66.0936 32.1122Z" fill="#BCBCBC"/>
<path d="M125.172 35.8765C125.172 35.3103 125.172 34.8044 125.172 34.2554C132.706 34.2554 140.215 34.2554 147.763 34.2554C147.763 34.7871 147.763 35.309 147.763 35.8765C140.249 35.8765 132.742 35.8765 125.172 35.8765Z" fill="#BCBCBC"/>
</svg>
