<svg width="24" height="24" viewBox="0 0 24 24" fill="none" xmlns="http://www.w3.org/2000/svg">
<path d="M15.8025 3.41907C15.7136 3.33569 15.6022 3.28013 15.4821 3.25924C15.362 3.23836 15.2384 3.25305 15.1265 3.30151C15.0147 3.34998 14.9194 3.4301 14.8525 3.53201C14.7856 3.63392 14.75 3.75317 14.75 3.87507V6.61107C14.571 6.61507 14.3625 6.62607 14.13 6.64707C13.3625 6.71807 12.322 6.91007 11.242 7.39957C9.041 8.39707 6.779 10.5866 6.254 15.1796C6.2397 15.3053 6.26391 15.4324 6.32342 15.5441C6.38293 15.6558 6.47494 15.7468 6.58728 15.805C6.69962 15.8633 6.82699 15.8861 6.95256 15.8704C7.07813 15.8547 7.19597 15.8012 7.2905 15.7171C9.458 13.7901 11.489 12.9606 12.9585 12.6076C13.5298 12.467 14.1137 12.3838 14.7015 12.3591L14.75 12.3576V15.1251C14.75 15.247 14.7856 15.3662 14.8525 15.4681C14.9194 15.5701 15.0147 15.6502 15.1265 15.6986C15.2384 15.7471 15.362 15.7618 15.4821 15.7409C15.6022 15.72 15.7136 15.6645 15.8025 15.5811L21.8025 9.95607C21.8649 9.89762 21.9146 9.82699 21.9486 9.74855C21.9825 9.67012 22.0001 9.58555 22.0001 9.50007C22.0001 9.41459 21.9825 9.33002 21.9486 9.25159C21.9146 9.17316 21.8649 9.10253 21.8025 9.04407L15.8025 3.41907ZM3 7.12507C3 6.29627 3.32924 5.50142 3.91529 4.91537C4.50134 4.32931 5.2962 4.00007 6.125 4.00007H10.25C10.4158 4.00007 10.5747 4.06592 10.6919 4.18313C10.8092 4.30034 10.875 4.45931 10.875 4.62507C10.875 4.79083 10.8092 4.94981 10.6919 5.06702C10.5747 5.18423 10.4158 5.25007 10.25 5.25007H6.125C5.62772 5.25007 5.15081 5.44762 4.79917 5.79925C4.44754 6.15088 4.25 6.62779 4.25 7.12507V17.8751C4.25 18.3724 4.44754 18.8493 4.79917 19.2009C5.15081 19.5525 5.62772 19.7501 6.125 19.7501H16.875C17.3723 19.7501 17.8492 19.5525 18.2008 19.2009C18.5525 18.8493 18.75 18.3724 18.75 17.8751V16.7501C18.75 16.5843 18.8158 16.4253 18.9331 16.3081C19.0503 16.1909 19.2092 16.1251 19.375 16.1251C19.5408 16.1251 19.6997 16.1909 19.8169 16.3081C19.9342 16.4253 20 16.5843 20 16.7501V17.8751C20 18.7039 19.6708 19.4987 19.0847 20.0848C18.4987 20.6708 17.7038 21.0001 16.875 21.0001H6.125C5.2962 21.0001 4.50134 20.6708 3.91529 20.0848C3.32924 19.4987 3 18.7039 3 17.8751V7.12507Z" fill="white"/>
</svg>
