<svg width="24" height="24" viewBox="0 0 24 24" fill="none" xmlns="http://www.w3.org/2000/svg">
<g clip-path="url(#clip0_586_46194)">
<path d="M23.4875 18.5484L17.9984 13.0594C16.9156 11.9766 15.2984 11.7656 13.9953 12.4078L8.99844 7.41094V4.5L2.99844 0L-0.00156254 3L4.49844 9H7.40938L12.4062 13.9969C11.7688 15.3 11.975 16.9172 13.0578 18L18.5469 23.4891C19.2313 24.1734 20.3375 24.1734 21.0172 23.4891L23.4875 21.0187C24.1672 20.3344 24.1672 19.2281 23.4875 18.5484ZM15.5469 10.5469C16.8734 10.5469 18.1203 11.0625 19.0578 12L19.9672 12.9094C20.7078 12.5859 21.4109 12.1359 22.0203 11.5266C23.7594 9.7875 24.35 7.34062 23.7969 5.11875C23.6938 4.69687 23.1641 4.55156 22.8547 4.86094L19.3672 8.34844L16.1844 7.81875L15.6547 4.63594L19.1422 1.14844C19.4516 0.839063 19.3016 0.309375 18.875 0.201563C16.6531 -0.346875 14.2062 0.24375 12.4719 1.97813C11.1359 3.31406 10.5078 5.07656 10.5406 6.83438L14.3891 10.6828C14.7687 10.5938 15.1625 10.5469 15.5469 10.5469ZM10.6766 14.3906L8.01875 11.7328L0.875 18.8812C-0.296875 20.0531 -0.296875 21.9516 0.875 23.1234C2.04688 24.2953 3.94531 24.2953 5.11719 23.1234L10.9109 17.3297C10.5547 16.3969 10.4469 15.3797 10.6766 14.3906ZM2.99844 22.125C2.37969 22.125 1.87344 21.6187 1.87344 21C1.87344 20.3766 2.375 19.875 2.99844 19.875C3.62188 19.875 4.12344 20.3766 4.12344 21C4.12344 21.6187 3.62188 22.125 2.99844 22.125Z" fill="white"/>
</g>
<defs>
<clipPath id="clip0_586_46194">
<rect width="24" height="24" fill="white"/>
</clipPath>
</defs>
</svg>
