<svg width="90" height="49" viewBox="0 0 90 49" fill="none" xmlns="http://www.w3.org/2000/svg">
<path d="M89.7007 48.4058C88.2796 48.2574 86.872 48.2619 85.5452 47.931C83.9297 47.5289 83.0726 46.2484 82.8467 44.8626C82.2468 45.3715 81.5827 45.9621 80.8901 46.517C77.3838 49.3243 72.2815 49.4979 68.4491 46.9517C63.7327 43.8181 61.4889 37.9201 63.1419 32.405C64.542 27.7372 67.5367 24.5308 72.3772 23.5975C76.1692 22.866 79.5438 23.7993 82.0703 27.0086C82.1257 27.0784 82.2065 27.1288 82.3725 27.2713C82.3725 26.0813 82.3725 25.0056 82.3725 23.8675C83.9446 23.8675 85.4465 23.8675 87.059 23.8675C87.059 24.1554 87.059 24.4492 87.059 24.7415C87.059 30.2447 87.059 35.7479 87.059 41.2512C87.059 41.5301 87.047 41.8105 87.0725 42.088C87.1742 43.1934 87.6618 43.6608 88.7568 43.7127C89.053 43.7261 89.3506 43.7142 89.6992 43.7142C89.7007 45.2395 89.7007 46.7173 89.7007 48.4058ZM75.0877 28.1852C71.2359 28.0413 67.592 31.4302 67.6563 35.966C67.7207 40.5879 70.7901 43.8878 75.1131 43.8848C79.3733 43.8819 82.38 40.5568 82.4428 35.9334C82.5011 31.4851 78.9769 28.0295 75.0877 28.1852Z" fill="#BCBCBC"/>
<path d="M24.842 35.9659C24.9916 43.0197 19.4689 48.7454 12.4354 48.7395C5.50513 48.7351 -0.0549368 43.1977 0.000409637 35.8828C0.0542602 28.878 5.50663 23.3347 12.4429 23.3599C19.8728 23.3852 24.9961 29.4641 24.842 35.9659ZM5.03394 36.5906C5.13416 38.6663 5.89854 41.0255 8.256 42.5983C11.2118 44.5687 14.8677 44.3461 17.5018 41.9217C20.5878 39.0818 21.0724 32.6913 16.7569 29.5724C14.3082 27.8038 11.6172 27.6302 8.99645 29.0338C6.32336 30.4641 4.9786 32.85 5.03394 36.5906Z" fill="#BCBCBC"/>
<path d="M28.3203 15.5999C29.8999 15.5999 31.4377 15.5999 33.0696 15.5999C33.0696 21.4087 33.0696 27.1954 33.0696 33.031C33.9417 33.1096 34.5894 33.1986 35.1803 32.3247C36.9888 29.6436 38.9393 27.0603 40.8077 24.4193C41.1128 23.9875 41.4165 23.7783 41.958 23.7916C43.4927 23.8287 45.0275 23.805 46.8 23.805C44.0043 27.59 41.3297 31.2119 38.6162 34.8871C42.1046 39.2924 45.5959 43.6991 49.165 48.2068C48.8598 48.2409 48.6788 48.278 48.4978 48.2795C46.9032 48.2839 45.3087 48.2646 43.7141 48.2928C43.2429 48.3017 42.9318 48.1637 42.6416 47.7794C41.4898 46.2527 40.317 44.7437 39.1353 43.2407C37.7696 41.5032 36.4323 39.7375 34.9724 38.0861C34.6328 37.7018 33.8445 37.7285 33.107 37.5238C33.107 41.2524 33.107 44.7303 33.107 48.2439C31.4631 48.2439 29.9269 48.2439 28.3218 48.2439C28.3203 37.3887 28.3203 26.5321 28.3203 15.5999Z" fill="#BCBCBC"/>
<path d="M50.4093 15.6089C52.0817 15.6089 53.6434 15.6089 55.2993 15.6089C55.2993 16.9769 55.2993 18.3138 55.2993 19.6506C55.2993 20.9934 55.2993 22.3362 55.2993 23.7547C57.3411 23.7547 59.3455 23.7547 61.4158 23.7547C61.4158 25.3052 61.4158 26.7815 61.4158 28.3321C59.4233 28.3321 57.4189 28.3321 55.3486 28.3321C55.3292 28.6422 55.3008 28.884 55.3008 29.1259C55.2978 33.1572 55.2993 37.1886 55.2993 41.2199C55.2993 41.398 55.3037 41.5745 55.3112 41.7526C55.374 43.1992 55.8557 43.6904 57.2962 43.7111C58.6619 43.7319 60.0261 43.7156 61.4352 43.7156C61.4352 45.2394 61.4352 46.6994 61.4352 48.1698C61.4083 48.1936 61.3694 48.2529 61.332 48.2529C59.1675 48.2321 56.9866 48.3627 54.8415 48.1401C52.0503 47.8523 50.4437 45.8552 50.4198 42.9604C50.3899 39.2332 50.4078 35.506 50.4063 31.7788C50.4048 26.7073 50.4063 21.6374 50.4063 16.5659C50.4093 16.2677 50.4093 15.9694 50.4093 15.6089Z" fill="#BCBCBC"/>
<path d="M0.502247 3.24921V2.43676H6.17468V3.24921H3.79639V10H2.88053V3.24921H0.502247ZM6.88096 10V4.32757H7.72296V5.18434H7.78205C7.88546 4.90367 8.07257 4.67594 8.34339 4.50114C8.61421 4.32634 8.91949 4.23894 9.25925 4.23894C9.32326 4.23894 9.40328 4.24017 9.49929 4.24263C9.59531 4.24509 9.66794 4.24878 9.71718 4.25371V5.14003C9.68764 5.13264 9.61993 5.12156 9.51406 5.10679C9.41066 5.08955 9.3011 5.08094 9.18539 5.08094C8.90965 5.08094 8.66345 5.13879 8.44679 5.25451C8.2326 5.36776 8.06272 5.52533 7.93716 5.72721C7.81406 5.92663 7.75251 6.15437 7.75251 6.41041V10H6.88096ZM14.3251 7.6808V4.32757H15.1967V10H14.3251V9.03982H14.266C14.1331 9.32788 13.9263 9.57284 13.6456 9.77473C13.3649 9.97415 13.0104 10.0739 12.582 10.0739C12.2275 10.0739 11.9124 9.99631 11.6366 9.8412C11.3609 9.68363 11.1442 9.44728 10.9866 9.13215C10.8291 8.81455 10.7503 8.41448 10.7503 7.93193V4.32757H11.6218V7.87284C11.6218 8.28645 11.7376 8.61636 11.969 8.86256C12.2029 9.10876 12.5008 9.23186 12.8627 9.23186C13.0793 9.23186 13.2997 9.17646 13.5237 9.06567C13.7502 8.95488 13.9398 8.78501 14.0924 8.55604C14.2476 8.32708 14.3251 8.03533 14.3251 7.6808ZM20.8109 5.59796L20.028 5.81954C19.9788 5.68905 19.9061 5.56226 19.8101 5.43916C19.7166 5.3136 19.5885 5.21019 19.426 5.12895C19.2636 5.0477 19.0555 5.00708 18.8019 5.00708C18.4548 5.00708 18.1655 5.08709 17.9341 5.24712C17.7051 5.40469 17.5906 5.60534 17.5906 5.84908C17.5906 6.06573 17.6694 6.23684 17.827 6.36241C17.9846 6.48797 18.2308 6.5926 18.5656 6.67631L19.4076 6.88312C19.9148 7.00622 20.2927 7.19456 20.5413 7.44814C20.79 7.69927 20.9143 8.02302 20.9143 8.4194C20.9143 8.74438 20.8208 9.0349 20.6337 9.29095C20.449 9.54699 20.1905 9.74888 19.8581 9.8966C19.5258 10.0443 19.1392 10.1182 18.6985 10.1182C18.12 10.1182 17.6411 9.99261 17.262 9.74149C16.8828 9.49037 16.6428 9.12353 16.5418 8.64098L17.3691 8.43417C17.4478 8.73946 17.5968 8.96842 17.8159 9.12107C18.0375 9.27371 18.3268 9.35003 18.6838 9.35003C19.09 9.35003 19.4125 9.26386 19.6513 9.09152C19.8926 8.91672 20.0132 8.70745 20.0132 8.46372C20.0132 8.26676 19.9443 8.1018 19.8064 7.96886C19.6686 7.83345 19.4568 7.7325 19.1712 7.66603L18.2258 7.44445C17.7063 7.32135 17.3247 7.13055 17.081 6.87204C16.8397 6.61107 16.7191 6.28485 16.7191 5.8934C16.7191 5.57334 16.809 5.29021 16.9887 5.04401C17.1709 4.79781 17.4183 4.60454 17.731 4.46421C18.0461 4.32387 18.4031 4.25371 18.8019 4.25371C19.3633 4.25371 19.804 4.37681 20.124 4.62301C20.4465 4.86921 20.6755 5.19419 20.8109 5.59796ZM24.6932 4.32757V5.06617H21.7536V4.32757H24.6932ZM22.6103 2.96855H23.4819V8.37508C23.4819 8.62128 23.5176 8.80593 23.589 8.92903C23.6628 9.04967 23.7564 9.13092 23.8696 9.17277C23.9854 9.21216 24.1072 9.23186 24.2352 9.23186C24.3313 9.23186 24.41 9.22693 24.4716 9.21709C24.5331 9.20478 24.5824 9.19493 24.6193 9.18754L24.7966 9.97046C24.7375 9.99261 24.655 10.0148 24.5491 10.0369C24.4433 10.0615 24.3091 10.0739 24.1466 10.0739C23.9004 10.0739 23.6591 10.0209 23.4228 9.91506C23.1889 9.8092 22.9944 9.64793 22.8393 9.43128C22.6867 9.21462 22.6103 8.94134 22.6103 8.61144V2.96855ZM28.3215 10.1182C27.775 10.1182 27.3035 9.99754 26.9071 9.75626C26.5132 9.51253 26.2091 9.17277 25.995 8.737C25.7832 8.29876 25.6774 7.78913 25.6774 7.2081C25.6774 6.62707 25.7832 6.11497 25.995 5.67182C26.2091 5.2262 26.507 4.87905 26.8887 4.63039C27.2727 4.37927 27.7208 4.25371 28.2329 4.25371C28.5283 4.25371 28.8201 4.30295 29.1081 4.40143C29.3962 4.49991 29.6584 4.65994 29.8948 4.88152C30.1311 5.10063 30.3194 5.39115 30.4598 5.75306C30.6001 6.11497 30.6703 6.5606 30.6703 7.08992V7.45922H26.2978V6.70585H29.784C29.784 6.38579 29.72 6.1002 29.5919 5.84908C29.4664 5.59796 29.2866 5.39977 29.0528 5.25451C28.8213 5.10925 28.548 5.03662 28.2329 5.03662C27.8858 5.03662 27.5854 5.12279 27.3318 5.29513C27.0807 5.46501 26.8874 5.68659 26.752 5.95987C26.6166 6.23315 26.5489 6.52613 26.5489 6.8388V7.34105C26.5489 7.76943 26.6228 8.13258 26.7705 8.43048C26.9207 8.72592 27.1287 8.95119 27.3946 9.1063C27.6605 9.25894 27.9695 9.33526 28.3215 9.33526C28.5505 9.33526 28.7573 9.30326 28.942 9.23924C29.1291 9.17277 29.2903 9.07429 29.4257 8.9438C29.5612 8.81086 29.6658 8.6459 29.7396 8.44894L30.5816 8.6853C30.493 8.97089 30.3441 9.22201 30.1348 9.43867C29.9255 9.65286 29.667 9.82027 29.3593 9.94091C29.0515 10.0591 28.7056 10.1182 28.3215 10.1182ZM34.138 10.1182C33.6653 10.1182 33.248 9.99877 32.8861 9.75996C32.5242 9.51868 32.241 9.17893 32.0367 8.74069C31.8323 8.29999 31.7302 7.77928 31.7302 7.17856C31.7302 6.58275 31.8323 6.06573 32.0367 5.6275C32.241 5.18927 32.5254 4.85074 32.8898 4.61193C33.2541 4.37311 33.6751 4.25371 34.1528 4.25371C34.5221 4.25371 34.8138 4.31526 35.028 4.43836C35.2447 4.559 35.4096 4.69687 35.5229 4.85197C35.6386 5.00462 35.7284 5.13018 35.7925 5.22866H35.8663V2.43676H36.7379V10H35.8959V9.12845H35.7925C35.7284 9.23186 35.6374 9.36234 35.5192 9.51991C35.401 9.67502 35.2324 9.81412 35.0132 9.93722C34.7941 10.0579 34.5024 10.1182 34.138 10.1182ZM34.2562 9.33526C34.6058 9.33526 34.9012 9.24417 35.1425 9.06198C35.3838 8.87733 35.5672 8.62251 35.6927 8.29753C35.8183 7.97009 35.8811 7.59217 35.8811 7.16378C35.8811 6.74032 35.8195 6.36979 35.6964 6.05219C35.5733 5.73213 35.3912 5.48347 35.1499 5.30621C34.9086 5.12648 34.6107 5.03662 34.2562 5.03662C33.8869 5.03662 33.5791 5.13141 33.3329 5.32098C33.0892 5.50809 32.9058 5.76291 32.7827 6.08543C32.662 6.40549 32.6017 6.76494 32.6017 7.16378C32.6017 7.56755 32.6633 7.93439 32.7864 8.26429C32.9119 8.59174 33.0966 8.85271 33.3403 9.04721C33.5865 9.23924 33.8918 9.33526 34.2562 9.33526ZM41.4981 10V2.43676H42.3697V5.22866H42.4435C42.5075 5.13018 42.5962 5.00462 42.7094 4.85197C42.8251 4.69687 42.9901 4.559 43.2043 4.43836C43.4209 4.31526 43.7139 4.25371 44.0832 4.25371C44.5608 4.25371 44.9818 4.37311 45.3462 4.61193C45.7106 4.85074 45.995 5.18927 46.1993 5.6275C46.4036 6.06573 46.5058 6.58275 46.5058 7.17856C46.5058 7.77928 46.4036 8.29999 46.1993 8.74069C45.995 9.17893 45.7118 9.51868 45.3499 9.75996C44.988 9.99877 44.5707 10.1182 44.098 10.1182C43.7336 10.1182 43.4419 10.0579 43.2228 9.93722C43.0036 9.81412 42.835 9.67502 42.7168 9.51991C42.5986 9.36234 42.5075 9.23186 42.4435 9.12845H42.3401V10H41.4981ZM42.3549 7.16378C42.3549 7.59217 42.4177 7.97009 42.5432 8.29753C42.6688 8.62251 42.8522 8.87733 43.0935 9.06198C43.3348 9.24417 43.6302 9.33526 43.9798 9.33526C44.3442 9.33526 44.6482 9.23924 44.892 9.04721C45.1382 8.85271 45.3228 8.59174 45.4459 8.26429C45.5715 7.93439 45.6343 7.56755 45.6343 7.16378C45.6343 6.76494 45.5727 6.40549 45.4496 6.08543C45.329 5.76291 45.1456 5.50809 44.8994 5.32098C44.6556 5.13141 44.3491 5.03662 43.9798 5.03662C43.6253 5.03662 43.3274 5.12648 43.0861 5.30621C42.8448 5.48347 42.6626 5.73213 42.5395 6.05219C42.4164 6.36979 42.3549 6.74032 42.3549 7.16378ZM48.1972 12.1272C48.0495 12.1272 47.9178 12.1149 47.8021 12.0902C47.6863 12.0681 47.6063 12.0459 47.562 12.0238L47.7836 11.2556C47.9953 11.3098 48.1824 11.3295 48.3449 11.3147C48.5074 11.2999 48.6514 11.2273 48.777 11.0968C48.905 10.9688 49.022 10.7608 49.1278 10.4727L49.2903 10.0295L47.1927 4.32757H48.1381L49.7039 8.84779H49.763L51.3289 4.32757H52.2743L49.8664 10.8272C49.7581 11.1202 49.6239 11.3627 49.4639 11.5547C49.3039 11.7492 49.118 11.8933 48.9063 11.9868C48.697 12.0804 48.4606 12.1272 48.1972 12.1272Z" fill="#BCBCBC"/>
</svg>
