<svg width="80" height="80" viewBox="0 0 80 80" fill="none" xmlns="http://www.w3.org/2000/svg">
<path d="M42.5801 10C44.7448 10.4706 46.9252 10.8627 49.0585 11.4275C50.4389 11.7882 51.7566 12.4157 53.2311 12.9804C52.9487 13.5765 52.7291 14.0471 52.4624 14.6118C45.1997 11.2863 37.8272 10.7686 30.3605 13.4824C22.8781 16.1961 17.5448 21.3255 14.1409 28.5412C13.8429 28.4314 13.5919 28.3529 13.3566 28.2431C13.1056 28.1333 12.886 28.0078 12.5723 27.851C14.0938 24.3686 16.1801 21.3412 18.8468 18.7216C23.8036 13.8745 29.733 11.0039 36.635 10.2039C36.9017 10.1725 37.1526 10.0784 37.4193 10C39.1448 10 40.8546 10 42.5801 10Z" fill="white"/>
<path d="M10 37.4195C10.4549 35.3018 10.9098 33.1685 11.3804 31.0509C11.4745 30.596 11.6627 30.1724 11.851 29.592C12.4157 29.796 12.902 29.9685 13.4824 30.1724C11.349 36.3058 11.1451 42.4391 13.1059 48.5724C15.0667 54.7214 18.7843 59.6156 24.149 63.3646C23.8196 63.8508 23.5372 64.2744 23.1921 64.792C19.9765 62.643 17.3569 60.0077 15.2392 56.8861C12.4314 52.745 10.7216 48.1959 10.2039 43.2077C10.1882 42.9881 10.0784 42.7685 10.0157 42.5489C10 40.8548 10 39.145 10 37.4195Z" fill="white"/>
<path d="M65.7023 45.7648C65.1533 45.6236 64.667 45.5138 64.1965 45.404C67.4435 28.7923 54.9259 15.757 40.9494 15.3021C26.8004 14.8315 15.0828 26.2981 15.271 40.3844C15.4749 54.9883 29.0278 67.5216 45.4043 64.1962C45.5141 64.6824 45.6239 65.153 45.7337 65.6236C39.0984 69.1373 25.4043 64.2746 19.0671 56.2118C11.2553 46.2511 11.7573 31.804 20.2435 22.3766C28.8396 12.8393 42.9573 10.706 53.7494 17.357C65.6082 24.6668 67.9612 37.7648 65.7023 45.7648Z" fill="white"/>
<path d="M57.9377 69.9999C51.3495 69.9843 45.9534 64.5725 45.922 57.9999C45.8906 51.396 51.3965 45.8901 58.0004 45.9215C64.6514 45.9529 70.0475 51.4117 70.0004 58.047C69.9534 64.6352 64.5259 70.0156 57.9377 69.9999ZM68.2122 58.1097C68.322 52.5411 63.8357 47.8352 58.3142 47.7098C52.5573 47.5843 47.82 52.0078 47.7102 57.6235C47.6004 63.4431 52.0083 68.0705 57.7808 68.196C63.4436 68.3529 68.1024 63.8352 68.2122 58.1097Z" fill="white"/>
<path d="M53.9531 15.4274C54.2825 14.8627 54.5335 14.4235 54.7845 14C66.8786 20.5255 72.6355 35.4274 68.7923 48.1333C68.3061 47.9921 67.8041 47.851 67.1923 47.6941C68.808 41.451 68.557 35.3176 66.11 29.3412C63.6786 23.3647 59.6002 18.7686 53.9531 15.4274Z" fill="white"/>
<path d="M35.2382 49.7175C34.7206 49.4038 34.2971 49.1528 33.748 48.8234C35.0343 46.6116 36.3049 44.4469 37.5755 42.2979C36.2422 39.7567 36.4931 38.7528 38.7206 37.0117C38.9716 36.8077 39.0814 36.2901 39.0814 35.9136C39.1128 32.6822 39.0971 29.4352 39.0971 26.2038C39.0971 25.7803 39.0971 25.3568 39.0971 24.8391C39.6931 24.8391 40.2265 24.8391 40.901 24.8391C40.901 26.0626 40.901 27.3019 40.901 28.5411C40.901 31.0352 40.8696 33.5293 40.9324 36.0391C40.948 36.4313 41.2618 36.9489 41.5912 37.1842C42.8931 38.094 43.4735 39.3803 43.0971 40.792C42.7049 42.2666 41.4971 43.2862 39.9127 43.192C39.1441 43.145 38.8931 43.4901 38.5794 44.0234C37.4971 45.9058 36.3833 47.7724 35.2382 49.7175ZM41.4343 40.1332C41.4186 39.2391 41.0108 38.6901 40.148 38.5803C39.3167 38.4705 38.6108 39.0822 38.5637 39.9136C38.5167 40.7607 39.1284 41.4352 39.9598 41.4352C40.8382 41.4352 41.3088 40.9332 41.4343 40.1332Z" fill="white"/>
<path d="M24.7129 65.8275C25.0423 65.2785 25.2933 64.8392 25.607 64.3059C32.556 68.2588 39.8972 69.1686 47.6619 67.1922C47.756 67.4432 47.8501 67.6628 47.9129 67.8667C47.9913 68.1647 48.0541 68.4628 48.1482 68.8549C39.8972 71.051 32.1952 70.0157 24.7129 65.8275Z" fill="white"/>
<path d="M40.8228 21.1687C40.2111 21.1687 39.7248 21.1687 39.1758 21.1687C39.1758 20.0393 39.1758 18.9726 39.1758 17.7961C39.7091 17.7961 40.2268 17.7961 40.8228 17.7961C40.8228 18.8785 40.8228 19.9922 40.8228 21.1687Z" fill="white"/>
<path d="M17.7969 39.1606C18.942 39.1606 20.0086 39.1606 21.1537 39.1606C21.1537 39.741 21.1537 40.2587 21.1537 40.8391C20.0243 40.8391 18.9577 40.8391 17.7969 40.8391C17.7969 40.3057 17.7969 39.7881 17.7969 39.1606Z" fill="white"/>
<path d="M58.8164 40.8393C58.8164 40.2432 58.8164 39.7412 58.8164 39.1765C59.9615 39.1765 61.0595 39.1765 62.2203 39.1765C62.2203 39.7412 62.2203 40.2589 62.2203 40.8393C61.0909 40.8393 60.0242 40.8393 58.8164 40.8393Z" fill="white"/>
<path d="M40.8072 62.2353C40.2111 62.2353 39.7249 62.2353 39.1602 62.2353C39.1602 61.1059 39.1602 60.0393 39.1602 58.8628C39.6778 58.8628 40.1954 58.8628 40.8072 58.8628C40.8072 59.9451 40.8072 61.0432 40.8072 62.2353Z" fill="white"/>
<path d="M50.1563 24.1647C49.5916 23.8353 49.1367 23.553 48.6348 23.2706C49.2308 22.2353 49.7955 21.2628 50.3916 20.2432C50.8936 20.5412 51.3328 20.7922 51.8975 21.1216C51.3328 22.1098 50.7838 23.0667 50.1563 24.1647Z" fill="white"/>
<path d="M31.3643 23.2863C30.8153 23.6 30.3918 23.851 29.8584 24.149C29.2623 23.1294 28.7133 22.1883 28.1016 21.1373C28.6192 20.8392 29.0741 20.5569 29.6074 20.2432C30.1878 21.2628 30.7525 22.2196 31.3643 23.2863Z" fill="white"/>
<path d="M20.2441 29.5922C20.5736 29.0275 20.8088 28.6354 21.1226 28.1021C22.1108 28.6668 23.0677 29.2158 24.1657 29.8275C23.852 30.3452 23.5696 30.8315 23.2716 31.3491C22.2363 30.753 21.2637 30.1883 20.2441 29.5922Z" fill="white"/>
<path d="M58.8791 28.0862C59.2242 28.6823 59.4595 29.1058 59.7418 29.6077C58.7222 30.2038 57.7497 30.7528 56.7144 31.3489C56.4163 30.8313 56.1497 30.3764 55.8359 29.843C56.8869 29.247 57.8438 28.6979 58.8791 28.0862Z" fill="white"/>
<path d="M21.1519 51.9138C20.8225 51.3648 20.5559 50.9099 20.2578 50.4079C21.3088 49.8118 22.2657 49.2471 23.2853 48.6667C23.5833 49.1844 23.85 49.6393 24.1637 50.1726C23.1127 50.753 22.1559 51.3177 21.1519 51.9138Z" fill="white"/>
<path d="M29.6074 59.757C29.0427 59.4275 28.6192 59.1766 28.1016 58.8628C28.682 57.8589 29.2467 56.9021 29.8584 55.8511C30.3761 56.1491 30.831 56.4158 31.3643 56.7295C30.7682 57.7334 30.2192 58.6903 29.6074 59.757Z" fill="white"/>
<path d="M57.0437 53.6548C57.7339 53.6548 58.2045 53.6548 58.8006 53.6548C58.8006 56.745 58.8006 59.8038 58.8006 62.8469C58.9261 62.9254 59.0515 63.0038 59.177 63.0822C60.0241 61.9999 60.8711 60.9175 61.828 59.694C62.4711 60.4783 62.7849 60.8548 62.9888 61.1214C61.2947 62.8156 59.5535 64.5724 57.8908 66.2352C56.3064 64.6509 54.581 62.9254 52.8555 61.2156C53.1692 60.9018 53.5457 60.5411 54.0476 60.0391C54.9417 61.0587 55.8515 62.0626 56.7457 63.0822C56.8398 63.0352 56.9496 62.9881 57.0437 62.9411C57.0437 59.8822 57.0437 56.8077 57.0437 53.6548Z" fill="white"/>
<path d="M57.168 50.1411C57.717 50.1411 58.2033 50.1411 58.7523 50.1411C58.7523 50.7058 58.7523 51.2235 58.7523 51.8039C58.2033 51.8039 57.717 51.8039 57.168 51.8039C57.168 51.2392 57.168 50.7215 57.168 50.1411Z" fill="white"/>
</svg>
