<svg width="80" height="80" viewBox="0 0 80 80" fill="none" xmlns="http://www.w3.org/2000/svg">
<path d="M47.8199 47.3866C48.6321 47.1023 49.3023 46.9805 49.8506 46.6353C50.1958 46.4322 50.5816 45.9245 50.5816 45.5387C50.6222 37.761 50.6019 29.9631 50.6019 22.1855C50.6019 22.0434 50.5207 21.9012 50.4395 21.6575C50.0739 21.6372 49.6678 21.6372 49.282 21.5763C48.2057 21.3935 47.7386 20.5609 48.3681 19.7283C50.7035 16.6214 53.12 13.555 55.5569 10.5292C56.1458 9.77787 56.9174 9.94032 57.486 10.6714C59.8417 13.6565 62.177 16.6214 64.4717 19.6471C65.1621 20.5609 64.7357 21.3935 63.5782 21.5966C63.2329 21.6575 62.8877 21.6575 62.3597 21.6778C62.3191 22.2464 62.2582 22.7744 62.2582 23.3024C62.2582 30.4911 62.2785 37.6595 62.2176 44.8482C62.2176 45.9854 62.5425 46.4728 63.6188 46.9196C71.6198 50.2702 76.067 56.2608 76.7169 64.9726C76.859 66.8205 76.5544 67.0845 74.7065 67.0845C71.8228 67.0845 68.9392 67.0642 66.0556 67.1048C64.8169 67.1251 64.1468 66.7393 64.1468 65.3787C64.1468 64.7086 63.9031 64.0384 63.7203 63.1652C62.177 64.1197 60.4509 64.2618 60.3899 66.6581C60.329 68.9121 57.7703 70.3946 55.5975 69.9072C53.3231 69.3792 51.9016 67.186 52.4093 64.9929C52.9372 62.7185 55.2929 61.3376 57.5673 61.9468C59.9432 62.5966 59.9432 62.5966 62.1973 61.0939C60.9585 58.8398 57.486 57.6214 54.5009 58.4134C51.2924 59.2663 48.9571 61.9265 48.7337 65.2366C48.6321 66.6987 48.0229 67.1454 46.642 67.1048C43.7178 67.0439 40.7733 67.1251 37.8491 67.0439C37.2602 67.0236 36.7119 66.455 36.123 66.2113C35.6153 65.9879 35.0873 65.6833 34.5593 65.6833C24.9541 65.6427 15.3488 65.663 5.74354 65.663C5.23587 65.663 4.66727 65.7849 4.24082 65.5818C3.77375 65.3584 3.14423 64.8304 3.16454 64.4446C3.16454 64.0384 3.77375 63.4089 4.22051 63.3074C5.03279 63.1246 5.906 63.2465 6.92136 63.2465C6.96197 62.556 7.00258 62.028 7.00258 61.4797C7.00258 57.4792 7.0432 53.4991 6.98228 49.4986C6.96197 48.0771 7.46965 47.4882 8.93176 47.5288C11.5514 47.61 14.1913 47.5897 16.8109 47.5288C18.1309 47.5085 18.6182 48.0771 18.6182 49.3361C18.5979 53.3366 18.5979 57.3168 18.5979 61.3173C18.5979 61.8656 18.5979 62.4139 18.5979 63.084C19.5321 63.084 20.3647 63.084 21.5019 63.084C21.5019 62.5357 21.5019 61.9671 21.5019 61.3782C21.5019 54.6972 21.5019 48.0364 21.5019 41.3554C21.5019 39.345 21.7455 39.1216 23.7966 39.1216C26.1725 39.1216 28.5484 39.1216 30.9243 39.1216C32.8332 39.1216 33.1378 39.4059 33.1378 41.2945C33.1378 47.9755 33.1378 54.6362 33.1378 61.3173C33.1378 61.8656 33.1378 62.4139 33.1378 63.0637C34.0923 63.0637 34.9248 63.0637 36.0214 63.0637C36.0214 62.5154 36.0214 61.9265 36.0214 61.3376C36.0214 51.3871 36.0214 41.4163 36.0214 31.4658C36.0214 29.3336 36.2651 29.0899 38.3364 29.0899C40.7733 29.0899 43.1898 29.0899 45.6267 29.0899C47.3325 29.0899 47.6777 29.4148 47.6777 31.1206C47.698 36.1162 47.6777 41.132 47.6777 46.1276C47.7183 46.5337 47.7792 46.8789 47.8199 47.3866ZM53.0185 45.6402C55.4147 45.6402 57.547 45.6402 59.8213 45.6402C59.8213 45.031 59.8213 44.4827 59.8213 43.9344C59.8213 36.4411 59.801 28.9681 59.8417 21.4748C59.8417 20.6219 60.2275 19.7487 60.5321 18.4896C59.4152 17.0478 57.9531 15.1999 56.4301 13.2301C54.8867 15.1999 53.4449 17.0681 52.2874 18.5302C52.592 19.7487 52.9779 20.5406 52.9982 21.3529C53.0388 28.8868 53.0185 36.4208 53.0185 43.9547C53.0185 44.5233 53.0185 45.0716 53.0185 45.6402ZM24.0605 63.084C26.3959 63.084 28.5281 63.084 30.64 63.084C30.64 55.8547 30.64 48.7472 30.64 41.7006C28.3657 41.7006 26.2334 41.7006 24.0605 41.7006C24.0605 48.8893 24.0605 55.9562 24.0605 63.084ZM38.5598 55.3876C40.4484 53.4787 42.4385 51.5293 44.327 49.4986C44.7738 49.0112 45.2205 48.2801 45.2409 47.6506C45.3221 42.7566 45.2815 37.8423 45.2815 32.9483C45.2815 32.5218 45.2205 32.0751 45.1799 31.6689C42.8852 31.6689 40.753 31.6689 38.5598 31.6689C38.5598 39.7308 38.5598 47.6912 38.5598 55.3876ZM64.3092 49.8032C58.9685 47.3866 53.8511 47.3866 48.5306 49.8032C49.8709 52.1182 51.1502 54.3113 52.1859 56.0781C55.2319 56.0781 57.8313 56.0781 60.6742 56.0781C61.7505 54.2301 62.9689 52.0979 64.3092 49.8032ZM50.3176 57.7432C49.018 55.5095 47.7589 53.3366 46.5202 51.1637C42.2557 53.3975 38.4989 59.8958 38.7426 64.5664C41.2404 64.5664 43.7381 64.5664 46.2968 64.5664C46.7842 61.8047 48.0838 59.51 50.3176 57.7432ZM62.6643 57.5402C63.4157 58.3931 64.0249 59.0835 64.5935 59.7333C64.8169 59.6318 64.9387 59.5709 65.0809 59.4896C65.9135 59.0632 66.8273 58.2509 67.5584 59.449C68.2691 60.5862 67.1725 60.9721 66.4821 61.5407C66.2181 61.764 66.015 62.2514 66.0556 62.5966C66.1369 63.2871 66.4212 63.9369 66.6039 64.5258C69.2032 64.5258 71.701 64.5258 74.28 64.5258C73.6911 58.7789 71.1121 54.3926 66.4212 51.0419C65.1012 53.296 63.8625 55.4688 62.6643 57.5402ZM9.56128 50.0672C9.56128 54.5144 9.56128 58.7992 9.56128 63.1043C11.7951 63.1043 13.9476 63.1043 16.1002 63.1043C16.1002 58.6774 16.1002 54.3723 16.1002 50.0672C13.8664 50.0672 11.7544 50.0672 9.56128 50.0672ZM54.5212 65.5005C54.5212 65.7442 54.5009 65.9879 54.5009 66.2113C55.1507 66.6581 55.8209 67.4906 56.4504 67.4703C57.019 67.45 57.8922 66.5565 58.014 65.927C58.2374 64.9319 57.4454 64.14 56.3895 64.3024C55.7396 64.404 55.1507 65.0741 54.5212 65.5005Z" fill="white"/>
<path d="M6.43342 28.3385C5.92574 27.8715 5.43837 27.0592 4.76824 26.8155C3.06244 26.2469 3.02182 25.0285 3.00152 23.5867C2.98121 22.1042 3.14367 20.967 4.78854 20.3984C6.27096 19.8908 6.6568 18.9566 5.94605 17.5554C5.01192 15.6872 6.29127 14.8343 7.28632 13.6971C8.24075 12.6208 9.17488 12.4381 10.4745 13.0067C11.9976 13.6565 12.8098 13.3316 13.4191 11.7273C13.9877 10.2043 14.9827 9.98089 16.3839 10.0012C17.846 10.0418 19.1457 9.94028 19.7752 11.7273C20.3641 13.3519 21.217 13.6768 22.8619 12.9254C24.2834 12.2756 25.116 12.8442 26.0095 13.8189C26.903 14.814 28.1214 15.5247 27.3091 17.2711C26.4765 19.0785 26.7811 19.8095 28.69 20.5203C30.477 21.1904 30.1115 22.5713 30.1927 23.8913C30.2536 25.1503 30.0912 26.1047 28.7103 26.6733C26.7811 27.4653 26.5781 28.0339 27.3497 30.0646C27.7559 31.1003 27.6543 31.9126 26.7811 32.6233C26.4359 32.9076 26.0907 33.2325 25.8267 33.5777C25.0347 34.5931 24.1209 34.7962 22.9025 34.2885C21.1764 33.5777 20.3641 33.862 19.7346 35.6085C19.0847 37.4158 17.7445 37.1112 16.4042 37.1721C15.1045 37.233 14.0689 37.0909 13.5206 35.6288C12.8505 33.8824 12.0991 33.5168 10.5151 34.2479C8.78904 35.0602 7.95645 34.0245 6.88017 33.0701C5.76328 32.0547 5.25561 31.0597 6.02728 29.6382C6.16943 29.3539 6.23035 28.9883 6.43342 28.3385ZM9.58102 15.2607C8.68751 15.3014 8.20014 16.3573 8.52505 17.3524C9.13426 19.2206 8.20014 21.4138 6.53495 22.3479C6.0882 22.5916 5.49929 23.1805 5.53991 23.5663C5.58052 24.0537 6.1085 24.6426 6.57557 24.9066C8.13921 25.8001 9.07334 28.0542 8.58597 29.8006C8.44382 30.3286 8.50474 31.1003 8.80935 31.4861C9.05303 31.7704 9.88562 31.7704 10.373 31.6283C12.1397 31.1206 14.3938 32.0344 15.267 33.5981C15.531 34.0854 16.1402 34.6743 16.5667 34.6743C17.0134 34.6743 17.6023 34.0651 17.8866 33.5981C18.7395 32.0953 20.9936 31.1409 22.6588 31.5877C23.2071 31.7298 24.0194 31.7704 24.3646 31.4455C24.6895 31.1612 24.7098 30.3083 24.5677 29.7803C24.0803 28.0136 24.9941 25.8001 26.5984 24.9066C27.0654 24.6426 27.5934 24.0537 27.634 23.5663C27.6746 23.2008 27.0857 22.6119 26.639 22.3682C24.9332 21.4341 24.0397 19.2612 24.588 17.3727C24.7301 16.8853 24.6895 16.1339 24.3849 15.8293C24.1006 15.5247 23.3289 15.4435 22.8416 15.5857C20.8515 16.1543 18.7598 15.281 17.7445 13.4737C17.5008 13.0473 16.9119 12.5396 16.4854 12.5599C16.059 12.5802 15.6528 13.1691 15.2467 13.5346C14.6375 14.0829 14.1095 14.7328 13.4394 15.1998C12.2209 16.0527 10.8401 16.0121 9.58102 15.2607Z" fill="white"/>
<path d="M22.333 23.6475C22.3126 26.8357 19.693 29.435 16.5251 29.3944C13.4384 29.3538 10.8594 26.7545 10.8188 23.6678C10.7782 20.5202 13.3978 17.8802 16.586 17.8802C19.7946 17.8599 22.333 20.4186 22.333 23.6475ZM19.8961 23.6272C19.8961 21.8198 18.4746 20.3577 16.6673 20.3171C14.799 20.2765 13.2557 21.7792 13.2557 23.6068C13.2557 25.3533 14.7584 26.8966 16.5048 26.9575C18.3325 26.9981 19.8758 25.4751 19.8961 23.6272Z" fill="white"/>
</svg>
