<svg width="80" height="80" viewBox="0 0 80 80" fill="none" xmlns="http://www.w3.org/2000/svg">
<path d="M73.6286 49.4188C72.3357 47.3967 69.9987 46.9491 67.7279 48.3414C65.1754 49.8995 62.656 51.4907 60.1035 53.0653C59.7554 53.2808 59.3742 53.4631 58.993 53.662C57.899 50.8277 56.9377 50.1647 54.0205 50.1647C51.1199 50.1647 48.2027 49.9658 45.3187 50.2144C41.5396 50.5293 38.3241 49.6343 35.2909 47.2972C32.7052 45.3082 29.6057 44.3635 26.3073 44.3303C24.9978 44.3137 23.6884 44.3303 22.2298 44.3303C22.2298 42.4573 22.2298 40.7667 22.2298 38.9766C19.6276 38.9766 17.1579 38.9932 14.7048 38.9766C12.0197 38.96 9.35115 38.9103 6.66602 38.8606C6.66602 48.7227 6.66602 58.5847 6.66602 68.4468C11.8374 68.4468 17.0087 68.4468 22.2796 68.4468C22.2796 66.607 22.2796 64.9495 22.2796 62.8942C23.9868 63.1925 25.6443 63.2423 27.1029 63.8058C32.2411 65.7451 37.313 67.8335 42.4015 69.9054C45.4015 71.1319 48.2524 70.8833 50.9376 69.1098C57.9985 64.4854 65.0594 59.861 72.1203 55.2366C74.3082 53.778 74.9048 51.4078 73.6286 49.4188ZM20.0917 66.2423C16.3623 66.2423 12.6496 66.2423 8.83733 66.2423C8.83733 57.8388 8.83733 49.5348 8.83733 41.1479C12.5998 41.1479 16.3292 41.1479 20.0917 41.1479C20.0917 49.5348 20.0917 57.8388 20.0917 66.2423ZM71.3081 53.2145C71.0429 53.4465 70.728 53.6122 70.4296 53.8111C63.7002 58.2201 56.9377 62.5958 50.2414 67.0545C47.8215 68.6623 45.4347 68.8943 42.7496 67.7838C38.1252 65.8611 33.4345 64.0876 28.8266 62.1483C26.7548 61.2699 24.6829 60.7395 22.2796 61.1538C22.2796 56.1151 22.2796 51.3415 22.2796 46.4519C25.7271 46.2861 29.0753 46.3027 32.2079 47.9105C32.788 48.2088 33.4345 48.474 33.9151 48.8884C37.3461 51.8387 41.3075 52.7338 45.7662 52.3194C48.6005 52.0542 51.4845 52.2697 54.352 52.2697C55.8769 52.2697 56.7719 52.9493 56.7885 54.0929C56.8216 55.2863 55.8934 55.999 54.3023 56.0156C49.4624 56.0322 44.6225 55.999 39.7826 56.0322C37.3296 56.0488 35.8378 57.4411 35.6224 59.9107C36.6003 60.0102 37.4953 60.3417 38.092 58.9991C38.3075 58.5018 39.418 58.1869 40.1141 58.1703C44.6391 58.104 49.1806 58.104 53.7056 58.1538C55.2636 58.1703 56.6227 57.7726 57.9322 56.9438C61.33 54.7559 64.7942 52.6509 68.2252 50.5127C68.5567 50.2973 68.8882 50.0818 69.2528 49.916C70.3136 49.4188 71.3412 49.7006 71.8716 50.6619C72.4518 51.6564 72.1534 52.5017 71.3081 53.2145Z" fill="white"/>
<path d="M47.0421 44.6951C53.3737 44.8111 58.5783 39.7889 58.7606 33.4076C58.9429 27.0428 53.871 21.7886 47.4068 21.6229C41.1083 21.4737 35.8707 26.5125 35.6883 32.9104C35.506 39.2751 40.6111 44.5791 47.0421 44.6951ZM47.1913 23.7113C52.3792 23.6947 56.5893 27.8716 56.639 33.0595C56.6887 38.2972 52.4787 42.5735 47.2245 42.5901C41.9702 42.6067 37.7436 38.3469 37.7602 33.1093C37.8099 27.9213 42.0034 23.7279 47.1913 23.7113Z" fill="white"/>
<path d="M48.202 10.6667C47.423 10.733 46.8263 10.7828 46.2793 10.8325C46.2793 13.4845 46.2793 15.921 46.2793 18.3409C46.992 18.3409 47.5721 18.3409 48.202 18.3409C48.202 15.7884 48.202 13.3519 48.202 10.6667Z" fill="white"/>
<path d="M53.7059 14.7275C53.0098 14.7275 52.4131 14.7275 51.8164 14.7275C51.8164 16.5342 51.8164 18.2248 51.8164 19.9818C52.4628 19.9818 53.0264 19.9818 53.7059 19.9818C53.7059 18.1751 53.7059 16.4513 53.7059 14.7275Z" fill="white"/>
<path d="M39.4188 19.0869C38.7226 19.0869 38.1259 19.0869 37.4961 19.0869C37.4961 20.2472 37.4961 21.3245 37.4961 22.3687C38.2088 22.3687 38.8387 22.3687 39.4188 22.3687C39.4188 21.1919 39.4188 20.1311 39.4188 19.0869Z" fill="white"/>
<path d="M17.9695 61.1042C17.3065 61.1042 16.7098 61.1042 16.0137 61.1042C16.0137 61.8335 16.0137 62.4468 16.0137 63.0601C16.7264 63.0601 17.3562 63.0601 17.9695 63.0601C17.9695 62.3474 17.9695 61.7507 17.9695 61.1042Z" fill="white"/>
<path d="M48.734 36.3081C47.7063 36.3909 46.2477 36.7224 45.7008 36.1755C44.872 35.3467 44.1593 35.4627 43.0156 35.4627C43.2974 36.1589 43.3637 36.8053 43.7283 37.1865C44.5405 38.0319 45.5019 38.7446 46.3969 39.4904C46.4798 39.5567 46.6455 39.5402 46.7781 39.5733C48.1041 39.9545 48.6345 38.612 49.629 38.2142C50.8887 37.7335 51.4522 36.1755 51.2036 34.8992C50.9219 33.4406 49.9439 32.4627 48.4853 32.2306C47.756 32.1146 46.977 32.1975 46.2643 31.9986C45.8831 31.8991 45.419 31.4682 45.303 31.087C45.2035 30.772 45.5184 29.993 45.7008 29.993C46.7284 29.9267 48.2036 29.5952 48.7174 30.1422C49.5793 31.0372 50.292 30.8715 51.1373 30.8052C51.3859 28.5013 49.2312 28.2029 48.1704 27.0261C48.0378 26.8935 47.8058 26.8438 47.6234 26.7609C46.4466 26.2305 46.082 27.5565 45.2367 27.8383C43.8112 28.319 42.9328 29.8936 43.1482 31.2859C43.3968 32.8771 44.4908 33.9544 46.1317 34.1533C46.7781 34.2362 47.4743 34.1533 48.0875 34.3191C48.4853 34.4351 48.9329 34.8329 49.0655 35.2141C49.2146 35.5125 48.8997 36.2915 48.734 36.3081Z" fill="white"/>
</svg>
