<svg width="80" height="80" viewBox="0 0 80 80" fill="none" xmlns="http://www.w3.org/2000/svg">
<path d="M68.2659 26.5206C68.2659 30.6117 68.665 34.7528 68.1911 38.819C66.6943 52.0652 59.6346 61.4699 47.5857 67.1326C45.59 68.0805 43.5445 68.9037 41.474 69.702C40.9002 69.9265 40.1518 70.1261 39.628 69.9016C34.564 67.856 29.3752 65.9851 25.0845 62.4178C16.6777 55.4329 12.2623 46.5272 12.0627 35.6009C11.938 29.0651 12.0378 22.5043 12.0378 15.9685C12.0378 14.1474 12.4369 13.7982 14.2829 13.5487C21.4923 12.5759 28.7516 11.8774 35.8611 10.4555C38.9544 9.8318 41.6236 9.85675 44.692 10.4804C51.8016 11.8774 59.0608 12.6008 66.2702 13.5737C68.0663 13.8231 68.4655 14.1724 68.4655 16.0184C68.4655 19.5108 68.4655 23.0282 68.4655 26.5206C68.4156 26.5206 68.3407 26.5206 68.2659 26.5206ZM15.3556 16.8666C15.3556 22.9035 15.2558 28.8655 15.3805 34.8027C15.6549 48.6477 22.2157 58.3516 34.6887 64.3636C38.5802 66.2345 41.8232 66.2844 45.7647 64.3885C58.1877 58.4015 64.7735 48.7474 65.1227 34.9773C65.2724 29.3894 65.1477 23.8265 65.1477 18.2386C65.1477 17.7895 65.1477 17.3405 65.1477 16.7917C62.7778 16.5423 60.5327 16.3676 58.3125 16.0683C52.4252 15.3199 46.4881 14.7711 40.8004 12.9002C40.4512 12.7754 40.0022 12.8503 39.603 12.9251C35.2624 13.7733 30.9717 14.7711 26.6062 15.4945C22.9641 16.1182 19.2222 16.4175 15.3556 16.8666Z" fill="white"/>
<path d="M41.9726 20.1593C41.9726 22.3795 41.9726 24.6247 41.9726 26.9197C42.5713 27.0943 43.1451 27.219 43.7188 27.3937C48.8078 28.8405 52.4499 33.231 52.9488 38.4946C52.9737 38.8688 52.9987 39.243 52.9737 39.5922C52.8989 40.615 52.3501 41.2386 51.3024 41.2636C50.3295 41.2636 49.8056 40.6649 49.6559 39.7169C49.5312 38.8189 49.5063 37.8709 49.2568 36.9978C47.7601 31.7592 42.0225 28.9154 36.9335 30.8362C31.8196 32.782 29.4248 38.6692 31.7448 43.6085C34.0647 48.5727 40.1017 50.4936 44.8663 47.8244C45.1906 47.6498 45.49 47.4252 45.7893 47.2257C46.6874 46.627 47.5854 46.627 48.2091 47.55C48.9076 48.5478 48.5583 49.4957 47.5605 49.9947C46.0637 50.768 44.5171 51.4914 42.9205 52.0153C42.1722 52.2647 41.8728 52.4643 41.8728 53.2875C41.9227 55.2084 41.8978 57.1292 41.8978 59.2247C42.7709 58.8754 43.4694 58.601 44.1928 58.3266C45.2156 57.9275 46.0637 58.2019 46.4629 59.2247C46.862 60.1975 46.388 60.9459 45.49 61.37C43.9683 62.0435 42.4466 62.6672 40.8999 63.2659C40.5507 63.4156 40.0518 63.4405 39.7025 63.3158C35.3869 61.5696 30.9964 59.973 27.504 56.7301C27.1298 56.3808 26.6309 55.857 26.6309 55.4079C26.6309 54.8591 26.9552 53.9611 27.3543 53.8363C27.9779 53.6368 28.9758 53.7116 29.4248 54.0858C31.8944 56.1563 34.6385 57.7279 37.6071 58.8754C37.8565 58.9752 38.106 59.05 38.4802 59.1997C38.4802 56.8797 38.4802 54.6596 38.4802 52.2897C34.7133 51.5912 31.5702 49.7452 29.4747 46.4025C28.0029 44.0825 27.3792 41.5131 27.5289 38.769C27.8782 32.9566 31.7198 28.7906 38.58 26.9197C38.58 24.7494 38.58 22.5043 38.58 20.2591C38.58 19.3361 38.555 18.4131 38.58 17.4901C38.6548 16.2179 39.7275 15.4446 40.8999 15.9684C45.1158 17.7895 49.6809 17.9392 54.1213 18.5878C56.1668 18.8871 58.2373 19.0118 60.3078 19.1865C61.5302 19.2862 62.3534 19.8101 62.3285 21.1572C62.2536 27.2939 62.4033 33.4306 62.0291 39.5423C61.7048 44.8808 59.3848 49.5456 55.9922 53.6867C55.2937 54.5348 54.4955 54.9589 53.4727 54.2355C52.6245 53.6368 52.5996 52.589 53.4228 51.5663C57.4141 46.7268 59.1104 41.1389 59.0107 34.9024C58.9358 30.8113 58.9857 26.6952 58.9857 22.604C53.323 21.7808 47.6852 20.9826 41.9726 20.1593Z" fill="white"/>
<path d="M21.4682 22.4794C21.4682 24.8742 21.4682 27.1693 21.4682 29.4643C21.4682 31.6346 21.4682 33.8049 21.4682 35.9502C21.4682 37.0478 20.9942 37.7214 19.8966 37.8461C18.9237 37.9459 18.2252 37.1476 18.1504 35.9502C18.1504 35.8006 18.1504 35.6758 18.1504 35.5261C18.1504 30.8862 18.1504 26.2213 18.1504 21.5814C18.1504 19.8102 18.6493 19.3113 20.3955 19.1367C23.5138 18.8124 26.632 18.4631 29.7253 18.1139C31.2969 17.9393 32.1451 18.3634 32.2698 19.461C32.3945 20.5586 31.7958 21.1822 30.2741 21.3818C28.004 21.6812 25.709 21.9057 23.414 22.1801C22.8153 22.2799 22.1667 22.3796 21.4682 22.4794Z" fill="white"/>
<path d="M38.5802 40.3905C40.5011 38.4696 42.2972 36.6236 44.1182 34.8275C45.1909 33.7549 46.089 33.6301 46.8623 34.4284C47.6606 35.2267 47.5608 36.0748 46.4632 37.1724C44.3677 39.2928 42.2473 41.4133 40.1269 43.5087C38.9045 44.7311 38.1811 44.7311 36.9837 43.5586C36.1854 42.7853 35.4121 42.012 34.6637 41.2137C33.9653 40.4404 33.9403 39.6171 34.7136 38.8937C35.4121 38.2202 36.2353 38.2701 36.9588 38.8688C37.4826 39.2928 37.9566 39.7918 38.5802 40.3905Z" fill="white"/>
</svg>
