<svg width="50" height="50" viewBox="0 0 50 50" fill="none" xmlns="http://www.w3.org/2000/svg">
<path d="M21.432 37.4922C21.6048 36.2918 21.7685 35.1732 21.9504 33.9636C21.6775 33.9636 21.432 33.9636 21.1955 33.9636C18.1398 33.9636 15.0841 33.9636 12.0193 33.9636C9.95491 33.9636 9 33.0087 9 30.917C9 24.942 9 18.967 9 12.9829C9 10.9458 9.95491 10 12.0011 10C20.9227 10 29.8443 10 38.7658 10C40.803 10 41.7397 10.9549 41.7488 13.0011C41.7488 18.9761 41.7488 24.9602 41.7488 30.9352C41.7488 32.9996 40.7848 33.9545 38.7022 33.9545C35.6646 33.9545 32.6362 33.9545 29.5987 33.9545C29.3532 33.9545 29.1076 33.9545 28.7893 33.9545C28.9621 35.1459 29.1258 36.2736 29.2986 37.4831C30.0261 37.4831 30.7264 37.474 31.4176 37.4831C32.2725 37.4922 32.8181 37.9742 32.8363 38.7018C32.8545 39.4566 32.2997 39.9932 31.4176 39.9932C27.3888 40.0023 23.3509 40.0023 19.3221 39.9932C18.4308 39.9932 17.8761 39.4566 17.9034 38.7018C17.9216 37.9742 18.4763 37.4922 19.3221 37.4831C20.0042 37.4831 20.6862 37.4922 21.432 37.4922ZM9.81849 29.3073C20.2224 29.3073 30.5354 29.3073 40.9303 29.3073C40.9303 29.0345 40.9303 28.7889 40.9303 28.5434C40.9303 23.3778 40.9303 18.2213 40.9303 13.0557C40.9303 11.3823 40.3664 10.8094 38.684 10.8094C29.817 10.8185 20.9409 10.8185 12.0648 10.8185C10.3823 10.8185 9.81849 11.3823 9.81849 13.0557C9.81849 18.2213 9.81849 23.3778 9.81849 28.5434C9.81849 28.7889 9.81849 29.0254 9.81849 29.3073ZM40.9212 30.2077C30.5172 30.2077 20.1951 30.2077 9.87306 30.2077C9.61842 32.1993 10.155 33.1815 12.4468 33.1724C21.1319 33.1178 29.8261 33.1451 38.5112 33.1451C38.7567 33.1451 39.0114 33.1542 39.2569 33.136C40.2118 33.0542 40.8393 32.4358 40.9121 31.4809C40.9485 31.0807 40.9212 30.6715 40.9212 30.2077ZM27.9617 34C26.1883 34 24.5059 34 22.7779 34C22.6142 35.1641 22.4415 36.2918 22.2778 37.4468C24.3695 37.4468 26.3884 37.4468 28.4619 37.4468C28.2891 36.2736 28.1345 35.155 27.9617 34ZM25.3426 39.202C27.2433 39.202 29.144 39.202 31.0447 39.202C31.2448 39.202 31.4721 39.2383 31.6449 39.1565C31.7995 39.0928 31.9905 38.8928 31.9905 38.7473C31.9905 38.6017 31.7995 38.4199 31.6449 38.338C31.4994 38.2653 31.2903 38.3107 31.1084 38.3107C27.2887 38.3107 23.46 38.3107 19.6404 38.3107C19.4858 38.3107 19.2948 38.2653 19.1766 38.3289C19.0038 38.4199 18.7673 38.6108 18.7673 38.7563C18.7673 38.9019 19.0038 39.0928 19.1766 39.1747C19.3221 39.2474 19.5313 39.202 19.7131 39.202C21.5866 39.202 23.4691 39.202 25.3426 39.202Z" fill="white"/>
<path d="M26.9245 25.2149C26.9245 24.7329 26.9426 24.3055 26.9154 23.8781C26.8881 23.3142 27.1518 23.1323 27.6884 23.1232C29.4709 23.0959 29.4618 23.0868 29.5982 24.833C29.6073 24.9785 29.68 25.1149 29.7255 25.2604C29.7983 25.2513 29.871 25.2513 29.9347 25.2422C29.9529 24.9967 29.9802 24.742 29.9802 24.4965C29.9892 24.16 29.9802 23.8144 29.9802 23.4779C29.9802 21.5135 30.1893 21.3225 32.1537 21.659C32.3538 21.6954 32.6357 22.0592 32.6539 22.2865C32.7176 23.0505 32.6721 23.8235 32.6812 24.5965C32.6812 24.8057 32.7085 25.0148 32.7266 25.224C32.7903 25.2331 32.8631 25.2422 32.9267 25.2513C32.9722 25.0421 33.054 24.8421 33.054 24.6329C33.0631 23.4779 33.0813 22.3229 33.054 21.1679C33.0359 20.5768 33.2632 20.3676 33.8453 20.3858C36.0279 20.4404 35.6914 20.0948 35.7187 22.2502C35.7278 23.0687 35.7096 23.8781 35.7278 24.6965C35.7278 24.8784 35.8096 25.0603 35.8551 25.2513C35.9279 25.2422 35.9915 25.2422 36.0643 25.2331C36.0825 25.0058 36.1097 24.7693 36.1097 24.5419C36.1097 22.4139 36.1279 20.2858 36.1007 18.1577C36.0916 17.5302 36.328 17.321 36.9373 17.3301C39.1382 17.3665 38.7835 17.1119 38.8017 19.1399C38.8199 21.1497 38.8017 23.1596 38.8017 25.1331C38.9017 25.1876 38.9381 25.224 38.9745 25.2331C39.2746 25.3059 39.7657 25.1149 39.7566 25.6333C39.7475 26.1789 39.2655 26.0607 38.929 26.0607C34.9184 26.0698 30.9169 26.0698 26.9063 26.0607C26.7698 26.0607 26.6061 26.1062 26.5061 26.0425C26.3333 25.9516 26.1878 25.7879 26.0332 25.6605C26.1787 25.5241 26.306 25.3695 26.4697 25.2604C26.5698 25.2149 26.7062 25.2422 26.9245 25.2149ZM36.9919 18.185C36.9919 20.5677 36.9919 22.8868 36.9919 25.2149C37.3466 25.2149 37.6467 25.2149 37.965 25.2149C37.965 22.8504 37.965 20.5313 37.965 18.185C37.6376 18.185 37.3466 18.185 36.9919 18.185ZM34.8638 25.2149C34.8638 23.869 34.8638 22.5594 34.8638 21.2498C34.5182 21.2498 34.2363 21.2498 33.9453 21.2498C33.9453 22.5867 33.9453 23.8871 33.9453 25.2149C34.2727 25.2149 34.5546 25.2149 34.8638 25.2149ZM30.8532 22.4866C30.8532 23.4142 30.8532 24.3055 30.8532 25.2149C31.1988 25.2149 31.4989 25.2149 31.8354 25.2149C31.8354 24.2873 31.8354 23.4051 31.8354 22.4866C31.508 22.4866 31.217 22.4866 30.8532 22.4866ZM28.7251 25.224C28.7251 24.7602 28.7251 24.3691 28.7251 23.9963C28.3795 23.9963 28.0976 23.9963 27.7884 23.9963C27.7884 24.4237 27.7884 24.8148 27.7884 25.224C28.1249 25.224 28.4159 25.224 28.7251 25.224Z" fill="white"/>
<path d="M10.9459 20.6584C11.0278 17.5391 13.8379 14.4652 17.1846 13.8559C21.5954 13.0465 25.6969 16.0385 26.2881 20.4856C26.3972 21.3041 25.9516 21.8407 25.0967 21.8498C23.7144 21.868 22.332 21.868 20.9497 21.8498C20.5586 21.8407 20.3222 21.9226 20.0948 22.3136C19.4127 23.5141 17.7849 23.4959 17.1028 22.2863C16.8936 21.9135 16.6663 21.8498 16.3025 21.8589C14.9201 21.868 13.5378 21.8771 12.1555 21.8589C11.3279 21.8407 10.9277 21.4224 10.9459 20.6584ZM13.9379 16.3477C14.3017 16.6569 14.6291 16.8752 14.8747 17.1571C14.9838 17.2753 14.9201 17.5482 14.9292 17.7482C14.7292 17.7392 14.4563 17.8028 14.3381 17.7028C14.038 17.4481 13.7924 17.1207 13.4923 16.7752C12.4919 17.921 11.9554 19.1124 11.7644 20.4675C11.6916 20.9586 11.9372 21.0404 12.3464 21.0404C13.7015 21.0313 15.0656 21.0495 16.4207 21.0222C16.6299 21.0131 16.9118 20.8494 17.0209 20.6675C17.3665 20.1037 17.8212 19.7854 18.476 19.6853C18.6852 19.6581 18.9398 19.458 19.0308 19.267C19.3036 18.6759 19.4855 18.0393 19.7583 17.4481C19.8402 17.2753 20.1039 17.1844 20.2767 17.048C20.3495 17.2753 20.5314 17.53 20.4768 17.7119C20.2858 18.3849 20.0039 19.0306 19.7674 19.6853C19.6401 20.0491 20.2585 21.0313 20.6405 21.0313C22.1138 21.0495 23.578 21.0495 25.0512 21.0131C25.1877 21.0131 25.4605 20.7039 25.4423 20.5675C25.2695 19.1761 24.7511 17.9301 23.6871 16.7661C23.4052 17.1025 23.1869 17.4299 22.8959 17.6846C22.7686 17.7937 22.5048 17.7573 22.2957 17.7755C22.3048 17.5573 22.232 17.2572 22.3502 17.1298C22.614 16.8388 22.9595 16.6205 23.3051 16.3568C21.941 15.2109 20.6041 14.6471 18.9853 14.547C18.9853 14.9745 19.0217 15.3564 18.9671 15.7293C18.9398 15.9021 18.7398 16.0567 18.6215 16.2204C18.476 16.0567 18.2305 15.9112 18.1941 15.7293C18.1304 15.3655 18.1759 14.9745 18.1759 14.5379C16.5844 14.6653 15.2475 15.2109 13.9379 16.3477ZM19.5401 21.4315C19.5401 20.9313 19.149 20.5311 18.6397 20.522C18.1123 20.5129 17.6757 20.9404 17.6848 21.4497C17.6939 21.9407 18.1032 22.3591 18.5943 22.3773C19.1035 22.3864 19.5401 21.9498 19.5401 21.4315Z" fill="white"/>
<path d="M35.3305 15.9569C34.9576 15.7023 34.7303 15.5567 34.5029 15.4021C34.703 15.2293 34.8758 14.9656 35.1122 14.8838C36.5855 14.3927 36.6128 14.4018 36.9675 15.8296C37.0311 16.1024 36.8947 16.4207 36.8493 16.7208C36.6037 16.5662 36.3582 16.4116 36.058 16.2297C36.0853 16.1933 35.9944 16.2661 35.958 16.357C35.5942 17.1755 34.994 17.5575 34.0664 17.6393C33.7117 17.6666 33.2843 18.0668 33.0751 18.4033C32.5749 19.2127 31.9292 19.5855 30.9743 19.6219C30.6105 19.631 30.2195 19.9402 29.9194 20.1949C29.6192 20.4495 29.3464 20.7951 29.1554 21.1407C28.728 21.941 27.9732 21.9774 27.2365 22.0228C27.0728 22.0319 26.9 21.8137 26.7363 21.7045C26.8546 21.559 26.9728 21.2862 27.0819 21.2862C28.2187 21.3317 28.7007 20.4768 29.2009 19.731C29.6556 19.049 30.2467 18.7761 31.0107 18.7761C31.5836 18.7761 32.0111 18.5761 32.2839 18.0577C32.7477 17.2028 33.4207 16.7481 34.4302 16.6753C34.7757 16.6572 35.0849 16.1661 35.3305 15.9569Z" fill="white"/>
<path d="M18.7853 23.6415C20.3222 23.6415 21.8592 23.6233 23.3961 23.6597C23.6417 23.6688 23.8872 23.9052 24.1328 24.0326C23.8963 24.1781 23.6599 24.4418 23.4143 24.4418C20.2677 24.4691 17.121 24.4691 13.9835 24.4418C13.747 24.4418 13.5197 24.169 13.2832 24.0235C13.5106 23.8962 13.7379 23.6688 13.9653 23.6597C15.575 23.6233 17.1756 23.6415 18.7853 23.6415Z" fill="white"/>
<path d="M18.7489 25.6242C20.304 25.6242 21.8683 25.606 23.4234 25.6424C23.6599 25.6515 23.8963 25.9061 24.1328 26.0425C23.9054 26.1698 23.678 26.4154 23.4507 26.4154C20.2859 26.4427 17.121 26.4427 13.9562 26.4154C13.7288 26.4154 13.5106 26.1698 13.2832 26.0334C13.5197 25.897 13.7561 25.6424 14.0017 25.6424C15.5841 25.606 17.1665 25.6242 18.7489 25.6242Z" fill="white"/>
<path d="M37.0099 31.7537C36.728 31.9447 36.446 32.2994 36.1823 32.2903C35.9458 32.2812 35.5457 31.881 35.5275 31.6446C35.5184 31.4172 35.9004 30.9989 36.1368 30.9716C36.4097 30.9443 36.7098 31.2717 37.0008 31.4445C37.0008 31.5536 37.0008 31.6537 37.0099 31.7537Z" fill="white"/>
<path d="M35.1377 31.8173C34.8557 31.9901 34.5556 32.3175 34.2919 32.2902C34.0554 32.2629 33.728 31.8719 33.6735 31.6081C33.5916 31.1625 33.9645 30.8715 34.3828 30.9624C34.6648 31.017 34.8921 31.3171 35.1468 31.5081C35.1468 31.5991 35.1468 31.7082 35.1377 31.8173Z" fill="white"/>
<path d="M38.1825 30.8169C38.3644 31.0715 38.6554 31.3171 38.7009 31.599C38.7828 32.0355 38.4736 32.3266 38.0279 32.3266C37.5823 32.3266 37.2731 32.0355 37.355 31.599C37.4095 31.3171 37.7005 31.0806 37.8824 30.8169C37.9825 30.8169 38.0825 30.8169 38.1825 30.8169Z" fill="white"/>
</svg>
