<svg width="50" height="50" viewBox="0 0 50 50" fill="none" xmlns="http://www.w3.org/2000/svg">
<path d="M29.4173 35.5787C29.5082 34.2963 29.1649 33.1754 28.357 32.1454C24.5804 27.3489 27.0342 21.0174 33.0829 19.9269C35.6679 19.4624 38.1217 19.8562 40.3029 21.381C43.6756 23.7439 44.3926 28.5808 41.8075 31.8727C40.828 33.1148 40.3332 34.4073 40.4645 35.9725C40.5352 36.8611 40.3736 37.6589 39.6263 38.2849C39.4547 38.4263 39.4446 38.8302 39.4547 39.113C39.4749 39.941 39.2123 40.5873 38.4247 40.971C38.2833 41.0417 38.1217 41.1831 38.0612 41.3244C37.2331 43.4753 32.8607 43.647 31.8408 41.3042C31.7903 41.1932 31.7095 41.072 31.6187 41.0316C30.6695 40.5974 30.417 39.8198 30.4776 38.8605C30.4877 38.699 30.4776 38.4465 30.3766 38.3758C29.387 37.6488 29.3365 36.639 29.4173 35.5787ZM42.0398 28.6414C43.0394 24.4507 39.5658 20.8862 35.4963 20.9569C35.4963 21.8253 35.4761 22.7038 35.5064 23.5823C35.5266 24.2084 35.4155 24.6123 34.6884 24.7739C34.3855 24.8345 34.0321 25.3495 33.9917 25.6827C33.9614 25.9755 34.3148 26.5511 34.5572 26.5915C35.5064 26.743 35.5569 27.3287 35.4963 28.0658C35.4761 28.2476 35.5367 28.4394 35.5468 28.6111C36.1123 28.7727 36.395 28.6111 36.6777 28.1264C37.4048 26.844 39.3537 26.6723 40.0908 27.9244C40.6462 28.8434 41.3127 28.6515 42.0398 28.6414ZM34.3754 20.8458C33.9715 20.8963 33.6383 20.9266 33.3252 20.9871C29.9626 21.5425 27.7511 24.0165 27.7108 27.258C27.6906 28.6717 27.6906 28.6919 29.1245 28.6616C29.8313 28.6515 30.4069 28.6616 30.5281 29.5906C30.5584 29.8431 31.1138 30.1763 31.4268 30.1864C31.7398 30.1864 32.3053 29.8532 32.3356 29.6108C32.4669 28.6414 33.0829 28.6313 33.8099 28.6717C33.9917 28.6818 34.1835 28.6414 34.3451 28.6212C34.4865 28.0557 34.3552 27.7427 33.8503 27.4902C33.1435 27.1368 32.8405 26.4703 32.8405 25.6827C32.8405 24.6123 33.507 24.0165 34.3653 23.6227C34.3754 22.6735 34.3754 21.8051 34.3754 20.8458ZM41.8075 29.7825C41.4036 29.7623 41.1612 29.732 40.9189 29.7421C40.1817 29.7825 39.5254 29.8027 39.3739 28.7929C39.3335 28.5505 38.7579 28.2072 38.455 28.2375C38.1217 28.2678 37.6067 28.6313 37.5462 28.9241C37.3947 29.6613 36.9908 29.7926 36.3647 29.7421C36.1022 29.7219 35.8295 29.7421 35.5569 29.7421C35.4963 29.8128 35.4357 29.8834 35.3852 29.9541C35.567 30.247 35.6679 30.6408 35.9305 30.8024C37.4755 31.7718 37.4856 33.65 35.9204 34.6093C35.7487 34.7103 35.5266 34.9021 35.5266 35.0637C35.4862 35.8816 35.5064 36.6996 35.5064 37.568C36.3142 37.568 37.011 37.568 37.7178 37.568C39.1416 37.568 39.4345 37.3256 39.3638 35.9018C39.2628 34.1044 39.7172 32.5392 40.9492 31.1962C41.2824 30.8327 41.4844 30.3278 41.8075 29.7825ZM34.4057 37.568C34.4057 36.5986 34.436 35.7504 34.3956 34.892C34.3653 34.2458 34.4764 33.8116 35.2438 33.6399C35.5468 33.5793 35.9204 33.0542 35.9305 32.7311C35.9406 32.4079 35.567 31.8324 35.2943 31.792C34.3956 31.6607 34.3552 31.1154 34.3956 30.4388C34.4057 30.2167 34.3754 30.0046 34.3552 29.7926C33.608 29.732 33.608 29.732 33.2545 30.2874C32.4265 31.6102 30.518 31.7112 29.7202 30.3883C29.3163 29.732 28.8922 29.6512 28.1349 29.8229C28.4782 30.3581 28.7407 30.9033 29.1245 31.3376C30.1343 32.5089 30.5887 33.8317 30.5079 35.3565C30.4877 35.7605 30.4877 36.1644 30.518 36.5582C30.5584 37.1439 30.9017 37.5074 31.4773 37.5377C32.4265 37.5983 33.3757 37.568 34.4057 37.568ZM31.6692 38.6889C31.5278 39.84 31.6893 40.042 32.7395 40.0521C34.2239 40.0622 35.7184 40.0622 37.2028 40.0521C38.2934 40.042 38.4651 39.8198 38.253 38.6889C36.0719 38.6889 33.8907 38.6889 31.6692 38.6889ZM33.1031 41.2134C34.3552 42.1222 35.8093 42.0919 36.7181 41.2134C35.5367 41.2134 34.4057 41.2134 33.1031 41.2134Z" fill="white"/>
<path d="M16.0381 24.3196C13.9176 24.3196 11.797 24.3297 9.67641 24.3196C7.46496 24.3095 6.32389 22.3606 7.42457 20.452C9.53504 16.7663 11.6657 13.0906 13.8065 9.42508C14.9173 7.52666 17.2095 7.52666 18.3203 9.41498C20.461 13.0805 22.5917 16.7562 24.7022 20.4419C25.8028 22.3606 24.6719 24.3095 22.4705 24.3196C20.3298 24.3196 18.1789 24.3196 16.0381 24.3196ZM16.0684 23.2391C18.1385 23.2391 20.1985 23.2391 22.2686 23.2391C23.8539 23.2391 24.4598 22.2192 23.6823 20.856C21.6021 17.2409 19.5118 13.6359 17.4114 10.031C16.6844 8.77881 15.4423 8.77881 14.7153 10.0411C12.6149 13.646 10.5246 17.251 8.44446 20.8661C7.67702 22.1889 8.28289 23.229 9.79759 23.2391C11.8879 23.2391 13.9781 23.2391 16.0684 23.2391Z" fill="white"/>
<path d="M34.7598 16.726C34.2145 16.1504 33.8106 15.6455 33.3259 15.2315C30.6601 12.9392 27.6105 12.1718 24.1772 12.9594C24.0257 12.9897 23.8641 13.0907 23.743 13.0503C23.5006 12.9796 23.2886 12.8383 23.0664 12.7171C23.1977 12.4848 23.2785 12.1011 23.4703 12.0405C24.0863 11.8386 24.7326 11.6871 25.3788 11.6265C29.2867 11.2731 32.5585 12.5656 35.1537 15.5041C35.2142 15.5748 35.2849 15.6455 35.4061 15.7667C35.4465 15.6253 35.4869 15.5445 35.497 15.4637C35.5677 15.0699 35.6889 14.6256 36.1736 14.7973C36.3957 14.878 36.5573 15.3627 36.5674 15.6758C36.5876 16.2211 36.4462 16.7664 36.4058 17.3217C36.3654 17.8367 36.0928 18.0185 35.598 17.968C34.9921 17.9074 34.3862 17.8973 33.8005 17.7661C33.5582 17.7156 33.2149 17.4227 33.1846 17.2107C33.124 16.7361 33.5178 16.6856 33.9116 16.7159C34.1237 16.7361 34.3458 16.726 34.7598 16.726Z" fill="white"/>
<path d="M17.2103 28.894C17.1497 29.1162 17.1396 29.3585 17.0184 29.4898C16.877 29.6514 16.5741 29.8735 16.4529 29.823C16.251 29.7423 15.9985 29.4292 16.0187 29.2475C16.1096 28.5305 16.2611 27.8034 16.4933 27.1269C16.564 26.9249 16.9881 26.7028 17.2305 26.723C17.8767 26.7835 18.5331 26.935 19.139 27.1471C19.3611 27.2279 19.4823 27.5813 19.654 27.8135C19.3914 27.9347 19.1289 28.0963 18.8461 28.1569C18.6745 28.1973 18.4624 28.0963 18.0787 28.0155C18.422 28.48 18.6341 28.8233 18.9067 29.1263C20.8556 31.3781 23.3397 32.5394 26.3085 32.7111C26.5812 32.7312 27.0255 32.913 27.076 33.1049C27.2375 33.7006 26.7932 33.8016 26.2984 33.7814C23.6831 33.6906 21.3504 32.8322 19.3813 31.1257C18.624 30.4794 17.9575 29.6817 17.2103 28.894Z" fill="white"/>
<path d="M16.6249 16.4735C16.6249 17.3318 16.6653 18.1801 16.5946 19.0283C16.5744 19.2908 16.2512 19.5231 16.0594 19.7654C15.8675 19.5231 15.5343 19.2807 15.5242 19.0283C15.4737 17.3217 15.4737 15.6152 15.5242 13.9086C15.5343 13.6562 15.8776 13.4138 16.0594 13.1614C16.2411 13.4138 16.5744 13.6461 16.5946 13.9086C16.6653 14.7569 16.6249 15.6152 16.6249 16.4735Z" fill="white"/>
<path d="M16.8264 20.9569C16.4831 21.2396 16.2609 21.5426 16.1095 21.5123C15.8873 21.4618 15.7156 21.179 15.5137 20.9973C15.6954 20.8256 15.857 20.553 16.0489 20.5227C16.2508 20.5025 16.473 20.7448 16.8264 20.9569Z" fill="white"/>
</svg>
