<svg width="50" height="50" viewBox="0 0 50 50" fill="none" xmlns="http://www.w3.org/2000/svg">
<path d="M42.9528 33.4276C42.7698 34.2877 42.2299 34.9099 41.6169 35.5138C39.4575 37.6366 37.3255 39.7868 35.1753 41.9279C33.8211 43.2821 32.6316 43.2913 31.2866 41.9462C31.0121 41.6717 30.7376 41.3972 30.4631 41.1227C29.7769 40.4365 29.5481 39.6404 29.8135 38.6797C29.8684 38.4784 29.7769 38.1765 29.6488 37.9935C29.4749 37.7373 29.2096 37.536 28.9808 37.3072C27.0593 35.3857 27.0502 35.3674 24.3235 35.4681C23.9392 35.4864 23.4909 35.6877 23.1889 35.9439C22.5027 36.5386 21.8988 37.2249 21.24 37.8562C20.9838 38.1033 20.8831 38.3046 21.0387 38.6797C21.4047 39.5947 21.1759 40.4273 20.4988 41.1319C20.0871 41.5619 19.6753 41.992 19.2361 42.3854C18.2845 43.2272 17.0127 43.1998 16.0886 42.3305C15.6036 41.8822 15.1461 41.4064 14.6703 40.9397C14.3409 40.6103 14.1854 40.2352 14.5422 39.8692C14.9357 39.4666 15.32 39.6404 15.6677 39.9973C16.0977 40.4365 16.5278 40.8757 16.9761 41.3057C17.4244 41.7449 17.9094 41.7541 18.3669 41.324C18.7695 40.9489 19.1629 40.5646 19.5289 40.162C19.9224 39.7228 19.9407 39.2744 19.5015 38.8353C17.1316 36.4563 14.7801 34.0681 12.4011 31.7075C11.6874 31.0029 11.3214 31.0304 10.6169 31.7258C10.3424 32.0003 10.0588 32.2656 9.79341 32.5492C9.25356 33.1165 9.26271 33.574 9.81171 34.1413C10.2235 34.5622 10.6443 34.9831 11.0652 35.3949C11.4038 35.7334 11.5136 36.1086 11.1384 36.4654C10.7907 36.804 10.4339 36.7033 10.1137 36.3831C9.61041 35.889 9.09801 35.3949 8.62221 34.8825C7.79872 33.9766 7.78957 32.6957 8.61306 31.7807C9.02481 31.3232 9.47316 30.9023 9.91235 30.4722C10.5162 29.8866 11.2665 29.6945 12.0626 29.9049C12.4377 30.0056 12.6482 29.9049 12.8861 29.6579C13.5083 29.0265 14.1488 28.4135 14.7801 27.8004C13.4991 26.1168 13.7462 24.7718 15.3474 23.7836C15.3474 22.951 15.2285 22.1824 15.3749 21.4778C15.5396 20.7001 16.2258 20.2792 17.0127 20.0047C16.8114 18.5316 17.3878 17.4976 18.8427 16.9852C18.678 16.0428 18.8518 15.2101 19.593 14.5696C19.8126 14.3775 20.0962 14.1304 20.3433 14.1304C21.7249 14.1396 23.0151 13.4076 24.4516 13.7278C26.062 14.0938 27.7181 14.3043 29.356 14.5788C30.7101 14.8075 31.3964 15.8232 31.3323 17.58C32.714 18.0832 33.3636 19.0806 33.1166 20.5628C34.6629 21.304 35.0655 21.9811 34.9374 23.5549C36.868 24.3143 37.3621 26.2083 35.9622 27.8004C36.6576 28.4684 37.3438 29.1546 38.0575 29.8134C38.1673 29.9141 38.4235 29.9232 38.5882 29.8775C39.5947 29.5755 40.4182 29.8409 41.1411 30.5729C41.8822 31.3323 42.7606 31.9911 42.9345 33.144C42.9528 33.2446 42.9528 33.3361 42.9528 33.4276ZM34.9466 28.8252C34.91 28.8527 34.8368 28.9076 34.7727 28.9625C34.4159 29.3468 33.995 29.6213 33.5558 29.1455C33.1349 28.688 33.4643 28.322 33.812 27.9834C34.2512 27.5534 34.6995 27.1325 35.1113 26.675C35.5322 26.2084 35.5139 25.6685 35.1204 25.2659C34.727 24.8725 34.178 24.8633 33.7113 25.2476C33.5924 25.3483 33.4826 25.4672 33.3728 25.577C33.0251 25.9339 32.6408 26.2998 32.1558 25.8424C31.6709 25.3757 32.0094 24.9823 32.3754 24.6254C32.714 24.2869 33.0708 23.9666 33.3728 23.6006C33.7388 23.1523 33.7205 22.6582 33.2996 22.2464C32.8787 21.8438 32.4029 21.8347 31.9454 22.219C31.7166 22.4111 31.5153 22.6307 31.3049 22.832C30.9663 23.1614 30.582 23.2804 30.2252 22.9052C29.8684 22.5301 30.0148 22.1549 30.3533 21.8255C30.7559 21.4229 31.1768 21.0386 31.5428 20.6086C31.9179 20.1694 31.9088 19.6661 31.5062 19.2544C31.1036 18.8427 30.6095 18.8244 30.152 19.1995C29.905 19.4008 29.6945 19.6387 29.4566 19.8583C29.1272 20.1694 28.7704 20.2517 28.4318 19.9132C28.0933 19.5746 28.1665 19.2087 28.4867 18.8884C28.871 18.495 29.2645 18.1198 29.6396 17.7264C30.0879 17.2506 30.1063 16.665 29.722 16.2624C29.3011 15.8232 28.7246 15.8323 28.2122 16.3081C27.6815 16.8114 27.1508 17.3146 26.675 17.8636C26.5286 18.0375 26.5286 18.3577 26.5195 18.6139C26.5103 19.1263 26.6476 19.6753 26.5195 20.1511C26.2267 21.2399 25.3757 21.734 24.2777 21.8621C24.1222 23.1523 23.4634 23.9666 22.1733 24.2228C22.0452 24.2503 21.8622 24.4241 21.8439 24.5522C21.5877 25.8424 20.7733 26.5011 19.5106 26.6567C19.0257 28.6971 18.0741 29.2736 16.0428 28.8069C15.9147 28.7795 15.7134 28.7978 15.6219 28.8893C14.9357 29.5389 14.2586 30.2069 13.6364 30.8291C15.7866 32.9884 17.8728 35.0746 20.023 37.2432C20.3799 36.8497 20.8099 36.4654 21.1485 36.0079C22.3746 34.3426 23.9941 33.8028 25.9979 34.1322C27.0227 34.2969 27.9377 34.0407 28.624 33.1806C28.8985 32.8329 29.2919 32.7323 29.6396 33.0616C30.0056 33.4093 29.9233 33.7936 29.5939 34.1413C29.3011 34.4524 29.0174 34.7635 28.7704 35.0289C29.4841 35.7609 30.1886 36.4929 30.8657 37.1883C32.9519 35.1021 35.0472 33.0159 37.0876 30.9755C36.4014 30.2801 35.6786 29.5572 34.9466 28.8252ZM33.2264 41.6351C33.4917 41.4796 33.7662 41.3881 33.9492 41.2051C36.374 38.8078 38.7895 36.4014 41.1868 33.9766C41.6443 33.5191 41.6169 33.0159 41.1594 32.531C40.83 32.1833 40.4914 31.8447 40.1437 31.5153C39.5947 31.0029 39.1464 30.9938 38.6065 31.5336C36.2184 33.9034 33.8394 36.2824 31.4696 38.6706C30.948 39.1921 30.9572 39.6313 31.4421 40.1528C31.7807 40.5188 32.1375 40.8757 32.5127 41.2051C32.6957 41.3881 32.9519 41.4796 33.2264 41.6351ZM19.3185 18.2205C19.0165 18.4767 18.5773 18.6688 18.5041 18.9433C18.4126 19.291 18.5041 19.8217 18.7329 20.0962C19.4557 20.938 20.2792 21.6974 21.0753 22.4752C21.5785 22.9601 22.1641 22.9784 22.585 22.5484C22.9876 22.1366 22.9602 21.5327 22.4752 21.0386C21.7158 20.2609 20.9472 19.4832 20.1511 18.7329C19.959 18.5407 19.6845 18.4309 19.3185 18.2205ZM21.1759 15.1278C20.7825 15.4663 20.3616 15.6493 20.3067 15.9238C20.2243 16.2807 20.2975 16.8205 20.5263 17.0859C21.2674 17.946 22.1092 18.7146 22.9144 19.5198C23.1523 19.7576 23.3628 20.0779 23.6556 20.206C23.9758 20.3432 24.4241 20.4256 24.7169 20.2975C24.9823 20.1785 25.1927 19.7668 25.2659 19.4465C25.3574 19.0348 25.0097 18.861 24.6529 18.6871C23.3994 18.0924 22.4752 17.1591 21.8713 15.9055C21.7432 15.6402 21.4779 15.4572 21.1759 15.1278ZM17.5159 21.2399C17.2323 21.4687 16.8023 21.6425 16.7108 21.9353C16.601 22.2556 16.6742 22.7771 16.8755 23.0333C17.4336 23.7196 18.0924 24.3235 18.7329 24.9274C19.1904 25.3574 19.8034 25.3391 20.1969 24.9274C20.572 24.5248 20.5812 23.9666 20.1511 23.5183C19.5381 22.8778 18.9067 22.2556 18.2662 21.6425C18.1015 21.4961 17.8545 21.4229 17.5159 21.2399ZM16.3814 24.9548C15.6128 24.9457 15.0912 25.8149 15.5213 26.4554C15.7958 26.858 16.1709 27.2331 16.5735 27.5076C17.2231 27.9377 18.0741 27.407 18.0649 26.6292C18.0558 26.0162 16.9853 24.964 16.3814 24.9548ZM24.964 17.3238C25.5679 16.7199 26.126 16.1526 26.7025 15.5853C25.5587 15.384 24.3509 15.1644 23.0151 14.9265C23.4268 16.1709 24.1954 16.8388 24.964 17.3238Z" fill="white"/>
<path d="M25.723 8C25.842 8.37515 26.0433 8.74114 26.0707 9.12544C26.1256 9.93979 26.089 10.7633 26.0799 11.5868C26.0799 12.0443 25.9152 12.4194 25.3936 12.4286C24.8721 12.4286 24.7074 12.0626 24.7074 11.5959C24.7074 10.6809 24.6799 9.77509 24.7257 8.86009C24.7348 8.5673 24.9361 8.28365 25.0459 8C25.2655 8 25.4943 8 25.723 8Z" fill="white"/>
<path d="M17.4527 11.4494C17.3246 11.605 17.2148 11.8703 17.0318 11.9527C16.8396 12.035 16.4828 12.035 16.3547 11.9161C15.4488 11.0651 14.5521 10.1959 13.7195 9.27176C13.5822 9.11621 13.6097 8.61296 13.7652 8.44826C13.9208 8.28356 14.4423 8.20122 14.5796 8.32931C15.522 9.18026 16.4004 10.0953 17.288 10.9919C17.3703 11.0834 17.3795 11.239 17.4527 11.4494Z" fill="white"/>
<path d="M37.3162 8.81443C37.1698 9.07063 37.0966 9.29023 36.9502 9.43663C36.1907 10.2144 35.413 10.9738 34.6535 11.7516C34.3241 12.081 33.9581 12.2182 33.5921 11.8522C33.2262 11.4954 33.3451 11.1202 33.6745 10.7817C34.4431 10.0131 35.1934 9.22618 35.9986 8.49418C36.1907 8.32034 36.5659 8.25629 36.8404 8.29289C36.9959 8.31119 37.1332 8.61313 37.3162 8.81443Z" fill="white"/>
<path d="M12.8581 37.2981C13.0411 37.5634 13.3705 37.8196 13.3705 38.085C13.3705 38.3137 12.9771 38.7346 12.8032 38.7163C12.5379 38.6889 12.1444 38.3686 12.1078 38.1307C12.0621 37.8928 12.3915 37.5909 12.5653 37.3164C12.6568 37.3072 12.7575 37.3072 12.8581 37.2981Z" fill="white"/>
<path d="M31.5618 30.6095C31.7174 30.884 32.0193 31.1768 31.9919 31.433C31.9736 31.6617 31.5435 32.0552 31.3788 32.0186C31.1135 31.9545 30.7475 31.616 30.7292 31.3689C30.7109 31.131 31.0677 30.8565 31.2599 30.6003C31.3605 30.6003 31.4612 30.6095 31.5618 30.6095Z" fill="white"/>
</svg>
