<svg width="50" height="50" viewBox="0 0 50 50" fill="none" xmlns="http://www.w3.org/2000/svg">
<path d="M24.6459 39.991C20.6531 39.991 16.6513 39.991 12.6585 39.991C10.3098 39.991 9 38.6811 9 36.3595C9 28.7805 9 21.2014 9 13.6224C9 11.3279 10.3098 10 12.5953 10C20.6802 10 28.7651 10 36.841 10C39.0994 10 40.4363 11.3369 40.4363 13.5682C40.4363 21.1924 40.4363 28.8166 40.4363 36.4408C40.4363 38.6631 39.0903 39.991 36.841 40C32.776 40 28.7109 39.991 24.6459 39.991ZM10.355 16.757C10.346 17.037 10.3279 17.2358 10.3279 17.4345C10.3279 23.7579 10.3279 30.0723 10.3279 36.3957C10.3279 37.9765 11.0596 38.6902 12.6585 38.6902C20.6983 38.6902 28.738 38.6902 36.7778 38.6902C38.4128 38.6902 39.1084 37.9675 39.1174 36.3324C39.1174 30.0542 39.1174 23.785 39.1174 17.5068C39.1174 17.2719 39.1174 17.037 39.1174 16.7931C38.9277 16.7751 38.8374 16.757 38.7561 16.766C37.7173 16.8835 36.8952 16.6125 36.4255 15.5827C36.3532 15.4291 36.028 15.3207 35.8112 15.3207C34.5014 15.2936 33.1915 15.2846 31.8817 15.3297C31.6107 15.3388 31.2493 15.5375 31.0958 15.7633C30.1292 17.2087 28.4219 17.2087 27.4553 15.7633C27.3017 15.5375 26.9404 15.3297 26.6694 15.3207C25.3595 15.2755 24.0497 15.2846 22.7398 15.3207C22.505 15.3297 22.1527 15.5014 22.0533 15.6911C21.6197 16.5221 20.9783 16.7841 20.0659 16.7751C16.841 16.7299 13.6341 16.757 10.355 16.757ZM10.3369 15.411C10.6079 15.4201 10.8067 15.4381 11.0054 15.4381C14.0045 15.4381 17.0126 15.4291 20.0117 15.4472C20.4815 15.4472 20.7706 15.3297 20.9693 14.8961C21.2674 14.2638 21.7823 13.9928 22.4959 14.0108C23.9864 14.0379 25.477 14.0289 26.9675 14.0108C27.6179 14.0018 28.0786 14.2457 28.4219 14.8058C28.9819 15.7272 29.551 15.7272 30.093 14.8238C30.4273 14.2638 30.879 14.0018 31.5294 14.0108C33.065 14.0289 34.6007 14.0199 36.1364 14.0108C36.7326 14.0108 37.2295 14.2096 37.4643 14.7606C37.8076 15.5556 38.4038 15.4923 39.1174 15.3749C39.1174 14.7606 39.1174 14.1734 39.1174 13.5953C39.1174 13.3966 39.1265 13.1888 39.0994 12.9901C39 12.1409 38.3135 11.4544 37.4643 11.346C37.2385 11.3189 37.0126 11.3189 36.7868 11.3189C28.7561 11.3189 20.7164 11.3189 12.6856 11.3189C12.4869 11.3189 12.2791 11.3189 12.0804 11.3369C11.1319 11.4363 10.4092 12.15 10.355 13.1075C10.3098 13.8482 10.3369 14.589 10.3369 15.411Z" fill="white"/>
<path d="M19.0168 30.7949C19.1252 30.5509 19.1704 30.2528 19.351 30.0902C19.5498 29.9096 19.9201 29.7108 20.1279 29.7831C20.3267 29.8463 20.5706 30.298 20.5164 30.4967C20.2996 31.2736 19.9924 32.0234 19.6491 32.7461C19.5588 32.9267 19.1342 33.0984 18.9355 33.0351C18.2038 32.8183 17.4811 32.5473 16.8036 32.2041C16.5958 32.0957 16.361 31.5266 16.4423 31.4362C16.6681 31.1743 17.0566 31.0568 17.4721 30.831C17.3727 30.3522 17.1921 29.6657 17.1017 28.9701C16.7042 25.7994 18.4025 22.5835 21.221 21.102C21.8533 20.7678 22.4495 20.9484 22.3863 21.4904C22.3501 21.7705 22.052 22.1047 21.781 22.2673C19.4504 23.6675 18.2941 25.7181 18.3754 28.4191C18.4025 29.223 18.6645 30.0089 18.8271 30.8129C18.8813 30.7949 18.9536 30.7949 19.0168 30.7949Z" fill="white"/>
<path d="M30.4927 31.9873C30.0681 32.0144 29.77 32.0957 29.5351 32.0144C29.3003 31.9331 28.9931 31.6982 28.966 31.4994C28.9389 31.2917 29.1647 30.8852 29.3545 30.84C30.1584 30.6503 30.9895 30.5058 31.8206 30.4606C32.0193 30.4516 32.3626 30.84 32.4348 31.102C32.6065 31.7253 32.6516 32.3847 32.751 33.0261C32.8233 33.4507 32.742 33.812 32.2632 33.9114C31.7935 34.0017 31.5496 33.7397 31.4773 33.2881C31.4683 33.2339 31.4231 33.1887 31.4502 33.2248C30.5198 33.9023 29.6706 34.6973 28.6679 35.2032C26.0663 36.522 23.4556 36.3865 20.9172 34.9412C20.5107 34.7063 20.1675 34.4172 20.4294 33.9294C20.7275 33.3965 21.1702 33.5862 21.5947 33.821C24.4493 35.429 27.8007 34.9592 29.9416 32.6648C30.1133 32.4931 30.2488 32.2944 30.4927 31.9873Z" fill="white"/>
<path d="M26.2359 20.1715C29.8222 20.9755 32.1167 23.0261 32.9116 26.5853C33.0381 27.1453 33.0471 27.7415 33.0652 28.3287C33.0833 28.7984 32.9387 29.214 32.3606 29.1869C31.8276 29.1598 31.7463 28.7623 31.7463 28.3106C31.7463 25.6006 30.581 23.541 28.1962 22.2402C27.4645 21.8427 26.6153 21.653 25.8294 21.373C25.7933 21.4362 25.7662 21.4994 25.73 21.5627C25.8836 21.7704 26.1095 21.9692 26.1637 22.204C26.2179 22.466 26.2179 22.8815 26.0553 23.017C25.8927 23.1616 25.3868 23.1616 25.2422 23.017C24.6822 22.4389 24.1582 21.8066 23.7337 21.1291C23.6162 20.9394 23.7879 20.4335 23.9866 20.2257C24.4202 19.774 24.9622 19.4308 25.45 19.0333C25.7843 18.7623 26.1366 18.6358 26.4708 18.9791C26.796 19.3224 26.6876 19.6747 26.3624 19.9818C26.3263 20.0089 26.2992 20.0722 26.2359 20.1715Z" fill="white"/>
<path d="M24.4825 27.6333C24.4825 26.8926 24.4735 26.1519 24.4825 25.4111C24.4916 24.9504 24.6722 24.5891 25.1871 24.6162C25.6569 24.6433 25.8014 24.9865 25.8014 25.4202C25.7924 26.8745 25.7924 28.3379 25.8014 29.7923C25.8014 30.2621 25.6388 30.6234 25.142 30.6234C24.6361 30.6234 24.4825 30.235 24.4825 29.7833C24.4825 29.0697 24.4825 28.347 24.4825 27.6333Z" fill="white"/>
<path d="M24.9912 33.0533C24.8195 32.7823 24.4763 32.4932 24.5124 32.2584C24.5485 32.0145 24.9279 31.6983 25.199 31.6531C25.3706 31.626 25.7681 32.0416 25.7771 32.2674C25.7861 32.5294 25.47 32.7913 25.2893 33.0533C25.1899 33.0533 25.0905 33.0533 24.9912 33.0533Z" fill="white"/>
<path d="M16.3821 14.336C16.0479 13.8844 15.7046 13.6314 15.6775 13.3424C15.6323 12.8997 16.0117 12.71 16.4544 12.7191C16.906 12.7281 17.2583 12.9539 17.168 13.3966C17.1048 13.6856 16.7525 13.9115 16.3821 14.336Z" fill="white"/>
<path d="M13.8792 14.336C13.5179 13.9024 13.1656 13.6675 13.1204 13.3784C13.0481 12.9358 13.4185 12.728 13.8611 12.719C14.3038 12.719 14.6741 12.9268 14.6199 13.3604C14.5748 13.6494 14.2225 13.8933 13.8792 14.336Z" fill="white"/>
<path d="M18.9799 12.4119C19.3322 12.8635 19.6665 13.0984 19.7116 13.3875C19.7929 13.8482 19.4135 14.0469 18.9799 14.0469C18.5554 14.0469 18.1669 13.8482 18.2392 13.3965C18.2844 13.0984 18.6186 12.8635 18.9799 12.4119Z" fill="white"/>
</svg>
