<svg width="80" height="80" viewBox="0 0 80 80" fill="none" xmlns="http://www.w3.org/2000/svg">
<path d="M68.4495 62.6233C67.8074 61.9655 67.1496 61.3234 66.5074 60.6813C64.2521 58.426 62.0125 56.1707 59.7572 53.9311C59.0994 53.289 58.473 53.289 57.8152 53.9311C57.4863 54.2443 57.1731 54.5576 56.8598 54.8865C56.6719 55.1057 56.5309 55.0901 56.343 54.8865C55.8418 54.3696 55.3406 53.8371 54.8081 53.3516C54.4636 53.054 54.5106 52.8504 54.7612 52.5059C58.6922 47.1809 57.2984 39.6476 51.7228 36.0767C51.3312 35.8262 51.1903 35.5599 51.1903 35.1057C51.2059 27.2749 51.2059 19.444 51.2059 11.5975C51.2059 10.3446 50.8614 10 49.5928 10C36.9225 10 24.2678 10 11.6132 10C10.3446 10 10 10.3446 10 11.5975C10 29.5771 10 47.5411 10 65.5208C10 66.7894 10.3446 67.1339 11.5818 67.1339C15.9358 67.1339 20.2897 67.1339 24.6594 67.1339C24.8473 67.1339 25.0509 67.1339 25.2388 67.1182C25.8183 67.0399 26.2255 66.5701 26.2255 65.9906C26.2412 65.2388 25.7244 64.7847 24.816 64.7847C20.8849 64.7847 16.9695 64.769 13.0384 64.8003C12.4745 64.8003 12.3336 64.675 12.3336 64.0955C12.3493 47.0713 12.3493 30.0626 12.3336 13.0384C12.3336 12.4902 12.4432 12.3336 13.0227 12.3336C24.7533 12.3493 36.4683 12.3493 48.1989 12.3336C48.7471 12.3336 48.8724 12.4746 48.8724 13.007C48.841 20.0235 48.841 27.0243 48.841 34.0407C48.841 34.2443 48.888 34.4636 48.7784 34.6829C48.5904 34.6359 48.4025 34.6045 48.2146 34.5576C41.2764 32.8504 34.26 38.1911 34.072 45.3485C33.8684 52.8974 40.9789 58.6296 48.3242 56.8128C48.8097 56.6875 48.8724 56.8442 48.8567 57.267C48.841 59.5693 48.8254 61.8716 48.8567 64.1895C48.8567 64.6907 48.7001 64.8003 48.2302 64.7847C44.0955 64.769 39.9452 64.769 35.8105 64.769C35.5442 64.769 35.2623 64.7533 34.9961 64.8473C34.4949 65.0352 34.1817 65.5051 34.2287 66.0376C34.2756 66.5701 34.6672 66.993 35.184 67.0713C35.3563 67.1026 35.5286 67.1026 35.7165 67.1026C40.3837 67.1026 45.0509 67.1026 49.7181 67.1026C50.8144 67.1026 51.1903 66.711 51.1903 65.6147C51.1903 62.4824 51.1903 59.3657 51.1903 56.2334C51.1903 55.8418 51.2529 55.5599 51.6445 55.3876C52.0673 55.1997 52.3962 54.6202 52.8034 54.7142C53.195 54.8081 53.4926 55.3093 53.8215 55.6382C54.1817 55.9984 54.7768 56.343 54.8081 56.7345C54.8395 57.1887 54.1817 57.502 53.8215 57.8778C53.0697 58.6766 53.054 59.2091 53.8215 59.9765C56.437 62.592 59.0525 65.1919 61.6523 67.823C62.592 68.7784 63.5317 69.6868 64.8943 70C65.3641 70 65.834 70 66.3038 70C66.3508 69.9687 66.3978 69.9217 66.4604 69.906C69.9373 69.0133 70.9867 65.1919 68.4495 62.6233ZM45.4268 54.7925C40.3994 54.7455 36.3587 50.6265 36.4056 45.5677C36.4526 40.65 40.6813 36.5466 45.6617 36.5936C50.5951 36.6406 54.6359 40.6969 54.5889 45.5677C54.5576 50.8927 50.6421 54.8395 45.4268 54.7925ZM66.4135 67.4941C65.646 67.8543 64.9099 67.7291 64.2991 67.1496C63.3594 66.2412 62.4354 65.3015 61.5113 64.3774C59.8199 62.686 58.1284 60.9789 56.4056 59.2874C56.1394 59.0211 56.1394 58.8802 56.4056 58.6139C57.0947 57.9561 57.7682 57.2827 58.4417 56.5779C58.6766 56.3273 58.8175 56.2803 59.0838 56.5623C61.668 59.1621 64.2678 61.7619 66.8677 64.3618C67.2592 64.7533 67.4941 65.2075 67.4941 65.7713C67.4941 66.5544 67.1339 67.1652 66.4135 67.4941Z" fill="white"/>
<path d="M19.4285 31.9108C23.297 31.9108 27.1654 31.9108 31.0339 31.9108C34.9023 31.9108 38.7708 31.9108 42.6392 31.9108C42.8271 31.9108 43.0307 31.9265 43.2187 31.8952C43.8452 31.8012 44.2837 31.2844 44.2524 30.6736C44.221 30.0628 43.7668 29.5929 43.109 29.5772C42.6079 29.5616 42.091 29.5303 41.5899 29.5772C41.073 29.6242 40.9321 29.4676 40.9321 28.9351C40.9634 25.4582 40.9477 21.9813 40.9477 18.5044C40.9477 17.2358 40.5875 16.8756 39.3033 16.8756C38.0347 16.8756 36.7661 16.8756 35.4975 16.8756C34.1192 16.8756 33.806 17.1888 33.806 18.5514C33.806 22.0283 33.7903 25.5052 33.8217 28.9821C33.8217 29.452 33.6964 29.5929 33.2265 29.5616C32.5374 29.5303 31.8639 29.5303 31.1748 29.5616C30.7363 29.5773 30.5953 29.4676 30.611 29.0134C30.6423 27.5569 30.6267 26.0847 30.611 24.6125C30.611 23.6415 30.1725 23.2186 29.2171 23.2029C27.7762 23.2029 26.3197 23.2029 24.8788 23.2029C23.8608 23.2029 23.4693 23.5945 23.4693 24.6281C23.4693 26.116 23.4536 27.6039 23.4693 29.0761C23.4693 29.4363 23.3753 29.5616 22.9994 29.5459C22.2633 29.5146 21.5116 29.5146 20.7755 29.5459C20.2899 29.5773 20.149 29.4206 20.149 28.9351C20.1646 25.2859 20.1646 21.6368 20.1646 17.9719C20.1646 17.7057 20.1646 17.4238 20.0863 17.1575C19.8984 16.625 19.4285 16.3274 18.8491 16.3901C18.3166 16.4371 17.9094 16.8286 17.8467 17.3611C17.8311 17.5334 17.8311 17.7057 17.8311 17.8936C17.8311 22.0283 17.8311 26.1787 17.8311 30.3133C17.8467 31.5506 18.2226 31.9108 19.4285 31.9108ZM36.1553 24.4089C36.1553 22.8427 36.1709 21.2765 36.1396 19.726C36.1396 19.3502 36.2492 19.2092 36.6251 19.2249C37.1106 19.2562 37.5961 19.2562 38.0816 19.2249C38.5045 19.1935 38.5985 19.3815 38.5985 19.773C38.5828 22.8584 38.5828 25.9437 38.5985 29.0291C38.5985 29.4676 38.4732 29.6242 38.0347 29.5772C37.4239 29.5146 36.6094 29.8278 36.2336 29.452C35.8733 29.0917 36.1396 28.293 36.1396 27.6978C36.1396 26.6015 36.1553 25.5052 36.1553 24.4089ZM25.8342 27.6195C25.8029 27.0714 25.8342 26.5232 25.8185 25.9907C25.8029 25.7088 25.8812 25.5365 26.2101 25.5835C26.2257 25.5835 26.2414 25.5835 26.2727 25.5835C26.9305 25.6305 27.7762 25.3016 28.1834 25.7245C28.5593 26.116 28.2461 26.9461 28.2931 27.4629C28.2931 28.105 28.2774 28.6375 28.2931 29.1544C28.3087 29.4363 28.2148 29.6086 27.9015 29.5616C27.8859 29.5616 27.8702 29.5616 27.8389 29.5616C27.1968 29.5459 26.3667 29.7652 25.9751 29.452C25.5523 29.1231 25.8655 28.2617 25.8342 27.6195Z" fill="white"/>
<path d="M19.1781 58.3163C21.6996 58.3163 24.2211 58.3163 26.7427 58.3163C29.2799 58.3163 31.8171 58.3163 34.3699 58.3163C35.1373 58.3163 35.6542 57.8464 35.6698 57.1886C35.6855 56.4995 35.153 55.9983 34.3699 55.9827C34.2133 55.9827 34.0567 55.9827 33.9001 55.9827C29.1702 55.9827 24.4404 55.9827 19.7106 55.9827C19.46 55.9827 19.1937 55.967 18.9431 55.9983C18.207 56.0766 17.7528 56.6875 17.8781 57.3922C17.9721 57.956 18.442 58.3163 19.1781 58.3163Z" fill="white"/>
<path d="M32.2078 37.6898C32.2235 36.938 31.7066 36.4995 30.7982 36.4995C28.8875 36.4995 26.9768 36.4995 25.0504 36.4995C23.124 36.4995 21.182 36.4995 19.2556 36.4995C18.3785 36.4995 17.8773 36.9224 17.8617 37.6585C17.846 38.4102 18.3628 38.8488 19.2712 38.8488C23.124 38.8488 26.9611 38.8488 30.8139 38.8488C31.691 38.8331 32.1921 38.4102 32.2078 37.6898Z" fill="white"/>
<path d="M19.2406 51.8325C20.6815 51.8325 22.138 51.8325 23.5789 51.8325C25.7246 51.8325 27.8702 51.8325 30.0159 51.8325C30.611 51.8325 31.0965 51.6603 31.3314 51.0651C31.6447 50.2664 31.0809 49.4989 30.1568 49.4833C28.3244 49.4676 26.492 49.4833 24.6439 49.4833C22.8271 49.4833 21.0104 49.4833 19.1936 49.4833C18.3166 49.4833 17.8311 49.9218 17.8311 50.6579C17.8624 51.394 18.3792 51.8325 19.2406 51.8325Z" fill="white"/>
<path d="M19.178 45.3329C20.8381 45.3485 22.4983 45.3329 24.1584 45.3329C25.8342 45.3329 27.5257 45.3485 29.2015 45.3329C30.0785 45.3172 30.5797 44.7221 30.4388 43.939C30.3291 43.3282 29.8593 42.9993 29.0292 42.9993C25.7872 42.9993 22.5453 42.9993 19.3033 42.9993C19.1153 42.9993 18.9117 42.9993 18.7238 43.0619C18.1913 43.2029 17.8937 43.5631 17.8624 44.1112C17.8154 44.8473 18.3166 45.3329 19.178 45.3329Z" fill="white"/>
<path d="M30.3128 64.8002C29.655 64.7845 29.1382 65.2387 29.1069 65.8809C29.0755 66.5386 29.5767 67.0711 30.2345 67.1025C30.8766 67.1181 31.3935 66.6326 31.4091 65.9905C31.4405 65.3484 30.9549 64.8315 30.3128 64.8002Z" fill="white"/>
<path d="M46.4603 38.7236C44.2676 38.3633 42.2003 39.5536 41.4955 41.6053C41.3232 42.1221 41.198 42.6703 41.2919 43.2185C41.3859 43.798 41.8714 44.2052 42.4196 44.2052C42.9834 44.2052 43.4532 43.8136 43.5629 43.2341C43.5942 43.0462 43.6099 42.8426 43.6412 42.6546C43.8291 41.6366 44.8001 40.8849 45.7868 40.9788C46.8675 41.0885 47.6819 41.9342 47.6819 42.9992C47.6819 43.9389 47.1964 44.5654 46.3663 44.9569C45.176 45.5051 44.5496 46.4604 44.4869 47.7604C44.4556 48.4338 44.9098 48.9507 45.5519 49.0133C46.1627 49.0759 46.7422 48.6374 46.8048 47.964C46.8675 47.4471 47.1337 47.1965 47.5723 46.9773C49.1698 46.1629 49.9842 44.8316 50.0468 43.3438C50.0468 40.9319 48.4806 39.0525 46.4603 38.7236Z" fill="white"/>
<path d="M45.6769 50.5637C45.0505 50.5637 44.5023 51.0649 44.4867 51.6914C44.471 52.3335 45.0192 52.8973 45.6613 52.8973C46.2721 52.8973 46.8203 52.3492 46.8203 51.7383C46.8359 51.0962 46.3034 50.5637 45.6769 50.5637Z" fill="white"/>
</svg>
