<svg width="80" height="80" viewBox="0 0 80 80" fill="none" xmlns="http://www.w3.org/2000/svg">
<path d="M70.0134 45.4827C70.0134 44.9443 69.7779 44.7087 69.2563 44.7087C66.8168 44.7087 64.3941 44.7087 61.9545 44.7087C61.433 44.7087 61.1806 44.9611 61.1806 45.4827C61.1806 45.7855 61.1806 46.1052 61.1806 46.4416C60.373 46.4416 59.6328 46.4416 58.842 46.4416C58.842 46.122 58.842 45.8528 58.842 45.5836C58.842 34.0757 58.842 22.5846 58.842 11.0768C58.842 10.1009 58.7411 10 57.7652 10C44.5413 10 31.3341 10 18.1101 10C17.1343 10 17.067 10.0673 17.067 11.0263C17.067 19.4217 17.067 27.817 17.067 36.2124C17.067 36.4648 17.067 36.7171 17.067 37.0705C16.7642 37.0705 16.5287 37.0705 16.3099 37.0705C14.4761 37.0705 12.659 37.0873 10.8252 37.0705C10.2363 37.0705 9.98396 37.2892 10.0008 37.878C10.0176 39.1735 10.0008 40.4858 10.0008 41.7813C10.0008 49.7392 10.0008 57.6803 10.0008 65.6383C10.0008 67.4048 10.6738 68.7676 12.2553 69.5247C12.9451 69.8612 13.7863 69.979 14.5602 69.979C26.943 70.0126 39.3257 69.9958 51.7085 69.9958C51.9777 69.9958 52.2468 69.9958 52.5329 69.979C55.8304 69.8276 58.5392 67.2366 58.7915 63.9558C58.8588 63.0305 58.8084 62.1052 58.8757 61.1966C58.8925 60.9947 59.128 60.6583 59.2794 60.6414C59.9019 60.5741 60.5244 60.6078 61.1974 60.6078C61.1974 60.9611 61.1974 61.2303 61.1974 61.4995C61.2142 62.1893 61.3825 62.3743 62.0386 62.3743C64.4277 62.3743 66.8168 62.3743 69.2227 62.3743C69.761 62.3743 70.0302 62.1556 70.0302 61.5836C70.0134 56.2166 70.0134 50.8496 70.0134 45.4827ZM15.3846 68.5489C14.291 69.0705 13.2142 68.9359 12.2553 68.1788C11.4309 67.5394 11.1617 66.6477 11.1617 65.6215C11.1785 58.2355 11.1617 50.8496 11.1617 43.4637C11.1617 41.7476 11.1617 40.0315 11.1617 38.2482C13.1469 38.2482 15.0649 38.2482 17.0166 38.2482C17.0334 38.4164 17.067 38.5847 17.067 38.7361C17.067 47.7371 17.067 56.7382 17.067 65.7392C17.067 67.0011 16.5455 67.9937 15.3846 68.5489ZM52.1795 68.8349C44.7263 68.8349 37.2731 68.8349 29.8199 68.8349C25.8325 68.8349 21.8452 68.8349 17.8578 68.8349C17.6222 68.8349 17.4035 68.8349 17.0839 68.8349C17.2016 68.6498 17.2858 68.5152 17.3867 68.3807C17.9419 67.6236 18.2279 66.7992 18.2279 65.857C18.2279 63.6362 18.2279 61.4154 18.2279 59.1777C18.2279 43.4637 18.2279 27.7329 18.2279 12.0189C18.2279 11.7497 18.2279 11.4805 18.2279 11.1777C31.3846 11.1777 44.4571 11.1777 57.6138 11.1777C57.6138 22.9043 57.6138 34.6477 57.6138 46.3912C57.1259 46.2397 56.5034 45.2976 56.5034 44.6919C56.5034 43.245 56.5034 41.7981 56.5034 40.3512C56.5034 39.5268 56.2847 39.3586 55.4771 39.4427C53.475 39.6614 51.944 41.2093 51.8262 43.2282C51.7589 44.2713 51.8094 45.3144 51.8094 46.4585C49.9587 46.4585 48.2426 46.4585 46.5266 46.4585C46.2574 46.4585 45.9713 46.4585 45.7022 46.4921C44.8105 46.6267 44.1375 47.2997 44.1375 48.1914C44.1207 52.1451 44.1207 56.082 44.1375 60.0358C44.1375 61.0789 44.9787 61.7687 46.1396 61.7687C49.6895 61.7687 53.2395 61.7687 56.7894 61.7687C57.0418 61.7687 57.2942 61.7687 57.5297 61.7687C58.3373 66.0757 55.393 68.8349 52.1795 68.8349ZM61.1638 59.4637C60.5413 59.4637 59.9524 59.5142 59.3467 59.4469C58.7915 59.3964 58.3541 59.5478 58.0344 60.0021C57.6475 60.5237 57.1596 60.6583 56.5034 60.6414C53.2058 60.6078 49.9083 60.6246 46.6107 60.6246C45.3657 60.6246 45.2647 60.5405 45.2647 59.2618C45.2647 58.959 45.2647 58.6393 45.2647 58.2524C45.7358 58.2524 46.1396 58.2524 46.5602 58.2524C48.3604 58.2524 50.1774 58.2524 51.9777 58.2524C52.4151 58.2524 52.903 58.2524 52.9198 57.6803C52.9366 57.0915 52.4656 57.0915 52.0113 57.0915C50.0092 57.0915 48.0239 57.0915 46.0218 57.0915C45.8031 57.0915 45.5676 57.0915 45.2984 57.0915C45.2984 56.2839 45.2984 55.5436 45.2984 54.7192C45.5507 54.7192 45.7863 54.7192 46.0386 54.7192C47.9566 54.7192 49.8578 54.7192 51.7758 54.7192C51.9272 54.7192 52.0618 54.7192 52.2132 54.7192C52.6002 54.7192 52.8862 54.551 52.903 54.164C52.9198 53.7098 52.6002 53.5584 52.1964 53.5584C50.1606 53.5584 48.1249 53.5584 46.0891 53.5584C45.8368 53.5584 45.6012 53.5584 45.2984 53.5584C45.2984 52.7508 45.2984 52.0105 45.2984 51.2029C45.5844 51.2029 45.8704 51.2029 46.1564 51.2029C48.0239 51.2029 49.8914 51.2029 51.7589 51.2029C51.9104 51.2029 52.045 51.2029 52.1964 51.2029C52.5833 51.2029 52.8693 51.0347 52.8862 50.6309C52.903 50.1767 52.5833 50.0252 52.1795 50.0252C50.127 50.0252 48.0744 50.0252 46.005 50.0252C45.7863 50.0252 45.5507 50.0252 45.2479 50.0252C45.2479 49.4027 45.2142 48.8475 45.2647 48.2923C45.3152 47.7708 45.7022 47.653 46.1732 47.653C48.108 47.6698 50.0428 47.653 51.9608 47.653C52.7516 47.653 52.903 47.5016 52.903 46.694C52.903 45.6004 52.8862 44.5068 52.9198 43.4132C52.9535 42.0841 53.8788 40.9905 55.1911 40.7213C55.2079 40.8728 55.2584 41.041 55.2584 41.1924C55.2584 42.0336 55.3425 42.8749 55.2416 43.7161C55.0565 45.1293 55.5781 46.2566 56.4529 47.266C56.638 47.4848 57.0081 47.653 57.2942 47.653C58.5392 47.6866 59.801 47.6698 61.1133 47.6698C61.1638 51.6404 61.1638 55.4932 61.1638 59.4637ZM62.392 45.9369C64.5287 45.9369 66.6317 45.9369 68.7852 45.9369C68.7852 49.6215 68.7852 53.306 68.7852 57.041C66.6654 57.041 64.5623 57.041 62.392 57.041C62.392 53.306 62.392 49.6383 62.392 45.9369ZM68.802 61.1293C66.6822 61.1293 64.5623 61.1293 62.4088 61.1293C62.4088 60.1703 62.4088 59.245 62.4088 58.286C64.5455 58.286 66.6485 58.286 68.802 58.286C68.802 59.2282 68.802 60.1535 68.802 61.1293Z" fill="white"/>
<path d="M51.7923 32.1577C51.7418 30.2902 51.7755 28.4227 51.7755 26.5552C51.7755 24.2839 51.7755 22.0294 51.7755 19.7581C51.7755 18.816 51.6914 18.7655 50.7492 18.6309C49.4369 18.429 48.1246 18.2776 46.8459 17.9747C43.9185 17.2681 41.1593 16.225 39.1572 13.7686C38.8543 13.3985 38.4842 13.4826 38.1982 13.8528C37.256 15.0978 36.011 15.9053 34.6314 16.5783C32.1919 17.7728 29.5841 18.3449 26.8922 18.6141C25.7145 18.7318 25.664 18.7655 25.664 19.9432C25.664 23.9979 25.7313 28.0357 25.6472 32.0904C25.5799 35.1861 26.7913 37.6256 29.0625 39.5941C31.7544 41.9495 34.9511 43.3123 38.3496 44.2881C38.5683 44.3554 38.8207 44.3554 39.0226 44.2881C42.4548 43.3123 45.7019 41.9327 48.4106 39.5268C50.6651 37.5583 51.8932 35.1693 51.7923 32.1577ZM47.7713 38.551C45.2308 40.8223 42.1856 42.1177 38.9721 43.0936C38.8207 43.144 38.6356 43.1104 38.4842 43.0767C35.4053 42.1682 32.4947 40.9064 30.0215 38.8033C27.9521 37.0368 26.8081 34.8833 26.8754 32.0568C26.9763 28.2208 26.8922 24.3848 26.8922 20.5489C26.8922 20.3133 26.8922 20.0946 26.8922 19.8254C31.2497 19.2534 35.439 18.328 38.7534 15.1314C42.051 18.3112 46.2402 19.2534 50.6146 19.8254C50.6146 20.0946 50.6146 20.3133 50.6146 20.5489C50.6146 24.4017 50.5473 28.2713 50.6314 32.1241C50.6819 34.7487 49.6724 36.8517 47.7713 38.551Z" fill="white"/>
<path d="M22.6354 52.9526C25.9834 52.9526 29.3483 52.9526 32.6964 52.9526C33.3525 52.9526 33.5544 52.7508 33.5544 52.0778C33.5544 49.5205 33.5544 46.9632 33.5544 44.4059C33.5544 43.6992 33.3693 43.5142 32.6459 43.5142C30.9971 43.5142 29.3315 43.5142 27.6827 43.5142C26.0002 43.5142 24.3346 43.5142 22.6522 43.5142C21.9624 43.5142 21.7773 43.6992 21.7773 44.3554C21.7773 46.9295 21.7773 49.5036 21.7773 52.0946C21.7605 52.7676 21.9624 52.9526 22.6354 52.9526ZM23.342 44.6919C26.3031 44.7087 29.2474 44.7087 32.2084 44.7255C32.2253 44.7255 32.2421 44.7423 32.3094 44.7928C32.3094 47.0809 32.3094 49.3859 32.3094 51.7413C29.1969 51.7413 26.1012 51.7413 22.9382 51.7413C22.9382 51.001 22.9382 50.2944 22.9382 49.5709C22.9382 48.124 22.9382 46.6771 22.9382 45.2302C22.9382 44.9611 22.9214 44.6919 23.342 44.6919Z" fill="white"/>
<path d="M32.6463 55.3081C29.3151 55.3081 25.9671 55.3081 22.6358 55.3081C21.8956 55.3081 21.7441 55.4595 21.7441 56.1998C21.7441 58.7403 21.7441 61.2808 21.7441 63.8213C21.7441 64.5615 21.8956 64.7129 22.6358 64.7129C24.3014 64.7129 25.9502 64.7129 27.6159 64.7129C29.2983 64.7129 30.9807 64.7129 32.6463 64.7129C33.3698 64.7129 33.538 64.5615 33.538 63.8213C33.538 61.2808 33.538 58.7403 33.538 56.1998C33.538 55.4764 33.3866 55.3081 32.6463 55.3081ZM32.3267 63.5016C29.231 63.5016 26.1185 63.5016 22.9891 63.5016C22.9891 61.1966 22.9891 58.8917 22.9891 56.5531C26.0848 56.5531 29.1973 56.5531 32.3267 56.5531C32.3267 58.8412 32.3267 61.1462 32.3267 63.5016Z" fill="white"/>
<path d="M47.8052 27.6319C47.8052 26.1009 47.8052 24.5699 47.8052 23.0388C47.8052 22.2313 47.6875 22.0967 46.9135 21.9621C44.1375 21.5078 41.4793 20.7507 39.208 18.9842C39.0229 18.8327 38.5182 18.8327 38.3331 18.9673C36.045 20.7676 33.3867 21.5247 30.6107 21.9621C29.8031 22.0967 29.719 22.1808 29.719 23.022C29.719 25.8485 29.7527 28.6918 29.7022 31.5183C29.6685 33.5877 30.4761 35.2029 32.0071 36.532C33.6727 37.9621 35.6244 38.8538 37.6601 39.5941C38.4172 39.8632 39.0902 39.8801 39.8473 39.6109C42.1522 38.7528 44.3899 37.7602 46.1396 35.9263C47.25 34.7655 47.8389 33.4027 47.8052 31.7875C47.7884 30.4079 47.8052 29.0115 47.8052 27.6319ZM44.9451 35.4384C43.229 37.0199 41.1428 37.9453 38.9388 38.6351C38.8042 38.6687 38.6528 38.6687 38.5182 38.6351C36.4488 37.9789 34.4803 37.104 32.7979 35.6908C31.5192 34.5972 30.8294 33.2681 30.8631 31.5183C30.9304 28.7591 30.8799 25.9831 30.8799 23.123C33.7232 22.6519 36.3983 21.8443 38.7201 20.1114C41.0586 21.8443 43.7169 22.6519 46.5602 23.123C46.5602 23.4763 46.5602 23.7791 46.5602 24.0988C46.5602 26.6224 46.5266 29.1293 46.577 31.6529C46.6275 33.2008 46.0555 34.429 44.9451 35.4384Z" fill="white"/>
<path d="M26.4719 50.2608C26.8757 50.6982 27.229 50.6646 27.6496 50.2608C28.4908 49.3859 29.3657 48.5447 30.2237 47.6867C30.5265 47.3838 30.7789 47.0474 30.3751 46.6604C29.9882 46.2903 29.6517 46.5594 29.3657 46.8623C28.6254 47.6362 27.8683 48.3933 27.0271 49.2513C26.7411 48.9317 26.556 48.6793 26.3373 48.4606C26.0513 48.1914 25.6811 48.1241 25.4792 48.4606C25.3615 48.6457 25.3951 49.0663 25.5297 49.2682C25.7652 49.6551 26.169 49.9243 26.4719 50.2608Z" fill="white"/>
</svg>
