<svg width="80" height="80" viewBox="0 0 80 80" fill="none" xmlns="http://www.w3.org/2000/svg">
<path d="M68.8768 47.4929C68.8601 47.4762 68.8434 47.4595 68.8434 47.4428C68.159 46.5914 67.3744 45.9905 66.1892 46.1908C66.0056 46.2242 65.8053 46.2242 65.6383 46.1741C65.5048 46.1407 65.3379 46.0239 65.3045 45.907C64.8704 44.8386 64.4531 43.7536 63.9857 42.5684C64.0692 42.5016 64.2361 42.3514 64.403 42.2345C65.4714 41.5334 65.6383 40.4817 65.4881 39.3299C65.4547 39.1129 65.3879 38.8625 65.2544 38.7123C64.7202 38.128 64.1526 37.5771 63.5851 37.0262C63.4515 36.9094 63.2679 36.8092 63.0843 36.7925C62.0159 36.7258 60.9476 36.6256 60.2297 37.694C60.1797 37.7774 60.0628 37.8275 60.0127 37.911C59.7456 38.2615 59.4786 38.3116 59.0612 38.0612C58.6105 37.7774 58.093 37.5938 57.5922 37.3768C57.1415 37.1932 56.4738 37.1598 56.2568 36.8259C56.0064 36.4587 56.1566 35.8243 56.1399 35.3068C56.1232 34.372 54.9046 33.1367 53.9531 33.1367C53.4356 33.1367 52.9181 33.1367 52.3172 33.1367C52.3172 32.8029 52.3172 32.5525 52.3172 32.3021C52.3172 25.3076 52.3172 18.2965 52.3172 11.3021C52.3172 10.1502 52.167 10 51.0318 10C37.9611 10.0334 24.9237 10.0501 11.8863 10.0501C11.5358 10.0501 11.1852 10.0501 10.818 10.0668C10.3005 10.0835 10.0167 10.3506 10 10.8847C10 11.0517 10 11.2186 10 11.3855C10 27.411 10 43.4364 10 59.4452C10 59.779 10.0167 60.1129 10.0334 60.4468C10.217 62.4166 11.8529 64.1193 13.7893 64.403C16.8943 64.8538 19.9992 65.3045 23.1208 65.7719C32.3855 67.1574 41.6336 68.5429 50.8983 69.9452C52.0501 70.1121 52.2838 69.9452 52.2838 68.7767C52.2838 67.6415 52.2838 66.5064 52.2838 65.3045C52.9181 65.3045 53.4857 65.3212 54.0366 65.2878C54.2703 65.2711 54.5708 65.2377 54.7377 65.1042C55.539 64.403 56.3903 63.7186 56.1065 62.4499C56.0732 62.3164 56.1232 62.1495 56.1065 62.0159C56.0565 61.6654 56.2067 61.4984 56.5573 61.3983C57.1582 61.2146 57.7425 60.9976 58.31 60.7639C58.7441 60.5803 59.2282 60.1463 59.5954 60.2298C60.0127 60.3132 60.3299 60.8641 60.6805 61.2146C61.1479 61.6654 62.9507 61.9658 63.4181 61.5318C64.5199 60.5469 65.9221 59.6622 65.4881 57.8092C65.4213 57.5255 65.3212 57.1916 65.1208 56.9913C64.7202 56.5739 64.2528 56.2234 63.9356 55.9563C64.403 54.7878 64.8371 53.8697 65.1542 52.9014C65.3212 52.4173 65.5048 52.2003 66.0056 52.2838C67.1407 52.4841 68.0088 52.0835 68.7099 51.1821C69.1272 50.6479 69.3108 48.0437 68.8768 47.4929ZM39.0294 66.6733C31.8514 65.5883 24.69 64.5199 17.562 63.4515C18.0628 62.6002 18.5469 61.7989 19.0477 60.9476C25.6415 62.8005 32.3355 64.6701 39.0461 66.5565C39.0294 66.5899 39.0294 66.6232 39.0294 66.6733ZM50.7814 68.3259C49.279 67.9086 47.8267 67.4913 46.3744 67.0906C37.1932 64.5199 27.9952 61.9325 18.814 59.3617C17.9126 59.1113 17.6455 59.2782 17.5286 60.1964C17.3116 61.8657 15.9595 63.0676 14.407 63.0008C12.7377 62.9174 11.4857 61.6153 11.469 59.8792C11.4523 57.1081 11.469 54.3371 11.469 51.566C11.469 38.5119 11.469 25.4412 11.469 12.3871C11.469 12.12 11.469 11.8529 11.469 11.5525C24.6065 11.5525 37.6773 11.5525 50.7981 11.5525C50.7814 30.4825 50.7814 49.3625 50.7814 68.3259ZM52.2838 57.1248C52.3005 56.0898 52.2838 55.0549 52.2838 53.9531C55.5056 54.2703 57.6089 52 57.7759 49.496C57.9595 46.6415 55.9396 44.7886 52.3005 44.4881C52.3005 43.353 52.2838 42.2178 52.3005 41.0827C52.3172 40.5819 52.7011 40.5819 53.0684 40.5819C53.4523 40.5819 53.8029 40.6654 53.7194 41.1161C53.5024 42.3681 54.1201 42.8855 55.2719 43.0859C55.7059 43.1526 56.1065 43.4364 56.5072 43.6701C56.9746 43.9372 57.3585 43.9372 57.7425 43.5366C57.876 43.403 58.0262 43.2862 58.1431 43.1526C58.4937 42.752 58.7774 42.7353 59.1781 43.1359C59.5787 43.5366 59.5453 43.8371 59.1447 44.1709C58.9778 44.3045 58.8442 44.4714 58.694 44.6049C58.3601 44.9221 58.3434 45.256 58.5437 45.6733C58.8776 46.4078 59.1948 47.159 59.4619 47.9102C59.6121 48.3275 59.8458 48.5779 60.3299 48.5612C60.5135 48.5612 60.6972 48.5612 60.8975 48.5612C61.6654 48.5779 61.8156 48.7448 61.6821 49.5127C61.6487 49.6797 61.4317 49.8466 61.2647 49.9301C61.1312 49.9968 60.9309 49.9468 60.7639 49.9468C59.729 49.9468 59.6956 50.0135 59.3784 50.9817C59.1948 51.566 58.9444 52.1503 58.6272 52.6844C58.31 53.2353 58.3434 53.6526 58.8275 54.0533C58.9444 54.1534 59.0278 54.2703 59.1447 54.3538C59.562 54.6876 59.562 54.9881 59.1614 55.3887C58.7607 55.8061 58.4937 55.7059 58.1264 55.3387C57.2584 54.4539 57.2584 54.4706 56.1232 55.0382C55.6057 55.2886 55.0549 55.4889 54.4873 55.6391C53.9531 55.7894 53.7027 56.0732 53.7194 56.6073C53.7194 56.7743 53.7027 56.9412 53.7194 57.1081C53.7695 57.6256 53.6359 57.9261 53.0016 57.9094C52.434 57.9094 52.2671 57.659 52.2838 57.1248ZM52.3172 52.384C52.3172 50.2973 52.3172 48.194 52.3172 46.1073C53.6359 45.7568 54.9881 46.2743 55.756 47.4094C56.5406 48.5612 56.4905 50.097 55.6558 51.2154C54.8545 52.2671 53.4857 52.7512 52.3172 52.384ZM67.6415 49.5962C67.6081 49.9301 67.4412 50.2806 67.2242 50.5644C67.0906 50.748 66.7735 50.8315 66.5231 50.8649C65.9889 50.915 65.438 50.8816 64.9038 50.8816C64.4197 50.8816 64.1193 51.0652 64.0191 51.566C63.7186 52.9348 63.2011 54.2202 62.4333 55.4054C62.1662 55.8061 62.2162 56.19 62.5668 56.5239C62.934 56.8744 63.2679 57.225 63.6352 57.5755C64.2194 58.1598 64.2528 58.7607 63.6185 59.3283C63.2011 59.7123 62.9174 60.38 62.1662 60.2464C61.9158 60.1964 61.6487 60.1129 61.465 59.946C61.0477 59.5787 60.6638 59.1614 60.2631 58.7607C59.946 58.4436 59.5954 58.3935 59.1948 58.6439C58.0096 59.4118 56.7409 59.946 55.3553 60.2464C54.8379 60.3466 54.6208 60.6638 54.6542 61.1813C54.6709 61.632 54.6542 62.0994 54.6542 62.5501C54.6542 63.4515 54.2369 63.8689 53.3522 63.8856C53.0183 63.8856 52.7011 63.8856 52.3339 63.8856C52.3339 62.3498 52.3339 60.9142 52.3339 59.4118C52.6677 59.4118 52.9682 59.3951 53.2854 59.4118C53.853 59.4619 54.2703 59.2782 54.6709 58.8609C55.0382 58.477 55.3053 58.093 55.2218 57.5422C55.1717 57.1916 55.2719 56.9746 55.6725 56.8744C56.1232 56.7409 56.5573 56.5239 56.9913 56.3402C58.5104 57.8259 59.5286 57.3251 60.6304 56.0565C61.248 55.3387 61.0978 54.3371 60.1296 53.252C60.3299 52.7512 60.5135 52.217 60.7472 51.7162C60.814 51.5827 61.0477 51.4658 61.2146 51.4491C62.5501 51.3657 63.1844 50.6979 63.2011 49.3792C63.2178 48.6948 63.2345 48.0103 62.5668 47.6097C62.2329 47.4094 61.849 47.1757 61.4817 47.159C60.9809 47.1423 60.7472 46.9754 60.6137 46.4913C60.4968 46.0906 60.2965 45.7234 60.163 45.4229C60.4468 44.9221 60.814 44.5048 60.9476 44.0207C61.1646 43.2361 60.814 42.6185 60.2131 42.0509C59.6789 41.5501 59.1614 41.2162 58.4603 41.3832C58.0596 41.4833 57.6757 41.7003 57.3418 41.9507C57.0914 42.1344 56.9078 42.2512 56.6407 42.0509C56.5406 41.9841 56.4237 41.9173 56.3069 41.9006C55.5557 41.717 55.0716 41.3999 55.2051 40.4817C55.2719 39.9976 54.2536 39.1797 53.7361 39.1797C53.3021 39.163 52.8681 39.1797 52.384 39.1797C52.384 37.6773 52.384 36.2417 52.384 34.7059C53.0517 34.8227 53.8196 34.372 54.3871 35.0731C54.5541 35.2735 54.6709 35.5739 54.6876 35.8243C54.7377 36.3585 54.7043 36.9094 54.7043 37.4436C54.6876 37.911 54.9046 38.2115 55.3553 38.2949C56.7409 38.5787 58.0262 39.0962 59.2115 39.8641C59.5954 40.1145 59.946 40.0644 60.2798 39.7305C60.6304 39.38 60.9976 39.0461 61.3649 38.6956C61.9825 38.1113 62.6169 38.1113 63.1844 38.7289C63.5517 39.1296 64.2194 39.3967 64.0692 40.1145C64.0191 40.3816 63.9189 40.6654 63.752 40.8657C63.4015 41.283 63.0008 41.6503 62.6169 42.0175C62.2663 42.3514 62.2162 42.7353 62.4833 43.1359C63.2512 44.3212 63.7687 45.6065 64.0692 46.9754C64.1693 47.4595 64.4698 47.6765 64.9539 47.6765C65.221 47.6765 65.4881 47.6932 65.7719 47.6765C67.4078 47.5596 67.7918 47.9603 67.6415 49.5962Z" fill="white"/>
<path d="M15.7587 46.8085C18.7802 46.8085 21.8017 46.8085 24.8231 46.8085C25.7079 46.8085 25.9082 46.5915 25.9082 45.69C25.9082 44.9221 25.9082 44.1709 25.9082 43.3363C26.6594 43.3363 27.3104 43.3196 27.9781 43.353C28.1117 43.353 28.2953 43.4865 28.3454 43.5867C28.6959 44.4714 29.2969 45.0891 30.1816 45.4396C30.2985 45.4897 30.432 45.6733 30.432 45.7902C30.4654 46.3578 30.4487 46.942 30.4487 47.5597C29.13 47.5597 27.878 47.5597 26.6427 47.5597C25.8414 47.5597 25.591 47.8101 25.591 48.5946C25.591 50.698 25.591 52.8013 25.591 54.9047C25.591 55.756 25.808 55.973 26.6761 55.973C29.6808 55.973 32.6689 55.973 35.6737 55.973C36.5918 55.973 36.7921 55.7727 36.7921 54.8212C36.7921 52.8347 36.7921 50.8649 36.7921 48.8784C36.7921 47.7099 36.6419 47.5597 35.4567 47.5597C34.3049 47.5597 33.1363 47.5597 31.9344 47.5597C31.9344 46.9253 31.9177 46.3578 31.9511 45.8069C31.9678 45.6566 32.1514 45.473 32.3017 45.3895C33.0696 45.039 33.6371 44.4881 33.971 43.7035C34.0378 43.5533 34.188 43.353 34.3215 43.353C35.0227 43.3196 35.7238 43.3363 36.475 43.3363C36.475 44.221 36.475 45.039 36.475 45.857C36.475 46.5581 36.7087 46.8085 37.4098 46.8085C40.5147 46.8085 43.6196 46.8085 46.7246 46.8085C47.4257 46.8085 47.6761 46.5748 47.6761 45.8737C47.6928 43.7035 47.6928 41.5334 47.6761 39.38C47.6761 38.6455 47.4257 38.4118 46.6912 38.4118C43.6363 38.4118 40.5648 38.4118 37.5099 38.4118C36.7087 38.4118 36.4917 38.6455 36.4917 39.4635C36.4917 40.2481 36.4917 41.0326 36.4917 41.884C35.8072 41.884 35.1896 41.8673 34.5719 41.884C34.2548 41.9007 34.1045 41.7671 33.9877 41.4833C33.4702 40.2814 32.5354 39.6137 31.2166 39.6304C29.8979 39.6304 28.9797 40.2981 28.4456 41.5C28.3788 41.6503 28.2285 41.8506 28.095 41.8506C27.3939 41.884 26.6928 41.8673 25.9583 41.8673C25.9583 40.9992 25.9583 40.2314 25.9583 39.4635C25.9583 38.6121 25.7413 38.3951 24.8899 38.3784C21.8684 38.3784 18.847 38.3784 15.8255 38.3784C14.9742 38.3784 14.7572 38.5954 14.7572 39.4468C14.7572 41.5334 14.7572 43.6201 14.7572 45.69C14.7071 46.5915 14.9074 46.7918 15.7587 46.8085ZM37.9607 39.9142C40.6816 39.9142 43.4026 39.9142 46.1403 39.9142C46.1403 41.7004 46.1403 43.4698 46.1403 45.3061C43.4026 45.3061 40.6983 45.3061 37.9607 45.3061C37.9607 43.5199 37.9607 41.7337 37.9607 39.9142ZM35.2898 49.0787C35.2898 50.8983 35.2898 52.6678 35.2898 54.4706C32.5688 54.4706 29.8645 54.4706 27.1101 54.4706C27.1101 52.7012 27.1101 50.8983 27.1101 49.0787C29.7977 49.0787 32.5187 49.0787 35.2898 49.0787ZM31.1332 41.0827C31.9845 41.0493 32.6856 41.7504 32.6856 42.6018C32.6856 43.4364 32.0012 44.1209 31.1832 44.1209C30.3653 44.1209 29.6808 43.4531 29.6642 42.6185C29.6475 41.7838 30.2985 41.1161 31.1332 41.0827ZM16.2262 39.9142C18.9471 39.9142 21.6514 39.9142 24.4058 39.9142C24.4058 41.7171 24.4058 43.4865 24.4058 45.3061C21.6681 45.3061 18.9805 45.3061 16.2262 45.3061C16.2262 43.5199 16.2262 41.7337 16.2262 39.9142Z" fill="white"/>
<path d="M22.3025 34.6391C23.9218 34.9396 25.4742 34.1217 26.0752 32.5692C26.2254 32.1685 26.4258 32.0517 26.8431 32.0517C29.731 32.0684 32.6356 32.0016 35.5235 32.0851C37.7103 32.1519 39.0959 30.6161 39.0458 28.5628C38.979 25.2242 39.0291 21.9022 39.0291 18.5636C39.0291 18.3633 39.0458 18.1463 39.0625 17.779C39.8971 18.6304 40.5816 19.3482 41.2994 20.0493C41.7835 20.5334 42.2008 20.6002 42.5347 20.2162C42.9186 19.7655 42.7183 19.3816 42.351 19.031C41.2326 17.9126 40.1142 16.7941 38.9957 15.6757C38.4615 15.1415 38.1444 15.1415 37.6269 15.659C36.4917 16.7941 35.3566 17.9293 34.2215 19.0644C33.7541 19.5318 33.704 19.8991 34.0712 20.2496C34.5219 20.6503 34.9059 20.4666 35.2564 20.0994C35.9576 19.3649 36.6754 18.6304 37.3932 17.8959C37.4433 17.9126 37.51 17.946 37.5601 17.9627C37.5601 18.163 37.5601 18.3633 37.5601 18.5636C37.5601 21.9189 37.5601 25.2743 37.5601 28.6296C37.5601 30.0485 36.9758 30.6328 35.5402 30.6328C32.6523 30.6328 29.7477 30.6328 26.8598 30.6495C26.4591 30.6495 26.2421 30.5493 26.0919 30.1487C25.4909 28.5795 23.9051 27.7282 22.2692 28.0787C20.7501 28.3959 19.6149 29.7981 19.6149 31.3673C19.5816 32.9197 20.7668 34.3554 22.3025 34.6391ZM22.9703 29.4309C24.0052 29.4476 24.8566 30.3156 24.8399 31.3673C24.8232 32.4189 23.9385 33.2703 22.9035 33.2369C21.8852 33.2035 21.0506 32.3355 21.0506 31.3339C21.0506 30.3156 21.952 29.4309 22.9703 29.4309Z" fill="white"/>
<path d="M32.1357 28.5461C34.0053 28.5461 35.491 27.027 35.4743 25.1574C35.4576 23.3211 33.9719 21.8354 32.1357 21.8187C30.2828 21.802 28.7637 23.3211 28.7637 25.1908C28.7804 27.0604 30.2661 28.5461 32.1357 28.5461ZM32.119 23.2877C33.154 23.2877 34.0387 24.1558 34.0387 25.1908C34.0387 26.2257 33.1707 27.0938 32.119 27.0771C31.0673 27.0771 30.216 26.1924 30.2327 25.1574C30.2494 24.1391 31.1007 23.2877 32.119 23.2877Z" fill="white"/>
<path d="M22.4697 16.5437C22.9037 16.961 23.3544 17.3616 23.922 17.8958C23.3878 18.3799 22.9204 18.7639 22.4864 19.1812C22.1024 19.5318 22.019 19.9324 22.4029 20.3163C22.7702 20.6836 23.1541 20.5834 23.488 20.2329C23.9053 19.7988 24.3059 19.3481 24.7734 18.8473C25.3075 19.3982 25.7082 19.7988 26.1088 20.2329C26.4761 20.6001 26.86 20.7003 27.2439 20.2996C27.5945 19.9324 27.4943 19.5318 27.1438 19.1979C26.7098 18.7973 26.2423 18.3966 25.7416 17.9626C26.259 17.4451 26.6597 17.0612 27.0603 16.6772C27.4443 16.3267 27.6112 15.926 27.2272 15.492C26.9101 15.1248 26.4927 15.1915 26.042 15.6256C25.6414 16.0262 25.2408 16.4602 24.7734 16.9443C24.2892 16.4268 23.8886 15.9761 23.4713 15.5421C23.1374 15.1915 22.7368 15.1248 22.3862 15.492C22.0357 15.8259 22.1024 16.2098 22.4697 16.5437Z" fill="white"/>
</svg>
