<svg width="81" height="80" viewBox="0 0 81 80" fill="none" xmlns="http://www.w3.org/2000/svg">
<path d="M70.007 53.5913C70.007 49.9158 69.9571 46.2568 70.0237 42.5813C70.0403 41.2175 69.4748 40.336 68.3938 39.6707C67.2462 38.9722 65.9988 38.5398 64.7016 38.2404C59.5458 37.0762 54.3734 37.0762 49.201 38.0409C47.5545 38.3569 45.9412 38.8225 44.4943 39.7539C43.513 40.4025 42.9808 41.2507 42.9974 42.4981C43.0307 49.9158 43.0307 57.3501 42.9974 64.7677C42.9974 65.8654 43.3966 66.6803 44.2781 67.3123C45.2427 68.0109 46.3404 68.4599 47.488 68.7593C53.0928 70.2229 58.7142 70.2229 64.369 69.0587C65.9323 68.7427 67.4624 68.2437 68.7763 67.2957C69.5913 66.697 70.0237 65.9319 70.007 64.8675C69.9904 61.1088 70.007 57.3501 70.007 53.5913ZM45.0431 41.2341C46.2073 40.336 47.5877 39.9535 48.9848 39.6375C51.4629 39.0554 53.9743 38.8558 56.5022 38.8724C59.6622 38.8891 62.789 39.1552 65.8159 40.1531C66.5976 40.4192 67.3626 40.7352 68.0113 41.2674C68.6433 41.7996 68.6433 42.1987 68.0113 42.7309C67.2296 43.3796 66.2982 43.7288 65.3336 43.9949C61.6248 45.076 57.8328 45.2589 54.0075 45.0427C51.7124 44.9097 49.4338 44.5937 47.2385 43.8619C46.4568 43.5958 45.6751 43.2798 45.0265 42.7476C44.3779 42.1821 44.3612 41.7663 45.0431 41.2341ZM44.5109 44.7267C44.5109 44.444 44.4943 44.2112 44.9101 44.444C47.0056 45.5916 49.3008 46.0406 51.6292 46.3067C55.8204 46.8057 59.9949 46.7225 64.1361 45.841C65.633 45.525 67.0965 45.0594 68.5102 44.2278C68.5102 46.1071 68.5102 47.8368 68.5102 49.5831C68.5102 50.1153 68.1443 50.3981 67.7618 50.6476C66.5976 51.4126 65.3003 51.8118 63.9532 52.0945C58.5978 53.1755 53.2425 53.1755 47.937 51.7951C47.0056 51.5623 46.1242 51.1964 45.3092 50.6808C44.7604 50.3316 44.4777 49.8825 44.4943 49.184C44.5442 47.7204 44.5109 46.2236 44.5109 44.7267ZM67.6786 66.2479C66.714 66.8799 65.6329 67.2292 64.5186 67.4953C60.6102 68.4433 56.6519 68.5597 52.6604 68.1938C50.6147 67.9942 48.6023 67.6616 46.673 66.8966C46.4568 66.8134 46.2572 66.7136 46.041 66.6304C44.96 66.1814 44.3945 65.4829 44.4943 64.1856C44.6107 62.7553 44.5276 61.3084 44.5276 59.8115C48.3694 61.774 52.4442 62.1233 56.5521 62.1067C60.6435 62.1067 64.7016 61.7574 68.5102 59.7949C68.5102 61.6077 68.5102 63.354 68.5102 65.1003C68.5102 65.6824 68.0778 65.9652 67.6786 66.2479ZM68.5102 57.4498C68.5102 57.9654 68.0778 58.2315 67.6953 58.481C66.6142 59.1795 65.4167 59.5621 64.1694 59.8282C58.7142 60.9757 53.2591 60.9757 47.8539 59.562C46.9059 59.3126 46.0078 58.9467 45.1928 58.3812C44.7438 58.0652 44.4943 57.6661 44.5109 57.084C44.5442 55.5539 44.5276 54.0071 44.5276 52.477C44.5276 52.2275 44.5109 51.9947 44.8934 52.2109C46.8892 53.3252 49.0846 53.7743 51.2966 54.057C55.6374 54.6059 59.9782 54.5393 64.2858 53.608C65.7327 53.292 67.1298 52.8595 68.5102 52.028C68.5102 53.8907 68.5268 55.6703 68.5102 57.4498Z" fill="white"/>
<path d="M36.3942 41.6831C36.3942 33.4671 36.3942 25.2511 36.4109 17.0351C36.4109 16.5362 36.2445 16.1703 35.8953 15.8377C34.1157 14.0747 32.3361 12.2952 30.5732 10.5156C30.2073 10.1497 29.8248 10 29.3092 10C23.272 10 17.2347 10 11.1975 10C10.1829 10 10 10.1663 10 11.1808C10 16.2368 10 21.3094 10 26.3654C10 31.4713 10 36.5772 10 41.6831C10 42.5812 10.1996 42.7807 11.0977 42.7807C19.164 42.7807 27.2303 42.7807 35.3132 42.7807C36.2113 42.7807 36.3942 42.5812 36.3942 41.6831ZM30.49 12.8606C31.4879 13.8585 32.5191 14.9063 33.517 15.9042C32.7187 15.9042 31.7873 15.9042 30.8559 15.9042C30.5898 15.9042 30.49 15.8044 30.49 15.5383C30.5067 14.6236 30.49 13.6922 30.49 12.8606ZM34.914 40.7683C34.914 41.1841 34.781 41.2839 34.3818 41.2839C26.9309 41.2673 19.4966 41.2673 12.0457 41.2839C11.5301 41.2839 11.4968 41.0843 11.4968 40.6685C11.5135 35.8953 11.4968 31.122 11.4968 26.3488C11.4968 21.6088 11.4968 16.8688 11.4802 12.1122C11.4802 11.5966 11.6299 11.4802 12.1288 11.4802C17.5174 11.4968 22.9227 11.4968 28.3113 11.4802C28.91 11.4802 29.0265 11.6798 29.0098 12.212C28.9766 13.609 28.9932 14.9895 28.9932 16.3865C28.9932 17.2014 29.2094 17.4177 30.041 17.4177C31.4713 17.4343 32.9016 17.4343 34.3319 17.4177C34.7477 17.4177 34.914 17.5008 34.914 17.9499C34.8974 25.5505 34.8974 33.1677 34.914 40.7683Z" fill="white"/>
<path d="M43.8456 14.374C44.3778 14.4405 44.91 14.4904 45.4422 14.5902C53.8411 15.954 59.9781 20.3613 63.7036 28.0617C63.9032 28.4775 64.0695 28.9099 64.2691 29.359C64.1693 29.359 64.136 29.359 64.1194 29.359C63.371 29.0097 62.6226 28.6605 61.8741 28.3112C61.2754 28.0285 60.843 28.1283 60.66 28.5939C60.4438 29.1594 60.7598 29.4422 61.2255 29.6584C62.5228 30.2737 63.8034 30.8891 65.1007 31.4878C65.7659 31.8038 66.0819 31.6874 66.3979 31.0222C67.0133 29.7415 67.6286 28.4443 68.244 27.147C68.4602 26.6813 68.5101 26.2489 68.0112 25.9662C67.5954 25.7167 67.1796 25.9495 66.8969 26.515C66.5143 27.2967 66.1484 28.0784 65.7493 28.9266C65.2836 27.8455 64.8512 26.8643 64.319 25.9329C59.8285 18.0662 52.9763 13.875 44.0618 12.9104C43.5961 12.8605 43.2136 13.0102 43.147 13.5258C43.0306 14.0414 43.3134 14.3241 43.8456 14.374Z" fill="white"/>
<path d="M36.0942 68.4931C35.4789 68.4266 34.8635 68.3601 34.2481 68.2603C27.4126 67.0961 21.9408 63.7698 18.049 57.982C17.1343 56.6016 16.3693 55.1547 15.7206 53.4583C16.652 53.8907 17.4337 54.2732 18.232 54.6391C18.681 54.8553 19.0968 54.8054 19.3297 54.3231C19.5459 53.8574 19.3297 53.5248 18.8972 53.3086C17.5335 52.6599 16.1697 52.0113 14.8059 51.3627C14.3069 51.1298 13.9078 51.2463 13.6749 51.7618C13.0097 53.1423 12.3611 54.5227 11.7124 55.9197C11.5461 56.2856 11.596 56.6182 11.912 56.8677C12.3112 57.1837 12.8101 57.0507 13.0762 56.5185C13.4754 55.7035 13.8579 54.8886 14.2737 54.0237C14.7061 54.9218 15.0886 55.7368 15.4878 56.5517C15.9036 57.3833 16.3859 58.1816 16.9181 58.9467C21.525 65.6159 27.9448 69.1418 35.9279 69.99C36.5267 70.0565 36.8926 69.7904 36.9092 69.3081C36.9258 68.7593 36.5932 68.543 36.0942 68.4931Z" fill="white"/>
<path d="M61.9067 56.3355C61.2414 56.4187 60.5928 56.4852 59.9275 56.5684C58.8298 56.7014 57.7321 56.6848 56.6345 56.718C56.1355 56.7347 55.7696 56.9509 55.8029 57.4997C55.8195 58.0153 56.1688 58.1983 56.6511 58.1983C57.0835 58.1983 57.5159 58.1983 57.7488 58.1983C59.3454 58.1317 60.7258 58.0319 62.1062 57.8157C62.7216 57.7159 63.0043 57.4332 62.9378 56.9509C62.8713 56.4852 62.5054 56.269 61.9067 56.3355Z" fill="white"/>
<path d="M65.6822 55.5372C65.2332 55.6204 64.8008 55.7368 64.385 55.9031C64.0357 56.0528 63.9359 56.3854 64.0357 56.7347C64.1355 57.1006 64.4016 57.2669 64.8506 57.2835C65.2165 57.1671 65.6656 57.0673 66.0814 56.8844C66.414 56.7513 66.5803 56.4353 66.4805 56.0694C66.3641 55.7035 66.0814 55.4707 65.6822 55.5372Z" fill="white"/>
<path d="M61.9407 64.2854C60.1612 64.5182 58.3982 64.6513 56.602 64.6513C56.1197 64.6513 55.8037 64.8841 55.8037 65.3997C55.8037 65.9152 56.1363 66.1315 56.6187 66.1315C57.1841 66.1315 57.733 66.1315 58.2984 66.1315C59.5624 66.0317 60.8264 65.9319 62.0738 65.7656C62.5894 65.699 62.9719 65.5161 62.9386 64.9174C62.9054 64.4517 62.5561 64.2022 61.9407 64.2854Z" fill="white"/>
<path d="M64.8174 63.6866C64.4017 63.7697 64.0191 63.936 64.0025 64.4682C63.9859 64.9173 64.3518 65.2832 64.8008 65.2167C65.2499 65.1335 65.6989 65.0171 66.0981 64.8341C66.5139 64.6512 66.6303 64.1356 66.3642 63.7863C65.8819 63.171 65.333 63.5701 64.8174 63.6866Z" fill="white"/>
<path d="M56.6187 50.2649C57.1176 50.2815 57.6165 50.2649 58.1155 50.2649C59.5125 50.1817 60.893 50.0653 62.2567 49.8491C62.7557 49.7659 63.0052 49.4666 62.922 48.9842C62.8388 48.5019 62.4896 48.319 62.0572 48.3855C60.2443 48.6516 58.4315 48.7348 56.602 48.7847C56.1197 48.8013 55.8037 49.0175 55.8037 49.5331C55.8037 50.0653 56.153 50.2649 56.6187 50.2649Z" fill="white"/>
<path d="M64.9005 49.3501C65.2165 49.2504 65.6656 49.1506 66.0814 48.9676C66.414 48.8346 66.5637 48.5186 66.4639 48.1527C66.3641 47.7701 66.0814 47.5373 65.6822 47.6038C65.2332 47.687 64.8008 47.8034 64.385 47.9864C64.0357 48.136 63.9359 48.4687 64.0357 48.8179C64.1189 49.1838 64.385 49.3501 64.9005 49.3501Z" fill="white"/>
<path d="M31.654 31.2884C31.4877 31.2551 31.3214 31.2717 31.1551 31.2717C28.5439 31.2717 25.9328 31.2717 23.3216 31.2717C20.7271 31.2717 18.1326 31.2717 15.5381 31.2717C15.3717 31.2717 15.2054 31.2551 15.0391 31.2884C14.64 31.3549 14.3905 31.6044 14.3905 32.0035C14.3739 32.4027 14.6067 32.6688 15.0058 32.7519C15.1888 32.7852 15.3717 32.7686 15.5713 32.7686C20.7604 32.7686 25.9494 32.7686 31.1218 32.7686C31.3047 32.7686 31.5043 32.7852 31.6873 32.7519C32.0698 32.6688 32.3193 32.4359 32.3026 32.0202C32.286 31.6044 32.0532 31.3715 31.654 31.2884Z" fill="white"/>
<path d="M31.7377 36.1946C31.5381 36.1447 31.3219 36.1614 31.1223 36.1614C25.9333 36.1614 20.7443 36.1614 15.5719 36.1614C15.3723 36.1614 15.1561 36.1614 14.9565 36.2112C14.5906 36.311 14.3744 36.5771 14.4077 36.943C14.4243 37.3256 14.6571 37.5917 15.0729 37.6416C15.2559 37.6582 15.4388 37.6582 15.6384 37.6582C18.183 37.6582 20.7443 37.6582 23.2889 37.6582C25.8834 37.6582 28.4779 37.6582 31.0724 37.6582C31.272 37.6582 31.4882 37.6748 31.6878 37.6416C32.0537 37.5917 32.2865 37.3755 32.3198 36.9929C32.3364 36.5771 32.1202 36.2944 31.7377 36.1946Z" fill="white"/>
<path d="M14.8898 27.8124C15.106 27.8789 15.3389 27.8789 15.5717 27.8789C18.1662 27.8789 20.7608 27.8789 23.3553 27.8789C25.9498 27.8789 28.5443 27.8789 31.1388 27.8789C31.3384 27.8789 31.5546 27.8955 31.7542 27.8456C32.1533 27.7458 32.3529 27.4797 32.3197 27.0639C32.2864 26.6814 32.0536 26.4652 31.6877 26.4153C31.5047 26.3987 31.3218 26.3987 31.1222 26.3987C25.9664 26.3987 20.794 26.3987 15.6382 26.3987C15.4387 26.3987 15.2225 26.3987 15.0229 26.4319C14.6403 26.4985 14.4408 26.7646 14.4241 27.1305C14.3742 27.4465 14.5572 27.7292 14.8898 27.8124Z" fill="white"/>
<path d="M14.9235 21.5424C14.5576 21.6255 14.358 21.9083 14.3913 22.2742C14.4079 22.6401 14.6241 22.8895 15.0067 22.9394C15.2062 22.9727 15.4224 22.9561 15.622 22.9561C18.1999 22.9561 20.7612 22.9561 23.339 22.9561C25.102 22.9561 26.8649 22.9561 28.6279 22.9561C29.5759 22.9561 30.5405 22.9561 31.4885 22.9561C31.9375 22.9561 32.2535 22.7565 32.2868 22.2742C32.3201 21.7586 32.0041 21.5258 31.5218 21.4759C31.3721 21.4592 31.239 21.4592 31.0893 21.4592C25.9336 21.4592 20.7612 21.4592 15.6054 21.4592C15.3725 21.4925 15.1397 21.4925 14.9235 21.5424Z" fill="white"/>
<path d="M15.3556 18.0996C17.0686 18.083 18.7983 18.0996 20.5113 18.0996C22.2577 18.0996 23.9873 18.0996 25.7336 18.0996C26.2492 18.0996 26.6484 17.9832 26.7149 17.4011C26.7648 16.9188 26.3989 16.6194 25.7503 16.6194C22.2909 16.6194 18.8316 16.6194 15.3556 16.6194C14.7236 16.6194 14.3244 16.9354 14.3743 17.4011C14.4408 17.9499 14.84 18.0996 15.3556 18.0996Z" fill="white"/>
</svg>
