<svg height="24" width="48" xmlns="http://www.w3.org/2000/svg">
  <path d="
    M 48 24
    V 0
    C 48 0 34 0 24 12
    C 14 24 0 24 0 24
    H 48
    Z"
  style="fill:red;" />
</svg>

<svg width="48" height="24" viewBox="0 0 48 24" fill="none" xmlns="http://www.w3.org/2000/svg">
  <g clip-path="url(#clip0_477_51)">
    <path d="
      M 48.9999 2
      V 1 
      H 47.9999 
      V 2 
      C 47.9999 1 47.9994 1 47.9988 1
      L 47.9975 1
      L 47.9941 1.00001
      L 47.9839 1.00007
      L 47.9505 1.00044
      C 47.9225 1.00085 47.8831 1.00163 47.8326 1.00312
      C 47.7316 1.00611 47.5864 1.01194 47.3998 1.02335
      C 47.0267 1.04615 46.488 1.09122 45.8075 1.18034
      C 44.4467 1.35854 42.5168 1.71307 40.2077 2.41865
      C 35.5873 3.83042 29.45 6.6475 23.3242 12.2628
      C 17.4501 17.6475 11.5874 20.3304 7.20777 21.6686
      C 5.01693 22.3381 3.19686 22.671 1.93266 22.8366
      C 1.30068 22.9193 0.808068 22.9602 0.478065 22.9804
      C 0.313082 22.9905 0.188803 22.9954 0.108138 22.9978
      C 0.0678081 22.9989 0.0383878 22.9995 0.0202413 22.9998
      L 0.00152563 23
      L 0 23
      H -0.000758817
      C -0.000402252 23 0 23 0 24
      V 25H0.0010333
      L 0.00234247 25
      L 47.9999 25
      H 48.9999
      V 24
      V 2
      Z" 
      fill="#D9D9D9" stroke="black" stroke-width="2"/>
  </g>
  <defs>
    <clipPath id="clip0_477_51">
    <rect width="48" height="24" fill="white"/>
    </clipPath>
  </defs>
</svg>


<svg width="48" height="24" viewBox="0 0 48 24" fill="none" xmlns="http://www.w3.org/2000/svg">
<g opacity="0.25" clip-path="url(#clip0_476_39)">
<path d="M24 13C12 24 0 24 0 24H48V2C48 2 36 2 24 13Z" fill="#DD9E9E"/>
<path d="M0 23C0 23 12 23 24 12C36 0.999977 48 1 48 1" stroke="#0000FF" stroke-width="2"/>
</g>
<defs>
<clipPath id="clip0_476_39">
<rect width="48" height="24" fill="white"/>
</clipPath>
</defs>
</svg>
