<svg width="65" height="89" viewBox="0 0 65 89" fill="none" xmlns="http://www.w3.org/2000/svg">
<g clip-path="url(#clip0_155_33)">
<path d="M46.0772 47.5208C31.9825 47.5208 17.9236 47.5208 3.82883 47.5208C3.78101 46.6736 3.73319 45.897 3.69733 45.1204C3.55387 41.814 3.42237 38.5076 3.27891 35.2129C3.255 34.6481 3.1235 34.2246 2.63335 33.8127C1.34223 32.7067 0.828169 31.177 0.636891 29.5532C0.38584 27.3882 0.70862 25.329 2.08343 23.5405C2.69312 22.7286 3.4941 22.1991 4.53417 21.9991C4.76131 21.952 5.04823 21.7167 5.14387 21.4931C7.29574 16.563 10.8702 13.1036 16.0347 11.3033C18.079 10.5855 20.207 10.1972 22.3708 10.056C22.586 10.0443 22.8012 10.0325 23.0283 9.99721C23.1239 9.98545 23.2076 9.93838 23.3511 9.89132C23.3511 9.20886 23.375 8.51463 23.3272 7.84394C23.3152 7.70274 23.0522 7.5027 22.8609 7.45564C20.3624 6.79671 19.2028 4.0551 20.5178 1.90182C21.3785 0.489837 23.0283 -0.180857 24.6781 0.195673C26.1605 0.536903 27.3918 1.92536 27.4994 3.39618C27.6309 5.18469 26.7463 6.69081 25.1443 7.26737C24.6183 7.45564 24.4868 7.70274 24.5227 8.19693C24.5585 8.73819 24.5346 9.29122 24.5346 9.87955C25.5149 9.92662 26.4354 9.96192 27.356 10.0325C36.6688 10.7267 43.1005 15.2804 46.4359 23.9288C47.6672 27.1411 48.2889 30.4828 48.2291 33.9186C48.1693 37.8369 48.1932 41.7552 47.9422 45.6499C47.6194 50.7448 47.1173 55.828 46.5793 60.8993C46.149 64.9235 45.4795 68.9241 45.073 72.9483C44.8339 75.3134 44.4155 77.5961 43.3635 79.7258C41.1997 84.1265 37.6013 86.8446 32.8432 88.0213C27.2962 89.3862 21.785 89.245 16.4412 87.0682C13.8948 86.0327 11.7788 84.3972 10.0812 82.2674C9.75843 81.8673 9.47152 81.6908 8.90964 81.7497C4.91672 82.138 2.94418 80.1965 1.44982 77.0548C0.517343 75.0898 0.206517 72.9836 0.206517 70.8303C0.206517 65.6177 0.278246 60.4051 0.170653 55.2043C0.110878 52.3097 2.25079 49.1563 6.29153 49.2034C9.13678 49.2269 11.9701 49.3093 14.8153 49.3093C24.9172 49.321 35.0071 49.3093 45.1089 49.3093C45.9935 49.3093 45.9935 49.3093 46.0414 48.4268C46.0294 48.1679 46.0533 47.8738 46.0772 47.5208ZM45.8381 51.0037C35.282 51.0037 24.8335 51.0037 14.3491 51.0037C15.7956 53.204 15.8315 53.3452 15.8315 55.9927C15.8315 60.4757 15.8076 64.9588 15.8434 69.4419C15.8554 71.1127 15.7239 72.76 15.3174 74.3838C14.7556 76.6077 13.9546 78.7257 12.1972 80.3377C11.8983 80.6083 11.5756 80.8554 11.2408 81.1378C13.058 83.4088 15.3174 85.0208 18.0312 85.9739C22.9207 87.68 27.8939 87.7271 32.8552 86.3857C36.9676 85.2796 40.0639 82.8557 41.9289 79.0081C42.8614 77.0784 43.2798 75.031 43.4711 72.9012C43.7341 69.9361 44.1405 66.9944 44.4753 64.041C44.822 61.0052 45.1806 57.9812 45.5034 54.9455C45.6349 53.6511 45.7186 52.3451 45.8381 51.0037ZM46.3881 41.7199C46.0175 41.7199 45.7664 41.7199 45.5034 41.7199C40.2194 41.7199 34.9353 41.7316 29.6513 41.7199C27.5114 41.7199 25.4432 41.2963 23.638 40.1314C18.7604 37.0132 16.501 32.4478 16.6086 26.8234C16.6803 22.7639 19.5255 20.2577 23.5543 20.2577C29.7111 20.2694 35.8798 20.2812 42.0365 20.293C42.2636 20.293 42.4908 20.293 42.7299 20.293C42.706 20.1635 42.706 20.1165 42.694 20.0929C42.6223 19.9753 42.5506 19.8576 42.4669 19.7517C40.2313 16.4571 37.2187 14.092 33.3931 12.8565C27.9178 11.0797 22.3827 11.0444 16.8835 12.7153C12.9504 13.9155 9.9258 16.3159 7.8337 19.8223C7.41528 20.5165 7.08055 21.2578 6.69799 21.9756C6.88927 22.0344 6.98491 22.0109 7.05664 21.9756C8.69445 21.199 10.129 21.4225 11.3843 22.7169C12.6156 23.9759 13.0699 25.5526 13.2134 27.247C13.3329 28.7649 13.1177 30.2122 12.4722 31.5888C11.8147 33.0126 10.7865 34.0363 9.12483 34.4717C9.23242 34.6246 9.38783 34.6834 9.49543 34.7893C11.0496 36.1896 12.6037 37.5898 14.1339 39.0018C14.4447 39.2842 14.6838 39.3548 15.1022 39.1547C15.8674 38.79 16.6564 38.8841 17.3378 39.4254C17.9595 39.9196 18.2105 40.5785 18.1149 41.3551C17.9714 42.4258 17.1107 43.1671 16.0467 43.1907C14.9468 43.2142 14.098 42.5082 13.8709 41.4139C13.8111 41.1433 13.7274 40.8256 13.5362 40.6491C11.3604 38.6488 9.16069 36.672 6.961 34.6952C6.85341 34.5893 6.63822 34.5187 6.50672 34.5423C5.96875 34.6482 5.44274 34.8129 4.89281 34.9541C5.03627 38.3428 5.16778 41.7434 5.31123 45.1439C5.3471 45.9323 5.3471 45.9323 6.14807 45.9323C19.2267 45.9323 32.3053 45.9323 45.3719 45.9323C45.5273 45.9323 45.7066 45.9676 45.8501 45.9205C45.9816 45.8734 46.1848 45.744 46.1968 45.6381C46.2805 44.332 46.3283 43.073 46.3881 41.7199ZM33.1421 21.8814C33.1421 21.8697 33.1421 21.8697 33.1421 21.8579C29.986 21.8579 26.818 21.8697 23.6619 21.8579C20.3982 21.8461 18.3301 23.7876 18.1985 27.0117C18.067 30.2004 19.1908 33.0126 20.996 35.5659C23.1 38.5429 26.017 40.1078 29.735 40.1078C35.0668 40.1196 40.3867 40.1078 45.7186 40.1196C46.3163 40.1196 46.5076 39.9666 46.5076 39.3665C46.5076 37.7428 46.5435 36.119 46.6032 34.4952C46.7347 30.271 45.8381 26.2704 44.0569 22.4345C43.8536 21.9873 43.5906 21.8579 43.1124 21.8579C39.777 21.8932 36.4536 21.8814 33.1421 21.8814ZM14.2654 62.7467C14.2654 60.2169 14.2535 57.6988 14.2654 55.169C14.2774 52.7333 12.3407 50.7213 9.97362 50.9331C8.99332 51.0154 7.98912 50.9566 6.99687 50.9448C6.54258 50.9331 6.0883 50.8154 5.64597 50.8625C3.255 51.1331 1.7726 52.7804 1.7726 55.2632C1.76065 60.6287 1.79651 65.9943 1.83238 71.3598C1.84433 73.2189 2.23884 75.0192 3.06372 76.6901C3.36259 77.3019 3.73319 77.8902 4.16357 78.4197C5.108 79.5964 6.30348 80.2318 7.91739 80.22C9.34001 80.2083 10.5475 79.9023 11.4799 78.8198C11.7788 78.4786 12.0538 78.1138 12.2809 77.7373C13.6557 75.431 14.1698 72.8895 14.2535 70.2655C14.3252 67.7592 14.2654 65.253 14.2654 62.7467ZM7.97716 28.9414C7.91739 27.1293 7.67829 25.8703 6.92514 24.7642C5.8492 23.164 4.25921 23.164 3.19523 24.7525C2.22688 26.1998 2.04756 27.8118 2.25079 29.4826C2.39425 30.5887 2.76485 31.6124 3.51801 32.4596C4.41462 33.4597 5.58619 33.4833 6.50672 32.5066C6.78168 32.2125 7.06859 31.8712 7.2001 31.4947C7.55874 30.4946 7.82175 29.4826 7.97716 28.9414ZM23.7456 1.30173C22.3349 1.3135 21.1634 2.45485 21.1753 3.84331C21.1873 5.20823 22.3708 6.37312 23.7695 6.38488C25.1443 6.39665 26.3398 5.19646 26.3278 3.81977C26.3278 2.41955 25.1682 1.28996 23.7456 1.30173ZM8.49122 32.7184C9.44761 32.8126 10.0573 32.3419 10.5235 31.6712C11.6473 30.0592 11.8386 28.2707 11.468 26.3998C11.2767 25.4232 10.9061 24.5171 10.2008 23.7876C9.49543 23.0581 8.70641 22.9169 7.96521 23.3523C9.98558 26.341 10.0214 29.4473 8.49122 32.7184Z" fill="black"/>
<path d="M45.84 51.0022C45.7324 52.3554 45.6487 53.6614 45.5052 54.9558C45.1825 57.9915 44.8238 61.0155 44.4771 64.0513C44.1424 67.0047 43.7359 69.9464 43.4729 72.9115C43.2816 75.0413 42.8632 77.0887 41.9308 79.0184C40.0658 82.8543 36.9695 85.29 32.857 86.396C27.8958 87.7374 22.9226 87.6903 18.033 85.9842C15.3193 85.0429 13.0598 83.4308 11.2427 81.1481C11.5774 80.8657 11.9002 80.6186 12.1991 80.348C13.9564 78.7242 14.7694 76.618 15.3193 74.3941C15.7257 72.7703 15.8572 71.123 15.8453 69.4522C15.8214 64.9691 15.8333 60.486 15.8333 56.003C15.8333 53.3555 15.7855 53.2143 14.3509 51.014C24.8353 51.0022 35.2839 51.0022 45.84 51.0022Z" fill="#4949FC"/>
<path d="M46.3898 41.7183C46.33 43.0714 46.2822 44.3305 46.1985 45.6012C46.1866 45.7071 45.9833 45.8366 45.8518 45.8836C45.7084 45.9307 45.541 45.8954 45.3737 45.8954C32.295 45.8954 19.2164 45.8954 6.14979 45.8954C5.34882 45.8954 5.34882 45.8954 5.31295 45.107C5.16949 41.7065 5.02603 38.306 4.89453 34.9172C5.44445 34.776 5.97047 34.6113 6.50844 34.5054C6.65189 34.4818 6.85513 34.5642 6.96272 34.6583C9.16241 36.6351 11.3621 38.6119 13.5379 40.6122C13.7292 40.7887 13.8128 41.1064 13.8726 41.377C14.0998 42.4713 14.9486 43.1773 16.0484 43.1538C17.1124 43.1303 17.9612 42.389 18.1166 41.3182C18.2242 40.5534 17.9731 39.8827 17.3395 39.3885C16.6581 38.8472 15.8691 38.7531 15.104 39.1179C14.6856 39.3179 14.4465 39.2473 14.1356 38.9649C12.5935 37.5529 11.0393 36.1527 9.49715 34.7525C9.3776 34.6466 9.22219 34.5877 9.12655 34.4348C10.8002 33.9994 11.8164 32.9757 12.4739 31.552C13.1195 30.1753 13.3347 28.728 13.2151 27.2101C13.0716 25.504 12.6174 23.939 11.386 22.68C10.1308 21.3857 8.68422 21.1621 7.05836 21.9387C6.97468 21.974 6.89099 21.9975 6.69971 21.9387C7.07031 21.2209 7.417 20.4796 7.83542 19.7854C9.92752 16.279 12.9521 13.8786 16.8852 12.6784C22.3964 11.0076 27.9315 11.0429 33.3949 12.8196C37.2204 14.0551 40.2211 16.4202 42.4686 19.7148C42.5403 19.8325 42.624 19.9384 42.6958 20.0561C42.7077 20.0914 42.7077 20.1266 42.7316 20.2561C42.4925 20.2561 42.2654 20.2561 42.0382 20.2561C35.8815 20.2443 29.7128 20.2325 23.5561 20.2208C19.5392 20.209 16.694 22.7271 16.6103 26.7865C16.5027 32.3992 18.7502 36.9764 23.6397 40.0945C25.4569 41.2476 27.5131 41.6712 29.653 41.683C34.9371 41.6947 40.2211 41.683 45.5052 41.683C45.7682 41.7183 46.0312 41.7183 46.3898 41.7183Z" fill="white"/>
<path d="M33.1442 21.8799C36.4676 21.8799 39.7791 21.8917 43.1025 21.8681C43.5807 21.8681 43.8437 21.9858 44.047 22.4447C45.8282 26.2806 46.7249 30.2812 46.5934 34.5054C46.5455 36.1292 46.4977 37.753 46.4977 39.3768C46.4977 39.9769 46.3064 40.1298 45.7087 40.1298C40.3768 40.1063 35.0569 40.1298 29.7251 40.1181C26.0191 40.1063 23.0901 38.5531 20.9861 35.5762C19.1809 33.0228 18.0571 30.2106 18.1886 27.0219C18.3201 23.7978 20.4003 21.8446 23.652 21.8681C26.8081 21.8799 29.9761 21.8681 33.1322 21.8681C33.1442 21.8681 33.1442 21.8681 33.1442 21.8799ZM34.4233 30.5518C34.244 28.6339 33.6941 26.9866 31.8889 26.1159C30.3348 25.3746 28.7567 25.5275 27.4178 26.6101C26.1864 27.6102 25.8039 28.9987 25.8876 30.5401C28.7448 30.5518 31.5422 30.5518 34.4233 30.5518ZM37.2088 30.5283C39.6356 30.5283 42.0146 30.5283 44.3937 30.5283C44.5371 27.8926 42.8037 25.8452 40.5562 25.9276C38.4282 25.9982 36.9219 28.0456 37.2088 30.5283ZM30.801 34.4348C33.2039 36.6587 37.3164 37.0587 39.4204 34.376C39.1574 34.1289 38.8825 33.8818 38.6075 33.6229C36.2285 35.8703 33.8973 35.2232 31.5542 33.5994C31.2792 33.9053 31.0401 34.1759 30.801 34.4348Z" fill="white"/>
<path d="M14.2671 62.7451C14.2671 65.2514 14.3269 67.7577 14.2552 70.264C14.1715 72.8879 13.6574 75.4295 12.2826 77.7357C12.0555 78.124 11.7686 78.477 11.4816 78.8182C10.5492 79.9008 9.34173 80.2067 7.91911 80.2185C6.3052 80.2302 5.12167 79.5948 4.16529 78.4182C3.73491 77.8887 3.36431 77.2886 3.06544 76.6885C2.24056 75.0059 1.84605 73.2174 1.83409 71.3582C1.79823 65.9927 1.76236 60.6272 1.77432 55.2616C1.77432 52.7789 3.25672 51.1315 5.64769 50.8609C6.09002 50.8138 6.5443 50.9315 6.99858 50.9433C7.99084 50.955 8.99504 51.0139 9.97534 50.9315C12.3544 50.7197 14.2791 52.7318 14.2671 55.1675C14.2552 57.6855 14.2671 60.2153 14.2671 62.7451Z" fill="#4949FC"/>
<path d="M7.97893 28.9399C7.82351 29.4811 7.56051 30.5048 7.22577 31.4815C7.09427 31.858 6.80735 32.1874 6.53239 32.4934C5.61187 33.47 4.44029 33.4582 3.54368 32.4463C2.79052 31.5991 2.40797 30.5754 2.27647 29.4694C2.06128 27.7985 2.2406 26.1865 3.2209 24.7392C4.28488 23.1507 5.87487 23.1507 6.95081 24.751C7.68005 25.8688 7.91915 27.1278 7.97893 28.9399Z" fill="#7D7DFF"/>
<path d="M23.7476 1.30026C25.1703 1.2885 26.3299 2.41809 26.3299 3.81831C26.3299 5.19499 25.1344 6.39518 23.7715 6.38342C22.3728 6.37165 21.1893 5.20676 21.1773 3.84184C21.1654 2.45338 22.337 1.30026 23.7476 1.30026Z" fill="#4949FC"/>
<path d="M8.49306 32.717C10.0233 29.4341 9.98742 26.3395 7.979 23.3508C8.7202 22.9154 9.50922 23.0566 10.2146 23.7861C10.9199 24.5157 11.2905 25.4217 11.4818 26.3983C11.8524 28.2692 11.6611 30.0695 10.5373 31.6697C10.0591 32.3404 9.44945 32.8111 8.49306 32.717Z" fill="#7D7DFF"/>
<path d="M34.4235 30.5518C31.5543 30.5518 28.7569 30.5518 25.8877 30.5518C25.7921 28.9986 26.1866 27.6219 27.4179 26.6218C28.7569 25.5275 30.3349 25.3745 31.889 26.1276C33.6823 26.9865 34.2441 28.6339 34.4235 30.5518Z" fill="black"/>
<path d="M37.2086 30.5284C36.9217 28.0457 38.428 25.9983 40.556 25.9277C42.8155 25.8453 44.537 27.8927 44.3935 30.5284C42.0145 30.5284 39.6355 30.5284 37.2086 30.5284Z" fill="black"/>
<path d="M30.8008 34.4349C31.0399 34.1642 31.2909 33.8936 31.5539 33.6112C33.8971 35.235 36.2402 35.8822 38.6073 33.6347C38.8823 33.8936 39.1572 34.1407 39.4202 34.3878C37.3162 37.0588 33.2037 36.6587 30.8008 34.4349Z" fill="black"/>
</g>
<path d="M32.5556 30.4054C30.8051 30.4054 29.0875 30.4054 27.337 30.4054C27.2874 29.4184 27.5186 28.5335 28.2618 27.8868C29.0875 27.1891 30.0454 27.087 30.9867 27.5635C32.1097 28.1251 32.44 29.1802 32.5556 30.4054Z" fill="#4949FC"/>
<path d="M38.844 30.4054C38.6877 28.7209 39.5473 27.3263 40.7821 27.2719C42.0793 27.2176 43.0796 28.6123 43.0014 30.4054C41.626 30.4054 40.2507 30.4054 38.844 30.4054Z" fill="#4949FC"/>
<path d="M53.1414 35.3994C53.5425 35.3994 53.9186 35.3994 54.3198 35.3994C57.3788 35.3994 60.4377 35.3994 63.4967 35.3994C63.6471 35.3994 63.7725 35.3994 63.9229 35.3744C64.6501 35.4996 65.0262 35.9755 64.9509 36.7519C64.8757 37.6785 64.7754 38.6052 64.6751 39.5319C64.5999 40.2832 64.4996 41.0346 64.4495 41.811C64.3742 42.6375 63.8477 43.1133 63.0203 43.1133C59.5602 43.1133 56.1251 43.1133 52.665 43.1133C51.8877 43.1133 51.3361 42.6124 51.3862 41.811C51.4364 40.7591 51.5617 39.6822 51.662 38.6303C51.7122 38.0041 51.7874 37.353 51.8375 36.7268C51.9128 35.9755 52.3641 35.4996 53.1414 35.3994Z" fill="black"/>
<path d="M57.8804 42.2126C56.1754 42.2126 54.4955 42.2126 52.7905 42.2126C52.3642 42.2126 52.2639 42.1125 52.3141 41.6867C52.4645 40.1088 52.615 38.506 52.7654 36.9281C52.8155 36.4523 52.9158 36.3521 53.3922 36.327C53.5176 36.327 53.643 36.327 53.7433 36.327C56.9527 36.327 60.137 36.327 63.3464 36.327C64.0234 36.327 64.0484 36.3521 63.9732 37.0283C63.8228 38.5811 63.6473 40.1339 63.4968 41.6867C63.4467 42.1375 63.3464 42.2377 62.8951 42.2377C61.2402 42.2126 59.5603 42.2126 57.8804 42.2126Z" fill="#FEFEFE"/>
<path d="M60.8391 37.0272C62.1179 37.0272 63.0707 38.2795 62.845 39.6069C62.6444 40.7589 61.7418 41.5353 60.6636 41.4853C59.8362 41.4602 59.1341 40.8341 58.8583 39.9325C58.5073 38.7052 59.2094 37.4029 60.3627 37.0773C60.5132 37.0272 60.6636 37.0272 60.8391 37.0272Z" fill="black"/>
<path d="M56.0248 39.0564C55.4731 39.0564 54.9215 39.0313 54.3448 39.0564C54.044 39.0814 54.069 38.9061 54.069 38.7058C54.069 38.5304 53.9938 38.3301 54.3198 38.3301C55.4481 38.3551 56.5764 38.3551 57.7047 38.3301C58.0557 38.3301 57.9303 38.5555 57.9303 38.7058C57.9554 38.8811 57.9805 39.0564 57.6796 39.0313C57.1531 39.0313 56.5764 39.0564 56.0248 39.0564Z" fill="#4E4E4E"/>
<path d="M55.975 40.5592C55.4233 40.5592 54.8968 40.5341 54.3452 40.5592C54.0694 40.5592 54.0694 40.434 54.0944 40.2336C54.1195 40.0833 53.9691 39.8329 54.3201 39.8329C55.4233 39.8329 56.5266 39.8329 57.6298 39.8329C57.8053 39.8329 57.8805 39.883 57.8805 40.0583C57.8805 40.5341 57.8805 40.5342 57.4292 40.5342C56.9528 40.5592 56.4513 40.5592 55.975 40.5592Z" fill="black"/>
<path d="M62.1176 39.2314C62.1427 39.7073 61.9672 40.108 61.6413 40.4336C61.0646 40.9846 60.2121 40.9095 59.7357 40.2583C59.2593 39.6071 59.3345 38.6554 59.9363 38.1044C60.3124 37.7538 60.7386 37.6035 61.215 37.8039C61.7415 38.0042 62.0174 38.4049 62.1176 38.9559C62.1427 39.0311 62.1176 39.1312 62.1176 39.2314Z" fill="#7D7DFF"/>
<path d="M49.7065 64.9282C46.6224 64.9282 43.5384 64.9282 40.4544 64.9282C39.1505 64.9282 38.1225 64.2019 37.7715 63.0748C37.596 62.4738 37.6211 61.8476 37.6963 61.2465C37.922 58.9925 38.1225 56.7384 38.3482 54.5094C38.5739 52.2804 38.7744 50.0514 39.0001 47.8223C39.0503 47.3966 39.0252 46.9708 39.1255 46.545C39.4765 45.0924 40.5797 44.1908 42.1343 44.0656C42.4101 44.0405 42.6859 44.0405 42.9617 44.0405C48.7035 44.0405 54.4453 44.0405 60.1871 44.0405C60.5883 44.0405 60.9644 44.0405 61.3656 44.1157C62.8449 44.4162 63.5219 45.5432 63.4216 46.9207C63.2712 48.9243 63.0455 50.9279 62.8449 52.9316C62.6193 55.0604 62.4187 57.2143 62.193 59.3431C62.0927 60.37 62.0175 61.3968 61.842 62.3986C61.5913 63.9514 60.4128 64.9282 58.8332 64.9282C55.7993 64.9282 52.7403 64.9282 49.7065 64.9282Z" fill="black"/>
<path d="M49.6562 63.7506C46.5973 63.7506 43.5634 63.7506 40.5045 63.7506C39.3009 63.7506 38.624 63.0743 38.5989 61.8722C38.5989 60.8704 38.7744 59.8936 38.8496 58.8918C38.9248 57.8399 39.0502 56.788 39.1505 55.7111C39.3009 54.1833 39.4514 52.6305 39.6018 51.1028C39.677 50.2763 39.7523 49.4247 39.8275 48.5983C39.8525 48.2977 39.9278 48.1725 40.2537 48.1725C47.4749 48.1725 54.696 48.1725 61.9422 48.1725C62.3434 48.1725 62.3434 48.1725 62.2933 48.5732C62.1679 49.8004 62.0425 51.0276 61.9172 52.2799C61.7667 53.7325 61.6163 55.1601 61.4658 56.6127C61.3405 57.8149 61.2402 59.0421 61.1148 60.2442C61.0396 60.8704 61.0396 61.5215 60.8641 62.1226C60.5883 63.1244 59.8611 63.6754 58.8331 63.6754C55.7491 63.7506 52.7152 63.7506 49.6562 63.7506Z" fill="#7D7DFF"/>
<path d="M51.1607 47.4971C47.5752 47.4971 43.9897 47.4971 40.3791 47.4971C39.9278 47.4971 39.9027 47.472 39.9779 47.0212C40.1785 45.794 40.9809 45.0927 42.2345 45.0426C42.41 45.0426 42.5605 45.0426 42.736 45.0426C48.4778 45.0426 54.2196 45.0426 59.9614 45.0426C60.3125 45.0426 60.6384 44.9926 60.9895 45.0426C61.7918 45.1428 62.3685 45.7439 62.4186 46.5454C62.4688 47.5221 62.4688 47.5221 61.4909 47.5221C58.0809 47.4971 54.6208 47.4971 51.1607 47.4971Z" fill="#7D7DFF"/>
<path d="M55.0471 50.0006C56.6769 50.0006 58.3067 50.0006 59.9365 50.0006C60.1872 50.0006 60.2373 50.0507 60.2123 50.3262C60.0117 51.9291 59.8362 53.532 59.6356 55.1599C59.4601 56.5875 59.2845 57.99 59.1341 59.4176C59.0338 60.194 58.9335 60.9704 58.8583 61.7468C58.8332 61.9471 58.758 61.9972 58.5574 61.9972C55.4232 61.9972 52.264 61.9972 49.1298 61.9972C48.9042 61.9972 48.854 61.9221 48.854 61.6967C49.0044 60.1189 49.1298 58.5661 49.2552 56.9882C49.4056 55.2601 49.5561 53.532 49.7065 51.8039C49.7566 51.303 49.8068 50.777 49.8319 50.2761C49.8319 50.0257 49.9572 50.0006 50.1578 50.0006C51.7876 50.0006 53.4174 50.0006 55.0471 50.0006Z" fill="black"/>
<path d="M44.6916 50.2764C45.6695 50.2764 46.6724 50.2764 47.6503 50.2764C47.876 50.2764 47.9763 50.3265 47.9763 50.5769C47.9763 51.2531 47.9763 51.2531 47.2993 51.2531C45.4438 51.2531 43.5884 51.2531 41.7581 51.2531C41.4572 51.2531 41.3318 51.203 41.3569 50.8774C41.382 50.2764 41.3569 50.2764 41.9586 50.2764C42.8864 50.2764 43.789 50.2764 44.6916 50.2764Z" fill="#4D4D4E"/>
<path d="M44.3408 53.708C43.4131 53.708 42.4854 53.708 41.5576 53.708C41.3069 53.708 41.2317 53.658 41.2317 53.4075C41.2317 52.7814 41.2317 52.7814 41.8836 52.7814C43.6137 52.7814 45.3688 52.7814 47.0989 52.7814C47.3747 52.7814 47.5 52.8315 47.475 53.157C47.4499 53.7331 47.475 53.7331 46.8732 53.7331C46.0207 53.708 45.1933 53.708 44.3408 53.708Z" fill="black"/>
<defs>
<clipPath id="clip0_155_33">
<rect width="48.0704" height="88.8257" fill="white" transform="translate(0.160645 0.0999756)"/>
</clipPath>
</defs>
</svg>
