<svg width="91" height="91" viewBox="0 0 91 91" fill="none" xmlns="http://www.w3.org/2000/svg">
<g clip-path="url(#clip0_155_20)">
<path d="M90.8999 40.7594C90.7593 41.275 90.6421 41.7672 90.478 42.2594C89.353 45.7047 86.1655 48.0719 82.5327 48.1188C79.9311 48.1422 77.3296 48.1188 74.7046 48.1188C74.3999 48.1188 74.0718 48.1188 73.6733 48.1188C73.6733 48.5875 73.6733 48.9625 73.6733 49.3375C73.6733 52.1969 73.6733 55.0563 73.6733 57.9391C73.6733 59.5797 72.8999 60.5172 71.3061 60.7985C64.9077 61.8532 58.4858 62.8844 52.064 63.9157C50.9155 64.1032 49.7671 64.2906 48.5718 64.4781C48.5718 66.9391 48.5718 69.4 48.5718 71.9782C48.8765 71.9782 49.1811 71.9782 49.4858 71.9782C51.8061 72.0016 54.1265 71.8141 56.4233 72.0719C61.5093 72.6578 65.189 76.5719 65.728 81.6578C65.7515 81.8922 65.7749 82.1032 65.8218 82.4313C66.5718 82.4313 67.2983 82.4078 68.0249 82.4313C69.5952 82.4782 70.6968 83.5328 70.7202 84.9625C70.7671 86.4625 69.689 87.5641 68.0952 87.6578C67.8374 87.6813 67.5796 87.6578 67.2983 87.6578C53.0249 87.6578 38.7749 87.6578 24.5015 87.6578C24.1265 87.6578 23.728 87.6578 23.353 87.611C21.9702 87.4235 21.0327 86.3219 21.0561 84.9625C21.0796 83.6031 22.0874 82.525 23.4702 82.4313C24.2905 82.3844 25.1108 82.4313 25.7671 82.4313C26.189 80.9313 26.3765 79.5016 26.9858 78.236C28.8843 74.2047 32.1655 72.0953 36.6421 71.9782C38.7983 71.9313 40.978 71.9782 43.228 71.9782C43.228 69.7516 43.228 67.5719 43.228 65.3219C40.9546 65.6969 38.6108 66.0485 36.2905 66.4235C31.3686 67.2203 26.4702 68.0172 21.5483 68.7906C19.2983 69.1422 18.0796 68.0641 18.0796 65.8141C18.0796 62.9313 18.0796 60.025 18.0796 57.1422C18.0796 56.8375 18.0796 56.5094 18.0796 56.0875C17.6812 56.0875 17.3765 56.0875 17.0483 56.0875C14.6577 56.0875 12.2437 56.0875 9.85303 56.0875C5.16553 56.0875 2.04834 53.5797 1.01709 49.0563C0.993652 48.986 0.92334 48.9156 0.876465 48.8453C0.876465 47.5563 0.876465 46.2672 0.876465 44.9781C1.48584 43.4313 2.63428 42.9156 4.25146 42.9156C15.2437 42.9391 26.2124 42.9391 37.2046 42.9391C39.6186 42.9391 40.5093 43.8766 40.5561 46.2907C40.6265 48.986 40.1343 51.4703 38.1655 53.486C36.6186 55.0797 34.7202 56.0172 32.4937 56.0641C29.7983 56.111 27.103 56.0875 24.4077 56.0875C24.103 56.0875 23.7749 56.0875 23.3999 56.0875C23.3999 58.5016 23.3999 60.8219 23.3999 63.1891C30.0093 62.1344 36.5718 61.0797 43.228 60.0016C43.228 59.0641 43.228 58.15 43.228 57.2125C43.228 55.525 44.3296 54.3063 45.853 54.3063C47.3765 54.3063 48.478 55.525 48.5015 57.1891C48.5015 57.7985 48.5015 58.4078 48.5015 59.1344C55.1343 58.0563 61.6968 57.0016 68.3296 55.9469C68.3296 53.3453 68.3296 50.7907 68.3296 48.1188C68.0249 48.1188 67.7202 48.1188 67.4155 48.1188C64.9077 48.1188 62.3765 48.1188 59.8686 48.1188C55.228 48.0953 51.6655 44.8375 51.2671 40.2203C51.1968 39.3531 51.1968 38.4625 51.2202 37.5953C51.2905 36.025 52.3686 34.9703 53.939 34.9703C65.3296 34.9703 76.7202 34.9703 88.1108 34.9703C89.4936 34.9703 90.2905 35.7906 90.853 36.8922C90.8999 38.1813 90.8999 39.4703 90.8999 40.7594Z" fill="white"/>
<path d="M20.7046 37.6188C17.3296 37.6188 13.978 37.6423 10.603 37.5954C10.1108 37.5954 9.50145 37.361 9.14989 37.0095C4.29832 32.1345 2.72801 26.2985 4.86082 19.8063C6.99364 13.3142 11.7046 9.44697 18.5249 8.46259C25.7436 7.43134 32.6343 11.2048 35.7983 17.7204C38.9389 24.1892 37.5561 31.9235 32.353 37.0095C31.9077 37.4548 31.4389 37.6188 30.8061 37.6188C27.4311 37.5954 24.0796 37.6188 20.7046 37.6188ZM18.7827 25.0329C18.1733 24.3767 17.6343 23.7204 17.0014 23.1579C15.9233 22.1735 14.3296 22.2204 13.3452 23.1813C12.3608 24.1657 12.2671 25.7595 13.2749 26.8142C14.4936 28.1032 15.7593 29.3688 17.0483 30.5876C18.0561 31.5485 19.5796 31.5954 20.5639 30.6345C23.1421 28.1267 25.7202 25.5954 28.2046 23.0173C29.6343 21.5407 28.7905 19.1501 26.7749 18.7048C25.7671 18.4938 24.9468 18.8688 24.2436 19.572C22.4624 21.3767 20.6811 23.1345 18.7827 25.0329Z" fill="#7D7DFF"/>
<path d="M72.8061 19.15C77.1186 19.15 81.4077 19.15 85.7202 19.15C87.7124 19.15 88.7671 20.1813 88.7671 22.15C88.7671 23.65 88.7671 25.1266 88.7671 26.6266C88.7671 28.6188 87.7124 29.6735 85.7436 29.6735C77.0483 29.6735 68.353 29.6735 59.6577 29.6735C57.6655 29.6735 56.6343 28.6188 56.6343 26.65C56.6343 25.15 56.6343 23.6735 56.6343 22.1735C56.6343 20.1578 57.6421 19.15 59.6343 19.15C64.0171 19.15 68.3999 19.15 72.8061 19.15Z" fill="#9747FF"/>
<path d="M69.4546 13.8063C65.189 13.8063 60.8999 13.8063 56.6343 13.8063C54.3843 13.8063 53.4468 12.8688 53.4468 10.5953C53.4468 9.0719 53.4468 7.54846 53.4468 6.04846C53.4702 4.45471 54.4546 3.42346 56.0249 3.30627C56.2358 3.28284 56.4233 3.28284 56.6343 3.28284C65.2124 3.28284 73.7905 3.28284 82.3687 3.30627C83.0015 3.30627 83.6577 3.42346 84.2202 3.70471C85.1343 4.15002 85.5093 5.01721 85.5093 6.02502C85.5093 7.66565 85.5327 9.30628 85.5093 10.9235C85.4858 12.775 84.478 13.8063 82.6265 13.8063C78.2202 13.8297 73.8374 13.8063 69.4546 13.8063Z" fill="#4949FC"/>
<path d="M18.7827 25.0328C20.6811 23.1344 22.4624 21.3765 24.2436 19.5953C24.9467 18.8922 25.7671 18.5172 26.7749 18.7281C28.7905 19.15 29.6342 21.5406 28.2046 23.0406C25.7202 25.6422 23.1655 28.15 20.5639 30.6578C19.5796 31.6187 18.0561 31.5484 17.0483 30.6109C15.7592 29.3922 14.4936 28.1265 13.2749 26.8375C12.2905 25.7828 12.3608 24.1656 13.3452 23.2047C14.3296 22.2437 15.9233 22.1969 17.0014 23.1812C17.6342 23.7203 18.1733 24.3765 18.7827 25.0328Z" fill="white"/>
</g>
<defs>
<clipPath id="clip0_155_20">
<rect width="90" height="90" fill="white" transform="translate(0.899902 0.400024)"/>
</clipPath>
</defs>
</svg>
