<svg width="91" height="91" viewBox="0 0 91 91" fill="none" xmlns="http://www.w3.org/2000/svg">
<g clip-path="url(#clip0_155_5)" filter="url(#filter0_b_155_5)">
<path d="M42.8624 73.4891C46.1436 73.6297 47.9952 75.2469 48.0186 77.8484C48.042 80.1688 46.2374 82.1141 43.8936 82.2781C41.292 82.4656 39.6749 80.7313 39.1592 77.2156C38.9014 77.45 38.667 77.6609 38.4561 77.8719C35.9483 80.3797 33.4639 82.8875 30.9561 85.3719C29.1045 87.2234 27.2295 87.2234 25.378 85.3953C18.628 78.6453 11.9014 71.9188 5.15142 65.1688C3.29986 63.3172 3.27642 61.4422 5.12799 59.6141C7.65924 57.0594 10.2139 54.5281 12.7452 51.9734C12.9327 51.7625 13.1202 51.5516 13.3545 51.3172C9.8858 50.8953 8.10455 49.2781 8.24517 46.7234C8.36236 44.3797 10.2608 42.5281 12.5811 42.5047C15.1827 42.4578 16.753 44.2391 17.0577 47.6375C17.292 47.4031 17.503 47.2391 17.7139 47.0281C20.292 44.45 22.8702 41.8484 25.4717 39.2703C27.1592 37.5828 29.1045 37.5594 30.792 39.2469C33.3467 41.7781 35.878 44.3328 38.4092 46.8641C38.6436 47.0985 38.8077 47.3563 39.1358 47.5672C39.2061 46.1141 39.4874 44.8016 40.5186 43.7703C41.5264 42.7625 42.7686 42.2938 44.1983 42.4813C46.4014 42.7625 48.0186 44.6375 48.042 46.8172C48.0655 49.3719 46.378 50.8719 42.9561 51.2938C43.1905 51.5516 43.4014 51.7859 43.6124 51.9969C46.1436 54.5516 48.6983 57.0828 51.2295 59.6375C52.9874 61.3953 52.9874 63.3172 51.2295 65.0984C48.7217 67.6297 46.1905 70.1375 43.6592 72.6688C43.4014 72.9266 43.1905 73.161 42.8624 73.4891Z" fill="#4949FC"/>
<path d="M76.9878 39.2703C80.4097 39.5281 82.3315 41.2859 82.1675 43.8874C82.0269 46.2781 80.0815 48.1062 77.7378 48.0828C75.1597 48.0593 73.4722 46.0906 73.4253 42.8796C73.144 43.1375 72.9565 43.3249 72.769 43.489C70.2144 46.0437 67.6362 48.6218 65.0815 51.1765C63.23 53.0281 61.3784 53.0046 59.5034 51.1531C56.7847 48.4343 54.0425 45.6921 51.1597 42.8093C52.73 42.9031 54.019 42.5984 55.0503 41.5906C56.0581 40.5828 56.5269 39.3406 56.3394 37.9343C56.0347 35.6374 54.0894 33.9734 51.8628 34.0906C49.3081 34.2078 47.7612 36.0359 47.6206 39.2234C47.4097 39.0593 47.2222 38.9187 47.0815 38.7781C44.4331 36.1296 41.7847 33.4812 39.1597 30.8328C37.519 29.1687 37.519 27.2234 39.1597 25.5828C41.7612 22.9578 44.3628 20.3562 46.9878 17.7546C47.1753 17.5671 47.3628 17.4031 47.6675 17.1218C47.5503 18.9031 48.019 20.3093 49.3315 21.364C50.2456 22.0906 51.2769 22.3953 52.4487 22.2781C54.6753 22.0671 56.4331 20.1218 56.4331 17.8953C56.4097 15.3171 54.5347 13.6765 51.3237 13.5125C51.5581 13.2546 51.7222 13.0203 51.9097 12.8328C54.4409 10.2781 56.9956 7.69995 59.5737 5.14526C61.3315 3.38745 63.2534 3.38745 65.0112 5.14526C71.7847 11.9187 78.5815 18.6921 85.355 25.489C87.1128 27.2468 87.1128 29.1687 85.355 30.9265C82.6128 33.6687 79.8472 36.4109 76.9878 39.2703Z" fill="#9747FF"/>
<path d="M29.7607 21.1766C29.7607 21.9735 29.2685 22.5828 28.5888 22.6531C27.8623 22.7235 27.2763 22.4188 27.1357 21.6922C26.7138 19.5125 26.3154 17.3328 25.9638 15.1531C25.8466 14.45 26.3857 13.8172 27.0888 13.7C27.8388 13.5828 28.4951 14.0047 28.6591 14.8719C29.0107 16.6766 29.3154 18.4813 29.6435 20.286C29.6669 20.6141 29.7138 20.9188 29.7607 21.1766Z" fill="black"/>
<path d="M15.2298 26.0047C17.2923 26.3797 19.4017 26.7313 21.5345 27.1531C22.3548 27.3172 22.7532 28.0438 22.5657 28.7938C22.4017 29.4969 21.722 29.9188 20.9485 29.7781C18.9329 29.4266 16.9407 29.075 14.9251 28.7C14.011 28.5359 13.5189 27.8797 13.6595 27.1063C13.7532 26.4266 14.386 25.9578 15.2298 26.0047Z" fill="black"/>
<path d="M76.8001 63.0827C76.8235 64.0437 76.1204 64.6999 75.2532 64.5593C73.1438 64.2078 71.0579 63.8327 68.9719 63.4343C68.1282 63.2702 67.7063 62.5906 67.8704 61.8171C68.011 61.0906 68.7141 60.6453 69.5344 60.7859C71.5266 61.1374 73.4954 61.489 75.4641 61.8406C76.2141 61.9577 76.7297 62.3796 76.8001 63.0827Z" fill="black"/>
<path d="M64.4955 75.3642C64.4955 76.161 64.0267 76.7704 63.3236 76.8642C62.597 76.9579 62.0111 76.6298 61.8705 75.9032C61.4252 73.7001 61.0267 71.497 60.6752 69.2938C60.558 68.5907 61.1674 68.0048 61.8705 67.9345C62.6439 67.8642 63.2299 68.3095 63.3939 69.1767C63.722 70.9579 64.0267 72.7392 64.3314 74.5204C64.4017 74.8017 64.4486 75.1298 64.4955 75.3642Z" fill="black"/>
<path d="M26.5502 25.2782C26.2924 25.6063 26.058 26.1219 25.683 26.286C25.308 26.45 24.5815 26.45 24.3237 26.2157C22.7533 24.7625 21.2533 23.2625 19.8002 21.6922C19.3315 21.2 19.4252 20.5203 19.9174 20.0282C20.433 19.4891 21.1362 19.3953 21.6518 19.8875C23.1987 21.3407 24.6987 22.8875 26.1752 24.411C26.3627 24.575 26.3861 24.8563 26.5502 25.2782Z" fill="black"/>
<path d="M71.0109 69.8094C70.7531 70.1375 70.5422 70.6531 70.1906 70.7703C69.7688 70.9109 69.0422 70.9344 68.7609 70.6765C67.2141 69.2703 65.7375 67.7703 64.3078 66.2469C63.7922 65.7078 63.9094 65.0281 64.4016 64.5125C64.9172 63.9969 65.5969 63.8797 66.1359 64.3719C67.6828 65.825 69.1594 67.3484 70.6594 68.8719C70.8234 69.0359 70.8703 69.3875 71.0109 69.8094Z" fill="black"/>
</g>
<defs>
<filter id="filter0_b_155_5" x="-3.7002" y="-3.80005" width="98" height="98" filterUnits="userSpaceOnUse" color-interpolation-filters="sRGB">
<feFlood flood-opacity="0" result="BackgroundImageFix"/>
<feGaussianBlur in="BackgroundImageFix" stdDeviation="2"/>
<feComposite in2="SourceAlpha" operator="in" result="effect1_backgroundBlur_155_5"/>
<feBlend mode="normal" in="SourceGraphic" in2="effect1_backgroundBlur_155_5" result="shape"/>
</filter>
<clipPath id="clip0_155_5">
<rect width="90" height="90" fill="white" transform="translate(0.299805 0.199951)"/>
</clipPath>
</defs>
</svg>
