<svg width="24" height="24" viewBox="0 0 24 24" fill="none" xmlns="http://www.w3.org/2000/svg">
<path d="M18.7088 7.3498C18.7101 6.80697 18.4961 6.28577 18.1136 5.90053C17.7312 5.51529 17.2116 5.29745 16.6688 5.2948C16.3907 5.28108 16.1128 5.32399 15.8518 5.42094C15.5908 5.51789 15.3523 5.66686 15.1506 5.8588C14.949 6.05075 14.7884 6.28166 14.6787 6.53754C14.569 6.79341 14.5124 7.06891 14.5124 7.3473C14.5124 7.6257 14.569 7.9012 14.6787 8.15707C14.7884 8.41295 14.949 8.64386 15.1506 8.83581C15.3523 9.02775 15.5908 9.17672 15.8518 9.27367C16.1128 9.37062 16.3907 9.41353 16.6688 9.3998C17.2077 9.40005 17.725 9.1881 18.1088 8.80981C18.3017 8.61946 18.4539 8.39189 18.5562 8.14091C18.6585 7.88993 18.7087 7.62078 18.7038 7.3498H18.7088ZM8.04877 14.7198L7.04877 13.7198L3.94877 14.7098H3.84877C3.80007 14.7125 3.75134 14.705 3.7057 14.6878C3.66007 14.6706 3.61854 14.644 3.58377 14.6098L2.85877 13.8948C2.80021 13.8391 2.76273 13.7648 2.7527 13.6846C2.74268 13.6044 2.76072 13.5232 2.80377 13.4548L3.64877 11.9998C4.17216 11.1041 4.90233 10.3467 5.77827 9.79085C6.6542 9.23502 7.65046 8.89692 8.68377 8.80481L9.92877 8.6948C10.6521 7.8348 11.3188 7.09814 11.9288 6.4848C13.0862 5.25883 14.4678 4.26593 15.9988 3.5598C17.5592 2.97612 19.2186 2.70267 20.8838 2.7548C20.9844 2.7562 21.0808 2.79548 21.1538 2.8648C21.1884 2.89661 21.216 2.93524 21.235 2.97827C21.2539 3.0213 21.2637 3.06779 21.2638 3.1148C21.2975 4.78494 21.0001 6.44522 20.3888 7.9998C19.7007 9.53526 18.719 10.9213 17.4988 12.0798C16.8838 12.6998 16.1438 13.3648 15.2888 14.0798L15.1788 15.3198C15.089 16.3526 14.7536 17.349 14.2004 18.2257C13.6472 19.1025 12.8923 19.8342 11.9988 20.3598L10.5538 21.2048C10.4966 21.2345 10.4332 21.2499 10.3688 21.2498C10.2731 21.2478 10.1811 21.2125 10.1088 21.1498L9.38377 20.4198C9.33696 20.375 9.30369 20.318 9.28778 20.2552C9.27186 20.1925 9.27394 20.1265 9.29377 20.0648L10.2588 16.9298L9.28877 15.9598M15.3088 14.0798L10.2588 16.9298L15.3088 14.0798ZM9.92877 8.6948L7.07377 13.7448L9.92877 8.6948Z" fill="white"/>
<path d="M8.04877 14.7198L7.04877 13.7198L3.94877 14.7098H3.84877C3.80007 14.7125 3.75134 14.705 3.7057 14.6878C3.66007 14.6706 3.61854 14.644 3.58377 14.6098L2.85877 13.8948C2.80021 13.8391 2.76273 13.7648 2.7527 13.6846C2.74268 13.6044 2.76072 13.5232 2.80377 13.4548L3.64877 11.9998C4.17216 11.1041 4.90233 10.3467 5.77827 9.79085C6.6542 9.23502 7.65046 8.89692 8.68377 8.80481L9.92877 8.6948M9.92877 8.6948C10.6521 7.8348 11.3188 7.09814 11.9288 6.4848C13.0862 5.25883 14.4678 4.26593 15.9988 3.5598C17.5592 2.97612 19.2186 2.70267 20.8838 2.7548C20.9844 2.7562 21.0808 2.79548 21.1538 2.8648C21.1884 2.89661 21.216 2.93524 21.235 2.97827C21.2539 3.0213 21.2637 3.06779 21.2638 3.1148C21.2975 4.78494 21.0001 6.44522 20.3888 7.9998C19.7007 9.53526 18.719 10.9213 17.4988 12.0798C16.8838 12.6998 16.1438 13.3648 15.2888 14.0798L15.1788 15.3198C15.089 16.3526 14.7536 17.349 14.2004 18.2257C13.6472 19.1025 12.8923 19.8342 11.9988 20.3598L10.5538 21.2048C10.4966 21.2345 10.4332 21.2499 10.3688 21.2498C10.2731 21.2478 10.1811 21.2125 10.1088 21.1498L9.38377 20.4198C9.33696 20.375 9.30369 20.318 9.28778 20.2552C9.27186 20.1925 9.27394 20.1265 9.29377 20.0648L10.2588 16.9298M9.92877 8.6948L7.07377 13.7448M10.2588 16.9298L9.28877 15.9598M10.2588 16.9298L15.3088 14.0798M18.7088 7.3498C18.7101 6.80697 18.4961 6.28577 18.1136 5.90053C17.7312 5.51529 17.2116 5.29745 16.6688 5.2948C16.3907 5.28108 16.1128 5.32399 15.8518 5.42094C15.5908 5.51789 15.3523 5.66686 15.1506 5.8588C14.949 6.05075 14.7884 6.28166 14.6787 6.53754C14.569 6.79341 14.5124 7.06891 14.5124 7.3473C14.5124 7.6257 14.569 7.9012 14.6787 8.15707C14.7884 8.41295 14.949 8.64386 15.1506 8.83581C15.3523 9.02775 15.5908 9.17672 15.8518 9.27367C16.1128 9.37062 16.3907 9.41353 16.6688 9.3998C17.2077 9.40005 17.725 9.1881 18.1088 8.80981C18.3017 8.61946 18.4539 8.39189 18.5562 8.14091C18.6585 7.88993 18.7087 7.62078 18.7038 7.3498H18.7088Z" stroke="white" stroke-linecap="round" stroke-linejoin="round"/>
<path d="M6.5 17.4999C8.5 17.1299 12.05 13.7999 12.465 11.5349C10.185 11.9699 6.855 15.4999 6.5 17.4999Z" stroke="white" stroke-linecap="round" stroke-linejoin="round"/>
</svg>
