<svg width="24" height="24" viewBox="0 0 24 24" fill="none" xmlns="http://www.w3.org/2000/svg">
<g clip-path="url(#clip0_586_45158)">
<path d="M7.5 8.5C7.89397 8.5 8.28407 8.4224 8.64805 8.27164C9.01203 8.12087 9.34274 7.8999 9.62132 7.62132C9.8999 7.34274 10.1209 7.01203 10.2716 6.64805C10.4224 6.28407 10.5 5.89397 10.5 5.5C10.5 5.10603 10.4224 4.71593 10.2716 4.35195C10.1209 3.98797 9.8999 3.65726 9.62132 3.37868C9.34274 3.1001 9.01203 2.87913 8.64805 2.72836C8.28407 2.5776 7.89397 2.5 7.5 2.5C6.70435 2.5 5.94129 2.81607 5.37868 3.37868C4.81607 3.94129 4.5 4.70435 4.5 5.5C4.5 6.29565 4.81607 7.05871 5.37868 7.62132C5.94129 8.18393 6.70435 8.5 7.5 8.5ZM16.5 8.5C16.894 8.5 17.2841 8.4224 17.6481 8.27164C18.012 8.12087 18.3427 7.8999 18.6213 7.62132C18.8999 7.34274 19.1209 7.01203 19.2716 6.64805C19.4224 6.28407 19.5 5.89397 19.5 5.5C19.5 5.10603 19.4224 4.71593 19.2716 4.35195C19.1209 3.98797 18.8999 3.65726 18.6213 3.37868C18.3427 3.1001 18.012 2.87913 17.6481 2.72836C17.2841 2.5776 16.894 2.5 16.5 2.5C15.7044 2.5 14.9413 2.81607 14.3787 3.37868C13.8161 3.94129 13.5 4.70435 13.5 5.5C13.5 6.29565 13.8161 7.05871 14.3787 7.62132C14.9413 8.18393 15.7044 8.5 16.5 8.5ZM2 11.223C2 10.9967 2.04457 10.7727 2.13116 10.5636C2.21774 10.3546 2.34466 10.1647 2.50466 10.0047C2.66465 9.84466 2.85459 9.71774 3.06364 9.63116C3.27268 9.54457 3.49673 9.5 3.723 9.5H8.535C8.18336 10.1078 7.99878 10.7978 8 11.5C7.99933 12.0676 8.11976 12.6288 8.35325 13.1461C8.58674 13.6635 8.92792 14.125 9.354 14.5H8.223C7.74663 14.4996 7.2785 14.6243 6.86548 14.8617C6.45245 15.099 6.109 15.4407 5.8695 15.8525C4.2585 15.5365 3.2795 14.751 2.7095 13.8685C2 12.77 2 11.635 2 11.4385V11.223ZM15.777 14.5C16.2534 14.4996 16.7215 14.6243 17.1345 14.8617C17.5476 15.099 17.891 15.4407 18.1305 15.8525C19.7415 15.5365 20.7205 14.751 21.2905 13.8685C22 12.77 22 11.635 22 11.4385V11.2235C22.0001 10.9972 21.9555 10.7731 21.869 10.564C21.7824 10.3549 21.6555 10.1649 21.4955 10.0048C21.3355 9.84478 21.1456 9.71782 20.9365 9.6312C20.7274 9.54458 20.5033 9.5 20.277 9.5H15.465C15.8166 10.1078 16.0012 10.7978 16 11.5C16.0007 12.0676 15.8802 12.6288 15.6468 13.1461C15.4133 13.6635 15.0721 14.125 14.646 14.5H15.777ZM15 11.5C15 12.2956 14.6839 13.0587 14.1213 13.6213C13.5587 14.1839 12.7956 14.5 12 14.5C11.2044 14.5 10.4413 14.1839 9.87868 13.6213C9.31607 13.0587 9 12.2956 9 11.5C9 10.7044 9.31607 9.94129 9.87868 9.37868C10.4413 8.81607 11.2044 8.5 12 8.5C12.7956 8.5 13.5587 8.81607 14.1213 9.37868C14.6839 9.94129 15 10.7044 15 11.5ZM6.5 17.223C6.5 16.766 6.68153 16.3278 7.00465 16.0047C7.32778 15.6815 7.76603 15.5 8.223 15.5H15.777C16.234 15.5 16.6722 15.6815 16.9953 16.0047C17.3185 16.3278 17.5 16.766 17.5 17.223V17.4385C17.5 17.6355 17.5 18.77 16.7905 19.8685C16.049 21.0165 14.6165 22 12 22C9.3835 22 7.951 21.0165 7.2095 19.8685C6.5 18.77 6.5 17.635 6.5 17.4385V17.223Z" fill="white"/>
</g>
<defs>
<clipPath id="clip0_586_45158">
<rect width="24" height="24" fill="white"/>
</clipPath>
</defs>
</svg>
