<svg width="16" height="16" viewBox="0 0 16 16" fill="none" xmlns="http://www.w3.org/2000/svg">
<path d="M15 0H0.625C0.279297 0 0 0.279297 0 0.625V15C0 15.3457 0.279297 15.625 0.625 15.625H15C15.3457 15.625 15.625 15.3457 15.625 15V0.625C15.625 0.279297 15.3457 0 15 0ZM5 12.3438C5 12.4297 4.92969 12.5 4.84375 12.5H3.28125C3.19531 12.5 3.125 12.4297 3.125 12.3438V3.28125C3.125 3.19531 3.19531 3.125 3.28125 3.125H4.84375C4.92969 3.125 5 3.19531 5 3.28125V12.3438ZM8.75 6.875C8.75 6.96094 8.67969 7.03125 8.59375 7.03125H7.03125C6.94531 7.03125 6.875 6.96094 6.875 6.875V3.28125C6.875 3.19531 6.94531 3.125 7.03125 3.125H8.59375C8.67969 3.125 8.75 3.19531 8.75 3.28125V6.875ZM12.5 8.28125C12.5 8.36719 12.4297 8.4375 12.3438 8.4375H10.7812C10.6953 8.4375 10.625 8.36719 10.625 8.28125V3.28125C10.625 3.19531 10.6953 3.125 10.7812 3.125H12.3438C12.4297 3.125 12.5 3.19531 12.5 3.28125V8.28125Z" fill="white"/>
</svg>
