<svg width="24" height="24" viewBox="0 0 24 24" fill="none" xmlns="http://www.w3.org/2000/svg">
<g clip-path="url(#clip0_1445_4178)">
<path d="M15.6214 11.2199C15.4967 11.0935 15.3269 11.0218 15.1494 11.0205C14.9719 11.0193 14.8011 11.0886 14.6747 11.2133C14.5483 11.3379 14.4765 11.5077 14.4753 11.6852C14.474 11.8627 14.5434 12.0335 14.668 12.1599L17.148 14.6666H5.22135C5.04454 14.6666 4.87497 14.7368 4.74995 14.8618C4.62493 14.9869 4.55469 15.1564 4.55469 15.3333C4.55469 15.5101 4.62493 15.6796 4.74995 15.8047C4.87497 15.9297 5.04454 15.9999 5.22135 15.9999H17.148L14.668 18.4666C14.6063 18.5287 14.5574 18.6025 14.5242 18.6835C14.491 18.7645 14.474 18.8513 14.4743 18.9389C14.4746 19.0265 14.4922 19.1132 14.526 19.194C14.5598 19.2748 14.6092 19.3482 14.6714 19.4099C14.7335 19.4716 14.8072 19.5205 14.8883 19.5537C14.9693 19.587 15.0561 19.6039 15.1437 19.6036C15.2313 19.6033 15.318 19.5858 15.3988 19.5519C15.4796 19.5181 15.553 19.4687 15.6147 19.4066L19.688 15.3333L15.6214 11.2199Z" fill="white"/>
<path d="M8.82792 12.2998C8.96033 12.3006 9.08998 12.2619 9.20033 12.1887C9.31067 12.1155 9.39672 12.0111 9.4475 11.8888C9.49828 11.7665 9.51148 11.6319 9.48544 11.5021C9.45939 11.3722 9.39527 11.2531 9.30125 11.1598L6.82792 8.66651H18.7479C18.9247 8.66651 19.0943 8.59628 19.2193 8.47125C19.3443 8.34623 19.4146 8.17666 19.4146 7.99985C19.4146 7.82304 19.3443 7.65347 19.2193 7.52844C19.0943 7.40342 18.9247 7.33318 18.7479 7.33318H6.82792L9.30125 4.84651C9.36297 4.78436 9.41185 4.71065 9.44508 4.6296C9.47832 4.54855 9.49526 4.46175 9.49495 4.37416C9.49464 4.28656 9.47708 4.19988 9.44328 4.11907C9.40947 4.03826 9.36008 3.9649 9.29792 3.90318C9.23576 3.84146 9.16205 3.79259 9.081 3.75935C8.99996 3.72611 8.91316 3.70917 8.82556 3.70948C8.64865 3.7101 8.47924 3.78098 8.35458 3.90651L4.28125 7.99985L8.35458 12.0932C8.41577 12.1574 8.48915 12.2087 8.57042 12.2442C8.6517 12.2797 8.73924 12.2986 8.82792 12.2998Z" fill="white"/>
</g>
<defs>
<clipPath id="clip0_1445_4178">
<rect width="24" height="24" fill="white"/>
</clipPath>
</defs>
</svg>
