<svg width="106" height="106" viewBox="0 0 106 106" fill="none" xmlns="http://www.w3.org/2000/svg">
<path d="M91.1622 32.6718C89.9791 31.4887 88.796 30.3056 87.6129 29.1225C85.5847 27.2633 83.7256 27.2633 81.6974 29.1225C78.8242 31.9957 75.7819 35.038 72.9087 37.9112C72.5707 38.2492 72.2326 38.4183 71.5566 38.9253C71.5566 37.9112 71.5566 37.4042 71.5566 36.7281C71.5566 29.6295 71.5566 22.5309 71.5566 15.4323C71.5566 11.883 70.3735 10.7 66.6552 10.7C53.6411 10.7 40.796 10.7 27.7819 10.7C25.9228 10.7 24.0636 10.7 22.2045 10.7C19.5002 10.7 18.1481 12.0521 18.1481 14.7563C18.1481 15.4323 18.1481 16.1084 18.1481 16.7845C17.4721 16.9535 17.134 16.9535 16.796 16.9535C12.7397 17.1225 11.7256 18.1366 11.7256 22.1929C11.7256 44.6718 11.7256 67.1507 11.7256 89.6295C11.7256 93.6859 12.9087 94.6999 16.965 94.6999C23.0495 94.6999 28.965 94.6999 35.0495 94.6999C43.5002 94.6999 52.1199 94.6999 60.5707 94.6999C63.9509 94.6999 65.134 93.3478 65.303 89.9676C65.303 89.4605 65.303 88.9535 65.303 88.4464C65.8101 88.4464 65.9791 88.4464 66.1481 88.4464C70.7115 88.7845 71.5566 86.4183 71.5566 83.038C71.3876 75.4323 71.5566 67.9957 71.5566 60.3901C71.5566 59.038 72.0636 58.0239 72.9087 57.0098C78.9932 51.0943 85.0777 45.0098 90.9932 38.9253C93.1904 36.7281 93.1904 34.6999 91.1622 32.6718ZM59.3876 92.3337C45.1904 92.3337 30.9932 92.3337 16.796 92.3337C14.2608 92.3337 14.0918 92.1647 14.0918 89.6295C14.0918 67.3197 14.0918 45.1788 14.0918 22.869C14.0918 19.4887 14.2608 19.3197 17.9791 19.6577C17.9791 20.3338 17.9791 21.0098 17.9791 21.5169C17.9791 42.1366 17.9791 62.5873 17.9791 83.207C17.9791 87.2633 18.9932 88.2774 23.0495 88.2774C35.3876 88.2774 47.8946 88.2774 60.2326 88.2774C60.9087 88.2774 61.5847 88.2774 62.2608 88.2774C62.2608 88.6154 62.4298 88.7845 62.4298 88.9535C62.7678 92.1647 62.7678 92.3337 59.3876 92.3337ZM66.4861 85.9112C51.9509 85.9112 37.5847 85.9112 23.0495 85.9112C20.6833 85.9112 20.5143 85.7422 20.5143 83.376C20.5143 60.8971 20.5143 38.4183 20.5143 15.7704C20.5143 13.4042 20.6833 13.2352 23.0495 13.2352C37.5847 13.2352 51.9509 13.2352 66.4861 13.2352C68.8523 13.2352 69.0214 13.4042 69.0214 15.7704C69.0214 23.714 69.0214 31.4887 69.0214 39.4323C69.0214 41.1225 68.6833 42.4746 67.3312 43.4887C66.4861 44.1647 65.8101 44.8408 64.965 45.5168C62.4298 48.2211 59.8946 50.9253 57.1904 53.4605C56.8523 53.7985 56.1763 53.7985 55.6692 53.7985C51.7819 53.7985 47.8946 53.7985 44.0073 53.7985C42.9932 53.7985 41.8101 53.6295 41.8101 54.9816C41.8101 56.3338 42.9932 56.1647 43.8383 56.1647C47.2185 56.1647 50.5988 56.1647 54.1481 56.1647C52.289 58.3619 50.9369 60.5591 47.8946 60.0521C46.5425 59.883 45.1904 60.0521 43.8383 60.0521C42.9932 60.0521 41.9791 60.0521 41.8101 61.2352C41.8101 62.5873 42.8242 62.5873 43.6692 62.5873C45.5284 62.5873 47.5566 62.5873 49.5847 62.5873C48.7397 65.1225 48.0636 67.6577 47.2185 70.1929C47.0495 70.5309 46.5425 70.6999 46.0354 70.869C45.0214 71.038 43.8383 70.869 42.8242 71.038C42.3171 71.038 41.6411 71.883 41.6411 72.2211C41.8101 72.7281 42.3171 73.5732 42.8242 73.4042C45.1904 73.4042 47.7256 73.4042 49.9228 72.8971C52.796 72.2211 55.6692 71.207 58.5425 70.1929C59.5566 69.8549 60.4016 69.3478 61.2467 68.6718C63.7819 66.3056 66.1481 63.9394 68.6833 61.2352C68.6833 61.9112 68.8523 62.2492 68.8523 62.7563C68.8523 69.6859 68.8523 76.6154 68.8523 83.545C69.3594 85.5732 68.8523 85.9112 66.4861 85.9112ZM56.8523 67.9957C54.6552 68.6718 52.627 69.3478 50.0918 70.0239C50.9369 67.4887 51.4439 65.4605 52.289 63.2633C53.8101 64.7845 55.1622 66.3056 56.8523 67.9957ZM59.3876 66.1366C57.6974 64.4464 55.8383 62.5873 53.9791 60.7281C61.5847 53.1225 69.3594 45.5168 76.965 37.9112C78.8242 39.7704 80.6833 41.6295 82.3735 43.3197C74.7678 50.5873 67.1622 58.3619 59.3876 66.1366ZM89.303 36.8971C87.7819 38.2492 86.4298 39.7704 85.0777 41.1225C83.0495 39.0943 81.1904 37.2352 78.9932 35.038C80.5143 33.6859 82.0354 32.1647 83.5566 30.8126C84.2326 30.1366 85.0777 30.1366 85.7537 30.8126C86.9368 31.9957 88.1199 33.3478 89.4721 34.5309C90.3171 35.376 90.1481 36.0521 89.303 36.8971Z" fill="#4949FC"/>
<path d="M36.0633 68.1648C32.8521 68.1648 29.4718 68.1648 26.2605 68.1648C24.9084 68.1648 24.4014 68.8408 24.4014 70.0239C24.4014 73.4042 24.4014 76.7845 24.4014 80.1648C24.4014 81.5169 24.9084 82.193 26.2605 82.193C29.6408 82.193 32.8521 82.193 36.2324 82.193C37.5845 82.193 38.0915 81.5169 38.0915 80.3338C38.0915 78.6437 38.0915 76.9535 38.0915 75.2634C38.0915 73.5732 38.0915 71.8831 38.0915 70.193C38.0915 68.8409 37.4155 68.1648 36.0633 68.1648ZM35.2183 79.4887C32.514 79.4887 29.8098 79.4887 26.9366 79.4887C26.9366 76.6155 26.9366 73.9113 26.9366 70.869C29.6408 70.869 32.345 70.869 35.2183 70.869C35.2183 73.7423 35.2183 76.6155 35.2183 79.4887Z" fill="#4949FC"/>
<path d="M26.2615 65.1224C29.6418 65.1224 32.8531 65.1224 36.2334 65.1224C37.5855 65.1224 38.0925 64.6154 38.0925 63.2633C38.0925 59.883 38.0925 56.5027 38.0925 52.9534C38.0925 51.7703 37.5855 51.0942 36.4024 51.0942C33.0221 51.0942 29.6418 51.0942 26.2615 51.0942C25.0784 51.0942 24.5714 51.6013 24.5714 52.7844C24.5714 54.4745 24.5714 56.1647 24.5714 58.0238C24.5714 59.714 24.5714 61.5731 24.5714 63.2633C24.4024 64.6154 24.9094 65.1224 26.2615 65.1224ZM27.1066 53.7985C29.8108 53.7985 32.5151 53.7985 35.3883 53.7985C35.3883 56.5027 35.3883 59.3759 35.3883 62.4182C32.6841 62.4182 29.9799 62.4182 27.1066 62.4182C27.1066 59.5449 27.1066 56.8407 27.1066 53.7985Z" fill="#4949FC"/>
<path d="M63.2754 36.7283C59.8951 36.7283 56.6839 36.7283 53.3036 36.7283C50.0923 36.7283 46.881 36.7283 43.5008 36.7283C42.8247 36.7283 41.8106 37.4043 41.6416 37.9114C41.4726 39.0945 42.4867 39.2635 43.5008 39.2635C50.0923 39.2635 56.5148 39.2635 63.1064 39.2635C63.7825 39.2635 64.7965 38.5874 64.9656 38.0804C65.3036 36.8973 64.2895 36.7283 63.2754 36.7283Z" fill="#4949FC"/>
<path d="M43.6678 22.0237C50.2594 22.0237 56.6819 22.0237 63.2734 22.0237C64.2875 22.0237 65.3016 21.8547 65.1326 20.6716C65.1326 19.4885 64.1185 19.4885 63.1044 19.4885C59.8932 19.4885 56.6819 19.4885 53.4706 19.4885C50.2594 19.4885 46.8791 19.4885 43.6678 19.4885C42.6537 19.4885 41.6396 19.4885 41.6396 20.6716C41.8087 22.0237 42.8227 22.0237 43.6678 22.0237Z" fill="#4949FC"/>
<path d="M63.1063 42.9816C56.6837 42.9816 50.2612 42.9816 44.0077 42.9816C43.6696 42.9816 43.3316 42.8126 42.9936 42.9816C42.4865 43.3196 41.9795 43.6577 41.9795 43.9957C41.9795 44.5027 42.4865 45.0098 42.9936 45.3478C43.3316 45.5168 44.0077 45.5168 44.5147 45.5168C48.9091 45.5168 53.1344 45.5168 57.5288 45.5168C60.064 45.5168 62.5992 45.3478 65.1344 45.3478C65.4725 43.4887 65.1344 42.9816 63.1063 42.9816Z" fill="#4949FC"/>
<path d="M63.1069 25.9111C59.8957 25.9111 56.6844 25.9111 53.4731 25.9111C50.2619 25.9111 47.0506 25.9111 43.8393 25.9111C42.8252 25.9111 41.6421 25.742 41.8112 27.0942C41.8112 28.4463 42.9943 28.2773 44.0083 28.2773C50.4309 28.2773 56.8534 28.2773 63.1069 28.2773C63.952 28.2773 65.1351 28.2773 65.1351 27.0942C65.1351 25.742 64.121 25.9111 63.1069 25.9111Z" fill="#4949FC"/>
<path d="M35.0503 19.9956C34.3742 20.6717 33.6982 21.1787 33.1911 21.8548C31.839 23.2069 30.4869 24.728 28.7968 26.5871C27.9517 25.404 27.4447 24.39 26.5996 23.7139C26.2616 23.3759 25.4165 23.7139 24.9094 23.5449C24.9094 24.221 24.7404 24.728 25.0785 25.404C25.0785 25.9111 25.5855 26.2491 26.0925 26.7562C29.1348 29.7984 28.7968 29.9674 32.008 26.7562C33.6982 25.066 35.3883 23.3759 37.0785 21.8548C37.5855 21.0097 38.7686 20.1646 37.5855 19.1505C36.5714 18.1364 35.7263 19.3195 35.0503 19.9956Z" fill="#4949FC"/>
<path d="M27.9527 45.6859C28.2908 46.0239 29.4739 46.0239 29.8119 45.6859C32.5161 43.1507 35.0513 40.6155 37.5865 37.9113C37.9246 37.5732 37.5865 36.8972 37.7556 36.2211C37.0795 36.2211 36.5725 36.0521 35.8964 36.2211C35.5584 36.2211 35.3894 36.7282 35.0513 37.0662C33.0232 39.0944 31.164 41.1225 28.7978 43.4887C27.9527 42.4746 27.4457 41.6296 26.6006 41.1225C26.0936 40.7845 25.4175 40.9535 24.7415 40.9535C24.7415 41.6296 24.5725 42.3056 24.9105 42.8127C25.7556 43.6577 26.9387 44.6718 27.9527 45.6859Z" fill="#4949FC"/>
</svg>
