<svg width="106" height="106" viewBox="0 0 106 106" fill="none" xmlns="http://www.w3.org/2000/svg">
<path d="M95.507 38.2647C95.4472 36.8897 96.1048 35.0962 95.2679 34.2293C94.3711 33.2728 92.5179 33.8706 91.113 33.9005C84.1482 34.1396 77.6916 32.6152 71.8628 28.6994C71.1753 28.251 70.6372 28.3108 69.9796 28.7592C67.4388 30.463 64.7187 31.7483 61.7893 32.5853C60.0556 33.0934 60.0556 33.0934 60.0257 31.3298C59.9958 30.7021 60.1752 29.895 59.2187 29.8652C56.9768 29.7755 55.9007 28.52 55.4523 26.4874C55.4224 26.3081 55.2431 26.1586 55.1534 25.9792C54.4958 25.1423 54.3463 24.3352 55.2132 23.558C55.3925 23.4086 55.4523 23.1097 55.6317 22.9303C56.4387 21.9738 56.4387 21.2564 55.4224 20.3297C53.599 18.7156 51.8952 16.952 50.2512 15.1585C49.474 14.2916 48.8463 14.1123 47.8898 14.8895C47.3218 15.3379 46.6642 16.0851 45.9767 15.9058C44.512 15.5172 43.0473 14.8895 41.7022 14.1721C40.9549 13.7835 41.1044 12.7373 40.9549 11.99C40.7457 11.0036 40.3272 10.7047 39.2511 10.7346C36.7103 10.8242 34.1695 10.8541 31.6586 10.7047C30.3434 10.6449 29.9249 11.153 29.7456 12.2889C29.6559 12.9465 29.6858 13.8732 29.088 14.202C27.7428 14.9194 26.308 15.6069 24.8434 15.9357C24.0662 16.115 23.289 15.1884 22.5417 14.7101C21.8841 14.2618 21.4357 14.2916 20.8678 14.8895C19.5824 16.2645 18.2074 17.5797 16.8623 18.8949C14.2617 21.4955 14.2617 21.4955 16.2047 24.6939C15.9058 25.3216 15.4574 25.8896 15.308 26.5472C14.7699 28.4901 13.8433 29.8353 11.6612 29.8652C10.9139 29.8652 10.8242 30.3733 10.8242 31.001C10.8541 34.0201 10.884 37.0391 10.9139 40.0582C10.8541 40.4169 11.0634 40.656 11.3922 40.656C13.8134 40.7158 14.9493 42.1207 15.3976 44.3028C15.4275 44.3925 15.4574 44.512 15.5172 44.5718C16.2645 45.4984 16.1449 46.3952 15.3677 47.2023C14.202 48.4876 14.3215 49.5936 15.7563 50.58C15.9955 50.7295 16.2047 50.9686 16.4139 51.1479C17.789 52.5827 19.2536 53.9578 20.5689 55.4224C21.346 56.2893 21.9439 56.2594 22.8406 55.6616C23.4683 55.2431 24.0961 54.4061 24.9031 54.6154C26.3379 55.0338 27.7428 55.5719 29.0282 56.3192C29.8054 56.7676 29.6858 57.9333 29.8651 58.7703C30.0445 59.7268 30.4929 59.966 31.3896 59.9361C34.0799 59.9062 36.7701 59.9062 39.4603 59.9361C40.2076 59.9361 40.7457 59.7866 40.7756 58.9198C40.8652 56.917 41.9413 55.811 43.8843 55.4224C44.3028 55.3328 44.7212 55.0936 45.1098 54.8844C46.2158 54.2268 46.6044 54.705 46.7539 55.811C47.1724 58.7404 47.9495 61.5502 49.2349 64.2106C50.0121 66.2731 51.118 68.1562 52.4034 69.9198C52.9115 70.6073 53.061 71.2351 52.792 72.1019C52.1344 74.3139 51.5963 76.5857 50.9985 78.8574C50.1615 81.7868 49.3544 84.7162 48.4876 87.8249C50.4305 87.3466 52.1045 87.0776 53.6887 86.5396C54.9741 86.1211 55.542 86.5097 56.1398 87.5858C57.4551 89.9173 58.86 92.189 60.3844 94.6999C61.7893 90.5151 63.0747 86.6292 64.36 82.7134C64.9279 80.9498 64.9279 80.9797 66.6019 81.6672C68.6943 82.5042 70.6671 83.7895 73.1182 82.6238C74.3438 82.0558 75.9579 80.7406 76.8547 81.3384C77.8112 81.9661 77.9308 83.8792 78.409 85.2243C79.4254 88.2733 80.4417 91.2923 81.5775 94.67C83.0721 92.1592 84.4471 90.007 85.7026 87.7352C86.3901 86.5097 87.0776 86.0314 88.5124 86.5396C90.0369 87.0776 91.651 87.3466 93.5043 87.795C92.7271 85.045 92.0097 82.5341 91.2923 80.0232C91.2624 79.3656 91.0831 78.7379 90.7543 78.1998C90.7543 78.1998 90.7543 78.1998 90.7841 78.1998C90.5749 77.2732 90.4852 76.3166 90.1265 75.4797C88.9608 72.6699 88.7515 70.0095 90.9037 67.5584C90.9336 67.5285 90.9635 67.4986 91.0233 67.4687C93.8331 63.1046 95.2679 58.3518 95.4771 53.1806C95.6266 48.7865 95.5967 44.4223 95.507 40.0283C95.4771 39.4603 95.5369 38.8625 95.507 38.2647ZM39.819 53.898C38.8924 54.0773 38.8326 54.8844 38.8027 55.5121C38.6832 56.9469 37.9658 57.3654 36.6505 57.186C36.1723 57.1263 35.6641 57.1561 35.156 57.1561C32.6152 57.1561 32.5853 57.1561 31.838 54.7349C31.6287 54.0773 31.1804 53.9279 30.6423 53.8083C29.088 53.4197 27.5635 52.9115 26.2184 52.0447C25.1722 51.3572 24.2455 51.2376 23.289 52.1045C22.3923 52.9115 21.7047 52.7322 20.9276 51.8354C20.0308 50.8191 19.0145 49.9523 18.058 49.0256C18.1477 48.936 18.2373 48.8463 18.2971 48.7566C18.2672 48.7566 18.2074 48.7566 18.1775 48.7566C18.1178 48.7865 18.0281 48.8164 17.9683 48.8762C17.6993 48.1588 18.327 47.7104 18.6558 47.2023C19.2536 46.3354 19.3732 45.618 18.7156 44.6615C17.9085 43.4658 17.2808 42.1506 17.0417 40.7457C16.8324 39.4006 16.1748 38.7728 15.0688 38.6234C15.0389 38.5337 15.009 38.444 14.9493 38.3544C14.7699 38.4141 14.6204 38.5038 14.4411 38.5935C13.6938 38.444 13.3949 38.0255 13.4248 37.2484C13.4846 36.0228 13.4846 34.7674 13.4248 33.5418C13.365 32.5554 13.6938 32.0472 14.7101 31.9875C16.0254 31.8978 16.7129 31.2402 17.0417 29.8353C17.3107 28.6396 17.8786 27.5037 18.3868 26.3379C18.4765 26.1287 18.5661 25.9195 18.6558 25.7102C19.5824 24.9032 19.1939 24.0961 18.596 23.3787C17.6694 22.3325 17.8188 21.4955 18.9248 20.6884C19.3732 20.3895 19.702 19.9412 20.0906 19.5526C21.8243 17.8189 21.8243 17.8189 24.0363 18.9547C24.5444 19.2238 24.933 19.2238 25.4113 18.9248C27.0553 17.9085 28.8488 17.1313 30.7619 16.7129C31.569 16.5335 31.7782 16.0254 31.838 15.3379C31.9277 13.6938 32.7945 13.1259 34.3489 13.3949C34.7375 13.4547 35.156 13.3949 35.5445 13.3949C38.0853 13.3949 38.1152 13.3949 38.8924 15.7862C39.0717 16.3542 39.3707 16.5933 39.9087 16.7129C41.762 17.1313 43.5256 17.8189 45.1098 18.8651C46.156 19.5526 46.8436 18.8352 47.5012 18.3569C48.368 17.7292 48.9659 17.7591 49.6235 18.596C50.042 19.1341 50.6099 19.5825 51.0882 20.0906C52.792 21.7944 52.8219 21.7944 51.6262 23.8868C51.2077 24.6341 51.5664 25.1124 51.9251 25.6504C51.8952 25.6803 51.8952 25.7102 51.8653 25.7102C51.8952 25.7102 51.9251 25.7401 51.9849 25.7401C52.7023 27.414 53.5393 29.0581 53.9279 30.8516C54.1371 31.9576 55.1534 31.6586 55.811 31.9576C56.3491 32.1967 57.2159 31.9576 57.186 32.9739C57.1263 33.9902 56.2893 33.7511 55.7213 33.7809C54.5556 33.8706 53.2105 34.1695 52.1941 33.7809C50.9686 33.3027 51.5963 31.6885 51.0882 30.6423C50.6099 29.626 50.4604 28.4602 49.6833 27.5934C49.6235 27.5037 49.5637 27.414 49.5039 27.3244C48.637 26.0689 47.8599 24.7537 46.8436 23.6477C39.6098 15.6368 24.9629 18.1178 20.7183 28.0418C18.4765 32.3462 18.3868 36.7701 20.0906 41.2837C21.6151 45.1995 24.2455 48.1588 28.0418 49.9822C34.4684 53.0909 40.5364 52.0447 46.3952 47.6805C46.1859 49.0256 46.724 50.1316 46.156 51.0882C46.0963 51.2077 46.0066 51.3273 45.887 51.4469C43.8843 52.4034 42.0011 53.4795 39.819 53.898ZM48.7566 32.4358C48.9659 33.3326 48.936 34.05 47.7104 33.8706C46.5745 33.7212 46.2457 34.2293 46.3055 35.3054C46.3952 36.9793 46.3653 38.6533 46.3952 40.3272C46.3653 40.4169 46.3354 40.5065 46.3354 40.6261C46.156 41.8218 46.6941 43.1071 45.7077 44.1832C41.9413 48.2186 37.3978 49.8327 31.9576 48.5175C27.4439 47.4115 24.4847 44.4223 22.5118 40.3272C21.077 36.2321 21.4656 32.2565 23.4086 28.4005C23.6178 28.1314 23.827 27.8325 24.0363 27.5635C27.5037 22.9004 32.0771 20.9575 37.8163 21.8542C41.1642 22.3624 43.7647 24.2156 46.0066 26.6668C46.3354 27.145 46.6642 27.6233 47.0229 28.1016C47.0528 28.1613 47.0827 28.1912 47.1126 28.251C47.1425 28.3108 47.2023 28.4005 47.2321 28.4602C47.8898 29.7157 48.4278 31.0309 48.7566 32.4358ZM62.2676 80.2922C61.4306 82.7732 60.5937 85.2542 59.7268 87.8847C58.7703 86.958 58.2023 85.9118 57.754 84.8656C57.0067 83.2216 56.0203 82.8031 54.4061 83.5205C53.8681 83.7596 53.2702 83.7895 52.5528 83.9689C52.7322 83.0123 52.9115 82.1455 53.0909 81.3085C53.1208 81.2188 53.1507 81.1292 53.1806 81.0096C53.33 80.5014 53.4795 79.9933 53.6289 79.4851C53.6588 79.3058 53.6887 79.1563 53.7186 78.977C53.898 78.9471 54.0474 78.8873 54.167 78.8275C54.1371 78.7379 54.1072 78.6482 54.0773 78.5884C54.0175 78.5286 53.9577 78.4389 53.898 78.3792C54.3463 76.8846 54.8246 75.3601 55.3328 73.6862C57.4252 75.5395 59.3382 77.5422 61.6997 78.9172C61.6698 79.1264 61.6698 79.3058 61.6399 79.4851C61.8491 79.4851 62.0882 79.4254 62.3274 79.246C62.4469 79.6346 62.3872 79.9634 62.2676 80.2922ZM86.3602 83.2216C85.6428 83.0123 85.2841 83.1618 84.9254 83.7895C84.1781 85.1346 83.3411 86.42 82.3547 88.0341C81.4281 85.4037 80.5911 83.0123 79.7243 80.6509C79.5449 80.1726 79.5748 79.7243 79.8139 79.3656C79.9036 79.2161 80.0531 79.0667 80.2623 78.9172C82.7134 77.6319 84.5667 75.5992 86.689 73.7161C87.1972 75.3302 87.6455 76.8547 88.1238 78.3493C88.1836 78.5286 88.2434 78.708 88.3032 78.9172C88.6917 80.5313 89.0803 82.1455 89.4988 83.9689C88.333 83.7297 87.3167 83.5504 86.3602 83.2216ZM91.92 58.3219C91.113 61.341 89.8575 64.1209 88.3928 66.8111C88.333 66.9307 88.2434 67.0503 88.1836 67.1997C85.4037 71.4144 81.8765 74.852 77.6319 77.5123C77.3927 77.4525 77.1536 77.3927 76.8846 77.3628C76.8248 77.5422 76.8248 77.7215 76.8846 77.9607C76.8248 77.9607 76.765 77.9607 76.7351 77.9906C73.0883 80.4417 69.3818 80.7705 65.6155 78.2596C65.6752 77.9906 65.6453 77.7813 65.5856 77.6319C65.5258 77.6319 65.466 77.6319 65.4361 77.6319C65.197 77.6916 64.9877 77.7215 64.7486 77.7514C60.9524 75.4199 57.6344 72.5503 55.0039 68.9035C53.9876 67.4986 53.1806 66.004 52.3436 64.5095C52.1941 64.2404 52.0447 63.9714 51.8653 63.6725C49.2349 57.9632 48.9659 51.9251 49.0555 45.7974V45.7376C49.0555 43.9142 49.0854 42.1207 49.0854 40.2973C49.0854 39.1315 49.0854 37.9658 49.1153 36.8299C52.6724 36.6505 56.2594 36.8 59.7866 36.0228C63.4035 35.2157 66.841 33.9603 70.0394 32.0771C70.5775 31.7483 71.0258 31.5092 71.6834 31.8978C77.9607 35.7239 84.8656 36.9793 92.1293 36.7402C92.3684 36.7402 92.6374 36.7701 92.8766 36.8C92.8766 37.9957 92.9064 39.1913 92.9064 40.387C92.9363 42.8381 92.9363 45.3191 92.9662 47.7702C92.9363 47.7702 92.8766 47.7702 92.8168 47.8001C92.8467 47.83 92.9064 47.83 92.9662 47.8599C92.7869 51.3572 92.8467 54.8844 91.92 58.3219Z" fill="#4949FC"/>
<path d="M89.0506 39.4006C82.9228 39.3408 77.1238 37.9359 71.7433 35.0364C71.2053 34.7375 70.7868 34.7375 70.2189 35.0364C64.8085 37.9359 59.0095 39.3707 52.9117 39.4006C52.0747 39.4006 51.8057 39.6995 51.8057 40.5365C51.8654 43.7648 51.8654 46.9931 51.8654 50.2214C51.6861 56.11 53.2703 61.4905 56.6182 66.3628C59.9063 71.534 64.5395 75.0313 70.189 77.2732C70.9064 77.5721 71.5341 77.3629 72.1917 77.1238C78.4988 74.583 83.3114 70.3683 86.5695 64.3601C89.3794 59.6073 90.4256 54.466 90.0968 49.0257C90.1266 46.186 90.1266 43.3463 90.1864 40.5365C90.1565 39.6995 89.8875 39.4006 89.0506 39.4006ZM86.719 56.6779C86.0315 59.3682 84.8956 61.8193 83.5804 64.2405C83.5505 64.3003 83.4907 64.39 83.4608 64.4497C80.6211 68.5748 77.0341 71.8628 72.4308 73.9851C71.3846 74.4634 70.5178 74.4634 69.4716 73.9553C65.5857 72.102 62.3275 69.5014 59.697 66.0639C59.3682 65.6454 59.0095 65.2269 58.6508 64.8084C58.7106 64.7487 58.7704 64.659 58.8003 64.5693C58.7704 64.5693 58.7106 64.5394 58.6807 64.5394C58.6209 64.5394 58.5612 64.5394 58.5313 64.5693C56.9769 61.6399 55.5421 58.6508 54.9742 55.3029C54.6753 53.5692 54.5856 51.8056 54.4959 50.042C54.5856 49.9822 54.7051 49.8925 54.7948 49.8029C54.8247 49.773 54.8247 49.773 54.8247 49.7431C54.735 49.6534 54.6155 49.5936 54.466 49.5338C54.4959 47.4414 54.5258 45.3789 54.5258 43.2865C54.5258 42.4794 54.6155 42.0311 55.6019 41.9713C60.7133 41.6126 65.5857 40.3272 70.189 38.0854C70.8167 37.7865 71.295 37.8761 71.8629 38.1452C76.3466 40.2974 81.0695 41.5827 86.0016 41.9115C87.2571 42.0012 87.4663 42.5093 87.4065 43.5555C87.3467 44.7512 87.4065 45.9469 87.4364 47.1126C87.4065 47.5909 87.4065 48.0393 87.4065 48.4876C87.3766 51.3273 87.3766 54.0176 86.719 56.6779Z" fill="#4949FC"/>
<path d="M42.8064 31.838C41.2819 28.4005 37.4558 26.4576 33.6895 27.2347C30.2519 27.9223 27.4122 31.0908 27.2927 34.319C26.7546 37.3979 28.2791 40.5963 31.059 42.3001C33.9286 44.0338 37.6949 43.8545 40.2955 41.8517C43.0455 39.7593 44.1515 36.3816 43.195 33.0935C43.0754 32.7049 42.9858 32.2565 42.8064 31.838ZM39.6977 38.5935C38.3227 40.3571 35.9911 41.1642 33.8389 40.5066C31.5971 39.849 30.0427 37.906 29.953 35.5745C29.9231 35.0663 29.953 34.5881 29.9829 34.0799C30.0427 34.0799 30.1025 34.05 30.1922 34.0201C30.1324 33.9902 30.0726 33.9604 30.0128 33.9604C30.2221 32.2266 32.7329 30.194 34.2873 29.925C36.7085 29.5364 39.0102 30.5527 40.1759 32.7348C40.3852 33.1533 40.5645 33.5718 40.7439 33.9902C40.6841 33.9902 40.6243 34.0201 40.5645 34.05C40.6243 34.05 40.714 34.05 40.7738 34.05C40.8634 35.6941 40.7738 37.2484 39.6977 38.5935Z" fill="#4949FC"/>
<path d="M79.8447 44.9305C79.4262 44.5121 79.0974 44.3925 78.6192 44.8708C75.3909 48.1588 72.1028 51.417 68.8745 54.6752C68.4261 55.0937 68.0375 55.0937 67.6191 54.6154C67.1707 54.0773 66.6028 53.6589 66.1544 53.1208C65.7658 52.7023 65.437 52.5529 64.9587 53.061C63.3745 54.7051 61.7304 56.3192 60.1163 57.9334C59.6978 58.3518 59.5185 58.6508 60.0266 59.1589C62.6272 61.6997 65.1978 64.2704 67.7386 66.8709C68.1571 67.2894 68.4261 67.2296 68.8446 66.841C72.4316 63.1943 76.0485 59.5475 79.6355 55.9007C81.3094 54.2567 82.9833 52.6426 84.6573 51.0284C85.1953 50.5203 85.1056 50.1317 84.6274 49.6534C82.9833 48.099 81.3991 46.5148 79.8447 44.9305ZM80.3529 51.3871C79.6953 51.9551 79.1273 52.6426 78.5295 53.2703C78.4697 53.2703 78.4099 53.2404 78.3501 53.2404C78.3501 53.3002 78.38 53.36 78.4099 53.4197C75.3311 56.4687 72.2523 59.4578 69.2033 62.5367C68.4859 63.2541 68.0674 63.3736 67.35 62.5666C66.3038 61.3709 65.1381 60.2948 64.0022 59.1888C63.0158 58.2323 64.1218 57.9035 64.5402 57.4551C64.9288 57.0366 65.2576 56.11 66.1544 56.9768C66.8718 57.6643 67.4098 59.0095 68.4261 58.7703C69.2631 58.591 69.8908 57.485 70.5783 56.7975C71.5647 55.8111 72.5213 54.7947 73.4778 53.8083H73.5077V53.7784C75.092 52.2241 76.7659 50.7295 78.2605 49.0855C79.3067 47.9197 79.7251 48.7567 80.4724 49.3545C81.3692 50.1914 81.1599 50.6996 80.3529 51.3871Z" fill="#4949FC"/>
<path d="M60.0265 50.6398C59.9668 50.0121 60.0863 49.3545 59.9966 48.6969C59.8472 47.4713 60.2956 46.8436 61.551 46.7838C62.8064 46.7539 63.0456 46.1561 62.7766 44.9604C62.4179 43.3762 61.4912 44.0338 60.6244 44.1832C57.2167 44.811 57.2167 44.811 57.2167 48.1289C57.2167 48.8164 57.2765 49.5338 57.2167 50.2213C57.0374 51.5963 57.6352 51.955 58.9205 51.8056C59.7276 51.686 60.1162 51.4768 60.0265 50.6398Z" fill="#4949FC"/>
<path d="M66.2726 45.4975C67.0496 45.5274 68.0058 45.2883 68.6035 44.4516C68.0357 43.7942 68.3943 42.4494 67.3484 42.4494C66.6611 42.4494 65.3164 42.3897 65.3164 43.6149C65.3463 44.2424 65.2566 45.4377 66.2726 45.4975Z" fill="#4949FC"/>
</svg>
