<svg width="106" height="106" viewBox="0 0 106 106" fill="none" xmlns="http://www.w3.org/2000/svg">
<path d="M79.9047 51.0165C80.5616 48.7994 80.9722 46.5822 81.0543 44.2009C80.3974 44.4472 79.7404 44.6936 79.0835 44.7757C78.5908 44.8578 78.5087 45.1041 78.4266 45.5147C78.4266 46.0895 78.2623 46.7465 78.1802 47.3213C77.4412 51.345 75.7988 55.0403 73.828 58.5713C72.1857 61.5275 70.5433 64.4016 68.9831 67.3578C66.9302 71.2173 65.2058 75.241 64.2204 79.5111C64.1382 79.5932 64.1382 79.5932 64.0561 79.5932C58.2258 79.5932 52.3134 79.5932 46.4831 79.5932C46.3189 79.5932 45.9904 79.3468 45.9904 79.1005C44.9229 74.5841 43.0342 70.314 40.8171 66.2903C38.4357 61.856 35.9722 57.5859 34.0014 52.9874C32.359 49.0457 31.5379 45.022 31.8663 40.8341C32.7696 31.5549 39.6674 23.5074 48.7824 21.4545C50.5069 21.0439 52.3134 20.8797 54.12 20.5512C54.5306 19.8943 54.7769 19.0731 55.1054 18.252C54.859 18.252 54.6127 18.252 54.3663 18.252C51.5744 18.3341 48.8645 18.8268 46.2368 19.7301C34.8225 23.4253 27.5963 35.4965 29.8134 47.3213C30.4704 50.8523 31.7842 54.137 33.3444 57.3395C35.4795 61.5275 37.7788 65.7155 39.9138 69.9034C42.0488 74.0092 43.609 78.3614 44.1839 82.96C44.3481 84.4381 44.3481 85.9983 44.4302 87.5585C44.5123 89.6936 45.662 91.2538 47.7149 91.9107C47.797 91.9107 47.9612 91.9928 48.0433 92.0749C52.8882 92.0749 57.651 92.0749 62.4959 92.0749C65.4521 90.8432 66.109 89.8578 66.109 86.491C66.109 85.4235 66.0269 84.356 66.1912 83.3706C66.5196 80.0859 67.3408 76.8833 68.7368 73.9271C70.7076 69.8213 72.8426 65.8797 74.9776 61.856C76.8663 58.3249 78.755 54.876 79.9047 51.0165ZM61.4284 89.5293C57.3225 89.5293 53.1346 89.5293 49.0287 89.5293C47.5506 89.5293 46.8116 88.5439 46.9758 87.1479C52.4777 87.1479 57.9795 87.1479 63.5634 87.1479C63.6455 88.7081 62.9065 89.5293 61.4284 89.5293ZM63.5634 84.6023C57.9795 84.6023 52.4777 84.6023 46.8937 84.6023C46.8116 83.7811 46.7295 83.0421 46.6474 82.2209C52.3955 82.2209 58.0616 82.2209 63.8098 82.2209C63.7277 83.0421 63.6455 83.7811 63.5634 84.6023Z" fill="#4949FC"/>
<path d="M57.8976 24.2465C57.8155 24.4107 57.487 24.575 57.1585 24.6571C55.352 24.8213 54.0381 26.1352 54.0381 28.0239C54.0381 28.7629 54.0381 29.5841 54.0381 30.3231C54.0381 32.5403 55.1877 33.772 57.3228 34.0184C57.5691 34.0184 57.8155 34.1826 57.8976 34.3468C57.9797 34.5111 57.8976 34.8396 57.7333 35.0038C57.1585 35.6607 56.8301 36.4819 56.8301 37.3852C56.7479 37.3852 56.6658 37.4673 56.6658 37.4673C56.9943 38.2063 57.3228 38.9454 57.7333 39.6023C58.3082 40.3414 59.0472 40.9983 59.7041 41.6552C61.018 42.887 62.8246 42.887 64.2206 41.7374C64.3848 41.5731 64.7954 41.4089 64.9596 41.491C65.1238 41.5731 65.2881 41.9837 65.2881 42.2301C65.4523 44.0366 66.8483 45.3505 68.6549 45.3505C69.476 45.3505 70.3793 45.3505 71.2005 45.3505C73.0892 45.3505 74.403 44.0366 74.6494 42.1479C74.6494 41.9016 74.8136 41.5731 75.06 41.491C75.2242 41.4089 75.5527 41.5731 75.7169 41.7374C77.195 42.887 79.0016 42.887 80.3155 41.6552C80.9724 40.9983 81.6293 40.3414 82.2863 39.6844C83.518 38.3706 83.518 36.564 82.3684 35.168C82.2041 35.0038 82.0399 34.5932 82.122 34.429C82.2863 34.1826 82.6147 34.0184 82.8611 34.0184C84.5855 33.8541 85.8994 32.5403 85.8994 30.7337C85.8994 29.8304 85.8994 28.9271 85.8994 27.9417C85.8173 26.1352 84.5855 24.8213 82.779 24.6571C82.5326 24.6571 82.122 24.4928 82.0399 24.3286C81.9578 24.1644 82.122 23.7538 82.2863 23.5896C83.4359 22.1936 83.3538 20.387 82.122 19.0731C81.4651 18.4162 80.8082 17.7593 80.1512 17.1023C79.0016 15.7885 77.195 15.7885 75.799 16.9381C75.6348 17.1023 75.2242 17.2666 75.06 17.1844C74.8958 17.1023 74.7315 16.6917 74.7315 16.4454C74.4852 14.6388 73.1713 13.325 71.2826 13.325C70.4614 13.325 69.5582 13.325 68.737 13.325C66.8483 13.325 65.5344 14.6388 65.2881 16.5275C65.2881 16.7739 65.1239 17.1023 64.8775 17.2666C64.7133 17.3487 64.3848 17.1844 64.2206 17.0202C62.7425 15.8706 60.9359 15.8706 59.622 17.1844C58.9651 17.7593 58.3903 18.4162 57.7333 18.991C56.4195 20.387 56.4195 22.1936 57.5691 23.6717C57.8155 23.7538 57.9797 24.1644 57.8976 24.2465ZM59.9505 25.8067C60.1147 25.314 60.279 24.9034 60.5253 24.4928C60.8538 23.8359 60.7717 23.2611 60.1968 22.6863C58.883 21.2903 58.883 21.2903 60.279 19.8943C60.6074 19.5658 60.9359 19.2374 61.2644 18.9089C61.7571 18.4162 62.3319 18.3341 62.7425 18.9089C63.7279 20.2228 64.7954 20.2228 66.0271 19.4837C66.2735 19.3195 66.5198 19.3195 66.8483 19.1552C67.5052 18.9089 67.8337 18.4983 67.8337 17.8414C67.8337 17.6771 67.8337 17.4308 67.8337 17.2666C67.8337 16.0348 67.9979 15.8706 69.2297 15.8706C69.8866 15.8706 70.5436 15.8706 71.1184 15.8706C71.8574 15.8706 72.1859 16.199 72.1859 16.9381C72.1859 17.1023 72.1859 17.2666 72.1859 17.5129C72.1859 18.7447 72.3501 18.991 73.4998 19.4016C73.9925 19.4016 74.403 19.6479 74.8136 19.8122C75.4706 20.1406 76.0454 20.0585 76.6202 19.4837C78.0162 18.1698 78.0162 18.1698 79.4122 19.5658C79.7406 19.8943 80.0691 20.2228 80.4797 20.6333C80.8903 21.0439 80.8903 21.5366 80.4797 22.0293C80.3155 22.2757 80.0691 22.4399 79.9049 22.6041C79.1658 23.3432 79.1658 23.6717 79.5764 24.575C79.8228 25.0677 79.987 25.4782 80.1512 25.9709C80.3976 26.7921 80.8903 27.1206 81.7114 27.1206C81.9578 27.1206 82.2863 27.1206 82.5326 27.1206C83.1895 27.1206 83.6001 27.449 83.6001 28.106C83.6001 28.9271 83.6001 29.6662 83.6001 30.4874C83.6001 31.1443 83.2717 31.4728 82.6147 31.4728C82.4505 31.4728 82.2041 31.4728 82.0399 31.4728C80.8082 31.4728 80.5618 31.637 80.1512 32.7866C79.987 33.2793 79.8228 33.6899 79.5764 34.1005C79.2479 34.7574 79.33 35.3323 79.9049 35.9071C81.2187 37.3031 81.2187 37.3031 79.9049 38.699C79.5764 39.0275 79.2479 39.356 78.9195 39.6844C78.4268 40.1771 77.8519 40.2593 77.4414 39.6844C76.5381 38.4527 75.4706 38.2885 74.2388 39.1096C73.9925 39.2739 73.7461 39.356 73.4998 39.356C72.6786 39.6023 72.3501 40.095 72.3501 40.9162C72.3501 41.1625 72.3501 41.491 72.3501 41.7374C72.3501 42.3943 71.9395 42.7228 71.3647 42.7228C70.5436 42.7228 69.8045 42.7228 68.9833 42.7228C68.3264 42.7228 67.9979 42.3943 67.9979 41.7374C67.9979 41.491 67.9979 41.2447 67.9979 41.0804C67.9979 39.9308 67.8337 39.6844 66.6841 39.2739C66.1914 39.1096 65.7808 38.9454 65.3702 38.699C64.7133 38.3706 64.1384 38.4527 63.5636 39.0275C62.1676 40.3414 62.1676 40.3414 60.7717 38.9454C60.4432 38.6169 60.1147 38.2885 59.7863 37.96C59.622 37.7958 59.4578 37.4673 59.2936 37.2209C59.5399 36.8925 59.7041 36.6461 59.9505 36.3998C61.1822 35.168 61.1822 35.168 60.4432 33.6078C60.4432 33.5257 60.3611 33.5257 60.3611 33.4436C60.0326 31.8833 59.2114 31.2264 57.5691 31.4728C56.9122 31.5549 56.5837 31.1443 56.5837 30.4874C56.5837 29.6662 56.5837 28.9271 56.5837 28.106C56.5837 27.449 56.9122 27.1206 57.5691 27.1206C57.7333 27.1206 57.9797 27.1206 58.1439 27.1206C59.2936 27.1206 59.5399 26.9563 59.9505 25.8067Z" fill="#4949FC"/>
<path d="M64.3022 57.5037C65.0413 54.219 62.3314 51.5092 58.8825 52.2482C58.2256 50.6059 56.8296 50.2774 55.1872 50.1953C53.4628 50.1953 52.1489 50.6059 51.492 52.2482C49.7675 51.5913 48.5358 52.2482 47.3861 53.3979C46.1544 54.5475 45.5796 55.8614 46.2365 57.5037C44.5121 58.2428 44.1836 59.6387 44.1836 61.2811C44.1836 63.0055 44.5942 64.3194 46.2365 64.9763C45.5796 66.7008 46.2365 67.9325 47.3861 69.0822C48.5358 70.3139 49.8496 70.8887 51.492 70.2318C53.2164 73.1059 56.9117 73.1059 59.0467 70.2318C62.2493 71.053 64.877 68.3431 64.3022 64.8942C67.1763 63.2519 67.1763 59.4745 64.3022 57.5037ZM63.8916 61.6095C63.8916 62.5949 63.8095 62.6771 62.8241 62.6771C62.1672 62.6771 61.8387 62.9234 61.5924 63.4982C61.5102 63.7446 61.4281 63.9909 61.2639 64.2373C61.0175 64.73 61.0996 65.1406 61.5102 65.5511C62.2493 66.2902 62.2493 66.3723 61.4281 67.1114C61.0996 67.4398 60.6891 67.7683 60.2785 68.1789C59.95 67.9325 59.7037 67.7683 59.5394 67.6041C59.1288 67.1114 58.6361 67.0293 58.0613 67.3577C57.8971 67.4398 57.6507 67.522 57.4044 67.6041C56.8296 67.7683 56.5832 68.1789 56.5832 68.7537C56.5832 69.7391 56.5011 69.8212 55.5157 69.8212C55.3515 69.8212 55.1051 69.8212 54.9409 69.8212C53.8734 69.8212 53.8734 69.8212 53.8734 68.7537C53.8734 68.1789 53.627 67.7683 53.0522 67.6041C52.8059 67.522 52.6416 67.4398 52.3953 67.3577C51.8205 67.0293 51.3278 67.0293 50.8351 67.6041C50.3424 68.1789 49.9318 68.1789 49.4391 67.6041C49.2748 67.4398 49.1927 67.2756 49.0285 67.1935C48.2073 66.3723 48.2073 66.3723 48.9464 65.5511C49.357 65.1406 49.4391 64.73 49.1927 64.2373C49.1106 63.9909 48.9464 63.7446 48.8643 63.4982C48.7 62.8413 48.2894 62.5949 47.6325 62.5949C46.7292 62.5949 46.6471 62.5128 46.6471 61.6095C46.6471 61.3632 46.6471 61.1168 46.6471 60.9526C46.6471 59.9672 46.7292 59.8851 47.7146 59.8851C48.3715 59.8851 48.7 59.6387 48.9464 59.0639C49.0285 58.8176 49.1106 58.5712 49.2748 58.3249C49.6033 57.8322 49.5212 57.3395 49.0285 56.9289C48.2894 56.1898 48.2894 56.1077 49.1106 55.2866C49.2748 55.1223 49.357 55.0402 49.5212 54.876C50.2602 54.1369 50.3424 54.1369 51.0814 54.876C51.492 55.2866 51.9026 55.3687 52.4774 55.1223C52.7237 54.9581 52.9701 54.876 53.2164 54.7939C53.7913 54.6296 54.0376 54.219 54.0376 53.5621C54.0376 52.5767 54.1197 52.4946 55.1051 52.4946C55.2694 52.4946 55.5157 52.4946 55.6799 52.4946C56.7475 52.4946 56.7475 52.4946 56.7475 53.5621C56.7475 54.1369 56.9938 54.5475 57.5686 54.7117C57.815 54.7939 57.9792 54.876 58.2256 54.9581C58.8004 55.2866 59.3752 55.2866 59.7858 54.7117C60.2785 54.1369 60.6891 54.1369 61.1818 54.7117C61.2639 54.876 61.4281 54.9581 61.5924 55.1223C62.4956 56.0256 62.4956 56.0256 61.6745 56.9289C61.346 57.3395 61.2639 57.6679 61.5102 58.0785C61.6745 58.3249 61.7566 58.6533 61.8387 58.8997C62.0029 59.4745 62.4135 59.7209 62.9883 59.7209C64.0559 59.7209 64.0559 59.803 64.0559 60.7884C63.8916 61.199 63.8916 61.3632 63.8916 61.6095Z" fill="#4949FC"/>
<path d="M36.3012 68.1789C35.4801 68.5895 35.6443 69.3286 35.6443 69.9855C35.5622 70.8888 35.398 71.053 34.5768 71.053C33.9199 71.053 33.2629 71.053 32.606 71.053C32.0312 71.053 31.6206 70.7246 31.7027 70.1497C31.9491 68.6716 31.2921 67.9326 29.8961 67.6041C29.7319 67.522 29.4856 67.4399 29.3213 67.3578C28.6644 67.0293 28.1717 67.1114 27.679 67.6862C27.5148 67.9326 27.2684 68.0968 27.1042 68.2611C26.6936 68.5895 26.283 68.5895 25.9545 68.2611C25.3797 67.6862 24.7228 67.1114 24.2301 66.4545C24.0658 66.2081 24.0658 65.5512 24.2301 65.4691C25.7082 64.4837 25.4618 63.2519 24.7228 62.0202C24.7228 61.9381 24.6407 61.9381 24.6407 61.8559C24.3122 60.8705 24.0658 60.7063 22.9983 60.7063C22.8341 60.7063 22.6699 60.7063 22.4235 60.7063C21.7666 60.7063 21.4381 60.3778 21.4381 59.7209C21.4381 59.1461 21.4381 58.5713 21.4381 57.9965C21.4381 56.8468 21.6845 56.6826 22.752 56.6826C24.148 56.6826 24.148 56.6826 24.6407 55.3687C24.8049 55.0403 24.887 54.7118 25.0513 54.3833C25.4618 53.7264 25.2976 53.1516 24.8049 52.5767C23.6553 51.4271 23.6553 51.4271 24.887 50.1954C24.9691 50.1132 25.0513 50.0311 25.1334 49.949C26.3651 48.7173 26.3651 48.7173 27.679 49.7027C27.5148 48.7173 27.3505 47.814 27.1863 46.9107C27.1863 46.7465 26.8578 46.5822 26.6115 46.5822C25.7082 46.5001 24.887 46.8286 24.2301 47.4855C23.6553 48.0603 22.9983 48.6351 22.4235 49.2921C21.2739 50.5238 21.1918 52.2483 22.1772 53.5622C22.3414 53.7264 22.4235 53.9727 22.6699 54.2191C22.2593 54.3012 22.0129 54.3012 21.6845 54.3833C20.1242 54.7118 19.0567 55.8614 18.9746 57.4216C18.9746 58.3249 18.9746 59.2282 18.9746 60.1315C19.0567 61.6917 20.2064 62.9235 21.7666 63.1698C22.0129 63.1698 22.2593 63.2519 22.5877 63.334C22.4235 63.5804 22.3414 63.7446 22.2593 63.8267C21.0275 65.387 21.0275 67.0293 22.5056 68.5074C22.9983 69.0001 23.5731 69.5749 24.0658 70.0676C25.2976 71.2173 27.0221 71.3815 28.3359 70.314C28.5002 70.1497 28.7465 70.0676 28.9929 69.8213C29.075 70.1497 29.075 70.314 29.075 70.4782C29.3213 72.3669 30.6352 73.5165 32.5239 73.5165C33.2629 73.5165 34.0841 73.5165 34.8231 73.5165C36.137 73.4344 37.0403 72.8596 37.6972 71.71C37.7793 71.5457 37.8615 71.2173 37.7794 71.053C37.3688 70.1497 36.7939 69.1643 36.3012 68.1789Z" fill="#4949FC"/>
<path d="M87.459 59.5568C86.9663 58.7356 86.5557 57.9145 86.063 57.0933C85.4882 56.1079 84.4206 56.1079 83.7637 57.0933C83.271 57.9145 82.7783 58.7356 82.3677 59.5568C81.6287 60.8707 82.0393 61.6918 83.6816 61.774C83.271 66.4546 81.3823 70.3962 77.8513 73.4345C76.6195 74.5021 75.2236 75.2411 73.8276 76.1444C73.2528 76.4729 72.9243 76.9656 73.1706 77.5404C73.3349 77.951 73.8276 78.2794 74.2382 78.4437C74.4845 78.5258 74.8951 78.3615 75.2236 78.1973C80.7254 75.3232 84.2564 70.8068 85.6524 64.8123C85.8987 63.8269 85.9809 62.8415 86.1451 61.8561C87.7874 61.774 88.198 60.8707 87.459 59.5568Z" fill="#4949FC"/>
<path d="M22.1782 37.4673C22.4245 37.8778 22.8351 38.2884 23.3278 38.4527C23.9026 38.6169 24.3132 38.2063 24.6417 37.7136C25.0523 37.0567 25.545 36.3176 25.9556 35.6607C26.7767 34.3468 26.5304 33.6078 24.9702 33.1972C25.7092 28.4344 27.8442 24.4928 31.868 21.7008C32.7713 21.0439 33.8388 20.5512 34.8242 19.9764C35.4811 19.6479 35.7275 18.991 35.4811 18.4162C35.2348 17.7592 34.5778 17.5129 33.8388 17.7592C33.6745 17.8414 33.5103 17.9235 33.3461 18.0056C29.076 20.0585 25.8734 23.1789 24.0669 27.6132C23.3278 29.3377 22.9172 31.2264 22.3424 33.1151C21.1107 33.1151 20.5359 33.8541 21.1107 35.0859C21.4391 35.907 21.7676 36.7282 22.1782 37.4673Z" fill="#4949FC"/>
<path d="M43.1989 35.825C43.3631 35.4144 43.4452 34.8396 43.281 34.5111C43.1989 34.1826 42.7062 34.0184 42.2135 33.6899C41.8029 34.1005 41.3102 34.3469 41.0638 34.6753C39.3394 37.221 38.6825 40.0951 39.093 43.0513C39.3394 44.6936 39.9963 46.2538 40.5711 47.814C40.8175 48.5531 41.6387 48.7173 42.2135 48.3888C42.7883 48.0604 43.0347 47.4856 42.7062 46.7465C42.6241 46.5823 42.542 46.3359 42.4598 46.1717C41.4744 43.9545 41.0639 41.6553 41.6387 39.356C42.0493 38.1242 42.7883 37.0567 43.1989 35.825Z" fill="#4949FC"/>
<path d="M30.0598 56.1898C29.8134 55.4508 29.4849 54.7117 29.1565 53.9727C27.1036 55.5329 26.3645 58.9818 27.5963 61.6095C28.828 64.3194 32.0306 66.0438 34.8225 65.3869C34.4941 64.8121 34.1656 64.2373 33.9192 63.6624C33.755 63.2519 33.4265 63.0876 33.016 63.0055C30.0598 62.4307 28.7459 59.4745 29.9776 56.7646C30.0598 56.6004 30.1419 56.354 30.0598 56.1898Z" fill="#4949FC"/>
<path d="M70.0501 35.4965C73.4169 35.4965 76.2089 32.7045 76.2089 29.3377C76.2089 25.9709 73.4169 23.179 70.0501 23.179C66.6834 23.179 63.9735 25.9709 63.9735 29.3377C63.8914 32.7045 66.6012 35.4144 70.0501 35.4965ZM69.968 25.6425C72.0209 25.6425 73.6633 27.2848 73.6633 29.3377C73.6633 31.3085 72.0209 32.9509 69.968 32.9509C67.9151 32.9509 66.2728 31.3085 66.2728 29.2556C66.3549 27.2848 67.9972 25.6425 69.968 25.6425Z" fill="#4949FC"/>
<path d="M55.2702 57.011C52.8888 57.011 50.918 58.9818 50.918 61.2811C50.918 63.6624 52.8067 65.5511 55.188 65.6332C57.5694 65.6332 59.4581 63.7446 59.4581 61.3632C59.5402 58.8997 57.6515 57.011 55.2702 57.011ZM55.188 63.0876C54.2026 63.0876 53.3815 62.1843 53.4636 61.1989C53.4636 60.2135 54.3669 59.3924 55.3523 59.3924C56.3377 59.3924 57.1588 60.2957 57.1588 61.2811C57.0767 62.3486 56.1734 63.1697 55.188 63.0876Z" fill="#4949FC"/>
</svg>
