<svg width="106" height="106" viewBox="0 0 106 106" fill="none" xmlns="http://www.w3.org/2000/svg">
<path d="M92.2563 58.3355C91.3265 57.9726 90.374 57.6778 89.5349 57.383C89.5349 54.1854 89.5349 51.1692 89.5349 48.0396C90.2833 47.7901 91.077 47.518 91.8708 47.2458C94.2066 46.4521 94.8189 45.2955 94.0932 43.005C93.4129 40.8052 92.7099 38.6055 91.9615 36.4057C91.2358 34.2286 90.0338 33.6389 87.766 34.3193C86.9042 34.5687 86.0651 34.8182 85.3394 35.0223C83.4798 32.437 81.6883 29.9651 79.8513 27.4251C80.3276 26.7674 80.8718 26.0417 81.3708 25.316C82.6861 23.4338 82.4593 22.0957 80.577 20.7124C79.2617 19.7599 77.9237 18.8074 76.5857 17.8549C72.4809 14.9521 72.4356 14.9521 69.306 18.7847C69.0565 19.1022 68.4442 19.4651 68.1494 19.3517C65.3826 18.4446 62.6613 17.4694 59.8492 16.4715C59.8492 15.5191 59.8945 14.4985 59.8492 13.5007C59.7585 11.7998 58.7606 10.7566 57.0598 10.734C54.4064 10.6886 51.7531 10.6886 49.0997 10.734C47.3988 10.7793 46.401 11.7998 46.333 13.5007C46.2876 14.5666 46.333 15.6325 46.333 16.6076C44.1332 17.288 42.0695 17.8549 40.0511 18.5579C37.4431 19.4651 37.4658 19.5104 35.7423 17.3106C34.495 15.7005 33.2023 15.3603 31.6602 16.4262C29.4604 17.923 27.3287 19.4877 25.2196 21.0979C23.7682 22.2091 23.6094 23.5245 24.6526 25.1119C25.1969 25.951 25.8092 26.7448 26.3308 27.4931C24.4712 30.0331 22.7023 32.4823 20.8427 35.0677C20.049 34.8182 19.1645 34.5234 18.2574 34.2512C16.2163 33.6389 15.0144 34.2512 14.3114 36.2696C13.5176 38.6055 12.7466 40.9867 12.0209 43.3452C11.4539 45.2048 12.0662 46.3614 13.8805 47.0644C14.8103 47.4273 15.7855 47.7221 16.6246 48.0396C16.6246 51.3279 16.6246 54.3441 16.6246 57.4057C15.7401 57.7005 14.8783 57.9726 14.0392 58.2674C11.9528 59.0158 11.3632 60.1724 12.0436 62.3495C12.7466 64.6173 13.4496 66.8625 14.2207 69.1076C14.9237 71.194 16.1483 71.7836 18.3027 71.1487C19.1645 70.8992 20.0263 70.6497 20.7973 70.4003C22.6569 72.9856 24.4485 75.4802 26.2628 77.9975C25.7412 78.7232 25.2196 79.4489 24.698 80.1746C23.4507 81.9888 23.6775 83.3042 25.469 84.6422C26.7844 85.6173 28.1224 86.5698 29.4377 87.5223C33.6105 90.5385 33.5878 90.5385 36.8308 86.5925C37.1029 86.275 37.7833 85.9802 38.1461 86.1163C40.8222 86.978 43.4528 87.9305 46.2876 88.9057C46.2876 89.7221 46.2649 90.7426 46.2876 91.7404C46.3556 93.6227 47.3535 94.6432 49.2585 94.6659C51.7984 94.7113 54.3384 94.7113 56.8783 94.6659C58.7606 94.6432 59.7585 93.6001 59.8265 91.6951C59.8492 90.6972 59.8265 89.6767 59.8265 88.8376C62.888 87.8398 65.7682 86.8873 68.8071 85.8895C69.3513 86.6152 69.9183 87.4543 70.5306 88.2253C71.7099 89.6994 73.0025 89.9715 74.522 88.9284C76.6991 87.4316 78.8535 85.8668 80.9626 84.2566C82.3686 83.1681 82.5273 81.8754 81.5749 80.3787C81.0079 79.4942 80.3729 78.6325 79.8286 77.8614C81.6883 75.2761 83.4572 72.8042 85.2714 70.2642C86.0425 70.5137 86.9042 70.7631 87.766 71.0353C89.9431 71.6929 91.1224 71.1487 91.8481 69.0396C92.6418 66.7037 93.4129 64.3225 94.1386 61.964C94.7055 60.1951 94.0705 59.0158 92.2563 58.3355ZM89.1947 68.6767C88.1742 68.3592 87.2671 68.1098 86.3826 67.815C84.8405 67.316 83.6839 67.7243 82.7541 69.0849C81.1667 71.3981 79.4885 73.6886 77.7876 75.9337C76.8351 77.181 76.7671 78.383 77.6515 79.653C78.1958 80.4467 78.7628 81.2178 79.4204 82.1249C77.2206 83.7124 75.0889 85.2545 72.8664 86.8646C72.2088 85.9802 71.6191 85.1638 71.0068 84.3474C70.0544 83.0774 68.8751 82.8506 67.401 83.3495C64.7477 84.2793 62.0716 85.1411 59.3956 86.0029C57.9215 86.4791 57.1278 87.4089 57.1278 88.9737C57.1278 89.9262 57.1278 90.856 57.1278 91.8992C54.4064 91.8992 51.8211 91.8992 48.9863 91.8992C48.9863 90.9467 48.9863 89.9489 48.9863 88.951C49.009 87.3182 48.2153 86.3657 46.6505 85.8668C44.0198 85.0504 41.3891 84.2113 38.8038 83.2815C37.1937 82.6918 35.9464 82.9867 34.9712 84.3927C34.4496 85.1184 33.9053 85.8441 33.225 86.7286C31.0252 85.1638 28.8934 83.6443 26.671 82.0795C27.2379 81.2858 27.7369 80.6281 28.2131 79.9478C29.4377 78.2016 29.347 77.2037 28.077 75.5482C26.4896 73.4845 24.9928 71.3981 23.5187 69.2437C22.3848 67.5655 21.4777 67.18 19.5047 67.7923C18.6883 68.0417 17.8945 68.2912 16.9194 68.6087C16.0803 66.0687 15.2639 63.5968 14.4021 60.9888C15.3999 60.6487 16.3071 60.3765 17.2142 60.059C18.9604 59.424 19.5047 58.4262 19.4366 56.5439C19.3459 53.9586 19.3686 51.3733 19.4366 48.788C19.5047 46.9284 18.9377 45.9305 17.1688 45.3182C16.3297 45.0234 15.468 44.7512 14.4248 44.4111C15.2412 41.8711 16.0576 39.3765 16.8967 36.7458C17.8265 37.0407 18.6656 37.3128 19.5047 37.5849C21.455 38.1972 22.3621 37.8117 23.5187 36.1562C25.0155 34.0018 26.5122 31.8927 28.0997 29.8517C29.3924 28.1735 29.5058 27.1983 28.2811 25.4521C27.8049 24.7718 27.306 24.0914 26.739 23.2977C28.9615 21.6875 31.0932 20.1454 33.293 18.5579C33.928 19.4424 34.5176 20.1908 35.0619 20.9618C36.0144 22.2998 37.239 22.572 38.7811 22.0277C41.3891 21.1206 43.9971 20.2588 46.6278 19.4424C48.1699 18.9661 49.0317 18.0363 49.009 16.3808C49.009 15.4737 49.009 14.5666 49.009 13.5461C51.685 13.5461 54.3157 13.5461 57.1505 13.5461C57.1505 14.5212 57.1505 15.5191 57.1505 16.5169C57.1278 18.1724 57.9896 19.0795 59.5544 19.5331C62.0263 20.2588 64.4982 21.0525 66.9248 21.9597C69.0565 22.7534 69.8956 22.5947 71.279 20.7577C71.7779 20.1001 72.2768 19.4197 72.8211 18.6713C75.0436 20.2815 77.1299 21.8009 79.3751 23.4338C78.7628 24.2728 78.2185 25.0439 77.6742 25.815C76.7217 27.153 76.8578 28.3776 77.8556 29.6703C79.5111 31.802 81.0986 34.0018 82.6407 36.2242C83.752 37.8117 84.6591 38.2426 86.5187 37.6757C87.3805 37.4262 88.2196 37.1314 89.2174 36.8139C90.0565 39.3765 90.8729 41.8938 91.7347 44.4791C90.6915 44.842 89.7617 45.1821 88.8092 45.4996C87.2444 46.0212 86.6775 47.1325 86.7228 48.7426C86.7908 51.4413 86.7908 54.14 86.7228 56.8387C86.6775 58.4715 87.2898 59.5601 88.8092 60.1044C89.7163 60.4219 90.6235 60.694 91.7347 61.0795C90.8729 63.5968 90.0565 66.0687 89.1947 68.6767Z" fill="#4949FC"/>
<path d="M68.4666 50.2847C70.5303 47.3365 70.4849 44.8646 68.3758 43.005C66.6069 41.4628 63.9309 41.4628 62.1847 43.005C60.0983 44.8419 60.0529 47.2685 62.0713 50.2393C61.391 50.6475 60.7333 51.033 60.2117 51.3505C58.9417 50.4207 57.7851 49.5816 56.6059 48.7425C59.0097 45.9078 59.1458 42.9823 56.9687 40.7371C55.0411 38.7415 51.7981 38.4466 49.7797 40.3289C48.8499 41.1907 48.1242 42.506 47.8067 43.7307C47.2851 45.7037 48.283 47.4045 49.5983 48.7199C48.3283 49.6497 47.1717 50.4888 45.9925 51.3505C45.3802 50.965 44.7678 50.6021 44.0648 50.1713C46.1285 47.5179 46.1285 44.978 44.1329 43.0957C42.364 41.4402 39.6199 41.3948 37.8056 42.9823C35.6966 44.8419 35.6512 47.3138 37.7149 50.262C34.8348 51.5546 33.9277 53.8905 34.1091 56.884C34.1998 58.4488 34.1545 60.0363 34.1091 61.6237C34.0637 63.0071 34.7214 63.5514 36.0594 63.5287C38.2139 63.4834 40.3456 63.506 42.5 63.5287C43.6339 63.5287 44.8359 63.2112 45.5843 64.5492C45.743 64.8441 46.5141 64.8667 46.9903 64.8667C51.0497 64.8894 55.1091 64.8894 59.1912 64.8667C59.6674 64.8667 60.4385 64.8441 60.5972 64.5492C61.3683 63.2112 62.5702 63.5287 63.7041 63.5287C65.8586 63.5287 67.9903 63.506 70.1447 63.5287C71.4827 63.5514 72.1404 62.9844 72.0951 61.6237C72.0497 60.0363 72.0043 58.4488 72.0951 56.884C72.2311 53.9132 71.3467 51.5546 68.4666 50.2847ZM40.8445 44.6151C42.0238 44.5924 42.7722 45.3181 42.8402 46.4747C42.9309 47.722 42.1825 48.5384 40.9579 48.6065C39.6879 48.6745 39.0303 47.8808 38.8262 46.6561C38.9622 45.4315 39.5972 44.6378 40.8445 44.6151ZM44.9266 60.762C42.1145 60.762 39.5519 60.762 36.8078 60.762C36.8078 58.857 36.8078 57.0201 36.8078 55.1831C36.8078 54.9564 36.8758 54.7296 36.9439 54.5255C37.5335 52.87 39.2117 52.303 42.3866 52.7112C43.9288 52.9153 44.8359 53.9132 44.8812 55.5914C44.972 57.2695 44.9266 58.9477 44.9266 60.762ZM50.3694 44.4337C50.4374 42.9823 51.7074 41.8257 53.1588 41.8711C54.6782 41.9164 55.8802 43.2771 55.7668 44.7739C55.6534 46.2253 54.338 47.3592 52.9093 47.2458C51.4352 47.1777 50.3013 45.8851 50.3694 44.4337ZM58.4655 62.1C54.837 62.1 51.3218 62.1 47.648 62.1C47.648 59.7868 47.6026 57.6324 47.6707 55.5006C47.7387 53.0968 49.3262 51.4866 51.7074 51.3732C52.6599 51.3279 53.635 51.3279 54.5875 51.3732C56.7193 51.5093 58.3748 53.006 58.4655 55.1151C58.5562 57.4056 58.4655 59.6961 58.4655 62.1ZM65.2009 44.6151C66.4482 44.5924 67.2419 45.3181 67.2646 46.5881C67.2873 47.8581 66.4709 48.4704 65.337 48.6518C64.0216 48.4704 63.2506 47.8127 63.2733 46.5428C63.2959 45.3635 64.0216 44.6378 65.2009 44.6151ZM69.3283 60.6939C66.5389 60.6939 63.8856 60.6939 61.1869 60.6939C61.1869 58.925 61.1642 57.2922 61.1869 55.6594C61.2322 53.7771 62.2301 52.7793 64.135 52.7112C64.4072 52.6885 64.702 52.7112 64.9741 52.7112C68.6707 52.7112 69.3056 53.3462 69.3056 56.9747C69.3283 58.1993 69.3283 59.424 69.3283 60.6939Z" fill="#4949FC"/>
<path d="M75.2249 39.3086C83.1396 53.8679 76.3815 67.9284 67.4236 73.9155C57.7173 80.4241 45.2443 78.95 38.7584 73.734C39.8469 73.666 40.8221 73.6206 41.7746 73.5526C41.7746 72.6228 41.7746 71.8064 41.7746 70.9446C39.0532 70.9446 36.4452 70.9219 33.8599 70.9446C32.5672 70.9446 32.091 71.7157 32.4538 72.8496C33.2929 75.3895 34.2681 77.9068 35.1979 80.4695C36.0824 80.152 36.8081 79.8798 37.6925 79.5623C37.2616 78.3377 36.8988 77.2492 36.3999 75.8204C50.4603 85.1412 66.3351 81.0591 74.8167 71.0353C83.5251 60.7168 83.0716 46.4295 77.2886 38.0386C76.631 38.4695 75.9279 38.9003 75.2249 39.3086Z" fill="#4949FC"/>
<path d="M40.7316 30.0784C50.8914 24.7037 62.8428 27.3344 67.5372 31.8473C66.3579 31.8473 65.3827 31.8473 64.4076 31.8473C64.4076 32.7998 64.4076 33.5482 64.4076 34.4326C67.2197 34.4326 69.9184 34.4553 72.6171 34.41C73.5922 34.3873 74.1365 33.6843 73.8417 32.7998C72.9799 30.1465 72.0048 27.5158 71.0523 24.8624C70.0998 25.2253 69.3741 25.4748 68.535 25.7922C68.9432 27.0395 69.2834 28.1281 69.6916 29.3981C53.7715 18.9661 37.3525 25.9964 30.2996 35.4078C22.3622 45.9758 23.4735 59.9229 28.8709 67.3387C29.5285 66.9305 30.1862 66.5449 30.8439 66.1367C22.0221 50.0352 31.116 35.1583 40.7316 30.0784Z" fill="#4949FC"/>
</svg>
