<svg width="106" height="106" viewBox="0 0 106 106" fill="none" xmlns="http://www.w3.org/2000/svg">
<path d="M82.4927 55.1127C82.3566 50.8278 82.0846 46.543 81.8805 42.2581C81.8125 40.7392 81.0644 40.3084 79.6588 40.5578C75.3966 41.3286 71.1118 42.0314 66.8496 42.8476C66.2828 42.9609 65.4893 43.437 65.3533 43.8905C65.2173 44.3439 65.6707 45.16 66.0788 45.5681C67.1216 46.5657 68.3005 47.4272 69.4114 48.334C65.1946 54.2738 65.1946 54.2738 58.2799 54.3419C57.5998 54.3419 56.9196 54.2965 56.2395 54.3645C54.0177 54.6139 52.068 54.3192 50.5037 52.4375C49.3475 51.0545 47.9645 50.8732 46.6496 52.3921C45.9468 53.1856 45.2213 53.163 44.7226 52.5735C44.7226 51.3946 45.04 50.3064 44.6546 49.5582C43.9064 48.0846 44.5412 47.2458 45.4934 46.3389C46.0602 45.7948 46.6043 45.2054 47.1257 44.6159C52.7028 38.5174 52.4534 29.1089 46.5363 23.3731C40.6418 17.66 31.3466 17.6146 25.4068 23.2598C19.4216 28.9275 19.0815 38.336 24.5906 44.4799C25.4295 45.4094 26.3363 46.2483 27.1071 47.2231C27.3792 47.5405 27.4925 48.1073 27.4472 48.538C27.3565 49.8303 27.1751 51.1226 26.9484 52.8682C26.3816 53.5484 25.7015 52.7095 25.0667 52.0974C24.0239 51.0999 23.0263 51.0092 21.9834 52.0294C20.5325 53.435 19.1042 54.8633 17.6533 56.2916C16.361 57.5611 16.293 58.7854 17.6533 60.0323C18.2654 60.5991 18.4468 61.1885 17.9253 61.9367C17.5853 62.4581 17.3132 63.0476 17.1998 63.637C16.9505 64.7932 16.3157 65.292 15.1141 65.2693C14.1619 65.2693 13.051 65.428 13.0284 66.743C12.983 69.3728 12.9603 72.0253 13.0737 74.6552C13.0964 75.1086 13.8218 75.9248 14.1619 75.8794C16.429 75.6754 17.0185 77.149 17.744 78.8493C18.2881 80.0962 18.22 80.9124 17.2679 81.7966C16.5424 82.4767 16.2023 83.3609 16.9958 84.177C18.7868 86.0361 20.6005 87.8951 22.5049 89.6181C22.8676 89.9582 24.0465 90.0262 24.2959 89.7315C25.7922 88.0085 27.2205 88.7339 28.9208 89.3687C30.2584 89.8675 30.6665 90.5703 30.6438 91.8172C30.6211 92.9734 31.1879 93.6536 32.3668 93.6762C34.77 93.6989 37.1958 93.6989 39.5989 93.6762C40.6871 93.6762 41.3673 93.0868 41.3219 92.0212C41.2312 90.2756 42.1607 89.5728 43.6797 89.1874C44.3825 89.006 45.0173 88.6206 45.7201 88.3032C46.0375 88.5526 46.4002 88.7339 46.6723 89.0287C47.8739 90.2982 49.0528 90.3662 50.2997 89.0967C51.7506 87.6004 53.2242 86.1268 54.6752 84.6531C55.6274 83.6783 55.7181 82.6354 54.6525 81.7059C52.7255 80.0282 54.7886 78.6906 54.9926 77.1943C55.174 75.9021 56.2395 76.0608 57.101 76.0381C58.4613 75.9928 59.0734 75.29 59.0961 74.043C59.1414 71.9573 59.1187 69.8716 59.1641 67.8085C59.2094 66.0401 58.3479 65.1786 56.6022 65.2467C55.2193 65.292 54.9019 64.5439 54.9019 63.0929C58.756 63.0929 62.5421 63.0249 66.3281 63.1156C67.9378 63.1609 69.0714 62.6622 70.0916 61.3926C72.132 58.8534 74.3311 56.4276 76.4848 53.9564C77.641 54.8633 78.5932 55.7475 79.6814 56.4503C80.2709 56.8357 81.2231 57.2891 81.6992 57.0624C82.1979 56.8357 82.5153 55.7928 82.4927 55.1127ZM44.6546 56.3823C45.8108 55.8835 46.7856 55.4301 47.7832 55.022C48.2366 54.8406 48.758 54.7726 49.2341 54.6592C49.3248 54.9086 49.4155 55.158 49.4835 55.4074C47.6472 57.0624 45.8108 58.7174 43.8611 60.4631C43.4303 60.1683 42.7729 59.7149 42.1381 59.2842C43.1583 58.1279 43.9971 57.1304 44.6546 56.3823ZM35.7675 75.0859C36.1756 75.4713 36.561 75.8794 36.9917 76.2648C38.556 77.6251 40.143 77.6024 41.6393 76.1288C43.0449 74.7685 44.4052 73.3629 45.8561 71.912C45.9922 75.8567 42.3421 79.8242 37.9666 80.7084C33.115 81.6832 28.1953 78.872 26.495 74.1564C24.84 69.5995 26.6764 64.5212 30.7798 62.1861C34.0672 64.2945 37.3318 64.6799 40.6871 62.3674C40.9818 62.1634 41.5713 62.3901 42.4781 62.4581C39.9843 65.0426 37.8532 67.2644 35.6995 69.4862C33.6817 71.5946 33.6817 73.0455 35.7675 75.0859ZM31.2559 54.2738C34.3845 54.1832 37.5358 54.2058 40.6871 54.2738C41.0952 54.2738 41.5033 54.8406 41.9114 55.1353C41.5259 55.5208 41.1405 56.2009 40.7325 56.2236C39.1228 56.3596 37.4905 56.2689 35.8582 56.2689C34.3392 56.2689 32.8202 56.3369 31.3239 56.2236C30.8705 56.1782 30.4624 55.5888 30.0317 55.2487C30.4171 54.9086 30.8252 54.2738 31.2559 54.2738ZM29.737 50.4197C30.2357 50.0797 30.7118 49.4449 31.2333 49.4222C34.3845 49.3315 37.5358 49.3315 40.6871 49.4222C41.1859 49.4449 41.662 50.0797 42.1607 50.4424C41.662 50.7825 41.1859 51.3946 40.6644 51.4399C39.1001 51.576 37.5132 51.4853 35.9489 51.4853C34.3846 51.4853 32.7976 51.576 31.2333 51.4399C30.6892 51.3946 30.2357 50.7825 29.737 50.4197ZM39.4629 59.1028C38.6467 61.3699 36.8784 61.0298 35.3141 61.0525C33.9765 61.0752 32.9336 60.6217 32.4575 59.1028C34.7926 59.1028 37.0144 59.1028 39.4629 59.1028ZM26.7444 42.8022C22.0968 37.7693 22.3235 29.9931 27.2658 25.2775C32.1628 20.5846 39.8483 20.6299 44.6772 25.3455C49.5515 30.1291 49.7329 37.9053 45.0626 42.8929C44.1105 43.9131 43.1809 44.9787 42.2061 45.9989C41.9567 46.2709 41.6166 46.5883 41.2992 46.611C40.0297 46.679 38.7374 46.6337 37.2865 46.6337C37.2865 44.2985 37.2411 42.1675 37.3318 40.0364C37.3545 39.5603 37.8079 39.0388 38.1706 38.6534C39.5309 37.2252 40.9365 35.8422 42.3421 34.4593C43.0676 33.7565 43.5437 32.963 42.6595 32.1468C41.866 31.3987 41.1179 31.8294 40.4604 32.5096C39.0321 34.0285 37.5812 35.5248 35.9262 37.2252C34.3846 35.6155 32.9789 34.1419 31.596 32.6909C30.8932 31.9655 30.077 31.308 29.1702 32.2375C28.218 33.1897 29.0115 33.9605 29.7143 34.6633C30.077 35.0261 30.3718 35.4568 30.8025 35.7289C34.838 38.336 35.11 42.1901 34.3392 46.543C32.2535 46.7244 30.0317 47.3138 28.6034 44.7746C28.1727 44.0265 27.3565 43.4824 26.7444 42.8022ZM56.5116 67.9218C56.5116 69.8036 56.5116 71.5266 56.5116 73.1589C56.2848 73.2949 56.1942 73.4083 56.1035 73.4083C53.859 73.2949 52.6575 74.3831 52.3854 76.5595C52.3401 76.945 52.1587 77.3304 51.9547 77.6478C50.7078 79.6201 49.8916 81.5472 52.7028 83.2249C51.2745 84.6758 50.073 85.9 48.826 87.1696C48.1913 86.6935 47.7832 86.4668 47.4885 86.1721C46.5589 85.2426 45.6521 85.1292 44.4732 85.832C43.3623 86.4668 42.1381 87.0109 40.9138 87.3283C39.5536 87.6911 38.8054 88.3712 38.8961 89.7768C38.9641 90.9784 38.3973 91.3411 37.2865 91.2958C36.0622 91.2278 34.8153 91.2731 33.7044 91.2731C33.523 91.0237 33.387 90.933 33.387 90.8423C33.4777 88.4619 32.2308 87.283 29.9637 86.9429C29.5783 86.8749 29.1929 86.7162 28.8755 86.5122C26.9938 85.1746 25.1801 84.8798 23.4344 87.3963C22.1421 85.9 21.0313 84.5851 19.875 83.2249C19.875 83.2249 19.8524 83.0662 19.9204 83.0208C21.5527 81.5472 21.7794 79.9602 20.3965 78.1692C20.0111 77.6478 19.7617 76.9676 19.6257 76.3102C19.2629 74.5872 18.6281 73.3629 16.5424 73.4763C16.2023 73.4989 15.6809 72.7961 15.5222 72.32C15.3408 71.7533 15.4995 71.0958 15.4315 70.4837C15.2728 68.8287 15.5222 67.6271 17.6533 67.7405C18.152 67.7631 18.8548 67.015 19.1496 66.4482C19.6483 65.5187 19.739 64.3398 20.3058 63.4783C21.53 61.5739 21.8701 59.8736 19.3763 58.1506C20.8726 56.8357 22.1875 55.6794 23.4344 54.5912C24.5906 55.1807 25.7922 55.7928 27.4018 56.609C27.8779 57.1531 28.7621 58.1506 29.7596 59.3068C29.3516 59.6242 28.9435 59.9643 28.5127 60.259C23.5024 63.9544 21.7794 70.529 24.3866 76.1288C27.0164 81.7739 33.2737 84.7211 39.3269 83.1342C45.2213 81.6152 49.2341 76.0154 48.9167 69.8262C48.8941 69.2821 49.0528 68.5793 49.3928 68.1712C50.2997 67.1737 51.3425 66.3122 52.4988 65.2467C52.6575 67.6045 54.3125 68.1259 56.5116 67.9218ZM78.6839 52.2334C76.0994 50.2384 76.0994 50.2384 74.0137 52.6642C72.132 54.8406 70.2276 56.9944 68.3912 59.2161C67.6884 60.055 66.9403 60.4404 65.8067 60.4404C62.2473 60.4177 58.688 60.5991 55.1513 60.5537C53.4963 60.5311 52.3174 61.0525 51.1838 62.2767C47.3524 66.4029 43.385 70.4157 39.1908 74.7459C38.3973 73.8163 37.7625 73.0455 37.0144 72.1614C37.1958 71.912 37.4452 71.5719 37.7399 71.2545C41.934 66.9017 46.1055 62.5488 50.3677 58.264C51.0025 57.6292 52.0907 57.1984 52.9749 57.1757C56.6929 56.9944 60.4337 57.1077 64.1291 56.9037C65.0586 56.8583 66.1468 56.2689 66.8269 55.5888C68.5953 53.7751 70.2049 51.8027 71.8372 49.8756C73.2428 48.2206 73.1975 47.8579 71.4972 46.475C71.0211 46.0896 70.5676 45.6815 69.8195 45.0467C73.0615 44.4799 76.0087 43.9585 79.2053 43.3917C79.364 46.5657 79.5227 49.5582 79.6814 52.8229C79.228 52.5508 78.9333 52.4148 78.6839 52.2334Z" fill="#4949FC"/>
<path d="M92.7403 64.9746C92.7403 63.0476 91.8561 62.2087 89.9517 62.1634C88.2061 62.1407 86.4604 62.118 84.7147 62.1634C82.901 62.2087 81.9715 63.0702 81.9715 64.8839C81.9262 73.907 81.9262 82.9301 81.9715 91.9532C81.9715 93.7669 82.9237 94.6284 84.7147 94.6738C86.415 94.7191 88.0927 94.6964 89.793 94.6738C91.9241 94.6511 92.763 93.8349 92.763 91.7038C92.7856 87.3057 92.763 82.9075 92.763 78.5093C92.763 73.975 92.763 69.4635 92.7403 64.9746ZM89.9291 91.8625C88.2514 91.8625 86.5737 91.8625 84.7827 91.8625C84.7827 82.9301 84.7827 74.0204 84.7827 64.9293C86.5511 64.9293 88.1834 64.9293 89.9291 64.9293C89.9291 73.907 89.9291 82.8168 89.9291 91.8625Z" fill="#4949FC"/>
<path d="M79.8633 73.1815C79.8407 71.1864 78.9792 70.3249 76.9841 70.2796C75.2384 70.2569 73.4927 70.2343 71.7471 70.2796C70.0467 70.3249 69.0946 71.2091 69.0946 72.9094C69.0492 79.28 69.0492 85.6506 69.0946 91.9985C69.0946 93.6989 70.0467 94.583 71.7471 94.6284C73.4927 94.6737 75.2384 94.651 76.9841 94.6284C79.0018 94.6057 79.8633 93.7669 79.886 91.7491C79.9087 88.6432 79.886 85.5599 79.886 82.454C79.8633 79.3934 79.886 76.2874 79.8633 73.1815ZM77.0294 91.8625C75.3518 91.8625 73.6741 91.8625 71.8831 91.8625C71.8831 85.6506 71.8831 79.4387 71.8831 73.0455C73.6514 73.0455 75.2838 73.0455 77.0294 73.0455C77.0294 79.3254 77.0294 85.5373 77.0294 91.8625Z" fill="#4949FC"/>
<path d="M67.4844 86.1721C67.4844 84.1998 67.5298 82.2274 67.4618 80.255C67.3937 78.4866 66.5549 77.7158 64.8092 77.6705C62.9502 77.6251 61.0912 77.6251 59.2321 77.6705C57.5772 77.7158 56.7383 78.532 56.7156 80.2096C56.6703 84.1544 56.6703 88.0992 56.7156 92.044C56.7383 93.767 57.6225 94.6058 59.3455 94.6511C61.0912 94.6965 62.8368 94.6738 64.5825 94.6511C66.5776 94.6285 67.4391 93.7896 67.4844 91.7492C67.5298 89.8902 67.5071 88.0312 67.4844 86.1721C67.5071 86.1721 67.5071 86.1721 67.4844 86.1721ZM64.6505 91.8399C62.9955 91.8399 61.3406 91.8399 59.5495 91.8399C59.5495 88.1219 59.5495 84.3811 59.5495 80.459C61.2725 80.459 62.8822 80.459 64.6505 80.459C64.6505 84.2224 64.6505 87.9632 64.6505 91.8399Z" fill="#4949FC"/>
<path d="M49.1204 22.9876C49.4831 22.9196 49.7098 22.965 49.8232 22.8516C51.0474 21.65 52.317 20.4711 53.4279 19.1789C53.6093 18.9522 53.3599 17.9546 53.0425 17.7733C52.6344 17.5239 51.7729 17.5239 51.4102 17.8186C50.322 18.7028 49.3244 19.7003 48.4403 20.7659C48.1682 21.1059 48.1455 21.8087 48.2816 22.2848C48.3496 22.6249 48.8937 22.8289 49.1204 22.9876Z" fill="#4949FC"/>
<path d="M35.9941 17.3426C36.4248 17.3199 37.0143 16.6171 37.1956 16.0957C37.3997 15.5062 37.241 14.7581 37.241 14.1006C37.241 13.4205 37.3997 12.695 37.1956 12.1056C37.0143 11.5615 36.4248 11.176 36.0394 10.7C35.5633 11.1534 34.7245 11.5388 34.6565 12.0375C34.4751 13.4205 34.4978 14.8488 34.6791 16.2317C34.7245 16.6625 35.5406 17.3426 35.9941 17.3426Z" fill="#4949FC"/>
<path d="M52.861 35.0487C52.9291 35.5475 53.5185 36.1596 54.0399 36.3636C54.6294 36.5903 55.3775 36.409 56.035 36.409C56.7151 36.409 57.4406 36.5677 58.0527 36.3636C58.5742 36.1822 59.1863 35.5928 59.277 35.1167C59.345 34.754 58.6875 33.8925 58.2794 33.8471C56.8285 33.6884 55.3549 33.6884 53.9039 33.8244C53.4958 33.8698 52.793 34.686 52.861 35.0487Z" fill="#4949FC"/>
<path d="M21.5525 22.5115C21.9832 22.8289 22.8221 22.5795 23.4795 22.5795C23.4342 21.9221 23.6609 21.1059 23.3208 20.6525C22.55 19.6323 21.5751 18.7708 20.623 17.9093C20.3509 17.6599 19.9655 17.5465 19.5121 17.3198C19.1493 17.6145 18.6506 17.8186 18.5599 18.1587C18.4239 18.6347 18.4465 19.3376 18.7186 19.6776C19.5574 20.6978 20.4869 21.718 21.5525 22.5115Z" fill="#4949FC"/>
<path d="M14.0485 36.3636C14.6379 36.5903 15.3861 36.4089 16.0435 36.4089C16.0435 36.4089 16.0435 36.4089 16.0435 36.4316C16.6103 36.4316 17.2451 36.613 17.6985 36.3862C18.288 36.1142 18.7641 35.5247 19.2628 35.0713C18.7867 34.6179 18.356 33.8697 17.8119 33.8017C16.5423 33.6204 15.2274 33.643 13.9578 33.8244C13.4817 33.8924 12.8242 34.6632 12.8242 35.1167C12.8469 35.5474 13.527 36.1595 14.0485 36.3636Z" fill="#4949FC"/>
</svg>
