<svg width="1440" height="782" viewBox="0 0 1440 782" fill="none" xmlns="http://www.w3.org/2000/svg">
<g filter="url(#filter0_d_1_3940)">
<path d="M91.9328 220.91H-4V853H1444V83H1399.26C1389.32 83 1381.26 91.0589 1381.26 101V253.376C1381.26 264.422 1372.31 273.376 1361.26 273.376H1270.77C1260.83 273.376 1252.77 281.435 1252.77 291.376V301.345C1252.77 312.391 1243.82 321.345 1232.77 321.345H129.933C118.887 321.345 109.933 312.391 109.933 301.345V238.91C109.933 228.969 101.874 220.91 91.9328 220.91Z" fill="black" shape-rendering="crispEdges"/>
<path d="M91.9328 220.91H-4V853H1444V83H1399.26C1389.32 83 1381.26 91.0589 1381.26 101V253.376C1381.26 264.422 1372.31 273.376 1361.26 273.376H1270.77C1260.83 273.376 1252.77 281.435 1252.77 291.376V301.345C1252.77 312.391 1243.82 321.345 1232.77 321.345H129.933C118.887 321.345 109.933 312.391 109.933 301.345V238.91C109.933 228.969 101.874 220.91 91.9328 220.91Z" stroke="url(#paint0_linear_1_3940)" shape-rendering="crispEdges"/>
</g>
<defs>
<filter id="filter0_d_1_3940" x="-77.1" y="0.900002" width="1594.2" height="916.2" filterUnits="userSpaceOnUse" color-interpolation-filters="sRGB">
<feFlood flood-opacity="0" result="BackgroundImageFix"/>
<feColorMatrix in="SourceAlpha" type="matrix" values="0 0 0 0 0 0 0 0 0 0 0 0 0 0 0 0 0 0 127 0" result="hardAlpha"/>
<feOffset dy="-9"/>
<feGaussianBlur stdDeviation="36.3"/>
<feComposite in2="hardAlpha" operator="out"/>
<feColorMatrix type="matrix" values="0 0 0 0 0.286275 0 0 0 0 0.286275 0 0 0 0 0.988235 0 0 0 0.22 0"/>
<feBlend mode="normal" in2="BackgroundImageFix" result="effect1_dropShadow_1_3940"/>
<feBlend mode="normal" in="SourceGraphic" in2="effect1_dropShadow_1_3940" result="shape"/>
</filter>
<linearGradient id="paint0_linear_1_3940" x1="782.487" y1="300.359" x2="825.286" y2="496.312" gradientUnits="userSpaceOnUse">
<stop offset="0.73654" stop-color="white"/>
<stop offset="1" stop-color="#999999" stop-opacity="0"/>
</linearGradient>
</defs>
</svg>
