<svg width="169" height="72" viewBox="0 0 169 72" fill="none" xmlns="http://www.w3.org/2000/svg">
<path d="M21.4265 45.1692C21.4265 45.1692 21.2335 53.2765 20.8474 55.5929C17.248 68.9623 7.86923 72.5901 2.02748 72.966H168.517V0C165.737 14.8248 151.723 17.952 147.09 17.9517C119.098 17.9503 59.4152 18.8783 44.5903 17.9517C29.7655 17.0252 22.5847 27.7966 22.0056 34.7455C21.6196 37.0619 21.4265 45.1692 21.4265 45.1692Z" fill="black"/>
<path d="M0 72.9658L0.00340897 72.966M0.00340897 72.966H2.02748M0.00340897 72.966C0.609275 73.0091 1.29021 73.0135 2.02748 72.966M2.02748 72.966C7.86923 72.5901 17.248 68.9623 20.8474 55.5929C21.2335 53.2765 21.4265 45.1692 21.4265 45.1692C21.4265 45.1692 21.6196 37.0619 22.0056 34.7455C22.5847 27.7966 29.7655 17.0252 44.5903 17.9517C59.4152 18.8783 119.098 17.9503 147.09 17.9517C151.723 17.952 165.737 14.8248 168.517 0V72.966H2.02748Z" stroke="white" stroke-linejoin="round"/>
</svg>
