<svg width="16" height="16" viewBox="0 0 16 16" fill="none" xmlns="http://www.w3.org/2000/svg">
<path d="M10.3998 7.20019C10.3998 7.83671 10.1469 8.44716 9.69682 8.89725C9.24673 9.34733 8.63628 9.60019 7.99976 9.60019C7.36324 9.60019 6.75279 9.34733 6.30271 8.89725C5.85262 8.44716 5.59976 7.83671 5.59976 7.20019C5.59976 6.56367 5.85262 5.95322 6.30271 5.50313C6.75279 5.05305 7.36324 4.80019 7.99976 4.80019C8.63628 4.80019 9.24673 5.05305 9.69682 5.50313C10.1469 5.95322 10.3998 6.56367 10.3998 7.20019ZM9.59976 7.20019C9.59976 6.77584 9.43119 6.36888 9.13113 6.06882C8.83107 5.76876 8.42411 5.60019 7.99976 5.60019C7.57542 5.60019 7.16845 5.76876 6.86839 6.06882C6.56833 6.36888 6.39976 6.77584 6.39976 7.20019C6.39976 7.62454 6.56833 8.0315 6.86839 8.33156C7.16845 8.63162 7.57542 8.80019 7.99976 8.80019C8.42411 8.80019 8.83107 8.63162 9.13113 8.33156C9.43119 8.0315 9.59976 7.62454 9.59976 7.20019ZM11.9598 11.1642C13.0101 10.1133 13.6001 8.68836 13.6001 7.20259C13.6001 5.71682 13.0101 4.29186 11.9598 3.24099C11.4397 2.72092 10.8224 2.30838 10.1429 2.02692C9.46346 1.74545 8.73521 1.60059 7.99976 1.60059C7.26431 1.60059 6.53606 1.74545 5.8566 2.02692C5.17714 2.30838 4.55978 2.72092 4.03976 3.24099C2.98944 4.29186 2.39941 5.71682 2.39941 7.20259C2.39941 8.68836 2.98944 10.1133 4.03976 11.1642L5.25656 12.3634L6.89096 13.9514L6.99736 14.0458C7.61736 14.5482 8.52536 14.5162 9.10936 13.9514L11.0574 12.0554L11.9598 11.1642ZM4.60376 3.80499C5.04955 3.3587 5.57894 3.00466 6.16165 2.7631C6.74436 2.52155 7.36897 2.39721 7.99976 2.39721C8.63056 2.39721 9.25516 2.52155 9.83788 2.7631C10.4206 3.00466 10.95 3.3587 11.3958 3.80499C12.2712 4.68155 12.7745 5.86218 12.8007 7.10073C12.8269 8.33928 12.3741 9.54015 11.5366 10.453L11.3958 10.6002L10.339 11.6434L8.55496 13.3786L8.47976 13.4426C8.3412 13.5463 8.17272 13.6023 7.99963 13.6022C7.82653 13.602 7.65815 13.5458 7.51976 13.4418L7.44536 13.3778L5.06136 11.0538L4.60376 10.6002L4.46296 10.4538C3.62545 9.54095 3.1726 8.34008 3.19883 7.10153C3.22507 5.86298 3.72835 4.68155 4.60376 3.80499Z" fill="#4949FC"/>
</svg>
