<svg width="150" height="225" viewBox="0 0 150 225" fill="none" xmlns="http://www.w3.org/2000/svg">
<path d="M85.2178 212.474C120.749 205.892 144.878 167.677 139.112 127.119C133.345 86.5615 99.8668 59.0189 64.3354 65.6011C28.8039 72.1834 4.67469 110.398 10.4412 150.956C16.2077 191.514 49.6864 219.056 85.2178 212.474Z" fill="#4839F2"/>
<path d="M74.762 199.459C103.998 199.459 127.698 172.406 127.698 139.035C127.698 105.663 103.998 78.6102 74.762 78.6102C45.5264 78.6102 21.8262 105.663 21.8262 139.035C21.8262 172.406 45.5264 199.459 74.762 199.459Z" fill="url(#paint0_linear_2174_13390)"/>
<path d="M74.7625 198.737C103.649 198.737 127.066 172.007 127.066 139.035C127.066 106.062 103.649 79.332 74.7625 79.332C45.8761 79.332 22.459 106.062 22.459 139.035C22.459 172.007 45.8761 198.737 74.7625 198.737Z" fill="url(#paint1_linear_2174_13390)"/>
<path d="M74.7624 193.169C100.955 193.169 122.188 168.932 122.188 139.035C122.188 109.137 100.955 84.9001 74.7624 84.9001C48.57 84.9001 27.3369 109.137 27.3369 139.035C27.3369 168.932 48.57 193.169 74.7624 193.169Z" fill="#F1F0F0"/>
<path d="M74.7616 192.396C100.58 192.396 121.51 168.505 121.51 139.035C121.51 109.564 100.58 85.6735 74.7616 85.6735C48.9434 85.6735 28.0137 109.564 28.0137 139.035C28.0137 168.505 48.9434 192.396 74.7616 192.396Z" fill="url(#paint2_linear_2174_13390)"/>
<path d="M91.9364 29.1876C89.4797 20.1535 80.452 14.525 71.2619 16.2993C61.1293 18.2557 54.7014 28.4142 57.3012 38.3713C58.3021 42.2059 60.3689 45.3581 63.4366 47.8539C64.5415 48.7508 65.1849 49.9077 65.3084 51.3246C65.4059 52.4815 65.3409 53.6384 65.3474 54.8018C65.3539 56.4136 66.4393 57.5185 68.0577 57.5185C70.2545 57.525 72.4577 57.5185 74.6545 57.5185C76.8838 57.5185 79.1196 57.525 81.3489 57.5185C82.8243 57.512 83.9552 56.3746 83.9552 54.8993C83.9552 53.9568 83.9682 53.0144 83.9552 52.072C83.9292 50.2847 84.6181 48.8548 86.009 47.7239C91.488 43.2523 93.7953 36.0185 91.9364 29.1876ZM77.4818 56.1146C76.5394 56.1081 75.597 56.1146 74.6545 56.1146C73.7121 56.1146 72.7697 56.1081 71.8273 56.1211C71.6063 56.1211 71.5283 56.0561 71.5283 55.8287C71.5348 54.2558 71.5283 52.6895 71.5348 51.1166C71.5413 50.4147 72.0483 49.9012 72.7437 49.8947C74.0111 49.8817 75.2785 49.8817 76.5459 49.8947C77.2478 49.9012 77.7613 50.4082 77.7613 51.1101C77.7743 52.6895 77.7613 54.2688 77.7678 55.8547C77.7743 56.0756 77.6768 56.1146 77.4818 56.1146ZM69.858 38.0333C69.8385 37.7863 69.8385 37.5329 69.858 37.2859C69.871 37.0454 69.78 36.9999 69.5525 37.0194C68.1097 37.1559 66.8748 38.1373 66.4653 39.5282C66.3808 39.8272 66.2378 39.8856 65.9649 39.8726C64.8535 39.8142 63.976 38.9692 63.898 37.8708C63.8201 36.7464 64.5675 35.778 65.6854 35.596C65.9973 35.544 66.0753 35.4336 66.0428 35.1476C66.0168 34.9006 66.0298 34.6471 66.0428 34.4002C66.0558 34.1857 65.9779 34.1207 65.7634 34.1402C65.0679 34.2182 64.431 34.4327 63.885 34.8746C63.6901 35.0306 63.5276 35.0306 63.3261 34.9396C62.5007 34.5691 62.0262 33.9322 61.9872 33.0288C61.9482 32.1124 62.3577 31.4104 63.1896 31.0075C63.989 30.6175 64.782 30.6955 65.4709 31.261C65.7114 31.4559 65.8284 31.4299 66.0168 31.2285C66.1988 31.0335 66.4068 30.8515 66.6213 30.689C66.7838 30.5655 66.7513 30.4875 66.6213 30.364C66.0298 29.7986 65.3279 29.4671 64.5155 29.3891C64.314 29.3696 64.21 29.2916 64.119 29.1226C63.3976 27.7253 64.4765 25.9834 66.0493 25.9899C66.2768 25.9899 66.3808 26.0679 66.4523 26.3019C66.8618 27.6993 68.0772 28.7132 69.468 28.8497C69.741 28.8757 69.9165 28.8367 69.858 28.5117C69.8515 28.4597 69.858 28.4012 69.858 28.3492C69.858 28.0892 69.9165 27.8033 69.832 27.5758C69.728 27.2963 69.3835 27.4263 69.1496 27.3418C68.1486 26.9713 67.5572 25.9509 67.7522 24.872C67.9342 23.8711 68.8961 23.1042 69.923 23.1367C70.9824 23.1692 71.8793 23.9751 71.9963 25.0215C72.0288 25.3205 72.0288 25.626 72.0288 25.9314C72.0288 27.6733 72.0288 29.4151 72.0288 31.1635C72.0288 31.5469 72.0288 31.5469 71.6778 31.4299C70.144 30.9165 68.5386 31.8524 68.2396 33.4317C68.1551 33.8737 68.1746 33.8997 68.6166 33.8997C68.7011 33.8997 68.7921 33.8932 68.8766 33.8997C69.2925 33.9322 69.637 33.9517 69.7735 33.3798C69.8905 32.8923 70.4884 32.6388 70.9824 32.7103C71.5023 32.7818 71.9313 33.1848 72.0028 33.7047C72.0808 34.2637 72.0223 34.8291 72.0353 35.3946C72.0418 36.0315 72.0353 36.6749 72.0353 37.3119C72.0353 38.4038 72.0483 39.5022 72.0288 40.5941C72.0158 41.608 71.3464 42.4529 70.3974 42.6934C69.455 42.9339 68.4671 42.5049 67.9862 41.6535C67.2582 40.3601 68.0252 38.7288 69.507 38.4818C69.806 38.4168 69.884 38.2998 69.858 38.0333ZM71.8923 43.5253C72.8867 42.8234 73.4067 41.8485 73.4392 40.6331C73.4457 40.3861 73.5236 40.3211 73.7576 40.3276C74.3556 40.3406 74.947 40.3471 75.545 40.3276C75.7919 40.3211 75.8439 40.4056 75.8569 40.6396C75.9024 41.855 76.4159 42.8234 77.4168 43.5253C77.5533 43.6228 77.5988 43.7008 77.5403 43.8698C77.0593 45.3256 76.5849 46.788 76.1169 48.2569C76.0584 48.4388 75.9609 48.4843 75.7854 48.4778C75.4085 48.4713 75.025 48.4778 74.648 48.4778C74.2711 48.4778 73.8876 48.4713 73.5106 48.4843C73.3352 48.4908 73.2377 48.4454 73.1792 48.2634C72.7177 46.801 72.2433 45.3386 71.7688 43.8763C71.7168 43.7008 71.7558 43.6228 71.8923 43.5253ZM77.2673 37.2924C77.2673 36.2005 77.2673 35.1021 77.2673 34.0102C77.2673 33.4902 77.4558 33.0743 77.9237 32.8273C78.3267 32.6128 78.7362 32.6388 79.1261 32.8793C79.4056 33.0548 79.6006 33.3083 79.6461 33.6332C79.6786 33.8607 79.7826 33.8867 79.9645 33.8802C80.2245 33.8672 80.4845 33.8607 80.7445 33.8802C81.0434 33.9062 81.1149 33.8022 81.0759 33.5097C80.8875 32.1254 79.5421 31.092 78.1577 31.2804C77.9432 31.3129 77.7288 31.3454 77.5338 31.4429C77.2998 31.5599 77.2673 31.4559 77.2673 31.248C77.2738 29.7726 77.2673 28.3037 77.2673 26.8284C77.2673 26.3214 77.2543 25.808 77.2673 25.301C77.2998 24.0986 78.1837 23.1692 79.3341 23.1237C80.478 23.0782 81.4399 23.9231 81.5764 25.08C81.7064 26.1914 80.868 27.2638 79.7371 27.4133C79.4901 27.4458 79.4316 27.5303 79.4446 27.7578C79.4641 28.0308 79.4576 28.2972 79.4446 28.5702C79.4316 28.8042 79.5161 28.8627 79.7436 28.8497C81.0954 28.7782 82.4018 27.7643 82.8243 26.3799C82.9348 26.0159 83.1103 25.9639 83.4287 25.9964C84.9496 26.1459 85.8595 27.7448 85.1966 29.0967C85.1056 29.2786 85.0016 29.3696 84.7806 29.3891C83.9877 29.4606 83.3052 29.7921 82.7203 30.325C82.5643 30.468 82.5058 30.585 82.7203 30.7215C82.7658 30.7475 82.7983 30.793 82.8438 30.832C83.0648 31.027 83.2532 31.2934 83.5132 31.3909C83.7927 31.4949 83.9552 31.131 84.1957 31.0075C85.2941 30.468 86.6524 30.936 87.1399 32.0344C87.6468 33.1848 87.1139 34.4976 85.9765 34.9461C85.7685 35.0306 85.606 35.0241 85.4175 34.8681C84.8716 34.4327 84.2282 34.2182 83.5327 34.1402C83.3312 34.1207 83.2597 34.1792 83.2662 34.3807C83.2792 34.6406 83.2857 34.9006 83.2662 35.1606C83.2402 35.4336 83.3182 35.544 83.6107 35.596C84.9171 35.8105 85.6905 37.0779 85.3265 38.3388C85.0666 39.2227 84.2282 39.8402 83.2857 39.8726C83.0453 39.8791 82.9283 39.8142 82.8568 39.5607C82.4473 38.1438 81.2254 37.1624 79.7631 37.0194C79.5031 36.9934 79.4381 37.0714 79.4511 37.3119C79.4641 37.5849 79.4706 37.8513 79.4511 38.1243C79.4381 38.3388 79.5096 38.4233 79.7306 38.4558C80.7575 38.6118 81.4659 39.3527 81.5894 40.3796C81.6999 41.3025 81.1279 42.2189 80.218 42.5894C78.8337 43.1548 77.3128 42.1149 77.2803 40.5746C77.2543 39.4827 77.2673 38.3908 77.2673 37.2924ZM86.386 45.4751C85.944 45.9366 85.4565 46.3525 84.9626 46.762C83.3507 48.0814 82.5643 49.7907 82.5383 51.864C82.5253 52.8584 82.5383 53.8593 82.5383 54.8538C82.5383 55.6272 82.0509 56.1146 81.2839 56.1211C80.712 56.1276 80.1335 56.1081 79.5616 56.1276C79.2691 56.1406 79.1716 56.0626 79.1781 55.7572C79.1976 54.2493 79.1846 52.748 79.1846 51.2401C79.1846 50.1027 78.7037 49.2643 77.6898 48.7443C77.5273 48.6598 77.5013 48.5818 77.5598 48.4194C78.0082 47.061 78.4437 45.7026 78.8792 44.3442C78.9246 44.2012 78.9896 44.1363 79.1586 44.1493C80.9005 44.3052 82.4603 43.1613 82.8893 41.5105C82.9478 41.2765 83.0843 41.3025 83.2532 41.3025C85.7555 41.2765 87.4454 38.8912 86.6199 36.5255C86.5484 36.311 86.5874 36.233 86.7824 36.1355C88.8102 35.0956 89.3757 32.5348 87.9783 30.7345C87.6468 30.3055 87.2439 29.9676 86.7564 29.7401C86.5809 29.6621 86.5549 29.5841 86.6134 29.3956C87.4194 26.9454 85.7815 24.6251 83.2142 24.5991C82.9543 24.5991 82.9218 24.4691 82.8633 24.2871C82.3758 22.6947 80.9265 21.6613 79.2821 21.7328C77.6508 21.8043 76.2859 22.9677 75.9349 24.5926C75.8764 24.8785 75.8569 25.171 75.8569 25.4635C75.8569 27.6083 75.8569 29.7531 75.8569 31.8979C75.8569 34.1207 75.8504 36.337 75.8634 38.5598C75.8634 38.8457 75.7984 38.9627 75.4865 38.9497C74.934 38.9237 74.3816 38.9237 73.8291 38.9497C73.5301 38.9627 73.4457 38.8717 73.4457 38.5728C73.4587 34.9851 73.4587 31.4039 73.4522 27.8163C73.4522 26.8544 73.5107 25.886 73.4197 24.924C73.2637 23.2537 71.9183 21.9213 70.235 21.7458C68.5646 21.5704 66.9658 22.6103 66.4783 24.2221C66.3938 24.5016 66.2898 24.6056 65.9779 24.6056C63.5536 24.6446 61.8962 27.0233 62.6762 29.3306C62.7606 29.5841 62.7022 29.6686 62.4877 29.7921C61.2333 30.4875 60.5574 31.5664 60.5769 32.9898C60.5899 34.4067 61.2788 35.4596 62.5267 36.1355C62.7087 36.233 62.7671 36.3045 62.6957 36.5255C61.8832 38.9367 63.5471 41.2765 66.0883 41.3025C66.3028 41.3025 66.3808 41.3675 66.4393 41.569C66.9463 43.2458 68.3631 44.2467 70.1115 44.1557C70.3194 44.1428 70.3909 44.2077 70.4494 44.3962C70.8719 45.7351 71.3074 47.074 71.7428 48.4129C71.8078 48.6013 71.7558 48.6728 71.5933 48.7573C70.6184 49.2643 70.1245 50.0702 70.118 51.1686C70.1115 52.709 70.1115 54.2428 70.1245 55.7832C70.1245 56.0496 70.0595 56.1406 69.7865 56.1341C69.2016 56.1146 68.6166 56.1341 68.0317 56.1341C67.2712 56.1341 66.7773 55.6402 66.7643 54.8733C66.7513 53.6839 66.8228 52.488 66.7318 51.2986C66.5888 49.4658 65.7959 47.9579 64.3725 46.801C61.0903 44.1233 59.0105 40.7176 58.3801 36.5255C57.5481 30.9685 59.1405 26.1459 63.1051 22.1618C65.7699 19.484 69.0326 17.9177 72.7892 17.5212C78.1057 16.9688 82.6813 18.6131 86.4574 22.4023C88.8947 24.8525 90.4221 27.8228 90.9355 31.2415C91.7415 36.6944 90.2271 41.465 86.386 45.4751Z" fill="#363636"/>
<path d="M81.2586 64.7263C79.0618 64.7263 76.865 64.7263 74.6682 64.7263C72.4844 64.7263 70.2941 64.7263 68.1103 64.7263C67.6488 64.7263 67.4018 64.8758 67.2914 65.2138C67.1874 65.5387 67.3109 65.8312 67.6748 66.0912C69.1372 67.1181 70.5736 68.1775 72.0619 69.1589C73.6933 70.2313 75.4286 70.2963 77.0794 69.2499C78.6718 68.249 80.1732 67.1116 81.72 66.0262C81.9605 65.8572 82.084 65.6232 82.045 65.3308C81.993 64.9538 81.7005 64.7328 81.2586 64.7263ZM78.8213 66.3317C78.0544 66.8776 77.2874 67.4236 76.5075 67.9565C75.4026 68.7169 73.9857 68.7494 72.8678 68.0085C72.0359 67.4561 71.2365 66.8711 70.4176 66.2992C70.3851 66.2732 70.3461 66.2602 70.3071 66.2407C70.3201 66.2147 70.3396 66.1887 70.3526 66.1627C73.2188 66.1627 76.085 66.1627 78.9448 66.1627C78.9708 66.2732 78.8798 66.2927 78.8213 66.3317Z" fill="#363636"/>
<path d="M81.8902 58.9873C77.2691 59.0003 72.6481 58.9938 68.027 59.0003C67.702 59.0003 67.2796 58.8638 67.0846 59.0588C66.8701 59.2668 67.0521 59.6957 67.0066 60.0272C66.9676 60.3457 67.0911 60.4237 67.4031 60.4237C69.8143 60.4107 72.2321 60.4172 74.6434 60.4172C76.3527 60.4172 78.0621 60.4172 79.7714 60.4172C80.4863 60.4172 81.2013 60.4042 81.9162 60.4237C82.2347 60.4367 82.3387 60.3262 82.2997 60.0207C82.2737 59.8192 82.2737 59.6047 82.2997 59.4033C82.3452 59.0653 82.2152 58.9873 81.8902 58.9873Z" fill="#363636"/>
<path d="M81.9027 61.8601C77.0736 61.8666 72.2446 61.8666 67.4155 61.8666C67.3635 61.8666 67.305 61.8731 67.253 61.8666C67.0775 61.8471 66.9995 61.9121 67.006 62.1006C67.019 62.3736 67.032 62.6465 67.006 62.913C66.9735 63.225 67.097 63.29 67.3895 63.2835C69.8008 63.2705 72.2186 63.277 74.6298 63.277C75.4098 63.277 76.1897 63.277 76.9696 63.277C78.64 63.277 80.3038 63.2705 81.9741 63.2835C82.2276 63.2835 82.3316 63.225 82.3056 62.9585C82.2861 62.7245 82.2796 62.4775 82.3056 62.2436C82.3381 61.9186 82.2016 61.8601 81.9027 61.8601Z" fill="#363636"/>
<path d="M74.2134 13.81C74.5059 13.797 74.7983 13.797 75.0908 13.81C75.2988 13.8165 75.3768 13.7515 75.3703 13.5306C75.3573 12.9911 75.3638 12.4517 75.3638 11.9122C75.3638 11.3598 75.3573 10.8073 75.3638 10.2614C75.3703 10.0664 75.3118 9.98838 75.1103 10.0014C74.7983 10.0144 74.4864 10.0144 74.1679 10.0014C73.9989 9.99488 73.9404 10.0534 73.9404 10.2224C73.9469 11.3338 73.9469 12.4452 73.9404 13.5566C73.9404 13.771 74.0249 13.8165 74.2134 13.81Z" fill="#363636"/>
<path d="M84.2681 16.2604C84.5411 16.4098 84.8206 16.5593 85.0805 16.7283C85.269 16.8518 85.347 16.7998 85.451 16.6178C85.997 15.6624 86.5494 14.707 87.0954 13.7581C87.1278 13.6996 87.1603 13.6476 87.1863 13.6021C87.1668 13.4981 87.0824 13.4851 87.0239 13.4461C86.7444 13.2836 86.4584 13.1342 86.1854 12.9587C86.023 12.8482 85.958 12.9002 85.867 13.0562C85.3145 14.0311 84.7491 15.006 84.1836 15.9679C84.0796 16.1239 84.1251 16.1824 84.2681 16.2604Z" fill="#363636"/>
<path d="M95.5318 45.1241C94.5504 44.5521 93.5624 43.9932 92.581 43.4212C92.4511 43.3432 92.3731 43.3432 92.2951 43.4862C92.1261 43.7917 91.9571 44.0906 91.7751 44.3896C91.7101 44.5066 91.7101 44.5716 91.8401 44.6431C92.8345 45.2085 93.8289 45.787 94.8233 46.3589C94.8883 46.3914 94.9663 46.4694 95.0183 46.3784C95.2393 46.021 95.4473 45.6505 95.6553 45.306C95.6813 45.176 95.5903 45.1565 95.5318 45.1241Z" fill="#363636"/>
<path d="M92.2949 24.2935C92.3728 24.4365 92.4443 24.4365 92.5743 24.365C93.5557 23.793 94.5371 23.2276 95.5186 22.6621C95.577 22.6296 95.6615 22.5972 95.6485 22.4997C95.642 22.4802 95.6355 22.4607 95.6225 22.4412C95.4341 22.1162 95.2456 21.7847 95.0571 21.4598C94.9856 21.3298 94.9076 21.3818 94.8166 21.4338C93.8287 22.0057 92.8343 22.5777 91.8399 23.1496C91.7164 23.2211 91.6969 23.2861 91.7749 23.4031C91.9569 23.689 92.1324 23.988 92.2949 24.2935Z" fill="#363636"/>
<path d="M53.8435 22.7012C54.7794 23.2341 55.7218 23.7671 56.6512 24.326C56.8722 24.456 56.9632 24.4105 57.0672 24.2025C57.1907 23.949 57.3336 23.7086 57.4896 23.4746C57.6001 23.3056 57.5936 23.2146 57.3986 23.1041C56.4367 22.5647 55.4878 22.0057 54.5324 21.4533C54.4739 21.4208 54.4154 21.3948 54.3699 21.3688C54.2594 21.3688 54.2464 21.4598 54.2074 21.5183C54.045 21.7847 53.902 22.0642 53.733 22.3307C53.6095 22.5192 53.6745 22.6037 53.8435 22.7012Z" fill="#363636"/>
<path d="M56.9707 43.4278C56.9057 43.3173 56.8342 43.3498 56.7562 43.3953C55.7683 43.9672 54.7739 44.5392 53.7795 45.1111C53.6495 45.1891 53.6235 45.2606 53.708 45.3971C53.8835 45.6831 54.0525 45.9755 54.2085 46.268C54.28 46.398 54.3384 46.4305 54.4814 46.3525C55.4628 45.7806 56.4443 45.2151 57.4257 44.6497C57.4842 44.6172 57.5751 44.5977 57.5751 44.5067C57.5621 44.4807 57.5621 44.4612 57.5492 44.4417C57.3607 44.1037 57.1657 43.7657 56.9707 43.4278Z" fill="#363636"/>
<path d="M63.866 16.6243C63.9244 16.7283 63.9634 16.8843 64.1519 16.7673C64.4444 16.5853 64.7499 16.4164 65.0423 16.2409C65.1008 16.2084 65.1853 16.1824 65.1853 16.0849C65.1528 16.0264 65.1203 15.9744 65.0878 15.9159C64.6069 15.071 64.1194 14.2261 63.6385 13.3876C63.3265 12.8417 63.3265 12.8417 62.7936 13.1537C62.5726 13.2836 62.2346 13.3811 62.1631 13.5696C62.0916 13.7711 62.3646 14.0181 62.4946 14.2391C62.943 15.0385 63.4045 15.8314 63.866 16.6243Z" fill="#363636"/>
<path d="M54.572 34.3741C54.5655 34.0751 54.559 33.7696 54.572 33.4642C54.585 33.2302 54.4875 33.1652 54.2731 33.1717C53.7466 33.1847 53.2137 33.1782 52.6872 33.1782C52.1283 33.1782 51.5628 33.1847 51.0039 33.1782C50.8479 33.1782 50.7634 33.1977 50.7699 33.3862C50.7829 33.7176 50.7829 34.0556 50.7764 34.3936C50.7699 34.5561 50.8479 34.5951 50.9909 34.5951C52.1153 34.5951 53.2397 34.6016 54.3575 34.6146C54.52 34.6081 54.5785 34.5366 54.572 34.3741Z" fill="#363636"/>
<path d="M98.5338 34.3416C98.5208 34.0426 98.5208 33.7372 98.5338 33.4317C98.5403 33.2562 98.4818 33.1782 98.2934 33.1782C97.1885 33.1847 96.0901 33.1847 94.9852 33.1782C94.7837 33.1782 94.7252 33.2627 94.7317 33.4512C94.7447 33.7567 94.7447 34.0556 94.7317 34.3611C94.7187 34.5691 94.8097 34.6146 94.9982 34.6081C95.5376 34.5951 96.0771 34.6016 96.6165 34.6016C96.6165 34.5951 96.6165 34.5886 96.6165 34.5886C97.169 34.5886 97.7214 34.5821 98.2674 34.5951C98.4623 34.5951 98.5468 34.5431 98.5338 34.3416Z" fill="#363636"/>
<defs>
<linearGradient id="paint0_linear_2174_13390" x1="-7.41602" y1="32.2389" x2="97.7161" y2="137.075" gradientUnits="userSpaceOnUse">
<stop stop-color="#231F20"/>
<stop offset="1" stop-color="white"/>
</linearGradient>
<linearGradient id="paint1_linear_2174_13390" x1="228.971" y1="305.444" x2="33.777" y2="143.76" gradientUnits="userSpaceOnUse">
<stop stop-color="#231F20"/>
<stop offset="1" stop-color="white"/>
</linearGradient>
<linearGradient id="paint2_linear_2174_13390" x1="-60.4263" y1="-64.3286" x2="109.934" y2="132.333" gradientUnits="userSpaceOnUse">
<stop stop-color="#231F20"/>
<stop offset="1" stop-color="white"/>
</linearGradient>
</defs>
</svg>
