<svg width="149" height="224" viewBox="0 0 149 224" fill="none" xmlns="http://www.w3.org/2000/svg">
<path d="M84.351 212.541C119.922 206.254 144.293 168.243 138.786 127.64C133.279 87.0366 99.9781 59.2175 64.4071 65.504C28.8361 71.7904 4.46459 109.802 9.97195 150.405C15.4793 191.008 48.78 218.827 84.351 212.541Z" fill="#3227AC"/>
<path d="M74.3997 199.459C103.635 199.459 127.336 172.406 127.336 139.035C127.336 105.663 103.635 78.6102 74.3997 78.6102C45.164 78.6102 21.4639 105.663 21.4639 139.035C21.4639 172.406 45.164 199.459 74.3997 199.459Z" fill="url(#paint0_linear_2174_13405)"/>
<path d="M74.3992 198.737C103.286 198.737 126.703 172.007 126.703 139.035C126.703 106.062 103.286 79.332 74.3992 79.332C45.5128 79.332 22.0957 106.062 22.0957 139.035C22.0957 172.007 45.5128 198.737 74.3992 198.737Z" fill="url(#paint1_linear_2174_13405)"/>
<path d="M74.4001 193.169C100.592 193.169 121.826 168.932 121.826 139.035C121.826 109.137 100.592 84.9001 74.4001 84.9001C48.2077 84.9001 26.9746 109.137 26.9746 139.035C26.9746 168.932 48.2077 193.169 74.4001 193.169Z" fill="#F1F0F0"/>
<path d="M74.3993 192.396C100.218 192.396 121.147 168.505 121.147 139.035C121.147 109.564 100.218 85.6735 74.3993 85.6735C48.5811 85.6735 27.6514 109.564 27.6514 139.035C27.6514 168.505 48.5811 192.396 74.3993 192.396Z" fill="url(#paint2_linear_2174_13405)"/>
<path d="M83.7599 15.3268C78.1109 15.3268 72.4853 15.4201 66.8364 15.2801C62.8682 15.1867 60.0904 17.8711 60.2304 21.9561C60.4172 27.6984 60.2771 33.464 60.2771 39.2297C60.2771 39.6965 60.4172 40.21 60.0904 40.5835C59.7636 40.957 59.4368 41.8207 58.9466 41.4472C58.3163 41.0037 59.18 40.6069 59.4368 40.3034C60.1371 39.4631 60.0204 38.7395 59.3201 38.0392C58.5731 37.2922 57.8728 37.3156 57.1025 38.1092C55.7487 39.4631 54.3948 40.7936 53.0876 42.1942C50.8 44.6218 48.7925 47.2128 47.6021 50.3641C47.392 50.901 47.2519 50.9944 46.7384 50.6209C45.898 49.9906 45.0577 50.154 44.3107 50.8776C43.5638 51.6013 42.7935 52.3482 42.0932 53.1185C41.2762 54.0056 41.2529 54.9393 42.1165 55.8029C44.9643 58.6741 47.8121 61.5452 50.7066 64.3931C51.5937 65.2567 52.574 65.21 53.4844 64.3464C54.068 63.7861 54.6515 63.2026 55.2118 62.619C56.4489 61.3818 56.519 60.845 55.6086 59.211C56.4723 59.1409 57.1492 58.8142 57.7795 58.464C59.997 57.1802 62.4013 57.1335 64.8756 57.1568C71.4116 57.2269 77.9475 57.2269 84.4835 57.1568C87.7048 57.1335 90.2024 54.6125 90.2258 51.5779C90.2258 49.0102 90.2258 46.4659 90.2258 43.8982C90.2258 36.5452 90.2258 29.1923 90.2258 21.8394C90.2258 17.591 87.9849 15.3268 83.7599 15.3268ZM54.885 61.5919C54.208 62.2689 53.5078 62.9691 52.8308 63.6461C52.3173 64.1363 51.8271 64.1596 51.3135 63.6461C48.4891 60.8216 45.6646 57.9972 42.8402 55.1727C42.3266 54.6592 42.3733 54.1456 42.8868 53.6554C42.9102 53.6321 42.9335 53.6087 42.9802 53.5621C46.2715 50.3874 45.1978 50.3874 48.349 53.4687C50.4499 55.5228 52.5274 57.6237 54.6049 59.7245C54.9083 60.028 55.2818 60.2847 55.2818 60.7749C55.2818 61.1251 55.1184 61.3585 54.885 61.5919ZM56.3089 58.0672C56.0288 58.1839 55.702 58.2072 55.7487 58.2072C54.7916 58.2539 54.2781 58.0438 53.8346 57.6003C52.1772 55.9197 50.4966 54.239 48.8159 52.5817C48.279 52.0448 48.1389 51.5312 48.4657 50.8076C49.5162 48.38 50.7533 46.0457 52.5974 44.1083C54.208 42.4276 55.842 40.7703 57.476 39.1129C57.8028 38.7861 58.0829 38.1792 58.6898 38.7861C59.2734 39.3697 58.6431 39.6498 58.3864 40.0466C58.2697 40.21 58.1529 40.3501 58.0129 40.4902C57.0558 41.3071 57.7795 41.7507 58.3397 42.3342C58.9699 42.9878 59.3901 42.8944 59.9503 42.2409C60.7206 41.3538 61.5376 40.5368 62.3546 39.6965C62.6581 39.393 62.9149 38.9729 63.405 39.4397C63.8486 39.8599 63.6151 40.1867 63.2883 40.5135C62.6114 41.2138 62.0045 41.9841 61.3042 42.6377C60.3938 43.4547 61.1408 43.8515 61.631 44.3884C62.1912 45.0186 62.6581 45.0653 63.2416 44.3884C64.222 43.2913 65.2725 42.2409 66.2762 41.1671C66.5797 40.8403 66.7897 40.6069 67.2099 40.9804C67.6301 41.3538 67.5834 41.6339 67.2099 42.0308C66.2995 42.9411 65.4825 43.9449 64.5488 44.8085C63.5218 45.7423 64.4088 46.1624 64.9223 46.746C65.5292 47.4463 65.856 47.0961 66.3696 46.5592C68.2837 44.5751 70.2678 42.661 72.2052 40.7002C72.532 40.3734 72.8121 40.2567 73.1856 40.6302C73.5124 40.957 73.4191 41.2138 73.1389 41.5172C71.5983 43.1979 69.9877 44.8319 68.5404 46.6059C66.8598 48.6601 64.899 50.4108 63.195 52.4416C62.9849 52.6984 62.7748 52.9551 63.0082 53.2586C63.265 53.5854 63.5684 53.3987 63.8486 53.2586C64.7823 52.8618 65.716 52.4649 66.6263 52.0681C67.0698 51.8814 67.56 51.6946 67.8168 52.3015C68.0502 52.8151 67.7701 53.1652 67.2566 53.3987C63.5918 54.9393 59.9503 56.5032 56.3089 58.0672ZM64.969 36.2184C64.8056 31.4799 64.9457 26.7413 64.899 21.9794C64.899 20.859 65.2725 20.5088 66.3929 20.5088C72.2986 20.5555 78.2043 20.5555 84.1333 20.5088C85.2771 20.5088 85.6039 20.9057 85.6039 22.0028C85.5572 29.1223 85.5806 36.2418 85.5806 43.338C85.5806 45.6956 85.5339 48.0532 85.6039 50.4108C85.6273 51.5079 85.3005 51.9281 84.1567 51.9281C79.3248 51.8814 74.5162 51.9047 69.6842 51.9047C69.3808 51.9047 68.9373 51.9514 68.7972 51.788C67.8635 50.5975 66.7664 50.9243 65.4592 51.4846C66.2762 50.014 67.3733 49.1269 68.3304 48.1232C69.871 46.4892 71.3882 44.8319 72.8588 43.1279C73.4657 42.4043 74.1193 42.1475 75.0764 42.1708C76.8738 42.2409 78.6478 42.2175 80.4452 42.1942C82.3826 42.1708 83.1763 41.3538 83.1763 39.4164C83.1763 35.9617 83.1763 32.507 83.1763 29.0289C83.1763 27.4416 82.4527 26.5779 80.8887 26.5546C77.1072 26.5079 73.349 26.4846 69.5675 26.5546C68.0502 26.5779 67.35 27.4416 67.3266 28.9589C67.3266 32.1568 67.3266 35.3314 67.3266 38.5294C67.3266 39.183 67.4433 39.7899 66.4163 39.8366C65.9961 39.8599 65.5759 40.4668 65.2024 40.8636C64.4088 41.6573 63.6385 42.4976 62.8682 43.3146C62.7048 43.5014 62.518 43.8515 62.2146 43.5714C61.8177 43.2446 62.2379 43.0578 62.4013 42.8244C62.4247 42.8011 62.448 42.7544 62.4713 42.7311C64.7356 41.1204 65.0624 38.8328 64.969 36.2184ZM68.4704 41.3772C68.0036 39.2297 68.377 37.0588 68.237 34.8879C68.1903 34.211 68.4471 34.0242 69.1007 34.0242C71.1548 34.0476 73.209 34.0242 75.2631 34.0242C77.2706 34.0242 79.3014 34.0476 81.3089 34.0242C81.8924 34.0242 82.2426 34.1176 82.2426 34.8412C82.1959 36.4285 82.2192 38.0158 82.2426 39.6031C82.2659 40.6069 81.7991 41.1904 80.8187 41.1904C78.8346 41.2371 76.8738 41.1904 74.8896 41.2138C74.3994 41.2138 74.3761 40.887 74.236 40.5602C73.5124 39.1129 72.4853 38.9262 71.3649 40.1167C69.7309 41.8207 67.9569 43.408 66.4629 45.2521C66.3462 45.3921 66.1828 45.5322 66.0194 45.6255C65.8093 45.7423 65.6459 46.0924 65.3425 45.7889C65.039 45.4855 65.3425 45.2987 65.5292 45.112C66.3462 44.225 67.1632 43.3613 68.0036 42.4743C68.307 42.1942 68.5871 41.8674 68.4704 41.3772ZM68.2603 28.9589C68.237 28.0485 68.7038 27.5116 69.5675 27.5116C73.3724 27.4883 77.1772 27.4883 80.9821 27.5116C81.7991 27.5116 82.2659 28.0018 82.2659 28.8655C82.2659 29.9626 82.2426 31.0364 82.2893 32.1335C82.3126 32.8338 81.9858 32.9738 81.3789 32.9505C79.3247 32.9271 77.2706 32.9505 75.2164 32.9505C73.209 32.9505 71.1782 32.9271 69.1707 32.9738C68.5404 32.9738 68.2603 32.8104 68.2837 32.1335C68.2837 31.0597 68.2603 30.0093 68.2603 28.9589ZM89.2921 51.0177C89.2921 54.169 87.3079 56.1998 84.1333 56.2231C78.7645 56.2465 73.3957 56.2231 68.0502 56.2231C66.603 56.2231 65.1791 56.2231 63.7318 56.2231C63.7085 56.1531 63.6852 56.0597 63.6385 55.9897C64.899 55.4295 66.1595 54.8692 67.42 54.309C67.7468 54.169 68.2136 54.0756 68.307 53.8188C68.8205 52.605 69.8476 52.8851 70.7813 52.8851C75.1464 52.8851 79.4881 52.8851 83.8532 52.8851C86.1875 52.8851 86.4676 52.5817 86.4676 50.2941C86.4676 40.887 86.4909 31.4799 86.5143 22.0728C86.5143 20.0186 86.1175 19.6218 84.0633 19.6218C78.1576 19.6218 72.2519 19.6218 66.3229 19.6218C64.4088 19.6218 63.9886 20.0653 63.9886 21.9561C63.9886 27.1615 63.9886 32.3669 63.9886 37.5957C63.9886 38.1559 64.082 38.6227 63.2416 38.2726C62.3313 37.8991 62.0045 38.8562 61.1642 39.2997C61.1642 37.8991 61.1642 36.6386 61.1642 35.3781C61.1875 30.7796 61.1875 26.2044 61.2108 21.6059C61.2342 18.1746 63.1249 16.2838 66.5797 16.2838C72.3686 16.2838 78.1576 16.2838 83.9699 16.2838C87.4013 16.2838 89.3154 18.2212 89.3154 21.6293C89.3154 28.9355 89.3154 36.2418 89.3154 43.548C89.2921 46.0457 89.2921 48.52 89.2921 51.0177Z" fill="#363636"/>
<path d="M103.811 26.4146C103.882 25.8777 103.905 25.3175 103.321 24.9673C102.714 24.6172 102.294 25.014 101.827 25.2941C100.777 25.9244 99.8199 26.8114 98.6061 26.4613C98.2559 26.4613 98.1159 26.4613 97.9525 26.4613C97.3222 26.4846 96.5753 26.2745 96.2018 27.0215C95.8516 27.7218 96.3185 28.2353 96.692 28.7022C97.649 29.8693 97.8358 31.1765 97.719 32.6237C97.6724 33.1606 97.6257 33.7442 98.2092 34.071C98.7695 34.3744 99.283 34.1177 99.7032 33.7675C100.94 32.7405 102.341 32.367 103.928 32.6004C104.418 32.6704 104.979 32.6471 105.282 32.1335C105.609 31.5733 105.375 31.0598 105.025 30.6163C104.068 29.3791 103.601 28.0019 103.811 26.4146ZM98.7228 33.3941C98.6761 32.9039 98.6294 32.7405 98.6528 32.6004C98.8395 30.9664 98.5827 29.4491 97.4623 28.142C97.0188 27.6051 97.1822 27.2783 97.8824 27.395C99.5164 27.6284 100.94 27.1849 102.201 26.1812C102.644 25.831 102.948 25.9244 102.854 26.5313C102.551 28.4221 103.275 30.0094 104.722 31.7367C102.341 31.3399 100.45 31.7601 98.7228 33.3941Z" fill="#363636"/>
<path d="M96.645 21.0924C97.2752 20.9757 97.9988 21.3492 98.3723 20.6022C98.7458 19.9019 98.1856 19.3884 97.8354 18.9449C97.1585 18.1045 97.2519 17.1475 97.2285 16.1904C97.2052 15.0233 96.6216 14.6498 95.6879 15.3034C94.6842 16.0037 93.6571 16.2838 92.4433 16.2138C91.2061 16.1438 90.8326 16.844 91.5563 17.9178C92.2099 18.8515 92.4666 19.8319 92.3966 20.9523C92.3266 22.2829 92.9802 22.6097 94.124 21.9327C94.9409 21.4892 95.6646 20.8123 96.645 21.0924ZM93.4704 21.2091C93.5871 19.7152 93.2603 18.478 92.1165 17.2175C93.7505 17.3576 95.0577 17.1008 96.3882 15.9103C96.1548 17.6143 96.4816 18.8749 97.602 20.182C95.898 19.9953 94.6142 20.2054 93.4704 21.2091Z" fill="#363636"/>
<path d="M106.519 19.8553C105.958 19.155 105.795 18.3847 105.818 17.4743C105.865 16.4706 105.281 16.1438 104.394 16.704C103.647 17.1709 102.9 17.4043 101.99 17.3576C101.01 17.3343 100.66 17.8945 101.173 18.6648C101.71 19.4818 101.943 20.2988 101.897 21.2558C101.873 22.1429 102.434 22.4697 103.204 21.9795C104.021 21.4426 104.838 21.1391 105.818 21.2558C106.355 21.3025 106.705 21.0691 106.775 20.4155C106.705 20.2521 106.635 20.0187 106.519 19.8553ZM102.9 21.0691C102.807 20.1821 102.877 19.4118 102.34 18.7582C102.083 18.4547 102.293 18.268 102.644 18.268C103.391 18.2913 104.091 18.1046 104.815 17.4977C104.885 18.5481 104.908 19.4351 105.655 20.2521C104.604 20.2988 103.717 20.4389 102.9 21.0691Z" fill="#363636"/>
<path d="M72.3456 30.4528C72.6491 31.1764 73.1393 31.5733 73.9329 31.5966C74.7732 31.6199 75.1934 31.013 75.6369 30.3594C76.1038 31.3632 76.7807 31.7833 77.7611 31.5266C78.4847 31.3398 78.8582 30.7796 78.8816 30.056C78.9049 29.3324 78.5548 28.7721 77.8545 28.5154C76.7807 28.1419 76.1271 28.7254 75.6136 29.5891C74.4231 28.0018 73.3727 27.9785 72.2522 29.5891C71.3185 28.3053 70.3381 28.0485 69.4978 28.7955C68.8209 29.379 68.7742 30.4295 69.3811 31.0831C70.1514 31.9234 71.1551 31.7133 72.3456 30.4528ZM77.2242 29.379C77.6211 29.3557 77.8545 29.5891 77.8778 30.0093C77.8311 30.3828 77.6211 30.6629 77.2242 30.6395C76.8274 30.6162 76.6173 30.3594 76.6173 29.9626C76.664 29.5891 76.8974 29.4024 77.2242 29.379ZM73.3027 29.9159C73.3493 29.5658 73.5828 29.379 73.9563 29.4024C74.3764 29.4257 74.5398 29.7058 74.5865 30.0326C74.4698 30.4528 74.2597 30.7096 73.8395 30.6629C73.4427 30.5695 73.2326 30.3128 73.3027 29.9159ZM70.5716 29.379C70.9917 29.4257 71.2252 29.6592 71.2018 30.056C71.1785 30.3828 70.9684 30.6162 70.5949 30.6395C70.1747 30.6629 69.918 30.4061 69.918 30.0326C69.918 29.6358 70.1747 29.4024 70.5716 29.379Z" fill="#363636"/>
<defs>
<linearGradient id="paint0_linear_2174_13405" x1="-7.80035" y1="32.2389" x2="97.3319" y2="137.075" gradientUnits="userSpaceOnUse">
<stop stop-color="#231F20"/>
<stop offset="1" stop-color="white"/>
</linearGradient>
<linearGradient id="paint1_linear_2174_13405" x1="228.586" y1="305.444" x2="33.3918" y2="143.76" gradientUnits="userSpaceOnUse">
<stop stop-color="#231F20"/>
<stop offset="1" stop-color="white"/>
</linearGradient>
<linearGradient id="paint2_linear_2174_13405" x1="-60.8106" y1="-64.3286" x2="109.55" y2="132.333" gradientUnits="userSpaceOnUse">
<stop stop-color="#231F20"/>
<stop offset="1" stop-color="white"/>
</linearGradient>
</defs>
</svg>
