<svg width="152" height="173" viewBox="0 0 152 173" fill="none" xmlns="http://www.w3.org/2000/svg">
<path d="M87.1926 159.595C122.62 152.33 146.18 113.659 139.816 73.2208C133.452 32.7821 99.5734 5.88894 64.1463 13.1533C28.7193 20.4176 5.15909 59.0886 11.5231 99.5273C17.8872 139.966 51.7656 166.859 87.1926 159.595Z" fill="#3D2CD6"/>
<path d="M75.6917 146.797C104.927 146.797 128.628 119.745 128.628 86.3731C128.628 53.0016 104.927 25.9487 75.6917 25.9487C46.456 25.9487 22.7559 53.0016 22.7559 86.3731C22.7559 119.745 46.456 146.797 75.6917 146.797Z" fill="url(#paint0_linear_2001_13172)"/>
<path d="M75.6922 146.076C104.579 146.076 127.996 119.346 127.996 86.3731C127.996 53.4003 104.579 26.6705 75.6922 26.6705C46.8057 26.6705 23.3887 53.4003 23.3887 86.3731C23.3887 119.346 46.8057 146.076 75.6922 146.076Z" fill="url(#paint1_linear_2001_13172)"/>
<path d="M75.6921 140.508C101.884 140.508 123.118 116.271 123.118 86.3731C123.118 56.4755 101.884 32.2386 75.6921 32.2386C49.4997 32.2386 28.2666 56.4755 28.2666 86.3731C28.2666 116.271 49.4997 140.508 75.6921 140.508Z" fill="#F1F0F0"/>
<path d="M75.6913 139.734C101.51 139.734 122.439 115.844 122.439 86.3731C122.439 56.9025 101.51 33.012 75.6913 33.012C49.8731 33.012 28.9434 56.9025 28.9434 86.3731C28.9434 115.844 49.8731 139.734 75.6913 139.734Z" fill="url(#paint2_linear_2001_13172)"/>
<path d="M97.5066 48.1645C95.0258 37.7702 86.0512 30.5356 75.4713 30.4101C74.9824 30.4028 74.8438 30.2625 74.8365 29.7753C74.8365 29.3545 74.8365 28.9337 74.8365 28.4243C73.4721 29.5612 72.1806 30.639 70.8891 31.7168C70.714 31.8644 70.8745 31.9161 70.9548 31.9899C71.5969 32.5288 72.2462 33.0678 72.8956 33.614C73.5231 34.1382 74.1433 34.6549 74.8073 35.2086C74.8292 35.12 74.8365 35.1126 74.8365 35.0979C74.8365 34.6918 74.8365 34.2858 74.8438 33.8798C74.8511 33.4 75.0116 33.2375 75.4859 33.2449C77.0692 33.2818 78.6379 33.459 80.1775 33.8577C90.6187 36.5596 97.0469 46.9242 94.9091 57.6211C93.0631 66.7899 84.8837 73.6701 75.6245 73.7218C66.9563 73.7735 58.2881 73.7366 49.6126 73.7366C48.6276 73.7366 47.6426 73.7439 46.6575 73.7292C46.4387 73.7292 46.3584 73.7882 46.3657 74.0171C46.3803 74.7036 46.373 75.3976 46.373 76.0841C46.373 76.5566 46.373 76.5566 46.84 76.5566C56.3108 76.5566 65.7816 76.5566 75.2597 76.5566C76.9306 76.5566 78.5796 76.3794 80.214 76.0251C92.5888 73.3305 100.476 60.6183 97.5066 48.1645Z" fill="#363636"/>
<path d="M75.2956 64.9443C81.5705 64.9517 86.7 59.7693 86.7073 53.428C86.7073 47.0571 81.5924 41.8674 75.3029 41.86C69.0352 41.8526 63.9131 47.0276 63.8985 53.3837C63.8766 59.7472 68.9987 64.9443 75.2956 64.9443ZM75.3394 44.5176C80.1477 44.525 84.0878 48.5409 84.0805 53.4354C84.0732 58.315 80.1185 62.2941 75.2883 62.2941C70.4361 62.2867 66.5106 58.3003 66.5179 53.3837C66.5179 48.4819 70.4799 44.5102 75.3394 44.5176Z" fill="#363636"/>
<path d="M60.9737 72.5923C61.1925 72.7473 61.4114 72.8212 61.6814 72.8212C63.8485 72.8138 66.0082 72.8138 68.1753 72.8138C68.2555 72.8138 68.3431 72.8581 68.4087 72.7769C68.3869 72.6883 68.3139 72.7104 68.2628 72.6957C64.1987 71.4038 60.6234 69.2925 58.0259 65.8449C53.2175 59.4741 52.4952 52.4978 55.5743 45.1599C57.3254 40.9963 60.2951 37.8736 64.2206 35.6958C64.476 35.5556 64.4978 35.4448 64.3665 35.1939C64.0455 34.5885 63.739 33.9684 63.469 33.3409C63.3304 33.0161 63.2064 33.0161 62.9218 33.1711C54.4141 37.8293 49.7079 47.4189 51.2694 57.1191C52.3273 63.6524 55.6108 68.7978 60.9737 72.5923Z" fill="#363636"/>
<path d="M102.197 74.9477C101.008 73.9731 99.8183 72.9985 98.629 72.0239C98.5706 71.9722 98.5196 71.8836 98.4174 71.9279C98.4101 71.9501 98.4028 71.9796 98.4028 72.0017C98.4028 72.3192 98.4028 72.6441 98.4028 72.9616C98.4028 73.5892 98.2861 73.7147 97.6586 73.7147C94.5941 73.7147 91.5369 73.7147 88.4723 73.7147C88.217 73.7147 88.0054 73.7737 87.7938 73.914C86.2104 74.9182 84.5322 75.7008 82.7592 76.2989C82.5841 76.3579 82.4017 76.417 82.2266 76.4834C82.2339 76.5056 82.2339 76.5277 82.2412 76.5499C82.3214 76.5499 82.4017 76.5499 82.4819 76.5499C87.5603 76.5499 92.6386 76.5499 97.717 76.5499C98.2715 76.5499 98.4028 76.6828 98.4028 77.2439C98.4028 77.6205 98.4028 77.997 98.4028 78.4253C98.4977 78.3662 98.5342 78.344 98.5706 78.3219C99.7964 77.3178 101.022 76.3062 102.255 75.3095C102.474 75.1101 102.314 75.0437 102.197 74.9477Z" fill="#363636"/>
<path d="M72.5601 57.0822C72.8884 57.3775 73.2824 57.5251 73.7275 57.5177C74.1872 57.5251 74.6031 57.3849 74.9241 57.06C76.6753 55.3031 78.4191 53.5387 80.1557 51.767C80.681 51.2281 80.6664 50.3496 80.1703 49.7885C79.6084 49.1537 78.6599 49.1389 78.0324 49.7738C76.668 51.1395 75.3108 52.5126 73.961 53.9004C73.7275 54.1367 73.6035 54.1293 73.3846 53.9078C73.1073 53.6199 72.7935 53.3615 72.4944 53.0958C71.8596 52.5421 70.9767 52.579 70.4295 53.1696C69.8677 53.7823 69.9114 54.683 70.5462 55.2809C71.2175 55.8715 71.8888 56.4769 72.5601 57.0822Z" fill="#363636"/>
<defs>
<linearGradient id="paint0_linear_2001_13172" x1="-6.51989" y1="-20.4372" x2="98.6123" y2="84.3989" gradientUnits="userSpaceOnUse">
<stop stop-color="#231F20"/>
<stop offset="1" stop-color="white"/>
</linearGradient>
<linearGradient id="paint1_linear_2001_13172" x1="229.867" y1="252.768" x2="34.673" y2="91.0841" gradientUnits="userSpaceOnUse">
<stop stop-color="#231F20"/>
<stop offset="1" stop-color="white"/>
</linearGradient>
<linearGradient id="paint2_linear_2001_13172" x1="-59.5302" y1="-117.005" x2="110.83" y2="79.6571" gradientUnits="userSpaceOnUse">
<stop stop-color="#231F20"/>
<stop offset="1" stop-color="white"/>
</linearGradient>
</defs>
</svg>
