<svg width="150" height="171" viewBox="0 0 150 171" fill="none" xmlns="http://www.w3.org/2000/svg">
<path d="M85.2178 158.791C120.749 152.209 144.878 113.994 139.112 73.4365C133.345 32.8786 99.8668 5.336 64.3354 11.9183C28.8039 18.5006 4.67469 56.7151 10.4412 97.273C16.2077 137.831 49.6864 165.374 85.2178 158.791Z" fill="#4839F2"/>
<path d="M74.762 145.776C103.998 145.776 127.698 118.723 127.698 85.3517C127.698 51.9802 103.998 24.9274 74.762 24.9274C45.5264 24.9274 21.8262 51.9802 21.8262 85.3517C21.8262 118.723 45.5264 145.776 74.762 145.776Z" fill="url(#paint0_linear_2001_13108)"/>
<path d="M74.7625 145.054C103.649 145.054 127.066 118.325 127.066 85.3517C127.066 52.3789 103.649 25.6492 74.7625 25.6492C45.8761 25.6492 22.459 52.3789 22.459 85.3517C22.459 118.325 45.8761 145.054 74.7625 145.054Z" fill="url(#paint1_linear_2001_13108)"/>
<path d="M74.7624 139.486C100.955 139.486 122.188 115.249 122.188 85.3517C122.188 55.4541 100.955 31.2173 74.7624 31.2173C48.57 31.2173 27.3369 55.4541 27.3369 85.3517C27.3369 115.249 48.57 139.486 74.7624 139.486Z" fill="#F1F0F0"/>
<path d="M74.7616 138.713C100.58 138.713 121.51 114.822 121.51 85.3517C121.51 55.8812 100.58 31.9906 74.7616 31.9906C48.9434 31.9906 28.0137 55.8812 28.0137 85.3517C28.0137 114.822 48.9434 138.713 74.7616 138.713Z" fill="url(#paint2_linear_2001_13108)"/>
<path d="M90.9482 96.0122C88.4914 86.9781 79.4637 81.3496 70.2736 83.1239C60.141 85.0802 53.7131 95.2388 56.3129 105.196C57.3138 109.031 59.3806 112.183 62.4483 114.678C63.5532 115.575 64.1966 116.732 64.3201 118.149C64.4176 119.306 64.3526 120.463 64.3591 121.626C64.3656 123.238 65.451 124.343 67.0694 124.343C69.2662 124.35 71.4695 124.343 73.6663 124.343C75.8956 124.343 78.1313 124.35 80.3606 124.343C81.836 124.337 82.9669 123.199 82.9669 121.724C82.9669 120.781 82.9799 119.839 82.9669 118.897C82.9409 117.109 83.6298 115.679 85.0207 114.549C90.4997 110.077 92.807 102.843 90.9482 96.0122ZM76.4935 122.939C75.5511 122.933 74.6087 122.939 73.6663 122.939C72.7239 122.939 71.7814 122.933 70.839 122.946C70.618 122.946 70.5401 122.881 70.5401 122.653C70.5466 121.08 70.5401 119.514 70.5466 117.941C70.5531 117.239 71.06 116.726 71.7554 116.719C73.0228 116.706 74.2902 116.706 75.5576 116.719C76.2595 116.726 76.773 117.233 76.773 117.935C76.786 119.514 76.773 121.093 76.7795 122.679C76.786 122.9 76.6885 122.939 76.4935 122.939ZM68.8697 104.858C68.8502 104.611 68.8502 104.357 68.8697 104.11C68.8827 103.87 68.7917 103.825 68.5642 103.844C67.1214 103.98 65.8865 104.962 65.477 106.353C65.3925 106.652 65.2495 106.71 64.9766 106.697C63.8652 106.639 62.9878 105.794 62.9098 104.695C62.8318 103.571 63.5792 102.603 64.6971 102.421C65.0091 102.369 65.0871 102.258 65.0546 101.972C65.0286 101.725 65.0416 101.472 65.0546 101.225C65.0676 101.01 64.9896 100.945 64.7751 100.965C64.0797 101.043 63.4427 101.257 62.8968 101.699C62.7018 101.855 62.5393 101.855 62.3378 101.764C61.5124 101.394 61.0379 100.757 60.9989 99.8534C60.9599 98.937 61.3694 98.235 62.2013 97.8321C63.0008 97.4421 63.7937 97.5201 64.4826 98.0855C64.7231 98.2805 64.8401 98.2545 65.0286 98.053C65.2105 97.8581 65.4185 97.6761 65.633 97.5136C65.7955 97.3901 65.763 97.3121 65.633 97.1886C65.0416 96.6232 64.3396 96.2917 63.5272 96.2137C63.3257 96.1942 63.2217 96.1162 63.1307 95.9472C62.4093 94.5499 63.4882 92.808 65.0611 92.8145C65.2885 92.8145 65.3925 92.8925 65.464 93.1265C65.8735 94.5239 67.0889 95.5378 68.4797 95.6743C68.7527 95.7003 68.9282 95.6613 68.8697 95.3363C68.8632 95.2843 68.8697 95.2258 68.8697 95.1738C68.8697 94.9138 68.9282 94.6279 68.8437 94.4004C68.7397 94.1209 68.3953 94.2509 68.1613 94.1664C67.1604 93.7959 66.5689 92.7755 66.7639 91.6966C66.9459 90.6957 67.9078 89.9288 68.9347 89.9613C69.9941 89.9938 70.891 90.7997 71.008 91.8461C71.0405 92.1451 71.0405 92.4506 71.0405 92.756C71.0405 94.4979 71.0405 96.2397 71.0405 97.988C71.0405 98.3715 71.0405 98.3715 70.6895 98.2545C69.1557 97.7411 67.5503 98.677 67.2514 100.256C67.1669 100.698 67.1864 100.724 67.6283 100.724C67.7128 100.724 67.8038 100.718 67.8883 100.724C68.3043 100.757 68.6487 100.776 68.7852 100.204C68.9022 99.7169 69.5001 99.4634 69.9941 99.5349C70.5141 99.6064 70.943 100.009 71.0145 100.529C71.0925 101.088 71.034 101.654 71.047 102.219C71.0535 102.856 71.047 103.5 71.047 104.136C71.047 105.228 71.06 106.327 71.0405 107.419C71.0275 108.433 70.3581 109.277 69.4092 109.518C68.4667 109.758 67.4788 109.329 66.9979 108.478C66.2699 107.185 67.0369 105.553 68.5187 105.306C68.8177 105.241 68.8957 105.124 68.8697 104.858ZM70.904 110.35C71.8984 109.648 72.4184 108.673 72.4509 107.458C72.4574 107.211 72.5354 107.146 72.7693 107.152C73.3673 107.165 73.9587 107.172 74.5567 107.152C74.8037 107.146 74.8557 107.23 74.8687 107.464C74.9141 108.68 75.4276 109.648 76.4285 110.35C76.565 110.447 76.6105 110.525 76.552 110.694C76.071 112.15 75.5966 113.613 75.1286 115.081C75.0701 115.263 74.9726 115.309 74.7972 115.302C74.4202 115.296 74.0367 115.302 73.6598 115.302C73.2828 115.302 72.8993 115.296 72.5224 115.309C72.3469 115.315 72.2494 115.27 72.1909 115.088C71.7294 113.626 71.255 112.163 70.7805 110.701C70.7285 110.525 70.7675 110.447 70.904 110.35ZM76.279 104.117C76.279 103.025 76.279 101.927 76.279 100.835C76.279 100.315 76.4675 99.8989 76.9355 99.6519C77.3384 99.4374 77.7479 99.4634 78.1378 99.7039C78.4173 99.8794 78.6123 100.133 78.6578 100.458C78.6903 100.685 78.7943 100.711 78.9763 100.705C79.2362 100.692 79.4962 100.685 79.7562 100.705C80.0552 100.731 80.1267 100.627 80.0877 100.334C79.8992 98.95 78.5538 97.9166 77.1694 98.105C76.955 98.1375 76.7405 98.17 76.5455 98.2675C76.3115 98.3845 76.279 98.2805 76.279 98.0725C76.2855 96.5972 76.279 95.1283 76.279 93.6529C76.279 93.146 76.266 92.6325 76.279 92.1256C76.3115 90.9232 77.1954 89.9938 78.3458 89.9483C79.4897 89.9028 80.4516 90.7477 80.5881 91.9046C80.7181 93.016 79.8797 94.0884 78.7488 94.2379C78.5018 94.2704 78.4433 94.3549 78.4563 94.5824C78.4758 94.8553 78.4693 95.1218 78.4563 95.3948C78.4433 95.6288 78.5278 95.6873 78.7553 95.6743C80.1072 95.6028 81.4135 94.5889 81.836 93.2045C81.9465 92.8405 82.122 92.7885 82.4404 92.821C83.9613 92.9705 84.8712 94.5694 84.2083 95.9212C84.1173 96.1032 84.0133 96.1942 83.7923 96.2137C82.9994 96.2852 82.317 96.6167 81.732 97.1496C81.576 97.2926 81.5175 97.4096 81.732 97.5461C81.7775 97.5721 81.81 97.6176 81.8555 97.6566C82.0765 97.8516 82.265 98.118 82.5249 98.2155C82.8044 98.3195 82.9669 97.9555 83.2074 97.8321C84.3058 97.2926 85.6641 97.7606 86.1516 98.859C86.6586 100.009 86.1256 101.322 84.9882 101.771C84.7802 101.855 84.6177 101.849 84.4293 101.693C83.8833 101.257 83.2399 101.043 82.5444 100.965C82.343 100.945 82.2715 101.004 82.278 101.205C82.291 101.465 82.2975 101.725 82.278 101.985C82.252 102.258 82.33 102.369 82.6224 102.421C83.9288 102.635 84.7022 103.902 84.3383 105.163C84.0783 106.047 83.2399 106.665 82.2975 106.697C82.057 106.704 81.94 106.639 81.8685 106.385C81.459 104.968 80.2372 103.987 78.7748 103.844C78.5148 103.818 78.4498 103.896 78.4628 104.136C78.4758 104.409 78.4823 104.676 78.4628 104.949C78.4498 105.163 78.5213 105.248 78.7423 105.28C79.7692 105.436 80.4776 106.177 80.6011 107.204C80.7116 108.127 80.1397 109.044 79.2297 109.414C77.8454 109.979 76.3245 108.94 76.292 107.399C76.266 106.307 76.279 105.215 76.279 104.117ZM85.3977 112.3C84.9557 112.761 84.4683 113.177 83.9743 113.587C82.3625 114.906 81.576 116.615 81.55 118.689C81.537 119.683 81.55 120.684 81.55 121.678C81.55 122.452 81.0626 122.939 80.2956 122.946C79.7237 122.952 79.1453 122.933 78.5733 122.952C78.2808 122.965 78.1833 122.887 78.1898 122.582C78.2093 121.074 78.1963 119.573 78.1963 118.065C78.1963 116.927 77.7154 116.089 76.7015 115.569C76.539 115.484 76.513 115.406 76.5715 115.244C77.0199 113.886 77.4554 112.527 77.8909 111.169C77.9364 111.026 78.0014 110.961 78.1703 110.974C79.9122 111.13 81.472 109.986 81.901 108.335C81.9595 108.101 82.096 108.127 82.265 108.127C84.7672 108.101 86.4571 105.716 85.6316 103.35C85.5602 103.136 85.5992 103.058 85.7941 102.96C87.8219 101.92 88.3874 99.3594 86.99 97.5591C86.6586 97.1301 86.2556 96.7922 85.7681 96.5647C85.5927 96.4867 85.5667 96.4087 85.6251 96.2202C86.4311 93.7699 84.7932 91.4497 82.226 91.4237C81.966 91.4237 81.9335 91.2937 81.875 91.1117C81.3875 89.5193 79.9382 88.4859 78.2938 88.5574C76.6625 88.6289 75.2976 89.7923 74.9466 91.4172C74.8881 91.7031 74.8687 91.9956 74.8687 92.2881C74.8687 94.4329 74.8687 96.5777 74.8687 98.7225C74.8687 100.945 74.8622 103.162 74.8752 105.384C74.8752 105.67 74.8102 105.787 74.4982 105.774C73.9457 105.748 73.3933 105.748 72.8408 105.774C72.5419 105.787 72.4574 105.696 72.4574 105.397C72.4704 101.81 72.4704 98.2285 72.4639 94.6409C72.4639 93.6789 72.5224 92.7105 72.4314 91.7486C72.2754 90.0783 70.93 88.7459 69.2467 88.5704C67.5763 88.3949 65.9775 89.4348 65.49 91.0467C65.4055 91.3262 65.3015 91.4302 64.9896 91.4302C62.5653 91.4692 60.9079 93.8479 61.6879 96.1552C61.7724 96.4087 61.7139 96.4932 61.4994 96.6167C60.245 97.3121 59.5691 98.391 59.5886 99.8144C59.6016 101.231 60.2905 102.284 61.5384 102.96C61.7204 103.058 61.7789 103.129 61.7074 103.35C60.895 105.761 62.5588 108.101 65.1001 108.127C65.3145 108.127 65.3925 108.192 65.451 108.394C65.958 110.07 67.3748 111.071 69.1232 110.98C69.3312 110.967 69.4027 111.032 69.4612 111.221C69.8836 112.56 70.3191 113.899 70.7545 115.237C70.8195 115.426 70.7675 115.497 70.605 115.582C69.6301 116.089 69.1362 116.895 69.1297 117.993C69.1232 119.534 69.1232 121.067 69.1362 122.608C69.1362 122.874 69.0712 122.965 68.7982 122.959C68.2133 122.939 67.6283 122.959 67.0434 122.959C66.2829 122.959 65.789 122.465 65.776 121.698C65.763 120.508 65.8345 119.313 65.7435 118.123C65.6005 116.29 64.8076 114.782 63.3842 113.626C60.102 110.948 58.0222 107.542 57.3918 103.35C56.5599 97.7931 58.1522 92.9705 62.1168 88.9864C64.7816 86.3086 68.0443 84.7423 71.8009 84.3458C77.1174 83.7934 81.693 85.4377 85.4692 89.2269C87.9064 91.6771 89.4338 94.6474 89.9472 98.066C90.7532 103.519 89.2388 108.29 85.3977 112.3Z" fill="#363636"/>
<path d="M80.2703 131.551C78.0735 131.551 75.8767 131.551 73.6799 131.551C71.4961 131.551 69.3058 131.551 67.122 131.551C66.6605 131.551 66.4136 131.7 66.3031 132.038C66.1991 132.363 66.3226 132.656 66.6865 132.916C68.1489 133.943 69.5853 135.002 71.0736 135.983C72.705 137.056 74.4403 137.121 76.0912 136.074C77.6835 135.074 79.1849 133.936 80.7317 132.851C80.9722 132.682 81.0957 132.448 81.0567 132.155C81.0047 131.778 80.7122 131.557 80.2703 131.551ZM77.833 133.156C77.0661 133.702 76.2991 134.248 75.5192 134.781C74.4143 135.542 72.9975 135.574 71.8796 134.833C71.0476 134.281 70.2482 133.696 69.4293 133.124C69.3968 133.098 69.3578 133.085 69.3188 133.065C69.3318 133.039 69.3513 133.013 69.3643 132.987C72.2305 132.987 75.0968 132.987 77.9565 132.987C77.9825 133.098 77.8915 133.117 77.833 133.156Z" fill="#363636"/>
<path d="M80.9019 125.812C76.2809 125.825 71.6598 125.818 67.0387 125.825C66.7137 125.825 66.2913 125.688 66.0963 125.883C65.8818 126.091 66.0638 126.52 66.0183 126.852C65.9793 127.17 66.1028 127.248 66.4148 127.248C68.8261 127.235 71.2438 127.242 73.6551 127.242C75.3644 127.242 77.0738 127.242 78.7831 127.242C79.4981 127.242 80.213 127.229 80.9279 127.248C81.2464 127.261 81.3504 127.151 81.3114 126.845C81.2854 126.644 81.2854 126.429 81.3114 126.228C81.3569 125.89 81.2269 125.812 80.9019 125.812Z" fill="#363636"/>
<path d="M80.9144 128.685C76.0853 128.691 71.2563 128.691 66.4272 128.691C66.3752 128.691 66.3167 128.698 66.2647 128.691C66.0893 128.672 66.0113 128.737 66.0178 128.925C66.0308 129.198 66.0438 129.471 66.0178 129.737C65.9853 130.049 66.1088 130.114 66.4012 130.108C68.8125 130.095 71.2303 130.101 73.6416 130.101C74.4215 130.101 75.2014 130.101 75.9813 130.101C77.6517 130.101 79.3155 130.095 80.9859 130.108C81.2393 130.108 81.3433 130.049 81.3173 129.783C81.2978 129.549 81.2913 129.302 81.3173 129.068C81.3498 128.743 81.2133 128.685 80.9144 128.685Z" fill="#363636"/>
<path d="M73.2251 80.6346C73.5176 80.6216 73.8101 80.6216 74.1025 80.6346C74.3105 80.6411 74.3885 80.5761 74.382 80.3551C74.369 79.8157 74.3755 79.2762 74.3755 78.7368C74.3755 78.1843 74.369 77.6319 74.3755 77.0859C74.382 76.891 74.3235 76.813 74.122 76.826C73.8101 76.839 73.4981 76.839 73.1796 76.826C73.0106 76.8195 72.9521 76.878 72.9521 77.0469C72.9586 78.1583 72.9586 79.2697 72.9521 80.3811C72.9521 80.5956 73.0366 80.6411 73.2251 80.6346Z" fill="#363636"/>
<path d="M83.2798 83.0849C83.5528 83.2344 83.8323 83.3839 84.0923 83.5529C84.2807 83.6764 84.3587 83.6244 84.4627 83.4424C85.0087 82.487 85.5611 81.5316 86.1071 80.5827C86.1396 80.5242 86.1721 80.4722 86.1981 80.4267C86.1786 80.3227 86.0941 80.3097 86.0356 80.2707C85.7561 80.1082 85.4701 79.9587 85.1972 79.7833C85.0347 79.6728 84.9697 79.7248 84.8787 79.8807C84.3262 80.8557 83.7608 81.8306 83.1953 82.7925C83.0914 82.9485 83.1368 83.007 83.2798 83.0849Z" fill="#363636"/>
<path d="M94.5435 111.949C93.5621 111.377 92.5742 110.818 91.5928 110.246C91.4628 110.168 91.3848 110.168 91.3068 110.311C91.1378 110.616 90.9688 110.915 90.7868 111.214C90.7218 111.331 90.7218 111.396 90.8518 111.468C91.8462 112.033 92.8406 112.612 93.8351 113.184C93.9 113.216 93.978 113.294 94.03 113.203C94.251 112.846 94.459 112.475 94.667 112.131C94.693 112.001 94.602 111.981 94.5435 111.949Z" fill="#363636"/>
<path d="M91.3066 91.1181C91.3846 91.2611 91.4561 91.2611 91.586 91.1896C92.5675 90.6176 93.5489 90.0522 94.5303 89.4867C94.5888 89.4542 94.6733 89.4217 94.6603 89.3242C94.6538 89.3047 94.6473 89.2852 94.6343 89.2657C94.4458 88.9408 94.2573 88.6093 94.0688 88.2843C93.9973 88.1544 93.9193 88.2063 93.8283 88.2583C92.8404 88.8303 91.846 89.4022 90.8516 89.9742C90.7281 90.0457 90.7086 90.1107 90.7866 90.2277C90.9686 90.5136 91.1441 90.8126 91.3066 91.1181Z" fill="#363636"/>
<path d="M52.8552 89.5257C53.7911 90.0587 54.7335 90.5916 55.6629 91.1506C55.8839 91.2806 55.9749 91.2351 56.0789 91.0271C56.2024 90.7736 56.3454 90.5331 56.5013 90.2992C56.6118 90.1302 56.6053 90.0392 56.4104 89.9287C55.4484 89.3892 54.4995 88.8303 53.5441 88.2779C53.4856 88.2454 53.4271 88.2194 53.3816 88.1934C53.2712 88.1934 53.2582 88.2844 53.2192 88.3428C53.0567 88.6093 52.9137 88.8888 52.7447 89.1553C52.6212 89.3438 52.6862 89.4282 52.8552 89.5257Z" fill="#363636"/>
<path d="M55.9824 110.252C55.9174 110.142 55.8459 110.174 55.7679 110.22C54.78 110.792 53.7856 111.364 52.7912 111.936C52.6612 112.014 52.6352 112.085 52.7197 112.222C52.8952 112.508 53.0642 112.8 53.2202 113.093C53.2917 113.223 53.3502 113.255 53.4932 113.177C54.4746 112.605 55.456 112.04 56.4374 111.474C56.4959 111.442 56.5869 111.422 56.5869 111.331C56.5739 111.305 56.5739 111.286 56.5609 111.266C56.3724 110.928 56.1774 110.59 55.9824 110.252Z" fill="#363636"/>
<path d="M62.8777 83.4489C62.9362 83.5529 62.9752 83.7089 63.1636 83.5919C63.4561 83.4099 63.7616 83.2409 64.0541 83.0655C64.1126 83.033 64.197 83.007 64.197 82.9095C64.1646 82.851 64.1321 82.799 64.0996 82.7405C63.6186 81.8956 63.1311 81.0506 62.6502 80.2122C62.3382 79.6663 62.3382 79.6663 61.8053 79.9782C61.5843 80.1082 61.2463 80.2057 61.1748 80.3942C61.1033 80.5957 61.3763 80.8427 61.5063 81.0636C61.9548 81.8631 62.4162 82.656 62.8777 83.4489Z" fill="#363636"/>
<path d="M53.5837 101.199C53.5772 100.9 53.5707 100.594 53.5837 100.289C53.5967 100.055 53.4993 99.9898 53.2848 99.9963C52.7583 100.009 52.2254 100.003 51.6989 100.003C51.14 100.003 50.5745 100.009 50.0156 100.003C49.8596 100.003 49.7751 100.022 49.7816 100.211C49.7946 100.542 49.7946 100.88 49.7881 101.218C49.7816 101.381 49.8596 101.42 50.0026 101.42C51.127 101.42 52.2514 101.426 53.3693 101.439C53.5318 101.433 53.5902 101.361 53.5837 101.199Z" fill="#363636"/>
<path d="M97.5456 101.166C97.5326 100.867 97.5326 100.562 97.5456 100.256C97.5521 100.081 97.4936 100.003 97.3051 100.003C96.2002 100.009 95.1018 100.009 93.9969 100.003C93.7954 100.003 93.7369 100.087 93.7434 100.276C93.7564 100.581 93.7564 100.88 93.7434 101.186C93.7304 101.394 93.8214 101.439 94.0099 101.433C94.5493 101.42 95.0888 101.426 95.6282 101.426C95.6282 101.42 95.6282 101.413 95.6282 101.413C96.1807 101.413 96.7331 101.407 97.2791 101.42C97.4741 101.42 97.5586 101.368 97.5456 101.166Z" fill="#363636"/>
<defs>
<linearGradient id="paint0_linear_2001_13108" x1="-7.41602" y1="-21.4439" x2="97.7161" y2="83.3921" gradientUnits="userSpaceOnUse">
<stop stop-color="#231F20"/>
<stop offset="1" stop-color="white"/>
</linearGradient>
<linearGradient id="paint1_linear_2001_13108" x1="228.971" y1="251.762" x2="33.777" y2="90.0774" gradientUnits="userSpaceOnUse">
<stop stop-color="#231F20"/>
<stop offset="1" stop-color="white"/>
</linearGradient>
<linearGradient id="paint2_linear_2001_13108" x1="-60.4263" y1="-118.011" x2="109.934" y2="78.6504" gradientUnits="userSpaceOnUse">
<stop stop-color="#231F20"/>
<stop offset="1" stop-color="white"/>
</linearGradient>
</defs>
</svg>
