<svg width="152" height="173" viewBox="0 0 152 173" fill="none" xmlns="http://www.w3.org/2000/svg">
<path d="M87.0558 159.55C122.494 152.335 146.098 113.694 139.777 73.243C133.456 32.792 99.6038 5.84893 64.1659 13.064C28.7281 20.279 5.12407 58.92 11.4449 99.371C17.7658 139.822 51.6179 166.765 87.0558 159.55Z" fill="#4949FC"/>
<path d="M75.6009 146.732C104.837 146.732 128.537 119.679 128.537 86.3078C128.537 52.9363 104.837 25.8834 75.6009 25.8834C46.3652 25.8834 22.665 52.9363 22.665 86.3078C22.665 119.679 46.3652 146.732 75.6009 146.732Z" fill="url(#paint0_linear_2001_13157)"/>
<path d="M75.6014 146.01C104.488 146.01 127.905 119.281 127.905 86.3078C127.905 53.335 104.488 26.6052 75.6014 26.6052C46.7149 26.6052 23.2979 53.335 23.2979 86.3078C23.2979 119.281 46.7149 146.01 75.6014 146.01Z" fill="url(#paint1_linear_2001_13157)"/>
<path d="M75.6013 140.442C101.794 140.442 123.027 116.205 123.027 86.3078C123.027 56.4102 101.794 32.1733 75.6013 32.1733C49.4089 32.1733 28.1758 56.4102 28.1758 86.3078C28.1758 116.205 49.4089 140.442 75.6013 140.442Z" fill="#F1F0F0"/>
<path d="M75.6005 139.669C101.419 139.669 122.348 115.778 122.348 86.3077C122.348 56.8372 101.419 32.9467 75.6005 32.9467C49.7823 32.9467 28.8525 56.8372 28.8525 86.3077C28.8525 115.778 49.7823 139.669 75.6005 139.669Z" fill="url(#paint2_linear_2001_13157)"/>
<path d="M53.0824 78.3461C52.6858 78.0723 52.5801 77.6942 52.5801 77.2118C52.5933 61.3057 52.5933 45.3995 52.5933 29.4934C52.5933 28.6068 52.818 28.3722 53.7301 28.3722C64.609 28.3722 75.5012 28.3722 86.3802 28.3591C86.7899 28.3591 87.094 28.4765 87.3848 28.7633C88.8388 30.2235 90.3193 31.6707 91.7866 33.1049C92.051 33.3656 92.1699 33.6394 92.1699 34.0045C92.1567 36.6512 92.1567 39.3109 92.1699 41.9576C92.1699 42.3226 92.0906 42.4269 91.7073 42.4139C90.5705 42.4009 90.5705 42.4139 90.5705 41.3057C90.5705 39.7281 90.5573 38.1505 90.5837 36.573C90.5837 36.26 90.4912 36.1557 90.1739 36.1557C88.548 36.1688 86.9089 36.1688 85.283 36.1557C84.5031 36.1557 84.252 35.908 84.252 35.1388C84.252 33.5743 84.2387 32.0097 84.2652 30.4582C84.2784 30.028 84.1726 29.8976 83.71 29.8976C75.3162 29.9497 66.9487 29.9367 58.5681 29.9367C57.233 29.9367 55.898 29.9497 54.5629 29.9367C54.2721 29.9367 54.1267 29.9889 54.1663 30.3148C54.1795 30.393 54.1663 30.4713 54.1663 30.5625C54.1663 45.7646 54.1663 60.9797 54.1531 76.1818C54.1531 76.7033 54.2985 76.8076 54.8008 76.8076C66.5258 76.7946 78.2507 76.7946 89.9756 76.8076C90.4647 76.8076 90.5969 76.7033 90.5969 76.2079C90.5705 71.1362 90.5837 66.0645 90.5705 60.9797C90.5705 60.5234 90.6498 60.367 91.1521 60.38C92.1699 60.4191 92.1699 60.393 92.1699 61.41C92.1699 66.6773 92.1699 71.9445 92.1831 77.2248C92.1831 77.7072 92.0774 78.0853 91.6808 78.3591C78.8059 78.3461 65.9441 78.3461 53.0824 78.3461ZM88.2176 34.6434C88.8256 34.6434 89.4337 34.6564 90.0417 34.6434C90.2136 34.6434 90.4647 34.7607 90.5705 34.5391C90.6762 34.3044 90.5176 34.1218 90.3325 33.9524C89.0635 32.7007 87.7946 31.4491 86.5256 30.1975C86.4727 30.1453 86.433 30.1062 86.3802 30.0671C86.248 29.9237 86.0761 29.9367 85.9175 29.9758C85.7457 30.028 85.825 30.1975 85.825 30.3148C85.825 31.6447 85.825 32.9745 85.8118 34.3044C85.8118 34.5912 85.9043 34.6694 86.1819 34.6564C86.8692 34.6303 87.5434 34.6434 88.2176 34.6434Z" fill="#363636"/>
<path d="M98.5809 45.4517C98.5545 46.4556 98.1712 47.2249 97.497 47.9028C93.7165 51.6186 89.9492 55.3605 86.1686 59.0893C84.8864 60.3539 83.6042 61.6186 82.322 62.8833C82.1634 63.0397 81.9915 63.144 81.78 63.1962C80.3392 63.5482 78.8984 63.9002 77.4575 64.2392C76.6776 64.4217 76.215 63.9524 76.4001 63.1701C76.7437 61.762 77.0874 60.367 77.4443 58.9589C77.4972 58.7373 77.6162 58.5547 77.788 58.3852C82.2295 54.0045 86.6709 49.6238 91.1124 45.2301C91.7998 44.5521 92.4739 43.8611 93.201 43.2223C94.2056 42.3227 95.3952 42.114 96.6378 42.6356C97.8936 43.1701 98.4884 44.1871 98.5809 45.4517ZM94.1263 48.9459C94.0866 48.8937 94.0469 48.8416 94.0073 48.8024C93.3596 48.1636 92.6986 47.5247 92.0509 46.8728C91.8527 46.6773 91.7733 46.8468 91.6676 46.9511C88.4158 50.1584 85.164 53.3657 81.9122 56.5599C81.7272 56.7425 81.7272 56.8468 81.9122 57.0293C82.5203 57.603 83.1151 58.1897 83.6967 58.7894C83.895 58.998 84.014 58.9719 84.1991 58.7764C87.4244 55.5821 90.663 52.3878 93.9015 49.1805C93.9809 49.1154 94.0469 49.0502 94.1263 48.9459ZM95.2631 44.0045C95.1705 44.0176 95.0516 44.0306 94.9458 44.0567C94.113 44.2522 93.7033 44.9824 93.1216 45.4908C92.9895 45.6082 93.1613 45.6864 93.2274 45.7646C93.8487 46.3904 94.4832 47.0032 95.1177 47.629C95.2631 47.7725 95.3556 47.8116 95.5142 47.6421C95.8579 47.277 96.2545 46.938 96.5717 46.5469C96.9947 46.0384 97.0344 45.4517 96.7436 44.852C96.4395 44.2783 95.924 44.0436 95.2631 44.0045ZM82.7582 60.1453C82.7186 60.1062 82.6789 60.0541 82.626 60.0019C81.9783 59.3631 81.3835 58.633 80.6565 58.1114C80.2335 57.7985 80.0352 58.5286 79.7047 58.7373C79.5593 58.8285 79.3082 58.9589 79.5857 59.2197C80.022 59.6369 80.445 60.0671 80.8812 60.4843C81.7007 61.2927 81.7007 61.2927 82.5203 60.4582C82.6128 60.367 82.7318 60.2888 82.7582 60.1453ZM78.8058 60.6147C78.753 60.6408 78.7001 60.6799 78.6604 60.706C78.5283 61.2666 78.3828 61.8142 78.2374 62.44C78.8191 62.2966 79.3214 62.1792 79.8369 62.0619C80.022 62.0228 80.0616 61.9446 79.9162 61.8011C79.5461 61.397 79.176 61.0058 78.8058 60.6147Z" fill="#363636"/>
<path d="M64.4478 40.8755C64.4478 44.9563 67.6732 48.4114 71.7181 48.6721C76.0009 48.9459 79.6625 46.0515 80.2045 41.8925C80.5349 39.4153 79.7815 37.264 78.063 35.4648C77.7855 35.178 77.8251 35.0346 78.0763 34.7738C78.8694 33.9394 78.8826 33.9133 79.6096 34.8129C81.9229 37.6291 82.531 40.7973 81.2355 44.1871C79.9533 47.5248 77.4286 49.5196 73.8595 50.1193C68.7042 50.9798 63.8266 47.4466 62.9938 42.3357C62.161 37.2771 65.6904 32.4661 70.8589 31.6317C72.3526 31.384 73.8066 31.5144 75.2607 31.9446C75.5647 32.0359 75.6573 32.1532 75.5251 32.4531C75.3797 32.779 75.3532 33.2223 75.1153 33.4179C74.8377 33.6395 74.4411 33.3266 74.0975 33.2484C69.114 32.1793 64.4478 35.869 64.4478 40.8755Z" fill="#363636"/>
<path d="M70.7961 71.3187C72.7525 71.3187 74.7221 71.3317 76.6784 71.3057C77.0485 71.3057 77.1411 71.3969 77.1411 71.762C77.1279 72.8702 77.1411 72.8702 76.0175 72.8702C72.3295 72.8702 68.6415 72.8702 64.9403 72.8832C64.5437 72.8832 64.4512 72.7789 64.4512 72.4008C64.4776 71.3187 64.4512 71.3187 65.5483 71.3187C67.2932 71.3187 69.0513 71.3187 70.7961 71.3187Z" fill="#363636"/>
<path d="M58.8858 58.0463C58.1587 58.0463 57.4317 58.0463 56.7047 58.0463C56.057 58.0463 55.7662 57.7594 55.7529 57.1336C55.7529 55.6603 55.7397 54.174 55.7529 52.7008C55.7529 52.101 56.057 51.8272 56.6783 51.8142C56.7972 51.8142 56.903 51.8011 57.0219 51.8142C57.3788 51.8403 57.9208 51.6577 58.053 51.8924C58.2381 52.2444 58.1323 52.7399 58.1323 53.1832C58.1323 53.4961 57.8679 53.3787 57.7225 53.3657C57.4185 53.3396 57.326 53.4439 57.3392 53.7438C57.3656 54.5391 57.3656 55.3344 57.3392 56.1297C57.326 56.4556 57.4582 56.5078 57.7357 56.4948C58.5289 56.4817 59.322 56.4687 60.1019 56.4948C60.4323 56.5078 60.5513 56.4035 60.4984 56.0906C60.4456 55.8038 60.5645 55.6995 60.8686 55.6995C62.0847 55.6864 62.0847 55.6734 62.0715 56.8729C62.0715 57.8377 61.86 58.0463 60.895 58.0463C60.2341 58.0463 59.5599 58.0463 58.8858 58.0463Z" fill="#363636"/>
<path d="M58.8849 66.6381C58.1579 66.6381 57.4309 66.6381 56.7038 66.6381C56.0429 66.6381 55.7521 66.3513 55.7521 65.7255C55.7389 64.2522 55.7389 62.7659 55.7521 61.2926C55.7521 60.6929 56.0561 60.406 56.6642 60.393C57.0211 60.38 57.3912 60.4191 57.7481 60.38C58.0654 60.3539 58.1579 60.4843 58.1182 60.7711C58.105 60.9536 58.105 61.1231 58.1182 61.3057C58.1447 61.6968 58.1711 62.0749 57.5631 61.9445C57.3648 61.9054 57.3251 62.0358 57.3251 62.2053C57.3251 63.0658 57.3383 63.9263 57.3251 64.7867C57.3251 65.0084 57.4177 65.0605 57.6159 65.0605C58.4751 65.0475 59.3344 65.0475 60.1803 65.0605C60.4712 65.0605 60.524 64.9302 60.4844 64.7085C60.4183 64.3174 60.6033 64.2652 60.947 64.2652C62.0574 64.2783 62.0574 64.2652 62.0574 65.3865C62.0574 66.4295 61.8591 66.612 60.8281 66.612C60.2068 66.6381 59.5459 66.6381 58.8849 66.6381Z" fill="#363636"/>
<path d="M58.8981 75.217C58.1579 75.217 57.4177 75.217 56.6774 75.217C56.0561 75.204 55.7653 74.9302 55.7521 74.3174C55.7389 72.8442 55.7389 71.3578 55.7521 69.8846C55.7521 69.2718 56.0429 68.985 56.651 68.9719C56.7435 68.9719 56.8492 68.9719 56.9418 68.9719C58.1579 68.9719 58.1447 68.9719 58.1315 70.1714C58.1315 70.4843 58.0125 70.5756 57.7349 70.5365C57.4044 70.4843 57.3119 70.6277 57.3251 70.9406C57.3516 71.7229 57.3383 72.5052 57.3251 73.2744C57.3119 73.5612 57.3912 73.6786 57.7085 73.6655C58.5148 73.6395 59.3211 73.6395 60.1275 73.6655C60.4447 73.6786 60.5505 73.5612 60.4976 73.2744C60.4447 72.9615 60.5769 72.8702 60.8942 72.8702C62.0706 72.8702 62.0706 72.8572 62.0706 74.0176C62.0706 75.0084 61.8723 75.217 60.8545 75.217C60.22 75.2301 59.5591 75.2301 58.8981 75.217Z" fill="#363636"/>
<path d="M70.4646 44.7998C70.1737 44.8129 69.9755 44.7086 69.8036 44.5391C69.0898 43.835 68.3892 43.131 67.6622 42.44C67.4771 42.2574 67.4904 42.1531 67.6622 41.9706C68.5214 41.071 68.5214 41.071 69.3938 41.9315C69.7243 42.2444 70.0416 42.779 70.3985 42.805C70.7686 42.8441 71.0726 42.2574 71.3899 41.9445C72.8968 40.4713 74.4037 38.985 75.8974 37.4856C76.1221 37.2509 76.2411 37.264 76.4658 37.4856C77.2986 38.307 77.3118 38.307 76.4658 39.1284C74.6945 40.8754 72.9232 42.6225 71.1519 44.3696C70.9669 44.5912 70.7554 44.8259 70.4646 44.7998Z" fill="#363636"/>
<path d="M70.003 55.6994C68.2846 55.6994 66.5794 55.6864 64.861 55.7125C64.5305 55.7125 64.4512 55.6212 64.4512 55.3083C64.4512 54.1479 64.438 54.1479 65.6276 54.1479C68.7737 54.1479 71.9197 54.161 75.0658 54.1349C75.4623 54.1349 75.5548 54.2392 75.5548 54.6173C75.5284 55.6994 75.5548 55.6994 74.4577 55.6994C72.9772 55.6994 71.4835 55.6994 70.003 55.6994Z" fill="#363636"/>
<path d="M68.417 64.2913C67.2274 64.2913 66.0509 64.2783 64.8612 64.2913C64.5704 64.2913 64.4647 64.2392 64.4647 63.9263C64.4514 62.7268 64.4382 62.7268 65.6543 62.7268C67.7429 62.7268 69.8446 62.7398 71.9332 62.7137C72.2769 62.7137 72.4223 62.7659 72.4091 63.157C72.3958 64.2783 72.4091 64.2783 71.2458 64.2783C70.2941 64.2913 69.3556 64.2913 68.417 64.2913Z" fill="#363636"/>
<path d="M63.801 68.3722C63.7084 68.4765 63.6291 68.5547 63.5498 68.6329C62.2808 69.8846 61.0118 71.1362 59.7428 72.3878C59.5313 72.6095 59.4124 72.5964 59.2009 72.3878C58.3416 71.5534 58.3284 71.5664 59.1876 70.719C60.2584 69.6629 61.3423 68.6069 62.3998 67.5378C62.6377 67.29 62.7963 67.277 63.0211 67.5378C63.1929 67.7464 63.4176 67.9289 63.6159 68.1245C63.6688 68.2027 63.7216 68.2809 63.801 68.3722Z" fill="#363636"/>
<path d="M63.3673 51.6186C63.3145 51.6708 63.2484 51.749 63.1823 51.8142C62.0323 52.9485 60.869 54.0827 59.719 55.2301C59.5207 55.4256 59.4017 55.4126 59.2035 55.2301C58.3178 54.3826 58.3178 54.3957 59.1638 53.5612C60.1155 52.6225 61.0805 51.6838 62.0323 50.732C62.2437 50.5104 62.3892 50.5104 62.5742 50.732C62.7593 50.9537 62.9972 51.1492 63.1955 51.3578C63.2748 51.423 63.3806 51.4752 63.3673 51.6186Z" fill="#363636"/>
<path d="M59.3742 64.1218C59.2685 63.9654 59.1892 63.7959 59.0702 63.6655C58.3696 62.9614 58.3564 62.9614 59.057 62.2704C60.0484 61.2926 61.0398 60.3278 62.0179 59.3369C62.2427 59.1022 62.3748 59.1153 62.5996 59.3369C63.4323 60.1583 63.4456 60.1583 62.6128 60.9797C61.6743 61.9054 60.7225 62.8441 59.784 63.7698C59.6915 63.848 59.5857 63.9393 59.3742 64.1218Z" fill="#363636"/>
<path d="M92.1697 58.0462C92.1697 58.8285 92.1697 58.8285 91.2312 58.8285C90.5967 58.8285 90.5967 58.8285 90.5967 57.8898C90.5967 57.277 90.5967 57.277 91.5616 57.277C92.1697 57.2639 92.1697 57.2639 92.1697 58.0462Z" fill="#363636"/>
<path d="M74.7746 62.7268C75.5413 62.7268 75.5413 62.7268 75.5413 63.6395C75.5413 64.2913 75.5413 64.2913 74.5499 64.2913C73.9551 64.2913 73.9551 64.2913 73.9551 63.3135C73.9683 62.7268 73.9683 62.7268 74.7746 62.7268Z" fill="#363636"/>
<defs>
<linearGradient id="paint0_linear_2001_13157" x1="-6.58871" y1="-20.5025" x2="98.5434" y2="84.3336" gradientUnits="userSpaceOnUse">
<stop stop-color="#231F20"/>
<stop offset="1" stop-color="white"/>
</linearGradient>
<linearGradient id="paint1_linear_2001_13157" x1="229.798" y1="252.703" x2="34.6042" y2="91.0188" gradientUnits="userSpaceOnUse">
<stop stop-color="#231F20"/>
<stop offset="1" stop-color="white"/>
</linearGradient>
<linearGradient id="paint2_linear_2001_13157" x1="-59.599" y1="-117.07" x2="110.762" y2="79.5918" gradientUnits="userSpaceOnUse">
<stop stop-color="#231F20"/>
<stop offset="1" stop-color="white"/>
</linearGradient>
</defs>
</svg>
