<svg width="152" height="173" viewBox="0 0 152 173" fill="none" xmlns="http://www.w3.org/2000/svg">
<path d="M87.0558 159.55C122.494 152.335 146.098 113.694 139.777 73.243C133.456 32.792 99.6038 5.84892 64.1659 13.064C28.7281 20.279 5.12407 58.92 11.4449 99.371C17.7658 139.822 51.618 166.765 87.0558 159.55Z" fill="#2D2788"/>
<path d="M75.5746 146.749C104.81 146.749 128.51 119.697 128.51 86.3251C128.51 52.9537 104.81 25.9008 75.5746 25.9008C46.3389 25.9008 22.6387 52.9537 22.6387 86.3251C22.6387 119.697 46.3389 146.749 75.5746 146.749Z" fill="url(#paint0_linear_2001_13193)"/>
<path d="M75.575 146.028C104.461 146.028 127.879 119.298 127.879 86.3251C127.879 53.3523 104.461 26.6226 75.575 26.6226C46.6886 26.6226 23.2715 53.3523 23.2715 86.3251C23.2715 119.298 46.6886 146.028 75.575 146.028Z" fill="url(#paint1_linear_2001_13193)"/>
<path d="M75.5749 140.46C101.767 140.46 123 116.223 123 86.3251C123 56.4275 101.767 32.1907 75.5749 32.1907C49.3825 32.1907 28.1494 56.4275 28.1494 86.3251C28.1494 116.223 49.3825 140.46 75.5749 140.46Z" fill="#F1F0F0"/>
<path d="M75.5741 139.686C101.392 139.686 122.322 115.796 122.322 86.3251C122.322 56.8546 101.392 32.964 75.5741 32.964C49.7559 32.964 28.8262 56.8546 28.8262 86.3251C28.8262 115.796 49.7559 139.686 75.5741 139.686Z" fill="url(#paint2_linear_2001_13193)"/>
<path d="M100.082 60.655C99.5069 60.3098 99.5069 59.907 99.5069 59.3604C99.5356 55.2465 99.5069 51.1038 99.5069 46.9899C99.5069 42.9047 99.5069 38.8483 99.5069 34.7632C99.5069 32.7206 98.7876 31.9726 96.7451 31.9726C93.9257 31.9438 91.0776 31.9151 88.2583 32.0014C87.0212 32.0301 86.5322 31.7137 86.6185 30.4191C86.6472 29.7286 87.1651 28.434 86.0143 28.4053C84.8636 28.4053 85.3527 29.6999 85.4102 30.3903C85.4677 31.6849 85.0362 32.0301 83.7704 32.0014C80.836 31.9151 77.9303 31.9726 74.9959 31.9726C73.7876 31.9726 72.6657 32.4617 72.6369 33.6412C72.493 38.9058 72.5506 44.1705 72.5218 49.464C72.5218 49.838 72.752 50.0969 73.1547 50.1256C73.5287 50.1256 73.7876 49.8667 73.8164 49.4927C73.8739 49.1187 73.8452 48.716 73.8452 48.342C73.8452 43.9404 73.9027 39.51 73.8164 35.1084C73.7876 33.6987 74.3055 33.2672 75.6576 33.2672C82.5046 33.296 89.3803 33.296 96.2272 33.296C98.0109 33.296 98.1547 33.4398 98.1547 35.281C98.1547 42.9622 98.1547 50.6147 98.1547 58.296C98.1547 60.1947 98.0684 60.281 96.2272 60.281C89.8406 60.281 83.4827 60.281 77.096 60.281C76.233 60.281 75.3124 60.4248 74.5356 60.1659C73.3849 59.7632 74.0178 58.5836 73.8452 57.7493C73.7589 57.3178 73.5863 57.0301 73.0972 57.0589C72.6944 57.0877 72.5218 57.3754 72.5218 57.7493C72.493 58.2384 72.5218 58.6987 72.493 59.1878C72.4643 59.6769 72.752 60.1947 72.0903 60.5687C70.9395 61.2016 70.508 62.2373 70.9395 63.5031C71.3998 64.8552 72.5218 65.1429 73.8164 65.1141C76.3481 65.0566 78.9085 65.1429 81.4401 65.0854C82.7059 65.0566 82.6484 65.4306 82.073 66.3224C81.0086 67.9622 80.0017 69.6596 78.9948 71.3569C78.7071 71.8172 78.1317 72.3638 78.9372 72.7954C79.5989 73.1694 79.8578 72.5077 80.1167 72.0762C81.325 70.1199 82.5333 68.1636 83.7416 66.2073C84.7485 64.5388 87.2226 64.5675 88.2583 66.2361C89.4953 68.2212 90.7324 70.235 91.9407 72.2488C92.1996 72.6803 92.4873 73.1118 93.0627 72.7954C93.6668 72.4502 93.3216 71.9611 93.0914 71.5583C92.0558 69.8322 91.0201 68.1061 89.9269 66.4087C89.3227 65.4594 89.2364 65.0278 90.6173 65.0854C93.264 65.1717 95.882 65.0854 98.5287 65.1141C99.7658 65.1141 100.686 64.6251 101.06 63.4168C101.463 62.2373 101.118 61.2591 100.082 60.655ZM98.0684 63.7332C94.0408 63.7332 90.042 63.7332 86.0143 63.7332C81.9867 63.7332 77.9879 63.7332 73.9602 63.7332C73.1835 63.7332 72.2629 63.7908 72.2341 62.7263C72.2054 61.5756 73.1547 61.6044 73.989 61.6044C82.0155 61.6044 90.0707 61.6044 98.0972 61.6044C98.9027 61.6044 99.7945 61.6044 99.8233 62.64C99.8521 63.8195 98.9027 63.7332 98.0684 63.7332Z" fill="#363636"/>
<path d="M67.8611 56.2534C69.4146 57.7206 69.7886 57.7782 71.601 56.6562C72.9819 55.7931 74.3628 54.9588 75.7437 54.067C76.7218 53.4341 77.1534 52.571 76.4917 51.5066C75.83 50.4422 74.8519 50.4422 73.8737 51.0463C72.9244 51.6217 71.975 52.1683 71.0832 52.8012C70.364 53.319 69.8461 53.319 69.2995 52.5998C68.8968 52.082 68.3502 51.6504 67.8899 51.1614C66.9405 50.1545 66.0199 49.1188 65.013 48.1694C64.2362 47.4502 63.5458 47.3351 63.2006 48.6873C62.9704 49.6366 62.7115 50.6148 62.021 51.5354C61.647 50.4997 61.3018 49.6079 61.0141 48.716C60.5826 47.479 60.2374 47.3064 59.2305 48.1694C58.3674 48.9174 57.6194 49.8092 56.8139 50.6148C54.5987 52.8012 52.4123 54.9588 50.2546 57.1453C49.6793 57.7206 49.3916 58.4111 49.6793 59.2166C49.9382 59.9071 50.4848 60.2811 51.204 60.3386C51.952 60.3961 52.4698 59.9646 52.9301 59.4755C54.2247 58.1234 55.5481 56.7425 57.1304 55.1027C57.3605 58.296 57.6194 60.9715 56.9002 63.647C56.5838 64.7977 56.4399 66.006 56.2098 67.1855C56.1235 67.7034 55.9796 68.3363 56.7276 68.4226C57.3605 68.5089 57.418 67.9335 57.5044 67.4445C57.8496 65.4594 58.2811 63.5031 58.5688 61.5181C58.6839 60.7126 58.9716 60.3386 59.8634 60.3961C61.2443 60.4537 62.654 60.4537 64.0348 60.3961C64.8979 60.3674 65.3007 60.6263 65.4445 61.5469C65.7897 63.7621 66.25 65.9773 66.6528 68.1924C67.0843 70.5515 67.4871 72.9105 67.9186 75.2695C68.0625 75.9888 68.2638 76.8231 67.2857 77.0244C66.1925 77.2546 66.135 76.3052 65.9624 75.5572C65.9048 75.2408 65.8473 74.8956 65.7897 74.5791C65.0705 70.6666 64.3225 66.754 63.6896 62.8415C63.4882 61.5469 62.7978 61.4606 61.7334 61.4318C60.6114 61.403 60.5251 62.0359 60.3812 62.8415C59.6332 67.128 58.8277 71.4145 58.051 75.7011C57.9359 76.3628 57.7633 77.1395 56.8714 77.0244C55.8645 76.8806 56.0372 76.0751 56.0659 75.3271C56.0947 74.6942 56.8427 73.716 55.807 73.4859C54.5987 73.2557 55.1166 74.5503 54.7713 75.1257C54.7426 75.1545 54.7426 75.212 54.7426 75.2695C54.4836 76.9381 55.1453 78.0889 56.555 78.3478C57.9934 78.5779 59.0003 77.83 59.3168 76.1326C59.8922 73.1694 60.3812 70.2063 60.9854 67.2431C61.2731 65.7759 61.3306 64.2511 61.9635 62.8127C62.6252 63.1292 62.4813 63.7045 62.5676 64.1361C63.3156 68.1349 64.0348 72.1338 64.7828 76.1326C65.0705 77.6286 65.8473 78.3766 67.1419 78.3766C68.7529 78.3766 69.6735 77.2258 69.3571 75.4134C68.6666 71.2995 67.9762 67.1855 67.0843 63.1292C66.5377 60.5975 66.7966 58.1522 66.9117 55.4479C67.372 55.8219 67.6309 56.0233 67.8611 56.2534ZM65.9336 53.0601C65.3582 53.2903 65.5596 53.8656 65.5308 54.3259C65.5021 55.4767 65.5021 56.6274 65.5308 57.7782C65.5596 58.67 65.2431 59.1015 64.2938 59.044C62.8266 58.9865 61.3306 58.9865 59.8346 59.044C58.8565 59.0728 58.5976 58.67 58.6263 57.7782C58.6839 56.5411 58.6263 55.2753 58.6263 54.0382C58.6263 53.6067 58.6263 53.1464 58.1085 52.9738C57.677 52.83 57.3893 53.1464 57.1304 53.4053C55.4905 55.0164 53.8795 56.6562 52.2397 58.2672C51.9232 58.5549 51.6068 59.2741 51.1465 58.8426C50.5999 58.3536 51.3191 58.0371 51.6068 57.7206C54.2823 55.0451 56.9577 52.3984 59.7771 49.6079C60.1511 50.6435 60.4963 51.5641 60.8415 52.5135C61.0717 53.0889 61.4457 53.5204 62.1073 53.4916C62.7115 53.4629 63.0279 53.0313 63.2293 52.5135C63.5745 51.5929 63.9198 50.6435 64.265 49.7229C65.7322 51.1326 67.2282 52.4272 68.5803 53.8656C69.5009 54.8438 70.2201 55.1027 71.3421 54.2109C72.2627 53.4629 73.3559 52.9163 74.3628 52.2834C74.6505 52.1107 74.9957 51.8231 75.2546 52.1683C75.5999 52.6286 75.082 52.83 74.7943 53.0313C73.3847 53.9232 71.9462 54.7862 70.5366 55.7068C69.9324 56.1096 69.5297 56.0233 69.0694 55.5054C68.4652 54.8438 67.7748 54.2109 67.1419 53.5779C66.7966 53.2615 66.4802 52.83 65.9336 53.0601Z" fill="#363636"/>
<path d="M95.1628 34.648C89.0639 34.7056 82.9937 34.7056 76.8947 34.648C75.6001 34.648 75.2549 35.1371 75.2837 36.3454C75.3412 39.7401 75.3124 43.1636 75.3124 46.5583C75.3124 47.1337 75.3124 47.709 75.3412 48.2844C75.37 48.6584 75.5426 48.9461 75.9453 48.9173C76.3481 48.9173 76.5207 48.6296 76.5495 48.2556C76.5783 47.8816 76.5783 47.4789 76.5783 47.1049C76.5783 43.8828 76.607 40.6895 76.5495 37.4674C76.5207 36.4029 76.7509 35.9714 77.9592 35.9714C83.3389 36.0289 88.6899 36.0289 94.0696 35.9714C95.1916 35.9714 95.4218 36.3742 95.4218 37.3811C95.393 43.6239 95.393 49.8379 95.4218 56.0807C95.4218 57.1452 95.1628 57.4904 94.0696 57.4616C88.7474 57.4041 83.4252 57.4329 78.103 57.4616C77.1249 57.4616 76.3481 57.4329 76.5207 56.1383C76.5783 55.7643 76.3481 55.4766 75.9741 55.3903C75.8303 55.3615 75.5426 55.4478 75.485 55.5917C75.0247 56.4547 75.1686 57.3753 75.3412 58.2384C75.4563 58.9288 76.1755 58.7562 76.6646 58.7562C82.8498 58.7562 89.0351 58.7274 95.2204 58.785C96.3711 58.785 96.7163 58.411 96.7163 57.289C96.6588 53.7505 96.6876 50.1831 96.6876 46.6446C96.6876 43.1923 96.6588 39.7401 96.7163 36.2879C96.8026 35.1083 96.4574 34.6193 95.1628 34.648Z" fill="#363636"/>
<path d="M62.1364 47.5652C64.3516 47.5364 66.1352 45.7815 66.1352 43.5376C66.1352 41.3224 64.4091 39.5387 62.1652 39.4812C59.8349 39.4524 58.0512 41.2073 58.0225 43.48C58.0225 45.8103 59.8061 47.5652 62.1364 47.5652ZM62.0788 40.8333C63.5748 40.8333 64.8119 42.0704 64.7831 43.5663C64.7543 45.0623 63.5173 46.2418 61.9925 46.2131C60.5541 46.1843 59.3746 44.976 59.3458 43.5663C59.3171 42.0704 60.5829 40.8333 62.0788 40.8333Z" fill="#363636"/>
<path d="M82.0436 45.1199C83.3382 45.1487 84.6327 45.1199 85.9273 45.1199C87.2795 45.1199 88.6028 45.1199 89.955 45.1199C90.3577 45.1199 90.9331 45.1774 90.9043 44.5445C90.8756 43.9979 90.3577 44.113 89.9837 44.113C87.3658 44.113 84.7191 44.0842 82.1011 44.113C81.7559 44.113 81.238 44.0267 81.238 44.5733C81.1805 45.1199 81.6696 45.1199 82.0436 45.1199Z" fill="#363636"/>
<path d="M82.0727 40.8621C83.3673 40.8621 84.6619 40.8621 85.9565 40.8621C87.3086 40.8621 88.632 40.8621 89.9841 40.8621C90.3581 40.8621 90.8472 40.9485 90.876 40.4018C90.9047 39.8552 90.4732 39.8552 90.0704 39.8552C87.3949 39.8552 84.7195 39.8552 82.0152 39.8552C81.6412 39.8552 81.1521 39.8265 81.1809 40.3731C81.2097 40.8909 81.6987 40.8621 82.0727 40.8621Z" fill="#363636"/>
<path d="M81.929 49.4064C84.662 49.4064 87.395 49.4064 90.128 49.4064C90.4445 49.4064 90.876 49.4064 90.876 48.9174C90.876 48.342 90.387 48.4283 90.0417 48.4283C88.7471 48.4283 87.4525 48.4283 86.158 48.4283C84.7771 48.4283 83.3674 48.4283 81.9865 48.4283C81.6125 48.4283 81.1522 48.3708 81.181 48.9461C81.2097 49.3777 81.6125 49.4064 81.929 49.4064Z" fill="#363636"/>
<path d="M81.7566 52.7148C81.4689 52.7148 81.1812 52.8299 81.21 53.2039C81.2388 53.5779 81.5552 53.6066 81.8429 53.6354C82.5046 53.6642 83.1663 53.6354 83.828 53.6354C84.5472 53.6354 85.2376 53.6354 85.9568 53.6354C86.2445 53.6354 86.561 53.5779 86.5897 53.2039C86.6185 52.8299 86.3308 52.7148 86.0144 52.7148C84.5759 52.686 83.1663 52.686 81.7566 52.7148Z" fill="#363636"/>
<path d="M56.3827 71.4433C56.7855 71.4145 56.9581 71.1556 56.9581 70.7816C56.9581 70.3213 56.6704 70.1199 56.2101 70.0624C55.8936 70.2062 55.5484 70.3788 55.6059 70.8391C55.6635 71.2994 55.9799 71.472 56.3827 71.4433Z" fill="#363636"/>
<path d="M62.0211 54.2396C61.6183 54.3547 61.3307 54.5848 61.3882 55.0451C61.4457 55.5054 61.7622 55.6781 62.1937 55.6493C62.5965 55.6205 62.7691 55.3328 62.7691 54.9588C62.7116 54.4985 62.4526 54.2684 62.0211 54.2396Z" fill="#363636"/>
<defs>
<linearGradient id="paint0_linear_2001_13193" x1="-6.61391" y1="-20.4852" x2="98.5182" y2="84.3508" gradientUnits="userSpaceOnUse">
<stop stop-color="#231F20"/>
<stop offset="1" stop-color="white"/>
</linearGradient>
<linearGradient id="paint1_linear_2001_13193" x1="229.773" y1="252.72" x2="34.5792" y2="91.036" gradientUnits="userSpaceOnUse">
<stop stop-color="#231F20"/>
<stop offset="1" stop-color="white"/>
</linearGradient>
<linearGradient id="paint2_linear_2001_13193" x1="-59.6242" y1="-117.053" x2="110.736" y2="79.6091" gradientUnits="userSpaceOnUse">
<stop stop-color="#231F20"/>
<stop offset="1" stop-color="white"/>
</linearGradient>
</defs>
</svg>
