<svg width="150" height="170" viewBox="0 0 150 170" fill="none" xmlns="http://www.w3.org/2000/svg">
<path d="M84.8529 158.419C120.424 152.133 144.795 114.121 139.288 73.5183C133.781 32.9153 100.48 5.09619 64.909 11.3826C29.338 17.6691 4.96654 55.6805 10.4739 96.2835C15.9813 136.887 49.2819 164.706 84.8529 158.419Z" fill="#3227AC"/>
<path d="M74.9017 145.338C104.137 145.338 127.837 118.285 127.837 84.9132C127.837 51.5418 104.137 24.4889 74.9017 24.4889C45.666 24.4889 21.9658 51.5418 21.9658 84.9132C21.9658 118.285 45.666 145.338 74.9017 145.338Z" fill="url(#paint0_linear_2001_13173)"/>
<path d="M74.9012 144.616C103.788 144.616 127.205 117.886 127.205 84.9132C127.205 51.9404 103.788 25.2107 74.9012 25.2107C46.0148 25.2107 22.5977 51.9404 22.5977 84.9132C22.5977 117.886 46.0148 144.616 74.9012 144.616Z" fill="url(#paint1_linear_2001_13173)"/>
<path d="M74.902 139.048C101.094 139.048 122.328 114.811 122.328 84.9133C122.328 55.0156 101.094 30.7788 74.902 30.7788C48.7097 30.7788 27.4766 55.0156 27.4766 84.9133C27.4766 114.811 48.7097 139.048 74.902 139.048Z" fill="#F1F0F0"/>
<path d="M74.9013 138.274C100.719 138.274 121.649 114.384 121.649 84.9132C121.649 55.4427 100.719 31.5521 74.9013 31.5521C49.0831 31.5521 28.1533 55.4427 28.1533 84.9132C28.1533 114.384 49.0831 138.274 74.9013 138.274Z" fill="url(#paint2_linear_2001_13173)"/>
<path d="M88.2735 81.7129C82.6246 81.7129 76.999 81.8062 71.3501 81.6662C67.3818 81.5728 64.6041 84.2572 64.7441 88.3422C64.9309 94.0845 64.7908 99.8501 64.7908 105.616C64.7908 106.083 64.9309 106.596 64.6041 106.97C64.2773 107.343 63.9505 108.207 63.4603 107.833C62.83 107.39 63.6937 106.993 63.9505 106.69C64.6507 105.849 64.534 105.126 63.8338 104.425C63.0868 103.678 62.3865 103.702 61.6162 104.495C60.2623 105.849 58.9084 107.18 57.6013 108.58C55.3137 111.008 53.3062 113.599 52.1157 116.75C51.9056 117.287 51.7656 117.38 51.2521 117.007C50.4117 116.377 49.5714 116.54 48.8244 117.264C48.0775 117.987 47.3071 118.734 46.6069 119.505C45.7899 120.392 45.7665 121.325 46.6302 122.189C49.478 125.06 52.3258 127.931 55.2203 130.779C56.1073 131.643 57.0877 131.596 57.9981 130.732C58.5817 130.172 59.1652 129.589 59.7254 129.005C60.9626 127.768 61.0326 127.231 60.1223 125.597C60.9859 125.527 61.6629 125.2 62.2931 124.85C64.5107 123.566 66.915 123.52 69.3893 123.543C75.9253 123.613 82.4612 123.613 88.9972 123.543C92.2184 123.52 94.7161 120.999 94.7395 117.964C94.7395 115.396 94.7395 112.852 94.7395 110.284C94.7395 102.931 94.7395 95.5784 94.7395 88.2255C94.7395 83.9771 92.4986 81.7129 88.2735 81.7129ZM59.3986 127.978C58.7217 128.655 58.0214 129.355 57.3445 130.032C56.831 130.522 56.3408 130.546 55.8272 130.032C53.0028 127.208 50.1783 124.383 47.3538 121.559C46.8403 121.045 46.887 120.532 47.4005 120.042C47.4239 120.018 47.4472 119.995 47.4939 119.948C50.7852 116.774 49.7114 116.774 52.8627 119.855C54.9635 121.909 57.041 124.01 59.1185 126.111C59.422 126.414 59.7955 126.671 59.7955 127.161C59.7955 127.511 59.6321 127.745 59.3986 127.978ZM60.8225 124.453C60.5424 124.57 60.2156 124.593 60.2623 124.593C59.3053 124.64 58.7917 124.43 58.3482 123.986C56.6909 122.306 55.0102 120.625 53.3296 118.968C52.7927 118.431 52.6526 117.917 52.9794 117.194C54.0298 114.766 55.267 112.432 57.1111 110.494C58.7217 108.814 60.3557 107.156 61.9897 105.499C62.3165 105.172 62.5966 104.565 63.2035 105.172C63.7871 105.756 63.1568 106.036 62.9 106.433C62.7833 106.596 62.6666 106.736 62.5266 106.876C61.5695 107.693 62.2931 108.137 62.8534 108.72C63.4836 109.374 63.9038 109.281 64.464 108.627C65.2343 107.74 66.0513 106.923 66.8683 106.083C67.1718 105.779 67.4285 105.359 67.9187 105.826C68.3622 106.246 68.1288 106.573 67.802 106.9C67.1251 107.6 66.5182 108.37 65.8179 109.024C64.9075 109.841 65.6545 110.238 66.1447 110.774C66.7049 111.405 67.1718 111.451 67.7553 110.774C68.7357 109.677 69.7861 108.627 70.7899 107.553C71.0933 107.226 71.3034 106.993 71.7236 107.366C72.1437 107.74 72.0971 108.02 71.7236 108.417C70.8132 109.327 69.9962 110.331 69.0625 111.195C68.0354 112.128 68.9225 112.549 69.436 113.132C70.0429 113.832 70.3697 113.482 70.8832 112.945C72.7973 110.961 74.7815 109.047 76.7189 107.086C77.0457 106.76 77.3258 106.643 77.6993 107.016C78.0261 107.343 77.9327 107.6 77.6526 107.903C76.112 109.584 74.5014 111.218 73.0541 112.992C71.3734 115.046 69.4127 116.797 67.7086 118.828C67.4986 119.084 67.2885 119.341 67.5219 119.645C67.7787 119.972 68.0821 119.785 68.3622 119.645C69.2959 119.248 70.2296 118.851 71.14 118.454C71.5835 118.267 72.0737 118.081 72.3305 118.688C72.5639 119.201 72.2838 119.551 71.7703 119.785C68.1055 121.325 64.464 122.889 60.8225 124.453ZM69.4827 102.605C69.3193 97.866 69.4593 93.1274 69.4127 88.3655C69.4127 87.2451 69.7861 86.8949 70.9066 86.8949C76.8123 86.9416 82.718 86.9416 88.647 86.8949C89.7908 86.8949 90.1176 87.2918 90.1176 88.3889C90.0709 95.5084 90.0943 102.628 90.0943 109.724C90.0943 112.082 90.0476 114.439 90.1176 116.797C90.1409 117.894 89.8141 118.314 88.6704 118.314C83.8384 118.267 79.0298 118.291 74.1979 118.291C73.8944 118.291 73.4509 118.338 73.3109 118.174C72.3772 116.984 71.2801 117.31 69.9729 117.871C70.7899 116.4 71.887 115.513 72.844 114.509C74.3846 112.875 75.9019 111.218 77.3725 109.514C77.9794 108.79 78.633 108.534 79.5901 108.557C81.3874 108.627 83.1615 108.604 84.9589 108.58C86.8963 108.557 87.69 107.74 87.69 105.802C87.69 102.348 87.69 98.8931 87.69 95.415C87.69 93.8277 86.9663 92.964 85.4024 92.9407C81.6209 92.894 77.8627 92.8707 74.0812 92.9407C72.5639 92.964 71.8636 93.8277 71.8403 95.345C71.8403 98.5429 71.8403 101.718 71.8403 104.915C71.8403 105.569 71.957 106.176 70.9299 106.223C70.5098 106.246 70.0896 106.853 69.7161 107.25C68.9225 108.043 68.1521 108.884 67.3818 109.701C67.2184 109.887 67.0317 110.238 66.7282 109.957C66.3314 109.631 66.7516 109.444 66.915 109.211C66.9383 109.187 66.9617 109.141 66.985 109.117C69.2493 107.507 69.5761 105.219 69.4827 102.605ZM72.9841 107.763C72.5172 105.616 72.8907 103.445 72.7507 101.274C72.704 100.597 72.9607 100.41 73.6143 100.41C75.6685 100.434 77.7226 100.41 79.7768 100.41C81.7843 100.41 83.8151 100.434 85.8226 100.41C86.4061 100.41 86.7563 100.504 86.7563 101.227C86.7096 102.815 86.7329 104.402 86.7563 105.989C86.7796 106.993 86.3127 107.577 85.3324 107.577C83.3482 107.623 81.3874 107.577 79.4033 107.6C78.9131 107.6 78.8898 107.273 78.7497 106.946C78.0261 105.499 76.999 105.312 75.8786 106.503C74.2446 108.207 72.4705 109.794 70.9766 111.638C70.8599 111.778 70.6965 111.918 70.5331 112.012C70.323 112.128 70.1596 112.479 69.8562 112.175C69.5527 111.872 69.8562 111.685 70.0429 111.498C70.8599 110.611 71.6769 109.747 72.5172 108.86C72.8207 108.58 73.1008 108.253 72.9841 107.763ZM72.774 95.345C72.7507 94.4346 73.2175 93.8977 74.0812 93.8977C77.886 93.8744 81.6909 93.8744 85.4958 93.8977C86.3127 93.8977 86.7796 94.3879 86.7796 95.2516C86.7796 96.3487 86.7563 97.4225 86.8029 98.5196C86.8263 99.2199 86.4995 99.3599 85.8926 99.3366C83.8384 99.3132 81.7843 99.3366 79.7301 99.3366C77.7226 99.3366 75.6918 99.3132 73.6844 99.3599C73.0541 99.3599 72.774 99.1965 72.7973 98.5196C72.7973 97.4458 72.774 96.3954 72.774 95.345ZM93.8057 117.404C93.8057 120.555 91.8216 122.586 88.647 122.609C83.2782 122.633 77.9094 122.609 72.5639 122.609C71.1167 122.609 69.6928 122.609 68.2455 122.609C68.2222 122.539 68.1988 122.446 68.1521 122.376C69.4127 121.816 70.6732 121.255 71.9337 120.695C72.2605 120.555 72.7273 120.462 72.8207 120.205C73.3342 118.991 74.3613 119.271 75.295 119.271C79.6601 119.271 84.0018 119.271 88.3669 119.271C90.7012 119.271 90.9813 118.968 90.9813 116.68C90.9813 107.273 91.0046 97.866 91.028 88.4589C91.028 86.4047 90.6311 86.0079 88.577 86.0079C82.6713 86.0079 76.7656 86.0079 70.8366 86.0079C68.9225 86.0079 68.5023 86.4514 68.5023 88.3422C68.5023 93.5476 68.5023 98.753 68.5023 103.982C68.5023 104.542 68.5957 105.009 67.7553 104.659C66.845 104.285 66.5182 105.242 65.6778 105.686C65.6778 104.285 65.6778 103.025 65.6778 101.764C65.7012 97.1657 65.7012 92.5905 65.7245 87.992C65.7479 84.5607 67.6386 82.6699 71.0933 82.6699C76.8823 82.6699 82.6713 82.6699 88.4836 82.6699C91.915 82.6699 93.8291 84.6074 93.8291 88.0154C93.8291 95.3216 93.8291 102.628 93.8291 109.934C93.8057 112.432 93.8057 114.906 93.8057 117.404Z" fill="#363636"/>
<path d="M108.325 92.8007C108.395 92.2638 108.419 91.7036 107.835 91.3535C107.228 91.0033 106.808 91.4001 106.341 91.6803C105.291 92.3105 104.334 93.1975 103.12 92.8474C102.77 92.8474 102.63 92.8474 102.466 92.8474C101.836 92.8707 101.089 92.6606 100.715 93.4076C100.365 94.1079 100.832 94.6214 101.206 95.0883C102.163 96.2554 102.349 97.5626 102.233 99.0099C102.186 99.5467 102.139 100.13 102.723 100.457C103.283 100.761 103.797 100.504 104.217 100.154C105.454 99.1266 106.855 98.7531 108.442 98.9865C108.932 99.0565 109.492 99.0332 109.796 98.5197C110.123 97.9594 109.889 97.4459 109.539 97.0024C108.582 95.7652 108.115 94.388 108.325 92.8007ZM103.236 99.7802C103.19 99.29 103.143 99.1266 103.166 98.9865C103.353 97.3525 103.096 95.8352 101.976 94.5281C101.532 93.9912 101.696 93.6644 102.396 93.7811C104.03 94.0145 105.454 93.571 106.715 92.5673C107.158 92.2171 107.461 92.3105 107.368 92.9174C107.065 94.8082 107.788 96.3955 109.236 98.1228C106.855 97.726 104.964 98.1462 103.236 99.7802Z" fill="#363636"/>
<path d="M101.159 87.4785C101.789 87.3618 102.513 87.7353 102.886 86.9883C103.259 86.288 102.699 85.7745 102.349 85.331C101.672 84.4907 101.766 83.5336 101.742 82.5766C101.719 81.4094 101.135 81.0359 100.202 81.6895C99.1979 82.3898 98.1708 82.6699 96.957 82.5999C95.7198 82.5299 95.3463 83.2301 96.0699 84.3039C96.7235 85.2376 96.9803 86.218 96.9103 87.3385C96.8402 88.669 97.4938 88.9958 98.6376 88.3188C99.4546 87.8753 100.178 87.1984 101.159 87.4785ZM97.984 87.5952C98.1007 86.1013 97.7739 84.8641 96.6302 83.6036C98.2641 83.7437 99.5713 83.4869 100.902 82.2964C100.668 84.0005 100.995 85.261 102.116 86.5681C100.412 86.3814 99.1278 86.5915 97.984 87.5952Z" fill="#363636"/>
<path d="M111.032 86.2414C110.472 85.5411 110.309 84.7708 110.332 83.8604C110.379 82.8567 109.795 82.5299 108.908 83.0901C108.161 83.557 107.414 83.7904 106.504 83.7437C105.523 83.7204 105.173 84.2806 105.687 85.0509C106.224 85.8679 106.457 86.6849 106.41 87.642C106.387 88.529 106.947 88.8558 107.718 88.3656C108.535 87.8287 109.352 87.5252 110.332 87.642C110.869 87.6886 111.219 87.4552 111.289 86.8016C111.219 86.6382 111.149 86.4048 111.032 86.2414ZM107.414 87.4552C107.321 86.5682 107.391 85.7979 106.854 85.1443C106.597 84.8408 106.807 84.6541 107.157 84.6541C107.904 84.6774 108.605 84.4907 109.328 83.8838C109.398 84.9342 109.422 85.8212 110.169 86.6382C109.118 86.6849 108.231 86.825 107.414 87.4552Z" fill="#363636"/>
<path d="M76.8593 96.8389C77.1627 97.5625 77.6529 97.9594 78.4466 97.9827C79.2869 98.006 79.7071 97.3991 80.1506 96.7455C80.6175 97.7493 81.2944 98.1694 82.2748 97.9127C82.9984 97.7259 83.3719 97.1657 83.3952 96.4421C83.4186 95.7185 83.0684 95.1582 82.3682 94.9015C81.2944 94.528 80.6408 95.1116 80.1273 95.9752C78.9368 94.3879 77.8864 94.3646 76.7659 95.9752C75.8322 94.6914 74.8518 94.4346 74.0115 95.1816C73.3345 95.7652 73.2879 96.8156 73.8948 97.4692C74.6651 98.3095 75.6688 98.0994 76.8593 96.8389ZM81.7379 95.7652C82.1347 95.7418 82.3681 95.9752 82.3915 96.3954C82.3448 96.7689 82.1347 97.049 81.7379 97.0257C81.3411 97.0023 81.131 96.7455 81.131 96.3487C81.1777 95.9752 81.4111 95.7885 81.7379 95.7652ZM77.8163 96.302C77.863 95.9519 78.0964 95.7652 78.4699 95.7885C78.8901 95.8118 79.0535 96.092 79.1002 96.4187C78.9835 96.8389 78.7734 97.0957 78.3532 97.049C77.9564 96.9556 77.7463 96.6989 77.8163 96.302ZM75.0852 95.7652C75.5054 95.8118 75.7388 96.0453 75.7155 96.4421C75.6921 96.7689 75.4821 97.0023 75.1086 97.0257C74.6884 97.049 74.4316 96.7922 74.4316 96.4187C74.4316 96.0219 74.6884 95.7885 75.0852 95.7652Z" fill="#363636"/>
<defs>
<linearGradient id="paint0_linear_2001_13173" x1="-7.29839" y1="-21.8824" x2="97.8338" y2="82.9535" gradientUnits="userSpaceOnUse">
<stop stop-color="#231F20"/>
<stop offset="1" stop-color="white"/>
</linearGradient>
<linearGradient id="paint1_linear_2001_13173" x1="229.088" y1="251.323" x2="33.8937" y2="89.6388" gradientUnits="userSpaceOnUse">
<stop stop-color="#231F20"/>
<stop offset="1" stop-color="white"/>
</linearGradient>
<linearGradient id="paint2_linear_2001_13173" x1="-60.3086" y1="-118.45" x2="110.052" y2="78.2119" gradientUnits="userSpaceOnUse">
<stop stop-color="#231F20"/>
<stop offset="1" stop-color="white"/>
</linearGradient>
</defs>
</svg>
