<svg width="28" height="28" viewBox="0 0 28 28" fill="none" xmlns="http://www.w3.org/2000/svg">
<g clip-path="url(#clip0_1_4112)">
<path d="M7.72187 12.6583C6.45312 12.6583 5.19167 12.6583 3.92292 12.6583C2.14375 12.6583 0.882292 11.3968 0.875 9.61767C0.875 7.71455 0.875 5.81872 0.875 3.91559C0.875 2.13643 2.13646 0.874967 3.91562 0.867676C5.82604 0.867676 7.74375 0.867676 9.65417 0.867676C11.4187 0.867676 12.6802 2.12913 12.6875 3.89372C12.6875 6.47497 12.6875 9.05622 12.6875 11.6448C12.6875 12.3156 12.3521 12.6583 11.6812 12.6583C10.3615 12.6583 9.04167 12.6583 7.72187 12.6583ZM10.9375 10.9156C10.9375 10.8062 10.9375 10.7333 10.9375 10.6604C10.9375 8.40726 10.9375 6.15413 10.9375 3.89372C10.9375 3.09163 10.4562 2.61768 9.63958 2.61768C7.73646 2.61768 5.83333 2.61768 3.93021 2.61768C3.09896 2.61768 2.625 3.09163 2.625 3.92288C2.625 5.80413 2.625 7.68538 2.625 9.56663C2.625 10.4562 3.08437 10.9156 3.96667 10.9156C6.19062 10.9156 8.41458 10.9156 10.6385 10.9156C10.726 10.9156 10.8135 10.9156 10.9375 10.9156Z" fill="#4949FC"/>
<path d="M15.3125 7.69274C15.3125 6.43128 15.3125 5.16253 15.3125 3.90108C15.3198 2.13649 16.5813 0.875034 18.3458 0.867743C20.2708 0.867743 22.1885 0.860451 24.1135 0.867743C25.8635 0.875034 27.125 2.13649 27.1323 3.88649C27.1396 5.8042 27.1396 7.72191 27.1323 9.64691C27.1323 11.3896 25.8635 12.6584 24.1135 12.6657C21.5104 12.673 18.9 12.6657 16.2969 12.6657C15.6698 12.6657 15.3198 12.3157 15.3198 11.6813C15.3125 10.3469 15.3125 9.01983 15.3125 7.69274ZM17.0698 10.9157C17.1865 10.9157 17.2667 10.9157 17.3469 10.9157C19.5854 10.9157 21.8313 10.9157 24.0698 10.9157C24.9156 10.9157 25.3823 10.4417 25.3823 9.59587C25.3823 7.71462 25.3823 5.83337 25.3823 3.95212C25.3823 3.08441 24.9156 2.62503 24.0479 2.62503C22.1812 2.62503 20.3146 2.62503 18.4479 2.62503C17.5219 2.62503 17.0698 3.06983 17.0698 3.98858C17.0698 6.19066 17.0698 8.38545 17.0698 10.5875C17.0698 10.6823 17.0698 10.7771 17.0698 10.9157Z" fill="#4949FC"/>
<path d="M15.3125 20.2345C15.3125 18.9147 15.3125 17.5949 15.3125 16.2751C15.3125 15.6261 15.6625 15.2761 16.3042 15.2761C18.9 15.2761 21.4958 15.2761 24.099 15.2761C25.8635 15.2761 27.125 16.5376 27.1323 18.3022C27.1323 20.2126 27.1323 22.123 27.1323 24.0334C27.1323 25.798 25.8708 27.0595 24.099 27.0667C22.174 27.0667 20.2562 27.074 18.3312 27.0667C16.5885 27.0595 15.3198 25.798 15.3125 24.048C15.3125 22.7792 15.3125 21.5105 15.3125 20.2345ZM17.0698 17.0261C17.0698 19.3886 17.0698 21.7074 17.0698 24.0261C17.0698 24.8501 17.5438 25.324 18.375 25.324C20.2708 25.324 22.1667 25.324 24.0625 25.324C24.9083 25.324 25.3823 24.8574 25.3823 24.0115C25.3823 22.123 25.3823 20.2272 25.3823 18.3386C25.3823 17.4928 24.9083 17.0261 24.0552 17.0261C21.824 17.0261 19.5927 17.0261 17.3615 17.0261C17.274 17.0261 17.1865 17.0261 17.0698 17.0261Z" fill="#4949FC"/>
<path d="M7.72187 15.2833C9.03438 15.2833 10.3469 15.2833 11.6594 15.2833C12.3521 15.2833 12.6875 15.6187 12.6875 16.2968C12.6875 18.8781 12.6875 21.4593 12.6875 24.0479C12.6875 25.8124 11.4187 27.0739 9.65417 27.0739C7.74375 27.0739 5.82604 27.0739 3.91562 27.0739C2.13646 27.0739 0.875 25.8124 0.875 24.026C0.875 22.1229 0.875 20.227 0.875 18.3239C0.875 16.5447 2.13646 15.2833 3.92292 15.2833C5.19167 15.276 6.45312 15.2833 7.72187 15.2833ZM10.9375 17.026C8.56771 17.026 6.24896 17.026 3.92292 17.026C3.09167 17.026 2.625 17.4999 2.625 18.3312C2.625 20.2197 2.625 22.1156 2.625 24.0041C2.625 24.8499 3.09167 25.3239 3.94479 25.3239C5.84062 25.3239 7.73646 25.3239 9.63229 25.3239C10.4781 25.3239 10.9448 24.8499 10.9448 24.0041C10.9448 21.7801 10.9448 19.5489 10.9448 17.3249C10.9375 17.2301 10.9375 17.1426 10.9375 17.026Z" fill="#4949FC"/>
</g>
<defs>
<clipPath id="clip0_1_4112">
<rect width="28" height="28" fill="white"/>
</clipPath>
</defs>
</svg>
